<svg preserveAspectRatio="none" width="100%" height="100%" overflow="visible" style="display: block;" viewBox="0 0 42.2752 25.6144" fill="none" xmlns="http://www.w3.org/2000/svg">
<g id="Lever du soleil">
<mask id="path-1-outside-1_9_139" maskUnits="userSpaceOnUse" x="-0.760127" y="-0.723423" width="44" height="27" fill="black">
<rect fill="white" x="-0.760127" y="-0.723423" width="44" height="27"/>
<path d="M7.31563 0.360534C7.47235 0.360534 7.62907 0.354936 7.78579 0.343742C7.9425 0.321354 8.10482 0.298966 8.27273 0.276577V0.360534C8.07123 0.517251 7.9481 0.70755 7.90332 0.931432C7.85855 1.14412 7.83616 1.368 7.83616 1.60308V11.8457H9.14587C9.57124 11.8457 9.91266 11.7281 10.1701 11.4931C10.4276 11.2468 10.6291 10.9557 10.7746 10.6199C10.9201 10.2841 11.0265 9.93708 11.0936 9.57887C11.1608 9.20946 11.2112 8.90163 11.2448 8.65536H11.3791L11.1608 12.0136H6.37533V11.9464C6.47608 11.8681 6.56563 11.7561 6.64399 11.6106C6.73354 11.4539 6.77832 11.23 6.77832 10.939V1.63666C6.77832 1.39039 6.75593 1.15531 6.71115 0.931432C6.66638 0.70755 6.54324 0.517251 6.34175 0.360534V0.276577C6.49846 0.298966 6.65518 0.321354 6.8119 0.343742C6.97981 0.354936 7.14772 0.360534 7.31563 0.360534Z"/>
<path d="M14.5016 3.50048C14.8486 3.50048 15.162 3.57324 15.4419 3.71876C15.7329 3.85309 15.9736 4.0266 16.1639 4.23929C16.3654 4.44078 16.5109 4.66466 16.6005 4.91093C16.69 5.14601 16.7068 5.36989 16.6508 5.58258C16.6061 5.78407 16.4773 5.95758 16.2647 6.1031C16.0632 6.23743 15.7665 6.3046 15.3747 6.3046H13.0072C12.9848 6.51728 12.968 6.72997 12.9568 6.94266C12.9456 7.15535 12.94 7.35684 12.94 7.54714C12.94 8.03968 12.968 8.53222 13.024 9.02476C13.0911 9.5173 13.1919 9.95947 13.3262 10.3513C13.4717 10.7431 13.6564 11.0621 13.8803 11.3084C14.1042 11.5546 14.3729 11.6778 14.6863 11.6778C14.9214 11.6778 15.1285 11.6106 15.3076 11.4763C15.4867 11.3419 15.6434 11.174 15.7777 10.9725C15.912 10.771 16.024 10.5528 16.1135 10.3177C16.2143 10.0714 16.287 9.84753 16.3318 9.64603C16.3878 9.43335 16.4214 9.24864 16.4326 9.09193C16.455 8.93521 16.4606 8.84566 16.4494 8.82327H16.6173C16.6285 8.85685 16.6229 8.96319 16.6005 9.1423C16.5893 9.3214 16.5557 9.53409 16.4997 9.78036C16.4438 10.0266 16.3598 10.2897 16.2479 10.5695C16.1471 10.8494 16.0128 11.1125 15.8449 11.3587C15.677 11.5938 15.4643 11.7897 15.2068 11.9464C14.9605 12.1031 14.6639 12.1815 14.3169 12.1815C13.8691 12.1815 13.4885 12.0528 13.1751 11.7953C12.8728 11.5266 12.6266 11.1852 12.4363 10.771C12.246 10.3457 12.106 9.87551 12.0165 9.36058C11.9269 8.84566 11.8822 8.33073 11.8822 7.8158C11.8822 7.37923 11.9269 6.90908 12.0165 6.40534C12.106 5.89042 12.2516 5.42026 12.4531 4.99489C12.6658 4.56951 12.94 4.2169 13.2758 3.93705C13.6117 3.646 14.0202 3.50048 14.5016 3.50048ZM15.1732 6.13669C15.3188 6.13669 15.4251 6.07512 15.4923 5.95198C15.5706 5.82885 15.6154 5.67773 15.6266 5.49862C15.649 5.31952 15.6378 5.12362 15.593 4.91093C15.5594 4.69824 15.4923 4.50235 15.3915 4.32324C15.302 4.14414 15.1788 3.99302 15.0221 3.86988C14.8766 3.74675 14.7087 3.68518 14.5184 3.68518C14.2721 3.68518 14.065 3.77473 13.8971 3.95384C13.7292 4.13294 13.5837 4.35123 13.4605 4.60869C13.3486 4.86616 13.259 5.13481 13.1919 5.41467C13.1247 5.69452 13.0743 5.93519 13.0408 6.13669H15.1732Z"/>
<path d="M17.0271 3.76913V3.68518H19.1428V3.76913C19.0196 3.84749 18.9413 3.95384 18.9077 4.08817C18.8853 4.2225 18.8741 4.36242 18.8741 4.50794C18.8741 4.85496 18.9245 5.22996 19.0252 5.63295L20.3685 11.2076L21.5775 5.64974C21.7006 5.11243 21.7286 4.68145 21.6614 4.35682C21.6055 4.021 21.4543 3.8251 21.2081 3.76913V3.68518H22.904V3.76913C22.7473 3.8251 22.6073 3.92025 22.4842 4.05458C22.3723 4.18891 22.2659 4.34563 22.1652 4.52474C22.0756 4.69265 21.9973 4.87735 21.9301 5.07884C21.8741 5.26914 21.8237 5.45944 21.779 5.64974L20.3853 12.0136H19.4786L17.8498 5.26355C17.7603 4.92772 17.6483 4.61989 17.514 4.34003C17.3797 4.04899 17.2174 3.85869 17.0271 3.76913Z"/>
<path d="M25.7011 3.50048C26.0482 3.50048 26.3616 3.57324 26.6414 3.71876C26.9325 3.85309 27.1732 4.0266 27.3635 4.23929C27.565 4.44078 27.7105 4.66466 27.8 4.91093C27.8896 5.14601 27.9064 5.36989 27.8504 5.58258C27.8056 5.78407 27.6769 5.95758 27.4642 6.1031C27.2627 6.23743 26.9661 6.3046 26.5743 6.3046H24.2067C24.1843 6.51728 24.1676 6.72997 24.1564 6.94266C24.1452 7.15535 24.1396 7.35684 24.1396 7.54714C24.1396 8.03968 24.1676 8.53222 24.2235 9.02476C24.2907 9.5173 24.3914 9.95947 24.5258 10.3513C24.6713 10.7431 24.856 11.0621 25.0799 11.3084C25.3038 11.5546 25.5724 11.6778 25.8858 11.6778C26.1209 11.6778 26.328 11.6106 26.5071 11.4763C26.6862 11.3419 26.8429 11.174 26.9773 10.9725C27.1116 10.771 27.2235 10.5528 27.3131 10.3177C27.4138 10.0714 27.4866 9.84753 27.5314 9.64603C27.5873 9.43335 27.6209 9.24864 27.6321 9.09193C27.6545 8.93521 27.6601 8.84566 27.6489 8.82327H27.8168C27.828 8.85685 27.8224 8.96319 27.8 9.1423C27.7888 9.3214 27.7553 9.53409 27.6993 9.78036C27.6433 10.0266 27.5594 10.2897 27.4474 10.5695C27.3467 10.8494 27.2123 11.1125 27.0444 11.3587C26.8765 11.5938 26.6638 11.7897 26.4064 11.9464C26.1601 12.1031 25.8635 12.1815 25.5164 12.1815C25.0687 12.1815 24.6881 12.0528 24.3746 11.7953C24.0724 11.5266 23.8261 11.1852 23.6358 10.771C23.4455 10.3457 23.3056 9.87551 23.2161 9.36058C23.1265 8.84566 23.0817 8.33073 23.0817 7.8158C23.0817 7.37923 23.1265 6.90908 23.2161 6.40534C23.3056 5.89042 23.4511 5.42026 23.6526 4.99489C23.8653 4.56951 24.1396 4.2169 24.4754 3.93705C24.8112 3.646 25.2198 3.50048 25.7011 3.50048ZM26.3728 6.13669C26.5183 6.13669 26.6247 6.07512 26.6918 5.95198C26.7702 5.82885 26.815 5.67773 26.8261 5.49862C26.8485 5.31952 26.8373 5.12362 26.7926 4.91093C26.759 4.69824 26.6918 4.50235 26.5911 4.32324C26.5015 4.14414 26.3784 3.99302 26.2217 3.86988C26.0761 3.74675 25.9082 3.68518 25.7179 3.68518C25.4717 3.68518 25.2646 3.77473 25.0967 3.95384C24.9288 4.13294 24.7832 4.35123 24.6601 4.60869C24.5482 4.86616 24.4586 5.13481 24.3914 5.41467C24.3243 5.69452 24.2739 5.93519 24.2403 6.13669H26.3728Z"/>
<path d="M28.6425 12.0136V11.9296C28.732 11.9072 28.816 11.8345 28.8943 11.7113C28.9839 11.577 29.0287 11.3307 29.0287 10.9725V5.19638C29.0287 4.83817 28.9839 4.5975 28.8943 4.47436C28.816 4.34003 28.732 4.26167 28.6425 4.23929V4.15533C28.8328 4.15533 29.0735 4.11615 29.3645 4.03779C29.6555 3.95943 29.8626 3.8419 29.9858 3.68518H30.0697V5.26355C30.1705 4.84936 30.3384 4.48556 30.5735 4.17212C30.8197 3.84749 31.1388 3.68518 31.5306 3.68518C31.8552 3.68518 32.1406 3.80831 32.3869 4.05458C32.6444 4.28966 32.7731 4.5919 32.7731 4.96131L31.6985 5.02847C31.6537 4.77101 31.5697 4.5919 31.4466 4.49115C31.3235 4.37921 31.1947 4.32324 31.0604 4.32324C30.8813 4.32324 30.7246 4.41279 30.5903 4.5919C30.4671 4.75981 30.3664 4.96131 30.288 5.19638C30.2097 5.42026 30.1537 5.64974 30.1201 5.88482C30.0865 6.11989 30.0697 6.299 30.0697 6.42213V10.9725C30.0697 11.3307 30.1089 11.577 30.1873 11.7113C30.2768 11.8345 30.3664 11.9072 30.4559 11.9296V12.0136H28.6425Z"/>
<path d="M3.11116 16.7103C3.96191 16.7103 4.52161 17.1693 4.79027 18.0872V14.5107C4.79027 14.1525 4.7455 13.9118 4.65594 13.7886C4.57758 13.6543 4.49363 13.576 4.40408 13.5536V13.4696C4.59438 13.4696 4.83505 13.4304 5.1261 13.3521C5.41714 13.2737 5.62423 13.1562 5.74737 12.9995H5.83132V24.1656C5.83132 24.5238 5.8705 24.7701 5.94886 24.9044C6.03841 25.0275 6.12797 25.1003 6.21752 25.1227V25.2066H4.79027V23.7458C4.72311 23.9473 4.62796 24.1432 4.50482 24.3335C4.39288 24.5126 4.25855 24.6749 4.10184 24.8204C3.94512 24.9659 3.76042 25.0835 3.54773 25.173C3.33504 25.2626 3.09996 25.3074 2.8425 25.3074C2.40593 25.3074 2.01973 25.1842 1.68391 24.938C1.35928 24.6917 1.09062 24.3727 0.877937 23.9809C0.665249 23.5779 0.502935 23.1357 0.390994 22.6544C0.290247 22.1618 0.239873 21.6805 0.239873 21.2103C0.239873 20.7178 0.295844 20.2085 0.407785 19.6823C0.53092 19.145 0.710025 18.6581 0.945101 18.2215C1.18018 17.7849 1.47682 17.4267 1.83503 17.1469C2.19324 16.8558 2.61862 16.7103 3.11116 16.7103ZM3.06078 24.938C3.30705 24.938 3.53094 24.8764 3.73243 24.7533C3.94512 24.6301 4.12982 24.4734 4.28654 24.2831C4.44326 24.0816 4.56639 23.8577 4.65594 23.6115C4.7455 23.354 4.79027 23.0909 4.79027 22.8223V19.7327C4.79027 18.8372 4.66154 18.1487 4.40408 17.6674C4.14661 17.1749 3.77721 16.9286 3.29586 16.9286C2.90407 16.9286 2.57944 17.0797 2.32197 17.382C2.06451 17.6842 1.85742 18.0592 1.7007 18.507C1.55518 18.9547 1.44884 19.4249 1.38167 19.9174C1.3257 20.41 1.29772 20.8521 1.29772 21.2439C1.29772 21.5238 1.31451 21.8764 1.34809 22.3018C1.39286 22.7271 1.47682 23.1357 1.59996 23.5275C1.73428 23.9081 1.91339 24.2383 2.13727 24.5182C2.37235 24.798 2.68019 24.938 3.06078 24.938Z"/>
<path d="M8.03713 16.9622C8.19384 16.9622 8.35056 16.9566 8.50728 16.9454C8.67519 16.923 8.8375 16.9006 8.99422 16.8782V16.9622C8.79273 17.1189 8.66959 17.3092 8.62482 17.5331C8.58004 17.757 8.55765 17.992 8.55765 18.2383V21.798C8.55765 22.8503 8.66959 23.6674 8.89348 24.2495C9.11736 24.8316 9.44199 25.1227 9.86736 25.1227C10.0577 25.1227 10.2424 25.0611 10.4215 24.938C10.6118 24.8148 10.7741 24.6357 10.9084 24.4006C11.0539 24.1656 11.1715 23.8745 11.261 23.5275C11.3506 23.1805 11.3954 22.7887 11.3954 22.3521V18.2383C11.3954 18.0032 11.373 17.7737 11.3282 17.5499C11.2834 17.3148 11.1603 17.1189 10.9588 16.9622V16.8782C11.1267 16.9006 11.289 16.923 11.4457 16.9454C11.6024 16.9566 11.7648 16.9622 11.9327 16.9622C12.0894 16.9622 12.2461 16.9566 12.4028 16.9454C12.5707 16.923 12.733 16.9006 12.8898 16.8782V16.9622C12.6883 17.1189 12.5651 17.3092 12.5204 17.5331C12.4756 17.757 12.4532 17.992 12.4532 18.2383V23.6954C12.4532 24.0536 12.4924 24.2999 12.5707 24.4342C12.6603 24.5574 12.7498 24.6301 12.8394 24.6525V24.7365C12.7498 24.7365 12.6379 24.7477 12.5036 24.7701C12.3692 24.7924 12.2349 24.826 12.1006 24.8708C11.9774 24.9044 11.8543 24.9492 11.7312 25.0051C11.6192 25.0611 11.5353 25.1283 11.4793 25.2066H11.3954V23.645C11.2498 24.2159 11.0148 24.6469 10.6901 24.938C10.3655 25.229 9.9905 25.3745 9.56512 25.3745C8.92706 25.3745 8.42332 25.0611 8.05392 24.4342C7.68451 23.7962 7.49981 22.9342 7.49981 21.8484V18.2047C7.49981 17.9696 7.47742 17.7458 7.43265 17.5331C7.38787 17.3092 7.26474 17.1189 7.06324 16.9622V16.8782C7.23115 16.9006 7.39347 16.923 7.55018 16.9454C7.7069 16.9566 7.86922 16.9622 8.03713 16.9622Z"/>
<path d="M19.2111 16.7103C19.6589 16.7103 20.0675 16.8334 20.4369 17.0797C20.8063 17.3148 21.0861 17.6282 21.2764 18.02L20.4872 18.6245C20.4872 18.4006 20.4536 18.1823 20.3865 17.9696C20.3193 17.757 20.2242 17.5723 20.101 17.4155C19.9891 17.2476 19.8492 17.1189 19.6813 17.0293C19.5245 16.9286 19.3566 16.8782 19.1775 16.8782C18.8529 16.8782 18.5842 17.0181 18.3715 17.298C18.1701 17.5778 18.0693 17.8969 18.0693 18.2551C18.0693 18.5685 18.1477 18.8428 18.3044 19.0779C18.4611 19.3129 18.657 19.5368 18.8921 19.7495C19.1272 19.9622 19.3846 20.1693 19.6645 20.3708C19.9443 20.5723 20.2018 20.8017 20.4369 21.0592C20.6719 21.3055 20.8678 21.5853 21.0245 21.8988C21.1813 22.201 21.2596 22.5648 21.2596 22.9902C21.2596 23.3372 21.2037 23.6562 21.0917 23.9473C20.9798 24.2271 20.8231 24.4734 20.6216 24.6861C20.4201 24.8876 20.185 25.0443 19.9163 25.1562C19.6589 25.2682 19.379 25.3242 19.0768 25.3242C18.7298 25.3242 18.4107 25.2514 18.1197 25.1059C17.8286 24.9604 17.5432 24.7533 17.2633 24.4846V22.1338H17.4312C17.4536 22.5704 17.5208 22.9734 17.6327 23.3428C17.7447 23.7122 17.879 24.0312 18.0357 24.2999C18.2036 24.5686 18.3827 24.7812 18.573 24.938C18.7745 25.0835 18.9648 25.1562 19.1439 25.1562C19.2895 25.1562 19.435 25.1115 19.5805 25.0219C19.726 24.9212 19.8548 24.7924 19.9667 24.6357C20.0786 24.479 20.1682 24.2943 20.2354 24.0816C20.3025 23.8577 20.3361 23.6283 20.3361 23.3932C20.3361 23.0238 20.2578 22.7047 20.101 22.4361C19.9443 22.1562 19.7484 21.9044 19.5133 21.6805C19.2783 21.4454 19.0208 21.2327 18.741 21.0424C18.4611 20.8409 18.2036 20.6338 17.9686 20.4211C17.7335 20.1973 17.5376 19.9566 17.3809 19.6991C17.2242 19.4305 17.1458 19.1226 17.1458 18.7756C17.1458 18.5182 17.1906 18.2663 17.2801 18.02C17.3809 17.7737 17.5208 17.5555 17.6999 17.3652C17.879 17.1637 18.0973 17.0069 18.3548 16.895C18.6122 16.7719 18.8977 16.7103 19.2111 16.7103Z"/>
<path d="M21.9503 21.0088C21.9503 20.5275 22.0063 20.035 22.1182 19.5312C22.2413 19.0163 22.4316 18.5517 22.6891 18.1376C22.9466 17.7234 23.2768 17.3819 23.6798 17.1133C24.0828 16.8446 24.5697 16.7103 25.1406 16.7103C25.7115 16.7103 26.1984 16.8446 26.6014 17.1133C27.0044 17.3819 27.3346 17.7234 27.5921 18.1376C27.8496 18.5517 28.0343 19.0163 28.1462 19.5312C28.2694 20.035 28.3309 20.5275 28.3309 21.0088C28.3309 21.4902 28.2694 21.9883 28.1462 22.5032C28.0343 23.007 27.8496 23.4715 27.5921 23.8969C27.3346 24.3111 27.0044 24.6525 26.6014 24.9212C26.1984 25.1786 25.7115 25.3074 25.1406 25.3074C24.5697 25.3074 24.0828 25.1786 23.6798 24.9212C23.2768 24.6525 22.9466 24.3111 22.6891 23.8969C22.4316 23.4715 22.2413 23.007 22.1182 22.5032C22.0063 21.9883 21.9503 21.4902 21.9503 21.0088ZM23.0249 21.0088C23.0249 21.4006 23.0529 21.8372 23.1089 22.3185C23.176 22.7887 23.288 23.2365 23.4447 23.6618C23.6014 24.076 23.8141 24.4286 24.0828 24.7197C24.3626 24.9995 24.7152 25.1395 25.1406 25.1395C25.566 25.1395 25.913 24.9995 26.1817 24.7197C26.4615 24.4286 26.6798 24.076 26.8365 23.6618C26.9932 23.2365 27.0996 22.7887 27.1555 22.3185C27.2227 21.8372 27.2563 21.4006 27.2563 21.0088C27.2563 20.617 27.2227 20.1861 27.1555 19.7159C27.0996 19.2346 26.9932 18.7868 26.8365 18.3726C26.6798 17.9473 26.4615 17.5946 26.1817 17.3148C25.913 17.0237 25.566 16.8782 25.1406 16.8782C24.7152 16.8782 24.3626 17.0237 24.0828 17.3148C23.8141 17.5946 23.6014 17.9473 23.4447 18.3726C23.288 18.7868 23.176 19.2346 23.1089 19.7159C23.0529 20.1861 23.0249 20.617 23.0249 21.0088Z"/>
<path d="M29.0852 25.1227C29.2867 24.9659 29.4098 24.7756 29.4546 24.5518C29.4994 24.3279 29.5218 24.0928 29.5218 23.8465V14.5107C29.5218 14.1525 29.477 13.9118 29.3875 13.7886C29.3091 13.6543 29.2251 13.576 29.1356 13.5536V13.4696C29.2251 13.4696 29.3371 13.4584 29.4714 13.436C29.6057 13.4136 29.7345 13.3857 29.8576 13.3521C29.9919 13.3073 30.1151 13.2569 30.227 13.201C30.3501 13.145 30.4397 13.0778 30.4957 12.9995H30.5796V23.8465C30.5796 24.0816 30.602 24.3167 30.6468 24.5518C30.6916 24.7756 30.8147 24.9659 31.0162 25.1227V25.2066C30.8483 25.1842 30.686 25.1674 30.5293 25.1562C30.3725 25.1339 30.2158 25.1227 30.0591 25.1227C29.8912 25.1227 29.7233 25.1339 29.5554 25.1562C29.3986 25.1674 29.2419 25.1842 29.0852 25.2066V25.1227Z"/>
<path d="M34.3919 16.6935C34.7389 16.6935 35.0523 16.7663 35.3322 16.9118C35.6232 17.0461 35.8639 17.2196 36.0542 17.4323C36.2557 17.6338 36.4012 17.8577 36.4908 18.104C36.5803 18.339 36.5971 18.5629 36.5411 18.7756C36.4964 18.9771 36.3676 19.1506 36.1549 19.2961C35.9534 19.4305 35.6568 19.4976 35.265 19.4976H32.8975C32.8751 19.7103 32.8583 19.923 32.8471 20.1357C32.8359 20.3484 32.8303 20.5499 32.8303 20.7402C32.8303 21.2327 32.8583 21.7253 32.9142 22.2178C32.9814 22.7103 33.0822 23.1525 33.2165 23.5443C33.362 23.9361 33.5467 24.2551 33.7706 24.5014C33.9945 24.7477 34.2631 24.8708 34.5766 24.8708C34.8116 24.8708 35.0187 24.8036 35.1978 24.6693C35.377 24.535 35.5337 24.3671 35.668 24.1656C35.8023 23.9641 35.9143 23.7458 36.0038 23.5107C36.1046 23.2644 36.1773 23.0406 36.2221 22.8391C36.2781 22.6264 36.3117 22.4417 36.3229 22.285C36.3452 22.1282 36.3508 22.0387 36.3396 22.0163H36.5076C36.5187 22.0499 36.5131 22.1562 36.4908 22.3353C36.4796 22.5144 36.446 22.7271 36.39 22.9734C36.334 23.2197 36.2501 23.4827 36.1381 23.7626C36.0374 24.0424 35.9031 24.3055 35.7352 24.5518C35.5672 24.7868 35.3546 24.9827 35.0971 25.1395C34.8508 25.2962 34.5542 25.3745 34.2072 25.3745C33.7594 25.3745 33.3788 25.2458 33.0654 24.9883C32.7631 24.7197 32.5169 24.3783 32.3266 23.9641C32.1363 23.5387 31.9963 23.0686 31.9068 22.5536C31.8172 22.0387 31.7725 21.5238 31.7725 21.0088C31.7725 20.5723 31.8172 20.1021 31.9068 19.5984C31.9963 19.0835 32.1419 18.6133 32.3433 18.1879C32.556 17.7625 32.8303 17.4099 33.1661 17.1301C33.5019 16.839 33.9105 16.6935 34.3919 16.6935ZM35.0635 19.3297C35.209 19.3297 35.3154 19.2682 35.3825 19.145C35.4609 19.0219 35.5057 18.8708 35.5169 18.6917C35.5393 18.5126 35.5281 18.3167 35.4833 18.104C35.4497 17.8913 35.3825 17.6954 35.2818 17.5163C35.1922 17.3372 35.0691 17.1861 34.9124 17.0629C34.7669 16.9398 34.599 16.8782 34.4087 16.8782C34.1624 16.8782 33.9553 16.9678 33.7874 17.1469C33.6195 17.326 33.474 17.5443 33.3508 17.8017C33.2389 18.0592 33.1493 18.3279 33.0822 18.6077C33.015 18.8876 32.9646 19.1282 32.931 19.3297H35.0635Z"/>
<path d="M37.3332 25.1562C37.5347 25.0443 37.6578 24.91 37.7026 24.7533C37.7474 24.5965 37.7698 24.4342 37.7698 24.2663V17.8521C37.7698 17.4939 37.725 17.2532 37.6354 17.1301C37.5571 16.9958 37.4731 16.9174 37.3836 16.895V16.8111C37.4731 16.8111 37.5851 16.7999 37.7194 16.7775C37.8537 16.7551 37.9825 16.7271 38.1056 16.6935C38.2399 16.6487 38.3631 16.5984 38.475 16.5424C38.5981 16.4864 38.6877 16.4193 38.7437 16.3409H38.8276V24.2327C38.8276 24.4006 38.85 24.5686 38.8948 24.7365C38.9396 24.9044 39.0627 25.0387 39.2642 25.1395V25.2066C39.0963 25.1842 38.934 25.1674 38.7772 25.1562C38.6205 25.1339 38.4638 25.1227 38.3071 25.1227C38.1392 25.1227 37.9713 25.1339 37.8034 25.1562C37.6466 25.1674 37.4899 25.1842 37.3332 25.2066V25.1562ZM37.5347 14.7457C37.5347 14.5331 37.5907 14.3428 37.7026 14.1748C37.8257 13.9957 38.0048 13.9062 38.2399 13.9062C38.4638 13.9062 38.6317 13.9901 38.7437 14.1581C38.8668 14.326 38.9284 14.5163 38.9284 14.729C38.9284 14.9416 38.8668 15.1319 38.7437 15.2998C38.6317 15.4678 38.4582 15.5517 38.2231 15.5517C37.9881 15.5517 37.8146 15.4678 37.7026 15.2998C37.5907 15.1319 37.5347 14.9472 37.5347 14.7457Z"/>
<path d="M40.1044 25.1227C40.3059 24.9659 40.429 24.7756 40.4738 24.5518C40.5186 24.3279 40.541 24.0928 40.541 23.8465V14.5107C40.541 14.1525 40.4962 13.9118 40.4066 13.7886C40.3283 13.6543 40.2443 13.576 40.1548 13.5536V13.4696C40.2443 13.4696 40.3563 13.4584 40.4906 13.436C40.6249 13.4136 40.7537 13.3857 40.8768 13.3521C41.0111 13.3073 41.1343 13.2569 41.2462 13.201C41.3693 13.145 41.4589 13.0778 41.5149 12.9995H41.5988V23.8465C41.5988 24.0816 41.6212 24.3167 41.666 24.5518C41.7108 24.7756 41.8339 24.9659 42.0354 25.1227V25.2066C41.8675 25.1842 41.7052 25.1674 41.5484 25.1562C41.3917 25.1339 41.235 25.1227 41.0783 25.1227C40.9104 25.1227 40.7425 25.1339 40.5746 25.1562C40.4178 25.1674 40.2611 25.1842 40.1044 25.2066V25.1227Z"/>
</mask>
<path d="M7.31563 0.360534C7.47235 0.360534 7.62907 0.354936 7.78579 0.343742C7.9425 0.321354 8.10482 0.298966 8.27273 0.276577V0.360534C8.07123 0.517251 7.9481 0.70755 7.90332 0.931432C7.85855 1.14412 7.83616 1.368 7.83616 1.60308V11.8457H9.14587C9.57124 11.8457 9.91266 11.7281 10.1701 11.4931C10.4276 11.2468 10.6291 10.9557 10.7746 10.6199C10.9201 10.2841 11.0265 9.93708 11.0936 9.57887C11.1608 9.20946 11.2112 8.90163 11.2448 8.65536H11.3791L11.1608 12.0136H6.37533V11.9464C6.47608 11.8681 6.56563 11.7561 6.64399 11.6106C6.73354 11.4539 6.77832 11.23 6.77832 10.939V1.63666C6.77832 1.39039 6.75593 1.15531 6.71115 0.931432C6.66638 0.70755 6.54324 0.517251 6.34175 0.360534V0.276577C6.49846 0.298966 6.65518 0.321354 6.8119 0.343742C6.97981 0.354936 7.14772 0.360534 7.31563 0.360534Z" fill="var(--fill-0, #FFF5E2)"/>
<path d="M14.5016 3.50048C14.8486 3.50048 15.162 3.57324 15.4419 3.71876C15.7329 3.85309 15.9736 4.0266 16.1639 4.23929C16.3654 4.44078 16.5109 4.66466 16.6005 4.91093C16.69 5.14601 16.7068 5.36989 16.6508 5.58258C16.6061 5.78407 16.4773 5.95758 16.2647 6.1031C16.0632 6.23743 15.7665 6.3046 15.3747 6.3046H13.0072C12.9848 6.51728 12.968 6.72997 12.9568 6.94266C12.9456 7.15535 12.94 7.35684 12.94 7.54714C12.94 8.03968 12.968 8.53222 13.024 9.02476C13.0911 9.5173 13.1919 9.95947 13.3262 10.3513C13.4717 10.7431 13.6564 11.0621 13.8803 11.3084C14.1042 11.5546 14.3729 11.6778 14.6863 11.6778C14.9214 11.6778 15.1285 11.6106 15.3076 11.4763C15.4867 11.3419 15.6434 11.174 15.7777 10.9725C15.912 10.771 16.024 10.5528 16.1135 10.3177C16.2143 10.0714 16.287 9.84753 16.3318 9.64603C16.3878 9.43335 16.4214 9.24864 16.4326 9.09193C16.455 8.93521 16.4606 8.84566 16.4494 8.82327H16.6173C16.6285 8.85685 16.6229 8.96319 16.6005 9.1423C16.5893 9.3214 16.5557 9.53409 16.4997 9.78036C16.4438 10.0266 16.3598 10.2897 16.2479 10.5695C16.1471 10.8494 16.0128 11.1125 15.8449 11.3587C15.677 11.5938 15.4643 11.7897 15.2068 11.9464C14.9605 12.1031 14.6639 12.1815 14.3169 12.1815C13.8691 12.1815 13.4885 12.0528 13.1751 11.7953C12.8728 11.5266 12.6266 11.1852 12.4363 10.771C12.246 10.3457 12.106 9.87551 12.0165 9.36058C11.9269 8.84566 11.8822 8.33073 11.8822 7.8158C11.8822 7.37923 11.9269 6.90908 12.0165 6.40534C12.106 5.89042 12.2516 5.42026 12.4531 4.99489C12.6658 4.56951 12.94 4.2169 13.2758 3.93705C13.6117 3.646 14.0202 3.50048 14.5016 3.50048ZM15.1732 6.13669C15.3188 6.13669 15.4251 6.07512 15.4923 5.95198C15.5706 5.82885 15.6154 5.67773 15.6266 5.49862C15.649 5.31952 15.6378 5.12362 15.593 4.91093C15.5594 4.69824 15.4923 4.50235 15.3915 4.32324C15.302 4.14414 15.1788 3.99302 15.0221 3.86988C14.8766 3.74675 14.7087 3.68518 14.5184 3.68518C14.2721 3.68518 14.065 3.77473 13.8971 3.95384C13.7292 4.13294 13.5837 4.35123 13.4605 4.60869C13.3486 4.86616 13.259 5.13481 13.1919 5.41467C13.1247 5.69452 13.0743 5.93519 13.0408 6.13669H15.1732Z" fill="var(--fill-0, #FFF5E2)"/>
<path d="M17.0271 3.76913V3.68518H19.1428V3.76913C19.0196 3.84749 18.9413 3.95384 18.9077 4.08817C18.8853 4.2225 18.8741 4.36242 18.8741 4.50794C18.8741 4.85496 18.9245 5.22996 19.0252 5.63295L20.3685 11.2076L21.5775 5.64974C21.7006 5.11243 21.7286 4.68145 21.6614 4.35682C21.6055 4.021 21.4543 3.8251 21.2081 3.76913V3.68518H22.904V3.76913C22.7473 3.8251 22.6073 3.92025 22.4842 4.05458C22.3723 4.18891 22.2659 4.34563 22.1652 4.52474C22.0756 4.69265 21.9973 4.87735 21.9301 5.07884C21.8741 5.26914 21.8237 5.45944 21.779 5.64974L20.3853 12.0136H19.4786L17.8498 5.26355C17.7603 4.92772 17.6483 4.61989 17.514 4.34003C17.3797 4.04899 17.2174 3.85869 17.0271 3.76913Z" fill="var(--fill-0, #FFF5E2)"/>
<path d="M25.7011 3.50048C26.0482 3.50048 26.3616 3.57324 26.6414 3.71876C26.9325 3.85309 27.1732 4.0266 27.3635 4.23929C27.565 4.44078 27.7105 4.66466 27.8 4.91093C27.8896 5.14601 27.9064 5.36989 27.8504 5.58258C27.8056 5.78407 27.6769 5.95758 27.4642 6.1031C27.2627 6.23743 26.9661 6.3046 26.5743 6.3046H24.2067C24.1843 6.51728 24.1676 6.72997 24.1564 6.94266C24.1452 7.15535 24.1396 7.35684 24.1396 7.54714C24.1396 8.03968 24.1676 8.53222 24.2235 9.02476C24.2907 9.5173 24.3914 9.95947 24.5258 10.3513C24.6713 10.7431 24.856 11.0621 25.0799 11.3084C25.3038 11.5546 25.5724 11.6778 25.8858 11.6778C26.1209 11.6778 26.328 11.6106 26.5071 11.4763C26.6862 11.3419 26.8429 11.174 26.9773 10.9725C27.1116 10.771 27.2235 10.5528 27.3131 10.3177C27.4138 10.0714 27.4866 9.84753 27.5314 9.64603C27.5873 9.43335 27.6209 9.24864 27.6321 9.09193C27.6545 8.93521 27.6601 8.84566 27.6489 8.82327H27.8168C27.828 8.85685 27.8224 8.96319 27.8 9.1423C27.7888 9.3214 27.7553 9.53409 27.6993 9.78036C27.6433 10.0266 27.5594 10.2897 27.4474 10.5695C27.3467 10.8494 27.2123 11.1125 27.0444 11.3587C26.8765 11.5938 26.6638 11.7897 26.4064 11.9464C26.1601 12.1031 25.8635 12.1815 25.5164 12.1815C25.0687 12.1815 24.6881 12.0528 24.3746 11.7953C24.0724 11.5266 23.8261 11.1852 23.6358 10.771C23.4455 10.3457 23.3056 9.87551 23.2161 9.36058C23.1265 8.84566 23.0817 8.33073 23.0817 7.8158C23.0817 7.37923 23.1265 6.90908 23.2161 6.40534C23.3056 5.89042 23.4511 5.42026 23.6526 4.99489C23.8653 4.56951 24.1396 4.2169 24.4754 3.93705C24.8112 3.646 25.2198 3.50048 25.7011 3.50048ZM26.3728 6.13669C26.5183 6.13669 26.6247 6.07512 26.6918 5.95198C26.7702 5.82885 26.815 5.67773 26.8261 5.49862C26.8485 5.31952 26.8373 5.12362 26.7926 4.91093C26.759 4.69824 26.6918 4.50235 26.5911 4.32324C26.5015 4.14414 26.3784 3.99302 26.2217 3.86988C26.0761 3.74675 25.9082 3.68518 25.7179 3.68518C25.4717 3.68518 25.2646 3.77473 25.0967 3.95384C24.9288 4.13294 24.7832 4.35123 24.6601 4.60869C24.5482 4.86616 24.4586 5.13481 24.3914 5.41467C24.3243 5.69452 24.2739 5.93519 24.2403 6.13669H26.3728Z" fill="var(--fill-0, #FFF5E2)"/>
<path d="M28.6425 12.0136V11.9296C28.732 11.9072 28.816 11.8345 28.8943 11.7113C28.9839 11.577 29.0287 11.3307 29.0287 10.9725V5.19638C29.0287 4.83817 28.9839 4.5975 28.8943 4.47436C28.816 4.34003 28.732 4.26167 28.6425 4.23929V4.15533C28.8328 4.15533 29.0735 4.11615 29.3645 4.03779C29.6555 3.95943 29.8626 3.8419 29.9858 3.68518H30.0697V5.26355C30.1705 4.84936 30.3384 4.48556 30.5735 4.17212C30.8197 3.84749 31.1388 3.68518 31.5306 3.68518C31.8552 3.68518 32.1406 3.80831 32.3869 4.05458C32.6444 4.28966 32.7731 4.5919 32.7731 4.96131L31.6985 5.02847C31.6537 4.77101 31.5697 4.5919 31.4466 4.49115C31.3235 4.37921 31.1947 4.32324 31.0604 4.32324C30.8813 4.32324 30.7246 4.41279 30.5903 4.5919C30.4671 4.75981 30.3664 4.96131 30.288 5.19638C30.2097 5.42026 30.1537 5.64974 30.1201 5.88482C30.0865 6.11989 30.0697 6.299 30.0697 6.42213V10.9725C30.0697 11.3307 30.1089 11.577 30.1873 11.7113C30.2768 11.8345 30.3664 11.9072 30.4559 11.9296V12.0136H28.6425Z" fill="var(--fill-0, #FFF5E2)"/>
<path d="M3.11116 16.7103C3.96191 16.7103 4.52161 17.1693 4.79027 18.0872V14.5107C4.79027 14.1525 4.7455 13.9118 4.65594 13.7886C4.57758 13.6543 4.49363 13.576 4.40408 13.5536V13.4696C4.59438 13.4696 4.83505 13.4304 5.1261 13.3521C5.41714 13.2737 5.62423 13.1562 5.74737 12.9995H5.83132V24.1656C5.83132 24.5238 5.8705 24.7701 5.94886 24.9044C6.03841 25.0275 6.12797 25.1003 6.21752 25.1227V25.2066H4.79027V23.7458C4.72311 23.9473 4.62796 24.1432 4.50482 24.3335C4.39288 24.5126 4.25855 24.6749 4.10184 24.8204C3.94512 24.9659 3.76042 25.0835 3.54773 25.173C3.33504 25.2626 3.09996 25.3074 2.8425 25.3074C2.40593 25.3074 2.01973 25.1842 1.68391 24.938C1.35928 24.6917 1.09062 24.3727 0.877937 23.9809C0.665249 23.5779 0.502935 23.1357 0.390994 22.6544C0.290247 22.1618 0.239873 21.6805 0.239873 21.2103C0.239873 20.7178 0.295844 20.2085 0.407785 19.6823C0.53092 19.145 0.710025 18.6581 0.945101 18.2215C1.18018 17.7849 1.47682 17.4267 1.83503 17.1469C2.19324 16.8558 2.61862 16.7103 3.11116 16.7103ZM3.06078 24.938C3.30705 24.938 3.53094 24.8764 3.73243 24.7533C3.94512 24.6301 4.12982 24.4734 4.28654 24.2831C4.44326 24.0816 4.56639 23.8577 4.65594 23.6115C4.7455 23.354 4.79027 23.0909 4.79027 22.8223V19.7327C4.79027 18.8372 4.66154 18.1487 4.40408 17.6674C4.14661 17.1749 3.77721 16.9286 3.29586 16.9286C2.90407 16.9286 2.57944 17.0797 2.32197 17.382C2.06451 17.6842 1.85742 18.0592 1.7007 18.507C1.55518 18.9547 1.44884 19.4249 1.38167 19.9174C1.3257 20.41 1.29772 20.8521 1.29772 21.2439C1.29772 21.5238 1.31451 21.8764 1.34809 22.3018C1.39286 22.7271 1.47682 23.1357 1.59996 23.5275C1.73428 23.9081 1.91339 24.2383 2.13727 24.5182C2.37235 24.798 2.68019 24.938 3.06078 24.938Z" fill="var(--fill-0, #FFF5E2)"/>
<path d="M8.03713 16.9622C8.19384 16.9622 8.35056 16.9566 8.50728 16.9454C8.67519 16.923 8.8375 16.9006 8.99422 16.8782V16.9622C8.79273 17.1189 8.66959 17.3092 8.62482 17.5331C8.58004 17.757 8.55765 17.992 8.55765 18.2383V21.798C8.55765 22.8503 8.66959 23.6674 8.89348 24.2495C9.11736 24.8316 9.44199 25.1227 9.86736 25.1227C10.0577 25.1227 10.2424 25.0611 10.4215 24.938C10.6118 24.8148 10.7741 24.6357 10.9084 24.4006C11.0539 24.1656 11.1715 23.8745 11.261 23.5275C11.3506 23.1805 11.3954 22.7887 11.3954 22.3521V18.2383C11.3954 18.0032 11.373 17.7737 11.3282 17.5499C11.2834 17.3148 11.1603 17.1189 10.9588 16.9622V16.8782C11.1267 16.9006 11.289 16.923 11.4457 16.9454C11.6024 16.9566 11.7648 16.9622 11.9327 16.9622C12.0894 16.9622 12.2461 16.9566 12.4028 16.9454C12.5707 16.923 12.733 16.9006 12.8898 16.8782V16.9622C12.6883 17.1189 12.5651 17.3092 12.5204 17.5331C12.4756 17.757 12.4532 17.992 12.4532 18.2383V23.6954C12.4532 24.0536 12.4924 24.2999 12.5707 24.4342C12.6603 24.5574 12.7498 24.6301 12.8394 24.6525V24.7365C12.7498 24.7365 12.6379 24.7477 12.5036 24.7701C12.3692 24.7924 12.2349 24.826 12.1006 24.8708C11.9774 24.9044 11.8543 24.9492 11.7312 25.0051C11.6192 25.0611 11.5353 25.1283 11.4793 25.2066H11.3954V23.645C11.2498 24.2159 11.0148 24.6469 10.6901 24.938C10.3655 25.229 9.9905 25.3745 9.56512 25.3745C8.92706 25.3745 8.42332 25.0611 8.05392 24.4342C7.68451 23.7962 7.49981 22.9342 7.49981 21.8484V18.2047C7.49981 17.9696 7.47742 17.7458 7.43265 17.5331C7.38787 17.3092 7.26474 17.1189 7.06324 16.9622V16.8782C7.23115 16.9006 7.39347 16.923 7.55018 16.9454C7.7069 16.9566 7.86922 16.9622 8.03713 16.9622Z" fill="var(--fill-0, #FFF5E2)"/>
<path d="M19.2111 16.7103C19.6589 16.7103 20.0675 16.8334 20.4369 17.0797C20.8063 17.3148 21.0861 17.6282 21.2764 18.02L20.4872 18.6245C20.4872 18.4006 20.4536 18.1823 20.3865 17.9696C20.3193 17.757 20.2242 17.5723 20.101 17.4155C19.9891 17.2476 19.8492 17.1189 19.6813 17.0293C19.5245 16.9286 19.3566 16.8782 19.1775 16.8782C18.8529 16.8782 18.5842 17.0181 18.3715 17.298C18.1701 17.5778 18.0693 17.8969 18.0693 18.2551C18.0693 18.5685 18.1477 18.8428 18.3044 19.0779C18.4611 19.3129 18.657 19.5368 18.8921 19.7495C19.1272 19.9622 19.3846 20.1693 19.6645 20.3708C19.9443 20.5723 20.2018 20.8017 20.4369 21.0592C20.6719 21.3055 20.8678 21.5853 21.0245 21.8988C21.1813 22.201 21.2596 22.5648 21.2596 22.9902C21.2596 23.3372 21.2037 23.6562 21.0917 23.9473C20.9798 24.2271 20.8231 24.4734 20.6216 24.6861C20.4201 24.8876 20.185 25.0443 19.9163 25.1562C19.6589 25.2682 19.379 25.3242 19.0768 25.3242C18.7298 25.3242 18.4107 25.2514 18.1197 25.1059C17.8286 24.9604 17.5432 24.7533 17.2633 24.4846V22.1338H17.4312C17.4536 22.5704 17.5208 22.9734 17.6327 23.3428C17.7447 23.7122 17.879 24.0312 18.0357 24.2999C18.2036 24.5686 18.3827 24.7812 18.573 24.938C18.7745 25.0835 18.9648 25.1562 19.1439 25.1562C19.2895 25.1562 19.435 25.1115 19.5805 25.0219C19.726 24.9212 19.8548 24.7924 19.9667 24.6357C20.0786 24.479 20.1682 24.2943 20.2354 24.0816C20.3025 23.8577 20.3361 23.6283 20.3361 23.3932C20.3361 23.0238 20.2578 22.7047 20.101 22.4361C19.9443 22.1562 19.7484 21.9044 19.5133 21.6805C19.2783 21.4454 19.0208 21.2327 18.741 21.0424C18.4611 20.8409 18.2036 20.6338 17.9686 20.4211C17.7335 20.1973 17.5376 19.9566 17.3809 19.6991C17.2242 19.4305 17.1458 19.1226 17.1458 18.7756C17.1458 18.5182 17.1906 18.2663 17.2801 18.02C17.3809 17.7737 17.5208 17.5555 17.6999 17.3652C17.879 17.1637 18.0973 17.0069 18.3548 16.895C18.6122 16.7719 18.8977 16.7103 19.2111 16.7103Z" fill="var(--fill-0, #FFF5E2)"/>
<path d="M21.9503 21.0088C21.9503 20.5275 22.0063 20.035 22.1182 19.5312C22.2413 19.0163 22.4316 18.5517 22.6891 18.1376C22.9466 17.7234 23.2768 17.3819 23.6798 17.1133C24.0828 16.8446 24.5697 16.7103 25.1406 16.7103C25.7115 16.7103 26.1984 16.8446 26.6014 17.1133C27.0044 17.3819 27.3346 17.7234 27.5921 18.1376C27.8496 18.5517 28.0343 19.0163 28.1462 19.5312C28.2694 20.035 28.3309 20.5275 28.3309 21.0088C28.3309 21.4902 28.2694 21.9883 28.1462 22.5032C28.0343 23.007 27.8496 23.4715 27.5921 23.8969C27.3346 24.3111 27.0044 24.6525 26.6014 24.9212C26.1984 25.1786 25.7115 25.3074 25.1406 25.3074C24.5697 25.3074 24.0828 25.1786 23.6798 24.9212C23.2768 24.6525 22.9466 24.3111 22.6891 23.8969C22.4316 23.4715 22.2413 23.007 22.1182 22.5032C22.0063 21.9883 21.9503 21.4902 21.9503 21.0088ZM23.0249 21.0088C23.0249 21.4006 23.0529 21.8372 23.1089 22.3185C23.176 22.7887 23.288 23.2365 23.4447 23.6618C23.6014 24.076 23.8141 24.4286 24.0828 24.7197C24.3626 24.9995 24.7152 25.1395 25.1406 25.1395C25.566 25.1395 25.913 24.9995 26.1817 24.7197C26.4615 24.4286 26.6798 24.076 26.8365 23.6618C26.9932 23.2365 27.0996 22.7887 27.1555 22.3185C27.2227 21.8372 27.2563 21.4006 27.2563 21.0088C27.2563 20.617 27.2227 20.1861 27.1555 19.7159C27.0996 19.2346 26.9932 18.7868 26.8365 18.3726C26.6798 17.9473 26.4615 17.5946 26.1817 17.3148C25.913 17.0237 25.566 16.8782 25.1406 16.8782C24.7152 16.8782 24.3626 17.0237 24.0828 17.3148C23.8141 17.5946 23.6014 17.9473 23.4447 18.3726C23.288 18.7868 23.176 19.2346 23.1089 19.7159C23.0529 20.1861 23.0249 20.617 23.0249 21.0088Z" fill="var(--fill-0, #FFF5E2)"/>
<path d="M29.0852 25.1227C29.2867 24.9659 29.4098 24.7756 29.4546 24.5518C29.4994 24.3279 29.5218 24.0928 29.5218 23.8465V14.5107C29.5218 14.1525 29.477 13.9118 29.3875 13.7886C29.3091 13.6543 29.2251 13.576 29.1356 13.5536V13.4696C29.2251 13.4696 29.3371 13.4584 29.4714 13.436C29.6057 13.4136 29.7345 13.3857 29.8576 13.3521C29.9919 13.3073 30.1151 13.2569 30.227 13.201C30.3501 13.145 30.4397 13.0778 30.4957 12.9995H30.5796V23.8465C30.5796 24.0816 30.602 24.3167 30.6468 24.5518C30.6916 24.7756 30.8147 24.9659 31.0162 25.1227V25.2066C30.8483 25.1842 30.686 25.1674 30.5293 25.1562C30.3725 25.1339 30.2158 25.1227 30.0591 25.1227C29.8912 25.1227 29.7233 25.1339 29.5554 25.1562C29.3986 25.1674 29.2419 25.1842 29.0852 25.2066V25.1227Z" fill="var(--fill-0, #FFF5E2)"/>
<path d="M34.3919 16.6935C34.7389 16.6935 35.0523 16.7663 35.3322 16.9118C35.6232 17.0461 35.8639 17.2196 36.0542 17.4323C36.2557 17.6338 36.4012 17.8577 36.4908 18.104C36.5803 18.339 36.5971 18.5629 36.5411 18.7756C36.4964 18.9771 36.3676 19.1506 36.1549 19.2961C35.9534 19.4305 35.6568 19.4976 35.265 19.4976H32.8975C32.8751 19.7103 32.8583 19.923 32.8471 20.1357C32.8359 20.3484 32.8303 20.5499 32.8303 20.7402C32.8303 21.2327 32.8583 21.7253 32.9142 22.2178C32.9814 22.7103 33.0822 23.1525 33.2165 23.5443C33.362 23.9361 33.5467 24.2551 33.7706 24.5014C33.9945 24.7477 34.2631 24.8708 34.5766 24.8708C34.8116 24.8708 35.0187 24.8036 35.1978 24.6693C35.377 24.535 35.5337 24.3671 35.668 24.1656C35.8023 23.9641 35.9143 23.7458 36.0038 23.5107C36.1046 23.2644 36.1773 23.0406 36.2221 22.8391C36.2781 22.6264 36.3117 22.4417 36.3229 22.285C36.3452 22.1282 36.3508 22.0387 36.3396 22.0163H36.5076C36.5187 22.0499 36.5131 22.1562 36.4908 22.3353C36.4796 22.5144 36.446 22.7271 36.39 22.9734C36.334 23.2197 36.2501 23.4827 36.1381 23.7626C36.0374 24.0424 35.9031 24.3055 35.7352 24.5518C35.5672 24.7868 35.3546 24.9827 35.0971 25.1395C34.8508 25.2962 34.5542 25.3745 34.2072 25.3745C33.7594 25.3745 33.3788 25.2458 33.0654 24.9883C32.7631 24.7197 32.5169 24.3783 32.3266 23.9641C32.1363 23.5387 31.9963 23.0686 31.9068 22.5536C31.8172 22.0387 31.7725 21.5238 31.7725 21.0088C31.7725 20.5723 31.8172 20.1021 31.9068 19.5984C31.9963 19.0835 32.1419 18.6133 32.3433 18.1879C32.556 17.7625 32.8303 17.4099 33.1661 17.1301C33.5019 16.839 33.9105 16.6935 34.3919 16.6935ZM35.0635 19.3297C35.209 19.3297 35.3154 19.2682 35.3825 19.145C35.4609 19.0219 35.5057 18.8708 35.5169 18.6917C35.5393 18.5126 35.5281 18.3167 35.4833 18.104C35.4497 17.8913 35.3825 17.6954 35.2818 17.5163C35.1922 17.3372 35.0691 17.1861 34.9124 17.0629C34.7669 16.9398 34.599 16.8782 34.4087 16.8782C34.1624 16.8782 33.9553 16.9678 33.7874 17.1469C33.6195 17.326 33.474 17.5443 33.3508 17.8017C33.2389 18.0592 33.1493 18.3279 33.0822 18.6077C33.015 18.8876 32.9646 19.1282 32.931 19.3297H35.0635Z" fill="var(--fill-0, #FFF5E2)"/>
<path d="M37.3332 25.1562C37.5347 25.0443 37.6578 24.91 37.7026 24.7533C37.7474 24.5965 37.7698 24.4342 37.7698 24.2663V17.8521C37.7698 17.4939 37.725 17.2532 37.6354 17.1301C37.5571 16.9958 37.4731 16.9174 37.3836 16.895V16.8111C37.4731 16.8111 37.5851 16.7999 37.7194 16.7775C37.8537 16.7551 37.9825 16.7271 38.1056 16.6935C38.2399 16.6487 38.3631 16.5984 38.475 16.5424C38.5981 16.4864 38.6877 16.4193 38.7437 16.3409H38.8276V24.2327C38.8276 24.4006 38.85 24.5686 38.8948 24.7365C38.9396 24.9044 39.0627 25.0387 39.2642 25.1395V25.2066C39.0963 25.1842 38.934 25.1674 38.7772 25.1562C38.6205 25.1339 38.4638 25.1227 38.3071 25.1227C38.1392 25.1227 37.9713 25.1339 37.8034 25.1562C37.6466 25.1674 37.4899 25.1842 37.3332 25.2066V25.1562ZM37.5347 14.7457C37.5347 14.5331 37.5907 14.3428 37.7026 14.1748C37.8257 13.9957 38.0048 13.9062 38.2399 13.9062C38.4638 13.9062 38.6317 13.9901 38.7437 14.1581C38.8668 14.326 38.9284 14.5163 38.9284 14.729C38.9284 14.9416 38.8668 15.1319 38.7437 15.2998C38.6317 15.4678 38.4582 15.5517 38.2231 15.5517C37.9881 15.5517 37.8146 15.4678 37.7026 15.2998C37.5907 15.1319 37.5347 14.9472 37.5347 14.7457Z" fill="var(--fill-0, #FFF5E2)"/>
<path d="M40.1044 25.1227C40.3059 24.9659 40.429 24.7756 40.4738 24.5518C40.5186 24.3279 40.541 24.0928 40.541 23.8465V14.5107C40.541 14.1525 40.4962 13.9118 40.4066 13.7886C40.3283 13.6543 40.2443 13.576 40.1548 13.5536V13.4696C40.2443 13.4696 40.3563 13.4584 40.4906 13.436C40.6249 13.4136 40.7537 13.3857 40.8768 13.3521C41.0111 13.3073 41.1343 13.2569 41.2462 13.201C41.3693 13.145 41.4589 13.0778 41.5149 12.9995H41.5988V23.8465C41.5988 24.0816 41.6212 24.3167 41.666 24.5518C41.7108 24.7756 41.8339 24.9659 42.0354 25.1227V25.2066C41.8675 25.1842 41.7052 25.1674 41.5484 25.1562C41.3917 25.1339 41.235 25.1227 41.0783 25.1227C40.9104 25.1227 40.7425 25.1339 40.5746 25.1562C40.4178 25.1674 40.2611 25.1842 40.1044 25.2066V25.1227Z" fill="var(--fill-0, #FFF5E2)"/>
<path d="M7.31563 0.360534C7.47235 0.360534 7.62907 0.354936 7.78579 0.343742C7.9425 0.321354 8.10482 0.298966 8.27273 0.276577V0.360534C8.07123 0.517251 7.9481 0.70755 7.90332 0.931432C7.85855 1.14412 7.83616 1.368 7.83616 1.60308V11.8457H9.14587C9.57124 11.8457 9.91266 11.7281 10.1701 11.4931C10.4276 11.2468 10.6291 10.9557 10.7746 10.6199C10.9201 10.2841 11.0265 9.93708 11.0936 9.57887C11.1608 9.20946 11.2112 8.90163 11.2448 8.65536H11.3791L11.1608 12.0136H6.37533V11.9464C6.47608 11.8681 6.56563 11.7561 6.64399 11.6106C6.73354 11.4539 6.77832 11.23 6.77832 10.939V1.63666C6.77832 1.39039 6.75593 1.15531 6.71115 0.931432C6.66638 0.70755 6.54324 0.517251 6.34175 0.360534V0.276577C6.49846 0.298966 6.65518 0.321354 6.8119 0.343742C6.97981 0.354936 7.14772 0.360534 7.31563 0.360534Z" stroke="var(--stroke-0, #FFF5E2)" stroke-width="0.479747" mask="url(#path-1-outside-1_9_139)"/>
<path d="M14.5016 3.50048C14.8486 3.50048 15.162 3.57324 15.4419 3.71876C15.7329 3.85309 15.9736 4.0266 16.1639 4.23929C16.3654 4.44078 16.5109 4.66466 16.6005 4.91093C16.69 5.14601 16.7068 5.36989 16.6508 5.58258C16.6061 5.78407 16.4773 5.95758 16.2647 6.1031C16.0632 6.23743 15.7665 6.3046 15.3747 6.3046H13.0072C12.9848 6.51728 12.968 6.72997 12.9568 6.94266C12.9456 7.15535 12.94 7.35684 12.94 7.54714C12.94 8.03968 12.968 8.53222 13.024 9.02476C13.0911 9.5173 13.1919 9.95947 13.3262 10.3513C13.4717 10.7431 13.6564 11.0621 13.8803 11.3084C14.1042 11.5546 14.3729 11.6778 14.6863 11.6778C14.9214 11.6778 15.1285 11.6106 15.3076 11.4763C15.4867 11.3419 15.6434 11.174 15.7777 10.9725C15.912 10.771 16.024 10.5528 16.1135 10.3177C16.2143 10.0714 16.287 9.84753 16.3318 9.64603C16.3878 9.43335 16.4214 9.24864 16.4326 9.09193C16.455 8.93521 16.4606 8.84566 16.4494 8.82327H16.6173C16.6285 8.85685 16.6229 8.96319 16.6005 9.1423C16.5893 9.3214 16.5557 9.53409 16.4997 9.78036C16.4438 10.0266 16.3598 10.2897 16.2479 10.5695C16.1471 10.8494 16.0128 11.1125 15.8449 11.3587C15.677 11.5938 15.4643 11.7897 15.2068 11.9464C14.9605 12.1031 14.6639 12.1815 14.3169 12.1815C13.8691 12.1815 13.4885 12.0528 13.1751 11.7953C12.8728 11.5266 12.6266 11.1852 12.4363 10.771C12.246 10.3457 12.106 9.87551 12.0165 9.36058C11.9269 8.84566 11.8822 8.33073 11.8822 7.8158C11.8822 7.37923 11.9269 6.90908 12.0165 6.40534C12.106 5.89042 12.2516 5.42026 12.4531 4.99489C12.6658 4.56951 12.94 4.2169 13.2758 3.93705C13.6117 3.646 14.0202 3.50048 14.5016 3.50048ZM15.1732 6.13669C15.3188 6.13669 15.4251 6.07512 15.4923 5.95198C15.5706 5.82885 15.6154 5.67773 15.6266 5.49862C15.649 5.31952 15.6378 5.12362 15.593 4.91093C15.5594 4.69824 15.4923 4.50235 15.3915 4.32324C15.302 4.14414 15.1788 3.99302 15.0221 3.86988C14.8766 3.74675 14.7087 3.68518 14.5184 3.68518C14.2721 3.68518 14.065 3.77473 13.8971 3.95384C13.7292 4.13294 13.5837 4.35123 13.4605 4.60869C13.3486 4.86616 13.259 5.13481 13.1919 5.41467C13.1247 5.69452 13.0743 5.93519 13.0408 6.13669H15.1732Z" stroke="var(--stroke-0, #FFF5E2)" stroke-width="0.479747" mask="url(#path-1-outside-1_9_139)"/>
<path d="M17.0271 3.76913V3.68518H19.1428V3.76913C19.0196 3.84749 18.9413 3.95384 18.9077 4.08817C18.8853 4.2225 18.8741 4.36242 18.8741 4.50794C18.8741 4.85496 18.9245 5.22996 19.0252 5.63295L20.3685 11.2076L21.5775 5.64974C21.7006 5.11243 21.7286 4.68145 21.6614 4.35682C21.6055 4.021 21.4543 3.8251 21.2081 3.76913V3.68518H22.904V3.76913C22.7473 3.8251 22.6073 3.92025 22.4842 4.05458C22.3723 4.18891 22.2659 4.34563 22.1652 4.52474C22.0756 4.69265 21.9973 4.87735 21.9301 5.07884C21.8741 5.26914 21.8237 5.45944 21.779 5.64974L20.3853 12.0136H19.4786L17.8498 5.26355C17.7603 4.92772 17.6483 4.61989 17.514 4.34003C17.3797 4.04899 17.2174 3.85869 17.0271 3.76913Z" stroke="var(--stroke-0, #FFF5E2)" stroke-width="0.479747" mask="url(#path-1-outside-1_9_139)"/>
<path d="M25.7011 3.50048C26.0482 3.50048 26.3616 3.57324 26.6414 3.71876C26.9325 3.85309 27.1732 4.0266 27.3635 4.23929C27.565 4.44078 27.7105 4.66466 27.8 4.91093C27.8896 5.14601 27.9064 5.36989 27.8504 5.58258C27.8056 5.78407 27.6769 5.95758 27.4642 6.1031C27.2627 6.23743 26.9661 6.3046 26.5743 6.3046H24.2067C24.1843 6.51728 24.1676 6.72997 24.1564 6.94266C24.1452 7.15535 24.1396 7.35684 24.1396 7.54714C24.1396 8.03968 24.1676 8.53222 24.2235 9.02476C24.2907 9.5173 24.3914 9.95947 24.5258 10.3513C24.6713 10.7431 24.856 11.0621 25.0799 11.3084C25.3038 11.5546 25.5724 11.6778 25.8858 11.6778C26.1209 11.6778 26.328 11.6106 26.5071 11.4763C26.6862 11.3419 26.8429 11.174 26.9773 10.9725C27.1116 10.771 27.2235 10.5528 27.3131 10.3177C27.4138 10.0714 27.4866 9.84753 27.5314 9.64603C27.5873 9.43335 27.6209 9.24864 27.6321 9.09193C27.6545 8.93521 27.6601 8.84566 27.6489 8.82327H27.8168C27.828 8.85685 27.8224 8.96319 27.8 9.1423C27.7888 9.3214 27.7553 9.53409 27.6993 9.78036C27.6433 10.0266 27.5594 10.2897 27.4474 10.5695C27.3467 10.8494 27.2123 11.1125 27.0444 11.3587C26.8765 11.5938 26.6638 11.7897 26.4064 11.9464C26.1601 12.1031 25.8635 12.1815 25.5164 12.1815C25.0687 12.1815 24.6881 12.0528 24.3746 11.7953C24.0724 11.5266 23.8261 11.1852 23.6358 10.771C23.4455 10.3457 23.3056 9.87551 23.2161 9.36058C23.1265 8.84566 23.0817 8.33073 23.0817 7.8158C23.0817 7.37923 23.1265 6.90908 23.2161 6.40534C23.3056 5.89042 23.4511 5.42026 23.6526 4.99489C23.8653 4.56951 24.1396 4.2169 24.4754 3.93705C24.8112 3.646 25.2198 3.50048 25.7011 3.50048ZM26.3728 6.13669C26.5183 6.13669 26.6247 6.07512 26.6918 5.95198C26.7702 5.82885 26.815 5.67773 26.8261 5.49862C26.8485 5.31952 26.8373 5.12362 26.7926 4.91093C26.759 4.69824 26.6918 4.50235 26.5911 4.32324C26.5015 4.14414 26.3784 3.99302 26.2217 3.86988C26.0761 3.74675 25.9082 3.68518 25.7179 3.68518C25.4717 3.68518 25.2646 3.77473 25.0967 3.95384C24.9288 4.13294 24.7832 4.35123 24.6601 4.60869C24.5482 4.86616 24.4586 5.13481 24.3914 5.41467C24.3243 5.69452 24.2739 5.93519 24.2403 6.13669H26.3728Z" stroke="var(--stroke-0, #FFF5E2)" stroke-width="0.479747" mask="url(#path-1-outside-1_9_139)"/>
<path d="M28.6425 12.0136V11.9296C28.732 11.9072 28.816 11.8345 28.8943 11.7113C28.9839 11.577 29.0287 11.3307 29.0287 10.9725V5.19638C29.0287 4.83817 28.9839 4.5975 28.8943 4.47436C28.816 4.34003 28.732 4.26167 28.6425 4.23929V4.15533C28.8328 4.15533 29.0735 4.11615 29.3645 4.03779C29.6555 3.95943 29.8626 3.8419 29.9858 3.68518H30.0697V5.26355C30.1705 4.84936 30.3384 4.48556 30.5735 4.17212C30.8197 3.84749 31.1388 3.68518 31.5306 3.68518C31.8552 3.68518 32.1406 3.80831 32.3869 4.05458C32.6444 4.28966 32.7731 4.5919 32.7731 4.96131L31.6985 5.02847C31.6537 4.77101 31.5697 4.5919 31.4466 4.49115C31.3235 4.37921 31.1947 4.32324 31.0604 4.32324C30.8813 4.32324 30.7246 4.41279 30.5903 4.5919C30.4671 4.75981 30.3664 4.96131 30.288 5.19638C30.2097 5.42026 30.1537 5.64974 30.1201 5.88482C30.0865 6.11989 30.0697 6.299 30.0697 6.42213V10.9725C30.0697 11.3307 30.1089 11.577 30.1873 11.7113C30.2768 11.8345 30.3664 11.9072 30.4559 11.9296V12.0136H28.6425Z" stroke="var(--stroke-0, #FFF5E2)" stroke-width="0.479747" mask="url(#path-1-outside-1_9_139)"/>
<path d="M3.11116 16.7103C3.96191 16.7103 4.52161 17.1693 4.79027 18.0872V14.5107C4.79027 14.1525 4.7455 13.9118 4.65594 13.7886C4.57758 13.6543 4.49363 13.576 4.40408 13.5536V13.4696C4.59438 13.4696 4.83505 13.4304 5.1261 13.3521C5.41714 13.2737 5.62423 13.1562 5.74737 12.9995H5.83132V24.1656C5.83132 24.5238 5.8705 24.7701 5.94886 24.9044C6.03841 25.0275 6.12797 25.1003 6.21752 25.1227V25.2066H4.79027V23.7458C4.72311 23.9473 4.62796 24.1432 4.50482 24.3335C4.39288 24.5126 4.25855 24.6749 4.10184 24.8204C3.94512 24.9659 3.76042 25.0835 3.54773 25.173C3.33504 25.2626 3.09996 25.3074 2.8425 25.3074C2.40593 25.3074 2.01973 25.1842 1.68391 24.938C1.35928 24.6917 1.09062 24.3727 0.877937 23.9809C0.665249 23.5779 0.502935 23.1357 0.390994 22.6544C0.290247 22.1618 0.239873 21.6805 0.239873 21.2103C0.239873 20.7178 0.295844 20.2085 0.407785 19.6823C0.53092 19.145 0.710025 18.6581 0.945101 18.2215C1.18018 17.7849 1.47682 17.4267 1.83503 17.1469C2.19324 16.8558 2.61862 16.7103 3.11116 16.7103ZM3.06078 24.938C3.30705 24.938 3.53094 24.8764 3.73243 24.7533C3.94512 24.6301 4.12982 24.4734 4.28654 24.2831C4.44326 24.0816 4.56639 23.8577 4.65594 23.6115C4.7455 23.354 4.79027 23.0909 4.79027 22.8223V19.7327C4.79027 18.8372 4.66154 18.1487 4.40408 17.6674C4.14661 17.1749 3.77721 16.9286 3.29586 16.9286C2.90407 16.9286 2.57944 17.0797 2.32197 17.382C2.06451 17.6842 1.85742 18.0592 1.7007 18.507C1.55518 18.9547 1.44884 19.4249 1.38167 19.9174C1.3257 20.41 1.29772 20.8521 1.29772 21.2439C1.29772 21.5238 1.31451 21.8764 1.34809 22.3018C1.39286 22.7271 1.47682 23.1357 1.59996 23.5275C1.73428 23.9081 1.91339 24.2383 2.13727 24.5182C2.37235 24.798 2.68019 24.938 3.06078 24.938Z" stroke="var(--stroke-0, #FFF5E2)" stroke-width="0.479747" mask="url(#path-1-outside-1_9_139)"/>
<path d="M8.03713 16.9622C8.19384 16.9622 8.35056 16.9566 8.50728 16.9454C8.67519 16.923 8.8375 16.9006 8.99422 16.8782V16.9622C8.79273 17.1189 8.66959 17.3092 8.62482 17.5331C8.58004 17.757 8.55765 17.992 8.55765 18.2383V21.798C8.55765 22.8503 8.66959 23.6674 8.89348 24.2495C9.11736 24.8316 9.44199 25.1227 9.86736 25.1227C10.0577 25.1227 10.2424 25.0611 10.4215 24.938C10.6118 24.8148 10.7741 24.6357 10.9084 24.4006C11.0539 24.1656 11.1715 23.8745 11.261 23.5275C11.3506 23.1805 11.3954 22.7887 11.3954 22.3521V18.2383C11.3954 18.0032 11.373 17.7737 11.3282 17.5499C11.2834 17.3148 11.1603 17.1189 10.9588 16.9622V16.8782C11.1267 16.9006 11.289 16.923 11.4457 16.9454C11.6024 16.9566 11.7648 16.9622 11.9327 16.9622C12.0894 16.9622 12.2461 16.9566 12.4028 16.9454C12.5707 16.923 12.733 16.9006 12.8898 16.8782V16.9622C12.6883 17.1189 12.5651 17.3092 12.5204 17.5331C12.4756 17.757 12.4532 17.992 12.4532 18.2383V23.6954C12.4532 24.0536 12.4924 24.2999 12.5707 24.4342C12.6603 24.5574 12.7498 24.6301 12.8394 24.6525V24.7365C12.7498 24.7365 12.6379 24.7477 12.5036 24.7701C12.3692 24.7924 12.2349 24.826 12.1006 24.8708C11.9774 24.9044 11.8543 24.9492 11.7312 25.0051C11.6192 25.0611 11.5353 25.1283 11.4793 25.2066H11.3954V23.645C11.2498 24.2159 11.0148 24.6469 10.6901 24.938C10.3655 25.229 9.9905 25.3745 9.56512 25.3745C8.92706 25.3745 8.42332 25.0611 8.05392 24.4342C7.68451 23.7962 7.49981 22.9342 7.49981 21.8484V18.2047C7.49981 17.9696 7.47742 17.7458 7.43265 17.5331C7.38787 17.3092 7.26474 17.1189 7.06324 16.9622V16.8782C7.23115 16.9006 7.39347 16.923 7.55018 16.9454C7.7069 16.9566 7.86922 16.9622 8.03713 16.9622Z" stroke="var(--stroke-0, #FFF5E2)" stroke-width="0.479747" mask="url(#path-1-outside-1_9_139)"/>
<path d="M19.2111 16.7103C19.6589 16.7103 20.0675 16.8334 20.4369 17.0797C20.8063 17.3148 21.0861 17.6282 21.2764 18.02L20.4872 18.6245C20.4872 18.4006 20.4536 18.1823 20.3865 17.9696C20.3193 17.757 20.2242 17.5723 20.101 17.4155C19.9891 17.2476 19.8492 17.1189 19.6813 17.0293C19.5245 16.9286 19.3566 16.8782 19.1775 16.8782C18.8529 16.8782 18.5842 17.0181 18.3715 17.298C18.1701 17.5778 18.0693 17.8969 18.0693 18.2551C18.0693 18.5685 18.1477 18.8428 18.3044 19.0779C18.4611 19.3129 18.657 19.5368 18.8921 19.7495C19.1272 19.9622 19.3846 20.1693 19.6645 20.3708C19.9443 20.5723 20.2018 20.8017 20.4369 21.0592C20.6719 21.3055 20.8678 21.5853 21.0245 21.8988C21.1813 22.201 21.2596 22.5648 21.2596 22.9902C21.2596 23.3372 21.2037 23.6562 21.0917 23.9473C20.9798 24.2271 20.8231 24.4734 20.6216 24.6861C20.4201 24.8876 20.185 25.0443 19.9163 25.1562C19.6589 25.2682 19.379 25.3242 19.0768 25.3242C18.7298 25.3242 18.4107 25.2514 18.1197 25.1059C17.8286 24.9604 17.5432 24.7533 17.2633 24.4846V22.1338H17.4312C17.4536 22.5704 17.5208 22.9734 17.6327 23.3428C17.7447 23.7122 17.879 24.0312 18.0357 24.2999C18.2036 24.5686 18.3827 24.7812 18.573 24.938C18.7745 25.0835 18.9648 25.1562 19.1439 25.1562C19.2895 25.1562 19.435 25.1115 19.5805 25.0219C19.726 24.9212 19.8548 24.7924 19.9667 24.6357C20.0786 24.479 20.1682 24.2943 20.2354 24.0816C20.3025 23.8577 20.3361 23.6283 20.3361 23.3932C20.3361 23.0238 20.2578 22.7047 20.101 22.4361C19.9443 22.1562 19.7484 21.9044 19.5133 21.6805C19.2783 21.4454 19.0208 21.2327 18.741 21.0424C18.4611 20.8409 18.2036 20.6338 17.9686 20.4211C17.7335 20.1973 17.5376 19.9566 17.3809 19.6991C17.2242 19.4305 17.1458 19.1226 17.1458 18.7756C17.1458 18.5182 17.1906 18.2663 17.2801 18.02C17.3809 17.7737 17.5208 17.5555 17.6999 17.3652C17.879 17.1637 18.0973 17.0069 18.3548 16.895C18.6122 16.7719 18.8977 16.7103 19.2111 16.7103Z" stroke="var(--stroke-0, #FFF5E2)" stroke-width="0.479747" mask="url(#path-1-outside-1_9_139)"/>
<path d="M21.9503 21.0088C21.9503 20.5275 22.0063 20.035 22.1182 19.5312C22.2413 19.0163 22.4316 18.5517 22.6891 18.1376C22.9466 17.7234 23.2768 17.3819 23.6798 17.1133C24.0828 16.8446 24.5697 16.7103 25.1406 16.7103C25.7115 16.7103 26.1984 16.8446 26.6014 17.1133C27.0044 17.3819 27.3346 17.7234 27.5921 18.1376C27.8496 18.5517 28.0343 19.0163 28.1462 19.5312C28.2694 20.035 28.3309 20.5275 28.3309 21.0088C28.3309 21.4902 28.2694 21.9883 28.1462 22.5032C28.0343 23.007 27.8496 23.4715 27.5921 23.8969C27.3346 24.3111 27.0044 24.6525 26.6014 24.9212C26.1984 25.1786 25.7115 25.3074 25.1406 25.3074C24.5697 25.3074 24.0828 25.1786 23.6798 24.9212C23.2768 24.6525 22.9466 24.3111 22.6891 23.8969C22.4316 23.4715 22.2413 23.007 22.1182 22.5032C22.0063 21.9883 21.9503 21.4902 21.9503 21.0088ZM23.0249 21.0088C23.0249 21.4006 23.0529 21.8372 23.1089 22.3185C23.176 22.7887 23.288 23.2365 23.4447 23.6618C23.6014 24.076 23.8141 24.4286 24.0828 24.7197C24.3626 24.9995 24.7152 25.1395 25.1406 25.1395C25.566 25.1395 25.913 24.9995 26.1817 24.7197C26.4615 24.4286 26.6798 24.076 26.8365 23.6618C26.9932 23.2365 27.0996 22.7887 27.1555 22.3185C27.2227 21.8372 27.2563 21.4006 27.2563 21.0088C27.2563 20.617 27.2227 20.1861 27.1555 19.7159C27.0996 19.2346 26.9932 18.7868 26.8365 18.3726C26.6798 17.9473 26.4615 17.5946 26.1817 17.3148C25.913 17.0237 25.566 16.8782 25.1406 16.8782C24.7152 16.8782 24.3626 17.0237 24.0828 17.3148C23.8141 17.5946 23.6014 17.9473 23.4447 18.3726C23.288 18.7868 23.176 19.2346 23.1089 19.7159C23.0529 20.1861 23.0249 20.617 23.0249 21.0088Z" stroke="var(--stroke-0, #FFF5E2)" stroke-width="0.479747" mask="url(#path-1-outside-1_9_139)"/>
<path d="M29.0852 25.1227C29.2867 24.9659 29.4098 24.7756 29.4546 24.5518C29.4994 24.3279 29.5218 24.0928 29.5218 23.8465V14.5107C29.5218 14.1525 29.477 13.9118 29.3875 13.7886C29.3091 13.6543 29.2251 13.576 29.1356 13.5536V13.4696C29.2251 13.4696 29.3371 13.4584 29.4714 13.436C29.6057 13.4136 29.7345 13.3857 29.8576 13.3521C29.9919 13.3073 30.1151 13.2569 30.227 13.201C30.3501 13.145 30.4397 13.0778 30.4957 12.9995H30.5796V23.8465C30.5796 24.0816 30.602 24.3167 30.6468 24.5518C30.6916 24.7756 30.8147 24.9659 31.0162 25.1227V25.2066C30.8483 25.1842 30.686 25.1674 30.5293 25.1562C30.3725 25.1339 30.2158 25.1227 30.0591 25.1227C29.8912 25.1227 29.7233 25.1339 29.5554 25.1562C29.3986 25.1674 29.2419 25.1842 29.0852 25.2066V25.1227Z" stroke="var(--stroke-0, #FFF5E2)" stroke-width="0.479747" mask="url(#path-1-outside-1_9_139)"/>
<path d="M34.3919 16.6935C34.7389 16.6935 35.0523 16.7663 35.3322 16.9118C35.6232 17.0461 35.8639 17.2196 36.0542 17.4323C36.2557 17.6338 36.4012 17.8577 36.4908 18.104C36.5803 18.339 36.5971 18.5629 36.5411 18.7756C36.4964 18.9771 36.3676 19.1506 36.1549 19.2961C35.9534 19.4305 35.6568 19.4976 35.265 19.4976H32.8975C32.8751 19.7103 32.8583 19.923 32.8471 20.1357C32.8359 20.3484 32.8303 20.5499 32.8303 20.7402C32.8303 21.2327 32.8583 21.7253 32.9142 22.2178C32.9814 22.7103 33.0822 23.1525 33.2165 23.5443C33.362 23.9361 33.5467 24.2551 33.7706 24.5014C33.9945 24.7477 34.2631 24.8708 34.5766 24.8708C34.8116 24.8708 35.0187 24.8036 35.1978 24.6693C35.377 24.535 35.5337 24.3671 35.668 24.1656C35.8023 23.9641 35.9143 23.7458 36.0038 23.5107C36.1046 23.2644 36.1773 23.0406 36.2221 22.8391C36.2781 22.6264 36.3117 22.4417 36.3229 22.285C36.3452 22.1282 36.3508 22.0387 36.3396 22.0163H36.5076C36.5187 22.0499 36.5131 22.1562 36.4908 22.3353C36.4796 22.5144 36.446 22.7271 36.39 22.9734C36.334 23.2197 36.2501 23.4827 36.1381 23.7626C36.0374 24.0424 35.9031 24.3055 35.7352 24.5518C35.5672 24.7868 35.3546 24.9827 35.0971 25.1395C34.8508 25.2962 34.5542 25.3745 34.2072 25.3745C33.7594 25.3745 33.3788 25.2458 33.0654 24.9883C32.7631 24.7197 32.5169 24.3783 32.3266 23.9641C32.1363 23.5387 31.9963 23.0686 31.9068 22.5536C31.8172 22.0387 31.7725 21.5238 31.7725 21.0088C31.7725 20.5723 31.8172 20.1021 31.9068 19.5984C31.9963 19.0835 32.1419 18.6133 32.3433 18.1879C32.556 17.7625 32.8303 17.4099 33.1661 17.1301C33.5019 16.839 33.9105 16.6935 34.3919 16.6935ZM35.0635 19.3297C35.209 19.3297 35.3154 19.2682 35.3825 19.145C35.4609 19.0219 35.5057 18.8708 35.5169 18.6917C35.5393 18.5126 35.5281 18.3167 35.4833 18.104C35.4497 17.8913 35.3825 17.6954 35.2818 17.5163C35.1922 17.3372 35.0691 17.1861 34.9124 17.0629C34.7669 16.9398 34.599 16.8782 34.4087 16.8782C34.1624 16.8782 33.9553 16.9678 33.7874 17.1469C33.6195 17.326 33.474 17.5443 33.3508 17.8017C33.2389 18.0592 33.1493 18.3279 33.0822 18.6077C33.015 18.8876 32.9646 19.1282 32.931 19.3297H35.0635Z" stroke="var(--stroke-0, #FFF5E2)" stroke-width="0.479747" mask="url(#path-1-outside-1_9_139)"/>
<path d="M37.3332 25.1562C37.5347 25.0443 37.6578 24.91 37.7026 24.7533C37.7474 24.5965 37.7698 24.4342 37.7698 24.2663V17.8521C37.7698 17.4939 37.725 17.2532 37.6354 17.1301C37.5571 16.9958 37.4731 16.9174 37.3836 16.895V16.8111C37.4731 16.8111 37.5851 16.7999 37.7194 16.7775C37.8537 16.7551 37.9825 16.7271 38.1056 16.6935C38.2399 16.6487 38.3631 16.5984 38.475 16.5424C38.5981 16.4864 38.6877 16.4193 38.7437 16.3409H38.8276V24.2327C38.8276 24.4006 38.85 24.5686 38.8948 24.7365C38.9396 24.9044 39.0627 25.0387 39.2642 25.1395V25.2066C39.0963 25.1842 38.934 25.1674 38.7772 25.1562C38.6205 25.1339 38.4638 25.1227 38.3071 25.1227C38.1392 25.1227 37.9713 25.1339 37.8034 25.1562C37.6466 25.1674 37.4899 25.1842 37.3332 25.2066V25.1562ZM37.5347 14.7457C37.5347 14.5331 37.5907 14.3428 37.7026 14.1748C37.8257 13.9957 38.0048 13.9062 38.2399 13.9062C38.4638 13.9062 38.6317 13.9901 38.7437 14.1581C38.8668 14.326 38.9284 14.5163 38.9284 14.729C38.9284 14.9416 38.8668 15.1319 38.7437 15.2998C38.6317 15.4678 38.4582 15.5517 38.2231 15.5517C37.9881 15.5517 37.8146 15.4678 37.7026 15.2998C37.5907 15.1319 37.5347 14.9472 37.5347 14.7457Z" stroke="var(--stroke-0, #FFF5E2)" stroke-width="0.479747" mask="url(#path-1-outside-1_9_139)"/>
<path d="M40.1044 25.1227C40.3059 24.9659 40.429 24.7756 40.4738 24.5518C40.5186 24.3279 40.541 24.0928 40.541 23.8465V14.5107C40.541 14.1525 40.4962 13.9118 40.4066 13.7886C40.3283 13.6543 40.2443 13.576 40.1548 13.5536V13.4696C40.2443 13.4696 40.3563 13.4584 40.4906 13.436C40.6249 13.4136 40.7537 13.3857 40.8768 13.3521C41.0111 13.3073 41.1343 13.2569 41.2462 13.201C41.3693 13.145 41.4589 13.0778 41.5149 12.9995H41.5988V23.8465C41.5988 24.0816 41.6212 24.3167 41.666 24.5518C41.7108 24.7756 41.8339 24.9659 42.0354 25.1227V25.2066C41.8675 25.1842 41.7052 25.1674 41.5484 25.1562C41.3917 25.1339 41.235 25.1227 41.0783 25.1227C40.9104 25.1227 40.7425 25.1339 40.5746 25.1562C40.4178 25.1674 40.2611 25.1842 40.1044 25.2066V25.1227Z" stroke="var(--stroke-0, #FFF5E2)" stroke-width="0.479747" mask="url(#path-1-outside-1_9_139)"/>
</g>
</svg>
