<svg preserveAspectRatio="none" width="100%" height="100%" overflow="visible" style="display: block;" viewBox="0 0 74.8994 29.7587" fill="none" xmlns="http://www.w3.org/2000/svg">
<g id="Moment d&#226;&#128;&#153;introspection">
<mask id="path-1-outside-1_9_135" maskUnits="userSpaceOnUse" x="-0.760127" y="-0.760127" width="76" height="31" fill="black">
<rect fill="white" x="-0.760127" y="-0.760127" width="76" height="31"/>
<path d="M16.7788 11.8929C16.9803 11.7362 17.1034 11.5459 17.1482 11.322C17.193 11.0981 17.2154 10.8631 17.2154 10.6168V0.827564C17.2154 0.5701 17.0755 0.402188 16.7956 0.32383V0.239873H18.3236L21.027 10.4489L23.7471 0.239873H25.2248V0.32383C24.9449 0.402188 24.805 0.5701 24.805 0.827564V10.6504C24.805 10.8855 24.8274 11.1149 24.8721 11.3388C24.9169 11.5515 25.0401 11.7362 25.2416 11.8929V11.9769C25.0736 11.9545 24.9113 11.9377 24.7546 11.9265C24.5979 11.9041 24.4412 11.8929 24.2845 11.8929C24.1165 11.8929 23.9486 11.9041 23.7807 11.9265C23.624 11.9377 23.4673 11.9545 23.3106 11.9769V11.8929C23.5121 11.7362 23.6352 11.5459 23.68 11.322C23.7248 11.0981 23.7471 10.8631 23.7471 10.6168V0.92831L20.7919 11.9769H20.3385L17.4001 0.92831V10.6168C17.4001 10.8519 17.4225 11.0869 17.4673 11.322C17.512 11.5459 17.6352 11.7362 17.8367 11.8929V11.9769C17.6687 11.9545 17.54 11.9377 17.4505 11.9265C17.3721 11.9041 17.2993 11.8929 17.2322 11.8929C17.0755 11.8929 16.9243 11.9209 16.7788 11.9769V11.8929Z"/>
<path d="M25.9923 7.7791C25.9923 7.29775 26.0483 6.80521 26.1602 6.30147C26.2833 5.78655 26.4736 5.32199 26.7311 4.90781C26.9886 4.49363 27.3188 4.15221 27.7218 3.88355C28.1248 3.61489 28.6117 3.48056 29.1826 3.48056C29.7535 3.48056 30.2405 3.61489 30.6434 3.88355C31.0464 4.15221 31.3767 4.49363 31.6341 4.90781C31.8916 5.32199 32.0763 5.78655 32.1882 6.30147C32.3114 6.80521 32.3729 7.29775 32.3729 7.7791C32.3729 8.26044 32.3114 8.75858 32.1882 9.27351C32.0763 9.77724 31.8916 10.2418 31.6341 10.6672C31.3767 11.0814 31.0464 11.4228 30.6434 11.6914C30.2405 11.9489 29.7535 12.0776 29.1826 12.0776C28.6117 12.0776 28.1248 11.9489 27.7218 11.6914C27.3188 11.4228 26.9886 11.0814 26.7311 10.6672C26.4736 10.2418 26.2833 9.77724 26.1602 9.27351C26.0483 8.75858 25.9923 8.26044 25.9923 7.7791ZM27.0669 7.7791C27.0669 8.17089 27.0949 8.60746 27.1509 9.0888C27.2181 9.55896 27.33 10.0067 27.4867 10.4321C27.6434 10.8463 27.8561 11.1989 28.1248 11.4899C28.4046 11.7698 28.7572 11.9097 29.1826 11.9097C29.608 11.9097 29.955 11.7698 30.2237 11.4899C30.5035 11.1989 30.7218 10.8463 30.8785 10.4321C31.0352 10.0067 31.1416 9.55896 31.1976 9.0888C31.2647 8.60746 31.2983 8.17089 31.2983 7.7791C31.2983 7.3873 31.2647 6.95633 31.1976 6.48618C31.1416 6.00483 31.0352 5.55707 30.8785 5.14289C30.7218 4.71751 30.5035 4.3649 30.2237 4.08504C29.955 3.794 29.608 3.64848 29.1826 3.64848C28.7572 3.64848 28.4046 3.794 28.1248 4.08504C27.8561 4.3649 27.6434 4.71751 27.4867 5.14289C27.33 5.55707 27.2181 6.00483 27.1509 6.48618C27.0949 6.95633 27.0669 7.3873 27.0669 7.7791Z"/>
<path d="M33.5638 10.6168V5.15968C33.5638 4.80147 33.519 4.56079 33.4295 4.43766C33.3511 4.30333 33.2671 4.22497 33.1776 4.20258V4.11863C33.2671 4.11863 33.3791 4.10743 33.5134 4.08504C33.6477 4.06266 33.7765 4.03467 33.8996 4.00109C34.0339 3.95631 34.1571 3.90594 34.269 3.84997C34.3922 3.794 34.4817 3.72683 34.5377 3.64848H34.6216V5.21005C34.7672 4.63915 35.0022 4.20818 35.3269 3.91713C35.6515 3.62609 36.0265 3.48056 36.4519 3.48056C36.9556 3.48056 37.3698 3.67646 37.6944 4.06825C38.0302 4.46005 38.2653 5.00856 38.3996 5.71379C38.4892 4.97498 38.7131 4.42087 39.0713 4.05146C39.4295 3.67086 39.8493 3.48056 40.3306 3.48056C40.9687 3.48056 41.4724 3.7996 41.8418 4.43766C42.2112 5.06453 42.3959 5.92088 42.3959 7.0067V10.6504C42.3959 10.8855 42.4183 11.1149 42.4631 11.3388C42.5079 11.5515 42.631 11.7362 42.8325 11.8929V11.9769C42.6646 11.9545 42.5023 11.9377 42.3456 11.9265C42.1888 11.9041 42.0321 11.8929 41.8754 11.8929C41.7075 11.8929 41.5396 11.9041 41.3717 11.9265C41.215 11.9377 41.0582 11.9545 40.9015 11.9769V11.8929C41.103 11.7362 41.2261 11.5459 41.2709 11.322C41.3157 11.0981 41.3381 10.8631 41.3381 10.6168V7.05708C41.3381 6.00483 41.2261 5.18766 41.0023 4.60557C40.7784 4.02348 40.4538 3.73243 40.0284 3.73243C39.8381 3.73243 39.6478 3.794 39.4575 3.91713C39.2784 4.04027 39.1161 4.21937 38.9705 4.45445C38.8362 4.68953 38.7243 4.98057 38.6347 5.32759C38.5452 5.66341 38.5004 6.04961 38.5004 6.48618C38.5116 6.57573 38.5172 6.66528 38.5172 6.75484C38.5172 6.83319 38.5172 6.91715 38.5172 7.0067V10.6504C38.5172 10.8855 38.5396 11.1149 38.5843 11.3388C38.6291 11.5515 38.7523 11.7362 38.9537 11.8929V11.9769C38.7858 11.9545 38.6235 11.9377 38.4668 11.9265C38.3101 11.9041 38.1534 11.8929 37.9967 11.8929C37.8287 11.8929 37.6608 11.9041 37.4929 11.9265C37.3362 11.9377 37.1795 11.9545 37.0228 11.9769V11.8929C37.2243 11.7362 37.3474 11.5459 37.3922 11.322C37.4369 11.0981 37.4593 10.8631 37.4593 10.6168V7.05708C37.4593 6.00483 37.3474 5.18766 37.1235 4.60557C36.8996 4.02348 36.575 3.73243 36.1496 3.73243C35.9593 3.73243 35.769 3.794 35.5787 3.91713C35.3996 4.04027 35.2373 4.21937 35.0918 4.45445C34.9575 4.68953 34.8455 4.98057 34.756 5.32759C34.6664 5.67461 34.6216 6.0664 34.6216 6.50297V10.6168C34.6216 10.8519 34.644 11.0869 34.6888 11.322C34.7336 11.5459 34.8567 11.7362 35.0582 11.8929V11.9769C34.8903 11.9545 34.728 11.9377 34.5713 11.9265C34.4145 11.9041 34.2578 11.8929 34.1011 11.8929C33.9332 11.8929 33.7653 11.9041 33.5974 11.9265C33.4407 11.9377 33.2839 11.9545 33.1272 11.9769V11.8929C33.3287 11.7362 33.4518 11.5459 33.4966 11.322C33.5414 11.0981 33.5638 10.8631 33.5638 10.6168Z"/>
<path d="M46.2063 3.46377C46.5534 3.46377 46.8668 3.53653 47.1466 3.68206C47.4377 3.81639 47.6784 3.98989 47.8687 4.20258C48.0702 4.40408 48.2157 4.62796 48.3052 4.87423C48.3948 5.1093 48.4116 5.33319 48.3556 5.54587C48.3108 5.74737 48.1821 5.92088 47.9694 6.0664C47.7679 6.20073 47.4713 6.26789 47.0795 6.26789H44.7119C44.6895 6.48058 44.6727 6.69327 44.6616 6.90596C44.6504 7.11864 44.6448 7.32014 44.6448 7.51044C44.6448 8.00298 44.6727 8.49552 44.7287 8.98806C44.7959 9.4806 44.8966 9.92276 45.031 10.3146C45.1765 10.7064 45.3612 11.0254 45.5851 11.2717C45.8089 11.5179 46.0776 11.6411 46.391 11.6411C46.6261 11.6411 46.8332 11.5739 47.0123 11.4396C47.1914 11.3052 47.3481 11.1373 47.4825 10.9358C47.6168 10.7343 47.7287 10.5161 47.8183 10.281C47.919 10.0347 47.9918 9.81082 48.0366 9.60933C48.0925 9.39664 48.1261 9.21194 48.1373 9.05522C48.1597 8.8985 48.1653 8.80895 48.1541 8.78656H48.322C48.3332 8.82015 48.3276 8.92649 48.3052 9.1056C48.294 9.2847 48.2605 9.49739 48.2045 9.74366C48.1485 9.98993 48.0646 10.253 47.9526 10.5328C47.8519 10.8127 47.7175 11.0758 47.5496 11.322C47.3817 11.5571 47.169 11.753 46.9116 11.9097C46.6653 12.0664 46.3686 12.1448 46.0216 12.1448C45.5739 12.1448 45.1933 12.0161 44.8798 11.7586C44.5776 11.4899 44.3313 11.1485 44.141 10.7343C43.9507 10.309 43.8108 9.83881 43.7212 9.32388C43.6317 8.80895 43.5869 8.29402 43.5869 7.7791C43.5869 7.34253 43.6317 6.87237 43.7212 6.36864C43.8108 5.85371 43.9563 5.38356 44.1578 4.95818C44.3705 4.53281 44.6448 4.18019 44.9806 3.90034C45.3164 3.6093 45.725 3.46377 46.2063 3.46377ZM46.878 6.09998C47.0235 6.09998 47.1298 6.03841 47.197 5.91528C47.2754 5.79214 47.3202 5.64102 47.3313 5.46192C47.3537 5.28281 47.3425 5.08692 47.2978 4.87423C47.2642 4.66154 47.197 4.46564 47.0963 4.28654C47.0067 4.10743 46.8836 3.95631 46.7269 3.83318C46.5813 3.71004 46.4134 3.64848 46.2231 3.64848C45.9769 3.64848 45.7698 3.73803 45.6019 3.91713C45.4339 4.09624 45.2884 4.31452 45.1653 4.57199C45.0533 4.82945 44.9638 5.09811 44.8966 5.37796C44.8295 5.65781 44.7791 5.89849 44.7455 6.09998H46.878Z"/>
<path d="M49.5842 10.6168V5.15968C49.5842 4.80147 49.5395 4.56079 49.4499 4.43766C49.3716 4.30333 49.2876 4.22497 49.198 4.20258V4.11863C49.2876 4.11863 49.3995 4.10743 49.5339 4.08504C49.6682 4.06266 49.7969 4.03467 49.9201 4.00109C50.0544 3.95631 50.1775 3.90594 50.2895 3.84997C50.4126 3.794 50.5022 3.72683 50.5581 3.64848H50.6421V5.21005C50.7876 4.63915 51.0227 4.20818 51.3473 3.91713C51.6719 3.62609 52.0469 3.48056 52.4723 3.48056C53.1104 3.48056 53.6141 3.7996 53.9835 4.43766C54.3529 5.06453 54.5376 5.92088 54.5376 7.0067V10.6504C54.5376 10.8855 54.56 11.1149 54.6048 11.3388C54.6496 11.5515 54.7727 11.7362 54.9742 11.8929V11.9769C54.8063 11.9545 54.644 11.9377 54.4873 11.9265C54.3305 11.9041 54.1738 11.8929 54.0171 11.8929C53.8492 11.8929 53.6813 11.9041 53.5134 11.9265C53.3566 11.9377 53.1999 11.9545 53.0432 11.9769V11.8929C53.2447 11.7362 53.3678 11.5459 53.4126 11.322C53.4574 11.0981 53.4798 10.8631 53.4798 10.6168V7.05708C53.4798 6.00483 53.3678 5.18766 53.144 4.60557C52.9201 4.02348 52.5955 3.73243 52.1701 3.73243C51.9798 3.73243 51.7895 3.794 51.5992 3.91713C51.4201 4.04027 51.2578 4.21937 51.1122 4.45445C50.9779 4.68953 50.866 4.98057 50.7764 5.32759C50.6869 5.67461 50.6421 6.0664 50.6421 6.50297V10.6168C50.6421 10.8519 50.6645 11.0869 50.7093 11.322C50.754 11.5459 50.8772 11.7362 51.0787 11.8929V11.9769C50.9107 11.9545 50.7484 11.9377 50.5917 11.9265C50.435 11.9041 50.2783 11.8929 50.1216 11.8929C49.9536 11.8929 49.7857 11.9041 49.6178 11.9265C49.4611 11.9377 49.3044 11.9545 49.1477 11.9769V11.8929C49.3492 11.7362 49.4723 11.5459 49.5171 11.322C49.5619 11.0981 49.5842 10.8631 49.5842 10.6168Z"/>
<path d="M55.8215 3.64848V3.48056C56.0118 3.46937 56.1853 3.38541 56.342 3.2287C56.5099 3.06079 56.6555 2.86489 56.7786 2.64101C56.9129 2.41712 57.0193 2.18765 57.0976 1.95257C57.1872 1.71749 57.2543 1.52719 57.2991 1.38167L57.4334 1.46563V3.48056H58.1555V3.64848H57.4334V10.4153C57.4334 10.8407 57.467 11.1373 57.5342 11.3052C57.6126 11.4731 57.7133 11.5571 57.8364 11.5571C57.982 11.5571 58.1051 11.4787 58.2058 11.322C58.3066 11.1653 58.3626 10.9974 58.3737 10.8183L58.4577 10.8351C58.4577 11.1933 58.357 11.4955 58.1555 11.7418C57.9652 11.9881 57.7133 12.1112 57.3999 12.1112C57.0752 12.1112 56.8234 11.9825 56.6443 11.725C56.4763 11.4564 56.3924 11.0981 56.3924 10.6504V3.64848H55.8215Z"/>
<path d="M3.11116 16.6736C3.96191 16.6736 4.52161 17.1326 4.79027 18.0505V14.474C4.79027 14.1158 4.7455 13.8751 4.65594 13.7519C4.57758 13.6176 4.49363 13.5393 4.40408 13.5169V13.4329C4.59438 13.4329 4.83505 13.3937 5.1261 13.3154C5.41714 13.237 5.62423 13.1195 5.74737 12.9628H5.83132V24.1289C5.83132 24.4871 5.8705 24.7333 5.94886 24.8677C6.03841 24.9908 6.12797 25.0636 6.21752 25.086V25.1699H4.79027V23.7091C4.72311 23.9106 4.62796 24.1065 4.50482 24.2968C4.39288 24.4759 4.25855 24.6382 4.10184 24.7837C3.94512 24.9292 3.76042 25.0468 3.54773 25.1363C3.33504 25.2259 3.09996 25.2707 2.8425 25.2707C2.40593 25.2707 2.01973 25.1475 1.68391 24.9013C1.35928 24.655 1.09062 24.336 0.877937 23.9442C0.665249 23.5412 0.502935 23.099 0.390994 22.6177C0.290247 22.1251 0.239873 21.6438 0.239873 21.1736C0.239873 20.6811 0.295844 20.1718 0.407785 19.6456C0.53092 19.1083 0.710025 18.6214 0.945101 18.1848C1.18018 17.7482 1.47682 17.39 1.83503 17.1102C2.19324 16.8191 2.61862 16.6736 3.11116 16.6736ZM3.06078 24.9013C3.30705 24.9013 3.53094 24.8397 3.73243 24.7166C3.94512 24.5934 4.12982 24.4367 4.28654 24.2464C4.44326 24.0449 4.56639 23.821 4.65594 23.5748C4.7455 23.3173 4.79027 23.0542 4.79027 22.7856V19.696C4.79027 18.8005 4.66154 18.112 4.40408 17.6307C4.14661 17.1382 3.77721 16.8919 3.29586 16.8919C2.90407 16.8919 2.57944 17.043 2.32197 17.3452C2.06451 17.6475 1.85742 18.0225 1.7007 18.4703C1.55518 18.918 1.44884 19.3882 1.38167 19.8807C1.3257 20.3732 1.29772 20.8154 1.29772 21.2072C1.29772 21.4871 1.31451 21.8397 1.34809 22.2651C1.39286 22.6904 1.47682 23.099 1.59996 23.4908C1.73428 23.8714 1.91339 24.2016 2.13727 24.4815C2.37235 24.7613 2.68019 24.9013 3.06078 24.9013Z"/>
<path d="M7.06324 15.2799L7.41585 13.5672C7.43824 13.4217 7.48862 13.321 7.56698 13.265C7.64533 13.1978 7.72929 13.1643 7.81884 13.1643C7.94198 13.1643 8.04832 13.2146 8.13787 13.3154C8.22743 13.4161 8.23862 13.5393 8.17146 13.6848L7.39906 15.2799H7.06324Z"/>
<path d="M9.06375 25.1195C9.26524 25.0076 9.38838 24.8733 9.43315 24.7166C9.47793 24.5598 9.50032 24.3975 9.50032 24.2296V17.8154C9.50032 17.4572 9.45554 17.2165 9.36599 17.0934C9.28763 16.9591 9.20367 16.8807 9.11412 16.8583V16.7743C9.20367 16.7743 9.31562 16.7632 9.44994 16.7408C9.58427 16.7184 9.71301 16.6904 9.83614 16.6568C9.97047 16.612 10.0936 16.5617 10.2055 16.5057C10.3287 16.4497 10.4182 16.3826 10.4742 16.3042H10.5582V24.196C10.5582 24.3639 10.5805 24.5319 10.6253 24.6998C10.6701 24.8677 10.7932 25.002 10.9947 25.1028V25.1699C10.8268 25.1475 10.6645 25.1307 10.5078 25.1195C10.3511 25.0972 10.1944 25.086 10.0376 25.086C9.86972 25.086 9.70181 25.0972 9.5339 25.1195C9.37718 25.1307 9.22047 25.1475 9.06375 25.1699V25.1195ZM9.26524 14.709C9.26524 14.4963 9.32121 14.3061 9.43315 14.1381C9.55629 13.959 9.73539 13.8695 9.97047 13.8695C10.1944 13.8695 10.3623 13.9534 10.4742 14.1213C10.5973 14.2893 10.6589 14.4796 10.6589 14.6922C10.6589 14.9049 10.5973 15.0952 10.4742 15.2631C10.3623 15.4311 10.1888 15.515 9.95368 15.515C9.7186 15.515 9.54509 15.4311 9.43315 15.2631C9.32121 15.0952 9.26524 14.9105 9.26524 14.709Z"/>
<path d="M12.2715 23.8098V18.3527C12.2715 17.9945 12.2267 17.7538 12.1372 17.6307C12.0588 17.4964 11.9749 17.418 11.8853 17.3956V17.3117C11.9749 17.3117 12.0868 17.3005 12.2211 17.2781C12.3555 17.2557 12.4842 17.2277 12.6073 17.1941C12.7417 17.1494 12.8648 17.099 12.9767 17.043C13.0999 16.987 13.1894 16.9199 13.2454 16.8415H13.3294V18.4031C13.4749 17.8322 13.71 17.4012 14.0346 17.1102C14.3592 16.8191 14.7342 16.6736 15.1596 16.6736C15.7977 16.6736 16.3014 16.9926 16.6708 17.6307C17.0402 18.2576 17.2249 19.1139 17.2249 20.1997V23.8434C17.2249 24.0785 17.2473 24.308 17.2921 24.5319C17.3368 24.7445 17.46 24.9292 17.6615 25.086V25.1699C17.4936 25.1475 17.3312 25.1307 17.1745 25.1195C17.0178 25.0972 16.8611 25.086 16.7044 25.086C16.5365 25.086 16.3685 25.0972 16.2006 25.1195C16.0439 25.1307 15.8872 25.1475 15.7305 25.1699V25.086C15.932 24.9292 16.0551 24.7389 16.0999 24.5151C16.1447 24.2912 16.1671 24.0561 16.1671 23.8098V20.2501C16.1671 19.1979 16.0551 18.3807 15.8312 17.7986C15.6074 17.2165 15.2827 16.9255 14.8573 16.9255C14.667 16.9255 14.4767 16.987 14.2864 17.1102C14.1073 17.2333 13.945 17.4124 13.7995 17.6475C13.6652 17.8826 13.5532 18.1736 13.4637 18.5206C13.3741 18.8676 13.3294 19.2594 13.3294 19.696V23.8098C13.3294 24.0449 13.3517 24.28 13.3965 24.5151C13.4413 24.7389 13.5644 24.9292 13.7659 25.086V25.1699C13.598 25.1475 13.4357 25.1307 13.279 25.1195C13.1223 25.0972 12.9655 25.086 12.8088 25.086C12.6409 25.086 12.473 25.0972 12.3051 25.1195C12.1484 25.1307 11.9917 25.1475 11.8349 25.1699V25.086C12.0364 24.9292 12.1596 24.7389 12.2043 24.5151C12.2491 24.2912 12.2715 24.0561 12.2715 23.8098Z"/>
<path d="M18.5088 16.8415V16.6736C18.6991 16.6624 18.8726 16.5785 19.0293 16.4217C19.1972 16.2538 19.3427 16.0579 19.4659 15.834C19.6002 15.6102 19.7065 15.3807 19.7849 15.1456C19.8744 14.9105 19.9416 14.7202 19.9864 14.5747L20.1207 14.6587V16.6736H20.8427V16.8415H20.1207V23.6083C20.1207 24.0337 20.1543 24.3304 20.2215 24.4983C20.2998 24.6662 20.4006 24.7501 20.5237 24.7501C20.6692 24.7501 20.7924 24.6718 20.8931 24.5151C20.9939 24.3583 21.0498 24.1904 21.061 24.0113L21.145 24.0281C21.145 24.3863 21.0442 24.6886 20.8427 24.9348C20.6524 25.1811 20.4006 25.3042 20.0871 25.3042C19.7625 25.3042 19.5106 25.1755 19.3315 24.9181C19.1636 24.6494 19.0797 24.2912 19.0797 23.8434V16.8415H18.5088Z"/>
<path d="M21.7391 25.1699V25.086C21.8286 25.0636 21.9126 24.9908 21.991 24.8677C22.0805 24.7333 22.1253 24.4871 22.1253 24.1289V18.3527C22.1253 17.9945 22.0805 17.7538 21.991 17.6307C21.9126 17.4964 21.8286 17.418 21.7391 17.3956V17.3117C21.9294 17.3117 22.1701 17.2725 22.4611 17.1941C22.7522 17.1158 22.9592 16.9982 23.0824 16.8415H23.1663V18.4199C23.2671 18.0057 23.435 17.6419 23.6701 17.3285C23.9163 17.0038 24.2354 16.8415 24.6272 16.8415C24.9518 16.8415 25.2372 16.9646 25.4835 17.2109C25.741 17.446 25.8697 17.7482 25.8697 18.1176L24.7951 18.1848C24.7503 17.9273 24.6663 17.7482 24.5432 17.6475C24.4201 17.5355 24.2913 17.4796 24.157 17.4796C23.9779 17.4796 23.8212 17.5691 23.6869 17.7482C23.5637 17.9161 23.463 18.1176 23.3846 18.3527C23.3063 18.5766 23.2503 18.8061 23.2167 19.0412C23.1831 19.2762 23.1663 19.4553 23.1663 19.5785V24.1289C23.1663 24.4871 23.2055 24.7333 23.2839 24.8677C23.3734 24.9908 23.463 25.0636 23.5525 25.086V25.1699H21.7391Z"/>
<path d="M26.2137 20.9721C26.2137 20.4908 26.2696 19.9982 26.3816 19.4945C26.5047 18.9796 26.695 18.515 26.9525 18.1008C27.2099 17.6867 27.5402 17.3452 27.9432 17.0766C28.3461 16.8079 28.8331 16.6736 29.404 16.6736C29.9749 16.6736 30.4618 16.8079 30.8648 17.0766C31.2678 17.3452 31.598 17.6867 31.8555 18.1008C32.113 18.515 32.2977 18.9796 32.4096 19.4945C32.5327 19.9982 32.5943 20.4908 32.5943 20.9721C32.5943 21.4535 32.5327 21.9516 32.4096 22.4665C32.2977 22.9703 32.113 23.4348 31.8555 23.8602C31.598 24.2744 31.2678 24.6158 30.8648 24.8845C30.4618 25.1419 29.9749 25.2707 29.404 25.2707C28.8331 25.2707 28.3461 25.1419 27.9432 24.8845C27.5402 24.6158 27.2099 24.2744 26.9525 23.8602C26.695 23.4348 26.5047 22.9703 26.3816 22.4665C26.2696 21.9516 26.2137 21.4535 26.2137 20.9721ZM27.2883 20.9721C27.2883 21.3639 27.3163 21.8005 27.3723 22.2818C27.4394 22.752 27.5514 23.1998 27.7081 23.6251C27.8648 24.0393 28.0775 24.3919 28.3461 24.683C28.626 24.9628 28.9786 25.1028 29.404 25.1028C29.8294 25.1028 30.1764 24.9628 30.445 24.683C30.7249 24.3919 30.9432 24.0393 31.0999 23.6251C31.2566 23.1998 31.3629 22.752 31.4189 22.2818C31.4861 21.8005 31.5197 21.3639 31.5197 20.9721C31.5197 20.5803 31.4861 20.1494 31.4189 19.6792C31.3629 19.1979 31.2566 18.7501 31.0999 18.3359C30.9432 17.9105 30.7249 17.5579 30.445 17.2781C30.1764 16.987 29.8294 16.8415 29.404 16.8415C28.9786 16.8415 28.626 16.987 28.3461 17.2781C28.0775 17.5579 27.8648 17.9105 27.7081 18.3359C27.5514 18.7501 27.4394 19.1979 27.3723 19.6792C27.3163 20.1494 27.2883 20.5803 27.2883 20.9721Z"/>
<path d="M35.3299 16.6736C35.7777 16.6736 36.1863 16.7967 36.5557 17.043C36.9251 17.2781 37.205 17.5915 37.3953 17.9833L36.6061 18.5878C36.6061 18.3639 36.5725 18.1456 36.5053 17.9329C36.4382 17.7202 36.343 17.5355 36.2199 17.3788C36.1079 17.2109 35.968 17.0822 35.8001 16.9926C35.6434 16.8919 35.4755 16.8415 35.2964 16.8415C34.9717 16.8415 34.7031 16.9814 34.4904 17.2613C34.2889 17.5411 34.1881 17.8602 34.1881 18.2184C34.1881 18.5318 34.2665 18.8061 34.4232 19.0412C34.5799 19.2762 34.7758 19.5001 35.0109 19.7128C35.246 19.9255 35.5035 20.1326 35.7833 20.3341C36.0632 20.5356 36.3206 20.765 36.5557 21.0225C36.7908 21.2688 36.9867 21.5486 37.1434 21.8621C37.3001 22.1643 37.3785 22.5281 37.3785 22.9535C37.3785 23.3005 37.3225 23.6195 37.2106 23.9106C37.0986 24.1904 36.9419 24.4367 36.7404 24.6494C36.5389 24.8509 36.3038 25.0076 36.0352 25.1195C35.7777 25.2315 35.4979 25.2875 35.1956 25.2875C34.8486 25.2875 34.5296 25.2147 34.2385 25.0692C33.9475 24.9236 33.662 24.7166 33.3822 24.4479V22.0971H33.5501C33.5725 22.5337 33.6396 22.9367 33.7516 23.3061C33.8635 23.6755 33.9978 23.9945 34.1546 24.2632C34.3225 24.5319 34.5016 24.7445 34.6919 24.9013C34.8934 25.0468 35.0837 25.1195 35.2628 25.1195C35.4083 25.1195 35.5538 25.0748 35.6993 24.9852C35.8449 24.8845 35.9736 24.7557 36.0855 24.599C36.1975 24.4423 36.287 24.2576 36.3542 24.0449C36.4214 23.821 36.4549 23.5915 36.4549 23.3565C36.4549 22.9871 36.3766 22.668 36.2199 22.3994C36.0632 22.1195 35.8673 21.8677 35.6322 21.6438C35.3971 21.4087 35.1396 21.196 34.8598 21.0057C34.5799 20.8042 34.3225 20.5971 34.0874 20.3844C33.8523 20.1606 33.6564 19.9199 33.4997 19.6624C33.343 19.3938 33.2646 19.0859 33.2646 18.7389C33.2646 18.4814 33.3094 18.2296 33.399 17.9833C33.4997 17.737 33.6396 17.5188 33.8187 17.3285C33.9978 17.127 34.2161 16.9702 34.4736 16.8583C34.7311 16.7352 35.0165 16.6736 35.3299 16.6736Z"/>
<path d="M38.1531 29.4349C38.2426 29.4125 38.3266 29.3341 38.405 29.1998C38.4945 29.0767 38.5393 28.836 38.5393 28.4778V18.3527C38.5393 17.9945 38.4945 17.7538 38.405 17.6307C38.3266 17.4964 38.2426 17.418 38.1531 17.3956V17.3117C38.3434 17.3117 38.5841 17.2725 38.8751 17.1941C39.1662 17.1158 39.3732 16.9982 39.4964 16.8415H39.5803V18.2352C39.6475 18.0337 39.737 17.8434 39.849 17.6643C39.9721 17.474 40.112 17.3061 40.2688 17.1605C40.4367 17.015 40.6214 16.8975 40.8229 16.8079C41.0356 16.7184 41.2762 16.6736 41.5449 16.6736C41.9143 16.6736 42.2557 16.7688 42.5692 16.9591C42.8826 17.1382 43.1568 17.4012 43.3919 17.7482C43.627 18.0953 43.8061 18.5206 43.9292 19.0244C44.0636 19.5169 44.1307 20.0766 44.1307 20.7035C44.1307 21.3751 44.058 21.9908 43.9124 22.5505C43.7669 23.1102 43.5598 23.5916 43.2912 23.9945C43.0337 24.3975 42.7259 24.711 42.3677 24.9348C42.0206 25.1587 41.64 25.2707 41.2259 25.2707C40.3975 25.2707 39.849 24.8117 39.5803 23.8938V28.4778C39.5803 28.836 39.6195 29.0767 39.6979 29.1998C39.7874 29.3341 39.877 29.4125 39.9665 29.4349V29.5188H38.1531V29.4349ZM39.5803 22.2483C39.5803 23.1438 39.7035 23.8378 39.9497 24.3304C40.2072 24.8117 40.5598 25.0524 41.0076 25.0524C41.3098 25.0524 41.5841 24.946 41.8303 24.7333C42.0878 24.5095 42.3061 24.2072 42.4852 23.8266C42.6755 23.4348 42.821 22.9815 42.9218 22.4665C43.0225 21.9404 43.0729 21.3751 43.0729 20.7706C43.0729 20.2221 43.0281 19.7184 42.9386 19.2594C42.8602 18.8005 42.7427 18.4087 42.5859 18.0841C42.4292 17.7594 42.2389 17.5076 42.015 17.3285C41.7912 17.1382 41.5393 17.043 41.2594 17.043C41.0244 17.043 40.8061 17.1046 40.6046 17.2277C40.4031 17.3508 40.224 17.5132 40.0673 17.7147C39.9218 17.905 39.8042 18.1288 39.7147 18.3863C39.6251 18.6326 39.5803 18.89 39.5803 19.1587V22.2483Z"/>
<path d="M47.428 16.6568C47.775 16.6568 48.0884 16.7296 48.3683 16.8751C48.6593 17.0094 48.9 17.1829 49.0903 17.3956C49.2918 17.5971 49.4373 17.821 49.5269 18.0673C49.6164 18.3023 49.6332 18.5262 49.5772 18.7389C49.5324 18.9404 49.4037 19.1139 49.191 19.2594C48.9895 19.3938 48.6929 19.4609 48.3011 19.4609H45.9335C45.9112 19.6736 45.8944 19.8863 45.8832 20.099C45.872 20.3117 45.8664 20.5132 45.8664 20.7035C45.8664 21.196 45.8944 21.6886 45.9503 22.1811C46.0175 22.6736 46.1182 23.1158 46.2526 23.5076C46.3981 23.8994 46.5828 24.2184 46.8067 24.4647C47.0306 24.711 47.2992 24.8341 47.6127 24.8341C47.8477 24.8341 48.0548 24.7669 48.2339 24.6326C48.413 24.4983 48.5698 24.3304 48.7041 24.1289C48.8384 23.9274 48.9504 23.7091 49.0399 23.474C49.1407 23.2277 49.2134 23.0039 49.2582 22.8024C49.3142 22.5897 49.3477 22.405 49.3589 22.2483C49.3813 22.0915 49.3869 22.002 49.3757 21.9796H49.5436C49.5548 22.0132 49.5492 22.1195 49.5269 22.2986C49.5157 22.4777 49.4821 22.6904 49.4261 22.9367C49.3701 23.183 49.2862 23.446 49.1742 23.7259C49.0735 24.0057 48.9392 24.2688 48.7712 24.5151C48.6033 24.7501 48.3906 24.946 48.1332 25.1028C47.8869 25.2595 47.5903 25.3378 47.2433 25.3378C46.7955 25.3378 46.4149 25.2091 46.1015 24.9516C45.7992 24.683 45.5529 24.3416 45.3626 23.9274C45.1724 23.502 45.0324 23.0318 44.9429 22.5169C44.8533 22.002 44.8085 21.4871 44.8085 20.9721C44.8085 20.5356 44.8533 20.0654 44.9429 19.5617C45.0324 19.0467 45.1779 18.5766 45.3794 18.1512C45.5921 17.7258 45.8664 17.3732 46.2022 17.0934C46.538 16.8023 46.9466 16.6568 47.428 16.6568ZM48.0996 19.293C48.2451 19.293 48.3515 19.2315 48.4186 19.1083C48.497 18.9852 48.5418 18.8341 48.553 18.655C48.5754 18.4759 48.5642 18.28 48.5194 18.0673C48.4858 17.8546 48.4186 17.6587 48.3179 17.4796C48.2283 17.3005 48.1052 17.1493 47.9485 17.0262C47.803 16.9031 47.6351 16.8415 47.4448 16.8415C47.1985 16.8415 46.9914 16.9311 46.8235 17.1102C46.6556 17.2893 46.51 17.5076 46.3869 17.765C46.275 18.0225 46.1854 18.2911 46.1182 18.571C46.0511 18.8509 46.0007 19.0915 45.9671 19.293H48.0996Z"/>
<path d="M50.2853 20.9721C50.2853 20.3117 50.3469 19.7184 50.47 19.1923C50.6044 18.655 50.7891 18.2016 51.0241 17.8322C51.2592 17.4628 51.5391 17.1773 51.8637 16.9758C52.1883 16.7743 52.5465 16.6736 52.9383 16.6736C53.3861 16.6736 53.7947 16.7967 54.1641 17.043C54.5335 17.2781 54.8133 17.5915 55.0036 17.9833L54.2145 18.5878C54.2145 18.3639 54.1809 18.1456 54.1137 17.9329C54.0466 17.7202 53.9514 17.5355 53.8283 17.3788C53.7163 17.2109 53.582 17.0822 53.4253 16.9926C53.2686 16.8919 53.1063 16.8415 52.9383 16.8415C52.7033 16.8415 52.485 16.9367 52.2835 17.127C52.0932 17.3061 51.9253 17.5691 51.7797 17.9161C51.6454 18.252 51.5391 18.6606 51.4607 19.1419C51.3824 19.6121 51.3432 20.1326 51.3432 20.7035C51.3432 21.196 51.3712 21.6886 51.4271 22.1811C51.4943 22.6736 51.595 23.1158 51.7294 23.5076C51.8749 23.8994 52.0596 24.2184 52.2835 24.4647C52.5074 24.711 52.776 24.8341 53.0895 24.8341C53.3245 24.8341 53.5316 24.7669 53.7107 24.6326C53.8898 24.4983 54.0466 24.3304 54.1809 24.1289C54.3152 23.9274 54.4272 23.7091 54.5167 23.474C54.6175 23.2277 54.6902 23.0039 54.735 22.8024C54.791 22.5897 54.8245 22.405 54.8357 22.2483C54.8581 22.0915 54.8637 22.002 54.8525 21.9796H55.0204C55.0316 22.0132 55.026 22.1195 55.0036 22.2986C54.9925 22.4777 54.9589 22.6904 54.9029 22.9367C54.8469 23.183 54.763 23.446 54.651 23.7259C54.5503 24.0057 54.416 24.2688 54.248 24.5151C54.0801 24.7501 53.8674 24.946 53.61 25.1028C53.3637 25.2595 53.0671 25.3378 52.7201 25.3378C52.2723 25.3378 51.8917 25.2091 51.5783 24.9516C51.276 24.683 51.0297 24.3416 50.8394 23.9274C50.6491 23.502 50.5092 23.0318 50.4197 22.5169C50.3301 22.002 50.2853 21.4871 50.2853 20.9721Z"/>
<path d="M55.7805 16.8415V16.6736C55.9708 16.6624 56.1443 16.5785 56.301 16.4217C56.4689 16.2538 56.6145 16.0579 56.7376 15.834C56.8719 15.6102 56.9783 15.3807 57.0566 15.1456C57.1462 14.9105 57.2133 14.7202 57.2581 14.5747L57.3925 14.6587V16.6736H58.1145V16.8415H57.3925V23.6083C57.3925 24.0337 57.426 24.3304 57.4932 24.4983C57.5716 24.6662 57.6723 24.7501 57.7954 24.7501C57.941 24.7501 58.0641 24.6718 58.1648 24.5151C58.2656 24.3583 58.3216 24.1904 58.3328 24.0113L58.4167 24.0281C58.4167 24.3863 58.316 24.6886 58.1145 24.9348C57.9242 25.1811 57.6723 25.3042 57.3589 25.3042C57.0342 25.3042 56.7824 25.1755 56.6033 24.9181C56.4354 24.6494 56.3514 24.2912 56.3514 23.8434V16.8415H55.7805Z"/>
<path d="M59.0108 25.1195C59.2123 25.0076 59.3355 24.8733 59.3802 24.7166C59.425 24.5598 59.4474 24.3975 59.4474 24.2296V17.8154C59.4474 17.4572 59.4026 17.2165 59.3131 17.0934C59.2347 16.9591 59.1508 16.8807 59.0612 16.8583V16.7743C59.1508 16.7743 59.2627 16.7632 59.397 16.7408C59.5313 16.7184 59.6601 16.6904 59.7832 16.6568C59.9175 16.612 60.0407 16.5617 60.1526 16.5057C60.2758 16.4497 60.3653 16.3826 60.4213 16.3042H60.5052V24.196C60.5052 24.3639 60.5276 24.5319 60.5724 24.6998C60.6172 24.8677 60.7403 25.002 60.9418 25.1028V25.1699C60.7739 25.1475 60.6116 25.1307 60.4549 25.1195C60.2981 25.0972 60.1414 25.086 59.9847 25.086C59.8168 25.086 59.6489 25.0972 59.481 25.1195C59.3243 25.1307 59.1675 25.1475 59.0108 25.1699V25.1195ZM59.2123 14.709C59.2123 14.4963 59.2683 14.3061 59.3802 14.1381C59.5034 13.959 59.6825 13.8695 59.9175 13.8695C60.1414 13.8695 60.3093 13.9534 60.4213 14.1213C60.5444 14.2893 60.606 14.4796 60.606 14.6922C60.606 14.9049 60.5444 15.0952 60.4213 15.2631C60.3093 15.4311 60.1358 15.515 59.9008 15.515C59.6657 15.515 59.4922 15.4311 59.3802 15.2631C59.2683 15.0952 59.2123 14.9105 59.2123 14.709Z"/>
<path d="M61.6981 20.9721C61.6981 20.4908 61.754 19.9982 61.866 19.4945C61.9891 18.9796 62.1794 18.515 62.4369 18.1008C62.6943 17.6867 63.0246 17.3452 63.4276 17.0766C63.8305 16.8079 64.3175 16.6736 64.8884 16.6736C65.4593 16.6736 65.9462 16.8079 66.3492 17.0766C66.7522 17.3452 67.0824 17.6867 67.3399 18.1008C67.5973 18.515 67.7821 18.9796 67.894 19.4945C68.0171 19.9982 68.0787 20.4908 68.0787 20.9721C68.0787 21.4535 68.0171 21.9516 67.894 22.4665C67.7821 22.9703 67.5973 23.4348 67.3399 23.8602C67.0824 24.2744 66.7522 24.6158 66.3492 24.8845C65.9462 25.1419 65.4593 25.2707 64.8884 25.2707C64.3175 25.2707 63.8305 25.1419 63.4276 24.8845C63.0246 24.6158 62.6943 24.2744 62.4369 23.8602C62.1794 23.4348 61.9891 22.9703 61.866 22.4665C61.754 21.9516 61.6981 21.4535 61.6981 20.9721ZM62.7727 20.9721C62.7727 21.3639 62.8007 21.8005 62.8567 22.2818C62.9238 22.752 63.0358 23.1998 63.1925 23.6251C63.3492 24.0393 63.5619 24.3919 63.8305 24.683C64.1104 24.9628 64.463 25.1028 64.8884 25.1028C65.3138 25.1028 65.6608 24.9628 65.9294 24.683C66.2093 24.3919 66.4276 24.0393 66.5843 23.6251C66.741 23.1998 66.8473 22.752 66.9033 22.2818C66.9705 21.8005 67.0041 21.3639 67.0041 20.9721C67.0041 20.5803 66.9705 20.1494 66.9033 19.6792C66.8473 19.1979 66.741 18.7501 66.5843 18.3359C66.4276 17.9105 66.2093 17.5579 65.9294 17.2781C65.6608 16.987 65.3138 16.8415 64.8884 16.8415C64.463 16.8415 64.1104 16.987 63.8305 17.2781C63.5619 17.5579 63.3492 17.9105 63.1925 18.3359C63.0358 18.7501 62.9238 19.1979 62.8567 19.6792C62.8007 20.1494 62.7727 20.5803 62.7727 20.9721Z"/>
<path d="M69.2696 23.8098V18.3527C69.2696 17.9945 69.2248 17.7538 69.1352 17.6307C69.0569 17.4964 68.9729 17.418 68.8834 17.3956V17.3117C68.9729 17.3117 69.0849 17.3005 69.2192 17.2781C69.3535 17.2557 69.4822 17.2277 69.6054 17.1941C69.7397 17.1494 69.8628 17.099 69.9748 17.043C70.0979 16.987 70.1875 16.9199 70.2434 16.8415H70.3274V18.4031C70.4729 17.8322 70.708 17.4012 71.0326 17.1102C71.3573 16.8191 71.7323 16.6736 72.1576 16.6736C72.7957 16.6736 73.2994 16.9926 73.6688 17.6307C74.0382 18.2576 74.2229 19.1139 74.2229 20.1997V23.8434C74.2229 24.0785 74.2453 24.308 74.2901 24.5319C74.3349 24.7445 74.458 24.9292 74.6595 25.086V25.1699C74.4916 25.1475 74.3293 25.1307 74.1726 25.1195C74.0159 25.0972 73.8591 25.086 73.7024 25.086C73.5345 25.086 73.3666 25.0972 73.1987 25.1195C73.042 25.1307 72.8852 25.1475 72.7285 25.1699V25.086C72.93 24.9292 73.0532 24.7389 73.0979 24.5151C73.1427 24.2912 73.1651 24.0561 73.1651 23.8098V20.2501C73.1651 19.1979 73.0532 18.3807 72.8293 17.7986C72.6054 17.2165 72.2808 16.9255 71.8554 16.9255C71.6651 16.9255 71.4748 16.987 71.2845 17.1102C71.1054 17.2333 70.9431 17.4124 70.7976 17.6475C70.6632 17.8826 70.5513 18.1736 70.4617 18.5206C70.3722 18.8676 70.3274 19.2594 70.3274 19.696V23.8098C70.3274 24.0449 70.3498 24.28 70.3946 24.5151C70.4393 24.7389 70.5625 24.9292 70.764 25.086V25.1699C70.5961 25.1475 70.4337 25.1307 70.277 25.1195C70.1203 25.0972 69.9636 25.086 69.8069 25.086C69.639 25.086 69.4711 25.0972 69.3031 25.1195C69.1464 25.1307 68.9897 25.1475 68.833 25.1699V25.086C69.0345 24.9292 69.1576 24.7389 69.2024 24.5151C69.2472 24.2912 69.2696 24.0561 69.2696 23.8098Z"/>
</mask>
<path d="M16.7788 11.8929C16.9803 11.7362 17.1034 11.5459 17.1482 11.322C17.193 11.0981 17.2154 10.8631 17.2154 10.6168V0.827564C17.2154 0.5701 17.0755 0.402188 16.7956 0.32383V0.239873H18.3236L21.027 10.4489L23.7471 0.239873H25.2248V0.32383C24.9449 0.402188 24.805 0.5701 24.805 0.827564V10.6504C24.805 10.8855 24.8274 11.1149 24.8721 11.3388C24.9169 11.5515 25.0401 11.7362 25.2416 11.8929V11.9769C25.0736 11.9545 24.9113 11.9377 24.7546 11.9265C24.5979 11.9041 24.4412 11.8929 24.2845 11.8929C24.1165 11.8929 23.9486 11.9041 23.7807 11.9265C23.624 11.9377 23.4673 11.9545 23.3106 11.9769V11.8929C23.5121 11.7362 23.6352 11.5459 23.68 11.322C23.7248 11.0981 23.7471 10.8631 23.7471 10.6168V0.92831L20.7919 11.9769H20.3385L17.4001 0.92831V10.6168C17.4001 10.8519 17.4225 11.0869 17.4673 11.322C17.512 11.5459 17.6352 11.7362 17.8367 11.8929V11.9769C17.6687 11.9545 17.54 11.9377 17.4505 11.9265C17.3721 11.9041 17.2993 11.8929 17.2322 11.8929C17.0755 11.8929 16.9243 11.9209 16.7788 11.9769V11.8929Z" fill="var(--fill-0, #FFEAD3)"/>
<path d="M25.9923 7.7791C25.9923 7.29775 26.0483 6.80521 26.1602 6.30147C26.2833 5.78655 26.4736 5.32199 26.7311 4.90781C26.9886 4.49363 27.3188 4.15221 27.7218 3.88355C28.1248 3.61489 28.6117 3.48056 29.1826 3.48056C29.7535 3.48056 30.2405 3.61489 30.6434 3.88355C31.0464 4.15221 31.3767 4.49363 31.6341 4.90781C31.8916 5.32199 32.0763 5.78655 32.1882 6.30147C32.3114 6.80521 32.3729 7.29775 32.3729 7.7791C32.3729 8.26044 32.3114 8.75858 32.1882 9.27351C32.0763 9.77724 31.8916 10.2418 31.6341 10.6672C31.3767 11.0814 31.0464 11.4228 30.6434 11.6914C30.2405 11.9489 29.7535 12.0776 29.1826 12.0776C28.6117 12.0776 28.1248 11.9489 27.7218 11.6914C27.3188 11.4228 26.9886 11.0814 26.7311 10.6672C26.4736 10.2418 26.2833 9.77724 26.1602 9.27351C26.0483 8.75858 25.9923 8.26044 25.9923 7.7791ZM27.0669 7.7791C27.0669 8.17089 27.0949 8.60746 27.1509 9.0888C27.2181 9.55896 27.33 10.0067 27.4867 10.4321C27.6434 10.8463 27.8561 11.1989 28.1248 11.4899C28.4046 11.7698 28.7572 11.9097 29.1826 11.9097C29.608 11.9097 29.955 11.7698 30.2237 11.4899C30.5035 11.1989 30.7218 10.8463 30.8785 10.4321C31.0352 10.0067 31.1416 9.55896 31.1976 9.0888C31.2647 8.60746 31.2983 8.17089 31.2983 7.7791C31.2983 7.3873 31.2647 6.95633 31.1976 6.48618C31.1416 6.00483 31.0352 5.55707 30.8785 5.14289C30.7218 4.71751 30.5035 4.3649 30.2237 4.08504C29.955 3.794 29.608 3.64848 29.1826 3.64848C28.7572 3.64848 28.4046 3.794 28.1248 4.08504C27.8561 4.3649 27.6434 4.71751 27.4867 5.14289C27.33 5.55707 27.2181 6.00483 27.1509 6.48618C27.0949 6.95633 27.0669 7.3873 27.0669 7.7791Z" fill="var(--fill-0, #FFEAD3)"/>
<path d="M33.5638 10.6168V5.15968C33.5638 4.80147 33.519 4.56079 33.4295 4.43766C33.3511 4.30333 33.2671 4.22497 33.1776 4.20258V4.11863C33.2671 4.11863 33.3791 4.10743 33.5134 4.08504C33.6477 4.06266 33.7765 4.03467 33.8996 4.00109C34.0339 3.95631 34.1571 3.90594 34.269 3.84997C34.3922 3.794 34.4817 3.72683 34.5377 3.64848H34.6216V5.21005C34.7672 4.63915 35.0022 4.20818 35.3269 3.91713C35.6515 3.62609 36.0265 3.48056 36.4519 3.48056C36.9556 3.48056 37.3698 3.67646 37.6944 4.06825C38.0302 4.46005 38.2653 5.00856 38.3996 5.71379C38.4892 4.97498 38.7131 4.42087 39.0713 4.05146C39.4295 3.67086 39.8493 3.48056 40.3306 3.48056C40.9687 3.48056 41.4724 3.7996 41.8418 4.43766C42.2112 5.06453 42.3959 5.92088 42.3959 7.0067V10.6504C42.3959 10.8855 42.4183 11.1149 42.4631 11.3388C42.5079 11.5515 42.631 11.7362 42.8325 11.8929V11.9769C42.6646 11.9545 42.5023 11.9377 42.3456 11.9265C42.1888 11.9041 42.0321 11.8929 41.8754 11.8929C41.7075 11.8929 41.5396 11.9041 41.3717 11.9265C41.215 11.9377 41.0582 11.9545 40.9015 11.9769V11.8929C41.103 11.7362 41.2261 11.5459 41.2709 11.322C41.3157 11.0981 41.3381 10.8631 41.3381 10.6168V7.05708C41.3381 6.00483 41.2261 5.18766 41.0023 4.60557C40.7784 4.02348 40.4538 3.73243 40.0284 3.73243C39.8381 3.73243 39.6478 3.794 39.4575 3.91713C39.2784 4.04027 39.1161 4.21937 38.9705 4.45445C38.8362 4.68953 38.7243 4.98057 38.6347 5.32759C38.5452 5.66341 38.5004 6.04961 38.5004 6.48618C38.5116 6.57573 38.5172 6.66528 38.5172 6.75484C38.5172 6.83319 38.5172 6.91715 38.5172 7.0067V10.6504C38.5172 10.8855 38.5396 11.1149 38.5843 11.3388C38.6291 11.5515 38.7523 11.7362 38.9537 11.8929V11.9769C38.7858 11.9545 38.6235 11.9377 38.4668 11.9265C38.3101 11.9041 38.1534 11.8929 37.9967 11.8929C37.8287 11.8929 37.6608 11.9041 37.4929 11.9265C37.3362 11.9377 37.1795 11.9545 37.0228 11.9769V11.8929C37.2243 11.7362 37.3474 11.5459 37.3922 11.322C37.4369 11.0981 37.4593 10.8631 37.4593 10.6168V7.05708C37.4593 6.00483 37.3474 5.18766 37.1235 4.60557C36.8996 4.02348 36.575 3.73243 36.1496 3.73243C35.9593 3.73243 35.769 3.794 35.5787 3.91713C35.3996 4.04027 35.2373 4.21937 35.0918 4.45445C34.9575 4.68953 34.8455 4.98057 34.756 5.32759C34.6664 5.67461 34.6216 6.0664 34.6216 6.50297V10.6168C34.6216 10.8519 34.644 11.0869 34.6888 11.322C34.7336 11.5459 34.8567 11.7362 35.0582 11.8929V11.9769C34.8903 11.9545 34.728 11.9377 34.5713 11.9265C34.4145 11.9041 34.2578 11.8929 34.1011 11.8929C33.9332 11.8929 33.7653 11.9041 33.5974 11.9265C33.4407 11.9377 33.2839 11.9545 33.1272 11.9769V11.8929C33.3287 11.7362 33.4518 11.5459 33.4966 11.322C33.5414 11.0981 33.5638 10.8631 33.5638 10.6168Z" fill="var(--fill-0, #FFEAD3)"/>
<path d="M46.2063 3.46377C46.5534 3.46377 46.8668 3.53653 47.1466 3.68206C47.4377 3.81639 47.6784 3.98989 47.8687 4.20258C48.0702 4.40408 48.2157 4.62796 48.3052 4.87423C48.3948 5.1093 48.4116 5.33319 48.3556 5.54587C48.3108 5.74737 48.1821 5.92088 47.9694 6.0664C47.7679 6.20073 47.4713 6.26789 47.0795 6.26789H44.7119C44.6895 6.48058 44.6727 6.69327 44.6616 6.90596C44.6504 7.11864 44.6448 7.32014 44.6448 7.51044C44.6448 8.00298 44.6727 8.49552 44.7287 8.98806C44.7959 9.4806 44.8966 9.92276 45.031 10.3146C45.1765 10.7064 45.3612 11.0254 45.5851 11.2717C45.8089 11.5179 46.0776 11.6411 46.391 11.6411C46.6261 11.6411 46.8332 11.5739 47.0123 11.4396C47.1914 11.3052 47.3481 11.1373 47.4825 10.9358C47.6168 10.7343 47.7287 10.5161 47.8183 10.281C47.919 10.0347 47.9918 9.81082 48.0366 9.60933C48.0925 9.39664 48.1261 9.21194 48.1373 9.05522C48.1597 8.8985 48.1653 8.80895 48.1541 8.78656H48.322C48.3332 8.82015 48.3276 8.92649 48.3052 9.1056C48.294 9.2847 48.2605 9.49739 48.2045 9.74366C48.1485 9.98993 48.0646 10.253 47.9526 10.5328C47.8519 10.8127 47.7175 11.0758 47.5496 11.322C47.3817 11.5571 47.169 11.753 46.9116 11.9097C46.6653 12.0664 46.3686 12.1448 46.0216 12.1448C45.5739 12.1448 45.1933 12.0161 44.8798 11.7586C44.5776 11.4899 44.3313 11.1485 44.141 10.7343C43.9507 10.309 43.8108 9.83881 43.7212 9.32388C43.6317 8.80895 43.5869 8.29402 43.5869 7.7791C43.5869 7.34253 43.6317 6.87237 43.7212 6.36864C43.8108 5.85371 43.9563 5.38356 44.1578 4.95818C44.3705 4.53281 44.6448 4.18019 44.9806 3.90034C45.3164 3.6093 45.725 3.46377 46.2063 3.46377ZM46.878 6.09998C47.0235 6.09998 47.1298 6.03841 47.197 5.91528C47.2754 5.79214 47.3202 5.64102 47.3313 5.46192C47.3537 5.28281 47.3425 5.08692 47.2978 4.87423C47.2642 4.66154 47.197 4.46564 47.0963 4.28654C47.0067 4.10743 46.8836 3.95631 46.7269 3.83318C46.5813 3.71004 46.4134 3.64848 46.2231 3.64848C45.9769 3.64848 45.7698 3.73803 45.6019 3.91713C45.4339 4.09624 45.2884 4.31452 45.1653 4.57199C45.0533 4.82945 44.9638 5.09811 44.8966 5.37796C44.8295 5.65781 44.7791 5.89849 44.7455 6.09998H46.878Z" fill="var(--fill-0, #FFEAD3)"/>
<path d="M49.5842 10.6168V5.15968C49.5842 4.80147 49.5395 4.56079 49.4499 4.43766C49.3716 4.30333 49.2876 4.22497 49.198 4.20258V4.11863C49.2876 4.11863 49.3995 4.10743 49.5339 4.08504C49.6682 4.06266 49.7969 4.03467 49.9201 4.00109C50.0544 3.95631 50.1775 3.90594 50.2895 3.84997C50.4126 3.794 50.5022 3.72683 50.5581 3.64848H50.6421V5.21005C50.7876 4.63915 51.0227 4.20818 51.3473 3.91713C51.6719 3.62609 52.0469 3.48056 52.4723 3.48056C53.1104 3.48056 53.6141 3.7996 53.9835 4.43766C54.3529 5.06453 54.5376 5.92088 54.5376 7.0067V10.6504C54.5376 10.8855 54.56 11.1149 54.6048 11.3388C54.6496 11.5515 54.7727 11.7362 54.9742 11.8929V11.9769C54.8063 11.9545 54.644 11.9377 54.4873 11.9265C54.3305 11.9041 54.1738 11.8929 54.0171 11.8929C53.8492 11.8929 53.6813 11.9041 53.5134 11.9265C53.3566 11.9377 53.1999 11.9545 53.0432 11.9769V11.8929C53.2447 11.7362 53.3678 11.5459 53.4126 11.322C53.4574 11.0981 53.4798 10.8631 53.4798 10.6168V7.05708C53.4798 6.00483 53.3678 5.18766 53.144 4.60557C52.9201 4.02348 52.5955 3.73243 52.1701 3.73243C51.9798 3.73243 51.7895 3.794 51.5992 3.91713C51.4201 4.04027 51.2578 4.21937 51.1122 4.45445C50.9779 4.68953 50.866 4.98057 50.7764 5.32759C50.6869 5.67461 50.6421 6.0664 50.6421 6.50297V10.6168C50.6421 10.8519 50.6645 11.0869 50.7093 11.322C50.754 11.5459 50.8772 11.7362 51.0787 11.8929V11.9769C50.9107 11.9545 50.7484 11.9377 50.5917 11.9265C50.435 11.9041 50.2783 11.8929 50.1216 11.8929C49.9536 11.8929 49.7857 11.9041 49.6178 11.9265C49.4611 11.9377 49.3044 11.9545 49.1477 11.9769V11.8929C49.3492 11.7362 49.4723 11.5459 49.5171 11.322C49.5619 11.0981 49.5842 10.8631 49.5842 10.6168Z" fill="var(--fill-0, #FFEAD3)"/>
<path d="M55.8215 3.64848V3.48056C56.0118 3.46937 56.1853 3.38541 56.342 3.2287C56.5099 3.06079 56.6555 2.86489 56.7786 2.64101C56.9129 2.41712 57.0193 2.18765 57.0976 1.95257C57.1872 1.71749 57.2543 1.52719 57.2991 1.38167L57.4334 1.46563V3.48056H58.1555V3.64848H57.4334V10.4153C57.4334 10.8407 57.467 11.1373 57.5342 11.3052C57.6126 11.4731 57.7133 11.5571 57.8364 11.5571C57.982 11.5571 58.1051 11.4787 58.2058 11.322C58.3066 11.1653 58.3626 10.9974 58.3737 10.8183L58.4577 10.8351C58.4577 11.1933 58.357 11.4955 58.1555 11.7418C57.9652 11.9881 57.7133 12.1112 57.3999 12.1112C57.0752 12.1112 56.8234 11.9825 56.6443 11.725C56.4763 11.4564 56.3924 11.0981 56.3924 10.6504V3.64848H55.8215Z" fill="var(--fill-0, #FFEAD3)"/>
<path d="M3.11116 16.6736C3.96191 16.6736 4.52161 17.1326 4.79027 18.0505V14.474C4.79027 14.1158 4.7455 13.8751 4.65594 13.7519C4.57758 13.6176 4.49363 13.5393 4.40408 13.5169V13.4329C4.59438 13.4329 4.83505 13.3937 5.1261 13.3154C5.41714 13.237 5.62423 13.1195 5.74737 12.9628H5.83132V24.1289C5.83132 24.4871 5.8705 24.7333 5.94886 24.8677C6.03841 24.9908 6.12797 25.0636 6.21752 25.086V25.1699H4.79027V23.7091C4.72311 23.9106 4.62796 24.1065 4.50482 24.2968C4.39288 24.4759 4.25855 24.6382 4.10184 24.7837C3.94512 24.9292 3.76042 25.0468 3.54773 25.1363C3.33504 25.2259 3.09996 25.2707 2.8425 25.2707C2.40593 25.2707 2.01973 25.1475 1.68391 24.9013C1.35928 24.655 1.09062 24.336 0.877937 23.9442C0.665249 23.5412 0.502935 23.099 0.390994 22.6177C0.290247 22.1251 0.239873 21.6438 0.239873 21.1736C0.239873 20.6811 0.295844 20.1718 0.407785 19.6456C0.53092 19.1083 0.710025 18.6214 0.945101 18.1848C1.18018 17.7482 1.47682 17.39 1.83503 17.1102C2.19324 16.8191 2.61862 16.6736 3.11116 16.6736ZM3.06078 24.9013C3.30705 24.9013 3.53094 24.8397 3.73243 24.7166C3.94512 24.5934 4.12982 24.4367 4.28654 24.2464C4.44326 24.0449 4.56639 23.821 4.65594 23.5748C4.7455 23.3173 4.79027 23.0542 4.79027 22.7856V19.696C4.79027 18.8005 4.66154 18.112 4.40408 17.6307C4.14661 17.1382 3.77721 16.8919 3.29586 16.8919C2.90407 16.8919 2.57944 17.043 2.32197 17.3452C2.06451 17.6475 1.85742 18.0225 1.7007 18.4703C1.55518 18.918 1.44884 19.3882 1.38167 19.8807C1.3257 20.3732 1.29772 20.8154 1.29772 21.2072C1.29772 21.4871 1.31451 21.8397 1.34809 22.2651C1.39286 22.6904 1.47682 23.099 1.59996 23.4908C1.73428 23.8714 1.91339 24.2016 2.13727 24.4815C2.37235 24.7613 2.68019 24.9013 3.06078 24.9013Z" fill="var(--fill-0, #FFEAD3)"/>
<path d="M7.06324 15.2799L7.41585 13.5672C7.43824 13.4217 7.48862 13.321 7.56698 13.265C7.64533 13.1978 7.72929 13.1643 7.81884 13.1643C7.94198 13.1643 8.04832 13.2146 8.13787 13.3154C8.22743 13.4161 8.23862 13.5393 8.17146 13.6848L7.39906 15.2799H7.06324Z" fill="var(--fill-0, #FFEAD3)"/>
<path d="M9.06375 25.1195C9.26524 25.0076 9.38838 24.8733 9.43315 24.7166C9.47793 24.5598 9.50032 24.3975 9.50032 24.2296V17.8154C9.50032 17.4572 9.45554 17.2165 9.36599 17.0934C9.28763 16.9591 9.20367 16.8807 9.11412 16.8583V16.7743C9.20367 16.7743 9.31562 16.7632 9.44994 16.7408C9.58427 16.7184 9.71301 16.6904 9.83614 16.6568C9.97047 16.612 10.0936 16.5617 10.2055 16.5057C10.3287 16.4497 10.4182 16.3826 10.4742 16.3042H10.5582V24.196C10.5582 24.3639 10.5805 24.5319 10.6253 24.6998C10.6701 24.8677 10.7932 25.002 10.9947 25.1028V25.1699C10.8268 25.1475 10.6645 25.1307 10.5078 25.1195C10.3511 25.0972 10.1944 25.086 10.0376 25.086C9.86972 25.086 9.70181 25.0972 9.5339 25.1195C9.37718 25.1307 9.22047 25.1475 9.06375 25.1699V25.1195ZM9.26524 14.709C9.26524 14.4963 9.32121 14.3061 9.43315 14.1381C9.55629 13.959 9.73539 13.8695 9.97047 13.8695C10.1944 13.8695 10.3623 13.9534 10.4742 14.1213C10.5973 14.2893 10.6589 14.4796 10.6589 14.6922C10.6589 14.9049 10.5973 15.0952 10.4742 15.2631C10.3623 15.4311 10.1888 15.515 9.95368 15.515C9.7186 15.515 9.54509 15.4311 9.43315 15.2631C9.32121 15.0952 9.26524 14.9105 9.26524 14.709Z" fill="var(--fill-0, #FFEAD3)"/>
<path d="M12.2715 23.8098V18.3527C12.2715 17.9945 12.2267 17.7538 12.1372 17.6307C12.0588 17.4964 11.9749 17.418 11.8853 17.3956V17.3117C11.9749 17.3117 12.0868 17.3005 12.2211 17.2781C12.3555 17.2557 12.4842 17.2277 12.6073 17.1941C12.7417 17.1494 12.8648 17.099 12.9767 17.043C13.0999 16.987 13.1894 16.9199 13.2454 16.8415H13.3294V18.4031C13.4749 17.8322 13.71 17.4012 14.0346 17.1102C14.3592 16.8191 14.7342 16.6736 15.1596 16.6736C15.7977 16.6736 16.3014 16.9926 16.6708 17.6307C17.0402 18.2576 17.2249 19.1139 17.2249 20.1997V23.8434C17.2249 24.0785 17.2473 24.308 17.2921 24.5319C17.3368 24.7445 17.46 24.9292 17.6615 25.086V25.1699C17.4936 25.1475 17.3312 25.1307 17.1745 25.1195C17.0178 25.0972 16.8611 25.086 16.7044 25.086C16.5365 25.086 16.3685 25.0972 16.2006 25.1195C16.0439 25.1307 15.8872 25.1475 15.7305 25.1699V25.086C15.932 24.9292 16.0551 24.7389 16.0999 24.5151C16.1447 24.2912 16.1671 24.0561 16.1671 23.8098V20.2501C16.1671 19.1979 16.0551 18.3807 15.8312 17.7986C15.6074 17.2165 15.2827 16.9255 14.8573 16.9255C14.667 16.9255 14.4767 16.987 14.2864 17.1102C14.1073 17.2333 13.945 17.4124 13.7995 17.6475C13.6652 17.8826 13.5532 18.1736 13.4637 18.5206C13.3741 18.8676 13.3294 19.2594 13.3294 19.696V23.8098C13.3294 24.0449 13.3517 24.28 13.3965 24.5151C13.4413 24.7389 13.5644 24.9292 13.7659 25.086V25.1699C13.598 25.1475 13.4357 25.1307 13.279 25.1195C13.1223 25.0972 12.9655 25.086 12.8088 25.086C12.6409 25.086 12.473 25.0972 12.3051 25.1195C12.1484 25.1307 11.9917 25.1475 11.8349 25.1699V25.086C12.0364 24.9292 12.1596 24.7389 12.2043 24.5151C12.2491 24.2912 12.2715 24.0561 12.2715 23.8098Z" fill="var(--fill-0, #FFEAD3)"/>
<path d="M18.5088 16.8415V16.6736C18.6991 16.6624 18.8726 16.5785 19.0293 16.4217C19.1972 16.2538 19.3427 16.0579 19.4659 15.834C19.6002 15.6102 19.7065 15.3807 19.7849 15.1456C19.8744 14.9105 19.9416 14.7202 19.9864 14.5747L20.1207 14.6587V16.6736H20.8427V16.8415H20.1207V23.6083C20.1207 24.0337 20.1543 24.3304 20.2215 24.4983C20.2998 24.6662 20.4006 24.7501 20.5237 24.7501C20.6692 24.7501 20.7924 24.6718 20.8931 24.5151C20.9939 24.3583 21.0498 24.1904 21.061 24.0113L21.145 24.0281C21.145 24.3863 21.0442 24.6886 20.8427 24.9348C20.6524 25.1811 20.4006 25.3042 20.0871 25.3042C19.7625 25.3042 19.5106 25.1755 19.3315 24.9181C19.1636 24.6494 19.0797 24.2912 19.0797 23.8434V16.8415H18.5088Z" fill="var(--fill-0, #FFEAD3)"/>
<path d="M21.7391 25.1699V25.086C21.8286 25.0636 21.9126 24.9908 21.991 24.8677C22.0805 24.7333 22.1253 24.4871 22.1253 24.1289V18.3527C22.1253 17.9945 22.0805 17.7538 21.991 17.6307C21.9126 17.4964 21.8286 17.418 21.7391 17.3956V17.3117C21.9294 17.3117 22.1701 17.2725 22.4611 17.1941C22.7522 17.1158 22.9592 16.9982 23.0824 16.8415H23.1663V18.4199C23.2671 18.0057 23.435 17.6419 23.6701 17.3285C23.9163 17.0038 24.2354 16.8415 24.6272 16.8415C24.9518 16.8415 25.2372 16.9646 25.4835 17.2109C25.741 17.446 25.8697 17.7482 25.8697 18.1176L24.7951 18.1848C24.7503 17.9273 24.6663 17.7482 24.5432 17.6475C24.4201 17.5355 24.2913 17.4796 24.157 17.4796C23.9779 17.4796 23.8212 17.5691 23.6869 17.7482C23.5637 17.9161 23.463 18.1176 23.3846 18.3527C23.3063 18.5766 23.2503 18.8061 23.2167 19.0412C23.1831 19.2762 23.1663 19.4553 23.1663 19.5785V24.1289C23.1663 24.4871 23.2055 24.7333 23.2839 24.8677C23.3734 24.9908 23.463 25.0636 23.5525 25.086V25.1699H21.7391Z" fill="var(--fill-0, #FFEAD3)"/>
<path d="M26.2137 20.9721C26.2137 20.4908 26.2696 19.9982 26.3816 19.4945C26.5047 18.9796 26.695 18.515 26.9525 18.1008C27.2099 17.6867 27.5402 17.3452 27.9432 17.0766C28.3461 16.8079 28.8331 16.6736 29.404 16.6736C29.9749 16.6736 30.4618 16.8079 30.8648 17.0766C31.2678 17.3452 31.598 17.6867 31.8555 18.1008C32.113 18.515 32.2977 18.9796 32.4096 19.4945C32.5327 19.9982 32.5943 20.4908 32.5943 20.9721C32.5943 21.4535 32.5327 21.9516 32.4096 22.4665C32.2977 22.9703 32.113 23.4348 31.8555 23.8602C31.598 24.2744 31.2678 24.6158 30.8648 24.8845C30.4618 25.1419 29.9749 25.2707 29.404 25.2707C28.8331 25.2707 28.3461 25.1419 27.9432 24.8845C27.5402 24.6158 27.2099 24.2744 26.9525 23.8602C26.695 23.4348 26.5047 22.9703 26.3816 22.4665C26.2696 21.9516 26.2137 21.4535 26.2137 20.9721ZM27.2883 20.9721C27.2883 21.3639 27.3163 21.8005 27.3723 22.2818C27.4394 22.752 27.5514 23.1998 27.7081 23.6251C27.8648 24.0393 28.0775 24.3919 28.3461 24.683C28.626 24.9628 28.9786 25.1028 29.404 25.1028C29.8294 25.1028 30.1764 24.9628 30.445 24.683C30.7249 24.3919 30.9432 24.0393 31.0999 23.6251C31.2566 23.1998 31.3629 22.752 31.4189 22.2818C31.4861 21.8005 31.5197 21.3639 31.5197 20.9721C31.5197 20.5803 31.4861 20.1494 31.4189 19.6792C31.3629 19.1979 31.2566 18.7501 31.0999 18.3359C30.9432 17.9105 30.7249 17.5579 30.445 17.2781C30.1764 16.987 29.8294 16.8415 29.404 16.8415C28.9786 16.8415 28.626 16.987 28.3461 17.2781C28.0775 17.5579 27.8648 17.9105 27.7081 18.3359C27.5514 18.7501 27.4394 19.1979 27.3723 19.6792C27.3163 20.1494 27.2883 20.5803 27.2883 20.9721Z" fill="var(--fill-0, #FFEAD3)"/>
<path d="M35.3299 16.6736C35.7777 16.6736 36.1863 16.7967 36.5557 17.043C36.9251 17.2781 37.205 17.5915 37.3953 17.9833L36.6061 18.5878C36.6061 18.3639 36.5725 18.1456 36.5053 17.9329C36.4382 17.7202 36.343 17.5355 36.2199 17.3788C36.1079 17.2109 35.968 17.0822 35.8001 16.9926C35.6434 16.8919 35.4755 16.8415 35.2964 16.8415C34.9717 16.8415 34.7031 16.9814 34.4904 17.2613C34.2889 17.5411 34.1881 17.8602 34.1881 18.2184C34.1881 18.5318 34.2665 18.8061 34.4232 19.0412C34.5799 19.2762 34.7758 19.5001 35.0109 19.7128C35.246 19.9255 35.5035 20.1326 35.7833 20.3341C36.0632 20.5356 36.3206 20.765 36.5557 21.0225C36.7908 21.2688 36.9867 21.5486 37.1434 21.8621C37.3001 22.1643 37.3785 22.5281 37.3785 22.9535C37.3785 23.3005 37.3225 23.6195 37.2106 23.9106C37.0986 24.1904 36.9419 24.4367 36.7404 24.6494C36.5389 24.8509 36.3038 25.0076 36.0352 25.1195C35.7777 25.2315 35.4979 25.2875 35.1956 25.2875C34.8486 25.2875 34.5296 25.2147 34.2385 25.0692C33.9475 24.9236 33.662 24.7166 33.3822 24.4479V22.0971H33.5501C33.5725 22.5337 33.6396 22.9367 33.7516 23.3061C33.8635 23.6755 33.9978 23.9945 34.1546 24.2632C34.3225 24.5319 34.5016 24.7445 34.6919 24.9013C34.8934 25.0468 35.0837 25.1195 35.2628 25.1195C35.4083 25.1195 35.5538 25.0748 35.6993 24.9852C35.8449 24.8845 35.9736 24.7557 36.0855 24.599C36.1975 24.4423 36.287 24.2576 36.3542 24.0449C36.4214 23.821 36.4549 23.5915 36.4549 23.3565C36.4549 22.9871 36.3766 22.668 36.2199 22.3994C36.0632 22.1195 35.8673 21.8677 35.6322 21.6438C35.3971 21.4087 35.1396 21.196 34.8598 21.0057C34.5799 20.8042 34.3225 20.5971 34.0874 20.3844C33.8523 20.1606 33.6564 19.9199 33.4997 19.6624C33.343 19.3938 33.2646 19.0859 33.2646 18.7389C33.2646 18.4814 33.3094 18.2296 33.399 17.9833C33.4997 17.737 33.6396 17.5188 33.8187 17.3285C33.9978 17.127 34.2161 16.9702 34.4736 16.8583C34.7311 16.7352 35.0165 16.6736 35.3299 16.6736Z" fill="var(--fill-0, #FFEAD3)"/>
<path d="M38.1531 29.4349C38.2426 29.4125 38.3266 29.3341 38.405 29.1998C38.4945 29.0767 38.5393 28.836 38.5393 28.4778V18.3527C38.5393 17.9945 38.4945 17.7538 38.405 17.6307C38.3266 17.4964 38.2426 17.418 38.1531 17.3956V17.3117C38.3434 17.3117 38.5841 17.2725 38.8751 17.1941C39.1662 17.1158 39.3732 16.9982 39.4964 16.8415H39.5803V18.2352C39.6475 18.0337 39.737 17.8434 39.849 17.6643C39.9721 17.474 40.112 17.3061 40.2688 17.1605C40.4367 17.015 40.6214 16.8975 40.8229 16.8079C41.0356 16.7184 41.2762 16.6736 41.5449 16.6736C41.9143 16.6736 42.2557 16.7688 42.5692 16.9591C42.8826 17.1382 43.1568 17.4012 43.3919 17.7482C43.627 18.0953 43.8061 18.5206 43.9292 19.0244C44.0636 19.5169 44.1307 20.0766 44.1307 20.7035C44.1307 21.3751 44.058 21.9908 43.9124 22.5505C43.7669 23.1102 43.5598 23.5916 43.2912 23.9945C43.0337 24.3975 42.7259 24.711 42.3677 24.9348C42.0206 25.1587 41.64 25.2707 41.2259 25.2707C40.3975 25.2707 39.849 24.8117 39.5803 23.8938V28.4778C39.5803 28.836 39.6195 29.0767 39.6979 29.1998C39.7874 29.3341 39.877 29.4125 39.9665 29.4349V29.5188H38.1531V29.4349ZM39.5803 22.2483C39.5803 23.1438 39.7035 23.8378 39.9497 24.3304C40.2072 24.8117 40.5598 25.0524 41.0076 25.0524C41.3098 25.0524 41.5841 24.946 41.8303 24.7333C42.0878 24.5095 42.3061 24.2072 42.4852 23.8266C42.6755 23.4348 42.821 22.9815 42.9218 22.4665C43.0225 21.9404 43.0729 21.3751 43.0729 20.7706C43.0729 20.2221 43.0281 19.7184 42.9386 19.2594C42.8602 18.8005 42.7427 18.4087 42.5859 18.0841C42.4292 17.7594 42.2389 17.5076 42.015 17.3285C41.7912 17.1382 41.5393 17.043 41.2594 17.043C41.0244 17.043 40.8061 17.1046 40.6046 17.2277C40.4031 17.3508 40.224 17.5132 40.0673 17.7147C39.9218 17.905 39.8042 18.1288 39.7147 18.3863C39.6251 18.6326 39.5803 18.89 39.5803 19.1587V22.2483Z" fill="var(--fill-0, #FFEAD3)"/>
<path d="M47.428 16.6568C47.775 16.6568 48.0884 16.7296 48.3683 16.8751C48.6593 17.0094 48.9 17.1829 49.0903 17.3956C49.2918 17.5971 49.4373 17.821 49.5269 18.0673C49.6164 18.3023 49.6332 18.5262 49.5772 18.7389C49.5324 18.9404 49.4037 19.1139 49.191 19.2594C48.9895 19.3938 48.6929 19.4609 48.3011 19.4609H45.9335C45.9112 19.6736 45.8944 19.8863 45.8832 20.099C45.872 20.3117 45.8664 20.5132 45.8664 20.7035C45.8664 21.196 45.8944 21.6886 45.9503 22.1811C46.0175 22.6736 46.1182 23.1158 46.2526 23.5076C46.3981 23.8994 46.5828 24.2184 46.8067 24.4647C47.0306 24.711 47.2992 24.8341 47.6127 24.8341C47.8477 24.8341 48.0548 24.7669 48.2339 24.6326C48.413 24.4983 48.5698 24.3304 48.7041 24.1289C48.8384 23.9274 48.9504 23.7091 49.0399 23.474C49.1407 23.2277 49.2134 23.0039 49.2582 22.8024C49.3142 22.5897 49.3477 22.405 49.3589 22.2483C49.3813 22.0915 49.3869 22.002 49.3757 21.9796H49.5436C49.5548 22.0132 49.5492 22.1195 49.5269 22.2986C49.5157 22.4777 49.4821 22.6904 49.4261 22.9367C49.3701 23.183 49.2862 23.446 49.1742 23.7259C49.0735 24.0057 48.9392 24.2688 48.7712 24.5151C48.6033 24.7501 48.3906 24.946 48.1332 25.1028C47.8869 25.2595 47.5903 25.3378 47.2433 25.3378C46.7955 25.3378 46.4149 25.2091 46.1015 24.9516C45.7992 24.683 45.5529 24.3416 45.3626 23.9274C45.1724 23.502 45.0324 23.0318 44.9429 22.5169C44.8533 22.002 44.8085 21.4871 44.8085 20.9721C44.8085 20.5356 44.8533 20.0654 44.9429 19.5617C45.0324 19.0467 45.1779 18.5766 45.3794 18.1512C45.5921 17.7258 45.8664 17.3732 46.2022 17.0934C46.538 16.8023 46.9466 16.6568 47.428 16.6568ZM48.0996 19.293C48.2451 19.293 48.3515 19.2315 48.4186 19.1083C48.497 18.9852 48.5418 18.8341 48.553 18.655C48.5754 18.4759 48.5642 18.28 48.5194 18.0673C48.4858 17.8546 48.4186 17.6587 48.3179 17.4796C48.2283 17.3005 48.1052 17.1493 47.9485 17.0262C47.803 16.9031 47.6351 16.8415 47.4448 16.8415C47.1985 16.8415 46.9914 16.9311 46.8235 17.1102C46.6556 17.2893 46.51 17.5076 46.3869 17.765C46.275 18.0225 46.1854 18.2911 46.1182 18.571C46.0511 18.8509 46.0007 19.0915 45.9671 19.293H48.0996Z" fill="var(--fill-0, #FFEAD3)"/>
<path d="M50.2853 20.9721C50.2853 20.3117 50.3469 19.7184 50.47 19.1923C50.6044 18.655 50.7891 18.2016 51.0241 17.8322C51.2592 17.4628 51.5391 17.1773 51.8637 16.9758C52.1883 16.7743 52.5465 16.6736 52.9383 16.6736C53.3861 16.6736 53.7947 16.7967 54.1641 17.043C54.5335 17.2781 54.8133 17.5915 55.0036 17.9833L54.2145 18.5878C54.2145 18.3639 54.1809 18.1456 54.1137 17.9329C54.0466 17.7202 53.9514 17.5355 53.8283 17.3788C53.7163 17.2109 53.582 17.0822 53.4253 16.9926C53.2686 16.8919 53.1063 16.8415 52.9383 16.8415C52.7033 16.8415 52.485 16.9367 52.2835 17.127C52.0932 17.3061 51.9253 17.5691 51.7797 17.9161C51.6454 18.252 51.5391 18.6606 51.4607 19.1419C51.3824 19.6121 51.3432 20.1326 51.3432 20.7035C51.3432 21.196 51.3712 21.6886 51.4271 22.1811C51.4943 22.6736 51.595 23.1158 51.7294 23.5076C51.8749 23.8994 52.0596 24.2184 52.2835 24.4647C52.5074 24.711 52.776 24.8341 53.0895 24.8341C53.3245 24.8341 53.5316 24.7669 53.7107 24.6326C53.8898 24.4983 54.0466 24.3304 54.1809 24.1289C54.3152 23.9274 54.4272 23.7091 54.5167 23.474C54.6175 23.2277 54.6902 23.0039 54.735 22.8024C54.791 22.5897 54.8245 22.405 54.8357 22.2483C54.8581 22.0915 54.8637 22.002 54.8525 21.9796H55.0204C55.0316 22.0132 55.026 22.1195 55.0036 22.2986C54.9925 22.4777 54.9589 22.6904 54.9029 22.9367C54.8469 23.183 54.763 23.446 54.651 23.7259C54.5503 24.0057 54.416 24.2688 54.248 24.5151C54.0801 24.7501 53.8674 24.946 53.61 25.1028C53.3637 25.2595 53.0671 25.3378 52.7201 25.3378C52.2723 25.3378 51.8917 25.2091 51.5783 24.9516C51.276 24.683 51.0297 24.3416 50.8394 23.9274C50.6491 23.502 50.5092 23.0318 50.4197 22.5169C50.3301 22.002 50.2853 21.4871 50.2853 20.9721Z" fill="var(--fill-0, #FFEAD3)"/>
<path d="M55.7805 16.8415V16.6736C55.9708 16.6624 56.1443 16.5785 56.301 16.4217C56.4689 16.2538 56.6145 16.0579 56.7376 15.834C56.8719 15.6102 56.9783 15.3807 57.0566 15.1456C57.1462 14.9105 57.2133 14.7202 57.2581 14.5747L57.3925 14.6587V16.6736H58.1145V16.8415H57.3925V23.6083C57.3925 24.0337 57.426 24.3304 57.4932 24.4983C57.5716 24.6662 57.6723 24.7501 57.7954 24.7501C57.941 24.7501 58.0641 24.6718 58.1648 24.5151C58.2656 24.3583 58.3216 24.1904 58.3328 24.0113L58.4167 24.0281C58.4167 24.3863 58.316 24.6886 58.1145 24.9348C57.9242 25.1811 57.6723 25.3042 57.3589 25.3042C57.0342 25.3042 56.7824 25.1755 56.6033 24.9181C56.4354 24.6494 56.3514 24.2912 56.3514 23.8434V16.8415H55.7805Z" fill="var(--fill-0, #FFEAD3)"/>
<path d="M59.0108 25.1195C59.2123 25.0076 59.3355 24.8733 59.3802 24.7166C59.425 24.5598 59.4474 24.3975 59.4474 24.2296V17.8154C59.4474 17.4572 59.4026 17.2165 59.3131 17.0934C59.2347 16.9591 59.1508 16.8807 59.0612 16.8583V16.7743C59.1508 16.7743 59.2627 16.7632 59.397 16.7408C59.5313 16.7184 59.6601 16.6904 59.7832 16.6568C59.9175 16.612 60.0407 16.5617 60.1526 16.5057C60.2758 16.4497 60.3653 16.3826 60.4213 16.3042H60.5052V24.196C60.5052 24.3639 60.5276 24.5319 60.5724 24.6998C60.6172 24.8677 60.7403 25.002 60.9418 25.1028V25.1699C60.7739 25.1475 60.6116 25.1307 60.4549 25.1195C60.2981 25.0972 60.1414 25.086 59.9847 25.086C59.8168 25.086 59.6489 25.0972 59.481 25.1195C59.3243 25.1307 59.1675 25.1475 59.0108 25.1699V25.1195ZM59.2123 14.709C59.2123 14.4963 59.2683 14.3061 59.3802 14.1381C59.5034 13.959 59.6825 13.8695 59.9175 13.8695C60.1414 13.8695 60.3093 13.9534 60.4213 14.1213C60.5444 14.2893 60.606 14.4796 60.606 14.6922C60.606 14.9049 60.5444 15.0952 60.4213 15.2631C60.3093 15.4311 60.1358 15.515 59.9008 15.515C59.6657 15.515 59.4922 15.4311 59.3802 15.2631C59.2683 15.0952 59.2123 14.9105 59.2123 14.709Z" fill="var(--fill-0, #FFEAD3)"/>
<path d="M61.6981 20.9721C61.6981 20.4908 61.754 19.9982 61.866 19.4945C61.9891 18.9796 62.1794 18.515 62.4369 18.1008C62.6943 17.6867 63.0246 17.3452 63.4276 17.0766C63.8305 16.8079 64.3175 16.6736 64.8884 16.6736C65.4593 16.6736 65.9462 16.8079 66.3492 17.0766C66.7522 17.3452 67.0824 17.6867 67.3399 18.1008C67.5973 18.515 67.7821 18.9796 67.894 19.4945C68.0171 19.9982 68.0787 20.4908 68.0787 20.9721C68.0787 21.4535 68.0171 21.9516 67.894 22.4665C67.7821 22.9703 67.5973 23.4348 67.3399 23.8602C67.0824 24.2744 66.7522 24.6158 66.3492 24.8845C65.9462 25.1419 65.4593 25.2707 64.8884 25.2707C64.3175 25.2707 63.8305 25.1419 63.4276 24.8845C63.0246 24.6158 62.6943 24.2744 62.4369 23.8602C62.1794 23.4348 61.9891 22.9703 61.866 22.4665C61.754 21.9516 61.6981 21.4535 61.6981 20.9721ZM62.7727 20.9721C62.7727 21.3639 62.8007 21.8005 62.8567 22.2818C62.9238 22.752 63.0358 23.1998 63.1925 23.6251C63.3492 24.0393 63.5619 24.3919 63.8305 24.683C64.1104 24.9628 64.463 25.1028 64.8884 25.1028C65.3138 25.1028 65.6608 24.9628 65.9294 24.683C66.2093 24.3919 66.4276 24.0393 66.5843 23.6251C66.741 23.1998 66.8473 22.752 66.9033 22.2818C66.9705 21.8005 67.0041 21.3639 67.0041 20.9721C67.0041 20.5803 66.9705 20.1494 66.9033 19.6792C66.8473 19.1979 66.741 18.7501 66.5843 18.3359C66.4276 17.9105 66.2093 17.5579 65.9294 17.2781C65.6608 16.987 65.3138 16.8415 64.8884 16.8415C64.463 16.8415 64.1104 16.987 63.8305 17.2781C63.5619 17.5579 63.3492 17.9105 63.1925 18.3359C63.0358 18.7501 62.9238 19.1979 62.8567 19.6792C62.8007 20.1494 62.7727 20.5803 62.7727 20.9721Z" fill="var(--fill-0, #FFEAD3)"/>
<path d="M69.2696 23.8098V18.3527C69.2696 17.9945 69.2248 17.7538 69.1352 17.6307C69.0569 17.4964 68.9729 17.418 68.8834 17.3956V17.3117C68.9729 17.3117 69.0849 17.3005 69.2192 17.2781C69.3535 17.2557 69.4822 17.2277 69.6054 17.1941C69.7397 17.1494 69.8628 17.099 69.9748 17.043C70.0979 16.987 70.1875 16.9199 70.2434 16.8415H70.3274V18.4031C70.4729 17.8322 70.708 17.4012 71.0326 17.1102C71.3573 16.8191 71.7323 16.6736 72.1576 16.6736C72.7957 16.6736 73.2994 16.9926 73.6688 17.6307C74.0382 18.2576 74.2229 19.1139 74.2229 20.1997V23.8434C74.2229 24.0785 74.2453 24.308 74.2901 24.5319C74.3349 24.7445 74.458 24.9292 74.6595 25.086V25.1699C74.4916 25.1475 74.3293 25.1307 74.1726 25.1195C74.0159 25.0972 73.8591 25.086 73.7024 25.086C73.5345 25.086 73.3666 25.0972 73.1987 25.1195C73.042 25.1307 72.8852 25.1475 72.7285 25.1699V25.086C72.93 24.9292 73.0532 24.7389 73.0979 24.5151C73.1427 24.2912 73.1651 24.0561 73.1651 23.8098V20.2501C73.1651 19.1979 73.0532 18.3807 72.8293 17.7986C72.6054 17.2165 72.2808 16.9255 71.8554 16.9255C71.6651 16.9255 71.4748 16.987 71.2845 17.1102C71.1054 17.2333 70.9431 17.4124 70.7976 17.6475C70.6632 17.8826 70.5513 18.1736 70.4617 18.5206C70.3722 18.8676 70.3274 19.2594 70.3274 19.696V23.8098C70.3274 24.0449 70.3498 24.28 70.3946 24.5151C70.4393 24.7389 70.5625 24.9292 70.764 25.086V25.1699C70.5961 25.1475 70.4337 25.1307 70.277 25.1195C70.1203 25.0972 69.9636 25.086 69.8069 25.086C69.639 25.086 69.4711 25.0972 69.3031 25.1195C69.1464 25.1307 68.9897 25.1475 68.833 25.1699V25.086C69.0345 24.9292 69.1576 24.7389 69.2024 24.5151C69.2472 24.2912 69.2696 24.0561 69.2696 23.8098Z" fill="var(--fill-0, #FFEAD3)"/>
<path d="M16.7788 11.8929C16.9803 11.7362 17.1034 11.5459 17.1482 11.322C17.193 11.0981 17.2154 10.8631 17.2154 10.6168V0.827564C17.2154 0.5701 17.0755 0.402188 16.7956 0.32383V0.239873H18.3236L21.027 10.4489L23.7471 0.239873H25.2248V0.32383C24.9449 0.402188 24.805 0.5701 24.805 0.827564V10.6504C24.805 10.8855 24.8274 11.1149 24.8721 11.3388C24.9169 11.5515 25.0401 11.7362 25.2416 11.8929V11.9769C25.0736 11.9545 24.9113 11.9377 24.7546 11.9265C24.5979 11.9041 24.4412 11.8929 24.2845 11.8929C24.1165 11.8929 23.9486 11.9041 23.7807 11.9265C23.624 11.9377 23.4673 11.9545 23.3106 11.9769V11.8929C23.5121 11.7362 23.6352 11.5459 23.68 11.322C23.7248 11.0981 23.7471 10.8631 23.7471 10.6168V0.92831L20.7919 11.9769H20.3385L17.4001 0.92831V10.6168C17.4001 10.8519 17.4225 11.0869 17.4673 11.322C17.512 11.5459 17.6352 11.7362 17.8367 11.8929V11.9769C17.6687 11.9545 17.54 11.9377 17.4505 11.9265C17.3721 11.9041 17.2993 11.8929 17.2322 11.8929C17.0755 11.8929 16.9243 11.9209 16.7788 11.9769V11.8929Z" stroke="var(--stroke-0, #FFEAD3)" stroke-width="0.479747" mask="url(#path-1-outside-1_9_135)"/>
<path d="M25.9923 7.7791C25.9923 7.29775 26.0483 6.80521 26.1602 6.30147C26.2833 5.78655 26.4736 5.32199 26.7311 4.90781C26.9886 4.49363 27.3188 4.15221 27.7218 3.88355C28.1248 3.61489 28.6117 3.48056 29.1826 3.48056C29.7535 3.48056 30.2405 3.61489 30.6434 3.88355C31.0464 4.15221 31.3767 4.49363 31.6341 4.90781C31.8916 5.32199 32.0763 5.78655 32.1882 6.30147C32.3114 6.80521 32.3729 7.29775 32.3729 7.7791C32.3729 8.26044 32.3114 8.75858 32.1882 9.27351C32.0763 9.77724 31.8916 10.2418 31.6341 10.6672C31.3767 11.0814 31.0464 11.4228 30.6434 11.6914C30.2405 11.9489 29.7535 12.0776 29.1826 12.0776C28.6117 12.0776 28.1248 11.9489 27.7218 11.6914C27.3188 11.4228 26.9886 11.0814 26.7311 10.6672C26.4736 10.2418 26.2833 9.77724 26.1602 9.27351C26.0483 8.75858 25.9923 8.26044 25.9923 7.7791ZM27.0669 7.7791C27.0669 8.17089 27.0949 8.60746 27.1509 9.0888C27.2181 9.55896 27.33 10.0067 27.4867 10.4321C27.6434 10.8463 27.8561 11.1989 28.1248 11.4899C28.4046 11.7698 28.7572 11.9097 29.1826 11.9097C29.608 11.9097 29.955 11.7698 30.2237 11.4899C30.5035 11.1989 30.7218 10.8463 30.8785 10.4321C31.0352 10.0067 31.1416 9.55896 31.1976 9.0888C31.2647 8.60746 31.2983 8.17089 31.2983 7.7791C31.2983 7.3873 31.2647 6.95633 31.1976 6.48618C31.1416 6.00483 31.0352 5.55707 30.8785 5.14289C30.7218 4.71751 30.5035 4.3649 30.2237 4.08504C29.955 3.794 29.608 3.64848 29.1826 3.64848C28.7572 3.64848 28.4046 3.794 28.1248 4.08504C27.8561 4.3649 27.6434 4.71751 27.4867 5.14289C27.33 5.55707 27.2181 6.00483 27.1509 6.48618C27.0949 6.95633 27.0669 7.3873 27.0669 7.7791Z" stroke="var(--stroke-0, #FFEAD3)" stroke-width="0.479747" mask="url(#path-1-outside-1_9_135)"/>
<path d="M33.5638 10.6168V5.15968C33.5638 4.80147 33.519 4.56079 33.4295 4.43766C33.3511 4.30333 33.2671 4.22497 33.1776 4.20258V4.11863C33.2671 4.11863 33.3791 4.10743 33.5134 4.08504C33.6477 4.06266 33.7765 4.03467 33.8996 4.00109C34.0339 3.95631 34.1571 3.90594 34.269 3.84997C34.3922 3.794 34.4817 3.72683 34.5377 3.64848H34.6216V5.21005C34.7672 4.63915 35.0022 4.20818 35.3269 3.91713C35.6515 3.62609 36.0265 3.48056 36.4519 3.48056C36.9556 3.48056 37.3698 3.67646 37.6944 4.06825C38.0302 4.46005 38.2653 5.00856 38.3996 5.71379C38.4892 4.97498 38.7131 4.42087 39.0713 4.05146C39.4295 3.67086 39.8493 3.48056 40.3306 3.48056C40.9687 3.48056 41.4724 3.7996 41.8418 4.43766C42.2112 5.06453 42.3959 5.92088 42.3959 7.0067V10.6504C42.3959 10.8855 42.4183 11.1149 42.4631 11.3388C42.5079 11.5515 42.631 11.7362 42.8325 11.8929V11.9769C42.6646 11.9545 42.5023 11.9377 42.3456 11.9265C42.1888 11.9041 42.0321 11.8929 41.8754 11.8929C41.7075 11.8929 41.5396 11.9041 41.3717 11.9265C41.215 11.9377 41.0582 11.9545 40.9015 11.9769V11.8929C41.103 11.7362 41.2261 11.5459 41.2709 11.322C41.3157 11.0981 41.3381 10.8631 41.3381 10.6168V7.05708C41.3381 6.00483 41.2261 5.18766 41.0023 4.60557C40.7784 4.02348 40.4538 3.73243 40.0284 3.73243C39.8381 3.73243 39.6478 3.794 39.4575 3.91713C39.2784 4.04027 39.1161 4.21937 38.9705 4.45445C38.8362 4.68953 38.7243 4.98057 38.6347 5.32759C38.5452 5.66341 38.5004 6.04961 38.5004 6.48618C38.5116 6.57573 38.5172 6.66528 38.5172 6.75484C38.5172 6.83319 38.5172 6.91715 38.5172 7.0067V10.6504C38.5172 10.8855 38.5396 11.1149 38.5843 11.3388C38.6291 11.5515 38.7523 11.7362 38.9537 11.8929V11.9769C38.7858 11.9545 38.6235 11.9377 38.4668 11.9265C38.3101 11.9041 38.1534 11.8929 37.9967 11.8929C37.8287 11.8929 37.6608 11.9041 37.4929 11.9265C37.3362 11.9377 37.1795 11.9545 37.0228 11.9769V11.8929C37.2243 11.7362 37.3474 11.5459 37.3922 11.322C37.4369 11.0981 37.4593 10.8631 37.4593 10.6168V7.05708C37.4593 6.00483 37.3474 5.18766 37.1235 4.60557C36.8996 4.02348 36.575 3.73243 36.1496 3.73243C35.9593 3.73243 35.769 3.794 35.5787 3.91713C35.3996 4.04027 35.2373 4.21937 35.0918 4.45445C34.9575 4.68953 34.8455 4.98057 34.756 5.32759C34.6664 5.67461 34.6216 6.0664 34.6216 6.50297V10.6168C34.6216 10.8519 34.644 11.0869 34.6888 11.322C34.7336 11.5459 34.8567 11.7362 35.0582 11.8929V11.9769C34.8903 11.9545 34.728 11.9377 34.5713 11.9265C34.4145 11.9041 34.2578 11.8929 34.1011 11.8929C33.9332 11.8929 33.7653 11.9041 33.5974 11.9265C33.4407 11.9377 33.2839 11.9545 33.1272 11.9769V11.8929C33.3287 11.7362 33.4518 11.5459 33.4966 11.322C33.5414 11.0981 33.5638 10.8631 33.5638 10.6168Z" stroke="var(--stroke-0, #FFEAD3)" stroke-width="0.479747" mask="url(#path-1-outside-1_9_135)"/>
<path d="M46.2063 3.46377C46.5534 3.46377 46.8668 3.53653 47.1466 3.68206C47.4377 3.81639 47.6784 3.98989 47.8687 4.20258C48.0702 4.40408 48.2157 4.62796 48.3052 4.87423C48.3948 5.1093 48.4116 5.33319 48.3556 5.54587C48.3108 5.74737 48.1821 5.92088 47.9694 6.0664C47.7679 6.20073 47.4713 6.26789 47.0795 6.26789H44.7119C44.6895 6.48058 44.6727 6.69327 44.6616 6.90596C44.6504 7.11864 44.6448 7.32014 44.6448 7.51044C44.6448 8.00298 44.6727 8.49552 44.7287 8.98806C44.7959 9.4806 44.8966 9.92276 45.031 10.3146C45.1765 10.7064 45.3612 11.0254 45.5851 11.2717C45.8089 11.5179 46.0776 11.6411 46.391 11.6411C46.6261 11.6411 46.8332 11.5739 47.0123 11.4396C47.1914 11.3052 47.3481 11.1373 47.4825 10.9358C47.6168 10.7343 47.7287 10.5161 47.8183 10.281C47.919 10.0347 47.9918 9.81082 48.0366 9.60933C48.0925 9.39664 48.1261 9.21194 48.1373 9.05522C48.1597 8.8985 48.1653 8.80895 48.1541 8.78656H48.322C48.3332 8.82015 48.3276 8.92649 48.3052 9.1056C48.294 9.2847 48.2605 9.49739 48.2045 9.74366C48.1485 9.98993 48.0646 10.253 47.9526 10.5328C47.8519 10.8127 47.7175 11.0758 47.5496 11.322C47.3817 11.5571 47.169 11.753 46.9116 11.9097C46.6653 12.0664 46.3686 12.1448 46.0216 12.1448C45.5739 12.1448 45.1933 12.0161 44.8798 11.7586C44.5776 11.4899 44.3313 11.1485 44.141 10.7343C43.9507 10.309 43.8108 9.83881 43.7212 9.32388C43.6317 8.80895 43.5869 8.29402 43.5869 7.7791C43.5869 7.34253 43.6317 6.87237 43.7212 6.36864C43.8108 5.85371 43.9563 5.38356 44.1578 4.95818C44.3705 4.53281 44.6448 4.18019 44.9806 3.90034C45.3164 3.6093 45.725 3.46377 46.2063 3.46377ZM46.878 6.09998C47.0235 6.09998 47.1298 6.03841 47.197 5.91528C47.2754 5.79214 47.3202 5.64102 47.3313 5.46192C47.3537 5.28281 47.3425 5.08692 47.2978 4.87423C47.2642 4.66154 47.197 4.46564 47.0963 4.28654C47.0067 4.10743 46.8836 3.95631 46.7269 3.83318C46.5813 3.71004 46.4134 3.64848 46.2231 3.64848C45.9769 3.64848 45.7698 3.73803 45.6019 3.91713C45.4339 4.09624 45.2884 4.31452 45.1653 4.57199C45.0533 4.82945 44.9638 5.09811 44.8966 5.37796C44.8295 5.65781 44.7791 5.89849 44.7455 6.09998H46.878Z" stroke="var(--stroke-0, #FFEAD3)" stroke-width="0.479747" mask="url(#path-1-outside-1_9_135)"/>
<path d="M49.5842 10.6168V5.15968C49.5842 4.80147 49.5395 4.56079 49.4499 4.43766C49.3716 4.30333 49.2876 4.22497 49.198 4.20258V4.11863C49.2876 4.11863 49.3995 4.10743 49.5339 4.08504C49.6682 4.06266 49.7969 4.03467 49.9201 4.00109C50.0544 3.95631 50.1775 3.90594 50.2895 3.84997C50.4126 3.794 50.5022 3.72683 50.5581 3.64848H50.6421V5.21005C50.7876 4.63915 51.0227 4.20818 51.3473 3.91713C51.6719 3.62609 52.0469 3.48056 52.4723 3.48056C53.1104 3.48056 53.6141 3.7996 53.9835 4.43766C54.3529 5.06453 54.5376 5.92088 54.5376 7.0067V10.6504C54.5376 10.8855 54.56 11.1149 54.6048 11.3388C54.6496 11.5515 54.7727 11.7362 54.9742 11.8929V11.9769C54.8063 11.9545 54.644 11.9377 54.4873 11.9265C54.3305 11.9041 54.1738 11.8929 54.0171 11.8929C53.8492 11.8929 53.6813 11.9041 53.5134 11.9265C53.3566 11.9377 53.1999 11.9545 53.0432 11.9769V11.8929C53.2447 11.7362 53.3678 11.5459 53.4126 11.322C53.4574 11.0981 53.4798 10.8631 53.4798 10.6168V7.05708C53.4798 6.00483 53.3678 5.18766 53.144 4.60557C52.9201 4.02348 52.5955 3.73243 52.1701 3.73243C51.9798 3.73243 51.7895 3.794 51.5992 3.91713C51.4201 4.04027 51.2578 4.21937 51.1122 4.45445C50.9779 4.68953 50.866 4.98057 50.7764 5.32759C50.6869 5.67461 50.6421 6.0664 50.6421 6.50297V10.6168C50.6421 10.8519 50.6645 11.0869 50.7093 11.322C50.754 11.5459 50.8772 11.7362 51.0787 11.8929V11.9769C50.9107 11.9545 50.7484 11.9377 50.5917 11.9265C50.435 11.9041 50.2783 11.8929 50.1216 11.8929C49.9536 11.8929 49.7857 11.9041 49.6178 11.9265C49.4611 11.9377 49.3044 11.9545 49.1477 11.9769V11.8929C49.3492 11.7362 49.4723 11.5459 49.5171 11.322C49.5619 11.0981 49.5842 10.8631 49.5842 10.6168Z" stroke="var(--stroke-0, #FFEAD3)" stroke-width="0.479747" mask="url(#path-1-outside-1_9_135)"/>
<path d="M55.8215 3.64848V3.48056C56.0118 3.46937 56.1853 3.38541 56.342 3.2287C56.5099 3.06079 56.6555 2.86489 56.7786 2.64101C56.9129 2.41712 57.0193 2.18765 57.0976 1.95257C57.1872 1.71749 57.2543 1.52719 57.2991 1.38167L57.4334 1.46563V3.48056H58.1555V3.64848H57.4334V10.4153C57.4334 10.8407 57.467 11.1373 57.5342 11.3052C57.6126 11.4731 57.7133 11.5571 57.8364 11.5571C57.982 11.5571 58.1051 11.4787 58.2058 11.322C58.3066 11.1653 58.3626 10.9974 58.3737 10.8183L58.4577 10.8351C58.4577 11.1933 58.357 11.4955 58.1555 11.7418C57.9652 11.9881 57.7133 12.1112 57.3999 12.1112C57.0752 12.1112 56.8234 11.9825 56.6443 11.725C56.4763 11.4564 56.3924 11.0981 56.3924 10.6504V3.64848H55.8215Z" stroke="var(--stroke-0, #FFEAD3)" stroke-width="0.479747" mask="url(#path-1-outside-1_9_135)"/>
<path d="M3.11116 16.6736C3.96191 16.6736 4.52161 17.1326 4.79027 18.0505V14.474C4.79027 14.1158 4.7455 13.8751 4.65594 13.7519C4.57758 13.6176 4.49363 13.5393 4.40408 13.5169V13.4329C4.59438 13.4329 4.83505 13.3937 5.1261 13.3154C5.41714 13.237 5.62423 13.1195 5.74737 12.9628H5.83132V24.1289C5.83132 24.4871 5.8705 24.7333 5.94886 24.8677C6.03841 24.9908 6.12797 25.0636 6.21752 25.086V25.1699H4.79027V23.7091C4.72311 23.9106 4.62796 24.1065 4.50482 24.2968C4.39288 24.4759 4.25855 24.6382 4.10184 24.7837C3.94512 24.9292 3.76042 25.0468 3.54773 25.1363C3.33504 25.2259 3.09996 25.2707 2.8425 25.2707C2.40593 25.2707 2.01973 25.1475 1.68391 24.9013C1.35928 24.655 1.09062 24.336 0.877937 23.9442C0.665249 23.5412 0.502935 23.099 0.390994 22.6177C0.290247 22.1251 0.239873 21.6438 0.239873 21.1736C0.239873 20.6811 0.295844 20.1718 0.407785 19.6456C0.53092 19.1083 0.710025 18.6214 0.945101 18.1848C1.18018 17.7482 1.47682 17.39 1.83503 17.1102C2.19324 16.8191 2.61862 16.6736 3.11116 16.6736ZM3.06078 24.9013C3.30705 24.9013 3.53094 24.8397 3.73243 24.7166C3.94512 24.5934 4.12982 24.4367 4.28654 24.2464C4.44326 24.0449 4.56639 23.821 4.65594 23.5748C4.7455 23.3173 4.79027 23.0542 4.79027 22.7856V19.696C4.79027 18.8005 4.66154 18.112 4.40408 17.6307C4.14661 17.1382 3.77721 16.8919 3.29586 16.8919C2.90407 16.8919 2.57944 17.043 2.32197 17.3452C2.06451 17.6475 1.85742 18.0225 1.7007 18.4703C1.55518 18.918 1.44884 19.3882 1.38167 19.8807C1.3257 20.3732 1.29772 20.8154 1.29772 21.2072C1.29772 21.4871 1.31451 21.8397 1.34809 22.2651C1.39286 22.6904 1.47682 23.099 1.59996 23.4908C1.73428 23.8714 1.91339 24.2016 2.13727 24.4815C2.37235 24.7613 2.68019 24.9013 3.06078 24.9013Z" stroke="var(--stroke-0, #FFEAD3)" stroke-width="0.479747" mask="url(#path-1-outside-1_9_135)"/>
<path d="M7.06324 15.2799L7.41585 13.5672C7.43824 13.4217 7.48862 13.321 7.56698 13.265C7.64533 13.1978 7.72929 13.1643 7.81884 13.1643C7.94198 13.1643 8.04832 13.2146 8.13787 13.3154C8.22743 13.4161 8.23862 13.5393 8.17146 13.6848L7.39906 15.2799H7.06324Z" stroke="var(--stroke-0, #FFEAD3)" stroke-width="0.479747" mask="url(#path-1-outside-1_9_135)"/>
<path d="M9.06375 25.1195C9.26524 25.0076 9.38838 24.8733 9.43315 24.7166C9.47793 24.5598 9.50032 24.3975 9.50032 24.2296V17.8154C9.50032 17.4572 9.45554 17.2165 9.36599 17.0934C9.28763 16.9591 9.20367 16.8807 9.11412 16.8583V16.7743C9.20367 16.7743 9.31562 16.7632 9.44994 16.7408C9.58427 16.7184 9.71301 16.6904 9.83614 16.6568C9.97047 16.612 10.0936 16.5617 10.2055 16.5057C10.3287 16.4497 10.4182 16.3826 10.4742 16.3042H10.5582V24.196C10.5582 24.3639 10.5805 24.5319 10.6253 24.6998C10.6701 24.8677 10.7932 25.002 10.9947 25.1028V25.1699C10.8268 25.1475 10.6645 25.1307 10.5078 25.1195C10.3511 25.0972 10.1944 25.086 10.0376 25.086C9.86972 25.086 9.70181 25.0972 9.5339 25.1195C9.37718 25.1307 9.22047 25.1475 9.06375 25.1699V25.1195ZM9.26524 14.709C9.26524 14.4963 9.32121 14.3061 9.43315 14.1381C9.55629 13.959 9.73539 13.8695 9.97047 13.8695C10.1944 13.8695 10.3623 13.9534 10.4742 14.1213C10.5973 14.2893 10.6589 14.4796 10.6589 14.6922C10.6589 14.9049 10.5973 15.0952 10.4742 15.2631C10.3623 15.4311 10.1888 15.515 9.95368 15.515C9.7186 15.515 9.54509 15.4311 9.43315 15.2631C9.32121 15.0952 9.26524 14.9105 9.26524 14.709Z" stroke="var(--stroke-0, #FFEAD3)" stroke-width="0.479747" mask="url(#path-1-outside-1_9_135)"/>
<path d="M12.2715 23.8098V18.3527C12.2715 17.9945 12.2267 17.7538 12.1372 17.6307C12.0588 17.4964 11.9749 17.418 11.8853 17.3956V17.3117C11.9749 17.3117 12.0868 17.3005 12.2211 17.2781C12.3555 17.2557 12.4842 17.2277 12.6073 17.1941C12.7417 17.1494 12.8648 17.099 12.9767 17.043C13.0999 16.987 13.1894 16.9199 13.2454 16.8415H13.3294V18.4031C13.4749 17.8322 13.71 17.4012 14.0346 17.1102C14.3592 16.8191 14.7342 16.6736 15.1596 16.6736C15.7977 16.6736 16.3014 16.9926 16.6708 17.6307C17.0402 18.2576 17.2249 19.1139 17.2249 20.1997V23.8434C17.2249 24.0785 17.2473 24.308 17.2921 24.5319C17.3368 24.7445 17.46 24.9292 17.6615 25.086V25.1699C17.4936 25.1475 17.3312 25.1307 17.1745 25.1195C17.0178 25.0972 16.8611 25.086 16.7044 25.086C16.5365 25.086 16.3685 25.0972 16.2006 25.1195C16.0439 25.1307 15.8872 25.1475 15.7305 25.1699V25.086C15.932 24.9292 16.0551 24.7389 16.0999 24.5151C16.1447 24.2912 16.1671 24.0561 16.1671 23.8098V20.2501C16.1671 19.1979 16.0551 18.3807 15.8312 17.7986C15.6074 17.2165 15.2827 16.9255 14.8573 16.9255C14.667 16.9255 14.4767 16.987 14.2864 17.1102C14.1073 17.2333 13.945 17.4124 13.7995 17.6475C13.6652 17.8826 13.5532 18.1736 13.4637 18.5206C13.3741 18.8676 13.3294 19.2594 13.3294 19.696V23.8098C13.3294 24.0449 13.3517 24.28 13.3965 24.5151C13.4413 24.7389 13.5644 24.9292 13.7659 25.086V25.1699C13.598 25.1475 13.4357 25.1307 13.279 25.1195C13.1223 25.0972 12.9655 25.086 12.8088 25.086C12.6409 25.086 12.473 25.0972 12.3051 25.1195C12.1484 25.1307 11.9917 25.1475 11.8349 25.1699V25.086C12.0364 24.9292 12.1596 24.7389 12.2043 24.5151C12.2491 24.2912 12.2715 24.0561 12.2715 23.8098Z" stroke="var(--stroke-0, #FFEAD3)" stroke-width="0.479747" mask="url(#path-1-outside-1_9_135)"/>
<path d="M18.5088 16.8415V16.6736C18.6991 16.6624 18.8726 16.5785 19.0293 16.4217C19.1972 16.2538 19.3427 16.0579 19.4659 15.834C19.6002 15.6102 19.7065 15.3807 19.7849 15.1456C19.8744 14.9105 19.9416 14.7202 19.9864 14.5747L20.1207 14.6587V16.6736H20.8427V16.8415H20.1207V23.6083C20.1207 24.0337 20.1543 24.3304 20.2215 24.4983C20.2998 24.6662 20.4006 24.7501 20.5237 24.7501C20.6692 24.7501 20.7924 24.6718 20.8931 24.5151C20.9939 24.3583 21.0498 24.1904 21.061 24.0113L21.145 24.0281C21.145 24.3863 21.0442 24.6886 20.8427 24.9348C20.6524 25.1811 20.4006 25.3042 20.0871 25.3042C19.7625 25.3042 19.5106 25.1755 19.3315 24.9181C19.1636 24.6494 19.0797 24.2912 19.0797 23.8434V16.8415H18.5088Z" stroke="var(--stroke-0, #FFEAD3)" stroke-width="0.479747" mask="url(#path-1-outside-1_9_135)"/>
<path d="M21.7391 25.1699V25.086C21.8286 25.0636 21.9126 24.9908 21.991 24.8677C22.0805 24.7333 22.1253 24.4871 22.1253 24.1289V18.3527C22.1253 17.9945 22.0805 17.7538 21.991 17.6307C21.9126 17.4964 21.8286 17.418 21.7391 17.3956V17.3117C21.9294 17.3117 22.1701 17.2725 22.4611 17.1941C22.7522 17.1158 22.9592 16.9982 23.0824 16.8415H23.1663V18.4199C23.2671 18.0057 23.435 17.6419 23.6701 17.3285C23.9163 17.0038 24.2354 16.8415 24.6272 16.8415C24.9518 16.8415 25.2372 16.9646 25.4835 17.2109C25.741 17.446 25.8697 17.7482 25.8697 18.1176L24.7951 18.1848C24.7503 17.9273 24.6663 17.7482 24.5432 17.6475C24.4201 17.5355 24.2913 17.4796 24.157 17.4796C23.9779 17.4796 23.8212 17.5691 23.6869 17.7482C23.5637 17.9161 23.463 18.1176 23.3846 18.3527C23.3063 18.5766 23.2503 18.8061 23.2167 19.0412C23.1831 19.2762 23.1663 19.4553 23.1663 19.5785V24.1289C23.1663 24.4871 23.2055 24.7333 23.2839 24.8677C23.3734 24.9908 23.463 25.0636 23.5525 25.086V25.1699H21.7391Z" stroke="var(--stroke-0, #FFEAD3)" stroke-width="0.479747" mask="url(#path-1-outside-1_9_135)"/>
<path d="M26.2137 20.9721C26.2137 20.4908 26.2696 19.9982 26.3816 19.4945C26.5047 18.9796 26.695 18.515 26.9525 18.1008C27.2099 17.6867 27.5402 17.3452 27.9432 17.0766C28.3461 16.8079 28.8331 16.6736 29.404 16.6736C29.9749 16.6736 30.4618 16.8079 30.8648 17.0766C31.2678 17.3452 31.598 17.6867 31.8555 18.1008C32.113 18.515 32.2977 18.9796 32.4096 19.4945C32.5327 19.9982 32.5943 20.4908 32.5943 20.9721C32.5943 21.4535 32.5327 21.9516 32.4096 22.4665C32.2977 22.9703 32.113 23.4348 31.8555 23.8602C31.598 24.2744 31.2678 24.6158 30.8648 24.8845C30.4618 25.1419 29.9749 25.2707 29.404 25.2707C28.8331 25.2707 28.3461 25.1419 27.9432 24.8845C27.5402 24.6158 27.2099 24.2744 26.9525 23.8602C26.695 23.4348 26.5047 22.9703 26.3816 22.4665C26.2696 21.9516 26.2137 21.4535 26.2137 20.9721ZM27.2883 20.9721C27.2883 21.3639 27.3163 21.8005 27.3723 22.2818C27.4394 22.752 27.5514 23.1998 27.7081 23.6251C27.8648 24.0393 28.0775 24.3919 28.3461 24.683C28.626 24.9628 28.9786 25.1028 29.404 25.1028C29.8294 25.1028 30.1764 24.9628 30.445 24.683C30.7249 24.3919 30.9432 24.0393 31.0999 23.6251C31.2566 23.1998 31.3629 22.752 31.4189 22.2818C31.4861 21.8005 31.5197 21.3639 31.5197 20.9721C31.5197 20.5803 31.4861 20.1494 31.4189 19.6792C31.3629 19.1979 31.2566 18.7501 31.0999 18.3359C30.9432 17.9105 30.7249 17.5579 30.445 17.2781C30.1764 16.987 29.8294 16.8415 29.404 16.8415C28.9786 16.8415 28.626 16.987 28.3461 17.2781C28.0775 17.5579 27.8648 17.9105 27.7081 18.3359C27.5514 18.7501 27.4394 19.1979 27.3723 19.6792C27.3163 20.1494 27.2883 20.5803 27.2883 20.9721Z" stroke="var(--stroke-0, #FFEAD3)" stroke-width="0.479747" mask="url(#path-1-outside-1_9_135)"/>
<path d="M35.3299 16.6736C35.7777 16.6736 36.1863 16.7967 36.5557 17.043C36.9251 17.2781 37.205 17.5915 37.3953 17.9833L36.6061 18.5878C36.6061 18.3639 36.5725 18.1456 36.5053 17.9329C36.4382 17.7202 36.343 17.5355 36.2199 17.3788C36.1079 17.2109 35.968 17.0822 35.8001 16.9926C35.6434 16.8919 35.4755 16.8415 35.2964 16.8415C34.9717 16.8415 34.7031 16.9814 34.4904 17.2613C34.2889 17.5411 34.1881 17.8602 34.1881 18.2184C34.1881 18.5318 34.2665 18.8061 34.4232 19.0412C34.5799 19.2762 34.7758 19.5001 35.0109 19.7128C35.246 19.9255 35.5035 20.1326 35.7833 20.3341C36.0632 20.5356 36.3206 20.765 36.5557 21.0225C36.7908 21.2688 36.9867 21.5486 37.1434 21.8621C37.3001 22.1643 37.3785 22.5281 37.3785 22.9535C37.3785 23.3005 37.3225 23.6195 37.2106 23.9106C37.0986 24.1904 36.9419 24.4367 36.7404 24.6494C36.5389 24.8509 36.3038 25.0076 36.0352 25.1195C35.7777 25.2315 35.4979 25.2875 35.1956 25.2875C34.8486 25.2875 34.5296 25.2147 34.2385 25.0692C33.9475 24.9236 33.662 24.7166 33.3822 24.4479V22.0971H33.5501C33.5725 22.5337 33.6396 22.9367 33.7516 23.3061C33.8635 23.6755 33.9978 23.9945 34.1546 24.2632C34.3225 24.5319 34.5016 24.7445 34.6919 24.9013C34.8934 25.0468 35.0837 25.1195 35.2628 25.1195C35.4083 25.1195 35.5538 25.0748 35.6993 24.9852C35.8449 24.8845 35.9736 24.7557 36.0855 24.599C36.1975 24.4423 36.287 24.2576 36.3542 24.0449C36.4214 23.821 36.4549 23.5915 36.4549 23.3565C36.4549 22.9871 36.3766 22.668 36.2199 22.3994C36.0632 22.1195 35.8673 21.8677 35.6322 21.6438C35.3971 21.4087 35.1396 21.196 34.8598 21.0057C34.5799 20.8042 34.3225 20.5971 34.0874 20.3844C33.8523 20.1606 33.6564 19.9199 33.4997 19.6624C33.343 19.3938 33.2646 19.0859 33.2646 18.7389C33.2646 18.4814 33.3094 18.2296 33.399 17.9833C33.4997 17.737 33.6396 17.5188 33.8187 17.3285C33.9978 17.127 34.2161 16.9702 34.4736 16.8583C34.7311 16.7352 35.0165 16.6736 35.3299 16.6736Z" stroke="var(--stroke-0, #FFEAD3)" stroke-width="0.479747" mask="url(#path-1-outside-1_9_135)"/>
<path d="M38.1531 29.4349C38.2426 29.4125 38.3266 29.3341 38.405 29.1998C38.4945 29.0767 38.5393 28.836 38.5393 28.4778V18.3527C38.5393 17.9945 38.4945 17.7538 38.405 17.6307C38.3266 17.4964 38.2426 17.418 38.1531 17.3956V17.3117C38.3434 17.3117 38.5841 17.2725 38.8751 17.1941C39.1662 17.1158 39.3732 16.9982 39.4964 16.8415H39.5803V18.2352C39.6475 18.0337 39.737 17.8434 39.849 17.6643C39.9721 17.474 40.112 17.3061 40.2688 17.1605C40.4367 17.015 40.6214 16.8975 40.8229 16.8079C41.0356 16.7184 41.2762 16.6736 41.5449 16.6736C41.9143 16.6736 42.2557 16.7688 42.5692 16.9591C42.8826 17.1382 43.1568 17.4012 43.3919 17.7482C43.627 18.0953 43.8061 18.5206 43.9292 19.0244C44.0636 19.5169 44.1307 20.0766 44.1307 20.7035C44.1307 21.3751 44.058 21.9908 43.9124 22.5505C43.7669 23.1102 43.5598 23.5916 43.2912 23.9945C43.0337 24.3975 42.7259 24.711 42.3677 24.9348C42.0206 25.1587 41.64 25.2707 41.2259 25.2707C40.3975 25.2707 39.849 24.8117 39.5803 23.8938V28.4778C39.5803 28.836 39.6195 29.0767 39.6979 29.1998C39.7874 29.3341 39.877 29.4125 39.9665 29.4349V29.5188H38.1531V29.4349ZM39.5803 22.2483C39.5803 23.1438 39.7035 23.8378 39.9497 24.3304C40.2072 24.8117 40.5598 25.0524 41.0076 25.0524C41.3098 25.0524 41.5841 24.946 41.8303 24.7333C42.0878 24.5095 42.3061 24.2072 42.4852 23.8266C42.6755 23.4348 42.821 22.9815 42.9218 22.4665C43.0225 21.9404 43.0729 21.3751 43.0729 20.7706C43.0729 20.2221 43.0281 19.7184 42.9386 19.2594C42.8602 18.8005 42.7427 18.4087 42.5859 18.0841C42.4292 17.7594 42.2389 17.5076 42.015 17.3285C41.7912 17.1382 41.5393 17.043 41.2594 17.043C41.0244 17.043 40.8061 17.1046 40.6046 17.2277C40.4031 17.3508 40.224 17.5132 40.0673 17.7147C39.9218 17.905 39.8042 18.1288 39.7147 18.3863C39.6251 18.6326 39.5803 18.89 39.5803 19.1587V22.2483Z" stroke="var(--stroke-0, #FFEAD3)" stroke-width="0.479747" mask="url(#path-1-outside-1_9_135)"/>
<path d="M47.428 16.6568C47.775 16.6568 48.0884 16.7296 48.3683 16.8751C48.6593 17.0094 48.9 17.1829 49.0903 17.3956C49.2918 17.5971 49.4373 17.821 49.5269 18.0673C49.6164 18.3023 49.6332 18.5262 49.5772 18.7389C49.5324 18.9404 49.4037 19.1139 49.191 19.2594C48.9895 19.3938 48.6929 19.4609 48.3011 19.4609H45.9335C45.9112 19.6736 45.8944 19.8863 45.8832 20.099C45.872 20.3117 45.8664 20.5132 45.8664 20.7035C45.8664 21.196 45.8944 21.6886 45.9503 22.1811C46.0175 22.6736 46.1182 23.1158 46.2526 23.5076C46.3981 23.8994 46.5828 24.2184 46.8067 24.4647C47.0306 24.711 47.2992 24.8341 47.6127 24.8341C47.8477 24.8341 48.0548 24.7669 48.2339 24.6326C48.413 24.4983 48.5698 24.3304 48.7041 24.1289C48.8384 23.9274 48.9504 23.7091 49.0399 23.474C49.1407 23.2277 49.2134 23.0039 49.2582 22.8024C49.3142 22.5897 49.3477 22.405 49.3589 22.2483C49.3813 22.0915 49.3869 22.002 49.3757 21.9796H49.5436C49.5548 22.0132 49.5492 22.1195 49.5269 22.2986C49.5157 22.4777 49.4821 22.6904 49.4261 22.9367C49.3701 23.183 49.2862 23.446 49.1742 23.7259C49.0735 24.0057 48.9392 24.2688 48.7712 24.5151C48.6033 24.7501 48.3906 24.946 48.1332 25.1028C47.8869 25.2595 47.5903 25.3378 47.2433 25.3378C46.7955 25.3378 46.4149 25.2091 46.1015 24.9516C45.7992 24.683 45.5529 24.3416 45.3626 23.9274C45.1724 23.502 45.0324 23.0318 44.9429 22.5169C44.8533 22.002 44.8085 21.4871 44.8085 20.9721C44.8085 20.5356 44.8533 20.0654 44.9429 19.5617C45.0324 19.0467 45.1779 18.5766 45.3794 18.1512C45.5921 17.7258 45.8664 17.3732 46.2022 17.0934C46.538 16.8023 46.9466 16.6568 47.428 16.6568ZM48.0996 19.293C48.2451 19.293 48.3515 19.2315 48.4186 19.1083C48.497 18.9852 48.5418 18.8341 48.553 18.655C48.5754 18.4759 48.5642 18.28 48.5194 18.0673C48.4858 17.8546 48.4186 17.6587 48.3179 17.4796C48.2283 17.3005 48.1052 17.1493 47.9485 17.0262C47.803 16.9031 47.6351 16.8415 47.4448 16.8415C47.1985 16.8415 46.9914 16.9311 46.8235 17.1102C46.6556 17.2893 46.51 17.5076 46.3869 17.765C46.275 18.0225 46.1854 18.2911 46.1182 18.571C46.0511 18.8509 46.0007 19.0915 45.9671 19.293H48.0996Z" stroke="var(--stroke-0, #FFEAD3)" stroke-width="0.479747" mask="url(#path-1-outside-1_9_135)"/>
<path d="M50.2853 20.9721C50.2853 20.3117 50.3469 19.7184 50.47 19.1923C50.6044 18.655 50.7891 18.2016 51.0241 17.8322C51.2592 17.4628 51.5391 17.1773 51.8637 16.9758C52.1883 16.7743 52.5465 16.6736 52.9383 16.6736C53.3861 16.6736 53.7947 16.7967 54.1641 17.043C54.5335 17.2781 54.8133 17.5915 55.0036 17.9833L54.2145 18.5878C54.2145 18.3639 54.1809 18.1456 54.1137 17.9329C54.0466 17.7202 53.9514 17.5355 53.8283 17.3788C53.7163 17.2109 53.582 17.0822 53.4253 16.9926C53.2686 16.8919 53.1063 16.8415 52.9383 16.8415C52.7033 16.8415 52.485 16.9367 52.2835 17.127C52.0932 17.3061 51.9253 17.5691 51.7797 17.9161C51.6454 18.252 51.5391 18.6606 51.4607 19.1419C51.3824 19.6121 51.3432 20.1326 51.3432 20.7035C51.3432 21.196 51.3712 21.6886 51.4271 22.1811C51.4943 22.6736 51.595 23.1158 51.7294 23.5076C51.8749 23.8994 52.0596 24.2184 52.2835 24.4647C52.5074 24.711 52.776 24.8341 53.0895 24.8341C53.3245 24.8341 53.5316 24.7669 53.7107 24.6326C53.8898 24.4983 54.0466 24.3304 54.1809 24.1289C54.3152 23.9274 54.4272 23.7091 54.5167 23.474C54.6175 23.2277 54.6902 23.0039 54.735 22.8024C54.791 22.5897 54.8245 22.405 54.8357 22.2483C54.8581 22.0915 54.8637 22.002 54.8525 21.9796H55.0204C55.0316 22.0132 55.026 22.1195 55.0036 22.2986C54.9925 22.4777 54.9589 22.6904 54.9029 22.9367C54.8469 23.183 54.763 23.446 54.651 23.7259C54.5503 24.0057 54.416 24.2688 54.248 24.5151C54.0801 24.7501 53.8674 24.946 53.61 25.1028C53.3637 25.2595 53.0671 25.3378 52.7201 25.3378C52.2723 25.3378 51.8917 25.2091 51.5783 24.9516C51.276 24.683 51.0297 24.3416 50.8394 23.9274C50.6491 23.502 50.5092 23.0318 50.4197 22.5169C50.3301 22.002 50.2853 21.4871 50.2853 20.9721Z" stroke="var(--stroke-0, #FFEAD3)" stroke-width="0.479747" mask="url(#path-1-outside-1_9_135)"/>
<path d="M55.7805 16.8415V16.6736C55.9708 16.6624 56.1443 16.5785 56.301 16.4217C56.4689 16.2538 56.6145 16.0579 56.7376 15.834C56.8719 15.6102 56.9783 15.3807 57.0566 15.1456C57.1462 14.9105 57.2133 14.7202 57.2581 14.5747L57.3925 14.6587V16.6736H58.1145V16.8415H57.3925V23.6083C57.3925 24.0337 57.426 24.3304 57.4932 24.4983C57.5716 24.6662 57.6723 24.7501 57.7954 24.7501C57.941 24.7501 58.0641 24.6718 58.1648 24.5151C58.2656 24.3583 58.3216 24.1904 58.3328 24.0113L58.4167 24.0281C58.4167 24.3863 58.316 24.6886 58.1145 24.9348C57.9242 25.1811 57.6723 25.3042 57.3589 25.3042C57.0342 25.3042 56.7824 25.1755 56.6033 24.9181C56.4354 24.6494 56.3514 24.2912 56.3514 23.8434V16.8415H55.7805Z" stroke="var(--stroke-0, #FFEAD3)" stroke-width="0.479747" mask="url(#path-1-outside-1_9_135)"/>
<path d="M59.0108 25.1195C59.2123 25.0076 59.3355 24.8733 59.3802 24.7166C59.425 24.5598 59.4474 24.3975 59.4474 24.2296V17.8154C59.4474 17.4572 59.4026 17.2165 59.3131 17.0934C59.2347 16.9591 59.1508 16.8807 59.0612 16.8583V16.7743C59.1508 16.7743 59.2627 16.7632 59.397 16.7408C59.5313 16.7184 59.6601 16.6904 59.7832 16.6568C59.9175 16.612 60.0407 16.5617 60.1526 16.5057C60.2758 16.4497 60.3653 16.3826 60.4213 16.3042H60.5052V24.196C60.5052 24.3639 60.5276 24.5319 60.5724 24.6998C60.6172 24.8677 60.7403 25.002 60.9418 25.1028V25.1699C60.7739 25.1475 60.6116 25.1307 60.4549 25.1195C60.2981 25.0972 60.1414 25.086 59.9847 25.086C59.8168 25.086 59.6489 25.0972 59.481 25.1195C59.3243 25.1307 59.1675 25.1475 59.0108 25.1699V25.1195ZM59.2123 14.709C59.2123 14.4963 59.2683 14.3061 59.3802 14.1381C59.5034 13.959 59.6825 13.8695 59.9175 13.8695C60.1414 13.8695 60.3093 13.9534 60.4213 14.1213C60.5444 14.2893 60.606 14.4796 60.606 14.6922C60.606 14.9049 60.5444 15.0952 60.4213 15.2631C60.3093 15.4311 60.1358 15.515 59.9008 15.515C59.6657 15.515 59.4922 15.4311 59.3802 15.2631C59.2683 15.0952 59.2123 14.9105 59.2123 14.709Z" stroke="var(--stroke-0, #FFEAD3)" stroke-width="0.479747" mask="url(#path-1-outside-1_9_135)"/>
<path d="M61.6981 20.9721C61.6981 20.4908 61.754 19.9982 61.866 19.4945C61.9891 18.9796 62.1794 18.515 62.4369 18.1008C62.6943 17.6867 63.0246 17.3452 63.4276 17.0766C63.8305 16.8079 64.3175 16.6736 64.8884 16.6736C65.4593 16.6736 65.9462 16.8079 66.3492 17.0766C66.7522 17.3452 67.0824 17.6867 67.3399 18.1008C67.5973 18.515 67.7821 18.9796 67.894 19.4945C68.0171 19.9982 68.0787 20.4908 68.0787 20.9721C68.0787 21.4535 68.0171 21.9516 67.894 22.4665C67.7821 22.9703 67.5973 23.4348 67.3399 23.8602C67.0824 24.2744 66.7522 24.6158 66.3492 24.8845C65.9462 25.1419 65.4593 25.2707 64.8884 25.2707C64.3175 25.2707 63.8305 25.1419 63.4276 24.8845C63.0246 24.6158 62.6943 24.2744 62.4369 23.8602C62.1794 23.4348 61.9891 22.9703 61.866 22.4665C61.754 21.9516 61.6981 21.4535 61.6981 20.9721ZM62.7727 20.9721C62.7727 21.3639 62.8007 21.8005 62.8567 22.2818C62.9238 22.752 63.0358 23.1998 63.1925 23.6251C63.3492 24.0393 63.5619 24.3919 63.8305 24.683C64.1104 24.9628 64.463 25.1028 64.8884 25.1028C65.3138 25.1028 65.6608 24.9628 65.9294 24.683C66.2093 24.3919 66.4276 24.0393 66.5843 23.6251C66.741 23.1998 66.8473 22.752 66.9033 22.2818C66.9705 21.8005 67.0041 21.3639 67.0041 20.9721C67.0041 20.5803 66.9705 20.1494 66.9033 19.6792C66.8473 19.1979 66.741 18.7501 66.5843 18.3359C66.4276 17.9105 66.2093 17.5579 65.9294 17.2781C65.6608 16.987 65.3138 16.8415 64.8884 16.8415C64.463 16.8415 64.1104 16.987 63.8305 17.2781C63.5619 17.5579 63.3492 17.9105 63.1925 18.3359C63.0358 18.7501 62.9238 19.1979 62.8567 19.6792C62.8007 20.1494 62.7727 20.5803 62.7727 20.9721Z" stroke="var(--stroke-0, #FFEAD3)" stroke-width="0.479747" mask="url(#path-1-outside-1_9_135)"/>
<path d="M69.2696 23.8098V18.3527C69.2696 17.9945 69.2248 17.7538 69.1352 17.6307C69.0569 17.4964 68.9729 17.418 68.8834 17.3956V17.3117C68.9729 17.3117 69.0849 17.3005 69.2192 17.2781C69.3535 17.2557 69.4822 17.2277 69.6054 17.1941C69.7397 17.1494 69.8628 17.099 69.9748 17.043C70.0979 16.987 70.1875 16.9199 70.2434 16.8415H70.3274V18.4031C70.4729 17.8322 70.708 17.4012 71.0326 17.1102C71.3573 16.8191 71.7323 16.6736 72.1576 16.6736C72.7957 16.6736 73.2994 16.9926 73.6688 17.6307C74.0382 18.2576 74.2229 19.1139 74.2229 20.1997V23.8434C74.2229 24.0785 74.2453 24.308 74.2901 24.5319C74.3349 24.7445 74.458 24.9292 74.6595 25.086V25.1699C74.4916 25.1475 74.3293 25.1307 74.1726 25.1195C74.0159 25.0972 73.8591 25.086 73.7024 25.086C73.5345 25.086 73.3666 25.0972 73.1987 25.1195C73.042 25.1307 72.8852 25.1475 72.7285 25.1699V25.086C72.93 24.9292 73.0532 24.7389 73.0979 24.5151C73.1427 24.2912 73.1651 24.0561 73.1651 23.8098V20.2501C73.1651 19.1979 73.0532 18.3807 72.8293 17.7986C72.6054 17.2165 72.2808 16.9255 71.8554 16.9255C71.6651 16.9255 71.4748 16.987 71.2845 17.1102C71.1054 17.2333 70.9431 17.4124 70.7976 17.6475C70.6632 17.8826 70.5513 18.1736 70.4617 18.5206C70.3722 18.8676 70.3274 19.2594 70.3274 19.696V23.8098C70.3274 24.0449 70.3498 24.28 70.3946 24.5151C70.4393 24.7389 70.5625 24.9292 70.764 25.086V25.1699C70.5961 25.1475 70.4337 25.1307 70.277 25.1195C70.1203 25.0972 69.9636 25.086 69.8069 25.086C69.639 25.086 69.4711 25.0972 69.3031 25.1195C69.1464 25.1307 68.9897 25.1475 68.833 25.1699V25.086C69.0345 24.9292 69.1576 24.7389 69.2024 24.5151C69.2472 24.2912 69.2696 24.0561 69.2696 23.8098Z" stroke="var(--stroke-0, #FFEAD3)" stroke-width="0.479747" mask="url(#path-1-outside-1_9_135)"/>
</g>
</svg>
