<svg preserveAspectRatio="none" width="100%" height="100%" overflow="visible" style="display: block;" viewBox="0 0 57.0624 26.0479" fill="none" xmlns="http://www.w3.org/2000/svg">
<g id="Nuit de Pleine Lune">
<mask id="path-1-outside-1_11_149" maskUnits="userSpaceOnUse" x="-0.760127" y="-0.760127" width="58" height="27" fill="black">
<rect fill="white" x="-0.760127" y="-0.760127" width="58" height="27"/>
<path d="M10.9803 12.447V12.3631C11.1818 12.2064 11.3049 12.0161 11.3497 11.7922C11.3945 11.5683 11.4169 11.3332 11.4169 11.0869V1.29772C11.4169 1.04025 11.2769 0.87234 10.9971 0.793982V0.710025H12.4579L16.9915 10.2642V2.13727C16.9915 1.87981 16.9691 1.63354 16.9244 1.39846C16.8796 1.16339 16.7565 0.961893 16.555 0.793982V0.710025C16.7005 0.765996 16.8516 0.793982 17.0083 0.793982C17.0755 0.793982 17.1482 0.788385 17.2266 0.77719C17.3162 0.754802 17.4449 0.732414 17.6128 0.710025V0.793982C17.4113 0.961893 17.2882 1.16898 17.2434 1.41525C17.1986 1.65033 17.1762 1.8966 17.1762 2.15406V12.447H16.8404L11.6016 1.39846V11.0869C11.6016 11.322 11.624 11.5571 11.6687 11.7922C11.7135 12.0161 11.8366 12.2064 12.0381 12.3631V12.447C11.8702 12.4246 11.7415 12.4079 11.6519 12.3967C11.5736 12.3743 11.5008 12.3631 11.4337 12.3631C11.2769 12.3631 11.1258 12.3911 10.9803 12.447Z"/>
<path d="M19.4315 4.20258C19.5882 4.20258 19.7449 4.19699 19.9016 4.18579C20.0696 4.1634 20.2319 4.14102 20.3886 4.11863V4.20258C20.1871 4.3593 20.064 4.5496 20.0192 4.77348C19.9744 4.99736 19.952 5.23244 19.952 5.47871V9.03843C19.952 10.0907 20.064 10.9078 20.2878 11.4899C20.5117 12.072 20.8363 12.3631 21.2617 12.3631C21.452 12.3631 21.6367 12.3015 21.8158 12.1784C22.0061 12.0552 22.1684 11.8761 22.3028 11.6411C22.4483 11.406 22.5658 11.1149 22.6554 10.7679C22.7449 10.4209 22.7897 10.0291 22.7897 9.59254V5.47871C22.7897 5.24363 22.7673 5.01415 22.7226 4.79027C22.6778 4.5552 22.5546 4.3593 22.3531 4.20258V4.11863C22.5211 4.14102 22.6834 4.1634 22.8401 4.18579C22.9968 4.19699 23.1591 4.20258 23.327 4.20258C23.4837 4.20258 23.6405 4.19699 23.7972 4.18579C23.9651 4.1634 24.1274 4.14102 24.2841 4.11863V4.20258C24.0826 4.3593 23.9595 4.5496 23.9147 4.77348C23.8699 4.99736 23.8476 5.23244 23.8476 5.47871V10.9358C23.8476 11.294 23.8867 11.5403 23.9651 11.6746C24.0547 11.7978 24.1442 11.8705 24.2338 11.8929V11.9769C24.1442 11.9769 24.0323 11.9881 23.8979 12.0105C23.7636 12.0329 23.6293 12.0664 23.4949 12.1112C23.3718 12.1448 23.2487 12.1896 23.1255 12.2455C23.0136 12.3015 22.9296 12.3687 22.8737 12.447H22.7897V10.8855C22.6442 11.4564 22.4091 11.8873 22.0845 12.1784C21.7599 12.4694 21.3849 12.6149 20.9595 12.6149C20.3214 12.6149 19.8177 12.3015 19.4483 11.6746C19.0789 11.0366 18.8942 10.1746 18.8942 9.0888V5.44513C18.8942 5.21005 18.8718 4.98617 18.827 4.77348C18.7822 4.5496 18.6591 4.3593 18.4576 4.20258V4.11863C18.6255 4.14102 18.7878 4.1634 18.9445 4.18579C19.1013 4.19699 19.2636 4.20258 19.4315 4.20258Z"/>
<path d="M25.1314 12.3967C25.3329 12.2847 25.4561 12.1504 25.5008 11.9937C25.5456 11.837 25.568 11.6746 25.568 11.5067V5.09251C25.568 4.7343 25.5232 4.49363 25.4337 4.37049C25.3553 4.23616 25.2714 4.15781 25.1818 4.13542V4.05146C25.2714 4.05146 25.3833 4.04027 25.5176 4.01788C25.652 3.99549 25.7807 3.96751 25.9038 3.93392C26.0381 3.88915 26.1613 3.83877 26.2732 3.7828C26.3964 3.72683 26.4859 3.65967 26.5419 3.58131H26.6258V11.4731C26.6258 11.6411 26.6482 11.809 26.693 11.9769C26.7378 12.1448 26.8609 12.2791 27.0624 12.3799V12.447C26.8945 12.4246 26.7322 12.4079 26.5755 12.3967C26.4187 12.3743 26.262 12.3631 26.1053 12.3631C25.9374 12.3631 25.7695 12.3743 25.6016 12.3967C25.4449 12.4079 25.2881 12.4246 25.1314 12.447V12.3967ZM25.3329 1.98615C25.3329 1.77346 25.3889 1.58317 25.5008 1.41525C25.624 1.23615 25.8031 1.1466 26.0381 1.1466C26.262 1.1466 26.4299 1.23055 26.5419 1.39846C26.665 1.56637 26.7266 1.75667 26.7266 1.96936C26.7266 2.18205 26.665 2.37235 26.5419 2.54026C26.4299 2.70817 26.2564 2.79213 26.0214 2.79213C25.7863 2.79213 25.6128 2.70817 25.5008 2.54026C25.3889 2.37235 25.3329 2.18765 25.3329 1.98615Z"/>
<path d="M27.9026 4.11863V3.95072C28.0929 3.93952 28.2664 3.85557 28.4231 3.69885C28.5911 3.53094 28.7366 3.33504 28.8597 3.11116C28.994 2.88728 29.1004 2.6578 29.1787 2.42272C29.2683 2.18765 29.3355 1.99735 29.3802 1.85182L29.5146 1.93578V3.95072H30.2366V4.11863H29.5146V10.8855C29.5146 11.3108 29.5481 11.6075 29.6153 11.7754C29.6937 11.9433 29.7944 12.0273 29.9176 12.0273C30.0631 12.0273 30.1862 11.9489 30.287 11.7922C30.3877 11.6355 30.4437 11.4675 30.4549 11.2884L30.5388 11.3052C30.5388 11.6634 30.4381 11.9657 30.2366 12.212C30.0463 12.4582 29.7944 12.5814 29.481 12.5814C29.1564 12.5814 28.9045 12.4526 28.7254 12.1952C28.5575 11.9265 28.4735 11.5683 28.4735 11.1205V4.11863H27.9026Z"/>
<path d="M37.413 3.95072C38.2637 3.95072 38.8234 4.40967 39.0921 5.32759V1.75108C39.0921 1.39287 39.0473 1.15219 38.9577 1.02906C38.8794 0.894728 38.7954 0.81637 38.7059 0.793982V0.710025C38.8962 0.710025 39.1369 0.670846 39.4279 0.592488C39.7189 0.514129 39.926 0.396591 40.0492 0.239873H40.1331V11.406C40.1331 11.7642 40.1723 12.0105 40.2507 12.1448C40.3402 12.2679 40.4298 12.3407 40.5193 12.3631V12.447H39.0921V10.9862C39.0249 11.1877 38.9298 11.3836 38.8066 11.5739C38.6947 11.753 38.5604 11.9153 38.4036 12.0608C38.2469 12.2064 38.0622 12.3239 37.8495 12.4134C37.6368 12.503 37.4018 12.5478 37.1443 12.5478C36.7077 12.5478 36.3215 12.4246 35.9857 12.1784C35.6611 11.9321 35.3924 11.6131 35.1797 11.2213C34.9671 10.8183 34.8047 10.3761 34.6928 9.89478C34.5921 9.40224 34.5417 8.92089 34.5417 8.45074C34.5417 7.9582 34.5976 7.44887 34.7096 6.92275C34.8327 6.38543 35.0118 5.89849 35.2469 5.46192C35.482 5.02535 35.7786 4.66714 36.1368 4.38729C36.495 4.09624 36.9204 3.95072 37.413 3.95072ZM37.3626 12.1784C37.6089 12.1784 37.8327 12.1168 38.0342 11.9937C38.2469 11.8705 38.4316 11.7138 38.5883 11.5235C38.7451 11.322 38.8682 11.0981 38.9577 10.8519C39.0473 10.5944 39.0921 10.3313 39.0921 10.0627V6.97312C39.0921 6.07759 38.9633 5.38916 38.7059 4.90781C38.4484 4.41527 38.079 4.169 37.5977 4.169C37.2059 4.169 36.8812 4.32012 36.6238 4.62236C36.3663 4.9246 36.1592 5.2996 36.0025 5.74737C35.857 6.19513 35.7506 6.66528 35.6835 7.15782C35.6275 7.65036 35.5995 8.09253 35.5995 8.48432C35.5995 8.76418 35.6163 9.11679 35.6499 9.54216C35.6947 9.96754 35.7786 10.3761 35.9018 10.7679C36.0361 11.1485 36.2152 11.4787 36.4391 11.7586C36.6742 12.0384 36.982 12.1784 37.3626 12.1784Z"/>
<path d="M43.9005 3.93392C44.2475 3.93392 44.561 4.00669 44.8408 4.15221C45.1319 4.28654 45.3725 4.46005 45.5628 4.67273C45.7643 4.87423 45.9098 5.09811 45.9994 5.34438C46.089 5.57946 46.1057 5.80334 46.0498 6.01603C46.005 6.21752 45.8763 6.39103 45.6636 6.53655C45.4621 6.67088 45.1654 6.73804 44.7736 6.73804H42.4061C42.3837 6.95073 42.3669 7.16342 42.3557 7.37611C42.3445 7.5888 42.3389 7.79029 42.3389 7.98059C42.3389 8.47313 42.3669 8.96567 42.4229 9.45821C42.4901 9.95075 42.5908 10.3929 42.7251 10.7847C42.8706 11.1765 43.0554 11.4955 43.2792 11.7418C43.5031 11.9881 43.7718 12.1112 44.0852 12.1112C44.3203 12.1112 44.5274 12.044 44.7065 11.9097C44.8856 11.7754 45.0423 11.6075 45.1766 11.406C45.311 11.2045 45.4229 10.9862 45.5125 10.7511C45.6132 10.5049 45.686 10.281 45.7307 10.0795C45.7867 9.86679 45.8203 9.68209 45.8315 9.52537C45.8539 9.36866 45.8595 9.2791 45.8483 9.25672H46.0162C46.0274 9.2903 46.0218 9.39664 45.9994 9.57575C45.9882 9.75485 45.9546 9.96754 45.8987 10.2138C45.8427 10.4601 45.7587 10.7231 45.6468 11.003C45.546 11.2828 45.4117 11.5459 45.2438 11.7922C45.0759 12.0273 44.8632 12.2232 44.6057 12.3799C44.3595 12.5366 44.0628 12.6149 43.7158 12.6149C43.268 12.6149 42.8874 12.4862 42.574 12.2287C42.2718 11.9601 42.0255 11.6187 41.8352 11.2045C41.6449 10.7791 41.505 10.309 41.4154 9.79403C41.3259 9.2791 41.2811 8.76418 41.2811 8.24925C41.2811 7.81268 41.3259 7.34253 41.4154 6.83879C41.505 6.32386 41.6505 5.85371 41.852 5.42834C42.0647 5.00296 42.3389 4.65035 42.6748 4.37049C43.0106 4.07945 43.4192 3.93392 43.9005 3.93392ZM44.5722 6.57013C44.7177 6.57013 44.824 6.50857 44.8912 6.38543C44.9695 6.2623 45.0143 6.11118 45.0255 5.93207C45.0479 5.75296 45.0367 5.55707 44.9919 5.34438C44.9583 5.13169 44.8912 4.9358 44.7904 4.75669C44.7009 4.57758 44.5777 4.42646 44.421 4.30333C44.2755 4.18019 44.1076 4.11863 43.9173 4.11863C43.671 4.11863 43.4639 4.20818 43.296 4.38729C43.1281 4.56639 42.9826 4.78468 42.8595 5.04214C42.7475 5.2996 42.658 5.56826 42.5908 5.84811C42.5236 6.12797 42.4733 6.36864 42.4397 6.57013H44.5722Z"/>
<path d="M0.676443 24.28V14.4908C0.676443 14.2333 0.536517 14.0654 0.256665 13.987V13.9031H2.96004C3.34064 13.9031 3.69325 13.9758 4.01788 14.1213C4.3537 14.2669 4.64475 14.4684 4.89102 14.7258C5.14848 14.9721 5.34998 15.2631 5.4955 15.599C5.64102 15.9236 5.71378 16.2762 5.71378 16.6568C5.71378 17.0598 5.62983 17.4404 5.46192 17.7986C5.29401 18.1568 5.07012 18.4759 4.79027 18.7557C4.51042 19.0244 4.18019 19.237 3.7996 19.3938C3.43019 19.5505 3.0328 19.6288 2.60742 19.6288H1.73428V24.3136C1.73428 24.5486 1.75667 24.7781 1.80145 25.002C1.84623 25.2147 1.96936 25.3994 2.17085 25.5561V25.6401C2.00294 25.6177 1.83503 25.6009 1.66712 25.5897C1.5104 25.5673 1.35369 25.5561 1.19697 25.5561C1.02906 25.5561 0.866743 25.5673 0.710025 25.5897C0.553308 25.6009 0.396591 25.6177 0.239873 25.6401V25.5561C0.441367 25.3994 0.564502 25.2091 0.609278 24.9852C0.654055 24.7613 0.676443 24.5263 0.676443 24.28ZM1.73428 14.071V19.4609H2.60742C3.23429 19.4609 3.72124 19.2147 4.06825 18.7221C4.41527 18.2296 4.58878 17.5467 4.58878 16.6736C4.58878 15.8676 4.44326 15.2352 4.15221 14.7762C3.86116 14.3061 3.46377 14.071 2.96004 14.071H1.73428Z"/>
<path d="M6.47096 25.5561C6.67245 25.3994 6.79559 25.2091 6.84037 24.9852C6.88514 24.7613 6.90753 24.5263 6.90753 24.28V14.9441C6.90753 14.5859 6.86275 14.3452 6.7732 14.2221C6.69484 14.0878 6.61089 14.0094 6.52133 13.987V13.9031C6.61089 13.9031 6.72283 13.8919 6.85716 13.8695C6.99149 13.8471 7.12022 13.8191 7.24335 13.7855C7.37768 13.7407 7.50082 13.6904 7.61276 13.6344C7.73589 13.5784 7.82545 13.5113 7.88142 13.4329H7.96537V24.28C7.96537 24.5151 7.98776 24.7501 8.03254 24.9852C8.07731 25.2091 8.20045 25.3994 8.40194 25.5561V25.6401C8.23403 25.6177 8.07172 25.6009 7.915 25.5897C7.75828 25.5673 7.60156 25.5561 7.44485 25.5561C7.27694 25.5561 7.10902 25.5673 6.94111 25.5897C6.78439 25.6009 6.62768 25.6177 6.47096 25.6401V25.5561Z"/>
<path d="M11.7776 17.127C12.1246 17.127 12.4381 17.1997 12.7179 17.3452C13.009 17.4796 13.2496 17.6531 13.4399 17.8658C13.6414 18.0673 13.787 18.2911 13.8765 18.5374C13.9661 18.7725 13.9829 18.9964 13.9269 19.2091C13.8821 19.4106 13.7534 19.5841 13.5407 19.7296C13.3392 19.8639 13.0425 19.9311 12.6508 19.9311H10.2832C10.2608 20.1438 10.244 20.3565 10.2328 20.5691C10.2216 20.7818 10.216 20.9833 10.216 21.1736C10.216 21.6662 10.244 22.1587 10.3 22.6512C10.3672 23.1438 10.4679 23.586 10.6022 23.9777C10.7478 24.3695 10.9325 24.6886 11.1563 24.9348C11.3802 25.1811 11.6489 25.3042 11.9623 25.3042C12.1974 25.3042 12.4045 25.2371 12.5836 25.1028C12.7627 24.9684 12.9194 24.8005 13.0537 24.599C13.1881 24.3975 13.3 24.1792 13.3896 23.9442C13.4903 23.6979 13.5631 23.474 13.6079 23.2725C13.6638 23.0598 13.6974 22.8751 13.7086 22.7184C13.731 22.5617 13.7366 22.4721 13.7254 22.4498H13.8933C13.9045 22.4833 13.8989 22.5897 13.8765 22.7688C13.8653 22.9479 13.8317 23.1606 13.7758 23.4068C13.7198 23.6531 13.6358 23.9162 13.5239 24.196C13.4231 24.4759 13.2888 24.7389 13.1209 24.9852C12.953 25.2203 12.7403 25.4162 12.4828 25.5729C12.2366 25.7296 11.9399 25.808 11.5929 25.808C11.1451 25.808 10.7646 25.6792 10.4511 25.4218C10.1489 25.1531 9.90261 24.8117 9.71231 24.3975C9.52201 23.9721 9.38208 23.502 9.29253 22.9871C9.20297 22.4721 9.1582 21.9572 9.1582 21.4423C9.1582 21.0057 9.20297 20.5356 9.29253 20.0318C9.38208 19.5169 9.5276 19.0467 9.7291 18.6214C9.94178 18.196 10.216 17.8434 10.5519 17.5635C10.8877 17.2725 11.2963 17.127 11.7776 17.127ZM12.4493 19.7632C12.5948 19.7632 12.7011 19.7016 12.7683 19.5785C12.8467 19.4553 12.8914 19.3042 12.9026 19.1251C12.925 18.946 12.9138 18.7501 12.869 18.5374C12.8355 18.3247 12.7683 18.1288 12.6675 17.9497C12.578 17.7706 12.4549 17.6195 12.2981 17.4964C12.1526 17.3732 11.9847 17.3117 11.7944 17.3117C11.5481 17.3117 11.341 17.4012 11.1731 17.5803C11.0052 17.7594 10.8597 17.9777 10.7366 18.2352C10.6246 18.4926 10.5351 18.7613 10.4679 19.0412C10.4007 19.321 10.3504 19.5617 10.3168 19.7632H12.4493Z"/>
<path d="M14.719 25.5897C14.9204 25.4778 15.0436 25.3434 15.0884 25.1867C15.1331 25.03 15.1555 24.8677 15.1555 24.6998V18.2856C15.1555 17.9273 15.1107 17.6867 15.0212 17.5635C14.9428 17.4292 14.8589 17.3508 14.7693 17.3285V17.2445C14.8589 17.2445 14.9708 17.2333 15.1051 17.2109C15.2395 17.1885 15.3682 17.1605 15.4913 17.127C15.6257 17.0822 15.7488 17.0318 15.8607 16.9758C15.9839 16.9199 16.0734 16.8527 16.1294 16.7743H16.2134V24.6662C16.2134 24.8341 16.2358 25.002 16.2805 25.1699C16.3253 25.3378 16.4484 25.4722 16.6499 25.5729V25.6401C16.482 25.6177 16.3197 25.6009 16.163 25.5897C16.0063 25.5673 15.8496 25.5561 15.6928 25.5561C15.5249 25.5561 15.357 25.5673 15.1891 25.5897C15.0324 25.6009 14.8757 25.6177 14.719 25.6401V25.5897ZM14.9204 15.1792C14.9204 14.9665 14.9764 14.7762 15.0884 14.6083C15.2115 14.4292 15.3906 14.3396 15.6257 14.3396C15.8496 14.3396 16.0175 14.4236 16.1294 14.5915C16.2525 14.7594 16.3141 14.9497 16.3141 15.1624C16.3141 15.3751 16.2525 15.5654 16.1294 15.7333C16.0175 15.9012 15.844 15.9852 15.6089 15.9852C15.3738 15.9852 15.2003 15.9012 15.0884 15.7333C14.9764 15.5654 14.9204 15.3807 14.9204 15.1792Z"/>
<path d="M17.9267 24.28V18.8229C17.9267 18.4647 17.8819 18.224 17.7924 18.1008C17.714 17.9665 17.6301 17.8882 17.5405 17.8658V17.7818C17.6301 17.7818 17.742 17.7706 17.8763 17.7482C18.0107 17.7258 18.1394 17.6979 18.2625 17.6643C18.3969 17.6195 18.52 17.5691 18.6319 17.5132C18.7551 17.4572 18.8446 17.39 18.9006 17.3117H18.9846V18.8732C19.1301 18.3023 19.3652 17.8714 19.6898 17.5803C20.0144 17.2893 20.3894 17.1438 20.8148 17.1438C21.4529 17.1438 21.9566 17.4628 22.326 18.1008C22.6954 18.7277 22.8801 19.5841 22.8801 20.6699V24.3136C22.8801 24.5486 22.9025 24.7781 22.9473 25.002C22.992 25.2147 23.1152 25.3994 23.3167 25.5561V25.6401C23.1488 25.6177 22.9864 25.6009 22.8297 25.5897C22.673 25.5673 22.5163 25.5561 22.3596 25.5561C22.1917 25.5561 22.0238 25.5673 21.8558 25.5897C21.6991 25.6009 21.5424 25.6177 21.3857 25.6401V25.5561C21.5872 25.3994 21.7103 25.2091 21.7551 24.9852C21.7999 24.7613 21.8223 24.5263 21.8223 24.28V20.7203C21.8223 19.668 21.7103 18.8509 21.4864 18.2688C21.2626 17.6867 20.9379 17.3956 20.5126 17.3956C20.3223 17.3956 20.132 17.4572 19.9417 17.5803C19.7625 17.7035 19.6002 17.8826 19.4547 18.1176C19.3204 18.3527 19.2084 18.6438 19.1189 18.9908C19.0293 19.3378 18.9846 19.7296 18.9846 20.1662V24.28C18.9846 24.5151 19.0069 24.7501 19.0517 24.9852C19.0965 25.2091 19.2196 25.3994 19.4211 25.5561V25.6401C19.2532 25.6177 19.0909 25.6009 18.9342 25.5897C18.7775 25.5673 18.6207 25.5561 18.464 25.5561C18.2961 25.5561 18.1282 25.5673 17.9603 25.5897C17.8036 25.6009 17.6469 25.6177 17.4901 25.6401V25.5561C17.6916 25.3994 17.8148 25.2091 17.8595 24.9852C17.9043 24.7613 17.9267 24.5263 17.9267 24.28Z"/>
<path d="M26.6994 17.127C27.0464 17.127 27.3599 17.1997 27.6397 17.3452C27.9308 17.4796 28.1715 17.6531 28.3618 17.8658C28.5632 18.0673 28.7088 18.2911 28.7983 18.5374C28.8879 18.7725 28.9047 18.9964 28.8487 19.2091C28.8039 19.4106 28.6752 19.5841 28.4625 19.7296C28.261 19.8639 27.9644 19.9311 27.5726 19.9311H25.205C25.1826 20.1438 25.1658 20.3565 25.1546 20.5691C25.1434 20.7818 25.1379 20.9833 25.1379 21.1736C25.1379 21.6662 25.1658 22.1587 25.2218 22.6512C25.289 23.1438 25.3897 23.586 25.524 23.9777C25.6696 24.3695 25.8543 24.6886 26.0782 24.9348C26.302 25.1811 26.5707 25.3042 26.8841 25.3042C27.1192 25.3042 27.3263 25.2371 27.5054 25.1028C27.6845 24.9684 27.8412 24.8005 27.9756 24.599C28.1099 24.3975 28.2218 24.1792 28.3114 23.9442C28.4121 23.6979 28.4849 23.474 28.5297 23.2725C28.5856 23.0598 28.6192 22.8751 28.6304 22.7184C28.6528 22.5617 28.6584 22.4721 28.6472 22.4498H28.8151C28.8263 22.4833 28.8207 22.5897 28.7983 22.7688C28.7871 22.9479 28.7535 23.1606 28.6976 23.4068C28.6416 23.6531 28.5576 23.9162 28.4457 24.196C28.345 24.4759 28.2106 24.7389 28.0427 24.9852C27.8748 25.2203 27.6621 25.4162 27.4047 25.5729C27.1584 25.7296 26.8617 25.808 26.5147 25.808C26.067 25.808 25.6864 25.6792 25.3729 25.4218C25.0707 25.1531 24.8244 24.8117 24.6341 24.3975C24.4438 23.9721 24.3039 23.502 24.2143 22.9871C24.1248 22.4721 24.08 21.9572 24.08 21.4423C24.08 21.0057 24.1248 20.5356 24.2143 20.0318C24.3039 19.5169 24.4494 19.0467 24.6509 18.6214C24.8636 18.196 25.1379 17.8434 25.4737 17.5635C25.8095 17.2725 26.2181 17.127 26.6994 17.127ZM27.3711 19.7632C27.5166 19.7632 27.6229 19.7016 27.6901 19.5785C27.7685 19.4553 27.8132 19.3042 27.8244 19.1251C27.8468 18.946 27.8356 18.7501 27.7909 18.5374C27.7573 18.3247 27.6901 18.1288 27.5894 17.9497C27.4998 17.7706 27.3767 17.6195 27.22 17.4964C27.0744 17.3732 26.9065 17.3117 26.7162 17.3117C26.4699 17.3117 26.2629 17.4012 26.0949 17.5803C25.927 17.7594 25.7815 17.9777 25.6584 18.2352C25.5464 18.4926 25.4569 18.7613 25.3897 19.0412C25.3226 19.321 25.2722 19.5617 25.2386 19.7632H27.3711Z"/>
<path d="M34.1073 13.987C34.2641 13.987 34.4208 13.9814 34.5775 13.9702C34.7342 13.9478 34.8965 13.9255 35.0644 13.9031V13.987C34.8629 14.1437 34.7398 14.334 34.695 14.5579C34.6503 14.7706 34.6279 14.9945 34.6279 15.2296V25.4722H35.9376C36.3629 25.4722 36.7044 25.3546 36.9618 25.1195C37.2193 24.8733 37.4208 24.5822 37.5663 24.2464C37.7118 23.9106 37.8182 23.5636 37.8853 23.2054C37.9525 22.8359 38.0029 22.5281 38.0365 22.2818H38.1708L37.9525 25.6401H33.167V25.5729C33.2678 25.4945 33.3573 25.3826 33.4357 25.2371C33.5252 25.0804 33.57 24.8565 33.57 24.5654V15.2631C33.57 15.0169 33.5476 14.7818 33.5029 14.5579C33.4581 14.334 33.3349 14.1437 33.1335 13.987V13.9031C33.2902 13.9255 33.4469 13.9478 33.6036 13.9702C33.7715 13.9814 33.9394 13.987 34.1073 13.987Z"/>
<path d="M39.7317 17.3956C39.8884 17.3956 40.0451 17.39 40.2019 17.3788C40.3698 17.3564 40.5321 17.3341 40.6888 17.3117V17.3956C40.4873 17.5523 40.3642 17.7426 40.3194 17.9665C40.2746 18.1904 40.2522 18.4255 40.2522 18.6717V22.2315C40.2522 23.2837 40.3642 24.1009 40.5881 24.683C40.8119 25.2651 41.1366 25.5561 41.5619 25.5561C41.7522 25.5561 41.9369 25.4945 42.1161 25.3714C42.3064 25.2483 42.4687 25.0692 42.603 24.8341C42.7485 24.599 42.8661 24.308 42.9556 23.961C43.0452 23.6139 43.0899 23.2221 43.0899 22.7856V18.6717C43.0899 18.4367 43.0676 18.2072 43.0228 17.9833C42.978 17.7482 42.8549 17.5523 42.6534 17.3956V17.3117C42.8213 17.3341 42.9836 17.3564 43.1403 17.3788C43.297 17.39 43.4593 17.3956 43.6273 17.3956C43.784 17.3956 43.9407 17.39 44.0974 17.3788C44.2653 17.3564 44.4276 17.3341 44.5844 17.3117V17.3956C44.3829 17.5523 44.2597 17.7426 44.2149 17.9665C44.1702 18.1904 44.1478 18.4255 44.1478 18.6717V24.1289C44.1478 24.4871 44.187 24.7333 44.2653 24.8677C44.3549 24.9908 44.4444 25.0636 44.534 25.086V25.1699C44.4444 25.1699 44.3325 25.1811 44.1982 25.2035C44.0638 25.2259 43.9295 25.2595 43.7952 25.3042C43.672 25.3378 43.5489 25.3826 43.4258 25.4386C43.3138 25.4945 43.2299 25.5617 43.1739 25.6401H43.0899V24.0785C42.9444 24.6494 42.7093 25.0804 42.3847 25.3714C42.0601 25.6625 41.6851 25.808 41.2597 25.808C40.6216 25.808 40.1179 25.4945 39.7485 24.8677C39.3791 24.2296 39.1944 23.3677 39.1944 22.2818V18.6382C39.1944 18.4031 39.172 18.1792 39.1272 17.9665C39.0825 17.7426 38.9593 17.5523 38.7578 17.3956V17.3117C38.9257 17.3341 39.0881 17.3564 39.2448 17.3788C39.4015 17.39 39.5638 17.3956 39.7317 17.3956Z"/>
<path d="M45.8682 24.28V18.8229C45.8682 18.4647 45.8234 18.224 45.7339 18.1008C45.6555 17.9665 45.5716 17.8882 45.482 17.8658V17.7818C45.5716 17.7818 45.6835 17.7706 45.8178 17.7482C45.9522 17.7258 46.0809 17.6979 46.204 17.6643C46.3384 17.6195 46.4615 17.5691 46.5734 17.5132C46.6966 17.4572 46.7861 17.39 46.8421 17.3117H46.9261V18.8732C47.0716 18.3023 47.3067 17.8714 47.6313 17.5803C47.9559 17.2893 48.3309 17.1438 48.7563 17.1438C49.3944 17.1438 49.8981 17.4628 50.2675 18.1008C50.6369 18.7277 50.8216 19.5841 50.8216 20.6699V24.3136C50.8216 24.5486 50.844 24.7781 50.8888 25.002C50.9335 25.2147 51.0567 25.3994 51.2582 25.5561V25.6401C51.0903 25.6177 50.9279 25.6009 50.7712 25.5897C50.6145 25.5673 50.4578 25.5561 50.3011 25.5561C50.1332 25.5561 49.9653 25.5673 49.7973 25.5897C49.6406 25.6009 49.4839 25.6177 49.3272 25.6401V25.5561C49.5287 25.3994 49.6518 25.2091 49.6966 24.9852C49.7414 24.7613 49.7638 24.5263 49.7638 24.28V20.7203C49.7638 19.668 49.6518 18.8509 49.4279 18.2688C49.2041 17.6867 48.8794 17.3956 48.4541 17.3956C48.2638 17.3956 48.0735 17.4572 47.8832 17.5803C47.704 17.7035 47.5417 17.8826 47.3962 18.1176C47.2619 18.3527 47.1499 18.6438 47.0604 18.9908C46.9708 19.3378 46.9261 19.7296 46.9261 20.1662V24.28C46.9261 24.5151 46.9485 24.7501 46.9932 24.9852C47.038 25.2091 47.1611 25.3994 47.3626 25.5561V25.6401C47.1947 25.6177 47.0324 25.6009 46.8757 25.5897C46.719 25.5673 46.5623 25.5561 46.4055 25.5561C46.2376 25.5561 46.0697 25.5673 45.9018 25.5897C45.7451 25.6009 45.5884 25.6177 45.4316 25.6401V25.5561C45.6331 25.3994 45.7563 25.2091 45.8011 24.9852C45.8458 24.7613 45.8682 24.5263 45.8682 24.28Z"/>
<path d="M54.6409 17.127C54.9879 17.127 55.3014 17.1997 55.5812 17.3452C55.8723 17.4796 56.113 17.6531 56.3033 17.8658C56.5047 18.0673 56.6503 18.2911 56.7398 18.5374C56.8294 18.7725 56.8462 18.9964 56.7902 19.2091C56.7454 19.4106 56.6167 19.5841 56.404 19.7296C56.2025 19.8639 55.9059 19.9311 55.5141 19.9311H53.1465C53.1241 20.1438 53.1073 20.3565 53.0961 20.5691C53.085 20.7818 53.0794 20.9833 53.0794 21.1736C53.0794 21.6662 53.1073 22.1587 53.1633 22.6512C53.2305 23.1438 53.3312 23.586 53.4656 23.9777C53.6111 24.3695 53.7958 24.6886 54.0197 24.9348C54.2435 25.1811 54.5122 25.3042 54.8256 25.3042C55.0607 25.3042 55.2678 25.2371 55.4469 25.1028C55.626 24.9684 55.7827 24.8005 55.9171 24.599C56.0514 24.3975 56.1633 24.1792 56.2529 23.9442C56.3536 23.6979 56.4264 23.474 56.4712 23.2725C56.5271 23.0598 56.5607 22.8751 56.5719 22.7184C56.5943 22.5617 56.5999 22.4721 56.5887 22.4498H56.7566C56.7678 22.4833 56.7622 22.5897 56.7398 22.7688C56.7286 22.9479 56.695 23.1606 56.6391 23.4068C56.5831 23.6531 56.4992 23.9162 56.3872 24.196C56.2865 24.4759 56.1521 24.7389 55.9842 24.9852C55.8163 25.2203 55.6036 25.4162 55.3462 25.5729C55.0999 25.7296 54.8032 25.808 54.4562 25.808C54.0085 25.808 53.6279 25.6792 53.3144 25.4218C53.0122 25.1531 52.7659 24.8117 52.5756 24.3975C52.3853 23.9721 52.2454 23.502 52.1558 22.9871C52.0663 22.4721 52.0215 21.9572 52.0215 21.4423C52.0215 21.0057 52.0663 20.5356 52.1558 20.0318C52.2454 19.5169 52.3909 19.0467 52.5924 18.6214C52.8051 18.196 53.0794 17.8434 53.4152 17.5635C53.751 17.2725 54.1596 17.127 54.6409 17.127ZM55.3126 19.7632C55.4581 19.7632 55.5644 19.7016 55.6316 19.5785C55.71 19.4553 55.7547 19.3042 55.7659 19.1251C55.7883 18.946 55.7771 18.7501 55.7324 18.5374C55.6988 18.3247 55.6316 18.1288 55.5309 17.9497C55.4413 17.7706 55.3182 17.6195 55.1615 17.4964C55.0159 17.3732 54.848 17.3117 54.6577 17.3117C54.4115 17.3117 54.2044 17.4012 54.0365 17.5803C53.8685 17.7594 53.723 17.9777 53.5999 18.2352C53.4879 18.4926 53.3984 18.7613 53.3312 19.0412C53.2641 19.321 53.2137 19.5617 53.1801 19.7632H55.3126Z"/>
</mask>
<path d="M10.9803 12.447V12.3631C11.1818 12.2064 11.3049 12.0161 11.3497 11.7922C11.3945 11.5683 11.4169 11.3332 11.4169 11.0869V1.29772C11.4169 1.04025 11.2769 0.87234 10.9971 0.793982V0.710025H12.4579L16.9915 10.2642V2.13727C16.9915 1.87981 16.9691 1.63354 16.9244 1.39846C16.8796 1.16339 16.7565 0.961893 16.555 0.793982V0.710025C16.7005 0.765996 16.8516 0.793982 17.0083 0.793982C17.0755 0.793982 17.1482 0.788385 17.2266 0.77719C17.3162 0.754802 17.4449 0.732414 17.6128 0.710025V0.793982C17.4113 0.961893 17.2882 1.16898 17.2434 1.41525C17.1986 1.65033 17.1762 1.8966 17.1762 2.15406V12.447H16.8404L11.6016 1.39846V11.0869C11.6016 11.322 11.624 11.5571 11.6687 11.7922C11.7135 12.0161 11.8366 12.2064 12.0381 12.3631V12.447C11.8702 12.4246 11.7415 12.4079 11.6519 12.3967C11.5736 12.3743 11.5008 12.3631 11.4337 12.3631C11.2769 12.3631 11.1258 12.3911 10.9803 12.447Z" fill="var(--fill-0, #EFD1AB)"/>
<path d="M19.4315 4.20258C19.5882 4.20258 19.7449 4.19699 19.9016 4.18579C20.0696 4.1634 20.2319 4.14102 20.3886 4.11863V4.20258C20.1871 4.3593 20.064 4.5496 20.0192 4.77348C19.9744 4.99736 19.952 5.23244 19.952 5.47871V9.03843C19.952 10.0907 20.064 10.9078 20.2878 11.4899C20.5117 12.072 20.8363 12.3631 21.2617 12.3631C21.452 12.3631 21.6367 12.3015 21.8158 12.1784C22.0061 12.0552 22.1684 11.8761 22.3028 11.6411C22.4483 11.406 22.5658 11.1149 22.6554 10.7679C22.7449 10.4209 22.7897 10.0291 22.7897 9.59254V5.47871C22.7897 5.24363 22.7673 5.01415 22.7226 4.79027C22.6778 4.5552 22.5546 4.3593 22.3531 4.20258V4.11863C22.5211 4.14102 22.6834 4.1634 22.8401 4.18579C22.9968 4.19699 23.1591 4.20258 23.327 4.20258C23.4837 4.20258 23.6405 4.19699 23.7972 4.18579C23.9651 4.1634 24.1274 4.14102 24.2841 4.11863V4.20258C24.0826 4.3593 23.9595 4.5496 23.9147 4.77348C23.8699 4.99736 23.8476 5.23244 23.8476 5.47871V10.9358C23.8476 11.294 23.8867 11.5403 23.9651 11.6746C24.0547 11.7978 24.1442 11.8705 24.2338 11.8929V11.9769C24.1442 11.9769 24.0323 11.9881 23.8979 12.0105C23.7636 12.0329 23.6293 12.0664 23.4949 12.1112C23.3718 12.1448 23.2487 12.1896 23.1255 12.2455C23.0136 12.3015 22.9296 12.3687 22.8737 12.447H22.7897V10.8855C22.6442 11.4564 22.4091 11.8873 22.0845 12.1784C21.7599 12.4694 21.3849 12.6149 20.9595 12.6149C20.3214 12.6149 19.8177 12.3015 19.4483 11.6746C19.0789 11.0366 18.8942 10.1746 18.8942 9.0888V5.44513C18.8942 5.21005 18.8718 4.98617 18.827 4.77348C18.7822 4.5496 18.6591 4.3593 18.4576 4.20258V4.11863C18.6255 4.14102 18.7878 4.1634 18.9445 4.18579C19.1013 4.19699 19.2636 4.20258 19.4315 4.20258Z" fill="var(--fill-0, #EFD1AB)"/>
<path d="M25.1314 12.3967C25.3329 12.2847 25.4561 12.1504 25.5008 11.9937C25.5456 11.837 25.568 11.6746 25.568 11.5067V5.09251C25.568 4.7343 25.5232 4.49363 25.4337 4.37049C25.3553 4.23616 25.2714 4.15781 25.1818 4.13542V4.05146C25.2714 4.05146 25.3833 4.04027 25.5176 4.01788C25.652 3.99549 25.7807 3.96751 25.9038 3.93392C26.0381 3.88915 26.1613 3.83877 26.2732 3.7828C26.3964 3.72683 26.4859 3.65967 26.5419 3.58131H26.6258V11.4731C26.6258 11.6411 26.6482 11.809 26.693 11.9769C26.7378 12.1448 26.8609 12.2791 27.0624 12.3799V12.447C26.8945 12.4246 26.7322 12.4079 26.5755 12.3967C26.4187 12.3743 26.262 12.3631 26.1053 12.3631C25.9374 12.3631 25.7695 12.3743 25.6016 12.3967C25.4449 12.4079 25.2881 12.4246 25.1314 12.447V12.3967ZM25.3329 1.98615C25.3329 1.77346 25.3889 1.58317 25.5008 1.41525C25.624 1.23615 25.8031 1.1466 26.0381 1.1466C26.262 1.1466 26.4299 1.23055 26.5419 1.39846C26.665 1.56637 26.7266 1.75667 26.7266 1.96936C26.7266 2.18205 26.665 2.37235 26.5419 2.54026C26.4299 2.70817 26.2564 2.79213 26.0214 2.79213C25.7863 2.79213 25.6128 2.70817 25.5008 2.54026C25.3889 2.37235 25.3329 2.18765 25.3329 1.98615Z" fill="var(--fill-0, #EFD1AB)"/>
<path d="M27.9026 4.11863V3.95072C28.0929 3.93952 28.2664 3.85557 28.4231 3.69885C28.5911 3.53094 28.7366 3.33504 28.8597 3.11116C28.994 2.88728 29.1004 2.6578 29.1787 2.42272C29.2683 2.18765 29.3355 1.99735 29.3802 1.85182L29.5146 1.93578V3.95072H30.2366V4.11863H29.5146V10.8855C29.5146 11.3108 29.5481 11.6075 29.6153 11.7754C29.6937 11.9433 29.7944 12.0273 29.9176 12.0273C30.0631 12.0273 30.1862 11.9489 30.287 11.7922C30.3877 11.6355 30.4437 11.4675 30.4549 11.2884L30.5388 11.3052C30.5388 11.6634 30.4381 11.9657 30.2366 12.212C30.0463 12.4582 29.7944 12.5814 29.481 12.5814C29.1564 12.5814 28.9045 12.4526 28.7254 12.1952C28.5575 11.9265 28.4735 11.5683 28.4735 11.1205V4.11863H27.9026Z" fill="var(--fill-0, #EFD1AB)"/>
<path d="M37.413 3.95072C38.2637 3.95072 38.8234 4.40967 39.0921 5.32759V1.75108C39.0921 1.39287 39.0473 1.15219 38.9577 1.02906C38.8794 0.894728 38.7954 0.81637 38.7059 0.793982V0.710025C38.8962 0.710025 39.1369 0.670846 39.4279 0.592488C39.7189 0.514129 39.926 0.396591 40.0492 0.239873H40.1331V11.406C40.1331 11.7642 40.1723 12.0105 40.2507 12.1448C40.3402 12.2679 40.4298 12.3407 40.5193 12.3631V12.447H39.0921V10.9862C39.0249 11.1877 38.9298 11.3836 38.8066 11.5739C38.6947 11.753 38.5604 11.9153 38.4036 12.0608C38.2469 12.2064 38.0622 12.3239 37.8495 12.4134C37.6368 12.503 37.4018 12.5478 37.1443 12.5478C36.7077 12.5478 36.3215 12.4246 35.9857 12.1784C35.6611 11.9321 35.3924 11.6131 35.1797 11.2213C34.9671 10.8183 34.8047 10.3761 34.6928 9.89478C34.5921 9.40224 34.5417 8.92089 34.5417 8.45074C34.5417 7.9582 34.5976 7.44887 34.7096 6.92275C34.8327 6.38543 35.0118 5.89849 35.2469 5.46192C35.482 5.02535 35.7786 4.66714 36.1368 4.38729C36.495 4.09624 36.9204 3.95072 37.413 3.95072ZM37.3626 12.1784C37.6089 12.1784 37.8327 12.1168 38.0342 11.9937C38.2469 11.8705 38.4316 11.7138 38.5883 11.5235C38.7451 11.322 38.8682 11.0981 38.9577 10.8519C39.0473 10.5944 39.0921 10.3313 39.0921 10.0627V6.97312C39.0921 6.07759 38.9633 5.38916 38.7059 4.90781C38.4484 4.41527 38.079 4.169 37.5977 4.169C37.2059 4.169 36.8812 4.32012 36.6238 4.62236C36.3663 4.9246 36.1592 5.2996 36.0025 5.74737C35.857 6.19513 35.7506 6.66528 35.6835 7.15782C35.6275 7.65036 35.5995 8.09253 35.5995 8.48432C35.5995 8.76418 35.6163 9.11679 35.6499 9.54216C35.6947 9.96754 35.7786 10.3761 35.9018 10.7679C36.0361 11.1485 36.2152 11.4787 36.4391 11.7586C36.6742 12.0384 36.982 12.1784 37.3626 12.1784Z" fill="var(--fill-0, #EFD1AB)"/>
<path d="M43.9005 3.93392C44.2475 3.93392 44.561 4.00669 44.8408 4.15221C45.1319 4.28654 45.3725 4.46005 45.5628 4.67273C45.7643 4.87423 45.9098 5.09811 45.9994 5.34438C46.089 5.57946 46.1057 5.80334 46.0498 6.01603C46.005 6.21752 45.8763 6.39103 45.6636 6.53655C45.4621 6.67088 45.1654 6.73804 44.7736 6.73804H42.4061C42.3837 6.95073 42.3669 7.16342 42.3557 7.37611C42.3445 7.5888 42.3389 7.79029 42.3389 7.98059C42.3389 8.47313 42.3669 8.96567 42.4229 9.45821C42.4901 9.95075 42.5908 10.3929 42.7251 10.7847C42.8706 11.1765 43.0554 11.4955 43.2792 11.7418C43.5031 11.9881 43.7718 12.1112 44.0852 12.1112C44.3203 12.1112 44.5274 12.044 44.7065 11.9097C44.8856 11.7754 45.0423 11.6075 45.1766 11.406C45.311 11.2045 45.4229 10.9862 45.5125 10.7511C45.6132 10.5049 45.686 10.281 45.7307 10.0795C45.7867 9.86679 45.8203 9.68209 45.8315 9.52537C45.8539 9.36866 45.8595 9.2791 45.8483 9.25672H46.0162C46.0274 9.2903 46.0218 9.39664 45.9994 9.57575C45.9882 9.75485 45.9546 9.96754 45.8987 10.2138C45.8427 10.4601 45.7587 10.7231 45.6468 11.003C45.546 11.2828 45.4117 11.5459 45.2438 11.7922C45.0759 12.0273 44.8632 12.2232 44.6057 12.3799C44.3595 12.5366 44.0628 12.6149 43.7158 12.6149C43.268 12.6149 42.8874 12.4862 42.574 12.2287C42.2718 11.9601 42.0255 11.6187 41.8352 11.2045C41.6449 10.7791 41.505 10.309 41.4154 9.79403C41.3259 9.2791 41.2811 8.76418 41.2811 8.24925C41.2811 7.81268 41.3259 7.34253 41.4154 6.83879C41.505 6.32386 41.6505 5.85371 41.852 5.42834C42.0647 5.00296 42.3389 4.65035 42.6748 4.37049C43.0106 4.07945 43.4192 3.93392 43.9005 3.93392ZM44.5722 6.57013C44.7177 6.57013 44.824 6.50857 44.8912 6.38543C44.9695 6.2623 45.0143 6.11118 45.0255 5.93207C45.0479 5.75296 45.0367 5.55707 44.9919 5.34438C44.9583 5.13169 44.8912 4.9358 44.7904 4.75669C44.7009 4.57758 44.5777 4.42646 44.421 4.30333C44.2755 4.18019 44.1076 4.11863 43.9173 4.11863C43.671 4.11863 43.4639 4.20818 43.296 4.38729C43.1281 4.56639 42.9826 4.78468 42.8595 5.04214C42.7475 5.2996 42.658 5.56826 42.5908 5.84811C42.5236 6.12797 42.4733 6.36864 42.4397 6.57013H44.5722Z" fill="var(--fill-0, #EFD1AB)"/>
<path d="M0.676443 24.28V14.4908C0.676443 14.2333 0.536517 14.0654 0.256665 13.987V13.9031H2.96004C3.34064 13.9031 3.69325 13.9758 4.01788 14.1213C4.3537 14.2669 4.64475 14.4684 4.89102 14.7258C5.14848 14.9721 5.34998 15.2631 5.4955 15.599C5.64102 15.9236 5.71378 16.2762 5.71378 16.6568C5.71378 17.0598 5.62983 17.4404 5.46192 17.7986C5.29401 18.1568 5.07012 18.4759 4.79027 18.7557C4.51042 19.0244 4.18019 19.237 3.7996 19.3938C3.43019 19.5505 3.0328 19.6288 2.60742 19.6288H1.73428V24.3136C1.73428 24.5486 1.75667 24.7781 1.80145 25.002C1.84623 25.2147 1.96936 25.3994 2.17085 25.5561V25.6401C2.00294 25.6177 1.83503 25.6009 1.66712 25.5897C1.5104 25.5673 1.35369 25.5561 1.19697 25.5561C1.02906 25.5561 0.866743 25.5673 0.710025 25.5897C0.553308 25.6009 0.396591 25.6177 0.239873 25.6401V25.5561C0.441367 25.3994 0.564502 25.2091 0.609278 24.9852C0.654055 24.7613 0.676443 24.5263 0.676443 24.28ZM1.73428 14.071V19.4609H2.60742C3.23429 19.4609 3.72124 19.2147 4.06825 18.7221C4.41527 18.2296 4.58878 17.5467 4.58878 16.6736C4.58878 15.8676 4.44326 15.2352 4.15221 14.7762C3.86116 14.3061 3.46377 14.071 2.96004 14.071H1.73428Z" fill="var(--fill-0, #EFD1AB)"/>
<path d="M6.47096 25.5561C6.67245 25.3994 6.79559 25.2091 6.84037 24.9852C6.88514 24.7613 6.90753 24.5263 6.90753 24.28V14.9441C6.90753 14.5859 6.86275 14.3452 6.7732 14.2221C6.69484 14.0878 6.61089 14.0094 6.52133 13.987V13.9031C6.61089 13.9031 6.72283 13.8919 6.85716 13.8695C6.99149 13.8471 7.12022 13.8191 7.24335 13.7855C7.37768 13.7407 7.50082 13.6904 7.61276 13.6344C7.73589 13.5784 7.82545 13.5113 7.88142 13.4329H7.96537V24.28C7.96537 24.5151 7.98776 24.7501 8.03254 24.9852C8.07731 25.2091 8.20045 25.3994 8.40194 25.5561V25.6401C8.23403 25.6177 8.07172 25.6009 7.915 25.5897C7.75828 25.5673 7.60156 25.5561 7.44485 25.5561C7.27694 25.5561 7.10902 25.5673 6.94111 25.5897C6.78439 25.6009 6.62768 25.6177 6.47096 25.6401V25.5561Z" fill="var(--fill-0, #EFD1AB)"/>
<path d="M11.7776 17.127C12.1246 17.127 12.4381 17.1997 12.7179 17.3452C13.009 17.4796 13.2496 17.6531 13.4399 17.8658C13.6414 18.0673 13.787 18.2911 13.8765 18.5374C13.9661 18.7725 13.9829 18.9964 13.9269 19.2091C13.8821 19.4106 13.7534 19.5841 13.5407 19.7296C13.3392 19.8639 13.0425 19.9311 12.6508 19.9311H10.2832C10.2608 20.1438 10.244 20.3565 10.2328 20.5691C10.2216 20.7818 10.216 20.9833 10.216 21.1736C10.216 21.6662 10.244 22.1587 10.3 22.6512C10.3672 23.1438 10.4679 23.586 10.6022 23.9777C10.7478 24.3695 10.9325 24.6886 11.1563 24.9348C11.3802 25.1811 11.6489 25.3042 11.9623 25.3042C12.1974 25.3042 12.4045 25.2371 12.5836 25.1028C12.7627 24.9684 12.9194 24.8005 13.0537 24.599C13.1881 24.3975 13.3 24.1792 13.3896 23.9442C13.4903 23.6979 13.5631 23.474 13.6079 23.2725C13.6638 23.0598 13.6974 22.8751 13.7086 22.7184C13.731 22.5617 13.7366 22.4721 13.7254 22.4498H13.8933C13.9045 22.4833 13.8989 22.5897 13.8765 22.7688C13.8653 22.9479 13.8317 23.1606 13.7758 23.4068C13.7198 23.6531 13.6358 23.9162 13.5239 24.196C13.4231 24.4759 13.2888 24.7389 13.1209 24.9852C12.953 25.2203 12.7403 25.4162 12.4828 25.5729C12.2366 25.7296 11.9399 25.808 11.5929 25.808C11.1451 25.808 10.7646 25.6792 10.4511 25.4218C10.1489 25.1531 9.90261 24.8117 9.71231 24.3975C9.52201 23.9721 9.38208 23.502 9.29253 22.9871C9.20297 22.4721 9.1582 21.9572 9.1582 21.4423C9.1582 21.0057 9.20297 20.5356 9.29253 20.0318C9.38208 19.5169 9.5276 19.0467 9.7291 18.6214C9.94178 18.196 10.216 17.8434 10.5519 17.5635C10.8877 17.2725 11.2963 17.127 11.7776 17.127ZM12.4493 19.7632C12.5948 19.7632 12.7011 19.7016 12.7683 19.5785C12.8467 19.4553 12.8914 19.3042 12.9026 19.1251C12.925 18.946 12.9138 18.7501 12.869 18.5374C12.8355 18.3247 12.7683 18.1288 12.6675 17.9497C12.578 17.7706 12.4549 17.6195 12.2981 17.4964C12.1526 17.3732 11.9847 17.3117 11.7944 17.3117C11.5481 17.3117 11.341 17.4012 11.1731 17.5803C11.0052 17.7594 10.8597 17.9777 10.7366 18.2352C10.6246 18.4926 10.5351 18.7613 10.4679 19.0412C10.4007 19.321 10.3504 19.5617 10.3168 19.7632H12.4493Z" fill="var(--fill-0, #EFD1AB)"/>
<path d="M14.719 25.5897C14.9204 25.4778 15.0436 25.3434 15.0884 25.1867C15.1331 25.03 15.1555 24.8677 15.1555 24.6998V18.2856C15.1555 17.9273 15.1107 17.6867 15.0212 17.5635C14.9428 17.4292 14.8589 17.3508 14.7693 17.3285V17.2445C14.8589 17.2445 14.9708 17.2333 15.1051 17.2109C15.2395 17.1885 15.3682 17.1605 15.4913 17.127C15.6257 17.0822 15.7488 17.0318 15.8607 16.9758C15.9839 16.9199 16.0734 16.8527 16.1294 16.7743H16.2134V24.6662C16.2134 24.8341 16.2358 25.002 16.2805 25.1699C16.3253 25.3378 16.4484 25.4722 16.6499 25.5729V25.6401C16.482 25.6177 16.3197 25.6009 16.163 25.5897C16.0063 25.5673 15.8496 25.5561 15.6928 25.5561C15.5249 25.5561 15.357 25.5673 15.1891 25.5897C15.0324 25.6009 14.8757 25.6177 14.719 25.6401V25.5897ZM14.9204 15.1792C14.9204 14.9665 14.9764 14.7762 15.0884 14.6083C15.2115 14.4292 15.3906 14.3396 15.6257 14.3396C15.8496 14.3396 16.0175 14.4236 16.1294 14.5915C16.2525 14.7594 16.3141 14.9497 16.3141 15.1624C16.3141 15.3751 16.2525 15.5654 16.1294 15.7333C16.0175 15.9012 15.844 15.9852 15.6089 15.9852C15.3738 15.9852 15.2003 15.9012 15.0884 15.7333C14.9764 15.5654 14.9204 15.3807 14.9204 15.1792Z" fill="var(--fill-0, #EFD1AB)"/>
<path d="M17.9267 24.28V18.8229C17.9267 18.4647 17.8819 18.224 17.7924 18.1008C17.714 17.9665 17.6301 17.8882 17.5405 17.8658V17.7818C17.6301 17.7818 17.742 17.7706 17.8763 17.7482C18.0107 17.7258 18.1394 17.6979 18.2625 17.6643C18.3969 17.6195 18.52 17.5691 18.6319 17.5132C18.7551 17.4572 18.8446 17.39 18.9006 17.3117H18.9846V18.8732C19.1301 18.3023 19.3652 17.8714 19.6898 17.5803C20.0144 17.2893 20.3894 17.1438 20.8148 17.1438C21.4529 17.1438 21.9566 17.4628 22.326 18.1008C22.6954 18.7277 22.8801 19.5841 22.8801 20.6699V24.3136C22.8801 24.5486 22.9025 24.7781 22.9473 25.002C22.992 25.2147 23.1152 25.3994 23.3167 25.5561V25.6401C23.1488 25.6177 22.9864 25.6009 22.8297 25.5897C22.673 25.5673 22.5163 25.5561 22.3596 25.5561C22.1917 25.5561 22.0238 25.5673 21.8558 25.5897C21.6991 25.6009 21.5424 25.6177 21.3857 25.6401V25.5561C21.5872 25.3994 21.7103 25.2091 21.7551 24.9852C21.7999 24.7613 21.8223 24.5263 21.8223 24.28V20.7203C21.8223 19.668 21.7103 18.8509 21.4864 18.2688C21.2626 17.6867 20.9379 17.3956 20.5126 17.3956C20.3223 17.3956 20.132 17.4572 19.9417 17.5803C19.7625 17.7035 19.6002 17.8826 19.4547 18.1176C19.3204 18.3527 19.2084 18.6438 19.1189 18.9908C19.0293 19.3378 18.9846 19.7296 18.9846 20.1662V24.28C18.9846 24.5151 19.0069 24.7501 19.0517 24.9852C19.0965 25.2091 19.2196 25.3994 19.4211 25.5561V25.6401C19.2532 25.6177 19.0909 25.6009 18.9342 25.5897C18.7775 25.5673 18.6207 25.5561 18.464 25.5561C18.2961 25.5561 18.1282 25.5673 17.9603 25.5897C17.8036 25.6009 17.6469 25.6177 17.4901 25.6401V25.5561C17.6916 25.3994 17.8148 25.2091 17.8595 24.9852C17.9043 24.7613 17.9267 24.5263 17.9267 24.28Z" fill="var(--fill-0, #EFD1AB)"/>
<path d="M26.6994 17.127C27.0464 17.127 27.3599 17.1997 27.6397 17.3452C27.9308 17.4796 28.1715 17.6531 28.3618 17.8658C28.5632 18.0673 28.7088 18.2911 28.7983 18.5374C28.8879 18.7725 28.9047 18.9964 28.8487 19.2091C28.8039 19.4106 28.6752 19.5841 28.4625 19.7296C28.261 19.8639 27.9644 19.9311 27.5726 19.9311H25.205C25.1826 20.1438 25.1658 20.3565 25.1546 20.5691C25.1434 20.7818 25.1379 20.9833 25.1379 21.1736C25.1379 21.6662 25.1658 22.1587 25.2218 22.6512C25.289 23.1438 25.3897 23.586 25.524 23.9777C25.6696 24.3695 25.8543 24.6886 26.0782 24.9348C26.302 25.1811 26.5707 25.3042 26.8841 25.3042C27.1192 25.3042 27.3263 25.2371 27.5054 25.1028C27.6845 24.9684 27.8412 24.8005 27.9756 24.599C28.1099 24.3975 28.2218 24.1792 28.3114 23.9442C28.4121 23.6979 28.4849 23.474 28.5297 23.2725C28.5856 23.0598 28.6192 22.8751 28.6304 22.7184C28.6528 22.5617 28.6584 22.4721 28.6472 22.4498H28.8151C28.8263 22.4833 28.8207 22.5897 28.7983 22.7688C28.7871 22.9479 28.7535 23.1606 28.6976 23.4068C28.6416 23.6531 28.5576 23.9162 28.4457 24.196C28.345 24.4759 28.2106 24.7389 28.0427 24.9852C27.8748 25.2203 27.6621 25.4162 27.4047 25.5729C27.1584 25.7296 26.8617 25.808 26.5147 25.808C26.067 25.808 25.6864 25.6792 25.3729 25.4218C25.0707 25.1531 24.8244 24.8117 24.6341 24.3975C24.4438 23.9721 24.3039 23.502 24.2143 22.9871C24.1248 22.4721 24.08 21.9572 24.08 21.4423C24.08 21.0057 24.1248 20.5356 24.2143 20.0318C24.3039 19.5169 24.4494 19.0467 24.6509 18.6214C24.8636 18.196 25.1379 17.8434 25.4737 17.5635C25.8095 17.2725 26.2181 17.127 26.6994 17.127ZM27.3711 19.7632C27.5166 19.7632 27.6229 19.7016 27.6901 19.5785C27.7685 19.4553 27.8132 19.3042 27.8244 19.1251C27.8468 18.946 27.8356 18.7501 27.7909 18.5374C27.7573 18.3247 27.6901 18.1288 27.5894 17.9497C27.4998 17.7706 27.3767 17.6195 27.22 17.4964C27.0744 17.3732 26.9065 17.3117 26.7162 17.3117C26.4699 17.3117 26.2629 17.4012 26.0949 17.5803C25.927 17.7594 25.7815 17.9777 25.6584 18.2352C25.5464 18.4926 25.4569 18.7613 25.3897 19.0412C25.3226 19.321 25.2722 19.5617 25.2386 19.7632H27.3711Z" fill="var(--fill-0, #EFD1AB)"/>
<path d="M34.1073 13.987C34.2641 13.987 34.4208 13.9814 34.5775 13.9702C34.7342 13.9478 34.8965 13.9255 35.0644 13.9031V13.987C34.8629 14.1437 34.7398 14.334 34.695 14.5579C34.6503 14.7706 34.6279 14.9945 34.6279 15.2296V25.4722H35.9376C36.3629 25.4722 36.7044 25.3546 36.9618 25.1195C37.2193 24.8733 37.4208 24.5822 37.5663 24.2464C37.7118 23.9106 37.8182 23.5636 37.8853 23.2054C37.9525 22.8359 38.0029 22.5281 38.0365 22.2818H38.1708L37.9525 25.6401H33.167V25.5729C33.2678 25.4945 33.3573 25.3826 33.4357 25.2371C33.5252 25.0804 33.57 24.8565 33.57 24.5654V15.2631C33.57 15.0169 33.5476 14.7818 33.5029 14.5579C33.4581 14.334 33.3349 14.1437 33.1335 13.987V13.9031C33.2902 13.9255 33.4469 13.9478 33.6036 13.9702C33.7715 13.9814 33.9394 13.987 34.1073 13.987Z" fill="var(--fill-0, #EFD1AB)"/>
<path d="M39.7317 17.3956C39.8884 17.3956 40.0451 17.39 40.2019 17.3788C40.3698 17.3564 40.5321 17.3341 40.6888 17.3117V17.3956C40.4873 17.5523 40.3642 17.7426 40.3194 17.9665C40.2746 18.1904 40.2522 18.4255 40.2522 18.6717V22.2315C40.2522 23.2837 40.3642 24.1009 40.5881 24.683C40.8119 25.2651 41.1366 25.5561 41.5619 25.5561C41.7522 25.5561 41.9369 25.4945 42.1161 25.3714C42.3064 25.2483 42.4687 25.0692 42.603 24.8341C42.7485 24.599 42.8661 24.308 42.9556 23.961C43.0452 23.6139 43.0899 23.2221 43.0899 22.7856V18.6717C43.0899 18.4367 43.0676 18.2072 43.0228 17.9833C42.978 17.7482 42.8549 17.5523 42.6534 17.3956V17.3117C42.8213 17.3341 42.9836 17.3564 43.1403 17.3788C43.297 17.39 43.4593 17.3956 43.6273 17.3956C43.784 17.3956 43.9407 17.39 44.0974 17.3788C44.2653 17.3564 44.4276 17.3341 44.5844 17.3117V17.3956C44.3829 17.5523 44.2597 17.7426 44.2149 17.9665C44.1702 18.1904 44.1478 18.4255 44.1478 18.6717V24.1289C44.1478 24.4871 44.187 24.7333 44.2653 24.8677C44.3549 24.9908 44.4444 25.0636 44.534 25.086V25.1699C44.4444 25.1699 44.3325 25.1811 44.1982 25.2035C44.0638 25.2259 43.9295 25.2595 43.7952 25.3042C43.672 25.3378 43.5489 25.3826 43.4258 25.4386C43.3138 25.4945 43.2299 25.5617 43.1739 25.6401H43.0899V24.0785C42.9444 24.6494 42.7093 25.0804 42.3847 25.3714C42.0601 25.6625 41.6851 25.808 41.2597 25.808C40.6216 25.808 40.1179 25.4945 39.7485 24.8677C39.3791 24.2296 39.1944 23.3677 39.1944 22.2818V18.6382C39.1944 18.4031 39.172 18.1792 39.1272 17.9665C39.0825 17.7426 38.9593 17.5523 38.7578 17.3956V17.3117C38.9257 17.3341 39.0881 17.3564 39.2448 17.3788C39.4015 17.39 39.5638 17.3956 39.7317 17.3956Z" fill="var(--fill-0, #EFD1AB)"/>
<path d="M45.8682 24.28V18.8229C45.8682 18.4647 45.8234 18.224 45.7339 18.1008C45.6555 17.9665 45.5716 17.8882 45.482 17.8658V17.7818C45.5716 17.7818 45.6835 17.7706 45.8178 17.7482C45.9522 17.7258 46.0809 17.6979 46.204 17.6643C46.3384 17.6195 46.4615 17.5691 46.5734 17.5132C46.6966 17.4572 46.7861 17.39 46.8421 17.3117H46.9261V18.8732C47.0716 18.3023 47.3067 17.8714 47.6313 17.5803C47.9559 17.2893 48.3309 17.1438 48.7563 17.1438C49.3944 17.1438 49.8981 17.4628 50.2675 18.1008C50.6369 18.7277 50.8216 19.5841 50.8216 20.6699V24.3136C50.8216 24.5486 50.844 24.7781 50.8888 25.002C50.9335 25.2147 51.0567 25.3994 51.2582 25.5561V25.6401C51.0903 25.6177 50.9279 25.6009 50.7712 25.5897C50.6145 25.5673 50.4578 25.5561 50.3011 25.5561C50.1332 25.5561 49.9653 25.5673 49.7973 25.5897C49.6406 25.6009 49.4839 25.6177 49.3272 25.6401V25.5561C49.5287 25.3994 49.6518 25.2091 49.6966 24.9852C49.7414 24.7613 49.7638 24.5263 49.7638 24.28V20.7203C49.7638 19.668 49.6518 18.8509 49.4279 18.2688C49.2041 17.6867 48.8794 17.3956 48.4541 17.3956C48.2638 17.3956 48.0735 17.4572 47.8832 17.5803C47.704 17.7035 47.5417 17.8826 47.3962 18.1176C47.2619 18.3527 47.1499 18.6438 47.0604 18.9908C46.9708 19.3378 46.9261 19.7296 46.9261 20.1662V24.28C46.9261 24.5151 46.9485 24.7501 46.9932 24.9852C47.038 25.2091 47.1611 25.3994 47.3626 25.5561V25.6401C47.1947 25.6177 47.0324 25.6009 46.8757 25.5897C46.719 25.5673 46.5623 25.5561 46.4055 25.5561C46.2376 25.5561 46.0697 25.5673 45.9018 25.5897C45.7451 25.6009 45.5884 25.6177 45.4316 25.6401V25.5561C45.6331 25.3994 45.7563 25.2091 45.8011 24.9852C45.8458 24.7613 45.8682 24.5263 45.8682 24.28Z" fill="var(--fill-0, #EFD1AB)"/>
<path d="M54.6409 17.127C54.9879 17.127 55.3014 17.1997 55.5812 17.3452C55.8723 17.4796 56.113 17.6531 56.3033 17.8658C56.5047 18.0673 56.6503 18.2911 56.7398 18.5374C56.8294 18.7725 56.8462 18.9964 56.7902 19.2091C56.7454 19.4106 56.6167 19.5841 56.404 19.7296C56.2025 19.8639 55.9059 19.9311 55.5141 19.9311H53.1465C53.1241 20.1438 53.1073 20.3565 53.0961 20.5691C53.085 20.7818 53.0794 20.9833 53.0794 21.1736C53.0794 21.6662 53.1073 22.1587 53.1633 22.6512C53.2305 23.1438 53.3312 23.586 53.4656 23.9777C53.6111 24.3695 53.7958 24.6886 54.0197 24.9348C54.2435 25.1811 54.5122 25.3042 54.8256 25.3042C55.0607 25.3042 55.2678 25.2371 55.4469 25.1028C55.626 24.9684 55.7827 24.8005 55.9171 24.599C56.0514 24.3975 56.1633 24.1792 56.2529 23.9442C56.3536 23.6979 56.4264 23.474 56.4712 23.2725C56.5271 23.0598 56.5607 22.8751 56.5719 22.7184C56.5943 22.5617 56.5999 22.4721 56.5887 22.4498H56.7566C56.7678 22.4833 56.7622 22.5897 56.7398 22.7688C56.7286 22.9479 56.695 23.1606 56.6391 23.4068C56.5831 23.6531 56.4992 23.9162 56.3872 24.196C56.2865 24.4759 56.1521 24.7389 55.9842 24.9852C55.8163 25.2203 55.6036 25.4162 55.3462 25.5729C55.0999 25.7296 54.8032 25.808 54.4562 25.808C54.0085 25.808 53.6279 25.6792 53.3144 25.4218C53.0122 25.1531 52.7659 24.8117 52.5756 24.3975C52.3853 23.9721 52.2454 23.502 52.1558 22.9871C52.0663 22.4721 52.0215 21.9572 52.0215 21.4423C52.0215 21.0057 52.0663 20.5356 52.1558 20.0318C52.2454 19.5169 52.3909 19.0467 52.5924 18.6214C52.8051 18.196 53.0794 17.8434 53.4152 17.5635C53.751 17.2725 54.1596 17.127 54.6409 17.127ZM55.3126 19.7632C55.4581 19.7632 55.5644 19.7016 55.6316 19.5785C55.71 19.4553 55.7547 19.3042 55.7659 19.1251C55.7883 18.946 55.7771 18.7501 55.7324 18.5374C55.6988 18.3247 55.6316 18.1288 55.5309 17.9497C55.4413 17.7706 55.3182 17.6195 55.1615 17.4964C55.0159 17.3732 54.848 17.3117 54.6577 17.3117C54.4115 17.3117 54.2044 17.4012 54.0365 17.5803C53.8685 17.7594 53.723 17.9777 53.5999 18.2352C53.4879 18.4926 53.3984 18.7613 53.3312 19.0412C53.2641 19.321 53.2137 19.5617 53.1801 19.7632H55.3126Z" fill="var(--fill-0, #EFD1AB)"/>
<path d="M10.9803 12.447V12.3631C11.1818 12.2064 11.3049 12.0161 11.3497 11.7922C11.3945 11.5683 11.4169 11.3332 11.4169 11.0869V1.29772C11.4169 1.04025 11.2769 0.87234 10.9971 0.793982V0.710025H12.4579L16.9915 10.2642V2.13727C16.9915 1.87981 16.9691 1.63354 16.9244 1.39846C16.8796 1.16339 16.7565 0.961893 16.555 0.793982V0.710025C16.7005 0.765996 16.8516 0.793982 17.0083 0.793982C17.0755 0.793982 17.1482 0.788385 17.2266 0.77719C17.3162 0.754802 17.4449 0.732414 17.6128 0.710025V0.793982C17.4113 0.961893 17.2882 1.16898 17.2434 1.41525C17.1986 1.65033 17.1762 1.8966 17.1762 2.15406V12.447H16.8404L11.6016 1.39846V11.0869C11.6016 11.322 11.624 11.5571 11.6687 11.7922C11.7135 12.0161 11.8366 12.2064 12.0381 12.3631V12.447C11.8702 12.4246 11.7415 12.4079 11.6519 12.3967C11.5736 12.3743 11.5008 12.3631 11.4337 12.3631C11.2769 12.3631 11.1258 12.3911 10.9803 12.447Z" stroke="var(--stroke-0, #EFD1AB)" stroke-width="0.479747" mask="url(#path-1-outside-1_11_149)"/>
<path d="M19.4315 4.20258C19.5882 4.20258 19.7449 4.19699 19.9016 4.18579C20.0696 4.1634 20.2319 4.14102 20.3886 4.11863V4.20258C20.1871 4.3593 20.064 4.5496 20.0192 4.77348C19.9744 4.99736 19.952 5.23244 19.952 5.47871V9.03843C19.952 10.0907 20.064 10.9078 20.2878 11.4899C20.5117 12.072 20.8363 12.3631 21.2617 12.3631C21.452 12.3631 21.6367 12.3015 21.8158 12.1784C22.0061 12.0552 22.1684 11.8761 22.3028 11.6411C22.4483 11.406 22.5658 11.1149 22.6554 10.7679C22.7449 10.4209 22.7897 10.0291 22.7897 9.59254V5.47871C22.7897 5.24363 22.7673 5.01415 22.7226 4.79027C22.6778 4.5552 22.5546 4.3593 22.3531 4.20258V4.11863C22.5211 4.14102 22.6834 4.1634 22.8401 4.18579C22.9968 4.19699 23.1591 4.20258 23.327 4.20258C23.4837 4.20258 23.6405 4.19699 23.7972 4.18579C23.9651 4.1634 24.1274 4.14102 24.2841 4.11863V4.20258C24.0826 4.3593 23.9595 4.5496 23.9147 4.77348C23.8699 4.99736 23.8476 5.23244 23.8476 5.47871V10.9358C23.8476 11.294 23.8867 11.5403 23.9651 11.6746C24.0547 11.7978 24.1442 11.8705 24.2338 11.8929V11.9769C24.1442 11.9769 24.0323 11.9881 23.8979 12.0105C23.7636 12.0329 23.6293 12.0664 23.4949 12.1112C23.3718 12.1448 23.2487 12.1896 23.1255 12.2455C23.0136 12.3015 22.9296 12.3687 22.8737 12.447H22.7897V10.8855C22.6442 11.4564 22.4091 11.8873 22.0845 12.1784C21.7599 12.4694 21.3849 12.6149 20.9595 12.6149C20.3214 12.6149 19.8177 12.3015 19.4483 11.6746C19.0789 11.0366 18.8942 10.1746 18.8942 9.0888V5.44513C18.8942 5.21005 18.8718 4.98617 18.827 4.77348C18.7822 4.5496 18.6591 4.3593 18.4576 4.20258V4.11863C18.6255 4.14102 18.7878 4.1634 18.9445 4.18579C19.1013 4.19699 19.2636 4.20258 19.4315 4.20258Z" stroke="var(--stroke-0, #EFD1AB)" stroke-width="0.479747" mask="url(#path-1-outside-1_11_149)"/>
<path d="M25.1314 12.3967C25.3329 12.2847 25.4561 12.1504 25.5008 11.9937C25.5456 11.837 25.568 11.6746 25.568 11.5067V5.09251C25.568 4.7343 25.5232 4.49363 25.4337 4.37049C25.3553 4.23616 25.2714 4.15781 25.1818 4.13542V4.05146C25.2714 4.05146 25.3833 4.04027 25.5176 4.01788C25.652 3.99549 25.7807 3.96751 25.9038 3.93392C26.0381 3.88915 26.1613 3.83877 26.2732 3.7828C26.3964 3.72683 26.4859 3.65967 26.5419 3.58131H26.6258V11.4731C26.6258 11.6411 26.6482 11.809 26.693 11.9769C26.7378 12.1448 26.8609 12.2791 27.0624 12.3799V12.447C26.8945 12.4246 26.7322 12.4079 26.5755 12.3967C26.4187 12.3743 26.262 12.3631 26.1053 12.3631C25.9374 12.3631 25.7695 12.3743 25.6016 12.3967C25.4449 12.4079 25.2881 12.4246 25.1314 12.447V12.3967ZM25.3329 1.98615C25.3329 1.77346 25.3889 1.58317 25.5008 1.41525C25.624 1.23615 25.8031 1.1466 26.0381 1.1466C26.262 1.1466 26.4299 1.23055 26.5419 1.39846C26.665 1.56637 26.7266 1.75667 26.7266 1.96936C26.7266 2.18205 26.665 2.37235 26.5419 2.54026C26.4299 2.70817 26.2564 2.79213 26.0214 2.79213C25.7863 2.79213 25.6128 2.70817 25.5008 2.54026C25.3889 2.37235 25.3329 2.18765 25.3329 1.98615Z" stroke="var(--stroke-0, #EFD1AB)" stroke-width="0.479747" mask="url(#path-1-outside-1_11_149)"/>
<path d="M27.9026 4.11863V3.95072C28.0929 3.93952 28.2664 3.85557 28.4231 3.69885C28.5911 3.53094 28.7366 3.33504 28.8597 3.11116C28.994 2.88728 29.1004 2.6578 29.1787 2.42272C29.2683 2.18765 29.3355 1.99735 29.3802 1.85182L29.5146 1.93578V3.95072H30.2366V4.11863H29.5146V10.8855C29.5146 11.3108 29.5481 11.6075 29.6153 11.7754C29.6937 11.9433 29.7944 12.0273 29.9176 12.0273C30.0631 12.0273 30.1862 11.9489 30.287 11.7922C30.3877 11.6355 30.4437 11.4675 30.4549 11.2884L30.5388 11.3052C30.5388 11.6634 30.4381 11.9657 30.2366 12.212C30.0463 12.4582 29.7944 12.5814 29.481 12.5814C29.1564 12.5814 28.9045 12.4526 28.7254 12.1952C28.5575 11.9265 28.4735 11.5683 28.4735 11.1205V4.11863H27.9026Z" stroke="var(--stroke-0, #EFD1AB)" stroke-width="0.479747" mask="url(#path-1-outside-1_11_149)"/>
<path d="M37.413 3.95072C38.2637 3.95072 38.8234 4.40967 39.0921 5.32759V1.75108C39.0921 1.39287 39.0473 1.15219 38.9577 1.02906C38.8794 0.894728 38.7954 0.81637 38.7059 0.793982V0.710025C38.8962 0.710025 39.1369 0.670846 39.4279 0.592488C39.7189 0.514129 39.926 0.396591 40.0492 0.239873H40.1331V11.406C40.1331 11.7642 40.1723 12.0105 40.2507 12.1448C40.3402 12.2679 40.4298 12.3407 40.5193 12.3631V12.447H39.0921V10.9862C39.0249 11.1877 38.9298 11.3836 38.8066 11.5739C38.6947 11.753 38.5604 11.9153 38.4036 12.0608C38.2469 12.2064 38.0622 12.3239 37.8495 12.4134C37.6368 12.503 37.4018 12.5478 37.1443 12.5478C36.7077 12.5478 36.3215 12.4246 35.9857 12.1784C35.6611 11.9321 35.3924 11.6131 35.1797 11.2213C34.9671 10.8183 34.8047 10.3761 34.6928 9.89478C34.5921 9.40224 34.5417 8.92089 34.5417 8.45074C34.5417 7.9582 34.5976 7.44887 34.7096 6.92275C34.8327 6.38543 35.0118 5.89849 35.2469 5.46192C35.482 5.02535 35.7786 4.66714 36.1368 4.38729C36.495 4.09624 36.9204 3.95072 37.413 3.95072ZM37.3626 12.1784C37.6089 12.1784 37.8327 12.1168 38.0342 11.9937C38.2469 11.8705 38.4316 11.7138 38.5883 11.5235C38.7451 11.322 38.8682 11.0981 38.9577 10.8519C39.0473 10.5944 39.0921 10.3313 39.0921 10.0627V6.97312C39.0921 6.07759 38.9633 5.38916 38.7059 4.90781C38.4484 4.41527 38.079 4.169 37.5977 4.169C37.2059 4.169 36.8812 4.32012 36.6238 4.62236C36.3663 4.9246 36.1592 5.2996 36.0025 5.74737C35.857 6.19513 35.7506 6.66528 35.6835 7.15782C35.6275 7.65036 35.5995 8.09253 35.5995 8.48432C35.5995 8.76418 35.6163 9.11679 35.6499 9.54216C35.6947 9.96754 35.7786 10.3761 35.9018 10.7679C36.0361 11.1485 36.2152 11.4787 36.4391 11.7586C36.6742 12.0384 36.982 12.1784 37.3626 12.1784Z" stroke="var(--stroke-0, #EFD1AB)" stroke-width="0.479747" mask="url(#path-1-outside-1_11_149)"/>
<path d="M43.9005 3.93392C44.2475 3.93392 44.561 4.00669 44.8408 4.15221C45.1319 4.28654 45.3725 4.46005 45.5628 4.67273C45.7643 4.87423 45.9098 5.09811 45.9994 5.34438C46.089 5.57946 46.1057 5.80334 46.0498 6.01603C46.005 6.21752 45.8763 6.39103 45.6636 6.53655C45.4621 6.67088 45.1654 6.73804 44.7736 6.73804H42.4061C42.3837 6.95073 42.3669 7.16342 42.3557 7.37611C42.3445 7.5888 42.3389 7.79029 42.3389 7.98059C42.3389 8.47313 42.3669 8.96567 42.4229 9.45821C42.4901 9.95075 42.5908 10.3929 42.7251 10.7847C42.8706 11.1765 43.0554 11.4955 43.2792 11.7418C43.5031 11.9881 43.7718 12.1112 44.0852 12.1112C44.3203 12.1112 44.5274 12.044 44.7065 11.9097C44.8856 11.7754 45.0423 11.6075 45.1766 11.406C45.311 11.2045 45.4229 10.9862 45.5125 10.7511C45.6132 10.5049 45.686 10.281 45.7307 10.0795C45.7867 9.86679 45.8203 9.68209 45.8315 9.52537C45.8539 9.36866 45.8595 9.2791 45.8483 9.25672H46.0162C46.0274 9.2903 46.0218 9.39664 45.9994 9.57575C45.9882 9.75485 45.9546 9.96754 45.8987 10.2138C45.8427 10.4601 45.7587 10.7231 45.6468 11.003C45.546 11.2828 45.4117 11.5459 45.2438 11.7922C45.0759 12.0273 44.8632 12.2232 44.6057 12.3799C44.3595 12.5366 44.0628 12.6149 43.7158 12.6149C43.268 12.6149 42.8874 12.4862 42.574 12.2287C42.2718 11.9601 42.0255 11.6187 41.8352 11.2045C41.6449 10.7791 41.505 10.309 41.4154 9.79403C41.3259 9.2791 41.2811 8.76418 41.2811 8.24925C41.2811 7.81268 41.3259 7.34253 41.4154 6.83879C41.505 6.32386 41.6505 5.85371 41.852 5.42834C42.0647 5.00296 42.3389 4.65035 42.6748 4.37049C43.0106 4.07945 43.4192 3.93392 43.9005 3.93392ZM44.5722 6.57013C44.7177 6.57013 44.824 6.50857 44.8912 6.38543C44.9695 6.2623 45.0143 6.11118 45.0255 5.93207C45.0479 5.75296 45.0367 5.55707 44.9919 5.34438C44.9583 5.13169 44.8912 4.9358 44.7904 4.75669C44.7009 4.57758 44.5777 4.42646 44.421 4.30333C44.2755 4.18019 44.1076 4.11863 43.9173 4.11863C43.671 4.11863 43.4639 4.20818 43.296 4.38729C43.1281 4.56639 42.9826 4.78468 42.8595 5.04214C42.7475 5.2996 42.658 5.56826 42.5908 5.84811C42.5236 6.12797 42.4733 6.36864 42.4397 6.57013H44.5722Z" stroke="var(--stroke-0, #EFD1AB)" stroke-width="0.479747" mask="url(#path-1-outside-1_11_149)"/>
<path d="M0.676443 24.28V14.4908C0.676443 14.2333 0.536517 14.0654 0.256665 13.987V13.9031H2.96004C3.34064 13.9031 3.69325 13.9758 4.01788 14.1213C4.3537 14.2669 4.64475 14.4684 4.89102 14.7258C5.14848 14.9721 5.34998 15.2631 5.4955 15.599C5.64102 15.9236 5.71378 16.2762 5.71378 16.6568C5.71378 17.0598 5.62983 17.4404 5.46192 17.7986C5.29401 18.1568 5.07012 18.4759 4.79027 18.7557C4.51042 19.0244 4.18019 19.237 3.7996 19.3938C3.43019 19.5505 3.0328 19.6288 2.60742 19.6288H1.73428V24.3136C1.73428 24.5486 1.75667 24.7781 1.80145 25.002C1.84623 25.2147 1.96936 25.3994 2.17085 25.5561V25.6401C2.00294 25.6177 1.83503 25.6009 1.66712 25.5897C1.5104 25.5673 1.35369 25.5561 1.19697 25.5561C1.02906 25.5561 0.866743 25.5673 0.710025 25.5897C0.553308 25.6009 0.396591 25.6177 0.239873 25.6401V25.5561C0.441367 25.3994 0.564502 25.2091 0.609278 24.9852C0.654055 24.7613 0.676443 24.5263 0.676443 24.28ZM1.73428 14.071V19.4609H2.60742C3.23429 19.4609 3.72124 19.2147 4.06825 18.7221C4.41527 18.2296 4.58878 17.5467 4.58878 16.6736C4.58878 15.8676 4.44326 15.2352 4.15221 14.7762C3.86116 14.3061 3.46377 14.071 2.96004 14.071H1.73428Z" stroke="var(--stroke-0, #EFD1AB)" stroke-width="0.479747" mask="url(#path-1-outside-1_11_149)"/>
<path d="M6.47096 25.5561C6.67245 25.3994 6.79559 25.2091 6.84037 24.9852C6.88514 24.7613 6.90753 24.5263 6.90753 24.28V14.9441C6.90753 14.5859 6.86275 14.3452 6.7732 14.2221C6.69484 14.0878 6.61089 14.0094 6.52133 13.987V13.9031C6.61089 13.9031 6.72283 13.8919 6.85716 13.8695C6.99149 13.8471 7.12022 13.8191 7.24335 13.7855C7.37768 13.7407 7.50082 13.6904 7.61276 13.6344C7.73589 13.5784 7.82545 13.5113 7.88142 13.4329H7.96537V24.28C7.96537 24.5151 7.98776 24.7501 8.03254 24.9852C8.07731 25.2091 8.20045 25.3994 8.40194 25.5561V25.6401C8.23403 25.6177 8.07172 25.6009 7.915 25.5897C7.75828 25.5673 7.60156 25.5561 7.44485 25.5561C7.27694 25.5561 7.10902 25.5673 6.94111 25.5897C6.78439 25.6009 6.62768 25.6177 6.47096 25.6401V25.5561Z" stroke="var(--stroke-0, #EFD1AB)" stroke-width="0.479747" mask="url(#path-1-outside-1_11_149)"/>
<path d="M11.7776 17.127C12.1246 17.127 12.4381 17.1997 12.7179 17.3452C13.009 17.4796 13.2496 17.6531 13.4399 17.8658C13.6414 18.0673 13.787 18.2911 13.8765 18.5374C13.9661 18.7725 13.9829 18.9964 13.9269 19.2091C13.8821 19.4106 13.7534 19.5841 13.5407 19.7296C13.3392 19.8639 13.0425 19.9311 12.6508 19.9311H10.2832C10.2608 20.1438 10.244 20.3565 10.2328 20.5691C10.2216 20.7818 10.216 20.9833 10.216 21.1736C10.216 21.6662 10.244 22.1587 10.3 22.6512C10.3672 23.1438 10.4679 23.586 10.6022 23.9777C10.7478 24.3695 10.9325 24.6886 11.1563 24.9348C11.3802 25.1811 11.6489 25.3042 11.9623 25.3042C12.1974 25.3042 12.4045 25.2371 12.5836 25.1028C12.7627 24.9684 12.9194 24.8005 13.0537 24.599C13.1881 24.3975 13.3 24.1792 13.3896 23.9442C13.4903 23.6979 13.5631 23.474 13.6079 23.2725C13.6638 23.0598 13.6974 22.8751 13.7086 22.7184C13.731 22.5617 13.7366 22.4721 13.7254 22.4498H13.8933C13.9045 22.4833 13.8989 22.5897 13.8765 22.7688C13.8653 22.9479 13.8317 23.1606 13.7758 23.4068C13.7198 23.6531 13.6358 23.9162 13.5239 24.196C13.4231 24.4759 13.2888 24.7389 13.1209 24.9852C12.953 25.2203 12.7403 25.4162 12.4828 25.5729C12.2366 25.7296 11.9399 25.808 11.5929 25.808C11.1451 25.808 10.7646 25.6792 10.4511 25.4218C10.1489 25.1531 9.90261 24.8117 9.71231 24.3975C9.52201 23.9721 9.38208 23.502 9.29253 22.9871C9.20297 22.4721 9.1582 21.9572 9.1582 21.4423C9.1582 21.0057 9.20297 20.5356 9.29253 20.0318C9.38208 19.5169 9.5276 19.0467 9.7291 18.6214C9.94178 18.196 10.216 17.8434 10.5519 17.5635C10.8877 17.2725 11.2963 17.127 11.7776 17.127ZM12.4493 19.7632C12.5948 19.7632 12.7011 19.7016 12.7683 19.5785C12.8467 19.4553 12.8914 19.3042 12.9026 19.1251C12.925 18.946 12.9138 18.7501 12.869 18.5374C12.8355 18.3247 12.7683 18.1288 12.6675 17.9497C12.578 17.7706 12.4549 17.6195 12.2981 17.4964C12.1526 17.3732 11.9847 17.3117 11.7944 17.3117C11.5481 17.3117 11.341 17.4012 11.1731 17.5803C11.0052 17.7594 10.8597 17.9777 10.7366 18.2352C10.6246 18.4926 10.5351 18.7613 10.4679 19.0412C10.4007 19.321 10.3504 19.5617 10.3168 19.7632H12.4493Z" stroke="var(--stroke-0, #EFD1AB)" stroke-width="0.479747" mask="url(#path-1-outside-1_11_149)"/>
<path d="M14.719 25.5897C14.9204 25.4778 15.0436 25.3434 15.0884 25.1867C15.1331 25.03 15.1555 24.8677 15.1555 24.6998V18.2856C15.1555 17.9273 15.1107 17.6867 15.0212 17.5635C14.9428 17.4292 14.8589 17.3508 14.7693 17.3285V17.2445C14.8589 17.2445 14.9708 17.2333 15.1051 17.2109C15.2395 17.1885 15.3682 17.1605 15.4913 17.127C15.6257 17.0822 15.7488 17.0318 15.8607 16.9758C15.9839 16.9199 16.0734 16.8527 16.1294 16.7743H16.2134V24.6662C16.2134 24.8341 16.2358 25.002 16.2805 25.1699C16.3253 25.3378 16.4484 25.4722 16.6499 25.5729V25.6401C16.482 25.6177 16.3197 25.6009 16.163 25.5897C16.0063 25.5673 15.8496 25.5561 15.6928 25.5561C15.5249 25.5561 15.357 25.5673 15.1891 25.5897C15.0324 25.6009 14.8757 25.6177 14.719 25.6401V25.5897ZM14.9204 15.1792C14.9204 14.9665 14.9764 14.7762 15.0884 14.6083C15.2115 14.4292 15.3906 14.3396 15.6257 14.3396C15.8496 14.3396 16.0175 14.4236 16.1294 14.5915C16.2525 14.7594 16.3141 14.9497 16.3141 15.1624C16.3141 15.3751 16.2525 15.5654 16.1294 15.7333C16.0175 15.9012 15.844 15.9852 15.6089 15.9852C15.3738 15.9852 15.2003 15.9012 15.0884 15.7333C14.9764 15.5654 14.9204 15.3807 14.9204 15.1792Z" stroke="var(--stroke-0, #EFD1AB)" stroke-width="0.479747" mask="url(#path-1-outside-1_11_149)"/>
<path d="M17.9267 24.28V18.8229C17.9267 18.4647 17.8819 18.224 17.7924 18.1008C17.714 17.9665 17.6301 17.8882 17.5405 17.8658V17.7818C17.6301 17.7818 17.742 17.7706 17.8763 17.7482C18.0107 17.7258 18.1394 17.6979 18.2625 17.6643C18.3969 17.6195 18.52 17.5691 18.6319 17.5132C18.7551 17.4572 18.8446 17.39 18.9006 17.3117H18.9846V18.8732C19.1301 18.3023 19.3652 17.8714 19.6898 17.5803C20.0144 17.2893 20.3894 17.1438 20.8148 17.1438C21.4529 17.1438 21.9566 17.4628 22.326 18.1008C22.6954 18.7277 22.8801 19.5841 22.8801 20.6699V24.3136C22.8801 24.5486 22.9025 24.7781 22.9473 25.002C22.992 25.2147 23.1152 25.3994 23.3167 25.5561V25.6401C23.1488 25.6177 22.9864 25.6009 22.8297 25.5897C22.673 25.5673 22.5163 25.5561 22.3596 25.5561C22.1917 25.5561 22.0238 25.5673 21.8558 25.5897C21.6991 25.6009 21.5424 25.6177 21.3857 25.6401V25.5561C21.5872 25.3994 21.7103 25.2091 21.7551 24.9852C21.7999 24.7613 21.8223 24.5263 21.8223 24.28V20.7203C21.8223 19.668 21.7103 18.8509 21.4864 18.2688C21.2626 17.6867 20.9379 17.3956 20.5126 17.3956C20.3223 17.3956 20.132 17.4572 19.9417 17.5803C19.7625 17.7035 19.6002 17.8826 19.4547 18.1176C19.3204 18.3527 19.2084 18.6438 19.1189 18.9908C19.0293 19.3378 18.9846 19.7296 18.9846 20.1662V24.28C18.9846 24.5151 19.0069 24.7501 19.0517 24.9852C19.0965 25.2091 19.2196 25.3994 19.4211 25.5561V25.6401C19.2532 25.6177 19.0909 25.6009 18.9342 25.5897C18.7775 25.5673 18.6207 25.5561 18.464 25.5561C18.2961 25.5561 18.1282 25.5673 17.9603 25.5897C17.8036 25.6009 17.6469 25.6177 17.4901 25.6401V25.5561C17.6916 25.3994 17.8148 25.2091 17.8595 24.9852C17.9043 24.7613 17.9267 24.5263 17.9267 24.28Z" stroke="var(--stroke-0, #EFD1AB)" stroke-width="0.479747" mask="url(#path-1-outside-1_11_149)"/>
<path d="M26.6994 17.127C27.0464 17.127 27.3599 17.1997 27.6397 17.3452C27.9308 17.4796 28.1715 17.6531 28.3618 17.8658C28.5632 18.0673 28.7088 18.2911 28.7983 18.5374C28.8879 18.7725 28.9047 18.9964 28.8487 19.2091C28.8039 19.4106 28.6752 19.5841 28.4625 19.7296C28.261 19.8639 27.9644 19.9311 27.5726 19.9311H25.205C25.1826 20.1438 25.1658 20.3565 25.1546 20.5691C25.1434 20.7818 25.1379 20.9833 25.1379 21.1736C25.1379 21.6662 25.1658 22.1587 25.2218 22.6512C25.289 23.1438 25.3897 23.586 25.524 23.9777C25.6696 24.3695 25.8543 24.6886 26.0782 24.9348C26.302 25.1811 26.5707 25.3042 26.8841 25.3042C27.1192 25.3042 27.3263 25.2371 27.5054 25.1028C27.6845 24.9684 27.8412 24.8005 27.9756 24.599C28.1099 24.3975 28.2218 24.1792 28.3114 23.9442C28.4121 23.6979 28.4849 23.474 28.5297 23.2725C28.5856 23.0598 28.6192 22.8751 28.6304 22.7184C28.6528 22.5617 28.6584 22.4721 28.6472 22.4498H28.8151C28.8263 22.4833 28.8207 22.5897 28.7983 22.7688C28.7871 22.9479 28.7535 23.1606 28.6976 23.4068C28.6416 23.6531 28.5576 23.9162 28.4457 24.196C28.345 24.4759 28.2106 24.7389 28.0427 24.9852C27.8748 25.2203 27.6621 25.4162 27.4047 25.5729C27.1584 25.7296 26.8617 25.808 26.5147 25.808C26.067 25.808 25.6864 25.6792 25.3729 25.4218C25.0707 25.1531 24.8244 24.8117 24.6341 24.3975C24.4438 23.9721 24.3039 23.502 24.2143 22.9871C24.1248 22.4721 24.08 21.9572 24.08 21.4423C24.08 21.0057 24.1248 20.5356 24.2143 20.0318C24.3039 19.5169 24.4494 19.0467 24.6509 18.6214C24.8636 18.196 25.1379 17.8434 25.4737 17.5635C25.8095 17.2725 26.2181 17.127 26.6994 17.127ZM27.3711 19.7632C27.5166 19.7632 27.6229 19.7016 27.6901 19.5785C27.7685 19.4553 27.8132 19.3042 27.8244 19.1251C27.8468 18.946 27.8356 18.7501 27.7909 18.5374C27.7573 18.3247 27.6901 18.1288 27.5894 17.9497C27.4998 17.7706 27.3767 17.6195 27.22 17.4964C27.0744 17.3732 26.9065 17.3117 26.7162 17.3117C26.4699 17.3117 26.2629 17.4012 26.0949 17.5803C25.927 17.7594 25.7815 17.9777 25.6584 18.2352C25.5464 18.4926 25.4569 18.7613 25.3897 19.0412C25.3226 19.321 25.2722 19.5617 25.2386 19.7632H27.3711Z" stroke="var(--stroke-0, #EFD1AB)" stroke-width="0.479747" mask="url(#path-1-outside-1_11_149)"/>
<path d="M34.1073 13.987C34.2641 13.987 34.4208 13.9814 34.5775 13.9702C34.7342 13.9478 34.8965 13.9255 35.0644 13.9031V13.987C34.8629 14.1437 34.7398 14.334 34.695 14.5579C34.6503 14.7706 34.6279 14.9945 34.6279 15.2296V25.4722H35.9376C36.3629 25.4722 36.7044 25.3546 36.9618 25.1195C37.2193 24.8733 37.4208 24.5822 37.5663 24.2464C37.7118 23.9106 37.8182 23.5636 37.8853 23.2054C37.9525 22.8359 38.0029 22.5281 38.0365 22.2818H38.1708L37.9525 25.6401H33.167V25.5729C33.2678 25.4945 33.3573 25.3826 33.4357 25.2371C33.5252 25.0804 33.57 24.8565 33.57 24.5654V15.2631C33.57 15.0169 33.5476 14.7818 33.5029 14.5579C33.4581 14.334 33.3349 14.1437 33.1335 13.987V13.9031C33.2902 13.9255 33.4469 13.9478 33.6036 13.9702C33.7715 13.9814 33.9394 13.987 34.1073 13.987Z" stroke="var(--stroke-0, #EFD1AB)" stroke-width="0.479747" mask="url(#path-1-outside-1_11_149)"/>
<path d="M39.7317 17.3956C39.8884 17.3956 40.0451 17.39 40.2019 17.3788C40.3698 17.3564 40.5321 17.3341 40.6888 17.3117V17.3956C40.4873 17.5523 40.3642 17.7426 40.3194 17.9665C40.2746 18.1904 40.2522 18.4255 40.2522 18.6717V22.2315C40.2522 23.2837 40.3642 24.1009 40.5881 24.683C40.8119 25.2651 41.1366 25.5561 41.5619 25.5561C41.7522 25.5561 41.9369 25.4945 42.1161 25.3714C42.3064 25.2483 42.4687 25.0692 42.603 24.8341C42.7485 24.599 42.8661 24.308 42.9556 23.961C43.0452 23.6139 43.0899 23.2221 43.0899 22.7856V18.6717C43.0899 18.4367 43.0676 18.2072 43.0228 17.9833C42.978 17.7482 42.8549 17.5523 42.6534 17.3956V17.3117C42.8213 17.3341 42.9836 17.3564 43.1403 17.3788C43.297 17.39 43.4593 17.3956 43.6273 17.3956C43.784 17.3956 43.9407 17.39 44.0974 17.3788C44.2653 17.3564 44.4276 17.3341 44.5844 17.3117V17.3956C44.3829 17.5523 44.2597 17.7426 44.2149 17.9665C44.1702 18.1904 44.1478 18.4255 44.1478 18.6717V24.1289C44.1478 24.4871 44.187 24.7333 44.2653 24.8677C44.3549 24.9908 44.4444 25.0636 44.534 25.086V25.1699C44.4444 25.1699 44.3325 25.1811 44.1982 25.2035C44.0638 25.2259 43.9295 25.2595 43.7952 25.3042C43.672 25.3378 43.5489 25.3826 43.4258 25.4386C43.3138 25.4945 43.2299 25.5617 43.1739 25.6401H43.0899V24.0785C42.9444 24.6494 42.7093 25.0804 42.3847 25.3714C42.0601 25.6625 41.6851 25.808 41.2597 25.808C40.6216 25.808 40.1179 25.4945 39.7485 24.8677C39.3791 24.2296 39.1944 23.3677 39.1944 22.2818V18.6382C39.1944 18.4031 39.172 18.1792 39.1272 17.9665C39.0825 17.7426 38.9593 17.5523 38.7578 17.3956V17.3117C38.9257 17.3341 39.0881 17.3564 39.2448 17.3788C39.4015 17.39 39.5638 17.3956 39.7317 17.3956Z" stroke="var(--stroke-0, #EFD1AB)" stroke-width="0.479747" mask="url(#path-1-outside-1_11_149)"/>
<path d="M45.8682 24.28V18.8229C45.8682 18.4647 45.8234 18.224 45.7339 18.1008C45.6555 17.9665 45.5716 17.8882 45.482 17.8658V17.7818C45.5716 17.7818 45.6835 17.7706 45.8178 17.7482C45.9522 17.7258 46.0809 17.6979 46.204 17.6643C46.3384 17.6195 46.4615 17.5691 46.5734 17.5132C46.6966 17.4572 46.7861 17.39 46.8421 17.3117H46.9261V18.8732C47.0716 18.3023 47.3067 17.8714 47.6313 17.5803C47.9559 17.2893 48.3309 17.1438 48.7563 17.1438C49.3944 17.1438 49.8981 17.4628 50.2675 18.1008C50.6369 18.7277 50.8216 19.5841 50.8216 20.6699V24.3136C50.8216 24.5486 50.844 24.7781 50.8888 25.002C50.9335 25.2147 51.0567 25.3994 51.2582 25.5561V25.6401C51.0903 25.6177 50.9279 25.6009 50.7712 25.5897C50.6145 25.5673 50.4578 25.5561 50.3011 25.5561C50.1332 25.5561 49.9653 25.5673 49.7973 25.5897C49.6406 25.6009 49.4839 25.6177 49.3272 25.6401V25.5561C49.5287 25.3994 49.6518 25.2091 49.6966 24.9852C49.7414 24.7613 49.7638 24.5263 49.7638 24.28V20.7203C49.7638 19.668 49.6518 18.8509 49.4279 18.2688C49.2041 17.6867 48.8794 17.3956 48.4541 17.3956C48.2638 17.3956 48.0735 17.4572 47.8832 17.5803C47.704 17.7035 47.5417 17.8826 47.3962 18.1176C47.2619 18.3527 47.1499 18.6438 47.0604 18.9908C46.9708 19.3378 46.9261 19.7296 46.9261 20.1662V24.28C46.9261 24.5151 46.9485 24.7501 46.9932 24.9852C47.038 25.2091 47.1611 25.3994 47.3626 25.5561V25.6401C47.1947 25.6177 47.0324 25.6009 46.8757 25.5897C46.719 25.5673 46.5623 25.5561 46.4055 25.5561C46.2376 25.5561 46.0697 25.5673 45.9018 25.5897C45.7451 25.6009 45.5884 25.6177 45.4316 25.6401V25.5561C45.6331 25.3994 45.7563 25.2091 45.8011 24.9852C45.8458 24.7613 45.8682 24.5263 45.8682 24.28Z" stroke="var(--stroke-0, #EFD1AB)" stroke-width="0.479747" mask="url(#path-1-outside-1_11_149)"/>
<path d="M54.6409 17.127C54.9879 17.127 55.3014 17.1997 55.5812 17.3452C55.8723 17.4796 56.113 17.6531 56.3033 17.8658C56.5047 18.0673 56.6503 18.2911 56.7398 18.5374C56.8294 18.7725 56.8462 18.9964 56.7902 19.2091C56.7454 19.4106 56.6167 19.5841 56.404 19.7296C56.2025 19.8639 55.9059 19.9311 55.5141 19.9311H53.1465C53.1241 20.1438 53.1073 20.3565 53.0961 20.5691C53.085 20.7818 53.0794 20.9833 53.0794 21.1736C53.0794 21.6662 53.1073 22.1587 53.1633 22.6512C53.2305 23.1438 53.3312 23.586 53.4656 23.9777C53.6111 24.3695 53.7958 24.6886 54.0197 24.9348C54.2435 25.1811 54.5122 25.3042 54.8256 25.3042C55.0607 25.3042 55.2678 25.2371 55.4469 25.1028C55.626 24.9684 55.7827 24.8005 55.9171 24.599C56.0514 24.3975 56.1633 24.1792 56.2529 23.9442C56.3536 23.6979 56.4264 23.474 56.4712 23.2725C56.5271 23.0598 56.5607 22.8751 56.5719 22.7184C56.5943 22.5617 56.5999 22.4721 56.5887 22.4498H56.7566C56.7678 22.4833 56.7622 22.5897 56.7398 22.7688C56.7286 22.9479 56.695 23.1606 56.6391 23.4068C56.5831 23.6531 56.4992 23.9162 56.3872 24.196C56.2865 24.4759 56.1521 24.7389 55.9842 24.9852C55.8163 25.2203 55.6036 25.4162 55.3462 25.5729C55.0999 25.7296 54.8032 25.808 54.4562 25.808C54.0085 25.808 53.6279 25.6792 53.3144 25.4218C53.0122 25.1531 52.7659 24.8117 52.5756 24.3975C52.3853 23.9721 52.2454 23.502 52.1558 22.9871C52.0663 22.4721 52.0215 21.9572 52.0215 21.4423C52.0215 21.0057 52.0663 20.5356 52.1558 20.0318C52.2454 19.5169 52.3909 19.0467 52.5924 18.6214C52.8051 18.196 53.0794 17.8434 53.4152 17.5635C53.751 17.2725 54.1596 17.127 54.6409 17.127ZM55.3126 19.7632C55.4581 19.7632 55.5644 19.7016 55.6316 19.5785C55.71 19.4553 55.7547 19.3042 55.7659 19.1251C55.7883 18.946 55.7771 18.7501 55.7324 18.5374C55.6988 18.3247 55.6316 18.1288 55.5309 17.9497C55.4413 17.7706 55.3182 17.6195 55.1615 17.4964C55.0159 17.3732 54.848 17.3117 54.6577 17.3117C54.4115 17.3117 54.2044 17.4012 54.0365 17.5803C53.8685 17.7594 53.723 17.9777 53.5999 18.2352C53.4879 18.4926 53.3984 18.7613 53.3312 19.0412C53.2641 19.321 53.2137 19.5617 53.1801 19.7632H55.3126Z" stroke="var(--stroke-0, #EFD1AB)" stroke-width="0.479747" mask="url(#path-1-outside-1_11_149)"/>
</g>
</svg>
