<svg preserveAspectRatio="none" width="100%" height="100%" overflow="visible" style="display: block;" viewBox="0 0 70.2398 13.7567" fill="none" xmlns="http://www.w3.org/2000/svg">
<g id="L&#226;&#128;&#153;&#195;&#169;lan solaire">
<mask id="path-1-outside-1_9_131" maskUnits="userSpaceOnUse" x="-0.760127" y="-0.760127" width="71" height="15" fill="black">
<rect fill="white" x="-0.760127" y="-0.760127" width="71" height="15"/>
<path d="M1.28332 0.833561C1.45123 0.833561 1.61915 0.827564 1.78706 0.81557C1.95497 0.791583 2.12888 0.767595 2.30878 0.743608V0.833561C2.0929 1.00147 1.96097 1.20536 1.91299 1.44524C1.86502 1.67312 1.84103 1.91299 1.84103 2.16486V13.1391H3.24429C3.70005 13.1391 4.06585 13.0131 4.34171 12.7613C4.61756 12.4974 4.83345 12.1856 4.98937 11.8258C5.14528 11.4659 5.25922 11.0941 5.33119 10.7103C5.40315 10.3146 5.45712 9.98473 5.4931 9.72087H5.63703L5.40315 13.319H0.275854V13.247C0.383797 13.1631 0.479747 13.0431 0.563703 12.8872C0.659652 12.7193 0.707627 12.4794 0.707627 12.1676V2.20084C0.707627 1.93698 0.683639 1.68511 0.635665 1.44524C0.58769 1.20536 0.455759 1.00147 0.239873 0.833561V0.743608C0.407785 0.767595 0.575696 0.791583 0.743608 0.81557C0.923513 0.827564 1.10342 0.833561 1.28332 0.833561Z"/>
<path d="M6.26599 2.72256L6.64379 0.887532C6.66778 0.731614 6.72175 0.623671 6.80571 0.563703C6.88966 0.491741 6.97961 0.45576 7.07556 0.45576C7.20749 0.45576 7.32143 0.509731 7.41738 0.617675C7.51333 0.725618 7.52533 0.857548 7.45336 1.01347L6.6258 2.72256H6.26599Z"/>
<path d="M11.126 4.19779C11.4978 4.19779 11.8336 4.27574 12.1334 4.43166C12.4453 4.57559 12.7031 4.76149 12.907 4.98937C13.1229 5.20525 13.2788 5.44513 13.3748 5.70899C13.4707 5.96086 13.4887 6.20073 13.4287 6.42861C13.3808 6.64449 13.2428 6.8304 13.015 6.98631C12.7991 7.13024 12.4812 7.2022 12.0615 7.2022H9.5248C9.50081 7.43008 9.48282 7.65796 9.47083 7.88584C9.45884 8.11372 9.45284 8.32961 9.45284 8.5335C9.45284 9.06122 9.48282 9.58894 9.54279 10.1167C9.61475 10.6444 9.7227 11.1181 9.86662 11.5379C10.0225 11.9577 10.2204 12.2995 10.4603 12.5634C10.7002 12.8272 10.988 12.9592 11.3239 12.9592C11.5757 12.9592 11.7976 12.8872 11.9895 12.7433C12.1814 12.5994 12.3493 12.4194 12.4932 12.2036C12.6372 11.9877 12.7571 11.7538 12.853 11.5019C12.961 11.2381 13.0389 10.9982 13.0869 10.7823C13.1469 10.5544 13.1829 10.3565 13.1949 10.1886C13.2189 10.0207 13.2248 9.92476 13.2129 9.90078H13.3928C13.4048 9.93676 13.3988 10.0507 13.3748 10.2426C13.3628 10.4345 13.3268 10.6624 13.2668 10.9262C13.2069 11.1901 13.1169 11.4719 12.997 11.7718C12.889 12.0716 12.7451 12.3535 12.5652 12.6173C12.3853 12.8692 12.1574 13.0791 11.8816 13.247C11.6177 13.4149 11.2999 13.4989 10.9281 13.4989C10.4483 13.4989 10.0405 13.361 9.70471 13.0851C9.38088 12.7972 9.11702 12.4314 8.91312 11.9877C8.70923 11.5319 8.55931 11.0282 8.46336 10.4765C8.36741 9.92476 8.31944 9.37305 8.31944 8.82135C8.31944 8.35359 8.36741 7.84986 8.46336 7.31014C8.55931 6.75843 8.71523 6.2547 8.93111 5.79894C9.15899 5.34318 9.45284 4.96538 9.81265 4.66554C10.1725 4.3537 10.6102 4.19779 11.126 4.19779ZM11.8456 7.02229C12.0015 7.02229 12.1154 6.95633 12.1874 6.8244C12.2714 6.69247 12.3193 6.53055 12.3313 6.33866C12.3553 6.14676 12.3433 5.93687 12.2953 5.70899C12.2594 5.48111 12.1874 5.27122 12.0795 5.07932C11.9835 4.88742 11.8516 4.72551 11.6837 4.59358C11.5277 4.46165 11.3478 4.39568 11.1439 4.39568C10.8801 4.39568 10.6582 4.49163 10.4783 4.68353C10.2984 4.87543 10.1425 5.1093 10.0105 5.38516C9.89061 5.66101 9.79466 5.94886 9.7227 6.2487C9.65074 6.54854 9.59676 6.80641 9.56078 7.02229H11.8456ZM11.5757 1.55318C11.5997 1.39726 11.6537 1.28932 11.7376 1.22935C11.8216 1.15739 11.9115 1.12141 12.0075 1.12141C12.1394 1.12141 12.2534 1.17538 12.3493 1.28332C12.4453 1.39127 12.4573 1.5232 12.3853 1.67911L11.5577 3.38821H11.1979L11.5757 1.55318Z"/>
<path d="M14.6288 13.229C14.8447 13.0611 14.9766 12.8572 15.0246 12.6173C15.0725 12.3775 15.0965 12.1256 15.0965 11.8617V1.85902C15.0965 1.47522 15.0485 1.21736 14.9526 1.08543C14.8686 0.941504 14.7787 0.857548 14.6827 0.833561V0.743608C14.7787 0.743608 14.8986 0.731614 15.0425 0.707627C15.1865 0.68364 15.3244 0.653656 15.4563 0.617675C15.6003 0.5697 15.7322 0.515728 15.8521 0.45576C15.984 0.395792 16.08 0.323829 16.14 0.239873H16.2299V11.8617C16.2299 12.1136 16.2539 12.3655 16.3019 12.6173C16.3499 12.8572 16.4818 13.0611 16.6977 13.229V13.319C16.5178 13.295 16.3439 13.277 16.1759 13.265C16.008 13.241 15.8401 13.229 15.6722 13.229C15.4923 13.229 15.3124 13.241 15.1325 13.265C14.9646 13.277 14.7967 13.295 14.6288 13.319V13.229Z"/>
<path d="M21.5918 8.78536V6.91435C21.5918 5.23524 21.232 4.39568 20.5124 4.39568C20.3325 4.39568 20.1645 4.44965 20.0086 4.5576C19.8527 4.65354 19.7088 4.79147 19.5769 4.97138C19.4569 5.13929 19.361 5.33718 19.289 5.56506C19.217 5.79294 19.1811 6.02682 19.1811 6.26669L18.3355 5.61904C18.5394 5.19926 18.8392 4.86343 19.235 4.61157C19.6308 4.34771 20.0806 4.21578 20.5843 4.21578C21.244 4.21578 21.7597 4.45565 22.1315 4.9354C22.5153 5.40315 22.7072 6.08679 22.7072 6.98631V10.6204C22.7072 10.8363 22.7072 11.0642 22.7072 11.304C22.7072 11.5319 22.7132 11.7478 22.7252 11.9517C22.7492 12.1436 22.7792 12.3055 22.8151 12.4374C22.8631 12.5694 22.9291 12.6353 23.013 12.6353C23.097 12.6353 23.163 12.5754 23.2109 12.4554C23.2709 12.3355 23.3009 12.2515 23.3009 12.2036L23.4268 12.3295C23.4028 12.4374 23.3669 12.5574 23.3189 12.6893C23.2709 12.8092 23.2049 12.9232 23.121 13.0311C23.037 13.1391 22.9351 13.229 22.8151 13.301C22.7072 13.3729 22.5813 13.4089 22.4373 13.4089C22.1615 13.4089 21.9516 13.277 21.8077 13.0131C21.6638 12.7493 21.5918 12.4075 21.5918 11.9877V11.7358C21.3999 12.2156 21.1001 12.6353 20.6923 12.9951C20.2845 13.343 19.8287 13.5169 19.325 13.5169C19.0851 13.5169 18.8512 13.4689 18.6234 13.3729C18.4075 13.277 18.2156 13.1451 18.0477 12.9772C17.8798 12.8092 17.7478 12.6113 17.6519 12.3835C17.5559 12.1556 17.5079 11.9037 17.5079 11.6279C17.5079 11.2081 17.6219 10.8243 17.8498 10.4765C18.0896 10.1287 18.3955 9.82881 18.7673 9.57695C19.1511 9.32508 19.5888 9.13318 20.0806 9.00125C20.5723 8.85733 21.0761 8.78536 21.5918 8.78536ZM19.8107 13.0311C20.0386 13.0311 20.2545 12.9652 20.4584 12.8332C20.6743 12.6893 20.8662 12.5154 21.0341 12.3115C21.202 12.0956 21.3339 11.8677 21.4299 11.6279C21.5378 11.376 21.5918 11.1421 21.5918 10.9262V8.96527C21.172 8.97726 20.7822 9.04323 20.4224 9.16316C20.0626 9.2831 19.7508 9.44502 19.4869 9.64891C19.223 9.8528 19.0132 10.1047 18.8572 10.4045C18.7133 10.6924 18.6413 11.0222 18.6413 11.394C18.6413 11.8737 18.7493 12.2695 18.9652 12.5814C19.1931 12.8812 19.4749 13.0311 19.8107 13.0311Z"/>
<path d="M24.531 11.8617V6.01483C24.531 5.63103 24.483 5.37317 24.3871 5.24123C24.3031 5.09731 24.2132 5.01335 24.1172 4.98937V4.89941C24.2132 4.89941 24.3331 4.88742 24.477 4.86343C24.6209 4.83945 24.7589 4.80946 24.8908 4.77348C25.0347 4.72551 25.1667 4.67154 25.2866 4.61157C25.4185 4.5516 25.5145 4.47964 25.5744 4.39568H25.6644V6.0688C25.8203 5.45712 26.0722 4.99536 26.42 4.68353C26.7678 4.37169 27.1696 4.21578 27.6254 4.21578C28.309 4.21578 28.8487 4.5576 29.2445 5.24123C29.6403 5.91288 29.8382 6.8304 29.8382 7.99378V11.8977C29.8382 12.1496 29.8622 12.3955 29.9102 12.6353C29.9581 12.8632 30.0901 13.0611 30.3059 13.229V13.319C30.126 13.295 29.9521 13.277 29.7842 13.265C29.6163 13.241 29.4484 13.229 29.2805 13.229C29.1006 13.229 28.9207 13.241 28.7408 13.265C28.5729 13.277 28.4049 13.295 28.237 13.319V13.229C28.4529 13.0611 28.5849 12.8572 28.6328 12.6173C28.6808 12.3775 28.7048 12.1256 28.7048 11.8617V8.04775C28.7048 6.92035 28.5849 6.04481 28.345 5.42114C28.1051 4.79747 27.7573 4.48563 27.3015 4.48563C27.0976 4.48563 26.8937 4.5516 26.6899 4.68353C26.498 4.81546 26.324 5.00736 26.1681 5.25923C26.0242 5.51109 25.9043 5.82293 25.8083 6.19473C25.7124 6.56654 25.6644 6.98631 25.6644 7.45407V11.8617C25.6644 12.1136 25.6884 12.3655 25.7364 12.6173C25.7843 12.8572 25.9163 13.0611 26.1321 13.229V13.319C25.9522 13.295 25.7783 13.277 25.6104 13.265C25.4425 13.241 25.2746 13.229 25.1067 13.229C24.9268 13.229 24.7469 13.241 24.567 13.265C24.3991 13.277 24.2311 13.295 24.0632 13.319V13.229C24.2791 13.0611 24.4111 12.8572 24.459 12.6173C24.507 12.3775 24.531 12.1256 24.531 11.8617Z"/>
<path d="M37.0788 4.21578C37.5586 4.21578 37.9963 4.34771 38.3921 4.61157C38.7879 4.86343 39.0877 5.19926 39.2916 5.61904L38.4461 6.26669C38.4461 6.02682 38.4101 5.79294 38.3381 5.56506C38.2662 5.33718 38.1642 5.13929 38.0323 4.97138C37.9124 4.79147 37.7624 4.65354 37.5825 4.5576C37.4146 4.44965 37.2347 4.39568 37.0428 4.39568C36.695 4.39568 36.4072 4.5456 36.1793 4.84544C35.9634 5.14529 35.8555 5.4871 35.8555 5.8709C35.8555 6.20672 35.9394 6.50057 36.1073 6.75244C36.2752 7.0043 36.4851 7.24418 36.737 7.47206C36.9889 7.69994 37.2647 7.92182 37.5645 8.13771C37.8644 8.35359 38.1402 8.59946 38.3921 8.87532C38.644 9.13918 38.8539 9.43902 39.0218 9.77484C39.1897 10.0987 39.2736 10.4885 39.2736 10.9442C39.2736 11.316 39.2137 11.6578 39.0937 11.9697C38.9738 12.2695 38.8059 12.5334 38.59 12.7613C38.3741 12.9772 38.1223 13.1451 37.8344 13.265C37.5586 13.3849 37.2587 13.4449 36.9349 13.4449C36.5631 13.4449 36.2213 13.3669 35.9094 13.211C35.5976 13.0551 35.2918 12.8332 34.9919 12.5454V10.0267H35.1718C35.1958 10.4945 35.2678 10.9262 35.3877 11.322C35.5076 11.7178 35.6516 12.0596 35.8195 12.3475C35.9994 12.6353 36.1913 12.8632 36.3952 13.0311C36.6111 13.187 36.8149 13.265 37.0068 13.265C37.1628 13.265 37.3187 13.217 37.4746 13.1211C37.6305 13.0131 37.7684 12.8752 37.8884 12.7073C38.0083 12.5394 38.1043 12.3415 38.1762 12.1136C38.2482 11.8737 38.2842 11.6279 38.2842 11.376C38.2842 10.9802 38.2002 10.6384 38.0323 10.3505C37.8644 10.0507 37.6545 9.78084 37.4026 9.54097C37.1508 9.2891 36.8749 9.06122 36.5751 8.85733C36.2752 8.64144 35.9994 8.41956 35.7475 8.19168C35.4956 7.9518 35.2858 7.69394 35.1178 7.41809C34.9499 7.13024 34.866 6.80041 34.866 6.42861C34.866 6.15275 34.9139 5.8829 35.0099 5.61904C35.1178 5.35517 35.2678 5.1213 35.4597 4.91741C35.6516 4.70152 35.8854 4.53361 36.1613 4.41367C36.4371 4.28174 36.743 4.21578 37.0788 4.21578Z"/>
<path d="M40.0136 8.82135C40.0136 8.30562 40.0736 7.7779 40.1936 7.23818C40.3255 6.68647 40.5294 6.18873 40.8052 5.74497C41.0811 5.3012 41.4349 4.9354 41.8667 4.64755C42.2984 4.3597 42.8202 4.21578 43.4318 4.21578C44.0435 4.21578 44.5652 4.3597 44.997 4.64755C45.4288 4.9354 45.7826 5.3012 46.0585 5.74497C46.3343 6.18873 46.5322 6.68647 46.6521 7.23818C46.7841 7.7779 46.85 8.30562 46.85 8.82135C46.85 9.33707 46.7841 9.87079 46.6521 10.4225C46.5322 10.9622 46.3343 11.46 46.0585 11.9157C45.7826 12.3595 45.4288 12.7253 44.997 13.0131C44.5652 13.289 44.0435 13.4269 43.4318 13.4269C42.8202 13.4269 42.2984 13.289 41.8667 13.0131C41.4349 12.7253 41.0811 12.3595 40.8052 11.9157C40.5294 11.46 40.3255 10.9622 40.1936 10.4225C40.0736 9.87079 40.0136 9.33707 40.0136 8.82135ZM41.165 8.82135C41.165 9.24112 41.195 9.70888 41.255 10.2246C41.327 10.7283 41.4469 11.2081 41.6148 11.6638C41.7827 12.1076 42.0106 12.4854 42.2984 12.7972C42.5983 13.0971 42.9761 13.247 43.4318 13.247C43.8876 13.247 44.2594 13.0971 44.5473 12.7972C44.8471 12.4854 45.081 12.1076 45.2489 11.6638C45.4168 11.2081 45.5307 10.7283 45.5907 10.2246C45.6627 9.70888 45.6986 9.24112 45.6986 8.82135C45.6986 8.40157 45.6627 7.93981 45.5907 7.43608C45.5307 6.92035 45.4168 6.4406 45.2489 5.99684C45.081 5.54108 44.8471 5.16328 44.5473 4.86343C44.2594 4.5516 43.8876 4.39568 43.4318 4.39568C42.9761 4.39568 42.5983 4.5516 42.2984 4.86343C42.0106 5.16328 41.7827 5.54108 41.6148 5.99684C41.4469 6.4406 41.327 6.92035 41.255 7.43608C41.195 7.93981 41.165 8.40157 41.165 8.82135Z"/>
<path d="M47.6582 13.229C47.8741 13.0611 48.006 12.8572 48.054 12.6173C48.102 12.3775 48.126 12.1256 48.126 11.8617V1.85902C48.126 1.47522 48.078 1.21736 47.982 1.08543C47.8981 0.941504 47.8081 0.857548 47.7122 0.833561V0.743608C47.8081 0.743608 47.9281 0.731614 48.072 0.707627C48.2159 0.68364 48.3538 0.653656 48.4858 0.617675C48.6297 0.5697 48.7616 0.515728 48.8816 0.45576C49.0135 0.395792 49.1094 0.323829 49.1694 0.239873H49.2594V11.8617C49.2594 12.1136 49.2834 12.3655 49.3313 12.6173C49.3793 12.8572 49.5112 13.0611 49.7271 13.229V13.319C49.5472 13.295 49.3733 13.277 49.2054 13.265C49.0375 13.241 48.8696 13.229 48.7017 13.229C48.5218 13.229 48.3418 13.241 48.1619 13.265C47.994 13.277 47.8261 13.295 47.6582 13.319V13.229Z"/>
<path d="M54.6212 8.78536V6.91435C54.6212 5.23524 54.2614 4.39568 53.5418 4.39568C53.3619 4.39568 53.194 4.44965 53.0381 4.5576C52.8822 4.65354 52.7382 4.79147 52.6063 4.97138C52.4864 5.13929 52.3904 5.33718 52.3185 5.56506C52.2465 5.79294 52.2105 6.02682 52.2105 6.26669L51.365 5.61904C51.5688 5.19926 51.8687 4.86343 52.2645 4.61157C52.6603 4.34771 53.11 4.21578 53.6138 4.21578C54.2734 4.21578 54.7891 4.45565 55.161 4.9354C55.5447 5.40315 55.7366 6.08679 55.7366 6.98631V10.6204C55.7366 10.8363 55.7366 11.0642 55.7366 11.304C55.7366 11.5319 55.7426 11.7478 55.7546 11.9517C55.7786 12.1436 55.8086 12.3055 55.8446 12.4374C55.8926 12.5694 55.9585 12.6353 56.0425 12.6353C56.1264 12.6353 56.1924 12.5754 56.2404 12.4554C56.3004 12.3355 56.3303 12.2515 56.3303 12.2036L56.4563 12.3295C56.4323 12.4374 56.3963 12.5574 56.3483 12.6893C56.3004 12.8092 56.2344 12.9232 56.1504 13.0311C56.0665 13.1391 55.9645 13.229 55.8446 13.301C55.7367 13.3729 55.6107 13.4089 55.4668 13.4089C55.1909 13.4089 54.981 13.277 54.8371 13.0131C54.6932 12.7493 54.6212 12.4075 54.6212 11.9877V11.7358C54.4293 12.2156 54.1295 12.6353 53.7217 12.9951C53.3139 13.343 52.8582 13.5169 52.3544 13.5169C52.1146 13.5169 51.8807 13.4689 51.6528 13.3729C51.4369 13.277 51.245 13.1451 51.0771 12.9772C50.9092 12.8092 50.7773 12.6113 50.6813 12.3835C50.5854 12.1556 50.5374 11.9037 50.5374 11.6279C50.5374 11.2081 50.6513 10.8243 50.8792 10.4765C51.1191 10.1287 51.4249 9.82881 51.7967 9.57695C52.1805 9.32508 52.6183 9.13318 53.11 9.00125C53.6018 8.85733 54.1055 8.78536 54.6212 8.78536ZM52.8402 13.0311C53.0681 13.0311 53.2839 12.9652 53.4878 12.8332C53.7037 12.6893 53.8956 12.5154 54.0635 12.3115C54.2314 12.0956 54.3634 11.8677 54.4593 11.6279C54.5673 11.376 54.6212 11.1421 54.6212 10.9262V8.96527C54.2015 8.97726 53.8117 9.04323 53.4519 9.16316C53.092 9.2831 52.7802 9.44502 52.5163 9.64891C52.2525 9.8528 52.0426 10.1047 51.8867 10.4045C51.7428 10.6924 51.6708 11.0222 51.6708 11.394C51.6708 11.8737 51.7787 12.2695 51.9946 12.5814C52.2225 12.8812 52.5044 13.0311 52.8402 13.0311Z"/>
<path d="M57.0927 13.265C57.3086 13.1451 57.4405 13.0011 57.4885 12.8332C57.5365 12.6653 57.5604 12.4914 57.5604 12.3115V5.43913C57.5604 5.05533 57.5125 4.79747 57.4165 4.66554C57.3326 4.52161 57.2426 4.43766 57.1467 4.41367V4.32372C57.2426 4.32372 57.3625 4.31173 57.5065 4.28774C57.6504 4.26375 57.7883 4.23377 57.9202 4.19779C58.0642 4.14981 58.1961 4.09584 58.316 4.03587C58.448 3.9759 58.5439 3.90394 58.6039 3.81999H58.6938V12.2755C58.6938 12.4554 58.7178 12.6353 58.7658 12.8152C58.8138 12.9951 58.9457 13.1391 59.1616 13.247V13.319C58.9817 13.295 58.8078 13.277 58.6399 13.265C58.472 13.241 58.304 13.229 58.1361 13.229C57.9562 13.229 57.7763 13.241 57.5964 13.265C57.4285 13.277 57.2606 13.295 57.0927 13.319V13.265ZM57.3086 2.11089C57.3086 1.88301 57.3685 1.67911 57.4885 1.49921C57.6204 1.30731 57.8123 1.21136 58.0642 1.21136C58.304 1.21136 58.4839 1.30131 58.6039 1.48122C58.7358 1.66112 58.8018 1.86502 58.8018 2.0929C58.8018 2.32078 58.7358 2.52467 58.6039 2.70457C58.4839 2.88448 58.298 2.97443 58.0462 2.97443C57.7943 2.97443 57.6084 2.88448 57.4885 2.70457C57.3685 2.52467 57.3086 2.32677 57.3086 2.11089Z"/>
<path d="M60.0618 13.319V13.229C60.1578 13.205 60.2477 13.1271 60.3317 12.9951C60.4276 12.8512 60.4756 12.5874 60.4756 12.2036V6.01483C60.4756 5.63103 60.4276 5.37317 60.3317 5.24123C60.2477 5.09731 60.1578 5.01335 60.0618 4.98937V4.89941C60.2657 4.89941 60.5236 4.85744 60.8354 4.77348C61.1472 4.68953 61.3691 4.56359 61.5011 4.39568H61.591V6.08679C61.699 5.64302 61.8789 5.25323 62.1307 4.91741C62.3946 4.56959 62.7364 4.39568 63.1562 4.39568C63.504 4.39568 63.8098 4.52761 64.0737 4.79147C64.3496 5.04334 64.4875 5.36717 64.4875 5.76296L63.3361 5.83492C63.2881 5.55907 63.1982 5.36717 63.0662 5.25923C62.9343 5.13929 62.7964 5.07932 62.6525 5.07932C62.4606 5.07932 62.2926 5.17527 62.1487 5.36717C62.0168 5.54707 61.9088 5.76296 61.8249 6.01483C61.7409 6.2547 61.681 6.50057 61.645 6.75244C61.609 7.0043 61.591 7.1962 61.591 7.32813V12.2036C61.591 12.5874 61.633 12.8512 61.7169 12.9951C61.8129 13.1271 61.9088 13.205 62.0048 13.229V13.319H60.0618Z"/>
<path d="M67.6625 4.19779C68.0343 4.19779 68.3702 4.27574 68.67 4.43166C68.9818 4.57559 69.2397 4.76149 69.4436 4.98937C69.6595 5.20525 69.8154 5.44513 69.9113 5.70899C70.0073 5.96086 70.0253 6.20073 69.9653 6.42861C69.9173 6.64449 69.7794 6.8304 69.5515 6.98631C69.3356 7.13024 69.0178 7.2022 68.598 7.2022H66.0614C66.0374 7.43008 66.0194 7.65796 66.0074 7.88584C65.9954 8.11372 65.9894 8.32961 65.9894 8.5335C65.9894 9.06122 66.0194 9.58894 66.0794 10.1167C66.1513 10.6444 66.2593 11.1181 66.4032 11.5379C66.5591 11.9577 66.757 12.2995 66.9969 12.5634C67.2367 12.8272 67.5246 12.9592 67.8604 12.9592C68.1123 12.9592 68.3342 12.8872 68.5261 12.7433C68.718 12.5994 68.8859 12.4194 69.0298 12.2036C69.1737 11.9877 69.2937 11.7538 69.3896 11.5019C69.4976 11.2381 69.5755 10.9982 69.6235 10.7823C69.6835 10.5544 69.7194 10.3565 69.7314 10.1886C69.7554 10.0207 69.7614 9.92476 69.7494 9.90078H69.9293C69.9413 9.93676 69.9353 10.0507 69.9113 10.2426C69.8993 10.4345 69.8634 10.6624 69.8034 10.9262C69.7434 11.1901 69.6535 11.4719 69.5335 11.7718C69.4256 12.0716 69.2817 12.3535 69.1018 12.6173C68.9219 12.8692 68.694 13.0791 68.4181 13.247C68.1543 13.4149 67.8364 13.4989 67.4646 13.4989C66.9849 13.4989 66.5771 13.361 66.2413 13.0851C65.9174 12.7972 65.6536 12.4314 65.4497 11.9877C65.2458 11.5319 65.0959 11.0282 64.9999 10.4765C64.904 9.92476 64.856 9.37305 64.856 8.82135C64.856 8.35359 64.904 7.84986 64.9999 7.31014C65.0959 6.75843 65.2518 6.2547 65.4677 5.79894C65.6956 5.34318 65.9894 4.96538 66.3492 4.66554C66.709 4.3537 67.1468 4.19779 67.6625 4.19779ZM68.3821 7.02229C68.5381 7.02229 68.652 6.95633 68.724 6.8244C68.8079 6.69247 68.8559 6.53055 68.8679 6.33866C68.8919 6.14676 68.8799 5.93687 68.8319 5.70899C68.7959 5.48111 68.724 5.27122 68.616 5.07932C68.5201 4.88742 68.3881 4.72551 68.2202 4.59358C68.0643 4.46165 67.8844 4.39568 67.6805 4.39568C67.4167 4.39568 67.1948 4.49163 67.0149 4.68353C66.835 4.87543 66.679 5.1093 66.5471 5.38516C66.4272 5.66101 66.3312 5.94886 66.2593 6.2487C66.1873 6.54854 66.1333 6.80641 66.0974 7.02229H68.3821Z"/>
</mask>
<path d="M1.28332 0.833561C1.45123 0.833561 1.61915 0.827564 1.78706 0.81557C1.95497 0.791583 2.12888 0.767595 2.30878 0.743608V0.833561C2.0929 1.00147 1.96097 1.20536 1.91299 1.44524C1.86502 1.67312 1.84103 1.91299 1.84103 2.16486V13.1391H3.24429C3.70005 13.1391 4.06585 13.0131 4.34171 12.7613C4.61756 12.4974 4.83345 12.1856 4.98937 11.8258C5.14528 11.4659 5.25922 11.0941 5.33119 10.7103C5.40315 10.3146 5.45712 9.98473 5.4931 9.72087H5.63703L5.40315 13.319H0.275854V13.247C0.383797 13.1631 0.479747 13.0431 0.563703 12.8872C0.659652 12.7193 0.707627 12.4794 0.707627 12.1676V2.20084C0.707627 1.93698 0.683639 1.68511 0.635665 1.44524C0.58769 1.20536 0.455759 1.00147 0.239873 0.833561V0.743608C0.407785 0.767595 0.575696 0.791583 0.743608 0.81557C0.923513 0.827564 1.10342 0.833561 1.28332 0.833561Z" fill="var(--fill-0, #FFF5E2)"/>
<path d="M6.26599 2.72256L6.64379 0.887532C6.66778 0.731614 6.72175 0.623671 6.80571 0.563703C6.88966 0.491741 6.97961 0.45576 7.07556 0.45576C7.20749 0.45576 7.32143 0.509731 7.41738 0.617675C7.51333 0.725618 7.52533 0.857548 7.45336 1.01347L6.6258 2.72256H6.26599Z" fill="var(--fill-0, #FFF5E2)"/>
<path d="M11.126 4.19779C11.4978 4.19779 11.8336 4.27574 12.1334 4.43166C12.4453 4.57559 12.7031 4.76149 12.907 4.98937C13.1229 5.20525 13.2788 5.44513 13.3748 5.70899C13.4707 5.96086 13.4887 6.20073 13.4287 6.42861C13.3808 6.64449 13.2428 6.8304 13.015 6.98631C12.7991 7.13024 12.4812 7.2022 12.0615 7.2022H9.5248C9.50081 7.43008 9.48282 7.65796 9.47083 7.88584C9.45884 8.11372 9.45284 8.32961 9.45284 8.5335C9.45284 9.06122 9.48282 9.58894 9.54279 10.1167C9.61475 10.6444 9.7227 11.1181 9.86662 11.5379C10.0225 11.9577 10.2204 12.2995 10.4603 12.5634C10.7002 12.8272 10.988 12.9592 11.3239 12.9592C11.5757 12.9592 11.7976 12.8872 11.9895 12.7433C12.1814 12.5994 12.3493 12.4194 12.4932 12.2036C12.6372 11.9877 12.7571 11.7538 12.853 11.5019C12.961 11.2381 13.0389 10.9982 13.0869 10.7823C13.1469 10.5544 13.1829 10.3565 13.1949 10.1886C13.2189 10.0207 13.2248 9.92476 13.2129 9.90078H13.3928C13.4048 9.93676 13.3988 10.0507 13.3748 10.2426C13.3628 10.4345 13.3268 10.6624 13.2668 10.9262C13.2069 11.1901 13.1169 11.4719 12.997 11.7718C12.889 12.0716 12.7451 12.3535 12.5652 12.6173C12.3853 12.8692 12.1574 13.0791 11.8816 13.247C11.6177 13.4149 11.2999 13.4989 10.9281 13.4989C10.4483 13.4989 10.0405 13.361 9.70471 13.0851C9.38088 12.7972 9.11702 12.4314 8.91312 11.9877C8.70923 11.5319 8.55931 11.0282 8.46336 10.4765C8.36741 9.92476 8.31944 9.37305 8.31944 8.82135C8.31944 8.35359 8.36741 7.84986 8.46336 7.31014C8.55931 6.75843 8.71523 6.2547 8.93111 5.79894C9.15899 5.34318 9.45284 4.96538 9.81265 4.66554C10.1725 4.3537 10.6102 4.19779 11.126 4.19779ZM11.8456 7.02229C12.0015 7.02229 12.1154 6.95633 12.1874 6.8244C12.2714 6.69247 12.3193 6.53055 12.3313 6.33866C12.3553 6.14676 12.3433 5.93687 12.2953 5.70899C12.2594 5.48111 12.1874 5.27122 12.0795 5.07932C11.9835 4.88742 11.8516 4.72551 11.6837 4.59358C11.5277 4.46165 11.3478 4.39568 11.1439 4.39568C10.8801 4.39568 10.6582 4.49163 10.4783 4.68353C10.2984 4.87543 10.1425 5.1093 10.0105 5.38516C9.89061 5.66101 9.79466 5.94886 9.7227 6.2487C9.65074 6.54854 9.59676 6.80641 9.56078 7.02229H11.8456ZM11.5757 1.55318C11.5997 1.39726 11.6537 1.28932 11.7376 1.22935C11.8216 1.15739 11.9115 1.12141 12.0075 1.12141C12.1394 1.12141 12.2534 1.17538 12.3493 1.28332C12.4453 1.39127 12.4573 1.5232 12.3853 1.67911L11.5577 3.38821H11.1979L11.5757 1.55318Z" fill="var(--fill-0, #FFF5E2)"/>
<path d="M14.6288 13.229C14.8447 13.0611 14.9766 12.8572 15.0246 12.6173C15.0725 12.3775 15.0965 12.1256 15.0965 11.8617V1.85902C15.0965 1.47522 15.0485 1.21736 14.9526 1.08543C14.8686 0.941504 14.7787 0.857548 14.6827 0.833561V0.743608C14.7787 0.743608 14.8986 0.731614 15.0425 0.707627C15.1865 0.68364 15.3244 0.653656 15.4563 0.617675C15.6003 0.5697 15.7322 0.515728 15.8521 0.45576C15.984 0.395792 16.08 0.323829 16.14 0.239873H16.2299V11.8617C16.2299 12.1136 16.2539 12.3655 16.3019 12.6173C16.3499 12.8572 16.4818 13.0611 16.6977 13.229V13.319C16.5178 13.295 16.3439 13.277 16.1759 13.265C16.008 13.241 15.8401 13.229 15.6722 13.229C15.4923 13.229 15.3124 13.241 15.1325 13.265C14.9646 13.277 14.7967 13.295 14.6288 13.319V13.229Z" fill="var(--fill-0, #FFF5E2)"/>
<path d="M21.5918 8.78536V6.91435C21.5918 5.23524 21.232 4.39568 20.5124 4.39568C20.3325 4.39568 20.1645 4.44965 20.0086 4.5576C19.8527 4.65354 19.7088 4.79147 19.5769 4.97138C19.4569 5.13929 19.361 5.33718 19.289 5.56506C19.217 5.79294 19.1811 6.02682 19.1811 6.26669L18.3355 5.61904C18.5394 5.19926 18.8392 4.86343 19.235 4.61157C19.6308 4.34771 20.0806 4.21578 20.5843 4.21578C21.244 4.21578 21.7597 4.45565 22.1315 4.9354C22.5153 5.40315 22.7072 6.08679 22.7072 6.98631V10.6204C22.7072 10.8363 22.7072 11.0642 22.7072 11.304C22.7072 11.5319 22.7132 11.7478 22.7252 11.9517C22.7492 12.1436 22.7792 12.3055 22.8151 12.4374C22.8631 12.5694 22.9291 12.6353 23.013 12.6353C23.097 12.6353 23.163 12.5754 23.2109 12.4554C23.2709 12.3355 23.3009 12.2515 23.3009 12.2036L23.4268 12.3295C23.4028 12.4374 23.3669 12.5574 23.3189 12.6893C23.2709 12.8092 23.2049 12.9232 23.121 13.0311C23.037 13.1391 22.9351 13.229 22.8151 13.301C22.7072 13.3729 22.5813 13.4089 22.4373 13.4089C22.1615 13.4089 21.9516 13.277 21.8077 13.0131C21.6638 12.7493 21.5918 12.4075 21.5918 11.9877V11.7358C21.3999 12.2156 21.1001 12.6353 20.6923 12.9951C20.2845 13.343 19.8287 13.5169 19.325 13.5169C19.0851 13.5169 18.8512 13.4689 18.6234 13.3729C18.4075 13.277 18.2156 13.1451 18.0477 12.9772C17.8798 12.8092 17.7478 12.6113 17.6519 12.3835C17.5559 12.1556 17.5079 11.9037 17.5079 11.6279C17.5079 11.2081 17.6219 10.8243 17.8498 10.4765C18.0896 10.1287 18.3955 9.82881 18.7673 9.57695C19.1511 9.32508 19.5888 9.13318 20.0806 9.00125C20.5723 8.85733 21.0761 8.78536 21.5918 8.78536ZM19.8107 13.0311C20.0386 13.0311 20.2545 12.9652 20.4584 12.8332C20.6743 12.6893 20.8662 12.5154 21.0341 12.3115C21.202 12.0956 21.3339 11.8677 21.4299 11.6279C21.5378 11.376 21.5918 11.1421 21.5918 10.9262V8.96527C21.172 8.97726 20.7822 9.04323 20.4224 9.16316C20.0626 9.2831 19.7508 9.44502 19.4869 9.64891C19.223 9.8528 19.0132 10.1047 18.8572 10.4045C18.7133 10.6924 18.6413 11.0222 18.6413 11.394C18.6413 11.8737 18.7493 12.2695 18.9652 12.5814C19.1931 12.8812 19.4749 13.0311 19.8107 13.0311Z" fill="var(--fill-0, #FFF5E2)"/>
<path d="M24.531 11.8617V6.01483C24.531 5.63103 24.483 5.37317 24.3871 5.24123C24.3031 5.09731 24.2132 5.01335 24.1172 4.98937V4.89941C24.2132 4.89941 24.3331 4.88742 24.477 4.86343C24.6209 4.83945 24.7589 4.80946 24.8908 4.77348C25.0347 4.72551 25.1667 4.67154 25.2866 4.61157C25.4185 4.5516 25.5145 4.47964 25.5744 4.39568H25.6644V6.0688C25.8203 5.45712 26.0722 4.99536 26.42 4.68353C26.7678 4.37169 27.1696 4.21578 27.6254 4.21578C28.309 4.21578 28.8487 4.5576 29.2445 5.24123C29.6403 5.91288 29.8382 6.8304 29.8382 7.99378V11.8977C29.8382 12.1496 29.8622 12.3955 29.9102 12.6353C29.9581 12.8632 30.0901 13.0611 30.3059 13.229V13.319C30.126 13.295 29.9521 13.277 29.7842 13.265C29.6163 13.241 29.4484 13.229 29.2805 13.229C29.1006 13.229 28.9207 13.241 28.7408 13.265C28.5729 13.277 28.4049 13.295 28.237 13.319V13.229C28.4529 13.0611 28.5849 12.8572 28.6328 12.6173C28.6808 12.3775 28.7048 12.1256 28.7048 11.8617V8.04775C28.7048 6.92035 28.5849 6.04481 28.345 5.42114C28.1051 4.79747 27.7573 4.48563 27.3015 4.48563C27.0976 4.48563 26.8937 4.5516 26.6899 4.68353C26.498 4.81546 26.324 5.00736 26.1681 5.25923C26.0242 5.51109 25.9043 5.82293 25.8083 6.19473C25.7124 6.56654 25.6644 6.98631 25.6644 7.45407V11.8617C25.6644 12.1136 25.6884 12.3655 25.7364 12.6173C25.7843 12.8572 25.9163 13.0611 26.1321 13.229V13.319C25.9522 13.295 25.7783 13.277 25.6104 13.265C25.4425 13.241 25.2746 13.229 25.1067 13.229C24.9268 13.229 24.7469 13.241 24.567 13.265C24.3991 13.277 24.2311 13.295 24.0632 13.319V13.229C24.2791 13.0611 24.4111 12.8572 24.459 12.6173C24.507 12.3775 24.531 12.1256 24.531 11.8617Z" fill="var(--fill-0, #FFF5E2)"/>
<path d="M37.0788 4.21578C37.5586 4.21578 37.9963 4.34771 38.3921 4.61157C38.7879 4.86343 39.0877 5.19926 39.2916 5.61904L38.4461 6.26669C38.4461 6.02682 38.4101 5.79294 38.3381 5.56506C38.2662 5.33718 38.1642 5.13929 38.0323 4.97138C37.9124 4.79147 37.7624 4.65354 37.5825 4.5576C37.4146 4.44965 37.2347 4.39568 37.0428 4.39568C36.695 4.39568 36.4072 4.5456 36.1793 4.84544C35.9634 5.14529 35.8555 5.4871 35.8555 5.8709C35.8555 6.20672 35.9394 6.50057 36.1073 6.75244C36.2752 7.0043 36.4851 7.24418 36.737 7.47206C36.9889 7.69994 37.2647 7.92182 37.5645 8.13771C37.8644 8.35359 38.1402 8.59946 38.3921 8.87532C38.644 9.13918 38.8539 9.43902 39.0218 9.77484C39.1897 10.0987 39.2736 10.4885 39.2736 10.9442C39.2736 11.316 39.2137 11.6578 39.0937 11.9697C38.9738 12.2695 38.8059 12.5334 38.59 12.7613C38.3741 12.9772 38.1223 13.1451 37.8344 13.265C37.5586 13.3849 37.2587 13.4449 36.9349 13.4449C36.5631 13.4449 36.2213 13.3669 35.9094 13.211C35.5976 13.0551 35.2918 12.8332 34.9919 12.5454V10.0267H35.1718C35.1958 10.4945 35.2678 10.9262 35.3877 11.322C35.5076 11.7178 35.6516 12.0596 35.8195 12.3475C35.9994 12.6353 36.1913 12.8632 36.3952 13.0311C36.6111 13.187 36.8149 13.265 37.0068 13.265C37.1628 13.265 37.3187 13.217 37.4746 13.1211C37.6305 13.0131 37.7684 12.8752 37.8884 12.7073C38.0083 12.5394 38.1043 12.3415 38.1762 12.1136C38.2482 11.8737 38.2842 11.6279 38.2842 11.376C38.2842 10.9802 38.2002 10.6384 38.0323 10.3505C37.8644 10.0507 37.6545 9.78084 37.4026 9.54097C37.1508 9.2891 36.8749 9.06122 36.5751 8.85733C36.2752 8.64144 35.9994 8.41956 35.7475 8.19168C35.4956 7.9518 35.2858 7.69394 35.1178 7.41809C34.9499 7.13024 34.866 6.80041 34.866 6.42861C34.866 6.15275 34.9139 5.8829 35.0099 5.61904C35.1178 5.35517 35.2678 5.1213 35.4597 4.91741C35.6516 4.70152 35.8854 4.53361 36.1613 4.41367C36.4371 4.28174 36.743 4.21578 37.0788 4.21578Z" fill="var(--fill-0, #FFF5E2)"/>
<path d="M40.0136 8.82135C40.0136 8.30562 40.0736 7.7779 40.1936 7.23818C40.3255 6.68647 40.5294 6.18873 40.8052 5.74497C41.0811 5.3012 41.4349 4.9354 41.8667 4.64755C42.2984 4.3597 42.8202 4.21578 43.4318 4.21578C44.0435 4.21578 44.5652 4.3597 44.997 4.64755C45.4288 4.9354 45.7826 5.3012 46.0585 5.74497C46.3343 6.18873 46.5322 6.68647 46.6521 7.23818C46.7841 7.7779 46.85 8.30562 46.85 8.82135C46.85 9.33707 46.7841 9.87079 46.6521 10.4225C46.5322 10.9622 46.3343 11.46 46.0585 11.9157C45.7826 12.3595 45.4288 12.7253 44.997 13.0131C44.5652 13.289 44.0435 13.4269 43.4318 13.4269C42.8202 13.4269 42.2984 13.289 41.8667 13.0131C41.4349 12.7253 41.0811 12.3595 40.8052 11.9157C40.5294 11.46 40.3255 10.9622 40.1936 10.4225C40.0736 9.87079 40.0136 9.33707 40.0136 8.82135ZM41.165 8.82135C41.165 9.24112 41.195 9.70888 41.255 10.2246C41.327 10.7283 41.4469 11.2081 41.6148 11.6638C41.7827 12.1076 42.0106 12.4854 42.2984 12.7972C42.5983 13.0971 42.9761 13.247 43.4318 13.247C43.8876 13.247 44.2594 13.0971 44.5473 12.7972C44.8471 12.4854 45.081 12.1076 45.2489 11.6638C45.4168 11.2081 45.5307 10.7283 45.5907 10.2246C45.6627 9.70888 45.6986 9.24112 45.6986 8.82135C45.6986 8.40157 45.6627 7.93981 45.5907 7.43608C45.5307 6.92035 45.4168 6.4406 45.2489 5.99684C45.081 5.54108 44.8471 5.16328 44.5473 4.86343C44.2594 4.5516 43.8876 4.39568 43.4318 4.39568C42.9761 4.39568 42.5983 4.5516 42.2984 4.86343C42.0106 5.16328 41.7827 5.54108 41.6148 5.99684C41.4469 6.4406 41.327 6.92035 41.255 7.43608C41.195 7.93981 41.165 8.40157 41.165 8.82135Z" fill="var(--fill-0, #FFF5E2)"/>
<path d="M47.6582 13.229C47.8741 13.0611 48.006 12.8572 48.054 12.6173C48.102 12.3775 48.126 12.1256 48.126 11.8617V1.85902C48.126 1.47522 48.078 1.21736 47.982 1.08543C47.8981 0.941504 47.8081 0.857548 47.7122 0.833561V0.743608C47.8081 0.743608 47.9281 0.731614 48.072 0.707627C48.2159 0.68364 48.3538 0.653656 48.4858 0.617675C48.6297 0.5697 48.7616 0.515728 48.8816 0.45576C49.0135 0.395792 49.1094 0.323829 49.1694 0.239873H49.2594V11.8617C49.2594 12.1136 49.2834 12.3655 49.3313 12.6173C49.3793 12.8572 49.5112 13.0611 49.7271 13.229V13.319C49.5472 13.295 49.3733 13.277 49.2054 13.265C49.0375 13.241 48.8696 13.229 48.7017 13.229C48.5218 13.229 48.3418 13.241 48.1619 13.265C47.994 13.277 47.8261 13.295 47.6582 13.319V13.229Z" fill="var(--fill-0, #FFF5E2)"/>
<path d="M54.6212 8.78536V6.91435C54.6212 5.23524 54.2614 4.39568 53.5418 4.39568C53.3619 4.39568 53.194 4.44965 53.0381 4.5576C52.8822 4.65354 52.7382 4.79147 52.6063 4.97138C52.4864 5.13929 52.3904 5.33718 52.3185 5.56506C52.2465 5.79294 52.2105 6.02682 52.2105 6.26669L51.365 5.61904C51.5688 5.19926 51.8687 4.86343 52.2645 4.61157C52.6603 4.34771 53.11 4.21578 53.6138 4.21578C54.2734 4.21578 54.7891 4.45565 55.161 4.9354C55.5447 5.40315 55.7366 6.08679 55.7366 6.98631V10.6204C55.7366 10.8363 55.7366 11.0642 55.7366 11.304C55.7366 11.5319 55.7426 11.7478 55.7546 11.9517C55.7786 12.1436 55.8086 12.3055 55.8446 12.4374C55.8926 12.5694 55.9585 12.6353 56.0425 12.6353C56.1264 12.6353 56.1924 12.5754 56.2404 12.4554C56.3004 12.3355 56.3303 12.2515 56.3303 12.2036L56.4563 12.3295C56.4323 12.4374 56.3963 12.5574 56.3483 12.6893C56.3004 12.8092 56.2344 12.9232 56.1504 13.0311C56.0665 13.1391 55.9645 13.229 55.8446 13.301C55.7367 13.3729 55.6107 13.4089 55.4668 13.4089C55.1909 13.4089 54.981 13.277 54.8371 13.0131C54.6932 12.7493 54.6212 12.4075 54.6212 11.9877V11.7358C54.4293 12.2156 54.1295 12.6353 53.7217 12.9951C53.3139 13.343 52.8582 13.5169 52.3544 13.5169C52.1146 13.5169 51.8807 13.4689 51.6528 13.3729C51.4369 13.277 51.245 13.1451 51.0771 12.9772C50.9092 12.8092 50.7773 12.6113 50.6813 12.3835C50.5854 12.1556 50.5374 11.9037 50.5374 11.6279C50.5374 11.2081 50.6513 10.8243 50.8792 10.4765C51.1191 10.1287 51.4249 9.82881 51.7967 9.57695C52.1805 9.32508 52.6183 9.13318 53.11 9.00125C53.6018 8.85733 54.1055 8.78536 54.6212 8.78536ZM52.8402 13.0311C53.0681 13.0311 53.2839 12.9652 53.4878 12.8332C53.7037 12.6893 53.8956 12.5154 54.0635 12.3115C54.2314 12.0956 54.3634 11.8677 54.4593 11.6279C54.5673 11.376 54.6212 11.1421 54.6212 10.9262V8.96527C54.2015 8.97726 53.8117 9.04323 53.4519 9.16316C53.092 9.2831 52.7802 9.44502 52.5163 9.64891C52.2525 9.8528 52.0426 10.1047 51.8867 10.4045C51.7428 10.6924 51.6708 11.0222 51.6708 11.394C51.6708 11.8737 51.7787 12.2695 51.9946 12.5814C52.2225 12.8812 52.5044 13.0311 52.8402 13.0311Z" fill="var(--fill-0, #FFF5E2)"/>
<path d="M57.0927 13.265C57.3086 13.1451 57.4405 13.0011 57.4885 12.8332C57.5365 12.6653 57.5604 12.4914 57.5604 12.3115V5.43913C57.5604 5.05533 57.5125 4.79747 57.4165 4.66554C57.3326 4.52161 57.2426 4.43766 57.1467 4.41367V4.32372C57.2426 4.32372 57.3625 4.31173 57.5065 4.28774C57.6504 4.26375 57.7883 4.23377 57.9202 4.19779C58.0642 4.14981 58.1961 4.09584 58.316 4.03587C58.448 3.9759 58.5439 3.90394 58.6039 3.81999H58.6938V12.2755C58.6938 12.4554 58.7178 12.6353 58.7658 12.8152C58.8138 12.9951 58.9457 13.1391 59.1616 13.247V13.319C58.9817 13.295 58.8078 13.277 58.6399 13.265C58.472 13.241 58.304 13.229 58.1361 13.229C57.9562 13.229 57.7763 13.241 57.5964 13.265C57.4285 13.277 57.2606 13.295 57.0927 13.319V13.265ZM57.3086 2.11089C57.3086 1.88301 57.3685 1.67911 57.4885 1.49921C57.6204 1.30731 57.8123 1.21136 58.0642 1.21136C58.304 1.21136 58.4839 1.30131 58.6039 1.48122C58.7358 1.66112 58.8018 1.86502 58.8018 2.0929C58.8018 2.32078 58.7358 2.52467 58.6039 2.70457C58.4839 2.88448 58.298 2.97443 58.0462 2.97443C57.7943 2.97443 57.6084 2.88448 57.4885 2.70457C57.3685 2.52467 57.3086 2.32677 57.3086 2.11089Z" fill="var(--fill-0, #FFF5E2)"/>
<path d="M60.0618 13.319V13.229C60.1578 13.205 60.2477 13.1271 60.3317 12.9951C60.4276 12.8512 60.4756 12.5874 60.4756 12.2036V6.01483C60.4756 5.63103 60.4276 5.37317 60.3317 5.24123C60.2477 5.09731 60.1578 5.01335 60.0618 4.98937V4.89941C60.2657 4.89941 60.5236 4.85744 60.8354 4.77348C61.1472 4.68953 61.3691 4.56359 61.5011 4.39568H61.591V6.08679C61.699 5.64302 61.8789 5.25323 62.1307 4.91741C62.3946 4.56959 62.7364 4.39568 63.1562 4.39568C63.504 4.39568 63.8098 4.52761 64.0737 4.79147C64.3496 5.04334 64.4875 5.36717 64.4875 5.76296L63.3361 5.83492C63.2881 5.55907 63.1982 5.36717 63.0662 5.25923C62.9343 5.13929 62.7964 5.07932 62.6525 5.07932C62.4606 5.07932 62.2926 5.17527 62.1487 5.36717C62.0168 5.54707 61.9088 5.76296 61.8249 6.01483C61.7409 6.2547 61.681 6.50057 61.645 6.75244C61.609 7.0043 61.591 7.1962 61.591 7.32813V12.2036C61.591 12.5874 61.633 12.8512 61.7169 12.9951C61.8129 13.1271 61.9088 13.205 62.0048 13.229V13.319H60.0618Z" fill="var(--fill-0, #FFF5E2)"/>
<path d="M67.6625 4.19779C68.0343 4.19779 68.3702 4.27574 68.67 4.43166C68.9818 4.57559 69.2397 4.76149 69.4436 4.98937C69.6595 5.20525 69.8154 5.44513 69.9113 5.70899C70.0073 5.96086 70.0253 6.20073 69.9653 6.42861C69.9173 6.64449 69.7794 6.8304 69.5515 6.98631C69.3356 7.13024 69.0178 7.2022 68.598 7.2022H66.0614C66.0374 7.43008 66.0194 7.65796 66.0074 7.88584C65.9954 8.11372 65.9894 8.32961 65.9894 8.5335C65.9894 9.06122 66.0194 9.58894 66.0794 10.1167C66.1513 10.6444 66.2593 11.1181 66.4032 11.5379C66.5591 11.9577 66.757 12.2995 66.9969 12.5634C67.2367 12.8272 67.5246 12.9592 67.8604 12.9592C68.1123 12.9592 68.3342 12.8872 68.5261 12.7433C68.718 12.5994 68.8859 12.4194 69.0298 12.2036C69.1737 11.9877 69.2937 11.7538 69.3896 11.5019C69.4976 11.2381 69.5755 10.9982 69.6235 10.7823C69.6835 10.5544 69.7194 10.3565 69.7314 10.1886C69.7554 10.0207 69.7614 9.92476 69.7494 9.90078H69.9293C69.9413 9.93676 69.9353 10.0507 69.9113 10.2426C69.8993 10.4345 69.8634 10.6624 69.8034 10.9262C69.7434 11.1901 69.6535 11.4719 69.5335 11.7718C69.4256 12.0716 69.2817 12.3535 69.1018 12.6173C68.9219 12.8692 68.694 13.0791 68.4181 13.247C68.1543 13.4149 67.8364 13.4989 67.4646 13.4989C66.9849 13.4989 66.5771 13.361 66.2413 13.0851C65.9174 12.7972 65.6536 12.4314 65.4497 11.9877C65.2458 11.5319 65.0959 11.0282 64.9999 10.4765C64.904 9.92476 64.856 9.37305 64.856 8.82135C64.856 8.35359 64.904 7.84986 64.9999 7.31014C65.0959 6.75843 65.2518 6.2547 65.4677 5.79894C65.6956 5.34318 65.9894 4.96538 66.3492 4.66554C66.709 4.3537 67.1468 4.19779 67.6625 4.19779ZM68.3821 7.02229C68.5381 7.02229 68.652 6.95633 68.724 6.8244C68.8079 6.69247 68.8559 6.53055 68.8679 6.33866C68.8919 6.14676 68.8799 5.93687 68.8319 5.70899C68.7959 5.48111 68.724 5.27122 68.616 5.07932C68.5201 4.88742 68.3881 4.72551 68.2202 4.59358C68.0643 4.46165 67.8844 4.39568 67.6805 4.39568C67.4167 4.39568 67.1948 4.49163 67.0149 4.68353C66.835 4.87543 66.679 5.1093 66.5471 5.38516C66.4272 5.66101 66.3312 5.94886 66.2593 6.2487C66.1873 6.54854 66.1333 6.80641 66.0974 7.02229H68.3821Z" fill="var(--fill-0, #FFF5E2)"/>
<path d="M1.28332 0.833561C1.45123 0.833561 1.61915 0.827564 1.78706 0.81557C1.95497 0.791583 2.12888 0.767595 2.30878 0.743608V0.833561C2.0929 1.00147 1.96097 1.20536 1.91299 1.44524C1.86502 1.67312 1.84103 1.91299 1.84103 2.16486V13.1391H3.24429C3.70005 13.1391 4.06585 13.0131 4.34171 12.7613C4.61756 12.4974 4.83345 12.1856 4.98937 11.8258C5.14528 11.4659 5.25922 11.0941 5.33119 10.7103C5.40315 10.3146 5.45712 9.98473 5.4931 9.72087H5.63703L5.40315 13.319H0.275854V13.247C0.383797 13.1631 0.479747 13.0431 0.563703 12.8872C0.659652 12.7193 0.707627 12.4794 0.707627 12.1676V2.20084C0.707627 1.93698 0.683639 1.68511 0.635665 1.44524C0.58769 1.20536 0.455759 1.00147 0.239873 0.833561V0.743608C0.407785 0.767595 0.575696 0.791583 0.743608 0.81557C0.923513 0.827564 1.10342 0.833561 1.28332 0.833561Z" stroke="var(--stroke-0, #FFF5E2)" stroke-width="0.479747" mask="url(#path-1-outside-1_9_131)"/>
<path d="M6.26599 2.72256L6.64379 0.887532C6.66778 0.731614 6.72175 0.623671 6.80571 0.563703C6.88966 0.491741 6.97961 0.45576 7.07556 0.45576C7.20749 0.45576 7.32143 0.509731 7.41738 0.617675C7.51333 0.725618 7.52533 0.857548 7.45336 1.01347L6.6258 2.72256H6.26599Z" stroke="var(--stroke-0, #FFF5E2)" stroke-width="0.479747" mask="url(#path-1-outside-1_9_131)"/>
<path d="M11.126 4.19779C11.4978 4.19779 11.8336 4.27574 12.1334 4.43166C12.4453 4.57559 12.7031 4.76149 12.907 4.98937C13.1229 5.20525 13.2788 5.44513 13.3748 5.70899C13.4707 5.96086 13.4887 6.20073 13.4287 6.42861C13.3808 6.64449 13.2428 6.8304 13.015 6.98631C12.7991 7.13024 12.4812 7.2022 12.0615 7.2022H9.5248C9.50081 7.43008 9.48282 7.65796 9.47083 7.88584C9.45884 8.11372 9.45284 8.32961 9.45284 8.5335C9.45284 9.06122 9.48282 9.58894 9.54279 10.1167C9.61475 10.6444 9.7227 11.1181 9.86662 11.5379C10.0225 11.9577 10.2204 12.2995 10.4603 12.5634C10.7002 12.8272 10.988 12.9592 11.3239 12.9592C11.5757 12.9592 11.7976 12.8872 11.9895 12.7433C12.1814 12.5994 12.3493 12.4194 12.4932 12.2036C12.6372 11.9877 12.7571 11.7538 12.853 11.5019C12.961 11.2381 13.0389 10.9982 13.0869 10.7823C13.1469 10.5544 13.1829 10.3565 13.1949 10.1886C13.2189 10.0207 13.2248 9.92476 13.2129 9.90078H13.3928C13.4048 9.93676 13.3988 10.0507 13.3748 10.2426C13.3628 10.4345 13.3268 10.6624 13.2668 10.9262C13.2069 11.1901 13.1169 11.4719 12.997 11.7718C12.889 12.0716 12.7451 12.3535 12.5652 12.6173C12.3853 12.8692 12.1574 13.0791 11.8816 13.247C11.6177 13.4149 11.2999 13.4989 10.9281 13.4989C10.4483 13.4989 10.0405 13.361 9.70471 13.0851C9.38088 12.7972 9.11702 12.4314 8.91312 11.9877C8.70923 11.5319 8.55931 11.0282 8.46336 10.4765C8.36741 9.92476 8.31944 9.37305 8.31944 8.82135C8.31944 8.35359 8.36741 7.84986 8.46336 7.31014C8.55931 6.75843 8.71523 6.2547 8.93111 5.79894C9.15899 5.34318 9.45284 4.96538 9.81265 4.66554C10.1725 4.3537 10.6102 4.19779 11.126 4.19779ZM11.8456 7.02229C12.0015 7.02229 12.1154 6.95633 12.1874 6.8244C12.2714 6.69247 12.3193 6.53055 12.3313 6.33866C12.3553 6.14676 12.3433 5.93687 12.2953 5.70899C12.2594 5.48111 12.1874 5.27122 12.0795 5.07932C11.9835 4.88742 11.8516 4.72551 11.6837 4.59358C11.5277 4.46165 11.3478 4.39568 11.1439 4.39568C10.8801 4.39568 10.6582 4.49163 10.4783 4.68353C10.2984 4.87543 10.1425 5.1093 10.0105 5.38516C9.89061 5.66101 9.79466 5.94886 9.7227 6.2487C9.65074 6.54854 9.59676 6.80641 9.56078 7.02229H11.8456ZM11.5757 1.55318C11.5997 1.39726 11.6537 1.28932 11.7376 1.22935C11.8216 1.15739 11.9115 1.12141 12.0075 1.12141C12.1394 1.12141 12.2534 1.17538 12.3493 1.28332C12.4453 1.39127 12.4573 1.5232 12.3853 1.67911L11.5577 3.38821H11.1979L11.5757 1.55318Z" stroke="var(--stroke-0, #FFF5E2)" stroke-width="0.479747" mask="url(#path-1-outside-1_9_131)"/>
<path d="M14.6288 13.229C14.8447 13.0611 14.9766 12.8572 15.0246 12.6173C15.0725 12.3775 15.0965 12.1256 15.0965 11.8617V1.85902C15.0965 1.47522 15.0485 1.21736 14.9526 1.08543C14.8686 0.941504 14.7787 0.857548 14.6827 0.833561V0.743608C14.7787 0.743608 14.8986 0.731614 15.0425 0.707627C15.1865 0.68364 15.3244 0.653656 15.4563 0.617675C15.6003 0.5697 15.7322 0.515728 15.8521 0.45576C15.984 0.395792 16.08 0.323829 16.14 0.239873H16.2299V11.8617C16.2299 12.1136 16.2539 12.3655 16.3019 12.6173C16.3499 12.8572 16.4818 13.0611 16.6977 13.229V13.319C16.5178 13.295 16.3439 13.277 16.1759 13.265C16.008 13.241 15.8401 13.229 15.6722 13.229C15.4923 13.229 15.3124 13.241 15.1325 13.265C14.9646 13.277 14.7967 13.295 14.6288 13.319V13.229Z" stroke="var(--stroke-0, #FFF5E2)" stroke-width="0.479747" mask="url(#path-1-outside-1_9_131)"/>
<path d="M21.5918 8.78536V6.91435C21.5918 5.23524 21.232 4.39568 20.5124 4.39568C20.3325 4.39568 20.1645 4.44965 20.0086 4.5576C19.8527 4.65354 19.7088 4.79147 19.5769 4.97138C19.4569 5.13929 19.361 5.33718 19.289 5.56506C19.217 5.79294 19.1811 6.02682 19.1811 6.26669L18.3355 5.61904C18.5394 5.19926 18.8392 4.86343 19.235 4.61157C19.6308 4.34771 20.0806 4.21578 20.5843 4.21578C21.244 4.21578 21.7597 4.45565 22.1315 4.9354C22.5153 5.40315 22.7072 6.08679 22.7072 6.98631V10.6204C22.7072 10.8363 22.7072 11.0642 22.7072 11.304C22.7072 11.5319 22.7132 11.7478 22.7252 11.9517C22.7492 12.1436 22.7792 12.3055 22.8151 12.4374C22.8631 12.5694 22.9291 12.6353 23.013 12.6353C23.097 12.6353 23.163 12.5754 23.2109 12.4554C23.2709 12.3355 23.3009 12.2515 23.3009 12.2036L23.4268 12.3295C23.4028 12.4374 23.3669 12.5574 23.3189 12.6893C23.2709 12.8092 23.2049 12.9232 23.121 13.0311C23.037 13.1391 22.9351 13.229 22.8151 13.301C22.7072 13.3729 22.5813 13.4089 22.4373 13.4089C22.1615 13.4089 21.9516 13.277 21.8077 13.0131C21.6638 12.7493 21.5918 12.4075 21.5918 11.9877V11.7358C21.3999 12.2156 21.1001 12.6353 20.6923 12.9951C20.2845 13.343 19.8287 13.5169 19.325 13.5169C19.0851 13.5169 18.8512 13.4689 18.6234 13.3729C18.4075 13.277 18.2156 13.1451 18.0477 12.9772C17.8798 12.8092 17.7478 12.6113 17.6519 12.3835C17.5559 12.1556 17.5079 11.9037 17.5079 11.6279C17.5079 11.2081 17.6219 10.8243 17.8498 10.4765C18.0896 10.1287 18.3955 9.82881 18.7673 9.57695C19.1511 9.32508 19.5888 9.13318 20.0806 9.00125C20.5723 8.85733 21.0761 8.78536 21.5918 8.78536ZM19.8107 13.0311C20.0386 13.0311 20.2545 12.9652 20.4584 12.8332C20.6743 12.6893 20.8662 12.5154 21.0341 12.3115C21.202 12.0956 21.3339 11.8677 21.4299 11.6279C21.5378 11.376 21.5918 11.1421 21.5918 10.9262V8.96527C21.172 8.97726 20.7822 9.04323 20.4224 9.16316C20.0626 9.2831 19.7508 9.44502 19.4869 9.64891C19.223 9.8528 19.0132 10.1047 18.8572 10.4045C18.7133 10.6924 18.6413 11.0222 18.6413 11.394C18.6413 11.8737 18.7493 12.2695 18.9652 12.5814C19.1931 12.8812 19.4749 13.0311 19.8107 13.0311Z" stroke="var(--stroke-0, #FFF5E2)" stroke-width="0.479747" mask="url(#path-1-outside-1_9_131)"/>
<path d="M24.531 11.8617V6.01483C24.531 5.63103 24.483 5.37317 24.3871 5.24123C24.3031 5.09731 24.2132 5.01335 24.1172 4.98937V4.89941C24.2132 4.89941 24.3331 4.88742 24.477 4.86343C24.6209 4.83945 24.7589 4.80946 24.8908 4.77348C25.0347 4.72551 25.1667 4.67154 25.2866 4.61157C25.4185 4.5516 25.5145 4.47964 25.5744 4.39568H25.6644V6.0688C25.8203 5.45712 26.0722 4.99536 26.42 4.68353C26.7678 4.37169 27.1696 4.21578 27.6254 4.21578C28.309 4.21578 28.8487 4.5576 29.2445 5.24123C29.6403 5.91288 29.8382 6.8304 29.8382 7.99378V11.8977C29.8382 12.1496 29.8622 12.3955 29.9102 12.6353C29.9581 12.8632 30.0901 13.0611 30.3059 13.229V13.319C30.126 13.295 29.9521 13.277 29.7842 13.265C29.6163 13.241 29.4484 13.229 29.2805 13.229C29.1006 13.229 28.9207 13.241 28.7408 13.265C28.5729 13.277 28.4049 13.295 28.237 13.319V13.229C28.4529 13.0611 28.5849 12.8572 28.6328 12.6173C28.6808 12.3775 28.7048 12.1256 28.7048 11.8617V8.04775C28.7048 6.92035 28.5849 6.04481 28.345 5.42114C28.1051 4.79747 27.7573 4.48563 27.3015 4.48563C27.0976 4.48563 26.8937 4.5516 26.6899 4.68353C26.498 4.81546 26.324 5.00736 26.1681 5.25923C26.0242 5.51109 25.9043 5.82293 25.8083 6.19473C25.7124 6.56654 25.6644 6.98631 25.6644 7.45407V11.8617C25.6644 12.1136 25.6884 12.3655 25.7364 12.6173C25.7843 12.8572 25.9163 13.0611 26.1321 13.229V13.319C25.9522 13.295 25.7783 13.277 25.6104 13.265C25.4425 13.241 25.2746 13.229 25.1067 13.229C24.9268 13.229 24.7469 13.241 24.567 13.265C24.3991 13.277 24.2311 13.295 24.0632 13.319V13.229C24.2791 13.0611 24.4111 12.8572 24.459 12.6173C24.507 12.3775 24.531 12.1256 24.531 11.8617Z" stroke="var(--stroke-0, #FFF5E2)" stroke-width="0.479747" mask="url(#path-1-outside-1_9_131)"/>
<path d="M37.0788 4.21578C37.5586 4.21578 37.9963 4.34771 38.3921 4.61157C38.7879 4.86343 39.0877 5.19926 39.2916 5.61904L38.4461 6.26669C38.4461 6.02682 38.4101 5.79294 38.3381 5.56506C38.2662 5.33718 38.1642 5.13929 38.0323 4.97138C37.9124 4.79147 37.7624 4.65354 37.5825 4.5576C37.4146 4.44965 37.2347 4.39568 37.0428 4.39568C36.695 4.39568 36.4072 4.5456 36.1793 4.84544C35.9634 5.14529 35.8555 5.4871 35.8555 5.8709C35.8555 6.20672 35.9394 6.50057 36.1073 6.75244C36.2752 7.0043 36.4851 7.24418 36.737 7.47206C36.9889 7.69994 37.2647 7.92182 37.5645 8.13771C37.8644 8.35359 38.1402 8.59946 38.3921 8.87532C38.644 9.13918 38.8539 9.43902 39.0218 9.77484C39.1897 10.0987 39.2736 10.4885 39.2736 10.9442C39.2736 11.316 39.2137 11.6578 39.0937 11.9697C38.9738 12.2695 38.8059 12.5334 38.59 12.7613C38.3741 12.9772 38.1223 13.1451 37.8344 13.265C37.5586 13.3849 37.2587 13.4449 36.9349 13.4449C36.5631 13.4449 36.2213 13.3669 35.9094 13.211C35.5976 13.0551 35.2918 12.8332 34.9919 12.5454V10.0267H35.1718C35.1958 10.4945 35.2678 10.9262 35.3877 11.322C35.5076 11.7178 35.6516 12.0596 35.8195 12.3475C35.9994 12.6353 36.1913 12.8632 36.3952 13.0311C36.6111 13.187 36.8149 13.265 37.0068 13.265C37.1628 13.265 37.3187 13.217 37.4746 13.1211C37.6305 13.0131 37.7684 12.8752 37.8884 12.7073C38.0083 12.5394 38.1043 12.3415 38.1762 12.1136C38.2482 11.8737 38.2842 11.6279 38.2842 11.376C38.2842 10.9802 38.2002 10.6384 38.0323 10.3505C37.8644 10.0507 37.6545 9.78084 37.4026 9.54097C37.1508 9.2891 36.8749 9.06122 36.5751 8.85733C36.2752 8.64144 35.9994 8.41956 35.7475 8.19168C35.4956 7.9518 35.2858 7.69394 35.1178 7.41809C34.9499 7.13024 34.866 6.80041 34.866 6.42861C34.866 6.15275 34.9139 5.8829 35.0099 5.61904C35.1178 5.35517 35.2678 5.1213 35.4597 4.91741C35.6516 4.70152 35.8854 4.53361 36.1613 4.41367C36.4371 4.28174 36.743 4.21578 37.0788 4.21578Z" stroke="var(--stroke-0, #FFF5E2)" stroke-width="0.479747" mask="url(#path-1-outside-1_9_131)"/>
<path d="M40.0136 8.82135C40.0136 8.30562 40.0736 7.7779 40.1936 7.23818C40.3255 6.68647 40.5294 6.18873 40.8052 5.74497C41.0811 5.3012 41.4349 4.9354 41.8667 4.64755C42.2984 4.3597 42.8202 4.21578 43.4318 4.21578C44.0435 4.21578 44.5652 4.3597 44.997 4.64755C45.4288 4.9354 45.7826 5.3012 46.0585 5.74497C46.3343 6.18873 46.5322 6.68647 46.6521 7.23818C46.7841 7.7779 46.85 8.30562 46.85 8.82135C46.85 9.33707 46.7841 9.87079 46.6521 10.4225C46.5322 10.9622 46.3343 11.46 46.0585 11.9157C45.7826 12.3595 45.4288 12.7253 44.997 13.0131C44.5652 13.289 44.0435 13.4269 43.4318 13.4269C42.8202 13.4269 42.2984 13.289 41.8667 13.0131C41.4349 12.7253 41.0811 12.3595 40.8052 11.9157C40.5294 11.46 40.3255 10.9622 40.1936 10.4225C40.0736 9.87079 40.0136 9.33707 40.0136 8.82135ZM41.165 8.82135C41.165 9.24112 41.195 9.70888 41.255 10.2246C41.327 10.7283 41.4469 11.2081 41.6148 11.6638C41.7827 12.1076 42.0106 12.4854 42.2984 12.7972C42.5983 13.0971 42.9761 13.247 43.4318 13.247C43.8876 13.247 44.2594 13.0971 44.5473 12.7972C44.8471 12.4854 45.081 12.1076 45.2489 11.6638C45.4168 11.2081 45.5307 10.7283 45.5907 10.2246C45.6627 9.70888 45.6986 9.24112 45.6986 8.82135C45.6986 8.40157 45.6627 7.93981 45.5907 7.43608C45.5307 6.92035 45.4168 6.4406 45.2489 5.99684C45.081 5.54108 44.8471 5.16328 44.5473 4.86343C44.2594 4.5516 43.8876 4.39568 43.4318 4.39568C42.9761 4.39568 42.5983 4.5516 42.2984 4.86343C42.0106 5.16328 41.7827 5.54108 41.6148 5.99684C41.4469 6.4406 41.327 6.92035 41.255 7.43608C41.195 7.93981 41.165 8.40157 41.165 8.82135Z" stroke="var(--stroke-0, #FFF5E2)" stroke-width="0.479747" mask="url(#path-1-outside-1_9_131)"/>
<path d="M47.6582 13.229C47.8741 13.0611 48.006 12.8572 48.054 12.6173C48.102 12.3775 48.126 12.1256 48.126 11.8617V1.85902C48.126 1.47522 48.078 1.21736 47.982 1.08543C47.8981 0.941504 47.8081 0.857548 47.7122 0.833561V0.743608C47.8081 0.743608 47.9281 0.731614 48.072 0.707627C48.2159 0.68364 48.3538 0.653656 48.4858 0.617675C48.6297 0.5697 48.7616 0.515728 48.8816 0.45576C49.0135 0.395792 49.1094 0.323829 49.1694 0.239873H49.2594V11.8617C49.2594 12.1136 49.2834 12.3655 49.3313 12.6173C49.3793 12.8572 49.5112 13.0611 49.7271 13.229V13.319C49.5472 13.295 49.3733 13.277 49.2054 13.265C49.0375 13.241 48.8696 13.229 48.7017 13.229C48.5218 13.229 48.3418 13.241 48.1619 13.265C47.994 13.277 47.8261 13.295 47.6582 13.319V13.229Z" stroke="var(--stroke-0, #FFF5E2)" stroke-width="0.479747" mask="url(#path-1-outside-1_9_131)"/>
<path d="M54.6212 8.78536V6.91435C54.6212 5.23524 54.2614 4.39568 53.5418 4.39568C53.3619 4.39568 53.194 4.44965 53.0381 4.5576C52.8822 4.65354 52.7382 4.79147 52.6063 4.97138C52.4864 5.13929 52.3904 5.33718 52.3185 5.56506C52.2465 5.79294 52.2105 6.02682 52.2105 6.26669L51.365 5.61904C51.5688 5.19926 51.8687 4.86343 52.2645 4.61157C52.6603 4.34771 53.11 4.21578 53.6138 4.21578C54.2734 4.21578 54.7891 4.45565 55.161 4.9354C55.5447 5.40315 55.7366 6.08679 55.7366 6.98631V10.6204C55.7366 10.8363 55.7366 11.0642 55.7366 11.304C55.7366 11.5319 55.7426 11.7478 55.7546 11.9517C55.7786 12.1436 55.8086 12.3055 55.8446 12.4374C55.8926 12.5694 55.9585 12.6353 56.0425 12.6353C56.1264 12.6353 56.1924 12.5754 56.2404 12.4554C56.3004 12.3355 56.3303 12.2515 56.3303 12.2036L56.4563 12.3295C56.4323 12.4374 56.3963 12.5574 56.3483 12.6893C56.3004 12.8092 56.2344 12.9232 56.1504 13.0311C56.0665 13.1391 55.9645 13.229 55.8446 13.301C55.7367 13.3729 55.6107 13.4089 55.4668 13.4089C55.1909 13.4089 54.981 13.277 54.8371 13.0131C54.6932 12.7493 54.6212 12.4075 54.6212 11.9877V11.7358C54.4293 12.2156 54.1295 12.6353 53.7217 12.9951C53.3139 13.343 52.8582 13.5169 52.3544 13.5169C52.1146 13.5169 51.8807 13.4689 51.6528 13.3729C51.4369 13.277 51.245 13.1451 51.0771 12.9772C50.9092 12.8092 50.7773 12.6113 50.6813 12.3835C50.5854 12.1556 50.5374 11.9037 50.5374 11.6279C50.5374 11.2081 50.6513 10.8243 50.8792 10.4765C51.1191 10.1287 51.4249 9.82881 51.7967 9.57695C52.1805 9.32508 52.6183 9.13318 53.11 9.00125C53.6018 8.85733 54.1055 8.78536 54.6212 8.78536ZM52.8402 13.0311C53.0681 13.0311 53.2839 12.9652 53.4878 12.8332C53.7037 12.6893 53.8956 12.5154 54.0635 12.3115C54.2314 12.0956 54.3634 11.8677 54.4593 11.6279C54.5673 11.376 54.6212 11.1421 54.6212 10.9262V8.96527C54.2015 8.97726 53.8117 9.04323 53.4519 9.16316C53.092 9.2831 52.7802 9.44502 52.5163 9.64891C52.2525 9.8528 52.0426 10.1047 51.8867 10.4045C51.7428 10.6924 51.6708 11.0222 51.6708 11.394C51.6708 11.8737 51.7787 12.2695 51.9946 12.5814C52.2225 12.8812 52.5044 13.0311 52.8402 13.0311Z" stroke="var(--stroke-0, #FFF5E2)" stroke-width="0.479747" mask="url(#path-1-outside-1_9_131)"/>
<path d="M57.0927 13.265C57.3086 13.1451 57.4405 13.0011 57.4885 12.8332C57.5365 12.6653 57.5604 12.4914 57.5604 12.3115V5.43913C57.5604 5.05533 57.5125 4.79747 57.4165 4.66554C57.3326 4.52161 57.2426 4.43766 57.1467 4.41367V4.32372C57.2426 4.32372 57.3625 4.31173 57.5065 4.28774C57.6504 4.26375 57.7883 4.23377 57.9202 4.19779C58.0642 4.14981 58.1961 4.09584 58.316 4.03587C58.448 3.9759 58.5439 3.90394 58.6039 3.81999H58.6938V12.2755C58.6938 12.4554 58.7178 12.6353 58.7658 12.8152C58.8138 12.9951 58.9457 13.1391 59.1616 13.247V13.319C58.9817 13.295 58.8078 13.277 58.6399 13.265C58.472 13.241 58.304 13.229 58.1361 13.229C57.9562 13.229 57.7763 13.241 57.5964 13.265C57.4285 13.277 57.2606 13.295 57.0927 13.319V13.265ZM57.3086 2.11089C57.3086 1.88301 57.3685 1.67911 57.4885 1.49921C57.6204 1.30731 57.8123 1.21136 58.0642 1.21136C58.304 1.21136 58.4839 1.30131 58.6039 1.48122C58.7358 1.66112 58.8018 1.86502 58.8018 2.0929C58.8018 2.32078 58.7358 2.52467 58.6039 2.70457C58.4839 2.88448 58.298 2.97443 58.0462 2.97443C57.7943 2.97443 57.6084 2.88448 57.4885 2.70457C57.3685 2.52467 57.3086 2.32677 57.3086 2.11089Z" stroke="var(--stroke-0, #FFF5E2)" stroke-width="0.479747" mask="url(#path-1-outside-1_9_131)"/>
<path d="M60.0618 13.319V13.229C60.1578 13.205 60.2477 13.1271 60.3317 12.9951C60.4276 12.8512 60.4756 12.5874 60.4756 12.2036V6.01483C60.4756 5.63103 60.4276 5.37317 60.3317 5.24123C60.2477 5.09731 60.1578 5.01335 60.0618 4.98937V4.89941C60.2657 4.89941 60.5236 4.85744 60.8354 4.77348C61.1472 4.68953 61.3691 4.56359 61.5011 4.39568H61.591V6.08679C61.699 5.64302 61.8789 5.25323 62.1307 4.91741C62.3946 4.56959 62.7364 4.39568 63.1562 4.39568C63.504 4.39568 63.8098 4.52761 64.0737 4.79147C64.3496 5.04334 64.4875 5.36717 64.4875 5.76296L63.3361 5.83492C63.2881 5.55907 63.1982 5.36717 63.0662 5.25923C62.9343 5.13929 62.7964 5.07932 62.6525 5.07932C62.4606 5.07932 62.2926 5.17527 62.1487 5.36717C62.0168 5.54707 61.9088 5.76296 61.8249 6.01483C61.7409 6.2547 61.681 6.50057 61.645 6.75244C61.609 7.0043 61.591 7.1962 61.591 7.32813V12.2036C61.591 12.5874 61.633 12.8512 61.7169 12.9951C61.8129 13.1271 61.9088 13.205 62.0048 13.229V13.319H60.0618Z" stroke="var(--stroke-0, #FFF5E2)" stroke-width="0.479747" mask="url(#path-1-outside-1_9_131)"/>
<path d="M67.6625 4.19779C68.0343 4.19779 68.3702 4.27574 68.67 4.43166C68.9818 4.57559 69.2397 4.76149 69.4436 4.98937C69.6595 5.20525 69.8154 5.44513 69.9113 5.70899C70.0073 5.96086 70.0253 6.20073 69.9653 6.42861C69.9173 6.64449 69.7794 6.8304 69.5515 6.98631C69.3356 7.13024 69.0178 7.2022 68.598 7.2022H66.0614C66.0374 7.43008 66.0194 7.65796 66.0074 7.88584C65.9954 8.11372 65.9894 8.32961 65.9894 8.5335C65.9894 9.06122 66.0194 9.58894 66.0794 10.1167C66.1513 10.6444 66.2593 11.1181 66.4032 11.5379C66.5591 11.9577 66.757 12.2995 66.9969 12.5634C67.2367 12.8272 67.5246 12.9592 67.8604 12.9592C68.1123 12.9592 68.3342 12.8872 68.5261 12.7433C68.718 12.5994 68.8859 12.4194 69.0298 12.2036C69.1737 11.9877 69.2937 11.7538 69.3896 11.5019C69.4976 11.2381 69.5755 10.9982 69.6235 10.7823C69.6835 10.5544 69.7194 10.3565 69.7314 10.1886C69.7554 10.0207 69.7614 9.92476 69.7494 9.90078H69.9293C69.9413 9.93676 69.9353 10.0507 69.9113 10.2426C69.8993 10.4345 69.8634 10.6624 69.8034 10.9262C69.7434 11.1901 69.6535 11.4719 69.5335 11.7718C69.4256 12.0716 69.2817 12.3535 69.1018 12.6173C68.9219 12.8692 68.694 13.0791 68.4181 13.247C68.1543 13.4149 67.8364 13.4989 67.4646 13.4989C66.9849 13.4989 66.5771 13.361 66.2413 13.0851C65.9174 12.7972 65.6536 12.4314 65.4497 11.9877C65.2458 11.5319 65.0959 11.0282 64.9999 10.4765C64.904 9.92476 64.856 9.37305 64.856 8.82135C64.856 8.35359 64.904 7.84986 64.9999 7.31014C65.0959 6.75843 65.2518 6.2547 65.4677 5.79894C65.6956 5.34318 65.9894 4.96538 66.3492 4.66554C66.709 4.3537 67.1468 4.19779 67.6625 4.19779ZM68.3821 7.02229C68.5381 7.02229 68.652 6.95633 68.724 6.8244C68.8079 6.69247 68.8559 6.53055 68.8679 6.33866C68.8919 6.14676 68.8799 5.93687 68.8319 5.70899C68.7959 5.48111 68.724 5.27122 68.616 5.07932C68.5201 4.88742 68.3881 4.72551 68.2202 4.59358C68.0643 4.46165 67.8844 4.39568 67.6805 4.39568C67.4167 4.39568 67.1948 4.49163 67.0149 4.68353C66.835 4.87543 66.679 5.1093 66.5471 5.38516C66.4272 5.66101 66.3312 5.94886 66.2593 6.2487C66.1873 6.54854 66.1333 6.80641 66.0974 7.02229H68.3821Z" stroke="var(--stroke-0, #FFF5E2)" stroke-width="0.479747" mask="url(#path-1-outside-1_9_131)"/>
</g>
</svg>
