<svg preserveAspectRatio="none" width="100%" height="100%" overflow="visible" style="display: block;" viewBox="0 0 96.9269 13.5409" fill="none" xmlns="http://www.w3.org/2000/svg">
<g id="L&#226;&#128;&#153;Intuition Lunaire">
<mask id="path-1-outside-1_11_147" maskUnits="userSpaceOnUse" x="-0.760127" y="-0.760127" width="98" height="15" fill="black">
<rect fill="white" x="-0.760127" y="-0.760127" width="98" height="15"/>
<path d="M1.28332 0.617675C1.45123 0.617675 1.61915 0.611677 1.78706 0.599683C1.95497 0.575696 2.12888 0.551709 2.30878 0.527721V0.617675C2.0929 0.785586 1.96097 0.989478 1.91299 1.22935C1.86502 1.45723 1.84103 1.6971 1.84103 1.94897V12.9232H3.24429C3.70005 12.9232 4.06585 12.7972 4.34171 12.5454C4.61756 12.2815 4.83345 11.9697 4.98937 11.6099C5.14528 11.2501 5.25922 10.8783 5.33119 10.4945C5.40315 10.0987 5.45712 9.76885 5.4931 9.50498H5.63703L5.40315 13.1031H0.275854V13.0311C0.383797 12.9472 0.479747 12.8272 0.563703 12.6713C0.659652 12.5034 0.707627 12.2635 0.707627 11.9517V1.98495C0.707627 1.72109 0.683639 1.46922 0.635665 1.22935C0.58769 0.989478 0.455759 0.785586 0.239873 0.617675V0.527721C0.407785 0.551709 0.575696 0.575696 0.743608 0.599683C0.923513 0.611677 1.10342 0.617675 1.28332 0.617675Z"/>
<path d="M6.26599 2.50668L6.64379 0.671645C6.66778 0.515727 6.72175 0.407784 6.80571 0.347816C6.88966 0.275854 6.97961 0.239873 7.07556 0.239873C7.20749 0.239873 7.32143 0.293845 7.41738 0.401788C7.51333 0.509731 7.52533 0.641662 7.45336 0.797579L6.6258 2.50668H6.26599Z"/>
<path d="M8.40939 0.527721C8.74521 0.58769 9.08703 0.617675 9.43485 0.617675C9.61475 0.617675 9.78866 0.611677 9.95657 0.599683C10.1245 0.575696 10.2984 0.551709 10.4783 0.527721V0.617675C10.2624 0.785586 10.1305 0.989478 10.0825 1.22935C10.0345 1.45723 10.0105 1.6971 10.0105 1.94897V11.6818C10.0105 11.9337 10.0345 12.1796 10.0825 12.4194C10.1305 12.6473 10.2624 12.8452 10.4783 13.0131V13.1031C10.2984 13.0791 10.1245 13.0611 9.95657 13.0491C9.78866 13.0251 9.62075 13.0131 9.45284 13.0131C9.27293 13.0131 9.09303 13.0251 8.91312 13.0491C8.74521 13.0611 8.5773 13.0791 8.40939 13.1031V13.0131C8.62528 12.8452 8.75721 12.6413 8.80518 12.4015C8.85316 12.1616 8.87714 11.9097 8.87714 11.6459V1.98495C8.87714 1.72109 8.85316 1.46922 8.80518 1.22935C8.75721 0.989478 8.62528 0.785586 8.40939 0.617675V0.527721Z"/>
<path d="M11.8463 11.6459V5.79894C11.8463 5.41514 11.7983 5.15728 11.7024 5.02535C11.6184 4.88142 11.5284 4.79747 11.4325 4.77348V4.68353C11.5284 4.68353 11.6484 4.67153 11.7923 4.64755C11.9362 4.62356 12.0742 4.59358 12.2061 4.55759C12.35 4.50962 12.4819 4.45565 12.6019 4.39568C12.7338 4.33571 12.8298 4.26375 12.8897 4.17979H12.9797V5.85291C13.1356 5.24123 13.3875 4.77948 13.7353 4.46764C14.0831 4.15581 14.4849 3.99989 14.9406 3.99989C15.6243 3.99989 16.164 4.34171 16.5598 5.02535C16.9556 5.69699 17.1535 6.61451 17.1535 7.7779V11.6818C17.1535 11.9337 17.1775 12.1796 17.2254 12.4194C17.2734 12.6473 17.4053 12.8452 17.6212 13.0131V13.1031C17.4413 13.0791 17.2674 13.0611 17.0995 13.0491C16.9316 13.0251 16.7637 13.0131 16.5958 13.0131C16.4159 13.0131 16.236 13.0251 16.0561 13.0491C15.8881 13.0611 15.7202 13.0791 15.5523 13.1031V13.0131C15.7682 12.8452 15.9001 12.6413 15.9481 12.4015C15.9961 12.1616 16.0201 11.9097 16.0201 11.6459V7.83187C16.0201 6.70446 15.9001 5.82892 15.6603 5.20525C15.4204 4.58158 15.0726 4.26975 14.6168 4.26975C14.4129 4.26975 14.209 4.33571 14.0051 4.46764C13.8132 4.59957 13.6393 4.79147 13.4834 5.04334C13.3395 5.29521 13.2196 5.60704 13.1236 5.97884C13.0277 6.35065 12.9797 6.77043 12.9797 7.23818V11.6459C12.9797 11.8977 13.0037 12.1496 13.0516 12.4015C13.0996 12.6413 13.2315 12.8452 13.4474 13.0131V13.1031C13.2675 13.0791 13.0936 13.0611 12.9257 13.0491C12.7578 13.0251 12.5899 13.0131 12.422 13.0131C12.2421 13.0131 12.0622 13.0251 11.8823 13.0491C11.7143 13.0611 11.5464 13.0791 11.3785 13.1031V13.0131C11.5944 12.8452 11.7263 12.6413 11.7743 12.4015C11.8223 12.1616 11.8463 11.9097 11.8463 11.6459Z"/>
<path d="M18.529 4.17979V3.99989C18.7329 3.9879 18.9188 3.89794 19.0868 3.73003C19.2667 3.55013 19.4226 3.34024 19.5545 3.10036C19.6984 2.86049 19.8124 2.61462 19.8963 2.36275C19.9923 2.11089 20.0642 1.90699 20.1122 1.75108L20.2561 1.84103V3.99989H21.0297V4.17979H20.2561V11.43C20.2561 11.8857 20.2921 12.2036 20.3641 12.3835C20.448 12.5634 20.556 12.6533 20.6879 12.6533C20.8438 12.6533 20.9758 12.5694 21.0837 12.4015C21.1916 12.2335 21.2516 12.0536 21.2636 11.8617L21.3536 11.8797C21.3536 12.2635 21.2456 12.5874 21.0297 12.8512C20.8258 13.1151 20.556 13.247 20.2202 13.247C19.8723 13.247 19.6025 13.1091 19.4106 12.8332C19.2307 12.5454 19.1407 12.1616 19.1407 11.6818V4.17979H18.529Z"/>
<path d="M23.0336 4.26975C23.2015 4.26975 23.3694 4.26375 23.5373 4.25176C23.7172 4.22777 23.8911 4.20378 24.059 4.17979V4.26975C23.8431 4.43766 23.7112 4.64155 23.6632 4.88142C23.6153 5.1213 23.5913 5.37316 23.5913 5.63703V9.45101C23.5913 10.5784 23.7112 11.454 23.9511 12.0776C24.191 12.7013 24.5388 13.0131 24.9945 13.0131C25.1984 13.0131 25.3963 12.9472 25.5882 12.8152C25.7921 12.6833 25.966 12.4914 26.1099 12.2395C26.2659 11.9877 26.3918 11.6758 26.4877 11.304C26.5837 10.9322 26.6317 10.5125 26.6317 10.0447V5.63703C26.6317 5.38516 26.6077 5.13929 26.5597 4.89941C26.5117 4.64755 26.3798 4.43766 26.1639 4.26975V4.17979C26.3438 4.20378 26.5177 4.22777 26.6856 4.25176C26.8535 4.26375 27.0275 4.26975 27.2074 4.26975C27.3753 4.26975 27.5432 4.26375 27.7111 4.25176C27.891 4.22777 28.0649 4.20378 28.2328 4.17979V4.26975C28.0169 4.43766 27.885 4.64155 27.837 4.88142C27.7891 5.1213 27.7651 5.37316 27.7651 5.63703V11.4839C27.7651 11.8677 27.807 12.1316 27.891 12.2755C27.9869 12.4075 28.0829 12.4854 28.1788 12.5094V12.5994C28.0829 12.5994 27.963 12.6113 27.819 12.6353C27.6751 12.6593 27.5312 12.6953 27.3873 12.7433C27.2553 12.7793 27.1234 12.8272 26.9915 12.8872C26.8715 12.9472 26.7816 13.0191 26.7216 13.1031H26.6317V11.43C26.4757 12.0416 26.2239 12.5034 25.8761 12.8152C25.5282 13.1271 25.1265 13.283 24.6707 13.283C23.9871 13.283 23.4473 12.9472 23.0516 12.2755C22.6558 11.5919 22.4579 10.6684 22.4579 9.50498V5.60104C22.4579 5.34918 22.4339 5.1093 22.3859 4.88142C22.3379 4.64155 22.206 4.43766 21.9901 4.26975V4.17979C22.17 4.20378 22.3439 4.22777 22.5118 4.25176C22.6797 4.26375 22.8537 4.26975 23.0336 4.26975Z"/>
<path d="M29.1406 13.0491C29.3565 12.9292 29.4885 12.7853 29.5364 12.6173C29.5844 12.4494 29.6084 12.2755 29.6084 12.0956V5.22324C29.6084 4.83945 29.5604 4.58158 29.4645 4.44965C29.3805 4.30573 29.2906 4.22177 29.1946 4.19778V4.10783C29.2906 4.10783 29.4105 4.09584 29.5544 4.07185C29.6983 4.04786 29.8363 4.01788 29.9682 3.9819C30.1121 3.93392 30.2441 3.87995 30.364 3.81998C30.4959 3.76002 30.5919 3.68805 30.6518 3.6041H30.7418V12.0596C30.7418 12.2395 30.7658 12.4194 30.8138 12.5994C30.8617 12.7793 30.9937 12.9232 31.2095 13.0311V13.1031C31.0296 13.0791 30.8557 13.0611 30.6878 13.0491C30.5199 13.0251 30.352 13.0131 30.1841 13.0131C30.0042 13.0131 29.8243 13.0251 29.6444 13.0491C29.4765 13.0611 29.3085 13.0791 29.1406 13.1031V13.0491ZM29.3565 1.895C29.3565 1.66712 29.4165 1.46323 29.5364 1.28332C29.6684 1.09142 29.8603 0.995475 30.1121 0.995475C30.352 0.995475 30.5319 1.08543 30.6518 1.26533C30.7838 1.44524 30.8497 1.64913 30.8497 1.87701C30.8497 2.10489 30.7838 2.30878 30.6518 2.48869C30.5319 2.66859 30.346 2.75854 30.0941 2.75854C29.8423 2.75854 29.6564 2.66859 29.5364 2.48869C29.4165 2.30878 29.3565 2.11089 29.3565 1.895Z"/>
<path d="M32.1098 4.17979V3.99989C32.3137 3.9879 32.4996 3.89794 32.6675 3.73003C32.8474 3.55013 33.0033 3.34024 33.1352 3.10036C33.2792 2.86049 33.3931 2.61462 33.4771 2.36275C33.573 2.11089 33.645 1.90699 33.6929 1.75108L33.8369 1.84103V3.99989H34.6105V4.17979H33.8369V11.43C33.8369 11.8857 33.8728 12.2036 33.9448 12.3835C34.0288 12.5634 34.1367 12.6533 34.2686 12.6533C34.4246 12.6533 34.5565 12.5694 34.6644 12.4015C34.7724 12.2335 34.8323 12.0536 34.8443 11.8617L34.9343 11.8797C34.9343 12.2635 34.8263 12.5874 34.6105 12.8512C34.4066 13.1151 34.1367 13.247 33.8009 13.247C33.4531 13.247 33.1832 13.1091 32.9913 12.8332C32.8114 12.5454 32.7215 12.1616 32.7215 11.6818V4.17979H32.1098Z"/>
<path d="M35.5708 13.0491C35.7867 12.9292 35.9187 12.7853 35.9666 12.6173C36.0146 12.4494 36.0386 12.2755 36.0386 12.0956V5.22324C36.0386 4.83945 35.9906 4.58158 35.8947 4.44965C35.8107 4.30573 35.7208 4.22177 35.6248 4.19778V4.10783C35.7208 4.10783 35.8407 4.09584 35.9846 4.07185C36.1285 4.04786 36.2665 4.01788 36.3984 3.9819C36.5423 3.93392 36.6743 3.87995 36.7942 3.81998C36.9261 3.76002 37.0221 3.68805 37.082 3.6041H37.172V12.0596C37.172 12.2395 37.196 12.4194 37.244 12.5994C37.2919 12.7793 37.4239 12.9232 37.6397 13.0311V13.1031C37.4598 13.0791 37.2859 13.0611 37.118 13.0491C36.9501 13.0251 36.7822 13.0131 36.6143 13.0131C36.4344 13.0131 36.2545 13.0251 36.0746 13.0491C35.9067 13.0611 35.7387 13.0791 35.5708 13.1031V13.0491ZM35.7867 1.895C35.7867 1.66712 35.8467 1.46323 35.9666 1.28332C36.0986 1.09142 36.2905 0.995475 36.5423 0.995475C36.7822 0.995475 36.9621 1.08543 37.082 1.26533C37.214 1.44524 37.2799 1.64913 37.2799 1.87701C37.2799 2.10489 37.214 2.30878 37.082 2.48869C36.9621 2.66859 36.7762 2.75854 36.5243 2.75854C36.2725 2.75854 36.0866 2.66859 35.9666 2.48869C35.8467 2.30878 35.7867 2.11089 35.7867 1.895Z"/>
<path d="M38.45 8.60546C38.45 8.08973 38.51 7.56201 38.6299 7.02229C38.7619 6.47059 38.9657 5.97285 39.2416 5.52908C39.5175 5.08532 39.8713 4.71951 40.303 4.43166C40.7348 4.14381 41.2565 3.99989 41.8682 3.99989C42.4799 3.99989 43.0016 4.14381 43.4334 4.43166C43.8652 4.71951 44.219 5.08532 44.4948 5.52908C44.7707 5.97285 44.9686 6.47059 45.0885 7.02229C45.2204 7.56201 45.2864 8.08973 45.2864 8.60546C45.2864 9.12119 45.2204 9.65491 45.0885 10.2066C44.9686 10.7463 44.7707 11.2441 44.4948 11.6998C44.219 12.1436 43.8652 12.5094 43.4334 12.7972C43.0016 13.0731 42.4799 13.211 41.8682 13.211C41.2565 13.211 40.7348 13.0731 40.303 12.7972C39.8713 12.5094 39.5175 12.1436 39.2416 11.6998C38.9657 11.2441 38.7619 10.7463 38.6299 10.2066C38.51 9.65491 38.45 9.12119 38.45 8.60546ZM39.6014 8.60546C39.6014 9.02524 39.6314 9.49299 39.6914 10.0087C39.7633 10.5125 39.8833 10.9922 40.0512 11.448C40.2191 11.8917 40.447 12.2695 40.7348 12.5814C41.0347 12.8812 41.4125 13.0311 41.8682 13.0311C42.324 13.0311 42.6958 12.8812 42.9836 12.5814C43.2835 12.2695 43.5173 11.8917 43.6853 11.448C43.8532 10.9922 43.9671 10.5125 44.0271 10.0087C44.099 9.49299 44.135 9.02524 44.135 8.60546C44.135 8.18568 44.099 7.72392 44.0271 7.22019C43.9671 6.70446 43.8532 6.22472 43.6853 5.78095C43.5173 5.32519 43.2835 4.94739 42.9836 4.64755C42.6958 4.33571 42.324 4.17979 41.8682 4.17979C41.4125 4.17979 41.0347 4.33571 40.7348 4.64755C40.447 4.94739 40.2191 5.32519 40.0512 5.78095C39.8833 6.22472 39.7633 6.70446 39.6914 7.22019C39.6314 7.72392 39.6014 8.18568 39.6014 8.60546Z"/>
<path d="M46.5623 11.6459V5.79894C46.5623 5.41514 46.5144 5.15728 46.4184 5.02535C46.3345 4.88142 46.2445 4.79747 46.1485 4.77348V4.68353C46.2445 4.68353 46.3644 4.67153 46.5084 4.64755C46.6523 4.62356 46.7902 4.59358 46.9221 4.55759C47.0661 4.50962 47.198 4.45565 47.3179 4.39568C47.4499 4.33571 47.5458 4.26375 47.6058 4.17979H47.6957V5.85291C47.8517 5.24123 48.1035 4.77948 48.4513 4.46764C48.7992 4.15581 49.2009 3.99989 49.6567 3.99989C50.3403 3.99989 50.8801 4.34171 51.2758 5.02535C51.6716 5.69699 51.8695 6.61451 51.8695 7.7779V11.6818C51.8695 11.9337 51.8935 12.1796 51.9415 12.4194C51.9895 12.6473 52.1214 12.8452 52.3373 13.0131V13.1031C52.1574 13.0791 51.9835 13.0611 51.8156 13.0491C51.6477 13.0251 51.4797 13.0131 51.3118 13.0131C51.1319 13.0131 50.952 13.0251 50.7721 13.0491C50.6042 13.0611 50.4363 13.0791 50.2684 13.1031V13.0131C50.4843 12.8452 50.6162 12.6413 50.6642 12.4015C50.7121 12.1616 50.7361 11.9097 50.7361 11.6459V7.83187C50.7361 6.70446 50.6162 5.82892 50.3763 5.20525C50.1364 4.58158 49.7886 4.26975 49.3329 4.26975C49.129 4.26975 48.9251 4.33571 48.7212 4.46764C48.5293 4.59957 48.3554 4.79147 48.1995 5.04334C48.0555 5.29521 47.9356 5.60704 47.8397 5.97884C47.7437 6.35065 47.6957 6.77043 47.6957 7.23818V11.6459C47.6957 11.8977 47.7197 12.1496 47.7677 12.4015C47.8157 12.6413 47.9476 12.8452 48.1635 13.0131V13.1031C47.9836 13.0791 47.8097 13.0611 47.6418 13.0491C47.4739 13.0251 47.3059 13.0131 47.138 13.0131C46.9581 13.0131 46.7782 13.0251 46.5983 13.0491C46.4304 13.0611 46.2625 13.0791 46.0946 13.1031V13.0131C46.3105 12.8452 46.4424 12.6413 46.4904 12.4015C46.5383 12.1616 46.5623 11.9097 46.5623 11.6459Z"/>
<path d="M58.0307 0.617675C58.1986 0.617675 58.3665 0.611677 58.5345 0.599683C58.7024 0.575696 58.8763 0.551709 59.0562 0.527721V0.617675C58.8403 0.785586 58.7084 0.989478 58.6604 1.22935C58.6124 1.45723 58.5884 1.6971 58.5884 1.94897V12.9232H59.9917C60.4474 12.9232 60.8133 12.7972 61.0891 12.5454C61.365 12.2815 61.5808 11.9697 61.7368 11.6099C61.8927 11.2501 62.0066 10.8783 62.0786 10.4945C62.1505 10.0987 62.2045 9.76885 62.2405 9.50498H62.3844L62.1505 13.1031H57.0232V13.0311C57.1312 12.9472 57.2271 12.8272 57.3111 12.6713C57.407 12.5034 57.455 12.2635 57.455 11.9517V1.98495C57.455 1.72109 57.431 1.46922 57.3831 1.22935C57.3351 0.989478 57.2032 0.785586 56.9873 0.617675V0.527721C57.1552 0.551709 57.3231 0.575696 57.491 0.599683C57.6709 0.611677 57.8508 0.617675 58.0307 0.617675Z"/>
<path d="M64.0568 4.26975C64.2247 4.26975 64.3927 4.26375 64.5606 4.25176C64.7405 4.22777 64.9144 4.20378 65.0823 4.17979V4.26975C64.8664 4.43766 64.7345 4.64155 64.6865 4.88142C64.6385 5.1213 64.6145 5.37316 64.6145 5.63703V9.45101C64.6145 10.5784 64.7345 11.454 64.9743 12.0776C65.2142 12.7013 65.562 13.0131 66.0178 13.0131C66.2217 13.0131 66.4196 12.9472 66.6115 12.8152C66.8154 12.6833 66.9893 12.4914 67.1332 12.2395C67.2891 11.9877 67.4151 11.6758 67.511 11.304C67.607 10.9322 67.6549 10.5125 67.6549 10.0447V5.63703C67.6549 5.38516 67.631 5.13929 67.583 4.89941C67.535 4.64755 67.4031 4.43766 67.1872 4.26975V4.17979C67.3671 4.20378 67.541 4.22777 67.7089 4.25176C67.8768 4.26375 68.0507 4.26975 68.2306 4.26975C68.3985 4.26975 68.5665 4.26375 68.7344 4.25176C68.9143 4.22777 69.0882 4.20378 69.2561 4.17979V4.26975C69.0402 4.43766 68.9083 4.64155 68.8603 4.88142C68.8123 5.1213 68.7883 5.37316 68.7883 5.63703V11.4839C68.7883 11.8677 68.8303 12.1316 68.9143 12.2755C69.0102 12.4075 69.1062 12.4854 69.2021 12.5094V12.5994C69.1062 12.5994 68.9862 12.6113 68.8423 12.6353C68.6984 12.6593 68.5545 12.6953 68.4105 12.7433C68.2786 12.7793 68.1467 12.8272 68.0147 12.8872C67.8948 12.9472 67.8049 13.0191 67.7449 13.1031H67.6549V11.43C67.499 12.0416 67.2472 12.5034 66.8993 12.8152C66.5515 13.1271 66.1497 13.283 65.694 13.283C65.0103 13.283 64.4706 12.9472 64.0748 12.2755C63.679 11.5919 63.4811 10.6684 63.4811 9.50498V5.60104C63.4811 5.34918 63.4572 5.1093 63.4092 4.88142C63.3612 4.64155 63.2293 4.43766 63.0134 4.26975V4.17979C63.1933 4.20378 63.3672 4.22777 63.5351 4.25176C63.703 4.26375 63.8769 4.26975 64.0568 4.26975Z"/>
<path d="M70.6317 11.6459V5.79894C70.6317 5.41514 70.5837 5.15728 70.4877 5.02535C70.4038 4.88142 70.3138 4.79747 70.2179 4.77348V4.68353C70.3138 4.68353 70.4338 4.67153 70.5777 4.64755C70.7216 4.62356 70.8595 4.59358 70.9915 4.55759C71.1354 4.50962 71.2673 4.45565 71.3873 4.39568C71.5192 4.33571 71.6151 4.26375 71.6751 4.17979H71.7651V5.85291C71.921 5.24123 72.1728 4.77948 72.5207 4.46764C72.8685 4.15581 73.2703 3.99989 73.726 3.99989C74.4097 3.99989 74.9494 4.34171 75.3452 5.02535C75.741 5.69699 75.9389 6.61451 75.9389 7.7779V11.6818C75.9389 11.9337 75.9628 12.1796 76.0108 12.4194C76.0588 12.6473 76.1907 12.8452 76.4066 13.0131V13.1031C76.2267 13.0791 76.0528 13.0611 75.8849 13.0491C75.717 13.0251 75.5491 13.0131 75.3812 13.0131C75.2013 13.0131 75.0213 13.0251 74.8414 13.0491C74.6735 13.0611 74.5056 13.0791 74.3377 13.1031V13.0131C74.5536 12.8452 74.6855 12.6413 74.7335 12.4015C74.7815 12.1616 74.8055 11.9097 74.8055 11.6459V7.83187C74.8055 6.70446 74.6855 5.82892 74.4456 5.20525C74.2058 4.58158 73.858 4.26975 73.4022 4.26975C73.1983 4.26975 72.9944 4.33571 72.7905 4.46764C72.5986 4.59957 72.4247 4.79147 72.2688 5.04334C72.1249 5.29521 72.0049 5.60704 71.909 5.97884C71.813 6.35065 71.7651 6.77043 71.7651 7.23818V11.6459C71.7651 11.8977 71.7891 12.1496 71.837 12.4015C71.885 12.6413 72.0169 12.8452 72.2328 13.0131V13.1031C72.0529 13.0791 71.879 13.0611 71.7111 13.0491C71.5432 13.0251 71.3753 13.0131 71.2074 13.0131C71.0275 13.0131 70.8475 13.0251 70.6676 13.0491C70.4997 13.0611 70.3318 13.0791 70.1639 13.1031V13.0131C70.3798 12.8452 70.5117 12.6413 70.5597 12.4015C70.6077 12.1616 70.6317 11.9097 70.6317 11.6459Z"/>
<path d="M81.3083 8.56948V6.69847C81.3083 5.01935 80.9485 4.17979 80.2289 4.17979C80.049 4.17979 79.8811 4.23377 79.7252 4.34171C79.5692 4.43766 79.4253 4.57559 79.2934 4.75549C79.1735 4.9234 79.0775 5.1213 79.0055 5.34918C78.9336 5.57706 78.8976 5.81093 78.8976 6.05081L78.052 5.40315C78.2559 4.98337 78.5558 4.64755 78.9516 4.39568C79.3474 4.13182 79.7971 3.99989 80.3009 3.99989C80.9605 3.99989 81.4762 4.23976 81.848 4.71951C82.2318 5.18726 82.4237 5.8709 82.4237 6.77043V10.4045C82.4237 10.6204 82.4237 10.8483 82.4237 11.0881C82.4237 11.316 82.4297 11.5319 82.4417 11.7358C82.4657 11.9277 82.4957 12.0896 82.5317 12.2216C82.5797 12.3535 82.6456 12.4194 82.7296 12.4194C82.8135 12.4194 82.8795 12.3595 82.9275 12.2395C82.9874 12.1196 83.0174 12.0356 83.0174 11.9877L83.1434 12.1136C83.1194 12.2216 83.0834 12.3415 83.0354 12.4734C82.9874 12.5934 82.9215 12.7073 82.8375 12.8152C82.7536 12.9232 82.6516 13.0131 82.5317 13.0851C82.4237 13.1571 82.2978 13.193 82.1539 13.193C81.878 13.193 81.6681 13.0611 81.5242 12.7972C81.3803 12.5334 81.3083 12.1916 81.3083 11.7718V11.5199C81.1164 11.9997 80.8166 12.4194 80.4088 12.7793C80.001 13.1271 79.5453 13.301 79.0415 13.301C78.8017 13.301 78.5678 13.253 78.3399 13.1571C78.124 13.0611 77.9321 12.9292 77.7642 12.7613C77.5963 12.5934 77.4644 12.3955 77.3684 12.1676C77.2725 11.9397 77.2245 11.6878 77.2245 11.412C77.2245 10.9922 77.3384 10.6084 77.5663 10.2606C77.8062 9.91277 78.112 9.61293 78.4838 9.36106C78.8676 9.10919 79.3054 8.91729 79.7971 8.78536C80.2889 8.64144 80.7926 8.56948 81.3083 8.56948ZM79.5273 12.8152C79.7551 12.8152 79.971 12.7493 80.1749 12.6173C80.3908 12.4734 80.5827 12.2995 80.7506 12.0956C80.9185 11.8797 81.0505 11.6519 81.1464 11.412C81.2544 11.1601 81.3083 10.9262 81.3083 10.7103V8.74938C80.8885 8.76138 80.4988 8.82734 80.1389 8.94728C79.7791 9.06722 79.4673 9.22913 79.2034 9.43302C78.9396 9.63691 78.7297 9.88878 78.5738 10.1886C78.4298 10.4765 78.3579 10.8063 78.3579 11.1781C78.3579 11.6578 78.4658 12.0536 78.6817 12.3655C78.9096 12.6653 79.1914 12.8152 79.5273 12.8152Z"/>
<path d="M83.7798 13.0491C83.9957 12.9292 84.1276 12.7853 84.1756 12.6173C84.2235 12.4494 84.2475 12.2755 84.2475 12.0956V5.22324C84.2475 4.83945 84.1995 4.58158 84.1036 4.44965C84.0196 4.30573 83.9297 4.22177 83.8337 4.19778V4.10783C83.9297 4.10783 84.0496 4.09584 84.1936 4.07185C84.3375 4.04786 84.4754 4.01788 84.6073 3.9819C84.7513 3.93392 84.8832 3.87995 85.0031 3.81998C85.1351 3.76002 85.231 3.68805 85.291 3.6041H85.3809V12.0596C85.3809 12.2395 85.4049 12.4194 85.4529 12.5994C85.5009 12.7793 85.6328 12.9232 85.8487 13.0311V13.1031C85.6688 13.0791 85.4949 13.0611 85.327 13.0491C85.159 13.0251 84.9911 13.0131 84.8232 13.0131C84.6433 13.0131 84.4634 13.0251 84.2835 13.0491C84.1156 13.0611 83.9477 13.0791 83.7798 13.1031V13.0491ZM83.9957 1.895C83.9957 1.66712 84.0556 1.46323 84.1756 1.28332C84.3075 1.09142 84.4994 0.995475 84.7513 0.995475C84.9911 0.995475 85.171 1.08543 85.291 1.26533C85.4229 1.44524 85.4889 1.64913 85.4889 1.87701C85.4889 2.10489 85.4229 2.30878 85.291 2.48869C85.171 2.66859 84.9851 2.75854 84.7333 2.75854C84.4814 2.75854 84.2955 2.66859 84.1756 2.48869C84.0556 2.30878 83.9957 2.11089 83.9957 1.895Z"/>
<path d="M86.7489 13.1031V13.0131C86.8449 12.9891 86.9348 12.9112 87.0188 12.7793C87.1147 12.6353 87.1627 12.3715 87.1627 11.9877V5.79894C87.1627 5.41514 87.1147 5.15728 87.0188 5.02535C86.9348 4.88142 86.8449 4.79747 86.7489 4.77348V4.68353C86.9528 4.68353 87.2107 4.64155 87.5225 4.55759C87.8343 4.47364 88.0562 4.34771 88.1881 4.17979H88.2781V5.8709C88.386 5.42714 88.5659 5.03734 88.8178 4.70152C89.0817 4.3537 89.4235 4.17979 89.8433 4.17979C90.1911 4.17979 90.4969 4.31172 90.7608 4.57559C91.0366 4.82745 91.1746 5.15128 91.1746 5.54707L90.0232 5.61904C89.9752 5.34318 89.8852 5.15128 89.7533 5.04334C89.6214 4.9234 89.4835 4.86343 89.3395 4.86343C89.1476 4.86343 88.9797 4.95938 88.8358 5.15128C88.7039 5.33119 88.5959 5.54707 88.512 5.79894C88.428 6.03881 88.3681 6.28468 88.3321 6.53655C88.2961 6.78842 88.2781 6.98032 88.2781 7.11225V11.9877C88.2781 12.3715 88.3201 12.6353 88.404 12.7793C88.5 12.9112 88.5959 12.9891 88.6919 13.0131V13.1031H86.7489Z"/>
<path d="M94.3496 3.9819C94.7214 3.9819 95.0572 4.05986 95.3571 4.21578C95.6689 4.3597 95.9268 4.5456 96.1307 4.77348C96.3466 4.98937 96.5025 5.22924 96.5984 5.4931C96.6944 5.74497 96.7124 5.98484 96.6524 6.21272C96.6044 6.42861 96.4665 6.61451 96.2386 6.77043C96.0227 6.91435 95.7049 6.98631 95.2851 6.98631H92.7485C92.7245 7.21419 92.7065 7.44207 92.6945 7.66995C92.6825 7.89783 92.6765 8.11372 92.6765 8.31761C92.6765 8.84533 92.7065 9.37305 92.7664 9.90078C92.8384 10.4285 92.9464 10.9022 93.0903 11.322C93.2462 11.7418 93.4441 12.0836 93.684 12.3475C93.9238 12.6113 94.2117 12.7433 94.5475 12.7433C94.7994 12.7433 95.0213 12.6713 95.2132 12.5274C95.4051 12.3835 95.573 12.2036 95.7169 11.9877C95.8608 11.7718 95.9808 11.5379 96.0767 11.286C96.1846 11.0222 96.2626 10.7823 96.3106 10.5664C96.3705 10.3385 96.4065 10.1406 96.4185 9.97274C96.4425 9.80483 96.4485 9.70888 96.4365 9.68489H96.6164C96.6284 9.72087 96.6224 9.83481 96.5984 10.0267C96.5864 10.2186 96.5505 10.4465 96.4905 10.7103C96.4305 10.9742 96.3406 11.2561 96.2206 11.5559C96.1127 11.8557 95.9688 12.1376 95.7889 12.4015C95.609 12.6533 95.3811 12.8632 95.1052 13.0311C94.8414 13.199 94.5235 13.283 94.1517 13.283C93.672 13.283 93.2642 13.1451 92.9284 12.8692C92.6045 12.5814 92.3407 12.2156 92.1368 11.7718C91.9329 11.316 91.783 10.8123 91.687 10.2606C91.5911 9.70888 91.5431 9.15717 91.5431 8.60546C91.5431 8.13771 91.5911 7.63397 91.687 7.09426C91.783 6.54255 91.9389 6.03881 92.1548 5.58305C92.3826 5.12729 92.6765 4.74949 93.0363 4.44965C93.3961 4.13782 93.8339 3.9819 94.3496 3.9819ZM95.0692 6.80641C95.2251 6.80641 95.3391 6.74044 95.4111 6.60851C95.495 6.47658 95.543 6.31467 95.555 6.12277C95.579 5.93087 95.567 5.72098 95.519 5.4931C95.483 5.26522 95.4111 5.05533 95.3031 4.86343C95.2072 4.67153 95.0752 4.50962 94.9073 4.37769C94.7514 4.24576 94.5715 4.17979 94.3676 4.17979C94.1037 4.17979 93.8819 4.27574 93.702 4.46764C93.522 4.65954 93.3661 4.89342 93.2342 5.16927C93.1143 5.44513 93.0183 5.73297 92.9464 6.03282C92.8744 6.33266 92.8204 6.59052 92.7844 6.80641H95.0692Z"/>
</mask>
<path d="M1.28332 0.617675C1.45123 0.617675 1.61915 0.611677 1.78706 0.599683C1.95497 0.575696 2.12888 0.551709 2.30878 0.527721V0.617675C2.0929 0.785586 1.96097 0.989478 1.91299 1.22935C1.86502 1.45723 1.84103 1.6971 1.84103 1.94897V12.9232H3.24429C3.70005 12.9232 4.06585 12.7972 4.34171 12.5454C4.61756 12.2815 4.83345 11.9697 4.98937 11.6099C5.14528 11.2501 5.25922 10.8783 5.33119 10.4945C5.40315 10.0987 5.45712 9.76885 5.4931 9.50498H5.63703L5.40315 13.1031H0.275854V13.0311C0.383797 12.9472 0.479747 12.8272 0.563703 12.6713C0.659652 12.5034 0.707627 12.2635 0.707627 11.9517V1.98495C0.707627 1.72109 0.683639 1.46922 0.635665 1.22935C0.58769 0.989478 0.455759 0.785586 0.239873 0.617675V0.527721C0.407785 0.551709 0.575696 0.575696 0.743608 0.599683C0.923513 0.611677 1.10342 0.617675 1.28332 0.617675Z" fill="var(--fill-0, #EFD1AB)"/>
<path d="M6.26599 2.50668L6.64379 0.671645C6.66778 0.515727 6.72175 0.407784 6.80571 0.347816C6.88966 0.275854 6.97961 0.239873 7.07556 0.239873C7.20749 0.239873 7.32143 0.293845 7.41738 0.401788C7.51333 0.509731 7.52533 0.641662 7.45336 0.797579L6.6258 2.50668H6.26599Z" fill="var(--fill-0, #EFD1AB)"/>
<path d="M8.40939 0.527721C8.74521 0.58769 9.08703 0.617675 9.43485 0.617675C9.61475 0.617675 9.78866 0.611677 9.95657 0.599683C10.1245 0.575696 10.2984 0.551709 10.4783 0.527721V0.617675C10.2624 0.785586 10.1305 0.989478 10.0825 1.22935C10.0345 1.45723 10.0105 1.6971 10.0105 1.94897V11.6818C10.0105 11.9337 10.0345 12.1796 10.0825 12.4194C10.1305 12.6473 10.2624 12.8452 10.4783 13.0131V13.1031C10.2984 13.0791 10.1245 13.0611 9.95657 13.0491C9.78866 13.0251 9.62075 13.0131 9.45284 13.0131C9.27293 13.0131 9.09303 13.0251 8.91312 13.0491C8.74521 13.0611 8.5773 13.0791 8.40939 13.1031V13.0131C8.62528 12.8452 8.75721 12.6413 8.80518 12.4015C8.85316 12.1616 8.87714 11.9097 8.87714 11.6459V1.98495C8.87714 1.72109 8.85316 1.46922 8.80518 1.22935C8.75721 0.989478 8.62528 0.785586 8.40939 0.617675V0.527721Z" fill="var(--fill-0, #EFD1AB)"/>
<path d="M11.8463 11.6459V5.79894C11.8463 5.41514 11.7983 5.15728 11.7024 5.02535C11.6184 4.88142 11.5284 4.79747 11.4325 4.77348V4.68353C11.5284 4.68353 11.6484 4.67153 11.7923 4.64755C11.9362 4.62356 12.0742 4.59358 12.2061 4.55759C12.35 4.50962 12.4819 4.45565 12.6019 4.39568C12.7338 4.33571 12.8298 4.26375 12.8897 4.17979H12.9797V5.85291C13.1356 5.24123 13.3875 4.77948 13.7353 4.46764C14.0831 4.15581 14.4849 3.99989 14.9406 3.99989C15.6243 3.99989 16.164 4.34171 16.5598 5.02535C16.9556 5.69699 17.1535 6.61451 17.1535 7.7779V11.6818C17.1535 11.9337 17.1775 12.1796 17.2254 12.4194C17.2734 12.6473 17.4053 12.8452 17.6212 13.0131V13.1031C17.4413 13.0791 17.2674 13.0611 17.0995 13.0491C16.9316 13.0251 16.7637 13.0131 16.5958 13.0131C16.4159 13.0131 16.236 13.0251 16.0561 13.0491C15.8881 13.0611 15.7202 13.0791 15.5523 13.1031V13.0131C15.7682 12.8452 15.9001 12.6413 15.9481 12.4015C15.9961 12.1616 16.0201 11.9097 16.0201 11.6459V7.83187C16.0201 6.70446 15.9001 5.82892 15.6603 5.20525C15.4204 4.58158 15.0726 4.26975 14.6168 4.26975C14.4129 4.26975 14.209 4.33571 14.0051 4.46764C13.8132 4.59957 13.6393 4.79147 13.4834 5.04334C13.3395 5.29521 13.2196 5.60704 13.1236 5.97884C13.0277 6.35065 12.9797 6.77043 12.9797 7.23818V11.6459C12.9797 11.8977 13.0037 12.1496 13.0516 12.4015C13.0996 12.6413 13.2315 12.8452 13.4474 13.0131V13.1031C13.2675 13.0791 13.0936 13.0611 12.9257 13.0491C12.7578 13.0251 12.5899 13.0131 12.422 13.0131C12.2421 13.0131 12.0622 13.0251 11.8823 13.0491C11.7143 13.0611 11.5464 13.0791 11.3785 13.1031V13.0131C11.5944 12.8452 11.7263 12.6413 11.7743 12.4015C11.8223 12.1616 11.8463 11.9097 11.8463 11.6459Z" fill="var(--fill-0, #EFD1AB)"/>
<path d="M18.529 4.17979V3.99989C18.7329 3.9879 18.9188 3.89794 19.0868 3.73003C19.2667 3.55013 19.4226 3.34024 19.5545 3.10036C19.6984 2.86049 19.8124 2.61462 19.8963 2.36275C19.9923 2.11089 20.0642 1.90699 20.1122 1.75108L20.2561 1.84103V3.99989H21.0297V4.17979H20.2561V11.43C20.2561 11.8857 20.2921 12.2036 20.3641 12.3835C20.448 12.5634 20.556 12.6533 20.6879 12.6533C20.8438 12.6533 20.9758 12.5694 21.0837 12.4015C21.1916 12.2335 21.2516 12.0536 21.2636 11.8617L21.3536 11.8797C21.3536 12.2635 21.2456 12.5874 21.0297 12.8512C20.8258 13.1151 20.556 13.247 20.2202 13.247C19.8723 13.247 19.6025 13.1091 19.4106 12.8332C19.2307 12.5454 19.1407 12.1616 19.1407 11.6818V4.17979H18.529Z" fill="var(--fill-0, #EFD1AB)"/>
<path d="M23.0336 4.26975C23.2015 4.26975 23.3694 4.26375 23.5373 4.25176C23.7172 4.22777 23.8911 4.20378 24.059 4.17979V4.26975C23.8431 4.43766 23.7112 4.64155 23.6632 4.88142C23.6153 5.1213 23.5913 5.37316 23.5913 5.63703V9.45101C23.5913 10.5784 23.7112 11.454 23.9511 12.0776C24.191 12.7013 24.5388 13.0131 24.9945 13.0131C25.1984 13.0131 25.3963 12.9472 25.5882 12.8152C25.7921 12.6833 25.966 12.4914 26.1099 12.2395C26.2659 11.9877 26.3918 11.6758 26.4877 11.304C26.5837 10.9322 26.6317 10.5125 26.6317 10.0447V5.63703C26.6317 5.38516 26.6077 5.13929 26.5597 4.89941C26.5117 4.64755 26.3798 4.43766 26.1639 4.26975V4.17979C26.3438 4.20378 26.5177 4.22777 26.6856 4.25176C26.8535 4.26375 27.0275 4.26975 27.2074 4.26975C27.3753 4.26975 27.5432 4.26375 27.7111 4.25176C27.891 4.22777 28.0649 4.20378 28.2328 4.17979V4.26975C28.0169 4.43766 27.885 4.64155 27.837 4.88142C27.7891 5.1213 27.7651 5.37316 27.7651 5.63703V11.4839C27.7651 11.8677 27.807 12.1316 27.891 12.2755C27.9869 12.4075 28.0829 12.4854 28.1788 12.5094V12.5994C28.0829 12.5994 27.963 12.6113 27.819 12.6353C27.6751 12.6593 27.5312 12.6953 27.3873 12.7433C27.2553 12.7793 27.1234 12.8272 26.9915 12.8872C26.8715 12.9472 26.7816 13.0191 26.7216 13.1031H26.6317V11.43C26.4757 12.0416 26.2239 12.5034 25.8761 12.8152C25.5282 13.1271 25.1265 13.283 24.6707 13.283C23.9871 13.283 23.4473 12.9472 23.0516 12.2755C22.6558 11.5919 22.4579 10.6684 22.4579 9.50498V5.60104C22.4579 5.34918 22.4339 5.1093 22.3859 4.88142C22.3379 4.64155 22.206 4.43766 21.9901 4.26975V4.17979C22.17 4.20378 22.3439 4.22777 22.5118 4.25176C22.6797 4.26375 22.8537 4.26975 23.0336 4.26975Z" fill="var(--fill-0, #EFD1AB)"/>
<path d="M29.1406 13.0491C29.3565 12.9292 29.4885 12.7853 29.5364 12.6173C29.5844 12.4494 29.6084 12.2755 29.6084 12.0956V5.22324C29.6084 4.83945 29.5604 4.58158 29.4645 4.44965C29.3805 4.30573 29.2906 4.22177 29.1946 4.19778V4.10783C29.2906 4.10783 29.4105 4.09584 29.5544 4.07185C29.6983 4.04786 29.8363 4.01788 29.9682 3.9819C30.1121 3.93392 30.2441 3.87995 30.364 3.81998C30.4959 3.76002 30.5919 3.68805 30.6518 3.6041H30.7418V12.0596C30.7418 12.2395 30.7658 12.4194 30.8138 12.5994C30.8617 12.7793 30.9937 12.9232 31.2095 13.0311V13.1031C31.0296 13.0791 30.8557 13.0611 30.6878 13.0491C30.5199 13.0251 30.352 13.0131 30.1841 13.0131C30.0042 13.0131 29.8243 13.0251 29.6444 13.0491C29.4765 13.0611 29.3085 13.0791 29.1406 13.1031V13.0491ZM29.3565 1.895C29.3565 1.66712 29.4165 1.46323 29.5364 1.28332C29.6684 1.09142 29.8603 0.995475 30.1121 0.995475C30.352 0.995475 30.5319 1.08543 30.6518 1.26533C30.7838 1.44524 30.8497 1.64913 30.8497 1.87701C30.8497 2.10489 30.7838 2.30878 30.6518 2.48869C30.5319 2.66859 30.346 2.75854 30.0941 2.75854C29.8423 2.75854 29.6564 2.66859 29.5364 2.48869C29.4165 2.30878 29.3565 2.11089 29.3565 1.895Z" fill="var(--fill-0, #EFD1AB)"/>
<path d="M32.1098 4.17979V3.99989C32.3137 3.9879 32.4996 3.89794 32.6675 3.73003C32.8474 3.55013 33.0033 3.34024 33.1352 3.10036C33.2792 2.86049 33.3931 2.61462 33.4771 2.36275C33.573 2.11089 33.645 1.90699 33.6929 1.75108L33.8369 1.84103V3.99989H34.6105V4.17979H33.8369V11.43C33.8369 11.8857 33.8728 12.2036 33.9448 12.3835C34.0288 12.5634 34.1367 12.6533 34.2686 12.6533C34.4246 12.6533 34.5565 12.5694 34.6644 12.4015C34.7724 12.2335 34.8323 12.0536 34.8443 11.8617L34.9343 11.8797C34.9343 12.2635 34.8263 12.5874 34.6105 12.8512C34.4066 13.1151 34.1367 13.247 33.8009 13.247C33.4531 13.247 33.1832 13.1091 32.9913 12.8332C32.8114 12.5454 32.7215 12.1616 32.7215 11.6818V4.17979H32.1098Z" fill="var(--fill-0, #EFD1AB)"/>
<path d="M35.5708 13.0491C35.7867 12.9292 35.9187 12.7853 35.9666 12.6173C36.0146 12.4494 36.0386 12.2755 36.0386 12.0956V5.22324C36.0386 4.83945 35.9906 4.58158 35.8947 4.44965C35.8107 4.30573 35.7208 4.22177 35.6248 4.19778V4.10783C35.7208 4.10783 35.8407 4.09584 35.9846 4.07185C36.1285 4.04786 36.2665 4.01788 36.3984 3.9819C36.5423 3.93392 36.6743 3.87995 36.7942 3.81998C36.9261 3.76002 37.0221 3.68805 37.082 3.6041H37.172V12.0596C37.172 12.2395 37.196 12.4194 37.244 12.5994C37.2919 12.7793 37.4239 12.9232 37.6397 13.0311V13.1031C37.4598 13.0791 37.2859 13.0611 37.118 13.0491C36.9501 13.0251 36.7822 13.0131 36.6143 13.0131C36.4344 13.0131 36.2545 13.0251 36.0746 13.0491C35.9067 13.0611 35.7387 13.0791 35.5708 13.1031V13.0491ZM35.7867 1.895C35.7867 1.66712 35.8467 1.46323 35.9666 1.28332C36.0986 1.09142 36.2905 0.995475 36.5423 0.995475C36.7822 0.995475 36.9621 1.08543 37.082 1.26533C37.214 1.44524 37.2799 1.64913 37.2799 1.87701C37.2799 2.10489 37.214 2.30878 37.082 2.48869C36.9621 2.66859 36.7762 2.75854 36.5243 2.75854C36.2725 2.75854 36.0866 2.66859 35.9666 2.48869C35.8467 2.30878 35.7867 2.11089 35.7867 1.895Z" fill="var(--fill-0, #EFD1AB)"/>
<path d="M38.45 8.60546C38.45 8.08973 38.51 7.56201 38.6299 7.02229C38.7619 6.47059 38.9657 5.97285 39.2416 5.52908C39.5175 5.08532 39.8713 4.71951 40.303 4.43166C40.7348 4.14381 41.2565 3.99989 41.8682 3.99989C42.4799 3.99989 43.0016 4.14381 43.4334 4.43166C43.8652 4.71951 44.219 5.08532 44.4948 5.52908C44.7707 5.97285 44.9686 6.47059 45.0885 7.02229C45.2204 7.56201 45.2864 8.08973 45.2864 8.60546C45.2864 9.12119 45.2204 9.65491 45.0885 10.2066C44.9686 10.7463 44.7707 11.2441 44.4948 11.6998C44.219 12.1436 43.8652 12.5094 43.4334 12.7972C43.0016 13.0731 42.4799 13.211 41.8682 13.211C41.2565 13.211 40.7348 13.0731 40.303 12.7972C39.8713 12.5094 39.5175 12.1436 39.2416 11.6998C38.9657 11.2441 38.7619 10.7463 38.6299 10.2066C38.51 9.65491 38.45 9.12119 38.45 8.60546ZM39.6014 8.60546C39.6014 9.02524 39.6314 9.49299 39.6914 10.0087C39.7633 10.5125 39.8833 10.9922 40.0512 11.448C40.2191 11.8917 40.447 12.2695 40.7348 12.5814C41.0347 12.8812 41.4125 13.0311 41.8682 13.0311C42.324 13.0311 42.6958 12.8812 42.9836 12.5814C43.2835 12.2695 43.5173 11.8917 43.6853 11.448C43.8532 10.9922 43.9671 10.5125 44.0271 10.0087C44.099 9.49299 44.135 9.02524 44.135 8.60546C44.135 8.18568 44.099 7.72392 44.0271 7.22019C43.9671 6.70446 43.8532 6.22472 43.6853 5.78095C43.5173 5.32519 43.2835 4.94739 42.9836 4.64755C42.6958 4.33571 42.324 4.17979 41.8682 4.17979C41.4125 4.17979 41.0347 4.33571 40.7348 4.64755C40.447 4.94739 40.2191 5.32519 40.0512 5.78095C39.8833 6.22472 39.7633 6.70446 39.6914 7.22019C39.6314 7.72392 39.6014 8.18568 39.6014 8.60546Z" fill="var(--fill-0, #EFD1AB)"/>
<path d="M46.5623 11.6459V5.79894C46.5623 5.41514 46.5144 5.15728 46.4184 5.02535C46.3345 4.88142 46.2445 4.79747 46.1485 4.77348V4.68353C46.2445 4.68353 46.3644 4.67153 46.5084 4.64755C46.6523 4.62356 46.7902 4.59358 46.9221 4.55759C47.0661 4.50962 47.198 4.45565 47.3179 4.39568C47.4499 4.33571 47.5458 4.26375 47.6058 4.17979H47.6957V5.85291C47.8517 5.24123 48.1035 4.77948 48.4513 4.46764C48.7992 4.15581 49.2009 3.99989 49.6567 3.99989C50.3403 3.99989 50.8801 4.34171 51.2758 5.02535C51.6716 5.69699 51.8695 6.61451 51.8695 7.7779V11.6818C51.8695 11.9337 51.8935 12.1796 51.9415 12.4194C51.9895 12.6473 52.1214 12.8452 52.3373 13.0131V13.1031C52.1574 13.0791 51.9835 13.0611 51.8156 13.0491C51.6477 13.0251 51.4797 13.0131 51.3118 13.0131C51.1319 13.0131 50.952 13.0251 50.7721 13.0491C50.6042 13.0611 50.4363 13.0791 50.2684 13.1031V13.0131C50.4843 12.8452 50.6162 12.6413 50.6642 12.4015C50.7121 12.1616 50.7361 11.9097 50.7361 11.6459V7.83187C50.7361 6.70446 50.6162 5.82892 50.3763 5.20525C50.1364 4.58158 49.7886 4.26975 49.3329 4.26975C49.129 4.26975 48.9251 4.33571 48.7212 4.46764C48.5293 4.59957 48.3554 4.79147 48.1995 5.04334C48.0555 5.29521 47.9356 5.60704 47.8397 5.97884C47.7437 6.35065 47.6957 6.77043 47.6957 7.23818V11.6459C47.6957 11.8977 47.7197 12.1496 47.7677 12.4015C47.8157 12.6413 47.9476 12.8452 48.1635 13.0131V13.1031C47.9836 13.0791 47.8097 13.0611 47.6418 13.0491C47.4739 13.0251 47.3059 13.0131 47.138 13.0131C46.9581 13.0131 46.7782 13.0251 46.5983 13.0491C46.4304 13.0611 46.2625 13.0791 46.0946 13.1031V13.0131C46.3105 12.8452 46.4424 12.6413 46.4904 12.4015C46.5383 12.1616 46.5623 11.9097 46.5623 11.6459Z" fill="var(--fill-0, #EFD1AB)"/>
<path d="M58.0307 0.617675C58.1986 0.617675 58.3665 0.611677 58.5345 0.599683C58.7024 0.575696 58.8763 0.551709 59.0562 0.527721V0.617675C58.8403 0.785586 58.7084 0.989478 58.6604 1.22935C58.6124 1.45723 58.5884 1.6971 58.5884 1.94897V12.9232H59.9917C60.4474 12.9232 60.8133 12.7972 61.0891 12.5454C61.365 12.2815 61.5808 11.9697 61.7368 11.6099C61.8927 11.2501 62.0066 10.8783 62.0786 10.4945C62.1505 10.0987 62.2045 9.76885 62.2405 9.50498H62.3844L62.1505 13.1031H57.0232V13.0311C57.1312 12.9472 57.2271 12.8272 57.3111 12.6713C57.407 12.5034 57.455 12.2635 57.455 11.9517V1.98495C57.455 1.72109 57.431 1.46922 57.3831 1.22935C57.3351 0.989478 57.2032 0.785586 56.9873 0.617675V0.527721C57.1552 0.551709 57.3231 0.575696 57.491 0.599683C57.6709 0.611677 57.8508 0.617675 58.0307 0.617675Z" fill="var(--fill-0, #EFD1AB)"/>
<path d="M64.0568 4.26975C64.2247 4.26975 64.3927 4.26375 64.5606 4.25176C64.7405 4.22777 64.9144 4.20378 65.0823 4.17979V4.26975C64.8664 4.43766 64.7345 4.64155 64.6865 4.88142C64.6385 5.1213 64.6145 5.37316 64.6145 5.63703V9.45101C64.6145 10.5784 64.7345 11.454 64.9743 12.0776C65.2142 12.7013 65.562 13.0131 66.0178 13.0131C66.2217 13.0131 66.4196 12.9472 66.6115 12.8152C66.8154 12.6833 66.9893 12.4914 67.1332 12.2395C67.2891 11.9877 67.4151 11.6758 67.511 11.304C67.607 10.9322 67.6549 10.5125 67.6549 10.0447V5.63703C67.6549 5.38516 67.631 5.13929 67.583 4.89941C67.535 4.64755 67.4031 4.43766 67.1872 4.26975V4.17979C67.3671 4.20378 67.541 4.22777 67.7089 4.25176C67.8768 4.26375 68.0507 4.26975 68.2306 4.26975C68.3985 4.26975 68.5665 4.26375 68.7344 4.25176C68.9143 4.22777 69.0882 4.20378 69.2561 4.17979V4.26975C69.0402 4.43766 68.9083 4.64155 68.8603 4.88142C68.8123 5.1213 68.7883 5.37316 68.7883 5.63703V11.4839C68.7883 11.8677 68.8303 12.1316 68.9143 12.2755C69.0102 12.4075 69.1062 12.4854 69.2021 12.5094V12.5994C69.1062 12.5994 68.9862 12.6113 68.8423 12.6353C68.6984 12.6593 68.5545 12.6953 68.4105 12.7433C68.2786 12.7793 68.1467 12.8272 68.0147 12.8872C67.8948 12.9472 67.8049 13.0191 67.7449 13.1031H67.6549V11.43C67.499 12.0416 67.2472 12.5034 66.8993 12.8152C66.5515 13.1271 66.1497 13.283 65.694 13.283C65.0103 13.283 64.4706 12.9472 64.0748 12.2755C63.679 11.5919 63.4811 10.6684 63.4811 9.50498V5.60104C63.4811 5.34918 63.4572 5.1093 63.4092 4.88142C63.3612 4.64155 63.2293 4.43766 63.0134 4.26975V4.17979C63.1933 4.20378 63.3672 4.22777 63.5351 4.25176C63.703 4.26375 63.8769 4.26975 64.0568 4.26975Z" fill="var(--fill-0, #EFD1AB)"/>
<path d="M70.6317 11.6459V5.79894C70.6317 5.41514 70.5837 5.15728 70.4877 5.02535C70.4038 4.88142 70.3138 4.79747 70.2179 4.77348V4.68353C70.3138 4.68353 70.4338 4.67153 70.5777 4.64755C70.7216 4.62356 70.8595 4.59358 70.9915 4.55759C71.1354 4.50962 71.2673 4.45565 71.3873 4.39568C71.5192 4.33571 71.6151 4.26375 71.6751 4.17979H71.7651V5.85291C71.921 5.24123 72.1728 4.77948 72.5207 4.46764C72.8685 4.15581 73.2703 3.99989 73.726 3.99989C74.4097 3.99989 74.9494 4.34171 75.3452 5.02535C75.741 5.69699 75.9389 6.61451 75.9389 7.7779V11.6818C75.9389 11.9337 75.9628 12.1796 76.0108 12.4194C76.0588 12.6473 76.1907 12.8452 76.4066 13.0131V13.1031C76.2267 13.0791 76.0528 13.0611 75.8849 13.0491C75.717 13.0251 75.5491 13.0131 75.3812 13.0131C75.2013 13.0131 75.0213 13.0251 74.8414 13.0491C74.6735 13.0611 74.5056 13.0791 74.3377 13.1031V13.0131C74.5536 12.8452 74.6855 12.6413 74.7335 12.4015C74.7815 12.1616 74.8055 11.9097 74.8055 11.6459V7.83187C74.8055 6.70446 74.6855 5.82892 74.4456 5.20525C74.2058 4.58158 73.858 4.26975 73.4022 4.26975C73.1983 4.26975 72.9944 4.33571 72.7905 4.46764C72.5986 4.59957 72.4247 4.79147 72.2688 5.04334C72.1249 5.29521 72.0049 5.60704 71.909 5.97884C71.813 6.35065 71.7651 6.77043 71.7651 7.23818V11.6459C71.7651 11.8977 71.7891 12.1496 71.837 12.4015C71.885 12.6413 72.0169 12.8452 72.2328 13.0131V13.1031C72.0529 13.0791 71.879 13.0611 71.7111 13.0491C71.5432 13.0251 71.3753 13.0131 71.2074 13.0131C71.0275 13.0131 70.8475 13.0251 70.6676 13.0491C70.4997 13.0611 70.3318 13.0791 70.1639 13.1031V13.0131C70.3798 12.8452 70.5117 12.6413 70.5597 12.4015C70.6077 12.1616 70.6317 11.9097 70.6317 11.6459Z" fill="var(--fill-0, #EFD1AB)"/>
<path d="M81.3083 8.56948V6.69847C81.3083 5.01935 80.9485 4.17979 80.2289 4.17979C80.049 4.17979 79.8811 4.23377 79.7252 4.34171C79.5692 4.43766 79.4253 4.57559 79.2934 4.75549C79.1735 4.9234 79.0775 5.1213 79.0055 5.34918C78.9336 5.57706 78.8976 5.81093 78.8976 6.05081L78.052 5.40315C78.2559 4.98337 78.5558 4.64755 78.9516 4.39568C79.3474 4.13182 79.7971 3.99989 80.3009 3.99989C80.9605 3.99989 81.4762 4.23976 81.848 4.71951C82.2318 5.18726 82.4237 5.8709 82.4237 6.77043V10.4045C82.4237 10.6204 82.4237 10.8483 82.4237 11.0881C82.4237 11.316 82.4297 11.5319 82.4417 11.7358C82.4657 11.9277 82.4957 12.0896 82.5317 12.2216C82.5797 12.3535 82.6456 12.4194 82.7296 12.4194C82.8135 12.4194 82.8795 12.3595 82.9275 12.2395C82.9874 12.1196 83.0174 12.0356 83.0174 11.9877L83.1434 12.1136C83.1194 12.2216 83.0834 12.3415 83.0354 12.4734C82.9874 12.5934 82.9215 12.7073 82.8375 12.8152C82.7536 12.9232 82.6516 13.0131 82.5317 13.0851C82.4237 13.1571 82.2978 13.193 82.1539 13.193C81.878 13.193 81.6681 13.0611 81.5242 12.7972C81.3803 12.5334 81.3083 12.1916 81.3083 11.7718V11.5199C81.1164 11.9997 80.8166 12.4194 80.4088 12.7793C80.001 13.1271 79.5453 13.301 79.0415 13.301C78.8017 13.301 78.5678 13.253 78.3399 13.1571C78.124 13.0611 77.9321 12.9292 77.7642 12.7613C77.5963 12.5934 77.4644 12.3955 77.3684 12.1676C77.2725 11.9397 77.2245 11.6878 77.2245 11.412C77.2245 10.9922 77.3384 10.6084 77.5663 10.2606C77.8062 9.91277 78.112 9.61293 78.4838 9.36106C78.8676 9.10919 79.3054 8.91729 79.7971 8.78536C80.2889 8.64144 80.7926 8.56948 81.3083 8.56948ZM79.5273 12.8152C79.7551 12.8152 79.971 12.7493 80.1749 12.6173C80.3908 12.4734 80.5827 12.2995 80.7506 12.0956C80.9185 11.8797 81.0505 11.6519 81.1464 11.412C81.2544 11.1601 81.3083 10.9262 81.3083 10.7103V8.74938C80.8885 8.76138 80.4988 8.82734 80.1389 8.94728C79.7791 9.06722 79.4673 9.22913 79.2034 9.43302C78.9396 9.63691 78.7297 9.88878 78.5738 10.1886C78.4298 10.4765 78.3579 10.8063 78.3579 11.1781C78.3579 11.6578 78.4658 12.0536 78.6817 12.3655C78.9096 12.6653 79.1914 12.8152 79.5273 12.8152Z" fill="var(--fill-0, #EFD1AB)"/>
<path d="M83.7798 13.0491C83.9957 12.9292 84.1276 12.7853 84.1756 12.6173C84.2235 12.4494 84.2475 12.2755 84.2475 12.0956V5.22324C84.2475 4.83945 84.1995 4.58158 84.1036 4.44965C84.0196 4.30573 83.9297 4.22177 83.8337 4.19778V4.10783C83.9297 4.10783 84.0496 4.09584 84.1936 4.07185C84.3375 4.04786 84.4754 4.01788 84.6073 3.9819C84.7513 3.93392 84.8832 3.87995 85.0031 3.81998C85.1351 3.76002 85.231 3.68805 85.291 3.6041H85.3809V12.0596C85.3809 12.2395 85.4049 12.4194 85.4529 12.5994C85.5009 12.7793 85.6328 12.9232 85.8487 13.0311V13.1031C85.6688 13.0791 85.4949 13.0611 85.327 13.0491C85.159 13.0251 84.9911 13.0131 84.8232 13.0131C84.6433 13.0131 84.4634 13.0251 84.2835 13.0491C84.1156 13.0611 83.9477 13.0791 83.7798 13.1031V13.0491ZM83.9957 1.895C83.9957 1.66712 84.0556 1.46323 84.1756 1.28332C84.3075 1.09142 84.4994 0.995475 84.7513 0.995475C84.9911 0.995475 85.171 1.08543 85.291 1.26533C85.4229 1.44524 85.4889 1.64913 85.4889 1.87701C85.4889 2.10489 85.4229 2.30878 85.291 2.48869C85.171 2.66859 84.9851 2.75854 84.7333 2.75854C84.4814 2.75854 84.2955 2.66859 84.1756 2.48869C84.0556 2.30878 83.9957 2.11089 83.9957 1.895Z" fill="var(--fill-0, #EFD1AB)"/>
<path d="M86.7489 13.1031V13.0131C86.8449 12.9891 86.9348 12.9112 87.0188 12.7793C87.1147 12.6353 87.1627 12.3715 87.1627 11.9877V5.79894C87.1627 5.41514 87.1147 5.15728 87.0188 5.02535C86.9348 4.88142 86.8449 4.79747 86.7489 4.77348V4.68353C86.9528 4.68353 87.2107 4.64155 87.5225 4.55759C87.8343 4.47364 88.0562 4.34771 88.1881 4.17979H88.2781V5.8709C88.386 5.42714 88.5659 5.03734 88.8178 4.70152C89.0817 4.3537 89.4235 4.17979 89.8433 4.17979C90.1911 4.17979 90.4969 4.31172 90.7608 4.57559C91.0366 4.82745 91.1746 5.15128 91.1746 5.54707L90.0232 5.61904C89.9752 5.34318 89.8852 5.15128 89.7533 5.04334C89.6214 4.9234 89.4835 4.86343 89.3395 4.86343C89.1476 4.86343 88.9797 4.95938 88.8358 5.15128C88.7039 5.33119 88.5959 5.54707 88.512 5.79894C88.428 6.03881 88.3681 6.28468 88.3321 6.53655C88.2961 6.78842 88.2781 6.98032 88.2781 7.11225V11.9877C88.2781 12.3715 88.3201 12.6353 88.404 12.7793C88.5 12.9112 88.5959 12.9891 88.6919 13.0131V13.1031H86.7489Z" fill="var(--fill-0, #EFD1AB)"/>
<path d="M94.3496 3.9819C94.7214 3.9819 95.0572 4.05986 95.3571 4.21578C95.6689 4.3597 95.9268 4.5456 96.1307 4.77348C96.3466 4.98937 96.5025 5.22924 96.5984 5.4931C96.6944 5.74497 96.7124 5.98484 96.6524 6.21272C96.6044 6.42861 96.4665 6.61451 96.2386 6.77043C96.0227 6.91435 95.7049 6.98631 95.2851 6.98631H92.7485C92.7245 7.21419 92.7065 7.44207 92.6945 7.66995C92.6825 7.89783 92.6765 8.11372 92.6765 8.31761C92.6765 8.84533 92.7065 9.37305 92.7664 9.90078C92.8384 10.4285 92.9464 10.9022 93.0903 11.322C93.2462 11.7418 93.4441 12.0836 93.684 12.3475C93.9238 12.6113 94.2117 12.7433 94.5475 12.7433C94.7994 12.7433 95.0213 12.6713 95.2132 12.5274C95.4051 12.3835 95.573 12.2036 95.7169 11.9877C95.8608 11.7718 95.9808 11.5379 96.0767 11.286C96.1846 11.0222 96.2626 10.7823 96.3106 10.5664C96.3705 10.3385 96.4065 10.1406 96.4185 9.97274C96.4425 9.80483 96.4485 9.70888 96.4365 9.68489H96.6164C96.6284 9.72087 96.6224 9.83481 96.5984 10.0267C96.5864 10.2186 96.5505 10.4465 96.4905 10.7103C96.4305 10.9742 96.3406 11.2561 96.2206 11.5559C96.1127 11.8557 95.9688 12.1376 95.7889 12.4015C95.609 12.6533 95.3811 12.8632 95.1052 13.0311C94.8414 13.199 94.5235 13.283 94.1517 13.283C93.672 13.283 93.2642 13.1451 92.9284 12.8692C92.6045 12.5814 92.3407 12.2156 92.1368 11.7718C91.9329 11.316 91.783 10.8123 91.687 10.2606C91.5911 9.70888 91.5431 9.15717 91.5431 8.60546C91.5431 8.13771 91.5911 7.63397 91.687 7.09426C91.783 6.54255 91.9389 6.03881 92.1548 5.58305C92.3826 5.12729 92.6765 4.74949 93.0363 4.44965C93.3961 4.13782 93.8339 3.9819 94.3496 3.9819ZM95.0692 6.80641C95.2251 6.80641 95.3391 6.74044 95.4111 6.60851C95.495 6.47658 95.543 6.31467 95.555 6.12277C95.579 5.93087 95.567 5.72098 95.519 5.4931C95.483 5.26522 95.4111 5.05533 95.3031 4.86343C95.2072 4.67153 95.0752 4.50962 94.9073 4.37769C94.7514 4.24576 94.5715 4.17979 94.3676 4.17979C94.1037 4.17979 93.8819 4.27574 93.702 4.46764C93.522 4.65954 93.3661 4.89342 93.2342 5.16927C93.1143 5.44513 93.0183 5.73297 92.9464 6.03282C92.8744 6.33266 92.8204 6.59052 92.7844 6.80641H95.0692Z" fill="var(--fill-0, #EFD1AB)"/>
<path d="M1.28332 0.617675C1.45123 0.617675 1.61915 0.611677 1.78706 0.599683C1.95497 0.575696 2.12888 0.551709 2.30878 0.527721V0.617675C2.0929 0.785586 1.96097 0.989478 1.91299 1.22935C1.86502 1.45723 1.84103 1.6971 1.84103 1.94897V12.9232H3.24429C3.70005 12.9232 4.06585 12.7972 4.34171 12.5454C4.61756 12.2815 4.83345 11.9697 4.98937 11.6099C5.14528 11.2501 5.25922 10.8783 5.33119 10.4945C5.40315 10.0987 5.45712 9.76885 5.4931 9.50498H5.63703L5.40315 13.1031H0.275854V13.0311C0.383797 12.9472 0.479747 12.8272 0.563703 12.6713C0.659652 12.5034 0.707627 12.2635 0.707627 11.9517V1.98495C0.707627 1.72109 0.683639 1.46922 0.635665 1.22935C0.58769 0.989478 0.455759 0.785586 0.239873 0.617675V0.527721C0.407785 0.551709 0.575696 0.575696 0.743608 0.599683C0.923513 0.611677 1.10342 0.617675 1.28332 0.617675Z" stroke="var(--stroke-0, #EFD1AB)" stroke-width="0.479747" mask="url(#path-1-outside-1_11_147)"/>
<path d="M6.26599 2.50668L6.64379 0.671645C6.66778 0.515727 6.72175 0.407784 6.80571 0.347816C6.88966 0.275854 6.97961 0.239873 7.07556 0.239873C7.20749 0.239873 7.32143 0.293845 7.41738 0.401788C7.51333 0.509731 7.52533 0.641662 7.45336 0.797579L6.6258 2.50668H6.26599Z" stroke="var(--stroke-0, #EFD1AB)" stroke-width="0.479747" mask="url(#path-1-outside-1_11_147)"/>
<path d="M8.40939 0.527721C8.74521 0.58769 9.08703 0.617675 9.43485 0.617675C9.61475 0.617675 9.78866 0.611677 9.95657 0.599683C10.1245 0.575696 10.2984 0.551709 10.4783 0.527721V0.617675C10.2624 0.785586 10.1305 0.989478 10.0825 1.22935C10.0345 1.45723 10.0105 1.6971 10.0105 1.94897V11.6818C10.0105 11.9337 10.0345 12.1796 10.0825 12.4194C10.1305 12.6473 10.2624 12.8452 10.4783 13.0131V13.1031C10.2984 13.0791 10.1245 13.0611 9.95657 13.0491C9.78866 13.0251 9.62075 13.0131 9.45284 13.0131C9.27293 13.0131 9.09303 13.0251 8.91312 13.0491C8.74521 13.0611 8.5773 13.0791 8.40939 13.1031V13.0131C8.62528 12.8452 8.75721 12.6413 8.80518 12.4015C8.85316 12.1616 8.87714 11.9097 8.87714 11.6459V1.98495C8.87714 1.72109 8.85316 1.46922 8.80518 1.22935C8.75721 0.989478 8.62528 0.785586 8.40939 0.617675V0.527721Z" stroke="var(--stroke-0, #EFD1AB)" stroke-width="0.479747" mask="url(#path-1-outside-1_11_147)"/>
<path d="M11.8463 11.6459V5.79894C11.8463 5.41514 11.7983 5.15728 11.7024 5.02535C11.6184 4.88142 11.5284 4.79747 11.4325 4.77348V4.68353C11.5284 4.68353 11.6484 4.67153 11.7923 4.64755C11.9362 4.62356 12.0742 4.59358 12.2061 4.55759C12.35 4.50962 12.4819 4.45565 12.6019 4.39568C12.7338 4.33571 12.8298 4.26375 12.8897 4.17979H12.9797V5.85291C13.1356 5.24123 13.3875 4.77948 13.7353 4.46764C14.0831 4.15581 14.4849 3.99989 14.9406 3.99989C15.6243 3.99989 16.164 4.34171 16.5598 5.02535C16.9556 5.69699 17.1535 6.61451 17.1535 7.7779V11.6818C17.1535 11.9337 17.1775 12.1796 17.2254 12.4194C17.2734 12.6473 17.4053 12.8452 17.6212 13.0131V13.1031C17.4413 13.0791 17.2674 13.0611 17.0995 13.0491C16.9316 13.0251 16.7637 13.0131 16.5958 13.0131C16.4159 13.0131 16.236 13.0251 16.0561 13.0491C15.8881 13.0611 15.7202 13.0791 15.5523 13.1031V13.0131C15.7682 12.8452 15.9001 12.6413 15.9481 12.4015C15.9961 12.1616 16.0201 11.9097 16.0201 11.6459V7.83187C16.0201 6.70446 15.9001 5.82892 15.6603 5.20525C15.4204 4.58158 15.0726 4.26975 14.6168 4.26975C14.4129 4.26975 14.209 4.33571 14.0051 4.46764C13.8132 4.59957 13.6393 4.79147 13.4834 5.04334C13.3395 5.29521 13.2196 5.60704 13.1236 5.97884C13.0277 6.35065 12.9797 6.77043 12.9797 7.23818V11.6459C12.9797 11.8977 13.0037 12.1496 13.0516 12.4015C13.0996 12.6413 13.2315 12.8452 13.4474 13.0131V13.1031C13.2675 13.0791 13.0936 13.0611 12.9257 13.0491C12.7578 13.0251 12.5899 13.0131 12.422 13.0131C12.2421 13.0131 12.0622 13.0251 11.8823 13.0491C11.7143 13.0611 11.5464 13.0791 11.3785 13.1031V13.0131C11.5944 12.8452 11.7263 12.6413 11.7743 12.4015C11.8223 12.1616 11.8463 11.9097 11.8463 11.6459Z" stroke="var(--stroke-0, #EFD1AB)" stroke-width="0.479747" mask="url(#path-1-outside-1_11_147)"/>
<path d="M18.529 4.17979V3.99989C18.7329 3.9879 18.9188 3.89794 19.0868 3.73003C19.2667 3.55013 19.4226 3.34024 19.5545 3.10036C19.6984 2.86049 19.8124 2.61462 19.8963 2.36275C19.9923 2.11089 20.0642 1.90699 20.1122 1.75108L20.2561 1.84103V3.99989H21.0297V4.17979H20.2561V11.43C20.2561 11.8857 20.2921 12.2036 20.3641 12.3835C20.448 12.5634 20.556 12.6533 20.6879 12.6533C20.8438 12.6533 20.9758 12.5694 21.0837 12.4015C21.1916 12.2335 21.2516 12.0536 21.2636 11.8617L21.3536 11.8797C21.3536 12.2635 21.2456 12.5874 21.0297 12.8512C20.8258 13.1151 20.556 13.247 20.2202 13.247C19.8723 13.247 19.6025 13.1091 19.4106 12.8332C19.2307 12.5454 19.1407 12.1616 19.1407 11.6818V4.17979H18.529Z" stroke="var(--stroke-0, #EFD1AB)" stroke-width="0.479747" mask="url(#path-1-outside-1_11_147)"/>
<path d="M23.0336 4.26975C23.2015 4.26975 23.3694 4.26375 23.5373 4.25176C23.7172 4.22777 23.8911 4.20378 24.059 4.17979V4.26975C23.8431 4.43766 23.7112 4.64155 23.6632 4.88142C23.6153 5.1213 23.5913 5.37316 23.5913 5.63703V9.45101C23.5913 10.5784 23.7112 11.454 23.9511 12.0776C24.191 12.7013 24.5388 13.0131 24.9945 13.0131C25.1984 13.0131 25.3963 12.9472 25.5882 12.8152C25.7921 12.6833 25.966 12.4914 26.1099 12.2395C26.2659 11.9877 26.3918 11.6758 26.4877 11.304C26.5837 10.9322 26.6317 10.5125 26.6317 10.0447V5.63703C26.6317 5.38516 26.6077 5.13929 26.5597 4.89941C26.5117 4.64755 26.3798 4.43766 26.1639 4.26975V4.17979C26.3438 4.20378 26.5177 4.22777 26.6856 4.25176C26.8535 4.26375 27.0275 4.26975 27.2074 4.26975C27.3753 4.26975 27.5432 4.26375 27.7111 4.25176C27.891 4.22777 28.0649 4.20378 28.2328 4.17979V4.26975C28.0169 4.43766 27.885 4.64155 27.837 4.88142C27.7891 5.1213 27.7651 5.37316 27.7651 5.63703V11.4839C27.7651 11.8677 27.807 12.1316 27.891 12.2755C27.9869 12.4075 28.0829 12.4854 28.1788 12.5094V12.5994C28.0829 12.5994 27.963 12.6113 27.819 12.6353C27.6751 12.6593 27.5312 12.6953 27.3873 12.7433C27.2553 12.7793 27.1234 12.8272 26.9915 12.8872C26.8715 12.9472 26.7816 13.0191 26.7216 13.1031H26.6317V11.43C26.4757 12.0416 26.2239 12.5034 25.8761 12.8152C25.5282 13.1271 25.1265 13.283 24.6707 13.283C23.9871 13.283 23.4473 12.9472 23.0516 12.2755C22.6558 11.5919 22.4579 10.6684 22.4579 9.50498V5.60104C22.4579 5.34918 22.4339 5.1093 22.3859 4.88142C22.3379 4.64155 22.206 4.43766 21.9901 4.26975V4.17979C22.17 4.20378 22.3439 4.22777 22.5118 4.25176C22.6797 4.26375 22.8537 4.26975 23.0336 4.26975Z" stroke="var(--stroke-0, #EFD1AB)" stroke-width="0.479747" mask="url(#path-1-outside-1_11_147)"/>
<path d="M29.1406 13.0491C29.3565 12.9292 29.4885 12.7853 29.5364 12.6173C29.5844 12.4494 29.6084 12.2755 29.6084 12.0956V5.22324C29.6084 4.83945 29.5604 4.58158 29.4645 4.44965C29.3805 4.30573 29.2906 4.22177 29.1946 4.19778V4.10783C29.2906 4.10783 29.4105 4.09584 29.5544 4.07185C29.6983 4.04786 29.8363 4.01788 29.9682 3.9819C30.1121 3.93392 30.2441 3.87995 30.364 3.81998C30.4959 3.76002 30.5919 3.68805 30.6518 3.6041H30.7418V12.0596C30.7418 12.2395 30.7658 12.4194 30.8138 12.5994C30.8617 12.7793 30.9937 12.9232 31.2095 13.0311V13.1031C31.0296 13.0791 30.8557 13.0611 30.6878 13.0491C30.5199 13.0251 30.352 13.0131 30.1841 13.0131C30.0042 13.0131 29.8243 13.0251 29.6444 13.0491C29.4765 13.0611 29.3085 13.0791 29.1406 13.1031V13.0491ZM29.3565 1.895C29.3565 1.66712 29.4165 1.46323 29.5364 1.28332C29.6684 1.09142 29.8603 0.995475 30.1121 0.995475C30.352 0.995475 30.5319 1.08543 30.6518 1.26533C30.7838 1.44524 30.8497 1.64913 30.8497 1.87701C30.8497 2.10489 30.7838 2.30878 30.6518 2.48869C30.5319 2.66859 30.346 2.75854 30.0941 2.75854C29.8423 2.75854 29.6564 2.66859 29.5364 2.48869C29.4165 2.30878 29.3565 2.11089 29.3565 1.895Z" stroke="var(--stroke-0, #EFD1AB)" stroke-width="0.479747" mask="url(#path-1-outside-1_11_147)"/>
<path d="M32.1098 4.17979V3.99989C32.3137 3.9879 32.4996 3.89794 32.6675 3.73003C32.8474 3.55013 33.0033 3.34024 33.1352 3.10036C33.2792 2.86049 33.3931 2.61462 33.4771 2.36275C33.573 2.11089 33.645 1.90699 33.6929 1.75108L33.8369 1.84103V3.99989H34.6105V4.17979H33.8369V11.43C33.8369 11.8857 33.8728 12.2036 33.9448 12.3835C34.0288 12.5634 34.1367 12.6533 34.2686 12.6533C34.4246 12.6533 34.5565 12.5694 34.6644 12.4015C34.7724 12.2335 34.8323 12.0536 34.8443 11.8617L34.9343 11.8797C34.9343 12.2635 34.8263 12.5874 34.6105 12.8512C34.4066 13.1151 34.1367 13.247 33.8009 13.247C33.4531 13.247 33.1832 13.1091 32.9913 12.8332C32.8114 12.5454 32.7215 12.1616 32.7215 11.6818V4.17979H32.1098Z" stroke="var(--stroke-0, #EFD1AB)" stroke-width="0.479747" mask="url(#path-1-outside-1_11_147)"/>
<path d="M35.5708 13.0491C35.7867 12.9292 35.9187 12.7853 35.9666 12.6173C36.0146 12.4494 36.0386 12.2755 36.0386 12.0956V5.22324C36.0386 4.83945 35.9906 4.58158 35.8947 4.44965C35.8107 4.30573 35.7208 4.22177 35.6248 4.19778V4.10783C35.7208 4.10783 35.8407 4.09584 35.9846 4.07185C36.1285 4.04786 36.2665 4.01788 36.3984 3.9819C36.5423 3.93392 36.6743 3.87995 36.7942 3.81998C36.9261 3.76002 37.0221 3.68805 37.082 3.6041H37.172V12.0596C37.172 12.2395 37.196 12.4194 37.244 12.5994C37.2919 12.7793 37.4239 12.9232 37.6397 13.0311V13.1031C37.4598 13.0791 37.2859 13.0611 37.118 13.0491C36.9501 13.0251 36.7822 13.0131 36.6143 13.0131C36.4344 13.0131 36.2545 13.0251 36.0746 13.0491C35.9067 13.0611 35.7387 13.0791 35.5708 13.1031V13.0491ZM35.7867 1.895C35.7867 1.66712 35.8467 1.46323 35.9666 1.28332C36.0986 1.09142 36.2905 0.995475 36.5423 0.995475C36.7822 0.995475 36.9621 1.08543 37.082 1.26533C37.214 1.44524 37.2799 1.64913 37.2799 1.87701C37.2799 2.10489 37.214 2.30878 37.082 2.48869C36.9621 2.66859 36.7762 2.75854 36.5243 2.75854C36.2725 2.75854 36.0866 2.66859 35.9666 2.48869C35.8467 2.30878 35.7867 2.11089 35.7867 1.895Z" stroke="var(--stroke-0, #EFD1AB)" stroke-width="0.479747" mask="url(#path-1-outside-1_11_147)"/>
<path d="M38.45 8.60546C38.45 8.08973 38.51 7.56201 38.6299 7.02229C38.7619 6.47059 38.9657 5.97285 39.2416 5.52908C39.5175 5.08532 39.8713 4.71951 40.303 4.43166C40.7348 4.14381 41.2565 3.99989 41.8682 3.99989C42.4799 3.99989 43.0016 4.14381 43.4334 4.43166C43.8652 4.71951 44.219 5.08532 44.4948 5.52908C44.7707 5.97285 44.9686 6.47059 45.0885 7.02229C45.2204 7.56201 45.2864 8.08973 45.2864 8.60546C45.2864 9.12119 45.2204 9.65491 45.0885 10.2066C44.9686 10.7463 44.7707 11.2441 44.4948 11.6998C44.219 12.1436 43.8652 12.5094 43.4334 12.7972C43.0016 13.0731 42.4799 13.211 41.8682 13.211C41.2565 13.211 40.7348 13.0731 40.303 12.7972C39.8713 12.5094 39.5175 12.1436 39.2416 11.6998C38.9657 11.2441 38.7619 10.7463 38.6299 10.2066C38.51 9.65491 38.45 9.12119 38.45 8.60546ZM39.6014 8.60546C39.6014 9.02524 39.6314 9.49299 39.6914 10.0087C39.7633 10.5125 39.8833 10.9922 40.0512 11.448C40.2191 11.8917 40.447 12.2695 40.7348 12.5814C41.0347 12.8812 41.4125 13.0311 41.8682 13.0311C42.324 13.0311 42.6958 12.8812 42.9836 12.5814C43.2835 12.2695 43.5173 11.8917 43.6853 11.448C43.8532 10.9922 43.9671 10.5125 44.0271 10.0087C44.099 9.49299 44.135 9.02524 44.135 8.60546C44.135 8.18568 44.099 7.72392 44.0271 7.22019C43.9671 6.70446 43.8532 6.22472 43.6853 5.78095C43.5173 5.32519 43.2835 4.94739 42.9836 4.64755C42.6958 4.33571 42.324 4.17979 41.8682 4.17979C41.4125 4.17979 41.0347 4.33571 40.7348 4.64755C40.447 4.94739 40.2191 5.32519 40.0512 5.78095C39.8833 6.22472 39.7633 6.70446 39.6914 7.22019C39.6314 7.72392 39.6014 8.18568 39.6014 8.60546Z" stroke="var(--stroke-0, #EFD1AB)" stroke-width="0.479747" mask="url(#path-1-outside-1_11_147)"/>
<path d="M46.5623 11.6459V5.79894C46.5623 5.41514 46.5144 5.15728 46.4184 5.02535C46.3345 4.88142 46.2445 4.79747 46.1485 4.77348V4.68353C46.2445 4.68353 46.3644 4.67153 46.5084 4.64755C46.6523 4.62356 46.7902 4.59358 46.9221 4.55759C47.0661 4.50962 47.198 4.45565 47.3179 4.39568C47.4499 4.33571 47.5458 4.26375 47.6058 4.17979H47.6957V5.85291C47.8517 5.24123 48.1035 4.77948 48.4513 4.46764C48.7992 4.15581 49.2009 3.99989 49.6567 3.99989C50.3403 3.99989 50.8801 4.34171 51.2758 5.02535C51.6716 5.69699 51.8695 6.61451 51.8695 7.7779V11.6818C51.8695 11.9337 51.8935 12.1796 51.9415 12.4194C51.9895 12.6473 52.1214 12.8452 52.3373 13.0131V13.1031C52.1574 13.0791 51.9835 13.0611 51.8156 13.0491C51.6477 13.0251 51.4797 13.0131 51.3118 13.0131C51.1319 13.0131 50.952 13.0251 50.7721 13.0491C50.6042 13.0611 50.4363 13.0791 50.2684 13.1031V13.0131C50.4843 12.8452 50.6162 12.6413 50.6642 12.4015C50.7121 12.1616 50.7361 11.9097 50.7361 11.6459V7.83187C50.7361 6.70446 50.6162 5.82892 50.3763 5.20525C50.1364 4.58158 49.7886 4.26975 49.3329 4.26975C49.129 4.26975 48.9251 4.33571 48.7212 4.46764C48.5293 4.59957 48.3554 4.79147 48.1995 5.04334C48.0555 5.29521 47.9356 5.60704 47.8397 5.97884C47.7437 6.35065 47.6957 6.77043 47.6957 7.23818V11.6459C47.6957 11.8977 47.7197 12.1496 47.7677 12.4015C47.8157 12.6413 47.9476 12.8452 48.1635 13.0131V13.1031C47.9836 13.0791 47.8097 13.0611 47.6418 13.0491C47.4739 13.0251 47.3059 13.0131 47.138 13.0131C46.9581 13.0131 46.7782 13.0251 46.5983 13.0491C46.4304 13.0611 46.2625 13.0791 46.0946 13.1031V13.0131C46.3105 12.8452 46.4424 12.6413 46.4904 12.4015C46.5383 12.1616 46.5623 11.9097 46.5623 11.6459Z" stroke="var(--stroke-0, #EFD1AB)" stroke-width="0.479747" mask="url(#path-1-outside-1_11_147)"/>
<path d="M58.0307 0.617675C58.1986 0.617675 58.3665 0.611677 58.5345 0.599683C58.7024 0.575696 58.8763 0.551709 59.0562 0.527721V0.617675C58.8403 0.785586 58.7084 0.989478 58.6604 1.22935C58.6124 1.45723 58.5884 1.6971 58.5884 1.94897V12.9232H59.9917C60.4474 12.9232 60.8133 12.7972 61.0891 12.5454C61.365 12.2815 61.5808 11.9697 61.7368 11.6099C61.8927 11.2501 62.0066 10.8783 62.0786 10.4945C62.1505 10.0987 62.2045 9.76885 62.2405 9.50498H62.3844L62.1505 13.1031H57.0232V13.0311C57.1312 12.9472 57.2271 12.8272 57.3111 12.6713C57.407 12.5034 57.455 12.2635 57.455 11.9517V1.98495C57.455 1.72109 57.431 1.46922 57.3831 1.22935C57.3351 0.989478 57.2032 0.785586 56.9873 0.617675V0.527721C57.1552 0.551709 57.3231 0.575696 57.491 0.599683C57.6709 0.611677 57.8508 0.617675 58.0307 0.617675Z" stroke="var(--stroke-0, #EFD1AB)" stroke-width="0.479747" mask="url(#path-1-outside-1_11_147)"/>
<path d="M64.0568 4.26975C64.2247 4.26975 64.3927 4.26375 64.5606 4.25176C64.7405 4.22777 64.9144 4.20378 65.0823 4.17979V4.26975C64.8664 4.43766 64.7345 4.64155 64.6865 4.88142C64.6385 5.1213 64.6145 5.37316 64.6145 5.63703V9.45101C64.6145 10.5784 64.7345 11.454 64.9743 12.0776C65.2142 12.7013 65.562 13.0131 66.0178 13.0131C66.2217 13.0131 66.4196 12.9472 66.6115 12.8152C66.8154 12.6833 66.9893 12.4914 67.1332 12.2395C67.2891 11.9877 67.4151 11.6758 67.511 11.304C67.607 10.9322 67.6549 10.5125 67.6549 10.0447V5.63703C67.6549 5.38516 67.631 5.13929 67.583 4.89941C67.535 4.64755 67.4031 4.43766 67.1872 4.26975V4.17979C67.3671 4.20378 67.541 4.22777 67.7089 4.25176C67.8768 4.26375 68.0507 4.26975 68.2306 4.26975C68.3985 4.26975 68.5665 4.26375 68.7344 4.25176C68.9143 4.22777 69.0882 4.20378 69.2561 4.17979V4.26975C69.0402 4.43766 68.9083 4.64155 68.8603 4.88142C68.8123 5.1213 68.7883 5.37316 68.7883 5.63703V11.4839C68.7883 11.8677 68.8303 12.1316 68.9143 12.2755C69.0102 12.4075 69.1062 12.4854 69.2021 12.5094V12.5994C69.1062 12.5994 68.9862 12.6113 68.8423 12.6353C68.6984 12.6593 68.5545 12.6953 68.4105 12.7433C68.2786 12.7793 68.1467 12.8272 68.0147 12.8872C67.8948 12.9472 67.8049 13.0191 67.7449 13.1031H67.6549V11.43C67.499 12.0416 67.2472 12.5034 66.8993 12.8152C66.5515 13.1271 66.1497 13.283 65.694 13.283C65.0103 13.283 64.4706 12.9472 64.0748 12.2755C63.679 11.5919 63.4811 10.6684 63.4811 9.50498V5.60104C63.4811 5.34918 63.4572 5.1093 63.4092 4.88142C63.3612 4.64155 63.2293 4.43766 63.0134 4.26975V4.17979C63.1933 4.20378 63.3672 4.22777 63.5351 4.25176C63.703 4.26375 63.8769 4.26975 64.0568 4.26975Z" stroke="var(--stroke-0, #EFD1AB)" stroke-width="0.479747" mask="url(#path-1-outside-1_11_147)"/>
<path d="M70.6317 11.6459V5.79894C70.6317 5.41514 70.5837 5.15728 70.4877 5.02535C70.4038 4.88142 70.3138 4.79747 70.2179 4.77348V4.68353C70.3138 4.68353 70.4338 4.67153 70.5777 4.64755C70.7216 4.62356 70.8595 4.59358 70.9915 4.55759C71.1354 4.50962 71.2673 4.45565 71.3873 4.39568C71.5192 4.33571 71.6151 4.26375 71.6751 4.17979H71.7651V5.85291C71.921 5.24123 72.1728 4.77948 72.5207 4.46764C72.8685 4.15581 73.2703 3.99989 73.726 3.99989C74.4097 3.99989 74.9494 4.34171 75.3452 5.02535C75.741 5.69699 75.9389 6.61451 75.9389 7.7779V11.6818C75.9389 11.9337 75.9628 12.1796 76.0108 12.4194C76.0588 12.6473 76.1907 12.8452 76.4066 13.0131V13.1031C76.2267 13.0791 76.0528 13.0611 75.8849 13.0491C75.717 13.0251 75.5491 13.0131 75.3812 13.0131C75.2013 13.0131 75.0213 13.0251 74.8414 13.0491C74.6735 13.0611 74.5056 13.0791 74.3377 13.1031V13.0131C74.5536 12.8452 74.6855 12.6413 74.7335 12.4015C74.7815 12.1616 74.8055 11.9097 74.8055 11.6459V7.83187C74.8055 6.70446 74.6855 5.82892 74.4456 5.20525C74.2058 4.58158 73.858 4.26975 73.4022 4.26975C73.1983 4.26975 72.9944 4.33571 72.7905 4.46764C72.5986 4.59957 72.4247 4.79147 72.2688 5.04334C72.1249 5.29521 72.0049 5.60704 71.909 5.97884C71.813 6.35065 71.7651 6.77043 71.7651 7.23818V11.6459C71.7651 11.8977 71.7891 12.1496 71.837 12.4015C71.885 12.6413 72.0169 12.8452 72.2328 13.0131V13.1031C72.0529 13.0791 71.879 13.0611 71.7111 13.0491C71.5432 13.0251 71.3753 13.0131 71.2074 13.0131C71.0275 13.0131 70.8475 13.0251 70.6676 13.0491C70.4997 13.0611 70.3318 13.0791 70.1639 13.1031V13.0131C70.3798 12.8452 70.5117 12.6413 70.5597 12.4015C70.6077 12.1616 70.6317 11.9097 70.6317 11.6459Z" stroke="var(--stroke-0, #EFD1AB)" stroke-width="0.479747" mask="url(#path-1-outside-1_11_147)"/>
<path d="M81.3083 8.56948V6.69847C81.3083 5.01935 80.9485 4.17979 80.2289 4.17979C80.049 4.17979 79.8811 4.23377 79.7252 4.34171C79.5692 4.43766 79.4253 4.57559 79.2934 4.75549C79.1735 4.9234 79.0775 5.1213 79.0055 5.34918C78.9336 5.57706 78.8976 5.81093 78.8976 6.05081L78.052 5.40315C78.2559 4.98337 78.5558 4.64755 78.9516 4.39568C79.3474 4.13182 79.7971 3.99989 80.3009 3.99989C80.9605 3.99989 81.4762 4.23976 81.848 4.71951C82.2318 5.18726 82.4237 5.8709 82.4237 6.77043V10.4045C82.4237 10.6204 82.4237 10.8483 82.4237 11.0881C82.4237 11.316 82.4297 11.5319 82.4417 11.7358C82.4657 11.9277 82.4957 12.0896 82.5317 12.2216C82.5797 12.3535 82.6456 12.4194 82.7296 12.4194C82.8135 12.4194 82.8795 12.3595 82.9275 12.2395C82.9874 12.1196 83.0174 12.0356 83.0174 11.9877L83.1434 12.1136C83.1194 12.2216 83.0834 12.3415 83.0354 12.4734C82.9874 12.5934 82.9215 12.7073 82.8375 12.8152C82.7536 12.9232 82.6516 13.0131 82.5317 13.0851C82.4237 13.1571 82.2978 13.193 82.1539 13.193C81.878 13.193 81.6681 13.0611 81.5242 12.7972C81.3803 12.5334 81.3083 12.1916 81.3083 11.7718V11.5199C81.1164 11.9997 80.8166 12.4194 80.4088 12.7793C80.001 13.1271 79.5453 13.301 79.0415 13.301C78.8017 13.301 78.5678 13.253 78.3399 13.1571C78.124 13.0611 77.9321 12.9292 77.7642 12.7613C77.5963 12.5934 77.4644 12.3955 77.3684 12.1676C77.2725 11.9397 77.2245 11.6878 77.2245 11.412C77.2245 10.9922 77.3384 10.6084 77.5663 10.2606C77.8062 9.91277 78.112 9.61293 78.4838 9.36106C78.8676 9.10919 79.3054 8.91729 79.7971 8.78536C80.2889 8.64144 80.7926 8.56948 81.3083 8.56948ZM79.5273 12.8152C79.7551 12.8152 79.971 12.7493 80.1749 12.6173C80.3908 12.4734 80.5827 12.2995 80.7506 12.0956C80.9185 11.8797 81.0505 11.6519 81.1464 11.412C81.2544 11.1601 81.3083 10.9262 81.3083 10.7103V8.74938C80.8885 8.76138 80.4988 8.82734 80.1389 8.94728C79.7791 9.06722 79.4673 9.22913 79.2034 9.43302C78.9396 9.63691 78.7297 9.88878 78.5738 10.1886C78.4298 10.4765 78.3579 10.8063 78.3579 11.1781C78.3579 11.6578 78.4658 12.0536 78.6817 12.3655C78.9096 12.6653 79.1914 12.8152 79.5273 12.8152Z" stroke="var(--stroke-0, #EFD1AB)" stroke-width="0.479747" mask="url(#path-1-outside-1_11_147)"/>
<path d="M83.7798 13.0491C83.9957 12.9292 84.1276 12.7853 84.1756 12.6173C84.2235 12.4494 84.2475 12.2755 84.2475 12.0956V5.22324C84.2475 4.83945 84.1995 4.58158 84.1036 4.44965C84.0196 4.30573 83.9297 4.22177 83.8337 4.19778V4.10783C83.9297 4.10783 84.0496 4.09584 84.1936 4.07185C84.3375 4.04786 84.4754 4.01788 84.6073 3.9819C84.7513 3.93392 84.8832 3.87995 85.0031 3.81998C85.1351 3.76002 85.231 3.68805 85.291 3.6041H85.3809V12.0596C85.3809 12.2395 85.4049 12.4194 85.4529 12.5994C85.5009 12.7793 85.6328 12.9232 85.8487 13.0311V13.1031C85.6688 13.0791 85.4949 13.0611 85.327 13.0491C85.159 13.0251 84.9911 13.0131 84.8232 13.0131C84.6433 13.0131 84.4634 13.0251 84.2835 13.0491C84.1156 13.0611 83.9477 13.0791 83.7798 13.1031V13.0491ZM83.9957 1.895C83.9957 1.66712 84.0556 1.46323 84.1756 1.28332C84.3075 1.09142 84.4994 0.995475 84.7513 0.995475C84.9911 0.995475 85.171 1.08543 85.291 1.26533C85.4229 1.44524 85.4889 1.64913 85.4889 1.87701C85.4889 2.10489 85.4229 2.30878 85.291 2.48869C85.171 2.66859 84.9851 2.75854 84.7333 2.75854C84.4814 2.75854 84.2955 2.66859 84.1756 2.48869C84.0556 2.30878 83.9957 2.11089 83.9957 1.895Z" stroke="var(--stroke-0, #EFD1AB)" stroke-width="0.479747" mask="url(#path-1-outside-1_11_147)"/>
<path d="M86.7489 13.1031V13.0131C86.8449 12.9891 86.9348 12.9112 87.0188 12.7793C87.1147 12.6353 87.1627 12.3715 87.1627 11.9877V5.79894C87.1627 5.41514 87.1147 5.15728 87.0188 5.02535C86.9348 4.88142 86.8449 4.79747 86.7489 4.77348V4.68353C86.9528 4.68353 87.2107 4.64155 87.5225 4.55759C87.8343 4.47364 88.0562 4.34771 88.1881 4.17979H88.2781V5.8709C88.386 5.42714 88.5659 5.03734 88.8178 4.70152C89.0817 4.3537 89.4235 4.17979 89.8433 4.17979C90.1911 4.17979 90.4969 4.31172 90.7608 4.57559C91.0366 4.82745 91.1746 5.15128 91.1746 5.54707L90.0232 5.61904C89.9752 5.34318 89.8852 5.15128 89.7533 5.04334C89.6214 4.9234 89.4835 4.86343 89.3395 4.86343C89.1476 4.86343 88.9797 4.95938 88.8358 5.15128C88.7039 5.33119 88.5959 5.54707 88.512 5.79894C88.428 6.03881 88.3681 6.28468 88.3321 6.53655C88.2961 6.78842 88.2781 6.98032 88.2781 7.11225V11.9877C88.2781 12.3715 88.3201 12.6353 88.404 12.7793C88.5 12.9112 88.5959 12.9891 88.6919 13.0131V13.1031H86.7489Z" stroke="var(--stroke-0, #EFD1AB)" stroke-width="0.479747" mask="url(#path-1-outside-1_11_147)"/>
<path d="M94.3496 3.9819C94.7214 3.9819 95.0572 4.05986 95.3571 4.21578C95.6689 4.3597 95.9268 4.5456 96.1307 4.77348C96.3466 4.98937 96.5025 5.22924 96.5984 5.4931C96.6944 5.74497 96.7124 5.98484 96.6524 6.21272C96.6044 6.42861 96.4665 6.61451 96.2386 6.77043C96.0227 6.91435 95.7049 6.98631 95.2851 6.98631H92.7485C92.7245 7.21419 92.7065 7.44207 92.6945 7.66995C92.6825 7.89783 92.6765 8.11372 92.6765 8.31761C92.6765 8.84533 92.7065 9.37305 92.7664 9.90078C92.8384 10.4285 92.9464 10.9022 93.0903 11.322C93.2462 11.7418 93.4441 12.0836 93.684 12.3475C93.9238 12.6113 94.2117 12.7433 94.5475 12.7433C94.7994 12.7433 95.0213 12.6713 95.2132 12.5274C95.4051 12.3835 95.573 12.2036 95.7169 11.9877C95.8608 11.7718 95.9808 11.5379 96.0767 11.286C96.1846 11.0222 96.2626 10.7823 96.3106 10.5664C96.3705 10.3385 96.4065 10.1406 96.4185 9.97274C96.4425 9.80483 96.4485 9.70888 96.4365 9.68489H96.6164C96.6284 9.72087 96.6224 9.83481 96.5984 10.0267C96.5864 10.2186 96.5505 10.4465 96.4905 10.7103C96.4305 10.9742 96.3406 11.2561 96.2206 11.5559C96.1127 11.8557 95.9688 12.1376 95.7889 12.4015C95.609 12.6533 95.3811 12.8632 95.1052 13.0311C94.8414 13.199 94.5235 13.283 94.1517 13.283C93.672 13.283 93.2642 13.1451 92.9284 12.8692C92.6045 12.5814 92.3407 12.2156 92.1368 11.7718C91.9329 11.316 91.783 10.8123 91.687 10.2606C91.5911 9.70888 91.5431 9.15717 91.5431 8.60546C91.5431 8.13771 91.5911 7.63397 91.687 7.09426C91.783 6.54255 91.9389 6.03881 92.1548 5.58305C92.3826 5.12729 92.6765 4.74949 93.0363 4.44965C93.3961 4.13782 93.8339 3.9819 94.3496 3.9819ZM95.0692 6.80641C95.2251 6.80641 95.3391 6.74044 95.4111 6.60851C95.495 6.47658 95.543 6.31467 95.555 6.12277C95.579 5.93087 95.567 5.72098 95.519 5.4931C95.483 5.26522 95.4111 5.05533 95.3031 4.86343C95.2072 4.67153 95.0752 4.50962 94.9073 4.37769C94.7514 4.24576 94.5715 4.17979 94.3676 4.17979C94.1037 4.17979 93.8819 4.27574 93.702 4.46764C93.522 4.65954 93.3661 4.89342 93.2342 5.16927C93.1143 5.44513 93.0183 5.73297 92.9464 6.03282C92.8744 6.33266 92.8204 6.59052 92.7844 6.80641H95.0692Z" stroke="var(--stroke-0, #EFD1AB)" stroke-width="0.479747" mask="url(#path-1-outside-1_11_147)"/>
</g>
</svg>
