<svg preserveAspectRatio="none" width="100%" height="100%" overflow="visible" style="display: block;" viewBox="0 0 96.9838 17.7866" fill="none" xmlns="http://www.w3.org/2000/svg">
<g id="L&#226;&#128;&#153;&#195;&#169;n&#195;&#169;rgie interieur">
<mask id="path-1-outside-1_9_141" maskUnits="userSpaceOnUse" x="-0.760127" y="-0.760127" width="98" height="19" fill="black">
<rect fill="white" x="-0.760127" y="-0.760127" width="98" height="19"/>
<path d="M1.28332 0.617675C1.45123 0.617675 1.61915 0.611677 1.78706 0.599683C1.95497 0.575696 2.12888 0.551709 2.30878 0.527721V0.617675C2.0929 0.785586 1.96097 0.989478 1.91299 1.22935C1.86502 1.45723 1.84103 1.6971 1.84103 1.94897V12.9232H3.24429C3.70005 12.9232 4.06585 12.7972 4.34171 12.5454C4.61756 12.2815 4.83345 11.9697 4.98937 11.6099C5.14528 11.2501 5.25922 10.8783 5.33119 10.4945C5.40315 10.0987 5.45712 9.76885 5.4931 9.50498H5.63703L5.40315 13.1031H0.275854V13.0311C0.383797 12.9472 0.479747 12.8272 0.563703 12.6713C0.659652 12.5034 0.707627 12.2635 0.707627 11.9517V1.98495C0.707627 1.72109 0.683639 1.46922 0.635665 1.22935C0.58769 0.989478 0.455759 0.785586 0.239873 0.617675V0.527721C0.407785 0.551709 0.575696 0.575696 0.743608 0.599683C0.923513 0.611677 1.10342 0.617675 1.28332 0.617675Z"/>
<path d="M6.26599 2.50668L6.64379 0.671645C6.66778 0.515727 6.72175 0.407784 6.80571 0.347816C6.88966 0.275854 6.97961 0.239873 7.07556 0.239873C7.20749 0.239873 7.32143 0.293845 7.41738 0.401788C7.51333 0.509731 7.52533 0.641662 7.45336 0.797579L6.6258 2.50668H6.26599Z"/>
<path d="M11.126 3.9819C11.4978 3.9819 11.8336 4.05986 12.1334 4.21578C12.4453 4.3597 12.7031 4.5456 12.907 4.77348C13.1229 4.98937 13.2788 5.22924 13.3748 5.4931C13.4707 5.74497 13.4887 5.98484 13.4287 6.21272C13.3808 6.42861 13.2428 6.61451 13.015 6.77043C12.7991 6.91435 12.4812 6.98631 12.0615 6.98631H9.5248C9.50081 7.21419 9.48282 7.44207 9.47083 7.66995C9.45884 7.89783 9.45284 8.11372 9.45284 8.31761C9.45284 8.84533 9.48282 9.37305 9.54279 9.90078C9.61475 10.4285 9.7227 10.9022 9.86662 11.322C10.0225 11.7418 10.2204 12.0836 10.4603 12.3475C10.7002 12.6113 10.988 12.7433 11.3239 12.7433C11.5757 12.7433 11.7976 12.6713 11.9895 12.5274C12.1814 12.3835 12.3493 12.2036 12.4932 11.9877C12.6372 11.7718 12.7571 11.5379 12.853 11.286C12.961 11.0222 13.0389 10.7823 13.0869 10.5664C13.1469 10.3385 13.1829 10.1406 13.1949 9.97274C13.2189 9.80483 13.2248 9.70888 13.2129 9.68489H13.3928C13.4048 9.72087 13.3988 9.83481 13.3748 10.0267C13.3628 10.2186 13.3268 10.4465 13.2668 10.7103C13.2069 10.9742 13.1169 11.2561 12.997 11.5559C12.889 11.8557 12.7451 12.1376 12.5652 12.4015C12.3853 12.6533 12.1574 12.8632 11.8816 13.0311C11.6177 13.199 11.2999 13.283 10.9281 13.283C10.4483 13.283 10.0405 13.1451 9.70471 12.8692C9.38088 12.5814 9.11702 12.2156 8.91312 11.7718C8.70923 11.316 8.55931 10.8123 8.46336 10.2606C8.36741 9.70888 8.31944 9.15717 8.31944 8.60546C8.31944 8.13771 8.36741 7.63397 8.46336 7.09426C8.55931 6.54255 8.71523 6.03881 8.93111 5.58305C9.15899 5.12729 9.45284 4.74949 9.81265 4.44965C10.1725 4.13782 10.6102 3.9819 11.126 3.9819ZM11.8456 6.80641C12.0015 6.80641 12.1154 6.74044 12.1874 6.60851C12.2714 6.47658 12.3193 6.31467 12.3313 6.12277C12.3553 5.93087 12.3433 5.72098 12.2953 5.4931C12.2594 5.26522 12.1874 5.05533 12.0795 4.86343C11.9835 4.67153 11.8516 4.50962 11.6837 4.37769C11.5277 4.24576 11.3478 4.17979 11.1439 4.17979C10.8801 4.17979 10.6582 4.27574 10.4783 4.46764C10.2984 4.65954 10.1425 4.89342 10.0105 5.16927C9.89061 5.44513 9.79466 5.73297 9.7227 6.03282C9.65074 6.33266 9.59676 6.59052 9.56078 6.80641H11.8456ZM11.5757 1.33729C11.5997 1.18138 11.6537 1.07343 11.7376 1.01346C11.8216 0.941503 11.9115 0.905522 12.0075 0.905522C12.1394 0.905522 12.2534 0.959494 12.3493 1.06744C12.4453 1.17538 12.4573 1.30731 12.3853 1.46323L11.5577 3.17233H11.1979L11.5757 1.33729Z"/>
<path d="M15.0965 11.6459V5.79894C15.0965 5.41514 15.0485 5.15728 14.9526 5.02535C14.8686 4.88142 14.7787 4.79747 14.6827 4.77348V4.68353C14.7787 4.68353 14.8986 4.67153 15.0425 4.64755C15.1865 4.62356 15.3244 4.59358 15.4563 4.55759C15.6003 4.50962 15.7322 4.45565 15.8521 4.39568C15.984 4.33571 16.08 4.26375 16.14 4.17979H16.2299V5.85291C16.3858 5.24123 16.6377 4.77948 16.9855 4.46764C17.3333 4.15581 17.7351 3.99989 18.1909 3.99989C18.8745 3.99989 19.4142 4.34171 19.81 5.02535C20.2058 5.69699 20.4037 6.61451 20.4037 7.7779V11.6818C20.4037 11.9337 20.4277 12.1796 20.4757 12.4194C20.5237 12.6473 20.6556 12.8452 20.8715 13.0131V13.1031C20.6916 13.0791 20.5177 13.0611 20.3497 13.0491C20.1818 13.0251 20.0139 13.0131 19.846 13.0131C19.6661 13.0131 19.4862 13.0251 19.3063 13.0491C19.1384 13.0611 18.9705 13.0791 18.8026 13.1031V13.0131C19.0184 12.8452 19.1504 12.6413 19.1984 12.4015C19.2463 12.1616 19.2703 11.9097 19.2703 11.6459V7.83187C19.2703 6.70446 19.1504 5.82892 18.9105 5.20525C18.6706 4.58158 18.3228 4.26975 17.8671 4.26975C17.6632 4.26975 17.4593 4.33571 17.2554 4.46764C17.0635 4.59957 16.8896 4.79147 16.7337 5.04334C16.5897 5.29521 16.4698 5.60704 16.3738 5.97884C16.2779 6.35065 16.2299 6.77043 16.2299 7.23818V11.6459C16.2299 11.8977 16.2539 12.1496 16.3019 12.4015C16.3499 12.6413 16.4818 12.8452 16.6977 13.0131V13.1031C16.5178 13.0791 16.3439 13.0611 16.1759 13.0491C16.008 13.0251 15.8401 13.0131 15.6722 13.0131C15.4923 13.0131 15.3124 13.0251 15.1325 13.0491C14.9646 13.0611 14.7967 13.0791 14.6288 13.1031V13.0131C14.8447 12.8452 14.9766 12.6413 15.0246 12.4015C15.0725 12.1616 15.0965 11.9097 15.0965 11.6459Z"/>
<path d="M24.4959 3.9819C24.8677 3.9819 25.2035 4.05986 25.5033 4.21578C25.8152 4.3597 26.073 4.5456 26.2769 4.77348C26.4928 4.98937 26.6487 5.22924 26.7447 5.4931C26.8406 5.74497 26.8586 5.98484 26.7986 6.21272C26.7507 6.42861 26.6127 6.61451 26.3849 6.77043C26.169 6.91435 25.8511 6.98631 25.4314 6.98631H22.8947C22.8707 7.21419 22.8527 7.44207 22.8407 7.66995C22.8287 7.89783 22.8227 8.11372 22.8227 8.31761C22.8227 8.84533 22.8527 9.37305 22.9127 9.90078C22.9847 10.4285 23.0926 10.9022 23.2365 11.322C23.3924 11.7418 23.5903 12.0836 23.8302 12.3475C24.0701 12.6113 24.3579 12.7433 24.6937 12.7433C24.9456 12.7433 25.1675 12.6713 25.3594 12.5274C25.5513 12.3835 25.7192 12.2036 25.8631 11.9877C26.0071 11.7718 26.127 11.5379 26.2229 11.286C26.3309 11.0222 26.4088 10.7823 26.4568 10.5664C26.5168 10.3385 26.5528 10.1406 26.5648 9.97274C26.5887 9.80483 26.5947 9.70888 26.5828 9.68489H26.7627C26.7747 9.72087 26.7687 9.83481 26.7447 10.0267C26.7327 10.2186 26.6967 10.4465 26.6367 10.7103C26.5768 10.9742 26.4868 11.2561 26.3669 11.5559C26.2589 11.8557 26.115 12.1376 25.9351 12.4015C25.7552 12.6533 25.5273 12.8632 25.2515 13.0311C24.9876 13.199 24.6698 13.283 24.298 13.283C23.8182 13.283 23.4104 13.1451 23.0746 12.8692C22.7508 12.5814 22.4869 12.2156 22.283 11.7718C22.0791 11.316 21.9292 10.8123 21.8333 10.2606C21.7373 9.70888 21.6893 9.15717 21.6893 8.60546C21.6893 8.13771 21.7373 7.63397 21.8333 7.09426C21.9292 6.54255 22.0851 6.03881 22.301 5.58305C22.5289 5.12729 22.8227 4.74949 23.1825 4.44965C23.5424 4.13782 23.9801 3.9819 24.4959 3.9819ZM25.2155 6.80641C25.3714 6.80641 25.4853 6.74044 25.5573 6.60851C25.6412 6.47658 25.6892 6.31467 25.7012 6.12277C25.7252 5.93087 25.7132 5.72098 25.6652 5.4931C25.6293 5.26522 25.5573 5.05533 25.4493 4.86343C25.3534 4.67153 25.2215 4.50962 25.0536 4.37769C24.8976 4.24576 24.7177 4.17979 24.5138 4.17979C24.25 4.17979 24.0281 4.27574 23.8482 4.46764C23.6683 4.65954 23.5124 4.89342 23.3804 5.16927C23.2605 5.44513 23.1646 5.73297 23.0926 6.03282C23.0206 6.33266 22.9667 6.59052 22.9307 6.80641H25.2155ZM24.9456 1.33729C24.9696 1.18138 25.0236 1.07343 25.1075 1.01346C25.1915 0.941503 25.2814 0.905522 25.3774 0.905522C25.5093 0.905522 25.6233 0.959494 25.7192 1.06744C25.8152 1.17538 25.8272 1.30731 25.7552 1.46323L24.9276 3.17233H24.5678L24.9456 1.33729Z"/>
<path d="M27.9987 13.1031V13.0131C28.0946 12.9891 28.1846 12.9112 28.2685 12.7793C28.3645 12.6353 28.4124 12.3715 28.4124 11.9877V5.79894C28.4124 5.41514 28.3645 5.15728 28.2685 5.02535C28.1846 4.88142 28.0946 4.79747 27.9987 4.77348V4.68353C28.2026 4.68353 28.4604 4.64155 28.7723 4.55759C29.0841 4.47364 29.306 4.34771 29.4379 4.17979H29.5279V5.8709C29.6358 5.42714 29.8157 5.03734 30.0676 4.70152C30.3314 4.3537 30.6732 4.17979 31.093 4.17979C31.4408 4.17979 31.7467 4.31172 32.0105 4.57559C32.2864 4.82745 32.4243 5.15128 32.4243 5.54707L31.2729 5.61904C31.225 5.34318 31.135 5.15128 31.0031 5.04334C30.8711 4.9234 30.7332 4.86343 30.5893 4.86343C30.3974 4.86343 30.2295 4.95938 30.0856 5.15128C29.9536 5.33119 29.8457 5.54707 29.7617 5.79894C29.6778 6.03881 29.6178 6.28468 29.5818 6.53655C29.5458 6.78842 29.5279 6.98032 29.5279 7.11225V11.9877C29.5279 12.3715 29.5698 12.6353 29.6538 12.7793C29.7497 12.9112 29.8457 12.9891 29.9416 13.0131V13.1031H27.9987Z"/>
<path d="M32.7886 14.5423C32.7886 14.3504 32.8066 14.1465 32.8426 13.9306L33.976 12.9232C33.916 13.187 33.8681 13.4509 33.8321 13.7148C33.7961 13.9786 33.7781 14.2485 33.7781 14.5243C33.7781 14.8122 33.8021 15.118 33.8501 15.4419C33.91 15.7777 34.006 16.0895 34.1379 16.3774C34.2818 16.6652 34.4618 16.8991 34.6776 17.079C34.9055 17.2709 35.1874 17.3668 35.5232 17.3668C35.847 17.3668 36.1469 17.2769 36.4227 17.097C36.6986 16.9291 36.9384 16.7012 37.1423 16.4133C37.3582 16.1375 37.5261 15.8197 37.6461 15.4598C37.766 15.112 37.826 14.7522 37.826 14.3804C37.826 14.0206 37.766 13.7268 37.6461 13.4989C37.5381 13.283 37.3882 13.1211 37.1963 13.0131C37.0044 12.8932 36.7825 12.8152 36.5307 12.7793C36.2788 12.7433 36.0149 12.7253 35.7391 12.7253C35.5232 12.7253 35.3013 12.7313 35.0734 12.7433C34.8575 12.7553 34.6477 12.7613 34.4438 12.7613C34.2279 12.7613 34.024 12.7493 33.8321 12.7253C33.6522 12.7013 33.4903 12.6533 33.3463 12.5814C33.2144 12.5094 33.1065 12.4075 33.0225 12.2755C32.9505 12.1436 32.9146 11.9697 32.9146 11.7538C32.9146 11.418 33.0045 11.1121 33.1844 10.8363C33.3643 10.5604 33.6102 10.3445 33.922 10.1886H33.8861C33.5742 9.80483 33.3463 9.37905 33.2024 8.9113C33.0585 8.44354 32.9865 7.9638 32.9865 7.47206C32.9865 7.06427 33.0345 6.65649 33.1305 6.2487C33.2264 5.82892 33.3823 5.45712 33.5982 5.13329C33.8141 4.79747 34.0899 4.52761 34.4258 4.32372C34.7616 4.10783 35.1634 3.99989 35.6311 3.99989C35.7271 3.99989 35.823 4.00589 35.919 4.01788C36.0149 4.01788 36.1109 4.02388 36.2068 4.03587C36.3627 3.91593 36.5427 3.83198 36.7465 3.784C36.9624 3.72404 37.1843 3.69405 37.4122 3.69405C37.6521 3.69405 37.8859 3.72404 38.1138 3.784C38.3417 3.84397 38.5396 3.92193 38.7075 4.01788L37.9699 4.98937C37.9099 4.62956 37.766 4.37769 37.5381 4.23377C37.3102 4.07785 37.0884 3.99989 36.8725 3.99989C36.7046 3.99989 36.5606 4.02987 36.4407 4.08984C36.7765 4.20978 37.0584 4.39568 37.2863 4.64755C37.5261 4.88742 37.718 5.16328 37.862 5.47511C38.0179 5.77495 38.1258 6.09878 38.1858 6.4466C38.2577 6.78242 38.2937 7.11225 38.2937 7.43608C38.2937 7.84386 38.2398 8.25764 38.1318 8.67742C38.0359 9.0972 37.8799 9.475 37.6641 9.81082C37.4482 10.1466 37.1723 10.4225 36.8365 10.6384C36.5007 10.8543 36.0989 10.9622 35.6311 10.9622C35.0315 10.9622 34.5037 10.7583 34.048 10.3505C33.94 10.4465 33.8501 10.5604 33.7781 10.6924C33.7061 10.8123 33.6702 10.9382 33.6702 11.0702C33.6702 11.298 33.7901 11.448 34.03 11.5199C34.2699 11.5799 34.5697 11.6219 34.9295 11.6459C35.2893 11.6578 35.6791 11.6818 36.0989 11.7178C36.5187 11.7418 36.9085 11.8258 37.2683 11.9697C37.6281 12.1016 37.9279 12.3295 38.1678 12.6533C38.4077 12.9652 38.5276 13.4209 38.5276 14.0206C38.5276 14.4764 38.4496 14.9141 38.2937 15.3339C38.1498 15.7657 37.9459 16.1435 37.6821 16.4673C37.4182 16.7911 37.1004 17.049 36.7286 17.2409C36.3687 17.4448 35.967 17.5467 35.5232 17.5467C35.1274 17.5467 34.7616 17.4688 34.4258 17.3129C34.1019 17.1569 33.8141 16.9411 33.5622 16.6652C33.3224 16.4013 33.1305 16.0835 32.9865 15.7117C32.8546 15.3519 32.7886 14.9621 32.7886 14.5423ZM34.1199 7.50804C34.1199 7.73592 34.1319 8.03576 34.1559 8.40756C34.1919 8.77937 34.2579 9.14517 34.3538 9.50498C34.4618 9.8528 34.6177 10.1526 34.8216 10.4045C35.0255 10.6564 35.2953 10.7823 35.6311 10.7823C35.955 10.7823 36.2128 10.6564 36.4047 10.4045C36.6086 10.1406 36.7645 9.83481 36.8725 9.48699C36.9924 9.12718 37.0704 8.76138 37.1064 8.38957C37.1423 8.01777 37.1603 7.71793 37.1603 7.49005C37.1603 7.25017 37.1363 6.94434 37.0884 6.57253C37.0524 6.20073 36.9804 5.84092 36.8725 5.4931C36.7645 5.13329 36.6086 4.82745 36.4047 4.57559C36.2128 4.31172 35.955 4.17979 35.6311 4.17979C35.2953 4.17979 35.0255 4.30573 34.8216 4.55759C34.6297 4.80946 34.4797 5.1153 34.3718 5.47511C34.2639 5.82293 34.1919 6.18873 34.1559 6.57253C34.1319 6.94434 34.1199 7.25617 34.1199 7.50804Z"/>
<path d="M39.2427 13.0491C39.4586 12.9292 39.5905 12.7853 39.6385 12.6173C39.6865 12.4494 39.7105 12.2755 39.7105 12.0956V5.22324C39.7105 4.83945 39.6625 4.58158 39.5666 4.44965C39.4826 4.30573 39.3926 4.22177 39.2967 4.19778V4.10783C39.3926 4.10783 39.5126 4.09584 39.6565 4.07185C39.8004 4.04786 39.9384 4.01788 40.0703 3.9819C40.2142 3.93392 40.3461 3.87995 40.4661 3.81998C40.598 3.76002 40.694 3.68805 40.7539 3.6041H40.8439V12.0596C40.8439 12.2395 40.8679 12.4194 40.9158 12.5994C40.9638 12.7793 41.0957 12.9232 41.3116 13.0311V13.1031C41.1317 13.0791 40.9578 13.0611 40.7899 13.0491C40.622 13.0251 40.4541 13.0131 40.2862 13.0131C40.1063 13.0131 39.9264 13.0251 39.7465 13.0491C39.5785 13.0611 39.4106 13.0791 39.2427 13.1031V13.0491ZM39.4586 1.895C39.4586 1.66712 39.5186 1.46323 39.6385 1.28332C39.7705 1.09142 39.9623 0.995475 40.2142 0.995475C40.4541 0.995475 40.634 1.08543 40.7539 1.26533C40.8859 1.44524 40.9518 1.64913 40.9518 1.87701C40.9518 2.10489 40.8859 2.30878 40.7539 2.48869C40.634 2.66859 40.4481 2.75854 40.1962 2.75854C39.9444 2.75854 39.7585 2.66859 39.6385 2.48869C39.5186 2.30878 39.4586 2.11089 39.4586 1.895Z"/>
<path d="M44.9284 3.9819C45.3002 3.9819 45.6361 4.05986 45.9359 4.21578C46.2477 4.3597 46.5056 4.5456 46.7095 4.77348C46.9254 4.98937 47.0813 5.22924 47.1772 5.4931C47.2732 5.74497 47.2912 5.98484 47.2312 6.21272C47.1832 6.42861 47.0453 6.61451 46.8174 6.77043C46.6015 6.91435 46.2837 6.98631 45.8639 6.98631H43.3273C43.3033 7.21419 43.2853 7.44207 43.2733 7.66995C43.2613 7.89783 43.2553 8.11372 43.2553 8.31761C43.2553 8.84533 43.2853 9.37305 43.3453 9.90078C43.4172 10.4285 43.5252 10.9022 43.6691 11.322C43.825 11.7418 44.0229 12.0836 44.2628 12.3475C44.5027 12.6113 44.7905 12.7433 45.1263 12.7433C45.3782 12.7433 45.6001 12.6713 45.792 12.5274C45.9839 12.3835 46.1518 12.2036 46.2957 11.9877C46.4396 11.7718 46.5596 11.5379 46.6555 11.286C46.7635 11.0222 46.8414 10.7823 46.8894 10.5664C46.9494 10.3385 46.9853 10.1406 46.9973 9.97274C47.0213 9.80483 47.0273 9.70888 47.0153 9.68489H47.1952C47.2072 9.72087 47.2012 9.83481 47.1772 10.0267C47.1652 10.2186 47.1293 10.4465 47.0693 10.7103C47.0093 10.9742 46.9194 11.2561 46.7994 11.5559C46.6915 11.8557 46.5476 12.1376 46.3677 12.4015C46.1878 12.6533 45.9599 12.8632 45.684 13.0311C45.4202 13.199 45.1023 13.283 44.7305 13.283C44.2508 13.283 43.843 13.1451 43.5072 12.8692C43.1834 12.5814 42.9195 12.2156 42.7156 11.7718C42.5117 11.316 42.3618 10.8123 42.2658 10.2606C42.1699 9.70888 42.1219 9.15717 42.1219 8.60546C42.1219 8.13771 42.1699 7.63397 42.2658 7.09426C42.3618 6.54255 42.5177 6.03881 42.7336 5.58305C42.9615 5.12729 43.2553 4.74949 43.6151 4.44965C43.9749 4.13782 44.4127 3.9819 44.9284 3.9819ZM45.6481 6.80641C45.804 6.80641 45.9179 6.74044 45.9899 6.60851C46.0738 6.47658 46.1218 6.31467 46.1338 6.12277C46.1578 5.93087 46.1458 5.72098 46.0978 5.4931C46.0618 5.26522 45.9899 5.05533 45.8819 4.86343C45.786 4.67153 45.654 4.50962 45.4861 4.37769C45.3302 4.24576 45.1503 4.17979 44.9464 4.17979C44.6826 4.17979 44.4607 4.27574 44.2808 4.46764C44.1009 4.65954 43.9449 4.89342 43.813 5.16927C43.6931 5.44513 43.5971 5.73297 43.5252 6.03282C43.4532 6.33266 43.3992 6.59052 43.3633 6.80641H45.6481Z"/>
<path d="M51.822 13.0491C52.0379 12.9292 52.1698 12.7853 52.2178 12.6173C52.2658 12.4494 52.2898 12.2755 52.2898 12.0956V5.22324C52.2898 4.83945 52.2418 4.58158 52.1459 4.44965C52.0619 4.30573 51.9719 4.22177 51.876 4.19778V4.10783C51.9719 4.10783 52.0919 4.09584 52.2358 4.07185C52.3797 4.04786 52.5177 4.01788 52.6496 3.9819C52.7935 3.93392 52.9254 3.87995 53.0454 3.81998C53.1773 3.76002 53.2733 3.68805 53.3332 3.6041H53.4232V12.0596C53.4232 12.2395 53.4472 12.4194 53.4951 12.5994C53.5431 12.7793 53.675 12.9232 53.8909 13.0311V13.1031C53.711 13.0791 53.5371 13.0611 53.3692 13.0491C53.2013 13.0251 53.0334 13.0131 52.8655 13.0131C52.6856 13.0131 52.5057 13.0251 52.3258 13.0491C52.1578 13.0611 51.9899 13.0791 51.822 13.1031V13.0491ZM52.0379 1.895C52.0379 1.66712 52.0979 1.46323 52.2178 1.28332C52.3498 1.09142 52.5416 0.995475 52.7935 0.995475C53.0334 0.995475 53.2133 1.08543 53.3332 1.26533C53.4652 1.44524 53.5311 1.64913 53.5311 1.87701C53.5311 2.10489 53.4652 2.30878 53.3332 2.48869C53.2133 2.66859 53.0274 2.75854 52.7755 2.75854C52.5237 2.75854 52.3378 2.66859 52.2178 2.48869C52.0979 2.30878 52.0379 2.11089 52.0379 1.895Z"/>
<path d="M55.2589 11.6459V5.79894C55.2589 5.41514 55.2109 5.15728 55.115 5.02535C55.031 4.88142 54.9411 4.79747 54.8451 4.77348V4.68353C54.9411 4.68353 55.061 4.67153 55.2049 4.64755C55.3489 4.62356 55.4868 4.59358 55.6187 4.55759C55.7626 4.50962 55.8946 4.45565 56.0145 4.39568C56.1464 4.33571 56.2424 4.26375 56.3024 4.17979H56.3923V5.85291C56.5482 5.24123 56.8001 4.77948 57.1479 4.46764C57.4957 4.15581 57.8975 3.99989 58.3533 3.99989C59.0369 3.99989 59.5766 4.34171 59.9724 5.02535C60.3682 5.69699 60.5661 6.61451 60.5661 7.7779V11.6818C60.5661 11.9337 60.5901 12.1796 60.6381 12.4194C60.6861 12.6473 60.818 12.8452 61.0339 13.0131V13.1031C60.854 13.0791 60.6801 13.0611 60.5121 13.0491C60.3442 13.0251 60.1763 13.0131 60.0084 13.0131C59.8285 13.0131 59.6486 13.0251 59.4687 13.0491C59.3008 13.0611 59.1329 13.0791 58.965 13.1031V13.0131C59.1808 12.8452 59.3128 12.6413 59.3608 12.4015C59.4087 12.1616 59.4327 11.9097 59.4327 11.6459V7.83187C59.4327 6.70446 59.3128 5.82892 59.0729 5.20525C58.833 4.58158 58.4852 4.26975 58.0295 4.26975C57.8256 4.26975 57.6217 4.33571 57.4178 4.46764C57.2259 4.59957 57.052 4.79147 56.8961 5.04334C56.7521 5.29521 56.6322 5.60704 56.5362 5.97884C56.4403 6.35065 56.3923 6.77043 56.3923 7.23818V11.6459C56.3923 11.8977 56.4163 12.1496 56.4643 12.4015C56.5123 12.6413 56.6442 12.8452 56.8601 13.0131V13.1031C56.6802 13.0791 56.5063 13.0611 56.3383 13.0491C56.1704 13.0251 56.0025 13.0131 55.8346 13.0131C55.6547 13.0131 55.4748 13.0251 55.2949 13.0491C55.127 13.0611 54.9591 13.0791 54.7912 13.1031V13.0131C55.007 12.8452 55.139 12.6413 55.187 12.4015C55.2349 12.1616 55.2589 11.9097 55.2589 11.6459Z"/>
<path d="M61.9417 4.17979V3.99989C62.1456 3.9879 62.3315 3.89794 62.4994 3.73003C62.6793 3.55013 62.8352 3.34024 62.9671 3.10036C63.1111 2.86049 63.225 2.61462 63.309 2.36275C63.4049 2.11089 63.4769 1.90699 63.5249 1.75108L63.6688 1.84103V3.99989H64.4424V4.17979H63.6688V11.43C63.6688 11.8857 63.7048 12.2036 63.7767 12.3835C63.8607 12.5634 63.9686 12.6533 64.1005 12.6533C64.2565 12.6533 64.3884 12.5694 64.4963 12.4015C64.6043 12.2335 64.6642 12.0536 64.6762 11.8617L64.7662 11.8797C64.7662 12.2635 64.6583 12.5874 64.4424 12.8512C64.2385 13.1151 63.9686 13.247 63.6328 13.247C63.285 13.247 63.0151 13.1091 62.8232 12.8332C62.6433 12.5454 62.5534 12.1616 62.5534 11.6818V4.17979H61.9417Z"/>
<path d="M68.1193 3.9819C68.4911 3.9819 68.8269 4.05986 69.1268 4.21578C69.4386 4.3597 69.6965 4.5456 69.9004 4.77348C70.1163 4.98937 70.2722 5.22924 70.3681 5.4931C70.4641 5.74497 70.4821 5.98484 70.4221 6.21272C70.3741 6.42861 70.2362 6.61451 70.0083 6.77043C69.7924 6.91435 69.4746 6.98631 69.0548 6.98631H66.5182C66.4942 7.21419 66.4762 7.44207 66.4642 7.66995C66.4522 7.89783 66.4462 8.11372 66.4462 8.31761C66.4462 8.84533 66.4762 9.37305 66.5362 9.90078C66.6081 10.4285 66.7161 10.9022 66.86 11.322C67.0159 11.7418 67.2138 12.0836 67.4537 12.3475C67.6935 12.6113 67.9814 12.7433 68.3172 12.7433C68.5691 12.7433 68.791 12.6713 68.9829 12.5274C69.1748 12.3835 69.3427 12.2036 69.4866 11.9877C69.6305 11.7718 69.7505 11.5379 69.8464 11.286C69.9544 11.0222 70.0323 10.7823 70.0803 10.5664C70.1403 10.3385 70.1762 10.1406 70.1882 9.97274C70.2122 9.80483 70.2182 9.70888 70.2062 9.68489H70.3861C70.3981 9.72087 70.3921 9.83481 70.3681 10.0267C70.3561 10.2186 70.3202 10.4465 70.2602 10.7103C70.2002 10.9742 70.1103 11.2561 69.9903 11.5559C69.8824 11.8557 69.7385 12.1376 69.5586 12.4015C69.3787 12.6533 69.1508 12.8632 68.8749 13.0311C68.6111 13.199 68.2932 13.283 67.9214 13.283C67.4417 13.283 67.0339 13.1451 66.6981 12.8692C66.3742 12.5814 66.1104 12.2156 65.9065 11.7718C65.7026 11.316 65.5527 10.8123 65.4567 10.2606C65.3608 9.70888 65.3128 9.15717 65.3128 8.60546C65.3128 8.13771 65.3608 7.63397 65.4567 7.09426C65.5527 6.54255 65.7086 6.03881 65.9245 5.58305C66.1524 5.12729 66.4462 4.74949 66.806 4.44965C67.1658 4.13782 67.6036 3.9819 68.1193 3.9819ZM68.8389 6.80641C68.9949 6.80641 69.1088 6.74044 69.1808 6.60851C69.2647 6.47658 69.3127 6.31467 69.3247 6.12277C69.3487 5.93087 69.3367 5.72098 69.2887 5.4931C69.2527 5.26522 69.1808 5.05533 69.0728 4.86343C68.9769 4.67153 68.8449 4.50962 68.677 4.37769C68.5211 4.24576 68.3412 4.17979 68.1373 4.17979C67.8734 4.17979 67.6516 4.27574 67.4717 4.46764C67.2918 4.65954 67.1358 4.89342 67.0039 5.16927C66.884 5.44513 66.788 5.73297 66.7161 6.03282C66.6441 6.33266 66.5901 6.59052 66.5541 6.80641H68.8389Z"/>
<path d="M71.2707 13.1031V13.0131C71.3667 12.9891 71.4566 12.9112 71.5406 12.7793C71.6366 12.6353 71.6845 12.3715 71.6845 11.9877V5.79894C71.6845 5.41514 71.6366 5.15728 71.5406 5.02535C71.4566 4.88142 71.3667 4.79747 71.2707 4.77348V4.68353C71.4746 4.68353 71.7325 4.64155 72.0443 4.55759C72.3562 4.47364 72.5781 4.34771 72.71 4.17979H72.7999V5.8709C72.9079 5.42714 73.0878 5.03734 73.3397 4.70152C73.6035 4.3537 73.9453 4.17979 74.3651 4.17979C74.7129 4.17979 75.0188 4.31172 75.2826 4.57559C75.5585 4.82745 75.6964 5.15128 75.6964 5.54707L74.545 5.61904C74.497 5.34318 74.4071 5.15128 74.2752 5.04334C74.1432 4.9234 74.0053 4.86343 73.8614 4.86343C73.6695 4.86343 73.5016 4.95938 73.3576 5.15128C73.2257 5.33119 73.1178 5.54707 73.0338 5.79894C72.9499 6.03881 72.8899 6.28468 72.8539 6.53655C72.8179 6.78842 72.7999 6.98032 72.7999 7.11225V11.9877C72.7999 12.3715 72.8419 12.6353 72.9259 12.7793C73.0218 12.9112 73.1178 12.9891 73.2137 13.0131V13.1031H71.2707Z"/>
<path d="M76.3306 13.0491C76.5465 12.9292 76.6784 12.7853 76.7264 12.6173C76.7743 12.4494 76.7983 12.2755 76.7983 12.0956V5.22324C76.7983 4.83945 76.7504 4.58158 76.6544 4.44965C76.5705 4.30573 76.4805 4.22177 76.3845 4.19778V4.10783C76.4805 4.10783 76.6004 4.09584 76.7444 4.07185C76.8883 4.04786 77.0262 4.01788 77.1581 3.9819C77.3021 3.93392 77.434 3.87995 77.5539 3.81998C77.6859 3.76002 77.7818 3.68805 77.8418 3.6041H77.9317V12.0596C77.9317 12.2395 77.9557 12.4194 78.0037 12.5994C78.0517 12.7793 78.1836 12.9232 78.3995 13.0311V13.1031C78.2196 13.0791 78.0457 13.0611 77.8778 13.0491C77.7098 13.0251 77.5419 13.0131 77.374 13.0131C77.1941 13.0131 77.0142 13.0251 76.8343 13.0491C76.6664 13.0611 76.4985 13.0791 76.3306 13.1031V13.0491ZM76.5465 1.895C76.5465 1.66712 76.6064 1.46323 76.7264 1.28332C76.8583 1.09142 77.0502 0.995475 77.3021 0.995475C77.5419 0.995475 77.7218 1.08543 77.8418 1.26533C77.9737 1.44524 78.0397 1.64913 78.0397 1.87701C78.0397 2.10489 77.9737 2.30878 77.8418 2.48869C77.7218 2.66859 77.5359 2.75854 77.2841 2.75854C77.0322 2.75854 76.8463 2.66859 76.7264 2.48869C76.6064 2.30878 76.5465 2.11089 76.5465 1.895Z"/>
<path d="M82.0163 3.9819C82.3881 3.9819 82.7239 4.05986 83.0238 4.21578C83.3356 4.3597 83.5934 4.5456 83.7973 4.77348C84.0132 4.98937 84.1691 5.22924 84.2651 5.4931C84.361 5.74497 84.379 5.98484 84.3191 6.21272C84.2711 6.42861 84.1332 6.61451 83.9053 6.77043C83.6894 6.91435 83.3716 6.98631 82.9518 6.98631H80.4151C80.3911 7.21419 80.3731 7.44207 80.3612 7.66995C80.3492 7.89783 80.3432 8.11372 80.3432 8.31761C80.3432 8.84533 80.3731 9.37305 80.4331 9.90078C80.5051 10.4285 80.613 10.9022 80.7569 11.322C80.9129 11.7418 81.1108 12.0836 81.3506 12.3475C81.5905 12.6113 81.8784 12.7433 82.2142 12.7433C82.466 12.7433 82.6879 12.6713 82.8798 12.5274C83.0717 12.3835 83.2396 12.2036 83.3836 11.9877C83.5275 11.7718 83.6474 11.5379 83.7434 11.286C83.8513 11.0222 83.9293 10.7823 83.9772 10.5664C84.0372 10.3385 84.0732 10.1406 84.0852 9.97274C84.1092 9.80483 84.1152 9.70888 84.1032 9.68489H84.2831C84.2951 9.72087 84.2891 9.83481 84.2651 10.0267C84.2531 10.2186 84.2171 10.4465 84.1572 10.7103C84.0972 10.9742 84.0072 11.2561 83.8873 11.5559C83.7793 11.8557 83.6354 12.1376 83.4555 12.4015C83.2756 12.6533 83.0477 12.8632 82.7719 13.0311C82.508 13.199 82.1902 13.283 81.8184 13.283C81.3386 13.283 80.9309 13.1451 80.595 12.8692C80.2712 12.5814 80.0073 12.2156 79.8034 11.7718C79.5996 11.316 79.4496 10.8123 79.3537 10.2606C79.2577 9.70888 79.2098 9.15717 79.2098 8.60546C79.2098 8.13771 79.2577 7.63397 79.3537 7.09426C79.4496 6.54255 79.6055 6.03881 79.8214 5.58305C80.0493 5.12729 80.3432 4.74949 80.703 4.44965C81.0628 4.13782 81.5006 3.9819 82.0163 3.9819ZM82.7359 6.80641C82.8918 6.80641 83.0058 6.74044 83.0777 6.60851C83.1617 6.47658 83.2096 6.31467 83.2216 6.12277C83.2456 5.93087 83.2336 5.72098 83.1857 5.4931C83.1497 5.26522 83.0777 5.05533 82.9698 4.86343C82.8738 4.67153 82.7419 4.50962 82.574 4.37769C82.4181 4.24576 82.2382 4.17979 82.0343 4.17979C81.7704 4.17979 81.5485 4.27574 81.3686 4.46764C81.1887 4.65954 81.0328 4.89342 80.9009 5.16927C80.7809 5.44513 80.685 5.73297 80.613 6.03282C80.5411 6.33266 80.4871 6.59052 80.4511 6.80641H82.7359Z"/>
<path d="M86.2112 4.26975C86.3791 4.26975 86.547 4.26375 86.7149 4.25176C86.8948 4.22777 87.0687 4.20378 87.2366 4.17979V4.26975C87.0207 4.43766 86.8888 4.64155 86.8408 4.88142C86.7928 5.1213 86.7689 5.37316 86.7689 5.63703V9.45101C86.7689 10.5784 86.8888 11.454 87.1287 12.0776C87.3686 12.7013 87.7164 13.0131 88.1721 13.0131C88.376 13.0131 88.5739 12.9472 88.7658 12.8152C88.9697 12.6833 89.1436 12.4914 89.2875 12.2395C89.4435 11.9877 89.5694 11.6758 89.6653 11.304C89.7613 10.9322 89.8093 10.5125 89.8093 10.0447V5.63703C89.8093 5.38516 89.7853 5.13929 89.7373 4.89941C89.6893 4.64755 89.5574 4.43766 89.3415 4.26975V4.17979C89.5214 4.20378 89.6953 4.22777 89.8632 4.25176C90.0311 4.26375 90.205 4.26975 90.385 4.26975C90.5529 4.26975 90.7208 4.26375 90.8887 4.25176C91.0686 4.22777 91.2425 4.20378 91.4104 4.17979V4.26975C91.1945 4.43766 91.0626 4.64155 91.0146 4.88142C90.9666 5.1213 90.9427 5.37316 90.9427 5.63703V11.4839C90.9427 11.8677 90.9846 12.1316 91.0686 12.2755C91.1645 12.4075 91.2605 12.4854 91.3564 12.5094V12.5994C91.2605 12.5994 91.1406 12.6113 90.9966 12.6353C90.8527 12.6593 90.7088 12.6953 90.5649 12.7433C90.4329 12.7793 90.301 12.8272 90.1691 12.8872C90.0491 12.9472 89.9592 13.0191 89.8992 13.1031H89.8093V11.43C89.6533 12.0416 89.4015 12.5034 89.0537 12.8152C88.7058 13.1271 88.3041 13.283 87.8483 13.283C87.1647 13.283 86.6249 12.9472 86.2292 12.2755C85.8334 11.5919 85.6355 10.6684 85.6355 9.50498V5.60104C85.6355 5.34918 85.6115 5.1093 85.5635 4.88142C85.5155 4.64155 85.3836 4.43766 85.1677 4.26975V4.17979C85.3476 4.20378 85.5215 4.22777 85.6894 4.25176C85.8573 4.26375 86.0313 4.26975 86.2112 4.26975Z"/>
<path d="M92.3182 13.1031V13.0131C92.4142 12.9891 92.5041 12.9112 92.5881 12.7793C92.684 12.6353 92.732 12.3715 92.732 11.9877V5.79894C92.732 5.41514 92.684 5.15728 92.5881 5.02535C92.5041 4.88142 92.4142 4.79747 92.3182 4.77348V4.68353C92.5221 4.68353 92.78 4.64155 93.0918 4.55759C93.4037 4.47364 93.6255 4.34771 93.7575 4.17979H93.8474V5.8709C93.9554 5.42714 94.1353 5.03734 94.3871 4.70152C94.651 4.3537 94.9928 4.17979 95.4126 4.17979C95.7604 4.17979 96.0663 4.31172 96.3301 4.57559C96.606 4.82745 96.7439 5.15128 96.7439 5.54707L95.5925 5.61904C95.5445 5.34318 95.4546 5.15128 95.3226 5.04334C95.1907 4.9234 95.0528 4.86343 94.9089 4.86343C94.717 4.86343 94.5491 4.95938 94.4051 5.15128C94.2732 5.33119 94.1653 5.54707 94.0813 5.79894C93.9973 6.03881 93.9374 6.28468 93.9014 6.53655C93.8654 6.78842 93.8474 6.98032 93.8474 7.11225V11.9877C93.8474 12.3715 93.8894 12.6353 93.9734 12.7793C94.0693 12.9112 94.1653 12.9891 94.2612 13.0131V13.1031H92.3182Z"/>
</mask>
<path d="M1.28332 0.617675C1.45123 0.617675 1.61915 0.611677 1.78706 0.599683C1.95497 0.575696 2.12888 0.551709 2.30878 0.527721V0.617675C2.0929 0.785586 1.96097 0.989478 1.91299 1.22935C1.86502 1.45723 1.84103 1.6971 1.84103 1.94897V12.9232H3.24429C3.70005 12.9232 4.06585 12.7972 4.34171 12.5454C4.61756 12.2815 4.83345 11.9697 4.98937 11.6099C5.14528 11.2501 5.25922 10.8783 5.33119 10.4945C5.40315 10.0987 5.45712 9.76885 5.4931 9.50498H5.63703L5.40315 13.1031H0.275854V13.0311C0.383797 12.9472 0.479747 12.8272 0.563703 12.6713C0.659652 12.5034 0.707627 12.2635 0.707627 11.9517V1.98495C0.707627 1.72109 0.683639 1.46922 0.635665 1.22935C0.58769 0.989478 0.455759 0.785586 0.239873 0.617675V0.527721C0.407785 0.551709 0.575696 0.575696 0.743608 0.599683C0.923513 0.611677 1.10342 0.617675 1.28332 0.617675Z" fill="var(--fill-0, #FFEAD3)"/>
<path d="M6.26599 2.50668L6.64379 0.671645C6.66778 0.515727 6.72175 0.407784 6.80571 0.347816C6.88966 0.275854 6.97961 0.239873 7.07556 0.239873C7.20749 0.239873 7.32143 0.293845 7.41738 0.401788C7.51333 0.509731 7.52533 0.641662 7.45336 0.797579L6.6258 2.50668H6.26599Z" fill="var(--fill-0, #FFEAD3)"/>
<path d="M11.126 3.9819C11.4978 3.9819 11.8336 4.05986 12.1334 4.21578C12.4453 4.3597 12.7031 4.5456 12.907 4.77348C13.1229 4.98937 13.2788 5.22924 13.3748 5.4931C13.4707 5.74497 13.4887 5.98484 13.4287 6.21272C13.3808 6.42861 13.2428 6.61451 13.015 6.77043C12.7991 6.91435 12.4812 6.98631 12.0615 6.98631H9.5248C9.50081 7.21419 9.48282 7.44207 9.47083 7.66995C9.45884 7.89783 9.45284 8.11372 9.45284 8.31761C9.45284 8.84533 9.48282 9.37305 9.54279 9.90078C9.61475 10.4285 9.7227 10.9022 9.86662 11.322C10.0225 11.7418 10.2204 12.0836 10.4603 12.3475C10.7002 12.6113 10.988 12.7433 11.3239 12.7433C11.5757 12.7433 11.7976 12.6713 11.9895 12.5274C12.1814 12.3835 12.3493 12.2036 12.4932 11.9877C12.6372 11.7718 12.7571 11.5379 12.853 11.286C12.961 11.0222 13.0389 10.7823 13.0869 10.5664C13.1469 10.3385 13.1829 10.1406 13.1949 9.97274C13.2189 9.80483 13.2248 9.70888 13.2129 9.68489H13.3928C13.4048 9.72087 13.3988 9.83481 13.3748 10.0267C13.3628 10.2186 13.3268 10.4465 13.2668 10.7103C13.2069 10.9742 13.1169 11.2561 12.997 11.5559C12.889 11.8557 12.7451 12.1376 12.5652 12.4015C12.3853 12.6533 12.1574 12.8632 11.8816 13.0311C11.6177 13.199 11.2999 13.283 10.9281 13.283C10.4483 13.283 10.0405 13.1451 9.70471 12.8692C9.38088 12.5814 9.11702 12.2156 8.91312 11.7718C8.70923 11.316 8.55931 10.8123 8.46336 10.2606C8.36741 9.70888 8.31944 9.15717 8.31944 8.60546C8.31944 8.13771 8.36741 7.63397 8.46336 7.09426C8.55931 6.54255 8.71523 6.03881 8.93111 5.58305C9.15899 5.12729 9.45284 4.74949 9.81265 4.44965C10.1725 4.13782 10.6102 3.9819 11.126 3.9819ZM11.8456 6.80641C12.0015 6.80641 12.1154 6.74044 12.1874 6.60851C12.2714 6.47658 12.3193 6.31467 12.3313 6.12277C12.3553 5.93087 12.3433 5.72098 12.2953 5.4931C12.2594 5.26522 12.1874 5.05533 12.0795 4.86343C11.9835 4.67153 11.8516 4.50962 11.6837 4.37769C11.5277 4.24576 11.3478 4.17979 11.1439 4.17979C10.8801 4.17979 10.6582 4.27574 10.4783 4.46764C10.2984 4.65954 10.1425 4.89342 10.0105 5.16927C9.89061 5.44513 9.79466 5.73297 9.7227 6.03282C9.65074 6.33266 9.59676 6.59052 9.56078 6.80641H11.8456ZM11.5757 1.33729C11.5997 1.18138 11.6537 1.07343 11.7376 1.01346C11.8216 0.941503 11.9115 0.905522 12.0075 0.905522C12.1394 0.905522 12.2534 0.959494 12.3493 1.06744C12.4453 1.17538 12.4573 1.30731 12.3853 1.46323L11.5577 3.17233H11.1979L11.5757 1.33729Z" fill="var(--fill-0, #FFEAD3)"/>
<path d="M15.0965 11.6459V5.79894C15.0965 5.41514 15.0485 5.15728 14.9526 5.02535C14.8686 4.88142 14.7787 4.79747 14.6827 4.77348V4.68353C14.7787 4.68353 14.8986 4.67153 15.0425 4.64755C15.1865 4.62356 15.3244 4.59358 15.4563 4.55759C15.6003 4.50962 15.7322 4.45565 15.8521 4.39568C15.984 4.33571 16.08 4.26375 16.14 4.17979H16.2299V5.85291C16.3858 5.24123 16.6377 4.77948 16.9855 4.46764C17.3333 4.15581 17.7351 3.99989 18.1909 3.99989C18.8745 3.99989 19.4142 4.34171 19.81 5.02535C20.2058 5.69699 20.4037 6.61451 20.4037 7.7779V11.6818C20.4037 11.9337 20.4277 12.1796 20.4757 12.4194C20.5237 12.6473 20.6556 12.8452 20.8715 13.0131V13.1031C20.6916 13.0791 20.5177 13.0611 20.3497 13.0491C20.1818 13.0251 20.0139 13.0131 19.846 13.0131C19.6661 13.0131 19.4862 13.0251 19.3063 13.0491C19.1384 13.0611 18.9705 13.0791 18.8026 13.1031V13.0131C19.0184 12.8452 19.1504 12.6413 19.1984 12.4015C19.2463 12.1616 19.2703 11.9097 19.2703 11.6459V7.83187C19.2703 6.70446 19.1504 5.82892 18.9105 5.20525C18.6706 4.58158 18.3228 4.26975 17.8671 4.26975C17.6632 4.26975 17.4593 4.33571 17.2554 4.46764C17.0635 4.59957 16.8896 4.79147 16.7337 5.04334C16.5897 5.29521 16.4698 5.60704 16.3738 5.97884C16.2779 6.35065 16.2299 6.77043 16.2299 7.23818V11.6459C16.2299 11.8977 16.2539 12.1496 16.3019 12.4015C16.3499 12.6413 16.4818 12.8452 16.6977 13.0131V13.1031C16.5178 13.0791 16.3439 13.0611 16.1759 13.0491C16.008 13.0251 15.8401 13.0131 15.6722 13.0131C15.4923 13.0131 15.3124 13.0251 15.1325 13.0491C14.9646 13.0611 14.7967 13.0791 14.6288 13.1031V13.0131C14.8447 12.8452 14.9766 12.6413 15.0246 12.4015C15.0725 12.1616 15.0965 11.9097 15.0965 11.6459Z" fill="var(--fill-0, #FFEAD3)"/>
<path d="M24.4959 3.9819C24.8677 3.9819 25.2035 4.05986 25.5033 4.21578C25.8152 4.3597 26.073 4.5456 26.2769 4.77348C26.4928 4.98937 26.6487 5.22924 26.7447 5.4931C26.8406 5.74497 26.8586 5.98484 26.7986 6.21272C26.7507 6.42861 26.6127 6.61451 26.3849 6.77043C26.169 6.91435 25.8511 6.98631 25.4314 6.98631H22.8947C22.8707 7.21419 22.8527 7.44207 22.8407 7.66995C22.8287 7.89783 22.8227 8.11372 22.8227 8.31761C22.8227 8.84533 22.8527 9.37305 22.9127 9.90078C22.9847 10.4285 23.0926 10.9022 23.2365 11.322C23.3924 11.7418 23.5903 12.0836 23.8302 12.3475C24.0701 12.6113 24.3579 12.7433 24.6937 12.7433C24.9456 12.7433 25.1675 12.6713 25.3594 12.5274C25.5513 12.3835 25.7192 12.2036 25.8631 11.9877C26.0071 11.7718 26.127 11.5379 26.2229 11.286C26.3309 11.0222 26.4088 10.7823 26.4568 10.5664C26.5168 10.3385 26.5528 10.1406 26.5648 9.97274C26.5887 9.80483 26.5947 9.70888 26.5828 9.68489H26.7627C26.7747 9.72087 26.7687 9.83481 26.7447 10.0267C26.7327 10.2186 26.6967 10.4465 26.6367 10.7103C26.5768 10.9742 26.4868 11.2561 26.3669 11.5559C26.2589 11.8557 26.115 12.1376 25.9351 12.4015C25.7552 12.6533 25.5273 12.8632 25.2515 13.0311C24.9876 13.199 24.6698 13.283 24.298 13.283C23.8182 13.283 23.4104 13.1451 23.0746 12.8692C22.7508 12.5814 22.4869 12.2156 22.283 11.7718C22.0791 11.316 21.9292 10.8123 21.8333 10.2606C21.7373 9.70888 21.6893 9.15717 21.6893 8.60546C21.6893 8.13771 21.7373 7.63397 21.8333 7.09426C21.9292 6.54255 22.0851 6.03881 22.301 5.58305C22.5289 5.12729 22.8227 4.74949 23.1825 4.44965C23.5424 4.13782 23.9801 3.9819 24.4959 3.9819ZM25.2155 6.80641C25.3714 6.80641 25.4853 6.74044 25.5573 6.60851C25.6412 6.47658 25.6892 6.31467 25.7012 6.12277C25.7252 5.93087 25.7132 5.72098 25.6652 5.4931C25.6293 5.26522 25.5573 5.05533 25.4493 4.86343C25.3534 4.67153 25.2215 4.50962 25.0536 4.37769C24.8976 4.24576 24.7177 4.17979 24.5138 4.17979C24.25 4.17979 24.0281 4.27574 23.8482 4.46764C23.6683 4.65954 23.5124 4.89342 23.3804 5.16927C23.2605 5.44513 23.1646 5.73297 23.0926 6.03282C23.0206 6.33266 22.9667 6.59052 22.9307 6.80641H25.2155ZM24.9456 1.33729C24.9696 1.18138 25.0236 1.07343 25.1075 1.01346C25.1915 0.941503 25.2814 0.905522 25.3774 0.905522C25.5093 0.905522 25.6233 0.959494 25.7192 1.06744C25.8152 1.17538 25.8272 1.30731 25.7552 1.46323L24.9276 3.17233H24.5678L24.9456 1.33729Z" fill="var(--fill-0, #FFEAD3)"/>
<path d="M27.9987 13.1031V13.0131C28.0946 12.9891 28.1846 12.9112 28.2685 12.7793C28.3645 12.6353 28.4124 12.3715 28.4124 11.9877V5.79894C28.4124 5.41514 28.3645 5.15728 28.2685 5.02535C28.1846 4.88142 28.0946 4.79747 27.9987 4.77348V4.68353C28.2026 4.68353 28.4604 4.64155 28.7723 4.55759C29.0841 4.47364 29.306 4.34771 29.4379 4.17979H29.5279V5.8709C29.6358 5.42714 29.8157 5.03734 30.0676 4.70152C30.3314 4.3537 30.6732 4.17979 31.093 4.17979C31.4408 4.17979 31.7467 4.31172 32.0105 4.57559C32.2864 4.82745 32.4243 5.15128 32.4243 5.54707L31.2729 5.61904C31.225 5.34318 31.135 5.15128 31.0031 5.04334C30.8711 4.9234 30.7332 4.86343 30.5893 4.86343C30.3974 4.86343 30.2295 4.95938 30.0856 5.15128C29.9536 5.33119 29.8457 5.54707 29.7617 5.79894C29.6778 6.03881 29.6178 6.28468 29.5818 6.53655C29.5458 6.78842 29.5279 6.98032 29.5279 7.11225V11.9877C29.5279 12.3715 29.5698 12.6353 29.6538 12.7793C29.7497 12.9112 29.8457 12.9891 29.9416 13.0131V13.1031H27.9987Z" fill="var(--fill-0, #FFEAD3)"/>
<path d="M32.7886 14.5423C32.7886 14.3504 32.8066 14.1465 32.8426 13.9306L33.976 12.9232C33.916 13.187 33.8681 13.4509 33.8321 13.7148C33.7961 13.9786 33.7781 14.2485 33.7781 14.5243C33.7781 14.8122 33.8021 15.118 33.8501 15.4419C33.91 15.7777 34.006 16.0895 34.1379 16.3774C34.2818 16.6652 34.4618 16.8991 34.6776 17.079C34.9055 17.2709 35.1874 17.3668 35.5232 17.3668C35.847 17.3668 36.1469 17.2769 36.4227 17.097C36.6986 16.9291 36.9384 16.7012 37.1423 16.4133C37.3582 16.1375 37.5261 15.8197 37.6461 15.4598C37.766 15.112 37.826 14.7522 37.826 14.3804C37.826 14.0206 37.766 13.7268 37.6461 13.4989C37.5381 13.283 37.3882 13.1211 37.1963 13.0131C37.0044 12.8932 36.7825 12.8152 36.5307 12.7793C36.2788 12.7433 36.0149 12.7253 35.7391 12.7253C35.5232 12.7253 35.3013 12.7313 35.0734 12.7433C34.8575 12.7553 34.6477 12.7613 34.4438 12.7613C34.2279 12.7613 34.024 12.7493 33.8321 12.7253C33.6522 12.7013 33.4903 12.6533 33.3463 12.5814C33.2144 12.5094 33.1065 12.4075 33.0225 12.2755C32.9505 12.1436 32.9146 11.9697 32.9146 11.7538C32.9146 11.418 33.0045 11.1121 33.1844 10.8363C33.3643 10.5604 33.6102 10.3445 33.922 10.1886H33.8861C33.5742 9.80483 33.3463 9.37905 33.2024 8.9113C33.0585 8.44354 32.9865 7.9638 32.9865 7.47206C32.9865 7.06427 33.0345 6.65649 33.1305 6.2487C33.2264 5.82892 33.3823 5.45712 33.5982 5.13329C33.8141 4.79747 34.0899 4.52761 34.4258 4.32372C34.7616 4.10783 35.1634 3.99989 35.6311 3.99989C35.7271 3.99989 35.823 4.00589 35.919 4.01788C36.0149 4.01788 36.1109 4.02388 36.2068 4.03587C36.3627 3.91593 36.5427 3.83198 36.7465 3.784C36.9624 3.72404 37.1843 3.69405 37.4122 3.69405C37.6521 3.69405 37.8859 3.72404 38.1138 3.784C38.3417 3.84397 38.5396 3.92193 38.7075 4.01788L37.9699 4.98937C37.9099 4.62956 37.766 4.37769 37.5381 4.23377C37.3102 4.07785 37.0884 3.99989 36.8725 3.99989C36.7046 3.99989 36.5606 4.02987 36.4407 4.08984C36.7765 4.20978 37.0584 4.39568 37.2863 4.64755C37.5261 4.88742 37.718 5.16328 37.862 5.47511C38.0179 5.77495 38.1258 6.09878 38.1858 6.4466C38.2577 6.78242 38.2937 7.11225 38.2937 7.43608C38.2937 7.84386 38.2398 8.25764 38.1318 8.67742C38.0359 9.0972 37.8799 9.475 37.6641 9.81082C37.4482 10.1466 37.1723 10.4225 36.8365 10.6384C36.5007 10.8543 36.0989 10.9622 35.6311 10.9622C35.0315 10.9622 34.5037 10.7583 34.048 10.3505C33.94 10.4465 33.8501 10.5604 33.7781 10.6924C33.7061 10.8123 33.6702 10.9382 33.6702 11.0702C33.6702 11.298 33.7901 11.448 34.03 11.5199C34.2699 11.5799 34.5697 11.6219 34.9295 11.6459C35.2893 11.6578 35.6791 11.6818 36.0989 11.7178C36.5187 11.7418 36.9085 11.8258 37.2683 11.9697C37.6281 12.1016 37.9279 12.3295 38.1678 12.6533C38.4077 12.9652 38.5276 13.4209 38.5276 14.0206C38.5276 14.4764 38.4496 14.9141 38.2937 15.3339C38.1498 15.7657 37.9459 16.1435 37.6821 16.4673C37.4182 16.7911 37.1004 17.049 36.7286 17.2409C36.3687 17.4448 35.967 17.5467 35.5232 17.5467C35.1274 17.5467 34.7616 17.4688 34.4258 17.3129C34.1019 17.1569 33.8141 16.9411 33.5622 16.6652C33.3224 16.4013 33.1305 16.0835 32.9865 15.7117C32.8546 15.3519 32.7886 14.9621 32.7886 14.5423ZM34.1199 7.50804C34.1199 7.73592 34.1319 8.03576 34.1559 8.40756C34.1919 8.77937 34.2579 9.14517 34.3538 9.50498C34.4618 9.8528 34.6177 10.1526 34.8216 10.4045C35.0255 10.6564 35.2953 10.7823 35.6311 10.7823C35.955 10.7823 36.2128 10.6564 36.4047 10.4045C36.6086 10.1406 36.7645 9.83481 36.8725 9.48699C36.9924 9.12718 37.0704 8.76138 37.1064 8.38957C37.1423 8.01777 37.1603 7.71793 37.1603 7.49005C37.1603 7.25017 37.1363 6.94434 37.0884 6.57253C37.0524 6.20073 36.9804 5.84092 36.8725 5.4931C36.7645 5.13329 36.6086 4.82745 36.4047 4.57559C36.2128 4.31172 35.955 4.17979 35.6311 4.17979C35.2953 4.17979 35.0255 4.30573 34.8216 4.55759C34.6297 4.80946 34.4797 5.1153 34.3718 5.47511C34.2639 5.82293 34.1919 6.18873 34.1559 6.57253C34.1319 6.94434 34.1199 7.25617 34.1199 7.50804Z" fill="var(--fill-0, #FFEAD3)"/>
<path d="M39.2427 13.0491C39.4586 12.9292 39.5905 12.7853 39.6385 12.6173C39.6865 12.4494 39.7105 12.2755 39.7105 12.0956V5.22324C39.7105 4.83945 39.6625 4.58158 39.5666 4.44965C39.4826 4.30573 39.3926 4.22177 39.2967 4.19778V4.10783C39.3926 4.10783 39.5126 4.09584 39.6565 4.07185C39.8004 4.04786 39.9384 4.01788 40.0703 3.9819C40.2142 3.93392 40.3461 3.87995 40.4661 3.81998C40.598 3.76002 40.694 3.68805 40.7539 3.6041H40.8439V12.0596C40.8439 12.2395 40.8679 12.4194 40.9158 12.5994C40.9638 12.7793 41.0957 12.9232 41.3116 13.0311V13.1031C41.1317 13.0791 40.9578 13.0611 40.7899 13.0491C40.622 13.0251 40.4541 13.0131 40.2862 13.0131C40.1063 13.0131 39.9264 13.0251 39.7465 13.0491C39.5785 13.0611 39.4106 13.0791 39.2427 13.1031V13.0491ZM39.4586 1.895C39.4586 1.66712 39.5186 1.46323 39.6385 1.28332C39.7705 1.09142 39.9623 0.995475 40.2142 0.995475C40.4541 0.995475 40.634 1.08543 40.7539 1.26533C40.8859 1.44524 40.9518 1.64913 40.9518 1.87701C40.9518 2.10489 40.8859 2.30878 40.7539 2.48869C40.634 2.66859 40.4481 2.75854 40.1962 2.75854C39.9444 2.75854 39.7585 2.66859 39.6385 2.48869C39.5186 2.30878 39.4586 2.11089 39.4586 1.895Z" fill="var(--fill-0, #FFEAD3)"/>
<path d="M44.9284 3.9819C45.3002 3.9819 45.6361 4.05986 45.9359 4.21578C46.2477 4.3597 46.5056 4.5456 46.7095 4.77348C46.9254 4.98937 47.0813 5.22924 47.1772 5.4931C47.2732 5.74497 47.2912 5.98484 47.2312 6.21272C47.1832 6.42861 47.0453 6.61451 46.8174 6.77043C46.6015 6.91435 46.2837 6.98631 45.8639 6.98631H43.3273C43.3033 7.21419 43.2853 7.44207 43.2733 7.66995C43.2613 7.89783 43.2553 8.11372 43.2553 8.31761C43.2553 8.84533 43.2853 9.37305 43.3453 9.90078C43.4172 10.4285 43.5252 10.9022 43.6691 11.322C43.825 11.7418 44.0229 12.0836 44.2628 12.3475C44.5027 12.6113 44.7905 12.7433 45.1263 12.7433C45.3782 12.7433 45.6001 12.6713 45.792 12.5274C45.9839 12.3835 46.1518 12.2036 46.2957 11.9877C46.4396 11.7718 46.5596 11.5379 46.6555 11.286C46.7635 11.0222 46.8414 10.7823 46.8894 10.5664C46.9494 10.3385 46.9853 10.1406 46.9973 9.97274C47.0213 9.80483 47.0273 9.70888 47.0153 9.68489H47.1952C47.2072 9.72087 47.2012 9.83481 47.1772 10.0267C47.1652 10.2186 47.1293 10.4465 47.0693 10.7103C47.0093 10.9742 46.9194 11.2561 46.7994 11.5559C46.6915 11.8557 46.5476 12.1376 46.3677 12.4015C46.1878 12.6533 45.9599 12.8632 45.684 13.0311C45.4202 13.199 45.1023 13.283 44.7305 13.283C44.2508 13.283 43.843 13.1451 43.5072 12.8692C43.1834 12.5814 42.9195 12.2156 42.7156 11.7718C42.5117 11.316 42.3618 10.8123 42.2658 10.2606C42.1699 9.70888 42.1219 9.15717 42.1219 8.60546C42.1219 8.13771 42.1699 7.63397 42.2658 7.09426C42.3618 6.54255 42.5177 6.03881 42.7336 5.58305C42.9615 5.12729 43.2553 4.74949 43.6151 4.44965C43.9749 4.13782 44.4127 3.9819 44.9284 3.9819ZM45.6481 6.80641C45.804 6.80641 45.9179 6.74044 45.9899 6.60851C46.0738 6.47658 46.1218 6.31467 46.1338 6.12277C46.1578 5.93087 46.1458 5.72098 46.0978 5.4931C46.0618 5.26522 45.9899 5.05533 45.8819 4.86343C45.786 4.67153 45.654 4.50962 45.4861 4.37769C45.3302 4.24576 45.1503 4.17979 44.9464 4.17979C44.6826 4.17979 44.4607 4.27574 44.2808 4.46764C44.1009 4.65954 43.9449 4.89342 43.813 5.16927C43.6931 5.44513 43.5971 5.73297 43.5252 6.03282C43.4532 6.33266 43.3992 6.59052 43.3633 6.80641H45.6481Z" fill="var(--fill-0, #FFEAD3)"/>
<path d="M51.822 13.0491C52.0379 12.9292 52.1698 12.7853 52.2178 12.6173C52.2658 12.4494 52.2898 12.2755 52.2898 12.0956V5.22324C52.2898 4.83945 52.2418 4.58158 52.1459 4.44965C52.0619 4.30573 51.9719 4.22177 51.876 4.19778V4.10783C51.9719 4.10783 52.0919 4.09584 52.2358 4.07185C52.3797 4.04786 52.5177 4.01788 52.6496 3.9819C52.7935 3.93392 52.9254 3.87995 53.0454 3.81998C53.1773 3.76002 53.2733 3.68805 53.3332 3.6041H53.4232V12.0596C53.4232 12.2395 53.4472 12.4194 53.4951 12.5994C53.5431 12.7793 53.675 12.9232 53.8909 13.0311V13.1031C53.711 13.0791 53.5371 13.0611 53.3692 13.0491C53.2013 13.0251 53.0334 13.0131 52.8655 13.0131C52.6856 13.0131 52.5057 13.0251 52.3258 13.0491C52.1578 13.0611 51.9899 13.0791 51.822 13.1031V13.0491ZM52.0379 1.895C52.0379 1.66712 52.0979 1.46323 52.2178 1.28332C52.3498 1.09142 52.5416 0.995475 52.7935 0.995475C53.0334 0.995475 53.2133 1.08543 53.3332 1.26533C53.4652 1.44524 53.5311 1.64913 53.5311 1.87701C53.5311 2.10489 53.4652 2.30878 53.3332 2.48869C53.2133 2.66859 53.0274 2.75854 52.7755 2.75854C52.5237 2.75854 52.3378 2.66859 52.2178 2.48869C52.0979 2.30878 52.0379 2.11089 52.0379 1.895Z" fill="var(--fill-0, #FFEAD3)"/>
<path d="M55.2589 11.6459V5.79894C55.2589 5.41514 55.2109 5.15728 55.115 5.02535C55.031 4.88142 54.9411 4.79747 54.8451 4.77348V4.68353C54.9411 4.68353 55.061 4.67153 55.2049 4.64755C55.3489 4.62356 55.4868 4.59358 55.6187 4.55759C55.7626 4.50962 55.8946 4.45565 56.0145 4.39568C56.1464 4.33571 56.2424 4.26375 56.3024 4.17979H56.3923V5.85291C56.5482 5.24123 56.8001 4.77948 57.1479 4.46764C57.4957 4.15581 57.8975 3.99989 58.3533 3.99989C59.0369 3.99989 59.5766 4.34171 59.9724 5.02535C60.3682 5.69699 60.5661 6.61451 60.5661 7.7779V11.6818C60.5661 11.9337 60.5901 12.1796 60.6381 12.4194C60.6861 12.6473 60.818 12.8452 61.0339 13.0131V13.1031C60.854 13.0791 60.6801 13.0611 60.5121 13.0491C60.3442 13.0251 60.1763 13.0131 60.0084 13.0131C59.8285 13.0131 59.6486 13.0251 59.4687 13.0491C59.3008 13.0611 59.1329 13.0791 58.965 13.1031V13.0131C59.1808 12.8452 59.3128 12.6413 59.3608 12.4015C59.4087 12.1616 59.4327 11.9097 59.4327 11.6459V7.83187C59.4327 6.70446 59.3128 5.82892 59.0729 5.20525C58.833 4.58158 58.4852 4.26975 58.0295 4.26975C57.8256 4.26975 57.6217 4.33571 57.4178 4.46764C57.2259 4.59957 57.052 4.79147 56.8961 5.04334C56.7521 5.29521 56.6322 5.60704 56.5362 5.97884C56.4403 6.35065 56.3923 6.77043 56.3923 7.23818V11.6459C56.3923 11.8977 56.4163 12.1496 56.4643 12.4015C56.5123 12.6413 56.6442 12.8452 56.8601 13.0131V13.1031C56.6802 13.0791 56.5063 13.0611 56.3383 13.0491C56.1704 13.0251 56.0025 13.0131 55.8346 13.0131C55.6547 13.0131 55.4748 13.0251 55.2949 13.0491C55.127 13.0611 54.9591 13.0791 54.7912 13.1031V13.0131C55.007 12.8452 55.139 12.6413 55.187 12.4015C55.2349 12.1616 55.2589 11.9097 55.2589 11.6459Z" fill="var(--fill-0, #FFEAD3)"/>
<path d="M61.9417 4.17979V3.99989C62.1456 3.9879 62.3315 3.89794 62.4994 3.73003C62.6793 3.55013 62.8352 3.34024 62.9671 3.10036C63.1111 2.86049 63.225 2.61462 63.309 2.36275C63.4049 2.11089 63.4769 1.90699 63.5249 1.75108L63.6688 1.84103V3.99989H64.4424V4.17979H63.6688V11.43C63.6688 11.8857 63.7048 12.2036 63.7767 12.3835C63.8607 12.5634 63.9686 12.6533 64.1005 12.6533C64.2565 12.6533 64.3884 12.5694 64.4963 12.4015C64.6043 12.2335 64.6642 12.0536 64.6762 11.8617L64.7662 11.8797C64.7662 12.2635 64.6583 12.5874 64.4424 12.8512C64.2385 13.1151 63.9686 13.247 63.6328 13.247C63.285 13.247 63.0151 13.1091 62.8232 12.8332C62.6433 12.5454 62.5534 12.1616 62.5534 11.6818V4.17979H61.9417Z" fill="var(--fill-0, #FFEAD3)"/>
<path d="M68.1193 3.9819C68.4911 3.9819 68.8269 4.05986 69.1268 4.21578C69.4386 4.3597 69.6965 4.5456 69.9004 4.77348C70.1163 4.98937 70.2722 5.22924 70.3681 5.4931C70.4641 5.74497 70.4821 5.98484 70.4221 6.21272C70.3741 6.42861 70.2362 6.61451 70.0083 6.77043C69.7924 6.91435 69.4746 6.98631 69.0548 6.98631H66.5182C66.4942 7.21419 66.4762 7.44207 66.4642 7.66995C66.4522 7.89783 66.4462 8.11372 66.4462 8.31761C66.4462 8.84533 66.4762 9.37305 66.5362 9.90078C66.6081 10.4285 66.7161 10.9022 66.86 11.322C67.0159 11.7418 67.2138 12.0836 67.4537 12.3475C67.6935 12.6113 67.9814 12.7433 68.3172 12.7433C68.5691 12.7433 68.791 12.6713 68.9829 12.5274C69.1748 12.3835 69.3427 12.2036 69.4866 11.9877C69.6305 11.7718 69.7505 11.5379 69.8464 11.286C69.9544 11.0222 70.0323 10.7823 70.0803 10.5664C70.1403 10.3385 70.1762 10.1406 70.1882 9.97274C70.2122 9.80483 70.2182 9.70888 70.2062 9.68489H70.3861C70.3981 9.72087 70.3921 9.83481 70.3681 10.0267C70.3561 10.2186 70.3202 10.4465 70.2602 10.7103C70.2002 10.9742 70.1103 11.2561 69.9903 11.5559C69.8824 11.8557 69.7385 12.1376 69.5586 12.4015C69.3787 12.6533 69.1508 12.8632 68.8749 13.0311C68.6111 13.199 68.2932 13.283 67.9214 13.283C67.4417 13.283 67.0339 13.1451 66.6981 12.8692C66.3742 12.5814 66.1104 12.2156 65.9065 11.7718C65.7026 11.316 65.5527 10.8123 65.4567 10.2606C65.3608 9.70888 65.3128 9.15717 65.3128 8.60546C65.3128 8.13771 65.3608 7.63397 65.4567 7.09426C65.5527 6.54255 65.7086 6.03881 65.9245 5.58305C66.1524 5.12729 66.4462 4.74949 66.806 4.44965C67.1658 4.13782 67.6036 3.9819 68.1193 3.9819ZM68.8389 6.80641C68.9949 6.80641 69.1088 6.74044 69.1808 6.60851C69.2647 6.47658 69.3127 6.31467 69.3247 6.12277C69.3487 5.93087 69.3367 5.72098 69.2887 5.4931C69.2527 5.26522 69.1808 5.05533 69.0728 4.86343C68.9769 4.67153 68.8449 4.50962 68.677 4.37769C68.5211 4.24576 68.3412 4.17979 68.1373 4.17979C67.8734 4.17979 67.6516 4.27574 67.4717 4.46764C67.2918 4.65954 67.1358 4.89342 67.0039 5.16927C66.884 5.44513 66.788 5.73297 66.7161 6.03282C66.6441 6.33266 66.5901 6.59052 66.5541 6.80641H68.8389Z" fill="var(--fill-0, #FFEAD3)"/>
<path d="M71.2707 13.1031V13.0131C71.3667 12.9891 71.4566 12.9112 71.5406 12.7793C71.6366 12.6353 71.6845 12.3715 71.6845 11.9877V5.79894C71.6845 5.41514 71.6366 5.15728 71.5406 5.02535C71.4566 4.88142 71.3667 4.79747 71.2707 4.77348V4.68353C71.4746 4.68353 71.7325 4.64155 72.0443 4.55759C72.3562 4.47364 72.5781 4.34771 72.71 4.17979H72.7999V5.8709C72.9079 5.42714 73.0878 5.03734 73.3397 4.70152C73.6035 4.3537 73.9453 4.17979 74.3651 4.17979C74.7129 4.17979 75.0188 4.31172 75.2826 4.57559C75.5585 4.82745 75.6964 5.15128 75.6964 5.54707L74.545 5.61904C74.497 5.34318 74.4071 5.15128 74.2752 5.04334C74.1432 4.9234 74.0053 4.86343 73.8614 4.86343C73.6695 4.86343 73.5016 4.95938 73.3576 5.15128C73.2257 5.33119 73.1178 5.54707 73.0338 5.79894C72.9499 6.03881 72.8899 6.28468 72.8539 6.53655C72.8179 6.78842 72.7999 6.98032 72.7999 7.11225V11.9877C72.7999 12.3715 72.8419 12.6353 72.9259 12.7793C73.0218 12.9112 73.1178 12.9891 73.2137 13.0131V13.1031H71.2707Z" fill="var(--fill-0, #FFEAD3)"/>
<path d="M76.3306 13.0491C76.5465 12.9292 76.6784 12.7853 76.7264 12.6173C76.7743 12.4494 76.7983 12.2755 76.7983 12.0956V5.22324C76.7983 4.83945 76.7504 4.58158 76.6544 4.44965C76.5705 4.30573 76.4805 4.22177 76.3845 4.19778V4.10783C76.4805 4.10783 76.6004 4.09584 76.7444 4.07185C76.8883 4.04786 77.0262 4.01788 77.1581 3.9819C77.3021 3.93392 77.434 3.87995 77.5539 3.81998C77.6859 3.76002 77.7818 3.68805 77.8418 3.6041H77.9317V12.0596C77.9317 12.2395 77.9557 12.4194 78.0037 12.5994C78.0517 12.7793 78.1836 12.9232 78.3995 13.0311V13.1031C78.2196 13.0791 78.0457 13.0611 77.8778 13.0491C77.7098 13.0251 77.5419 13.0131 77.374 13.0131C77.1941 13.0131 77.0142 13.0251 76.8343 13.0491C76.6664 13.0611 76.4985 13.0791 76.3306 13.1031V13.0491ZM76.5465 1.895C76.5465 1.66712 76.6064 1.46323 76.7264 1.28332C76.8583 1.09142 77.0502 0.995475 77.3021 0.995475C77.5419 0.995475 77.7218 1.08543 77.8418 1.26533C77.9737 1.44524 78.0397 1.64913 78.0397 1.87701C78.0397 2.10489 77.9737 2.30878 77.8418 2.48869C77.7218 2.66859 77.5359 2.75854 77.2841 2.75854C77.0322 2.75854 76.8463 2.66859 76.7264 2.48869C76.6064 2.30878 76.5465 2.11089 76.5465 1.895Z" fill="var(--fill-0, #FFEAD3)"/>
<path d="M82.0163 3.9819C82.3881 3.9819 82.7239 4.05986 83.0238 4.21578C83.3356 4.3597 83.5934 4.5456 83.7973 4.77348C84.0132 4.98937 84.1691 5.22924 84.2651 5.4931C84.361 5.74497 84.379 5.98484 84.3191 6.21272C84.2711 6.42861 84.1332 6.61451 83.9053 6.77043C83.6894 6.91435 83.3716 6.98631 82.9518 6.98631H80.4151C80.3911 7.21419 80.3731 7.44207 80.3612 7.66995C80.3492 7.89783 80.3432 8.11372 80.3432 8.31761C80.3432 8.84533 80.3731 9.37305 80.4331 9.90078C80.5051 10.4285 80.613 10.9022 80.7569 11.322C80.9129 11.7418 81.1108 12.0836 81.3506 12.3475C81.5905 12.6113 81.8784 12.7433 82.2142 12.7433C82.466 12.7433 82.6879 12.6713 82.8798 12.5274C83.0717 12.3835 83.2396 12.2036 83.3836 11.9877C83.5275 11.7718 83.6474 11.5379 83.7434 11.286C83.8513 11.0222 83.9293 10.7823 83.9772 10.5664C84.0372 10.3385 84.0732 10.1406 84.0852 9.97274C84.1092 9.80483 84.1152 9.70888 84.1032 9.68489H84.2831C84.2951 9.72087 84.2891 9.83481 84.2651 10.0267C84.2531 10.2186 84.2171 10.4465 84.1572 10.7103C84.0972 10.9742 84.0072 11.2561 83.8873 11.5559C83.7793 11.8557 83.6354 12.1376 83.4555 12.4015C83.2756 12.6533 83.0477 12.8632 82.7719 13.0311C82.508 13.199 82.1902 13.283 81.8184 13.283C81.3386 13.283 80.9309 13.1451 80.595 12.8692C80.2712 12.5814 80.0073 12.2156 79.8034 11.7718C79.5996 11.316 79.4496 10.8123 79.3537 10.2606C79.2577 9.70888 79.2098 9.15717 79.2098 8.60546C79.2098 8.13771 79.2577 7.63397 79.3537 7.09426C79.4496 6.54255 79.6055 6.03881 79.8214 5.58305C80.0493 5.12729 80.3432 4.74949 80.703 4.44965C81.0628 4.13782 81.5006 3.9819 82.0163 3.9819ZM82.7359 6.80641C82.8918 6.80641 83.0058 6.74044 83.0777 6.60851C83.1617 6.47658 83.2096 6.31467 83.2216 6.12277C83.2456 5.93087 83.2336 5.72098 83.1857 5.4931C83.1497 5.26522 83.0777 5.05533 82.9698 4.86343C82.8738 4.67153 82.7419 4.50962 82.574 4.37769C82.4181 4.24576 82.2382 4.17979 82.0343 4.17979C81.7704 4.17979 81.5485 4.27574 81.3686 4.46764C81.1887 4.65954 81.0328 4.89342 80.9009 5.16927C80.7809 5.44513 80.685 5.73297 80.613 6.03282C80.5411 6.33266 80.4871 6.59052 80.4511 6.80641H82.7359Z" fill="var(--fill-0, #FFEAD3)"/>
<path d="M86.2112 4.26975C86.3791 4.26975 86.547 4.26375 86.7149 4.25176C86.8948 4.22777 87.0687 4.20378 87.2366 4.17979V4.26975C87.0207 4.43766 86.8888 4.64155 86.8408 4.88142C86.7928 5.1213 86.7689 5.37316 86.7689 5.63703V9.45101C86.7689 10.5784 86.8888 11.454 87.1287 12.0776C87.3686 12.7013 87.7164 13.0131 88.1721 13.0131C88.376 13.0131 88.5739 12.9472 88.7658 12.8152C88.9697 12.6833 89.1436 12.4914 89.2875 12.2395C89.4435 11.9877 89.5694 11.6758 89.6653 11.304C89.7613 10.9322 89.8093 10.5125 89.8093 10.0447V5.63703C89.8093 5.38516 89.7853 5.13929 89.7373 4.89941C89.6893 4.64755 89.5574 4.43766 89.3415 4.26975V4.17979C89.5214 4.20378 89.6953 4.22777 89.8632 4.25176C90.0311 4.26375 90.205 4.26975 90.385 4.26975C90.5529 4.26975 90.7208 4.26375 90.8887 4.25176C91.0686 4.22777 91.2425 4.20378 91.4104 4.17979V4.26975C91.1945 4.43766 91.0626 4.64155 91.0146 4.88142C90.9666 5.1213 90.9427 5.37316 90.9427 5.63703V11.4839C90.9427 11.8677 90.9846 12.1316 91.0686 12.2755C91.1645 12.4075 91.2605 12.4854 91.3564 12.5094V12.5994C91.2605 12.5994 91.1406 12.6113 90.9966 12.6353C90.8527 12.6593 90.7088 12.6953 90.5649 12.7433C90.4329 12.7793 90.301 12.8272 90.1691 12.8872C90.0491 12.9472 89.9592 13.0191 89.8992 13.1031H89.8093V11.43C89.6533 12.0416 89.4015 12.5034 89.0537 12.8152C88.7058 13.1271 88.3041 13.283 87.8483 13.283C87.1647 13.283 86.6249 12.9472 86.2292 12.2755C85.8334 11.5919 85.6355 10.6684 85.6355 9.50498V5.60104C85.6355 5.34918 85.6115 5.1093 85.5635 4.88142C85.5155 4.64155 85.3836 4.43766 85.1677 4.26975V4.17979C85.3476 4.20378 85.5215 4.22777 85.6894 4.25176C85.8573 4.26375 86.0313 4.26975 86.2112 4.26975Z" fill="var(--fill-0, #FFEAD3)"/>
<path d="M92.3182 13.1031V13.0131C92.4142 12.9891 92.5041 12.9112 92.5881 12.7793C92.684 12.6353 92.732 12.3715 92.732 11.9877V5.79894C92.732 5.41514 92.684 5.15728 92.5881 5.02535C92.5041 4.88142 92.4142 4.79747 92.3182 4.77348V4.68353C92.5221 4.68353 92.78 4.64155 93.0918 4.55759C93.4037 4.47364 93.6255 4.34771 93.7575 4.17979H93.8474V5.8709C93.9554 5.42714 94.1353 5.03734 94.3871 4.70152C94.651 4.3537 94.9928 4.17979 95.4126 4.17979C95.7604 4.17979 96.0663 4.31172 96.3301 4.57559C96.606 4.82745 96.7439 5.15128 96.7439 5.54707L95.5925 5.61904C95.5445 5.34318 95.4546 5.15128 95.3226 5.04334C95.1907 4.9234 95.0528 4.86343 94.9089 4.86343C94.717 4.86343 94.5491 4.95938 94.4051 5.15128C94.2732 5.33119 94.1653 5.54707 94.0813 5.79894C93.9973 6.03881 93.9374 6.28468 93.9014 6.53655C93.8654 6.78842 93.8474 6.98032 93.8474 7.11225V11.9877C93.8474 12.3715 93.8894 12.6353 93.9734 12.7793C94.0693 12.9112 94.1653 12.9891 94.2612 13.0131V13.1031H92.3182Z" fill="var(--fill-0, #FFEAD3)"/>
<path d="M1.28332 0.617675C1.45123 0.617675 1.61915 0.611677 1.78706 0.599683C1.95497 0.575696 2.12888 0.551709 2.30878 0.527721V0.617675C2.0929 0.785586 1.96097 0.989478 1.91299 1.22935C1.86502 1.45723 1.84103 1.6971 1.84103 1.94897V12.9232H3.24429C3.70005 12.9232 4.06585 12.7972 4.34171 12.5454C4.61756 12.2815 4.83345 11.9697 4.98937 11.6099C5.14528 11.2501 5.25922 10.8783 5.33119 10.4945C5.40315 10.0987 5.45712 9.76885 5.4931 9.50498H5.63703L5.40315 13.1031H0.275854V13.0311C0.383797 12.9472 0.479747 12.8272 0.563703 12.6713C0.659652 12.5034 0.707627 12.2635 0.707627 11.9517V1.98495C0.707627 1.72109 0.683639 1.46922 0.635665 1.22935C0.58769 0.989478 0.455759 0.785586 0.239873 0.617675V0.527721C0.407785 0.551709 0.575696 0.575696 0.743608 0.599683C0.923513 0.611677 1.10342 0.617675 1.28332 0.617675Z" stroke="var(--stroke-0, #FFEAD3)" stroke-width="0.479747" mask="url(#path-1-outside-1_9_141)"/>
<path d="M6.26599 2.50668L6.64379 0.671645C6.66778 0.515727 6.72175 0.407784 6.80571 0.347816C6.88966 0.275854 6.97961 0.239873 7.07556 0.239873C7.20749 0.239873 7.32143 0.293845 7.41738 0.401788C7.51333 0.509731 7.52533 0.641662 7.45336 0.797579L6.6258 2.50668H6.26599Z" stroke="var(--stroke-0, #FFEAD3)" stroke-width="0.479747" mask="url(#path-1-outside-1_9_141)"/>
<path d="M11.126 3.9819C11.4978 3.9819 11.8336 4.05986 12.1334 4.21578C12.4453 4.3597 12.7031 4.5456 12.907 4.77348C13.1229 4.98937 13.2788 5.22924 13.3748 5.4931C13.4707 5.74497 13.4887 5.98484 13.4287 6.21272C13.3808 6.42861 13.2428 6.61451 13.015 6.77043C12.7991 6.91435 12.4812 6.98631 12.0615 6.98631H9.5248C9.50081 7.21419 9.48282 7.44207 9.47083 7.66995C9.45884 7.89783 9.45284 8.11372 9.45284 8.31761C9.45284 8.84533 9.48282 9.37305 9.54279 9.90078C9.61475 10.4285 9.7227 10.9022 9.86662 11.322C10.0225 11.7418 10.2204 12.0836 10.4603 12.3475C10.7002 12.6113 10.988 12.7433 11.3239 12.7433C11.5757 12.7433 11.7976 12.6713 11.9895 12.5274C12.1814 12.3835 12.3493 12.2036 12.4932 11.9877C12.6372 11.7718 12.7571 11.5379 12.853 11.286C12.961 11.0222 13.0389 10.7823 13.0869 10.5664C13.1469 10.3385 13.1829 10.1406 13.1949 9.97274C13.2189 9.80483 13.2248 9.70888 13.2129 9.68489H13.3928C13.4048 9.72087 13.3988 9.83481 13.3748 10.0267C13.3628 10.2186 13.3268 10.4465 13.2668 10.7103C13.2069 10.9742 13.1169 11.2561 12.997 11.5559C12.889 11.8557 12.7451 12.1376 12.5652 12.4015C12.3853 12.6533 12.1574 12.8632 11.8816 13.0311C11.6177 13.199 11.2999 13.283 10.9281 13.283C10.4483 13.283 10.0405 13.1451 9.70471 12.8692C9.38088 12.5814 9.11702 12.2156 8.91312 11.7718C8.70923 11.316 8.55931 10.8123 8.46336 10.2606C8.36741 9.70888 8.31944 9.15717 8.31944 8.60546C8.31944 8.13771 8.36741 7.63397 8.46336 7.09426C8.55931 6.54255 8.71523 6.03881 8.93111 5.58305C9.15899 5.12729 9.45284 4.74949 9.81265 4.44965C10.1725 4.13782 10.6102 3.9819 11.126 3.9819ZM11.8456 6.80641C12.0015 6.80641 12.1154 6.74044 12.1874 6.60851C12.2714 6.47658 12.3193 6.31467 12.3313 6.12277C12.3553 5.93087 12.3433 5.72098 12.2953 5.4931C12.2594 5.26522 12.1874 5.05533 12.0795 4.86343C11.9835 4.67153 11.8516 4.50962 11.6837 4.37769C11.5277 4.24576 11.3478 4.17979 11.1439 4.17979C10.8801 4.17979 10.6582 4.27574 10.4783 4.46764C10.2984 4.65954 10.1425 4.89342 10.0105 5.16927C9.89061 5.44513 9.79466 5.73297 9.7227 6.03282C9.65074 6.33266 9.59676 6.59052 9.56078 6.80641H11.8456ZM11.5757 1.33729C11.5997 1.18138 11.6537 1.07343 11.7376 1.01346C11.8216 0.941503 11.9115 0.905522 12.0075 0.905522C12.1394 0.905522 12.2534 0.959494 12.3493 1.06744C12.4453 1.17538 12.4573 1.30731 12.3853 1.46323L11.5577 3.17233H11.1979L11.5757 1.33729Z" stroke="var(--stroke-0, #FFEAD3)" stroke-width="0.479747" mask="url(#path-1-outside-1_9_141)"/>
<path d="M15.0965 11.6459V5.79894C15.0965 5.41514 15.0485 5.15728 14.9526 5.02535C14.8686 4.88142 14.7787 4.79747 14.6827 4.77348V4.68353C14.7787 4.68353 14.8986 4.67153 15.0425 4.64755C15.1865 4.62356 15.3244 4.59358 15.4563 4.55759C15.6003 4.50962 15.7322 4.45565 15.8521 4.39568C15.984 4.33571 16.08 4.26375 16.14 4.17979H16.2299V5.85291C16.3858 5.24123 16.6377 4.77948 16.9855 4.46764C17.3333 4.15581 17.7351 3.99989 18.1909 3.99989C18.8745 3.99989 19.4142 4.34171 19.81 5.02535C20.2058 5.69699 20.4037 6.61451 20.4037 7.7779V11.6818C20.4037 11.9337 20.4277 12.1796 20.4757 12.4194C20.5237 12.6473 20.6556 12.8452 20.8715 13.0131V13.1031C20.6916 13.0791 20.5177 13.0611 20.3497 13.0491C20.1818 13.0251 20.0139 13.0131 19.846 13.0131C19.6661 13.0131 19.4862 13.0251 19.3063 13.0491C19.1384 13.0611 18.9705 13.0791 18.8026 13.1031V13.0131C19.0184 12.8452 19.1504 12.6413 19.1984 12.4015C19.2463 12.1616 19.2703 11.9097 19.2703 11.6459V7.83187C19.2703 6.70446 19.1504 5.82892 18.9105 5.20525C18.6706 4.58158 18.3228 4.26975 17.8671 4.26975C17.6632 4.26975 17.4593 4.33571 17.2554 4.46764C17.0635 4.59957 16.8896 4.79147 16.7337 5.04334C16.5897 5.29521 16.4698 5.60704 16.3738 5.97884C16.2779 6.35065 16.2299 6.77043 16.2299 7.23818V11.6459C16.2299 11.8977 16.2539 12.1496 16.3019 12.4015C16.3499 12.6413 16.4818 12.8452 16.6977 13.0131V13.1031C16.5178 13.0791 16.3439 13.0611 16.1759 13.0491C16.008 13.0251 15.8401 13.0131 15.6722 13.0131C15.4923 13.0131 15.3124 13.0251 15.1325 13.0491C14.9646 13.0611 14.7967 13.0791 14.6288 13.1031V13.0131C14.8447 12.8452 14.9766 12.6413 15.0246 12.4015C15.0725 12.1616 15.0965 11.9097 15.0965 11.6459Z" stroke="var(--stroke-0, #FFEAD3)" stroke-width="0.479747" mask="url(#path-1-outside-1_9_141)"/>
<path d="M24.4959 3.9819C24.8677 3.9819 25.2035 4.05986 25.5033 4.21578C25.8152 4.3597 26.073 4.5456 26.2769 4.77348C26.4928 4.98937 26.6487 5.22924 26.7447 5.4931C26.8406 5.74497 26.8586 5.98484 26.7986 6.21272C26.7507 6.42861 26.6127 6.61451 26.3849 6.77043C26.169 6.91435 25.8511 6.98631 25.4314 6.98631H22.8947C22.8707 7.21419 22.8527 7.44207 22.8407 7.66995C22.8287 7.89783 22.8227 8.11372 22.8227 8.31761C22.8227 8.84533 22.8527 9.37305 22.9127 9.90078C22.9847 10.4285 23.0926 10.9022 23.2365 11.322C23.3924 11.7418 23.5903 12.0836 23.8302 12.3475C24.0701 12.6113 24.3579 12.7433 24.6937 12.7433C24.9456 12.7433 25.1675 12.6713 25.3594 12.5274C25.5513 12.3835 25.7192 12.2036 25.8631 11.9877C26.0071 11.7718 26.127 11.5379 26.2229 11.286C26.3309 11.0222 26.4088 10.7823 26.4568 10.5664C26.5168 10.3385 26.5528 10.1406 26.5648 9.97274C26.5887 9.80483 26.5947 9.70888 26.5828 9.68489H26.7627C26.7747 9.72087 26.7687 9.83481 26.7447 10.0267C26.7327 10.2186 26.6967 10.4465 26.6367 10.7103C26.5768 10.9742 26.4868 11.2561 26.3669 11.5559C26.2589 11.8557 26.115 12.1376 25.9351 12.4015C25.7552 12.6533 25.5273 12.8632 25.2515 13.0311C24.9876 13.199 24.6698 13.283 24.298 13.283C23.8182 13.283 23.4104 13.1451 23.0746 12.8692C22.7508 12.5814 22.4869 12.2156 22.283 11.7718C22.0791 11.316 21.9292 10.8123 21.8333 10.2606C21.7373 9.70888 21.6893 9.15717 21.6893 8.60546C21.6893 8.13771 21.7373 7.63397 21.8333 7.09426C21.9292 6.54255 22.0851 6.03881 22.301 5.58305C22.5289 5.12729 22.8227 4.74949 23.1825 4.44965C23.5424 4.13782 23.9801 3.9819 24.4959 3.9819ZM25.2155 6.80641C25.3714 6.80641 25.4853 6.74044 25.5573 6.60851C25.6412 6.47658 25.6892 6.31467 25.7012 6.12277C25.7252 5.93087 25.7132 5.72098 25.6652 5.4931C25.6293 5.26522 25.5573 5.05533 25.4493 4.86343C25.3534 4.67153 25.2215 4.50962 25.0536 4.37769C24.8976 4.24576 24.7177 4.17979 24.5138 4.17979C24.25 4.17979 24.0281 4.27574 23.8482 4.46764C23.6683 4.65954 23.5124 4.89342 23.3804 5.16927C23.2605 5.44513 23.1646 5.73297 23.0926 6.03282C23.0206 6.33266 22.9667 6.59052 22.9307 6.80641H25.2155ZM24.9456 1.33729C24.9696 1.18138 25.0236 1.07343 25.1075 1.01346C25.1915 0.941503 25.2814 0.905522 25.3774 0.905522C25.5093 0.905522 25.6233 0.959494 25.7192 1.06744C25.8152 1.17538 25.8272 1.30731 25.7552 1.46323L24.9276 3.17233H24.5678L24.9456 1.33729Z" stroke="var(--stroke-0, #FFEAD3)" stroke-width="0.479747" mask="url(#path-1-outside-1_9_141)"/>
<path d="M27.9987 13.1031V13.0131C28.0946 12.9891 28.1846 12.9112 28.2685 12.7793C28.3645 12.6353 28.4124 12.3715 28.4124 11.9877V5.79894C28.4124 5.41514 28.3645 5.15728 28.2685 5.02535C28.1846 4.88142 28.0946 4.79747 27.9987 4.77348V4.68353C28.2026 4.68353 28.4604 4.64155 28.7723 4.55759C29.0841 4.47364 29.306 4.34771 29.4379 4.17979H29.5279V5.8709C29.6358 5.42714 29.8157 5.03734 30.0676 4.70152C30.3314 4.3537 30.6732 4.17979 31.093 4.17979C31.4408 4.17979 31.7467 4.31172 32.0105 4.57559C32.2864 4.82745 32.4243 5.15128 32.4243 5.54707L31.2729 5.61904C31.225 5.34318 31.135 5.15128 31.0031 5.04334C30.8711 4.9234 30.7332 4.86343 30.5893 4.86343C30.3974 4.86343 30.2295 4.95938 30.0856 5.15128C29.9536 5.33119 29.8457 5.54707 29.7617 5.79894C29.6778 6.03881 29.6178 6.28468 29.5818 6.53655C29.5458 6.78842 29.5279 6.98032 29.5279 7.11225V11.9877C29.5279 12.3715 29.5698 12.6353 29.6538 12.7793C29.7497 12.9112 29.8457 12.9891 29.9416 13.0131V13.1031H27.9987Z" stroke="var(--stroke-0, #FFEAD3)" stroke-width="0.479747" mask="url(#path-1-outside-1_9_141)"/>
<path d="M32.7886 14.5423C32.7886 14.3504 32.8066 14.1465 32.8426 13.9306L33.976 12.9232C33.916 13.187 33.8681 13.4509 33.8321 13.7148C33.7961 13.9786 33.7781 14.2485 33.7781 14.5243C33.7781 14.8122 33.8021 15.118 33.8501 15.4419C33.91 15.7777 34.006 16.0895 34.1379 16.3774C34.2818 16.6652 34.4618 16.8991 34.6776 17.079C34.9055 17.2709 35.1874 17.3668 35.5232 17.3668C35.847 17.3668 36.1469 17.2769 36.4227 17.097C36.6986 16.9291 36.9384 16.7012 37.1423 16.4133C37.3582 16.1375 37.5261 15.8197 37.6461 15.4598C37.766 15.112 37.826 14.7522 37.826 14.3804C37.826 14.0206 37.766 13.7268 37.6461 13.4989C37.5381 13.283 37.3882 13.1211 37.1963 13.0131C37.0044 12.8932 36.7825 12.8152 36.5307 12.7793C36.2788 12.7433 36.0149 12.7253 35.7391 12.7253C35.5232 12.7253 35.3013 12.7313 35.0734 12.7433C34.8575 12.7553 34.6477 12.7613 34.4438 12.7613C34.2279 12.7613 34.024 12.7493 33.8321 12.7253C33.6522 12.7013 33.4903 12.6533 33.3463 12.5814C33.2144 12.5094 33.1065 12.4075 33.0225 12.2755C32.9505 12.1436 32.9146 11.9697 32.9146 11.7538C32.9146 11.418 33.0045 11.1121 33.1844 10.8363C33.3643 10.5604 33.6102 10.3445 33.922 10.1886H33.8861C33.5742 9.80483 33.3463 9.37905 33.2024 8.9113C33.0585 8.44354 32.9865 7.9638 32.9865 7.47206C32.9865 7.06427 33.0345 6.65649 33.1305 6.2487C33.2264 5.82892 33.3823 5.45712 33.5982 5.13329C33.8141 4.79747 34.0899 4.52761 34.4258 4.32372C34.7616 4.10783 35.1634 3.99989 35.6311 3.99989C35.7271 3.99989 35.823 4.00589 35.919 4.01788C36.0149 4.01788 36.1109 4.02388 36.2068 4.03587C36.3627 3.91593 36.5427 3.83198 36.7465 3.784C36.9624 3.72404 37.1843 3.69405 37.4122 3.69405C37.6521 3.69405 37.8859 3.72404 38.1138 3.784C38.3417 3.84397 38.5396 3.92193 38.7075 4.01788L37.9699 4.98937C37.9099 4.62956 37.766 4.37769 37.5381 4.23377C37.3102 4.07785 37.0884 3.99989 36.8725 3.99989C36.7046 3.99989 36.5606 4.02987 36.4407 4.08984C36.7765 4.20978 37.0584 4.39568 37.2863 4.64755C37.5261 4.88742 37.718 5.16328 37.862 5.47511C38.0179 5.77495 38.1258 6.09878 38.1858 6.4466C38.2577 6.78242 38.2937 7.11225 38.2937 7.43608C38.2937 7.84386 38.2398 8.25764 38.1318 8.67742C38.0359 9.0972 37.8799 9.475 37.6641 9.81082C37.4482 10.1466 37.1723 10.4225 36.8365 10.6384C36.5007 10.8543 36.0989 10.9622 35.6311 10.9622C35.0315 10.9622 34.5037 10.7583 34.048 10.3505C33.94 10.4465 33.8501 10.5604 33.7781 10.6924C33.7061 10.8123 33.6702 10.9382 33.6702 11.0702C33.6702 11.298 33.7901 11.448 34.03 11.5199C34.2699 11.5799 34.5697 11.6219 34.9295 11.6459C35.2893 11.6578 35.6791 11.6818 36.0989 11.7178C36.5187 11.7418 36.9085 11.8258 37.2683 11.9697C37.6281 12.1016 37.9279 12.3295 38.1678 12.6533C38.4077 12.9652 38.5276 13.4209 38.5276 14.0206C38.5276 14.4764 38.4496 14.9141 38.2937 15.3339C38.1498 15.7657 37.9459 16.1435 37.6821 16.4673C37.4182 16.7911 37.1004 17.049 36.7286 17.2409C36.3687 17.4448 35.967 17.5467 35.5232 17.5467C35.1274 17.5467 34.7616 17.4688 34.4258 17.3129C34.1019 17.1569 33.8141 16.9411 33.5622 16.6652C33.3224 16.4013 33.1305 16.0835 32.9865 15.7117C32.8546 15.3519 32.7886 14.9621 32.7886 14.5423ZM34.1199 7.50804C34.1199 7.73592 34.1319 8.03576 34.1559 8.40756C34.1919 8.77937 34.2579 9.14517 34.3538 9.50498C34.4618 9.8528 34.6177 10.1526 34.8216 10.4045C35.0255 10.6564 35.2953 10.7823 35.6311 10.7823C35.955 10.7823 36.2128 10.6564 36.4047 10.4045C36.6086 10.1406 36.7645 9.83481 36.8725 9.48699C36.9924 9.12718 37.0704 8.76138 37.1064 8.38957C37.1423 8.01777 37.1603 7.71793 37.1603 7.49005C37.1603 7.25017 37.1363 6.94434 37.0884 6.57253C37.0524 6.20073 36.9804 5.84092 36.8725 5.4931C36.7645 5.13329 36.6086 4.82745 36.4047 4.57559C36.2128 4.31172 35.955 4.17979 35.6311 4.17979C35.2953 4.17979 35.0255 4.30573 34.8216 4.55759C34.6297 4.80946 34.4797 5.1153 34.3718 5.47511C34.2639 5.82293 34.1919 6.18873 34.1559 6.57253C34.1319 6.94434 34.1199 7.25617 34.1199 7.50804Z" stroke="var(--stroke-0, #FFEAD3)" stroke-width="0.479747" mask="url(#path-1-outside-1_9_141)"/>
<path d="M39.2427 13.0491C39.4586 12.9292 39.5905 12.7853 39.6385 12.6173C39.6865 12.4494 39.7105 12.2755 39.7105 12.0956V5.22324C39.7105 4.83945 39.6625 4.58158 39.5666 4.44965C39.4826 4.30573 39.3926 4.22177 39.2967 4.19778V4.10783C39.3926 4.10783 39.5126 4.09584 39.6565 4.07185C39.8004 4.04786 39.9384 4.01788 40.0703 3.9819C40.2142 3.93392 40.3461 3.87995 40.4661 3.81998C40.598 3.76002 40.694 3.68805 40.7539 3.6041H40.8439V12.0596C40.8439 12.2395 40.8679 12.4194 40.9158 12.5994C40.9638 12.7793 41.0957 12.9232 41.3116 13.0311V13.1031C41.1317 13.0791 40.9578 13.0611 40.7899 13.0491C40.622 13.0251 40.4541 13.0131 40.2862 13.0131C40.1063 13.0131 39.9264 13.0251 39.7465 13.0491C39.5785 13.0611 39.4106 13.0791 39.2427 13.1031V13.0491ZM39.4586 1.895C39.4586 1.66712 39.5186 1.46323 39.6385 1.28332C39.7705 1.09142 39.9623 0.995475 40.2142 0.995475C40.4541 0.995475 40.634 1.08543 40.7539 1.26533C40.8859 1.44524 40.9518 1.64913 40.9518 1.87701C40.9518 2.10489 40.8859 2.30878 40.7539 2.48869C40.634 2.66859 40.4481 2.75854 40.1962 2.75854C39.9444 2.75854 39.7585 2.66859 39.6385 2.48869C39.5186 2.30878 39.4586 2.11089 39.4586 1.895Z" stroke="var(--stroke-0, #FFEAD3)" stroke-width="0.479747" mask="url(#path-1-outside-1_9_141)"/>
<path d="M44.9284 3.9819C45.3002 3.9819 45.6361 4.05986 45.9359 4.21578C46.2477 4.3597 46.5056 4.5456 46.7095 4.77348C46.9254 4.98937 47.0813 5.22924 47.1772 5.4931C47.2732 5.74497 47.2912 5.98484 47.2312 6.21272C47.1832 6.42861 47.0453 6.61451 46.8174 6.77043C46.6015 6.91435 46.2837 6.98631 45.8639 6.98631H43.3273C43.3033 7.21419 43.2853 7.44207 43.2733 7.66995C43.2613 7.89783 43.2553 8.11372 43.2553 8.31761C43.2553 8.84533 43.2853 9.37305 43.3453 9.90078C43.4172 10.4285 43.5252 10.9022 43.6691 11.322C43.825 11.7418 44.0229 12.0836 44.2628 12.3475C44.5027 12.6113 44.7905 12.7433 45.1263 12.7433C45.3782 12.7433 45.6001 12.6713 45.792 12.5274C45.9839 12.3835 46.1518 12.2036 46.2957 11.9877C46.4396 11.7718 46.5596 11.5379 46.6555 11.286C46.7635 11.0222 46.8414 10.7823 46.8894 10.5664C46.9494 10.3385 46.9853 10.1406 46.9973 9.97274C47.0213 9.80483 47.0273 9.70888 47.0153 9.68489H47.1952C47.2072 9.72087 47.2012 9.83481 47.1772 10.0267C47.1652 10.2186 47.1293 10.4465 47.0693 10.7103C47.0093 10.9742 46.9194 11.2561 46.7994 11.5559C46.6915 11.8557 46.5476 12.1376 46.3677 12.4015C46.1878 12.6533 45.9599 12.8632 45.684 13.0311C45.4202 13.199 45.1023 13.283 44.7305 13.283C44.2508 13.283 43.843 13.1451 43.5072 12.8692C43.1834 12.5814 42.9195 12.2156 42.7156 11.7718C42.5117 11.316 42.3618 10.8123 42.2658 10.2606C42.1699 9.70888 42.1219 9.15717 42.1219 8.60546C42.1219 8.13771 42.1699 7.63397 42.2658 7.09426C42.3618 6.54255 42.5177 6.03881 42.7336 5.58305C42.9615 5.12729 43.2553 4.74949 43.6151 4.44965C43.9749 4.13782 44.4127 3.9819 44.9284 3.9819ZM45.6481 6.80641C45.804 6.80641 45.9179 6.74044 45.9899 6.60851C46.0738 6.47658 46.1218 6.31467 46.1338 6.12277C46.1578 5.93087 46.1458 5.72098 46.0978 5.4931C46.0618 5.26522 45.9899 5.05533 45.8819 4.86343C45.786 4.67153 45.654 4.50962 45.4861 4.37769C45.3302 4.24576 45.1503 4.17979 44.9464 4.17979C44.6826 4.17979 44.4607 4.27574 44.2808 4.46764C44.1009 4.65954 43.9449 4.89342 43.813 5.16927C43.6931 5.44513 43.5971 5.73297 43.5252 6.03282C43.4532 6.33266 43.3992 6.59052 43.3633 6.80641H45.6481Z" stroke="var(--stroke-0, #FFEAD3)" stroke-width="0.479747" mask="url(#path-1-outside-1_9_141)"/>
<path d="M51.822 13.0491C52.0379 12.9292 52.1698 12.7853 52.2178 12.6173C52.2658 12.4494 52.2898 12.2755 52.2898 12.0956V5.22324C52.2898 4.83945 52.2418 4.58158 52.1459 4.44965C52.0619 4.30573 51.9719 4.22177 51.876 4.19778V4.10783C51.9719 4.10783 52.0919 4.09584 52.2358 4.07185C52.3797 4.04786 52.5177 4.01788 52.6496 3.9819C52.7935 3.93392 52.9254 3.87995 53.0454 3.81998C53.1773 3.76002 53.2733 3.68805 53.3332 3.6041H53.4232V12.0596C53.4232 12.2395 53.4472 12.4194 53.4951 12.5994C53.5431 12.7793 53.675 12.9232 53.8909 13.0311V13.1031C53.711 13.0791 53.5371 13.0611 53.3692 13.0491C53.2013 13.0251 53.0334 13.0131 52.8655 13.0131C52.6856 13.0131 52.5057 13.0251 52.3258 13.0491C52.1578 13.0611 51.9899 13.0791 51.822 13.1031V13.0491ZM52.0379 1.895C52.0379 1.66712 52.0979 1.46323 52.2178 1.28332C52.3498 1.09142 52.5416 0.995475 52.7935 0.995475C53.0334 0.995475 53.2133 1.08543 53.3332 1.26533C53.4652 1.44524 53.5311 1.64913 53.5311 1.87701C53.5311 2.10489 53.4652 2.30878 53.3332 2.48869C53.2133 2.66859 53.0274 2.75854 52.7755 2.75854C52.5237 2.75854 52.3378 2.66859 52.2178 2.48869C52.0979 2.30878 52.0379 2.11089 52.0379 1.895Z" stroke="var(--stroke-0, #FFEAD3)" stroke-width="0.479747" mask="url(#path-1-outside-1_9_141)"/>
<path d="M55.2589 11.6459V5.79894C55.2589 5.41514 55.2109 5.15728 55.115 5.02535C55.031 4.88142 54.9411 4.79747 54.8451 4.77348V4.68353C54.9411 4.68353 55.061 4.67153 55.2049 4.64755C55.3489 4.62356 55.4868 4.59358 55.6187 4.55759C55.7626 4.50962 55.8946 4.45565 56.0145 4.39568C56.1464 4.33571 56.2424 4.26375 56.3024 4.17979H56.3923V5.85291C56.5482 5.24123 56.8001 4.77948 57.1479 4.46764C57.4957 4.15581 57.8975 3.99989 58.3533 3.99989C59.0369 3.99989 59.5766 4.34171 59.9724 5.02535C60.3682 5.69699 60.5661 6.61451 60.5661 7.7779V11.6818C60.5661 11.9337 60.5901 12.1796 60.6381 12.4194C60.6861 12.6473 60.818 12.8452 61.0339 13.0131V13.1031C60.854 13.0791 60.6801 13.0611 60.5121 13.0491C60.3442 13.0251 60.1763 13.0131 60.0084 13.0131C59.8285 13.0131 59.6486 13.0251 59.4687 13.0491C59.3008 13.0611 59.1329 13.0791 58.965 13.1031V13.0131C59.1808 12.8452 59.3128 12.6413 59.3608 12.4015C59.4087 12.1616 59.4327 11.9097 59.4327 11.6459V7.83187C59.4327 6.70446 59.3128 5.82892 59.0729 5.20525C58.833 4.58158 58.4852 4.26975 58.0295 4.26975C57.8256 4.26975 57.6217 4.33571 57.4178 4.46764C57.2259 4.59957 57.052 4.79147 56.8961 5.04334C56.7521 5.29521 56.6322 5.60704 56.5362 5.97884C56.4403 6.35065 56.3923 6.77043 56.3923 7.23818V11.6459C56.3923 11.8977 56.4163 12.1496 56.4643 12.4015C56.5123 12.6413 56.6442 12.8452 56.8601 13.0131V13.1031C56.6802 13.0791 56.5063 13.0611 56.3383 13.0491C56.1704 13.0251 56.0025 13.0131 55.8346 13.0131C55.6547 13.0131 55.4748 13.0251 55.2949 13.0491C55.127 13.0611 54.9591 13.0791 54.7912 13.1031V13.0131C55.007 12.8452 55.139 12.6413 55.187 12.4015C55.2349 12.1616 55.2589 11.9097 55.2589 11.6459Z" stroke="var(--stroke-0, #FFEAD3)" stroke-width="0.479747" mask="url(#path-1-outside-1_9_141)"/>
<path d="M61.9417 4.17979V3.99989C62.1456 3.9879 62.3315 3.89794 62.4994 3.73003C62.6793 3.55013 62.8352 3.34024 62.9671 3.10036C63.1111 2.86049 63.225 2.61462 63.309 2.36275C63.4049 2.11089 63.4769 1.90699 63.5249 1.75108L63.6688 1.84103V3.99989H64.4424V4.17979H63.6688V11.43C63.6688 11.8857 63.7048 12.2036 63.7767 12.3835C63.8607 12.5634 63.9686 12.6533 64.1005 12.6533C64.2565 12.6533 64.3884 12.5694 64.4963 12.4015C64.6043 12.2335 64.6642 12.0536 64.6762 11.8617L64.7662 11.8797C64.7662 12.2635 64.6583 12.5874 64.4424 12.8512C64.2385 13.1151 63.9686 13.247 63.6328 13.247C63.285 13.247 63.0151 13.1091 62.8232 12.8332C62.6433 12.5454 62.5534 12.1616 62.5534 11.6818V4.17979H61.9417Z" stroke="var(--stroke-0, #FFEAD3)" stroke-width="0.479747" mask="url(#path-1-outside-1_9_141)"/>
<path d="M68.1193 3.9819C68.4911 3.9819 68.8269 4.05986 69.1268 4.21578C69.4386 4.3597 69.6965 4.5456 69.9004 4.77348C70.1163 4.98937 70.2722 5.22924 70.3681 5.4931C70.4641 5.74497 70.4821 5.98484 70.4221 6.21272C70.3741 6.42861 70.2362 6.61451 70.0083 6.77043C69.7924 6.91435 69.4746 6.98631 69.0548 6.98631H66.5182C66.4942 7.21419 66.4762 7.44207 66.4642 7.66995C66.4522 7.89783 66.4462 8.11372 66.4462 8.31761C66.4462 8.84533 66.4762 9.37305 66.5362 9.90078C66.6081 10.4285 66.7161 10.9022 66.86 11.322C67.0159 11.7418 67.2138 12.0836 67.4537 12.3475C67.6935 12.6113 67.9814 12.7433 68.3172 12.7433C68.5691 12.7433 68.791 12.6713 68.9829 12.5274C69.1748 12.3835 69.3427 12.2036 69.4866 11.9877C69.6305 11.7718 69.7505 11.5379 69.8464 11.286C69.9544 11.0222 70.0323 10.7823 70.0803 10.5664C70.1403 10.3385 70.1762 10.1406 70.1882 9.97274C70.2122 9.80483 70.2182 9.70888 70.2062 9.68489H70.3861C70.3981 9.72087 70.3921 9.83481 70.3681 10.0267C70.3561 10.2186 70.3202 10.4465 70.2602 10.7103C70.2002 10.9742 70.1103 11.2561 69.9903 11.5559C69.8824 11.8557 69.7385 12.1376 69.5586 12.4015C69.3787 12.6533 69.1508 12.8632 68.8749 13.0311C68.6111 13.199 68.2932 13.283 67.9214 13.283C67.4417 13.283 67.0339 13.1451 66.6981 12.8692C66.3742 12.5814 66.1104 12.2156 65.9065 11.7718C65.7026 11.316 65.5527 10.8123 65.4567 10.2606C65.3608 9.70888 65.3128 9.15717 65.3128 8.60546C65.3128 8.13771 65.3608 7.63397 65.4567 7.09426C65.5527 6.54255 65.7086 6.03881 65.9245 5.58305C66.1524 5.12729 66.4462 4.74949 66.806 4.44965C67.1658 4.13782 67.6036 3.9819 68.1193 3.9819ZM68.8389 6.80641C68.9949 6.80641 69.1088 6.74044 69.1808 6.60851C69.2647 6.47658 69.3127 6.31467 69.3247 6.12277C69.3487 5.93087 69.3367 5.72098 69.2887 5.4931C69.2527 5.26522 69.1808 5.05533 69.0728 4.86343C68.9769 4.67153 68.8449 4.50962 68.677 4.37769C68.5211 4.24576 68.3412 4.17979 68.1373 4.17979C67.8734 4.17979 67.6516 4.27574 67.4717 4.46764C67.2918 4.65954 67.1358 4.89342 67.0039 5.16927C66.884 5.44513 66.788 5.73297 66.7161 6.03282C66.6441 6.33266 66.5901 6.59052 66.5541 6.80641H68.8389Z" stroke="var(--stroke-0, #FFEAD3)" stroke-width="0.479747" mask="url(#path-1-outside-1_9_141)"/>
<path d="M71.2707 13.1031V13.0131C71.3667 12.9891 71.4566 12.9112 71.5406 12.7793C71.6366 12.6353 71.6845 12.3715 71.6845 11.9877V5.79894C71.6845 5.41514 71.6366 5.15728 71.5406 5.02535C71.4566 4.88142 71.3667 4.79747 71.2707 4.77348V4.68353C71.4746 4.68353 71.7325 4.64155 72.0443 4.55759C72.3562 4.47364 72.5781 4.34771 72.71 4.17979H72.7999V5.8709C72.9079 5.42714 73.0878 5.03734 73.3397 4.70152C73.6035 4.3537 73.9453 4.17979 74.3651 4.17979C74.7129 4.17979 75.0188 4.31172 75.2826 4.57559C75.5585 4.82745 75.6964 5.15128 75.6964 5.54707L74.545 5.61904C74.497 5.34318 74.4071 5.15128 74.2752 5.04334C74.1432 4.9234 74.0053 4.86343 73.8614 4.86343C73.6695 4.86343 73.5016 4.95938 73.3576 5.15128C73.2257 5.33119 73.1178 5.54707 73.0338 5.79894C72.9499 6.03881 72.8899 6.28468 72.8539 6.53655C72.8179 6.78842 72.7999 6.98032 72.7999 7.11225V11.9877C72.7999 12.3715 72.8419 12.6353 72.9259 12.7793C73.0218 12.9112 73.1178 12.9891 73.2137 13.0131V13.1031H71.2707Z" stroke="var(--stroke-0, #FFEAD3)" stroke-width="0.479747" mask="url(#path-1-outside-1_9_141)"/>
<path d="M76.3306 13.0491C76.5465 12.9292 76.6784 12.7853 76.7264 12.6173C76.7743 12.4494 76.7983 12.2755 76.7983 12.0956V5.22324C76.7983 4.83945 76.7504 4.58158 76.6544 4.44965C76.5705 4.30573 76.4805 4.22177 76.3845 4.19778V4.10783C76.4805 4.10783 76.6004 4.09584 76.7444 4.07185C76.8883 4.04786 77.0262 4.01788 77.1581 3.9819C77.3021 3.93392 77.434 3.87995 77.5539 3.81998C77.6859 3.76002 77.7818 3.68805 77.8418 3.6041H77.9317V12.0596C77.9317 12.2395 77.9557 12.4194 78.0037 12.5994C78.0517 12.7793 78.1836 12.9232 78.3995 13.0311V13.1031C78.2196 13.0791 78.0457 13.0611 77.8778 13.0491C77.7098 13.0251 77.5419 13.0131 77.374 13.0131C77.1941 13.0131 77.0142 13.0251 76.8343 13.0491C76.6664 13.0611 76.4985 13.0791 76.3306 13.1031V13.0491ZM76.5465 1.895C76.5465 1.66712 76.6064 1.46323 76.7264 1.28332C76.8583 1.09142 77.0502 0.995475 77.3021 0.995475C77.5419 0.995475 77.7218 1.08543 77.8418 1.26533C77.9737 1.44524 78.0397 1.64913 78.0397 1.87701C78.0397 2.10489 77.9737 2.30878 77.8418 2.48869C77.7218 2.66859 77.5359 2.75854 77.2841 2.75854C77.0322 2.75854 76.8463 2.66859 76.7264 2.48869C76.6064 2.30878 76.5465 2.11089 76.5465 1.895Z" stroke="var(--stroke-0, #FFEAD3)" stroke-width="0.479747" mask="url(#path-1-outside-1_9_141)"/>
<path d="M82.0163 3.9819C82.3881 3.9819 82.7239 4.05986 83.0238 4.21578C83.3356 4.3597 83.5934 4.5456 83.7973 4.77348C84.0132 4.98937 84.1691 5.22924 84.2651 5.4931C84.361 5.74497 84.379 5.98484 84.3191 6.21272C84.2711 6.42861 84.1332 6.61451 83.9053 6.77043C83.6894 6.91435 83.3716 6.98631 82.9518 6.98631H80.4151C80.3911 7.21419 80.3731 7.44207 80.3612 7.66995C80.3492 7.89783 80.3432 8.11372 80.3432 8.31761C80.3432 8.84533 80.3731 9.37305 80.4331 9.90078C80.5051 10.4285 80.613 10.9022 80.7569 11.322C80.9129 11.7418 81.1108 12.0836 81.3506 12.3475C81.5905 12.6113 81.8784 12.7433 82.2142 12.7433C82.466 12.7433 82.6879 12.6713 82.8798 12.5274C83.0717 12.3835 83.2396 12.2036 83.3836 11.9877C83.5275 11.7718 83.6474 11.5379 83.7434 11.286C83.8513 11.0222 83.9293 10.7823 83.9772 10.5664C84.0372 10.3385 84.0732 10.1406 84.0852 9.97274C84.1092 9.80483 84.1152 9.70888 84.1032 9.68489H84.2831C84.2951 9.72087 84.2891 9.83481 84.2651 10.0267C84.2531 10.2186 84.2171 10.4465 84.1572 10.7103C84.0972 10.9742 84.0072 11.2561 83.8873 11.5559C83.7793 11.8557 83.6354 12.1376 83.4555 12.4015C83.2756 12.6533 83.0477 12.8632 82.7719 13.0311C82.508 13.199 82.1902 13.283 81.8184 13.283C81.3386 13.283 80.9309 13.1451 80.595 12.8692C80.2712 12.5814 80.0073 12.2156 79.8034 11.7718C79.5996 11.316 79.4496 10.8123 79.3537 10.2606C79.2577 9.70888 79.2098 9.15717 79.2098 8.60546C79.2098 8.13771 79.2577 7.63397 79.3537 7.09426C79.4496 6.54255 79.6055 6.03881 79.8214 5.58305C80.0493 5.12729 80.3432 4.74949 80.703 4.44965C81.0628 4.13782 81.5006 3.9819 82.0163 3.9819ZM82.7359 6.80641C82.8918 6.80641 83.0058 6.74044 83.0777 6.60851C83.1617 6.47658 83.2096 6.31467 83.2216 6.12277C83.2456 5.93087 83.2336 5.72098 83.1857 5.4931C83.1497 5.26522 83.0777 5.05533 82.9698 4.86343C82.8738 4.67153 82.7419 4.50962 82.574 4.37769C82.4181 4.24576 82.2382 4.17979 82.0343 4.17979C81.7704 4.17979 81.5485 4.27574 81.3686 4.46764C81.1887 4.65954 81.0328 4.89342 80.9009 5.16927C80.7809 5.44513 80.685 5.73297 80.613 6.03282C80.5411 6.33266 80.4871 6.59052 80.4511 6.80641H82.7359Z" stroke="var(--stroke-0, #FFEAD3)" stroke-width="0.479747" mask="url(#path-1-outside-1_9_141)"/>
<path d="M86.2112 4.26975C86.3791 4.26975 86.547 4.26375 86.7149 4.25176C86.8948 4.22777 87.0687 4.20378 87.2366 4.17979V4.26975C87.0207 4.43766 86.8888 4.64155 86.8408 4.88142C86.7928 5.1213 86.7689 5.37316 86.7689 5.63703V9.45101C86.7689 10.5784 86.8888 11.454 87.1287 12.0776C87.3686 12.7013 87.7164 13.0131 88.1721 13.0131C88.376 13.0131 88.5739 12.9472 88.7658 12.8152C88.9697 12.6833 89.1436 12.4914 89.2875 12.2395C89.4435 11.9877 89.5694 11.6758 89.6653 11.304C89.7613 10.9322 89.8093 10.5125 89.8093 10.0447V5.63703C89.8093 5.38516 89.7853 5.13929 89.7373 4.89941C89.6893 4.64755 89.5574 4.43766 89.3415 4.26975V4.17979C89.5214 4.20378 89.6953 4.22777 89.8632 4.25176C90.0311 4.26375 90.205 4.26975 90.385 4.26975C90.5529 4.26975 90.7208 4.26375 90.8887 4.25176C91.0686 4.22777 91.2425 4.20378 91.4104 4.17979V4.26975C91.1945 4.43766 91.0626 4.64155 91.0146 4.88142C90.9666 5.1213 90.9427 5.37316 90.9427 5.63703V11.4839C90.9427 11.8677 90.9846 12.1316 91.0686 12.2755C91.1645 12.4075 91.2605 12.4854 91.3564 12.5094V12.5994C91.2605 12.5994 91.1406 12.6113 90.9966 12.6353C90.8527 12.6593 90.7088 12.6953 90.5649 12.7433C90.4329 12.7793 90.301 12.8272 90.1691 12.8872C90.0491 12.9472 89.9592 13.0191 89.8992 13.1031H89.8093V11.43C89.6533 12.0416 89.4015 12.5034 89.0537 12.8152C88.7058 13.1271 88.3041 13.283 87.8483 13.283C87.1647 13.283 86.6249 12.9472 86.2292 12.2755C85.8334 11.5919 85.6355 10.6684 85.6355 9.50498V5.60104C85.6355 5.34918 85.6115 5.1093 85.5635 4.88142C85.5155 4.64155 85.3836 4.43766 85.1677 4.26975V4.17979C85.3476 4.20378 85.5215 4.22777 85.6894 4.25176C85.8573 4.26375 86.0313 4.26975 86.2112 4.26975Z" stroke="var(--stroke-0, #FFEAD3)" stroke-width="0.479747" mask="url(#path-1-outside-1_9_141)"/>
<path d="M92.3182 13.1031V13.0131C92.4142 12.9891 92.5041 12.9112 92.5881 12.7793C92.684 12.6353 92.732 12.3715 92.732 11.9877V5.79894C92.732 5.41514 92.684 5.15728 92.5881 5.02535C92.5041 4.88142 92.4142 4.79747 92.3182 4.77348V4.68353C92.5221 4.68353 92.78 4.64155 93.0918 4.55759C93.4037 4.47364 93.6255 4.34771 93.7575 4.17979H93.8474V5.8709C93.9554 5.42714 94.1353 5.03734 94.3871 4.70152C94.651 4.3537 94.9928 4.17979 95.4126 4.17979C95.7604 4.17979 96.0663 4.31172 96.3301 4.57559C96.606 4.82745 96.7439 5.15128 96.7439 5.54707L95.5925 5.61904C95.5445 5.34318 95.4546 5.15128 95.3226 5.04334C95.1907 4.9234 95.0528 4.86343 94.9089 4.86343C94.717 4.86343 94.5491 4.95938 94.4051 5.15128C94.2732 5.33119 94.1653 5.54707 94.0813 5.79894C93.9973 6.03881 93.9374 6.28468 93.9014 6.53655C93.8654 6.78842 93.8474 6.98032 93.8474 7.11225V11.9877C93.8474 12.3715 93.8894 12.6353 93.9734 12.7793C94.0693 12.9112 94.1653 12.9891 94.2612 13.0131V13.1031H92.3182Z" stroke="var(--stroke-0, #FFEAD3)" stroke-width="0.479747" mask="url(#path-1-outside-1_9_141)"/>
</g>
</svg>
