<svg preserveAspectRatio="none" width="100%" height="100%" overflow="visible" style="display: block;" viewBox="0 0 110.027 13.7388" fill="none" xmlns="http://www.w3.org/2000/svg">
<g id="L&#226;&#128;&#153;Influence de Venus">
<mask id="path-1-outside-1_9_137" maskUnits="userSpaceOnUse" x="-0.760127" y="-0.760127" width="111" height="15" fill="black">
<rect fill="white" x="-0.760127" y="-0.760127" width="111" height="15"/>
<path d="M1.28332 0.833561C1.45123 0.833561 1.61915 0.827564 1.78706 0.81557C1.95497 0.791583 2.12888 0.767595 2.30878 0.743608V0.833561C2.0929 1.00147 1.96097 1.20536 1.91299 1.44524C1.86502 1.67312 1.84103 1.91299 1.84103 2.16486V13.1391H3.24429C3.70005 13.1391 4.06585 13.0131 4.34171 12.7613C4.61756 12.4974 4.83345 12.1856 4.98937 11.8258C5.14528 11.4659 5.25922 11.0941 5.33119 10.7103C5.40315 10.3146 5.45712 9.98473 5.4931 9.72087H5.63703L5.40315 13.319H0.275854V13.247C0.383797 13.1631 0.479747 13.0431 0.563703 12.8872C0.659652 12.7193 0.707627 12.4794 0.707627 12.1676V2.20084C0.707627 1.93698 0.683639 1.68511 0.635665 1.44524C0.58769 1.20536 0.455759 1.00147 0.239873 0.833561V0.743608C0.407785 0.767595 0.575696 0.791583 0.743608 0.81557C0.923513 0.827564 1.10342 0.833561 1.28332 0.833561Z"/>
<path d="M6.26599 2.72256L6.64379 0.887532C6.66778 0.731614 6.72175 0.623671 6.80571 0.563703C6.88966 0.491741 6.97961 0.45576 7.07556 0.45576C7.20749 0.45576 7.32143 0.509731 7.41738 0.617675C7.51333 0.725618 7.52533 0.857548 7.45336 1.01347L6.6258 2.72256H6.26599Z"/>
<path d="M8.40939 0.743608C8.74521 0.803577 9.08703 0.833561 9.43485 0.833561C9.61475 0.833561 9.78866 0.827564 9.95657 0.81557C10.1245 0.791583 10.2984 0.767595 10.4783 0.743608V0.833561C10.2624 1.00147 10.1305 1.20536 10.0825 1.44524C10.0345 1.67312 10.0105 1.91299 10.0105 2.16486V11.8977C10.0105 12.1496 10.0345 12.3955 10.0825 12.6353C10.1305 12.8632 10.2624 13.0611 10.4783 13.229V13.319C10.2984 13.295 10.1245 13.277 9.95657 13.265C9.78866 13.241 9.62075 13.229 9.45284 13.229C9.27293 13.229 9.09303 13.241 8.91312 13.265C8.74521 13.277 8.5773 13.295 8.40939 13.319V13.229C8.62528 13.0611 8.75721 12.8572 8.80518 12.6173C8.85316 12.3775 8.87714 12.1256 8.87714 11.8617V2.20084C8.87714 1.93698 8.85316 1.68511 8.80518 1.44524C8.75721 1.20536 8.62528 1.00147 8.40939 0.833561V0.743608Z"/>
<path d="M11.8463 11.8617V6.01483C11.8463 5.63103 11.7983 5.37317 11.7024 5.24123C11.6184 5.09731 11.5284 5.01335 11.4325 4.98937V4.89941C11.5284 4.89941 11.6484 4.88742 11.7923 4.86343C11.9362 4.83945 12.0742 4.80946 12.2061 4.77348C12.35 4.72551 12.4819 4.67154 12.6019 4.61157C12.7338 4.5516 12.8298 4.47964 12.8897 4.39568H12.9797V6.0688C13.1356 5.45712 13.3875 4.99536 13.7353 4.68353C14.0831 4.37169 14.4849 4.21578 14.9406 4.21578C15.6243 4.21578 16.164 4.5576 16.5598 5.24123C16.9556 5.91288 17.1535 6.8304 17.1535 7.99378V11.8977C17.1535 12.1496 17.1775 12.3955 17.2254 12.6353C17.2734 12.8632 17.4053 13.0611 17.6212 13.229V13.319C17.4413 13.295 17.2674 13.277 17.0995 13.265C16.9316 13.241 16.7637 13.229 16.5958 13.229C16.4159 13.229 16.236 13.241 16.0561 13.265C15.8881 13.277 15.7202 13.295 15.5523 13.319V13.229C15.7682 13.0611 15.9001 12.8572 15.9481 12.6173C15.9961 12.3775 16.0201 12.1256 16.0201 11.8617V8.04775C16.0201 6.92035 15.9001 6.04481 15.6603 5.42114C15.4204 4.79747 15.0726 4.48563 14.6168 4.48563C14.4129 4.48563 14.209 4.5516 14.0051 4.68353C13.8132 4.81546 13.6393 5.00736 13.4834 5.25923C13.3395 5.51109 13.2196 5.82293 13.1236 6.19473C13.0277 6.56654 12.9797 6.98631 12.9797 7.45407V11.8617C12.9797 12.1136 13.0037 12.3655 13.0516 12.6173C13.0996 12.8572 13.2315 13.0611 13.4474 13.229V13.319C13.2675 13.295 13.0936 13.277 12.9257 13.265C12.7578 13.241 12.5899 13.229 12.422 13.229C12.2421 13.229 12.0622 13.241 11.8823 13.265C11.7143 13.277 11.5464 13.295 11.3785 13.319V13.229C11.5944 13.0611 11.7263 12.8572 11.7743 12.6173C11.8223 12.3775 11.8463 12.1256 11.8463 11.8617Z"/>
<path d="M18.7629 4.21578V4.14381C18.7629 3.89195 18.7749 3.56812 18.7989 3.17233C18.8349 2.77654 18.9188 2.38674 19.0508 2.00294C19.1827 1.61915 19.3926 1.28932 19.6804 1.01347C19.9683 0.737611 20.3641 0.599684 20.8678 0.599684C21.1437 0.599684 21.4075 0.641662 21.6594 0.725617C21.9113 0.809573 22.1331 0.923513 22.325 1.06744C22.5169 1.21136 22.6729 1.37927 22.7928 1.57117C22.9127 1.76307 22.9727 1.96097 22.9727 2.16486V12.0956C22.9727 12.3115 22.9967 12.5274 23.0447 12.7433C23.0926 12.9472 23.2246 13.1151 23.4405 13.247V13.319C23.2606 13.295 23.0866 13.277 22.9187 13.265C22.7508 13.241 22.5829 13.229 22.415 13.229C22.2351 13.229 22.0552 13.241 21.8753 13.265C21.7074 13.277 21.5395 13.295 21.3716 13.319V13.265C21.5874 13.1091 21.7194 12.9292 21.7673 12.7253C21.8153 12.5094 21.8393 12.2815 21.8393 12.0416V3.15434C21.8393 2.29079 21.7733 1.67911 21.6414 1.3193C21.5215 0.959494 21.3116 0.779589 21.0117 0.779589C20.7119 0.779589 20.484 0.923513 20.3281 1.21136C20.1722 1.48722 20.0642 1.81704 20.0043 2.20084C19.9443 2.57264 19.9083 2.95044 19.8963 3.33424C19.8963 3.71804 19.8963 4.00589 19.8963 4.19779V4.21578H20.7419V4.39568H19.8963V11.8977C19.8963 12.1496 19.9203 12.3955 19.9683 12.6353C20.0163 12.8632 20.1482 13.0611 20.3641 13.229V13.319C20.1842 13.295 20.0103 13.277 19.8424 13.265C19.6744 13.241 19.5065 13.229 19.3386 13.229C19.1587 13.229 18.9788 13.241 18.7989 13.265C18.631 13.277 18.4631 13.295 18.2952 13.319V13.229C18.5111 13.0611 18.643 12.8572 18.691 12.6173C18.7389 12.3775 18.7629 12.1256 18.7629 11.8617V4.39568H18.2592V4.21578H18.7629Z"/>
<path d="M25.3878 4.48563C25.5557 4.48563 25.7236 4.47964 25.8915 4.46764C26.0714 4.44366 26.2453 4.41967 26.4132 4.39568V4.48563C26.1974 4.65354 26.0654 4.85744 26.0175 5.09731C25.9695 5.33718 25.9455 5.58905 25.9455 5.85291V9.6669C25.9455 10.7943 26.0654 11.6698 26.3053 12.2935C26.5452 12.9172 26.893 13.229 27.3488 13.229C27.5526 13.229 27.7505 13.1631 27.9424 13.0311C28.1463 12.8992 28.3202 12.7073 28.4642 12.4554C28.6201 12.2036 28.746 11.8917 28.842 11.5199C28.9379 11.1481 28.9859 10.7283 28.9859 10.2606V5.85291C28.9859 5.60104 28.9619 5.35517 28.9139 5.1153C28.866 4.86343 28.734 4.65354 28.5181 4.48563V4.39568C28.698 4.41967 28.872 4.44366 29.0399 4.46764C29.2078 4.47964 29.3817 4.48563 29.5616 4.48563C29.7295 4.48563 29.8974 4.47964 30.0653 4.46764C30.2452 4.44366 30.4191 4.41967 30.587 4.39568V4.48563C30.3712 4.65354 30.2392 4.85744 30.1913 5.09731C30.1433 5.33718 30.1193 5.58905 30.1193 5.85291V11.6998C30.1193 12.0836 30.1613 12.3475 30.2452 12.4914C30.3412 12.6233 30.4371 12.7013 30.5331 12.7253V12.8152C30.4371 12.8152 30.3172 12.8272 30.1733 12.8512C30.0293 12.8752 29.8854 12.9112 29.7415 12.9592C29.6096 12.9951 29.4776 13.0431 29.3457 13.1031C29.2258 13.1631 29.1358 13.235 29.0758 13.319H28.9859V11.6459C28.83 12.2575 28.5781 12.7193 28.2303 13.0311C27.8825 13.343 27.4807 13.4989 27.0249 13.4989C26.3413 13.4989 25.8016 13.1631 25.4058 12.4914C25.01 11.8078 24.8121 10.8843 24.8121 9.72087V5.81693C24.8121 5.56506 24.7881 5.32519 24.7401 5.09731C24.6922 4.85744 24.5602 4.65354 24.3443 4.48563V4.39568C24.5242 4.41967 24.6982 4.44366 24.8661 4.46764C25.034 4.47964 25.2079 4.48563 25.3878 4.48563Z"/>
<path d="M34.2114 4.19779C34.5832 4.19779 34.9191 4.27574 35.2189 4.43166C35.5307 4.57559 35.7886 4.76149 35.9925 4.98937C36.2084 5.20525 36.3643 5.44513 36.4602 5.70899C36.5562 5.96086 36.5742 6.20073 36.5142 6.42861C36.4662 6.64449 36.3283 6.8304 36.1004 6.98631C35.8845 7.13024 35.5667 7.2022 35.1469 7.2022H32.6103C32.5863 7.43008 32.5683 7.65796 32.5563 7.88584C32.5443 8.11372 32.5383 8.32961 32.5383 8.5335C32.5383 9.06122 32.5683 9.58894 32.6283 10.1167C32.7002 10.6444 32.8082 11.1181 32.9521 11.5379C33.108 11.9577 33.3059 12.2995 33.5458 12.5634C33.7857 12.8272 34.0735 12.9592 34.4093 12.9592C34.6612 12.9592 34.8831 12.8872 35.075 12.7433C35.2669 12.5994 35.4348 12.4194 35.5787 12.2036C35.7226 11.9877 35.8426 11.7538 35.9385 11.5019C36.0465 11.2381 36.1244 10.9982 36.1724 10.7823C36.2324 10.5544 36.2683 10.3565 36.2803 10.1886C36.3043 10.0207 36.3103 9.92476 36.2983 9.90078H36.4782C36.4902 9.93676 36.4842 10.0507 36.4602 10.2426C36.4483 10.4345 36.4123 10.6624 36.3523 10.9262C36.2923 11.1901 36.2024 11.4719 36.0824 11.7718C35.9745 12.0716 35.8306 12.3535 35.6507 12.6173C35.4708 12.8692 35.2429 13.0791 34.967 13.247C34.7032 13.4149 34.3853 13.4989 34.0135 13.4989C33.5338 13.4989 33.126 13.361 32.7902 13.0851C32.4664 12.7972 32.2025 12.4314 31.9986 11.9877C31.7947 11.5319 31.6448 11.0282 31.5488 10.4765C31.4529 9.92476 31.4049 9.37305 31.4049 8.82135C31.4049 8.35359 31.4529 7.84986 31.5488 7.31014C31.6448 6.75843 31.8007 6.2547 32.0166 5.79894C32.2445 5.34318 32.5383 4.96538 32.8981 4.66554C33.2579 4.3537 33.6957 4.19779 34.2114 4.19779ZM34.931 7.02229C35.087 7.02229 35.2009 6.95633 35.2729 6.8244C35.3568 6.69247 35.4048 6.53055 35.4168 6.33866C35.4408 6.14676 35.4288 5.93687 35.3808 5.70899C35.3448 5.48111 35.2729 5.27122 35.1649 5.07932C35.069 4.88742 34.937 4.72551 34.7691 4.59358C34.6132 4.46165 34.4333 4.39568 34.2294 4.39568C33.9656 4.39568 33.7437 4.49163 33.5638 4.68353C33.3839 4.87543 33.2279 5.1093 33.096 5.38516C32.9761 5.66101 32.8801 5.94886 32.8082 6.2487C32.7362 6.54854 32.6822 6.80641 32.6463 7.02229H34.931Z"/>
<path d="M37.8306 11.8617V6.01483C37.8306 5.63103 37.7826 5.37317 37.6867 5.24123C37.6027 5.09731 37.5128 5.01335 37.4168 4.98937V4.89941C37.5128 4.89941 37.6327 4.88742 37.7766 4.86343C37.9206 4.83945 38.0585 4.80946 38.1904 4.77348C38.3343 4.72551 38.4663 4.67154 38.5862 4.61157C38.7181 4.5516 38.8141 4.47964 38.8741 4.39568H38.964V6.0688C39.1199 5.45712 39.3718 4.99536 39.7196 4.68353C40.0674 4.37169 40.4692 4.21578 40.925 4.21578C41.6086 4.21578 42.1483 4.5576 42.5441 5.24123C42.9399 5.91288 43.1378 6.8304 43.1378 7.99378V11.8977C43.1378 12.1496 43.1618 12.3955 43.2098 12.6353C43.2577 12.8632 43.3897 13.0611 43.6056 13.229V13.319C43.4257 13.295 43.2518 13.277 43.0838 13.265C42.9159 13.241 42.748 13.229 42.5801 13.229C42.4002 13.229 42.2203 13.241 42.0404 13.265C41.8725 13.277 41.7046 13.295 41.5367 13.319V13.229C41.7525 13.0611 41.8845 12.8572 41.9325 12.6173C41.9804 12.3775 42.0044 12.1256 42.0044 11.8617V8.04775C42.0044 6.92035 41.8845 6.04481 41.6446 5.42114C41.4047 4.79747 41.0569 4.48563 40.6012 4.48563C40.3973 4.48563 40.1934 4.5516 39.9895 4.68353C39.7976 4.81546 39.6237 5.00736 39.4678 5.25923C39.3238 5.51109 39.2039 5.82293 39.1079 6.19473C39.012 6.56654 38.964 6.98631 38.964 7.45407V11.8617C38.964 12.1136 38.988 12.3655 39.036 12.6173C39.084 12.8572 39.2159 13.0611 39.4318 13.229V13.319C39.2519 13.295 39.078 13.277 38.91 13.265C38.7421 13.241 38.5742 13.229 38.4063 13.229C38.2264 13.229 38.0465 13.241 37.8666 13.265C37.6987 13.277 37.5308 13.295 37.3629 13.319V13.229C37.5787 13.0611 37.7107 12.8572 37.7587 12.6173C37.8066 12.3775 37.8306 12.1256 37.8306 11.8617Z"/>
<path d="M44.4234 8.82135C44.4234 8.11372 44.4894 7.47805 44.6213 6.91435C44.7653 6.33866 44.9631 5.85291 45.215 5.45712C45.4669 5.06133 45.7667 4.75549 46.1145 4.5396C46.4624 4.32372 46.8462 4.21578 47.2659 4.21578C47.7457 4.21578 48.1834 4.34771 48.5792 4.61157C48.975 4.86343 49.2749 5.19926 49.4788 5.61904L48.6332 6.26669C48.6332 6.02682 48.5972 5.79294 48.5253 5.56506C48.4533 5.33718 48.3514 5.13929 48.2194 4.97138C48.0995 4.79147 47.9556 4.65354 47.7877 4.5576C47.6197 4.44965 47.4458 4.39568 47.2659 4.39568C47.0141 4.39568 46.7802 4.49763 46.5643 4.70152C46.3604 4.89342 46.1805 5.17527 46.0246 5.54707C45.8807 5.90688 45.7667 6.34465 45.6828 6.86038C45.5988 7.36411 45.5568 7.92182 45.5568 8.5335C45.5568 9.06122 45.5868 9.58894 45.6468 10.1167C45.7187 10.6444 45.8267 11.1181 45.9706 11.5379C46.1265 11.9577 46.3244 12.2995 46.5643 12.5634C46.8042 12.8272 47.092 12.9592 47.4278 12.9592C47.6797 12.9592 47.9016 12.8872 48.0935 12.7433C48.2854 12.5994 48.4533 12.4194 48.5972 12.2036C48.7412 11.9877 48.8611 11.7538 48.957 11.5019C49.065 11.2381 49.1429 10.9982 49.1909 10.7823C49.2509 10.5544 49.2869 10.3565 49.2989 10.1886C49.3228 10.0207 49.3288 9.92476 49.3168 9.90078H49.4968C49.5087 9.93676 49.5027 10.0507 49.4788 10.2426C49.4668 10.4345 49.4308 10.6624 49.3708 10.9262C49.3109 11.1901 49.2209 11.4719 49.101 11.7718C48.993 12.0716 48.8491 12.3535 48.6692 12.6173C48.4893 12.8692 48.2614 13.0791 47.9856 13.247C47.7217 13.4149 47.4039 13.4989 47.0321 13.4989C46.5523 13.4989 46.1445 13.361 45.8087 13.0851C45.4849 12.7972 45.221 12.4314 45.0171 11.9877C44.8132 11.5319 44.6633 11.0282 44.5674 10.4765C44.4714 9.92476 44.4234 9.37305 44.4234 8.82135Z"/>
<path d="M53.0277 4.19779C53.3995 4.19779 53.7353 4.27574 54.0351 4.43166C54.347 4.57559 54.6048 4.76149 54.8087 4.98937C55.0246 5.20525 55.1805 5.44513 55.2765 5.70899C55.3724 5.96086 55.3904 6.20073 55.3305 6.42861C55.2825 6.64449 55.1446 6.8304 54.9167 6.98631C54.7008 7.13024 54.383 7.2022 53.9632 7.2022H51.4265C51.4025 7.43008 51.3845 7.65796 51.3725 7.88584C51.3605 8.11372 51.3546 8.32961 51.3546 8.5335C51.3546 9.06122 51.3845 9.58894 51.4445 10.1167C51.5165 10.6444 51.6244 11.1181 51.7683 11.5379C51.9243 11.9577 52.1221 12.2995 52.362 12.5634C52.6019 12.8272 52.8897 12.9592 53.2256 12.9592C53.4774 12.9592 53.6993 12.8872 53.8912 12.7433C54.0831 12.5994 54.251 12.4194 54.3949 12.2036C54.5389 11.9877 54.6588 11.7538 54.7548 11.5019C54.8627 11.2381 54.9407 10.9982 54.9886 10.7823C55.0486 10.5544 55.0846 10.3565 55.0966 10.1886C55.1206 10.0207 55.1266 9.92476 55.1146 9.90078H55.2945C55.3065 9.93676 55.3005 10.0507 55.2765 10.2426C55.2645 10.4345 55.2285 10.6624 55.1685 10.9262C55.1086 11.1901 55.0186 11.4719 54.8987 11.7718C54.7907 12.0716 54.6468 12.3535 54.4669 12.6173C54.287 12.8692 54.0591 13.0791 53.7833 13.247C53.5194 13.4149 53.2016 13.4989 52.8298 13.4989C52.35 13.4989 51.9422 13.361 51.6064 13.0851C51.2826 12.7972 51.0187 12.4314 50.8148 11.9877C50.6109 11.5319 50.461 11.0282 50.3651 10.4765C50.2691 9.92476 50.2212 9.37305 50.2212 8.82135C50.2212 8.35359 50.2691 7.84986 50.3651 7.31014C50.461 6.75843 50.6169 6.2547 50.8328 5.79894C51.0607 5.34318 51.3546 4.96538 51.7144 4.66554C52.0742 4.3537 52.5119 4.19779 53.0277 4.19779ZM53.7473 7.02229C53.9032 7.02229 54.0172 6.95633 54.0891 6.8244C54.1731 6.69247 54.221 6.53055 54.233 6.33866C54.257 6.14676 54.245 5.93687 54.1971 5.70899C54.1611 5.48111 54.0891 5.27122 53.9812 5.07932C53.8852 4.88742 53.7533 4.72551 53.5854 4.59358C53.4295 4.46165 53.2496 4.39568 53.0457 4.39568C52.7818 4.39568 52.5599 4.49163 52.38 4.68353C52.2001 4.87543 52.0442 5.1093 51.9123 5.38516C51.7923 5.66101 51.6964 5.94886 51.6244 6.2487C51.5525 6.54854 51.4985 6.80641 51.4625 7.02229H53.7473Z"/>
<path d="M62.9077 4.21578C63.8192 4.21578 64.4189 4.70752 64.7067 5.691V1.85902C64.7067 1.47522 64.6588 1.21736 64.5628 1.08543C64.4789 0.941504 64.3889 0.857548 64.293 0.833561V0.743608C64.4969 0.743608 64.7547 0.70163 65.0666 0.617675C65.3784 0.533718 65.6003 0.407785 65.7322 0.239873H65.8222V12.2036C65.8222 12.5874 65.8641 12.8512 65.9481 12.9951C66.044 13.1271 66.14 13.205 66.2359 13.229V13.319H64.7067V11.7538C64.6348 11.9697 64.5328 12.1796 64.4009 12.3835C64.281 12.5754 64.137 12.7493 63.9691 12.9052C63.8012 13.0611 63.6033 13.187 63.3754 13.283C63.1476 13.3789 62.8957 13.4269 62.6198 13.4269C62.1521 13.4269 61.7383 13.295 61.3785 13.0311C61.0307 12.7673 60.7428 12.4254 60.515 12.0057C60.2871 11.5739 60.1132 11.1001 59.9932 10.5844C59.8853 10.0567 59.8313 9.54097 59.8313 9.03723C59.8313 8.50951 59.8913 7.9638 60.0112 7.40009C60.1432 6.8244 60.335 6.30267 60.5869 5.83492C60.8388 5.36717 61.1566 4.98337 61.5404 4.68353C61.9242 4.37169 62.38 4.21578 62.9077 4.21578ZM62.8537 13.0311C63.1176 13.0311 63.3575 12.9652 63.5733 12.8332C63.8012 12.7013 63.9991 12.5334 64.167 12.3295C64.3349 12.1136 64.4669 11.8737 64.5628 11.6099C64.6588 11.334 64.7067 11.0522 64.7067 10.7643V7.45407C64.7067 6.49457 64.5688 5.75696 64.293 5.24123C64.0171 4.71351 63.6213 4.44965 63.1056 4.44965C62.6858 4.44965 62.338 4.61157 62.0621 4.9354C61.7863 5.25923 61.5644 5.66101 61.3965 6.14076C61.2406 6.62051 61.1266 7.12424 61.0547 7.65196C60.9947 8.17968 60.9647 8.65343 60.9647 9.07321C60.9647 9.37305 60.9827 9.75085 61.0187 10.2066C61.0667 10.6624 61.1566 11.1001 61.2885 11.5199C61.4325 11.9277 61.6244 12.2815 61.8642 12.5814C62.1161 12.8812 62.4459 13.0311 62.8537 13.0311Z"/>
<path d="M69.8586 4.19779C70.2304 4.19779 70.5663 4.27574 70.8661 4.43166C71.1779 4.57559 71.4358 4.76149 71.6397 4.98937C71.8556 5.20525 72.0115 5.44513 72.1074 5.70899C72.2034 5.96086 72.2214 6.20073 72.1614 6.42861C72.1134 6.64449 71.9755 6.8304 71.7476 6.98631C71.5317 7.13024 71.2139 7.2022 70.7941 7.2022H68.2575C68.2335 7.43008 68.2155 7.65796 68.2035 7.88584C68.1915 8.11372 68.1855 8.32961 68.1855 8.5335C68.1855 9.06122 68.2155 9.58894 68.2755 10.1167C68.3474 10.6444 68.4554 11.1181 68.5993 11.5379C68.7552 11.9577 68.9531 12.2995 69.193 12.5634C69.4329 12.8272 69.7207 12.9592 70.0565 12.9592C70.3084 12.9592 70.5303 12.8872 70.7222 12.7433C70.9141 12.5994 71.082 12.4194 71.2259 12.2036C71.3698 11.9877 71.4898 11.7538 71.5857 11.5019C71.6937 11.2381 71.7716 10.9982 71.8196 10.7823C71.8796 10.5544 71.9155 10.3565 71.9275 10.1886C71.9515 10.0207 71.9575 9.92476 71.9455 9.90078H72.1254C72.1374 9.93676 72.1314 10.0507 72.1074 10.2426C72.0955 10.4345 72.0595 10.6624 71.9995 10.9262C71.9395 11.1901 71.8496 11.4719 71.7296 11.7718C71.6217 12.0716 71.4778 12.3535 71.2979 12.6173C71.118 12.8692 70.8901 13.0791 70.6142 13.247C70.3504 13.4149 70.0325 13.4989 69.6607 13.4989C69.181 13.4989 68.7732 13.361 68.4374 13.0851C68.1136 12.7972 67.8497 12.4314 67.6458 11.9877C67.4419 11.5319 67.292 11.0282 67.196 10.4765C67.1001 9.92476 67.0521 9.37305 67.0521 8.82135C67.0521 8.35359 67.1001 7.84986 67.196 7.31014C67.292 6.75843 67.4479 6.2547 67.6638 5.79894C67.8917 5.34318 68.1855 4.96538 68.5453 4.66554C68.9051 4.3537 69.3429 4.19779 69.8586 4.19779ZM70.5783 7.02229C70.7342 7.02229 70.8481 6.95633 70.9201 6.8244C71.004 6.69247 71.052 6.53055 71.064 6.33866C71.088 6.14676 71.076 5.93687 71.028 5.70899C70.992 5.48111 70.9201 5.27122 70.8121 5.07932C70.7162 4.88742 70.5842 4.72551 70.4163 4.59358C70.2604 4.46165 70.0805 4.39568 69.8766 4.39568C69.6128 4.39568 69.3909 4.49163 69.211 4.68353C69.0311 4.87543 68.8752 5.1093 68.7432 5.38516C68.6233 5.66101 68.5273 5.94886 68.4554 6.2487C68.3834 6.54854 68.3294 6.80641 68.2935 7.02229H70.5783Z"/>
<path d="M77.6518 0.779589C77.8197 0.779589 78.0056 0.779589 78.2095 0.779589C78.4254 0.767596 78.6232 0.755602 78.8032 0.743608V0.833561C78.6592 0.857548 78.5573 0.935507 78.4973 1.06744C78.4493 1.18737 78.4254 1.3313 78.4254 1.49921C78.4254 1.67911 78.4433 1.85302 78.4793 2.02093C78.5153 2.18885 78.5633 2.37475 78.6232 2.57864L81.034 11.6818L83.4987 2.45271C83.5946 2.10489 83.5886 1.77506 83.4807 1.46323C83.3847 1.15139 83.1928 0.941503 82.905 0.833561V0.743608C83.0249 0.755602 83.1389 0.767596 83.2468 0.779589C83.3547 0.779589 83.5227 0.779589 83.7505 0.779589C83.9784 0.779589 84.1643 0.779589 84.3082 0.779589C84.4522 0.767596 84.6021 0.755602 84.758 0.743608V0.833561C84.6141 0.881535 84.4822 0.971488 84.3622 1.10342C84.2543 1.22335 84.1523 1.36728 84.0564 1.53519C83.9724 1.69111 83.8945 1.85902 83.8225 2.03892C83.7625 2.20684 83.7146 2.36275 83.6786 2.50668L80.7821 13.319H80.2964L77.3459 2.21883C77.3099 2.09889 77.268 1.96696 77.22 1.82304C77.172 1.66712 77.112 1.5232 77.0401 1.39127C76.9681 1.24734 76.8842 1.12141 76.7882 1.01347C76.7043 0.905523 76.6023 0.845555 76.4824 0.833561V0.743608C76.6623 0.755602 76.8542 0.767596 77.0581 0.779589C77.274 0.779589 77.4719 0.779589 77.6518 0.779589Z"/>
<path d="M88.1127 4.19779C88.4845 4.19779 88.8203 4.27574 89.1201 4.43166C89.432 4.57559 89.6898 4.76149 89.8937 4.98937C90.1096 5.20525 90.2655 5.44513 90.3615 5.70899C90.4574 5.96086 90.4754 6.20073 90.4155 6.42861C90.3675 6.64449 90.2296 6.8304 90.0017 6.98631C89.7858 7.13024 89.468 7.2022 89.0482 7.2022H86.5115C86.4875 7.43008 86.4695 7.65796 86.4575 7.88584C86.4456 8.11372 86.4396 8.32961 86.4396 8.5335C86.4396 9.06122 86.4695 9.58894 86.5295 10.1167C86.6015 10.6444 86.7094 11.1181 86.8533 11.5379C87.0093 11.9577 87.2072 12.2995 87.447 12.5634C87.6869 12.8272 87.9747 12.9592 88.3106 12.9592C88.5624 12.9592 88.7843 12.8872 88.9762 12.7433C89.1681 12.5994 89.336 12.4194 89.48 12.2036C89.6239 11.9877 89.7438 11.7538 89.8398 11.5019C89.9477 11.2381 90.0257 10.9982 90.0736 10.7823C90.1336 10.5544 90.1696 10.3565 90.1816 10.1886C90.2056 10.0207 90.2116 9.92476 90.1996 9.90078H90.3795C90.3915 9.93676 90.3855 10.0507 90.3615 10.2426C90.3495 10.4345 90.3135 10.6624 90.2535 10.9262C90.1936 11.1901 90.1036 11.4719 89.9837 11.7718C89.8757 12.0716 89.7318 12.3535 89.5519 12.6173C89.372 12.8692 89.1441 13.0791 88.8683 13.247C88.6044 13.4149 88.2866 13.4989 87.9148 13.4989C87.435 13.4989 87.0272 13.361 86.6914 13.0851C86.3676 12.7972 86.1037 12.4314 85.8998 11.9877C85.696 11.5319 85.546 11.0282 85.4501 10.4765C85.3541 9.92476 85.3062 9.37305 85.3062 8.82135C85.3062 8.35359 85.3541 7.84986 85.4501 7.31014C85.546 6.75843 85.7019 6.2547 85.9178 5.79894C86.1457 5.34318 86.4396 4.96538 86.7994 4.66554C87.1592 4.3537 87.597 4.19779 88.1127 4.19779ZM88.8323 7.02229C88.9882 7.02229 89.1022 6.95633 89.1741 6.8244C89.2581 6.69247 89.306 6.53055 89.318 6.33866C89.342 6.14676 89.33 5.93687 89.2821 5.70899C89.2461 5.48111 89.1741 5.27122 89.0662 5.07932C88.9702 4.88742 88.8383 4.72551 88.6704 4.59358C88.5145 4.46165 88.3346 4.39568 88.1307 4.39568C87.8668 4.39568 87.6449 4.49163 87.465 4.68353C87.2851 4.87543 87.1292 5.1093 86.9973 5.38516C86.8773 5.66101 86.7814 5.94886 86.7094 6.2487C86.6375 6.54854 86.5835 6.80641 86.5475 7.02229H88.8323Z"/>
<path d="M91.7319 11.8617V6.01483C91.7319 5.63103 91.6839 5.37317 91.5879 5.24123C91.504 5.09731 91.414 5.01335 91.3181 4.98937V4.89941C91.414 4.89941 91.534 4.88742 91.6779 4.86343C91.8218 4.83945 91.9597 4.80946 92.0917 4.77348C92.2356 4.72551 92.3675 4.67154 92.4875 4.61157C92.6194 4.5516 92.7153 4.47964 92.7753 4.39568H92.8653V6.0688C93.0212 5.45712 93.273 4.99536 93.6209 4.68353C93.9687 4.37169 94.3705 4.21578 94.8262 4.21578C95.5099 4.21578 96.0496 4.5576 96.4454 5.24123C96.8412 5.91288 97.0391 6.8304 97.0391 7.99378V11.8977C97.0391 12.1496 97.0631 12.3955 97.111 12.6353C97.159 12.8632 97.2909 13.0611 97.5068 13.229V13.319C97.3269 13.295 97.153 13.277 96.9851 13.265C96.8172 13.241 96.6493 13.229 96.4814 13.229C96.3015 13.229 96.1215 13.241 95.9416 13.265C95.7737 13.277 95.6058 13.295 95.4379 13.319V13.229C95.6538 13.0611 95.7857 12.8572 95.8337 12.6173C95.8817 12.3775 95.9057 12.1256 95.9057 11.8617V8.04775C95.9057 6.92035 95.7857 6.04481 95.5459 5.42114C95.306 4.79747 94.9582 4.48563 94.5024 4.48563C94.2985 4.48563 94.0946 4.5516 93.8907 4.68353C93.6988 4.81546 93.5249 5.00736 93.369 5.25923C93.2251 5.51109 93.1051 5.82293 93.0092 6.19473C92.9132 6.56654 92.8653 6.98631 92.8653 7.45407V11.8617C92.8653 12.1136 92.8892 12.3655 92.9372 12.6173C92.9852 12.8572 93.1171 13.0611 93.333 13.229V13.319C93.1531 13.295 92.9792 13.277 92.8113 13.265C92.6434 13.241 92.4755 13.229 92.3076 13.229C92.1276 13.229 91.9477 13.241 91.7678 13.265C91.5999 13.277 91.432 13.295 91.2641 13.319V13.229C91.48 13.0611 91.6119 12.8572 91.6599 12.6173C91.7079 12.3775 91.7319 12.1256 91.7319 11.8617Z"/>
<path d="M99.2824 4.48563C99.4503 4.48563 99.6182 4.47964 99.7861 4.46764C99.966 4.44366 100.14 4.41967 100.308 4.39568V4.48563C100.092 4.65354 99.96 4.85744 99.9121 5.09731C99.8641 5.33718 99.8401 5.58905 99.8401 5.85291V9.6669C99.8401 10.7943 99.96 11.6698 100.2 12.2935C100.44 12.9172 100.788 13.229 101.243 13.229C101.447 13.229 101.645 13.1631 101.837 13.0311C102.041 12.8992 102.215 12.7073 102.359 12.4554C102.515 12.2036 102.641 11.8917 102.737 11.5199C102.833 11.1481 102.88 10.7283 102.88 10.2606V5.85291C102.88 5.60104 102.857 5.35517 102.809 5.1153C102.761 4.86343 102.629 4.65354 102.413 4.48563V4.39568C102.593 4.41967 102.767 4.44366 102.934 4.46764C103.102 4.47964 103.276 4.48563 103.456 4.48563C103.624 4.48563 103.792 4.47964 103.96 4.46764C104.14 4.44366 104.314 4.41967 104.482 4.39568V4.48563C104.266 4.65354 104.134 4.85744 104.086 5.09731C104.038 5.33718 104.014 5.58905 104.014 5.85291V11.6998C104.014 12.0836 104.056 12.3475 104.14 12.4914C104.236 12.6233 104.332 12.7013 104.428 12.7253V12.8152C104.332 12.8152 104.212 12.8272 104.068 12.8512C103.924 12.8752 103.78 12.9112 103.636 12.9592C103.504 12.9951 103.372 13.0431 103.24 13.1031C103.12 13.1631 103.03 13.235 102.97 13.319H102.88V11.6459C102.725 12.2575 102.473 12.7193 102.125 13.0311C101.777 13.343 101.375 13.4989 100.92 13.4989C100.236 13.4989 99.6962 13.1631 99.3004 12.4914C98.9046 11.8078 98.7067 10.8843 98.7067 9.72087V5.81693C98.7067 5.56506 98.6827 5.32519 98.6347 5.09731C98.5868 4.85744 98.4548 4.65354 98.2389 4.48563V4.39568C98.4188 4.41967 98.5928 4.44366 98.7607 4.46764C98.9286 4.47964 99.1025 4.48563 99.2824 4.48563Z"/>
<path d="M107.512 4.21578C107.992 4.21578 108.43 4.34771 108.826 4.61157C109.221 4.86343 109.521 5.19926 109.725 5.61904L108.88 6.26669C108.88 6.02682 108.844 5.79294 108.772 5.56506C108.7 5.33718 108.598 5.13929 108.466 4.97138C108.346 4.79147 108.196 4.65354 108.016 4.5576C107.848 4.44965 107.668 4.39568 107.476 4.39568C107.129 4.39568 106.841 4.5456 106.613 4.84544C106.397 5.14529 106.289 5.4871 106.289 5.8709C106.289 6.20672 106.373 6.50057 106.541 6.75244C106.709 7.0043 106.919 7.24418 107.171 7.47206C107.422 7.69994 107.698 7.92182 107.998 8.13771C108.298 8.35359 108.574 8.59946 108.826 8.87532C109.078 9.13918 109.287 9.43902 109.455 9.77484C109.623 10.0987 109.707 10.4885 109.707 10.9442C109.707 11.316 109.647 11.6578 109.527 11.9697C109.407 12.2695 109.239 12.5334 109.024 12.7613C108.808 12.9772 108.556 13.1451 108.268 13.265C107.992 13.3849 107.692 13.4449 107.368 13.4449C106.997 13.4449 106.655 13.3669 106.343 13.211C106.031 13.0551 105.725 12.8332 105.425 12.5454V10.0267H105.605C105.629 10.4945 105.701 10.9262 105.821 11.322C105.941 11.7178 106.085 12.0596 106.253 12.3475C106.433 12.6353 106.625 12.8632 106.829 13.0311C107.045 13.187 107.248 13.265 107.44 13.265C107.596 13.265 107.752 13.217 107.908 13.1211C108.064 13.0131 108.202 12.8752 108.322 12.7073C108.442 12.5394 108.538 12.3415 108.61 12.1136C108.682 11.8737 108.718 11.6279 108.718 11.376C108.718 10.9802 108.634 10.6384 108.466 10.3505C108.298 10.0507 108.088 9.78084 107.836 9.54097C107.584 9.2891 107.308 9.06122 107.009 8.85733C106.709 8.64144 106.433 8.41956 106.181 8.19168C105.929 7.9518 105.719 7.69394 105.551 7.41809C105.383 7.13024 105.3 6.80041 105.3 6.42861C105.3 6.15275 105.347 5.8829 105.443 5.61904C105.551 5.35517 105.701 5.1213 105.893 4.91741C106.085 4.70152 106.319 4.53361 106.595 4.41367C106.871 4.28174 107.177 4.21578 107.512 4.21578Z"/>
</mask>
<path d="M1.28332 0.833561C1.45123 0.833561 1.61915 0.827564 1.78706 0.81557C1.95497 0.791583 2.12888 0.767595 2.30878 0.743608V0.833561C2.0929 1.00147 1.96097 1.20536 1.91299 1.44524C1.86502 1.67312 1.84103 1.91299 1.84103 2.16486V13.1391H3.24429C3.70005 13.1391 4.06585 13.0131 4.34171 12.7613C4.61756 12.4974 4.83345 12.1856 4.98937 11.8258C5.14528 11.4659 5.25922 11.0941 5.33119 10.7103C5.40315 10.3146 5.45712 9.98473 5.4931 9.72087H5.63703L5.40315 13.319H0.275854V13.247C0.383797 13.1631 0.479747 13.0431 0.563703 12.8872C0.659652 12.7193 0.707627 12.4794 0.707627 12.1676V2.20084C0.707627 1.93698 0.683639 1.68511 0.635665 1.44524C0.58769 1.20536 0.455759 1.00147 0.239873 0.833561V0.743608C0.407785 0.767595 0.575696 0.791583 0.743608 0.81557C0.923513 0.827564 1.10342 0.833561 1.28332 0.833561Z" fill="var(--fill-0, #FFF3DE)"/>
<path d="M6.26599 2.72256L6.64379 0.887532C6.66778 0.731614 6.72175 0.623671 6.80571 0.563703C6.88966 0.491741 6.97961 0.45576 7.07556 0.45576C7.20749 0.45576 7.32143 0.509731 7.41738 0.617675C7.51333 0.725618 7.52533 0.857548 7.45336 1.01347L6.6258 2.72256H6.26599Z" fill="var(--fill-0, #FFF3DE)"/>
<path d="M8.40939 0.743608C8.74521 0.803577 9.08703 0.833561 9.43485 0.833561C9.61475 0.833561 9.78866 0.827564 9.95657 0.81557C10.1245 0.791583 10.2984 0.767595 10.4783 0.743608V0.833561C10.2624 1.00147 10.1305 1.20536 10.0825 1.44524C10.0345 1.67312 10.0105 1.91299 10.0105 2.16486V11.8977C10.0105 12.1496 10.0345 12.3955 10.0825 12.6353C10.1305 12.8632 10.2624 13.0611 10.4783 13.229V13.319C10.2984 13.295 10.1245 13.277 9.95657 13.265C9.78866 13.241 9.62075 13.229 9.45284 13.229C9.27293 13.229 9.09303 13.241 8.91312 13.265C8.74521 13.277 8.5773 13.295 8.40939 13.319V13.229C8.62528 13.0611 8.75721 12.8572 8.80518 12.6173C8.85316 12.3775 8.87714 12.1256 8.87714 11.8617V2.20084C8.87714 1.93698 8.85316 1.68511 8.80518 1.44524C8.75721 1.20536 8.62528 1.00147 8.40939 0.833561V0.743608Z" fill="var(--fill-0, #FFF3DE)"/>
<path d="M11.8463 11.8617V6.01483C11.8463 5.63103 11.7983 5.37317 11.7024 5.24123C11.6184 5.09731 11.5284 5.01335 11.4325 4.98937V4.89941C11.5284 4.89941 11.6484 4.88742 11.7923 4.86343C11.9362 4.83945 12.0742 4.80946 12.2061 4.77348C12.35 4.72551 12.4819 4.67154 12.6019 4.61157C12.7338 4.5516 12.8298 4.47964 12.8897 4.39568H12.9797V6.0688C13.1356 5.45712 13.3875 4.99536 13.7353 4.68353C14.0831 4.37169 14.4849 4.21578 14.9406 4.21578C15.6243 4.21578 16.164 4.5576 16.5598 5.24123C16.9556 5.91288 17.1535 6.8304 17.1535 7.99378V11.8977C17.1535 12.1496 17.1775 12.3955 17.2254 12.6353C17.2734 12.8632 17.4053 13.0611 17.6212 13.229V13.319C17.4413 13.295 17.2674 13.277 17.0995 13.265C16.9316 13.241 16.7637 13.229 16.5958 13.229C16.4159 13.229 16.236 13.241 16.0561 13.265C15.8881 13.277 15.7202 13.295 15.5523 13.319V13.229C15.7682 13.0611 15.9001 12.8572 15.9481 12.6173C15.9961 12.3775 16.0201 12.1256 16.0201 11.8617V8.04775C16.0201 6.92035 15.9001 6.04481 15.6603 5.42114C15.4204 4.79747 15.0726 4.48563 14.6168 4.48563C14.4129 4.48563 14.209 4.5516 14.0051 4.68353C13.8132 4.81546 13.6393 5.00736 13.4834 5.25923C13.3395 5.51109 13.2196 5.82293 13.1236 6.19473C13.0277 6.56654 12.9797 6.98631 12.9797 7.45407V11.8617C12.9797 12.1136 13.0037 12.3655 13.0516 12.6173C13.0996 12.8572 13.2315 13.0611 13.4474 13.229V13.319C13.2675 13.295 13.0936 13.277 12.9257 13.265C12.7578 13.241 12.5899 13.229 12.422 13.229C12.2421 13.229 12.0622 13.241 11.8823 13.265C11.7143 13.277 11.5464 13.295 11.3785 13.319V13.229C11.5944 13.0611 11.7263 12.8572 11.7743 12.6173C11.8223 12.3775 11.8463 12.1256 11.8463 11.8617Z" fill="var(--fill-0, #FFF3DE)"/>
<path d="M18.7629 4.21578V4.14381C18.7629 3.89195 18.7749 3.56812 18.7989 3.17233C18.8349 2.77654 18.9188 2.38674 19.0508 2.00294C19.1827 1.61915 19.3926 1.28932 19.6804 1.01347C19.9683 0.737611 20.3641 0.599684 20.8678 0.599684C21.1437 0.599684 21.4075 0.641662 21.6594 0.725617C21.9113 0.809573 22.1331 0.923513 22.325 1.06744C22.5169 1.21136 22.6729 1.37927 22.7928 1.57117C22.9127 1.76307 22.9727 1.96097 22.9727 2.16486V12.0956C22.9727 12.3115 22.9967 12.5274 23.0447 12.7433C23.0926 12.9472 23.2246 13.1151 23.4405 13.247V13.319C23.2606 13.295 23.0866 13.277 22.9187 13.265C22.7508 13.241 22.5829 13.229 22.415 13.229C22.2351 13.229 22.0552 13.241 21.8753 13.265C21.7074 13.277 21.5395 13.295 21.3716 13.319V13.265C21.5874 13.1091 21.7194 12.9292 21.7673 12.7253C21.8153 12.5094 21.8393 12.2815 21.8393 12.0416V3.15434C21.8393 2.29079 21.7733 1.67911 21.6414 1.3193C21.5215 0.959494 21.3116 0.779589 21.0117 0.779589C20.7119 0.779589 20.484 0.923513 20.3281 1.21136C20.1722 1.48722 20.0642 1.81704 20.0043 2.20084C19.9443 2.57264 19.9083 2.95044 19.8963 3.33424C19.8963 3.71804 19.8963 4.00589 19.8963 4.19779V4.21578H20.7419V4.39568H19.8963V11.8977C19.8963 12.1496 19.9203 12.3955 19.9683 12.6353C20.0163 12.8632 20.1482 13.0611 20.3641 13.229V13.319C20.1842 13.295 20.0103 13.277 19.8424 13.265C19.6744 13.241 19.5065 13.229 19.3386 13.229C19.1587 13.229 18.9788 13.241 18.7989 13.265C18.631 13.277 18.4631 13.295 18.2952 13.319V13.229C18.5111 13.0611 18.643 12.8572 18.691 12.6173C18.7389 12.3775 18.7629 12.1256 18.7629 11.8617V4.39568H18.2592V4.21578H18.7629Z" fill="var(--fill-0, #FFF3DE)"/>
<path d="M25.3878 4.48563C25.5557 4.48563 25.7236 4.47964 25.8915 4.46764C26.0714 4.44366 26.2453 4.41967 26.4132 4.39568V4.48563C26.1974 4.65354 26.0654 4.85744 26.0175 5.09731C25.9695 5.33718 25.9455 5.58905 25.9455 5.85291V9.6669C25.9455 10.7943 26.0654 11.6698 26.3053 12.2935C26.5452 12.9172 26.893 13.229 27.3488 13.229C27.5526 13.229 27.7505 13.1631 27.9424 13.0311C28.1463 12.8992 28.3202 12.7073 28.4642 12.4554C28.6201 12.2036 28.746 11.8917 28.842 11.5199C28.9379 11.1481 28.9859 10.7283 28.9859 10.2606V5.85291C28.9859 5.60104 28.9619 5.35517 28.9139 5.1153C28.866 4.86343 28.734 4.65354 28.5181 4.48563V4.39568C28.698 4.41967 28.872 4.44366 29.0399 4.46764C29.2078 4.47964 29.3817 4.48563 29.5616 4.48563C29.7295 4.48563 29.8974 4.47964 30.0653 4.46764C30.2452 4.44366 30.4191 4.41967 30.587 4.39568V4.48563C30.3712 4.65354 30.2392 4.85744 30.1913 5.09731C30.1433 5.33718 30.1193 5.58905 30.1193 5.85291V11.6998C30.1193 12.0836 30.1613 12.3475 30.2452 12.4914C30.3412 12.6233 30.4371 12.7013 30.5331 12.7253V12.8152C30.4371 12.8152 30.3172 12.8272 30.1733 12.8512C30.0293 12.8752 29.8854 12.9112 29.7415 12.9592C29.6096 12.9951 29.4776 13.0431 29.3457 13.1031C29.2258 13.1631 29.1358 13.235 29.0758 13.319H28.9859V11.6459C28.83 12.2575 28.5781 12.7193 28.2303 13.0311C27.8825 13.343 27.4807 13.4989 27.0249 13.4989C26.3413 13.4989 25.8016 13.1631 25.4058 12.4914C25.01 11.8078 24.8121 10.8843 24.8121 9.72087V5.81693C24.8121 5.56506 24.7881 5.32519 24.7401 5.09731C24.6922 4.85744 24.5602 4.65354 24.3443 4.48563V4.39568C24.5242 4.41967 24.6982 4.44366 24.8661 4.46764C25.034 4.47964 25.2079 4.48563 25.3878 4.48563Z" fill="var(--fill-0, #FFF3DE)"/>
<path d="M34.2114 4.19779C34.5832 4.19779 34.9191 4.27574 35.2189 4.43166C35.5307 4.57559 35.7886 4.76149 35.9925 4.98937C36.2084 5.20525 36.3643 5.44513 36.4602 5.70899C36.5562 5.96086 36.5742 6.20073 36.5142 6.42861C36.4662 6.64449 36.3283 6.8304 36.1004 6.98631C35.8845 7.13024 35.5667 7.2022 35.1469 7.2022H32.6103C32.5863 7.43008 32.5683 7.65796 32.5563 7.88584C32.5443 8.11372 32.5383 8.32961 32.5383 8.5335C32.5383 9.06122 32.5683 9.58894 32.6283 10.1167C32.7002 10.6444 32.8082 11.1181 32.9521 11.5379C33.108 11.9577 33.3059 12.2995 33.5458 12.5634C33.7857 12.8272 34.0735 12.9592 34.4093 12.9592C34.6612 12.9592 34.8831 12.8872 35.075 12.7433C35.2669 12.5994 35.4348 12.4194 35.5787 12.2036C35.7226 11.9877 35.8426 11.7538 35.9385 11.5019C36.0465 11.2381 36.1244 10.9982 36.1724 10.7823C36.2324 10.5544 36.2683 10.3565 36.2803 10.1886C36.3043 10.0207 36.3103 9.92476 36.2983 9.90078H36.4782C36.4902 9.93676 36.4842 10.0507 36.4602 10.2426C36.4483 10.4345 36.4123 10.6624 36.3523 10.9262C36.2923 11.1901 36.2024 11.4719 36.0824 11.7718C35.9745 12.0716 35.8306 12.3535 35.6507 12.6173C35.4708 12.8692 35.2429 13.0791 34.967 13.247C34.7032 13.4149 34.3853 13.4989 34.0135 13.4989C33.5338 13.4989 33.126 13.361 32.7902 13.0851C32.4664 12.7972 32.2025 12.4314 31.9986 11.9877C31.7947 11.5319 31.6448 11.0282 31.5488 10.4765C31.4529 9.92476 31.4049 9.37305 31.4049 8.82135C31.4049 8.35359 31.4529 7.84986 31.5488 7.31014C31.6448 6.75843 31.8007 6.2547 32.0166 5.79894C32.2445 5.34318 32.5383 4.96538 32.8981 4.66554C33.2579 4.3537 33.6957 4.19779 34.2114 4.19779ZM34.931 7.02229C35.087 7.02229 35.2009 6.95633 35.2729 6.8244C35.3568 6.69247 35.4048 6.53055 35.4168 6.33866C35.4408 6.14676 35.4288 5.93687 35.3808 5.70899C35.3448 5.48111 35.2729 5.27122 35.1649 5.07932C35.069 4.88742 34.937 4.72551 34.7691 4.59358C34.6132 4.46165 34.4333 4.39568 34.2294 4.39568C33.9656 4.39568 33.7437 4.49163 33.5638 4.68353C33.3839 4.87543 33.2279 5.1093 33.096 5.38516C32.9761 5.66101 32.8801 5.94886 32.8082 6.2487C32.7362 6.54854 32.6822 6.80641 32.6463 7.02229H34.931Z" fill="var(--fill-0, #FFF3DE)"/>
<path d="M37.8306 11.8617V6.01483C37.8306 5.63103 37.7826 5.37317 37.6867 5.24123C37.6027 5.09731 37.5128 5.01335 37.4168 4.98937V4.89941C37.5128 4.89941 37.6327 4.88742 37.7766 4.86343C37.9206 4.83945 38.0585 4.80946 38.1904 4.77348C38.3343 4.72551 38.4663 4.67154 38.5862 4.61157C38.7181 4.5516 38.8141 4.47964 38.8741 4.39568H38.964V6.0688C39.1199 5.45712 39.3718 4.99536 39.7196 4.68353C40.0674 4.37169 40.4692 4.21578 40.925 4.21578C41.6086 4.21578 42.1483 4.5576 42.5441 5.24123C42.9399 5.91288 43.1378 6.8304 43.1378 7.99378V11.8977C43.1378 12.1496 43.1618 12.3955 43.2098 12.6353C43.2577 12.8632 43.3897 13.0611 43.6056 13.229V13.319C43.4257 13.295 43.2518 13.277 43.0838 13.265C42.9159 13.241 42.748 13.229 42.5801 13.229C42.4002 13.229 42.2203 13.241 42.0404 13.265C41.8725 13.277 41.7046 13.295 41.5367 13.319V13.229C41.7525 13.0611 41.8845 12.8572 41.9325 12.6173C41.9804 12.3775 42.0044 12.1256 42.0044 11.8617V8.04775C42.0044 6.92035 41.8845 6.04481 41.6446 5.42114C41.4047 4.79747 41.0569 4.48563 40.6012 4.48563C40.3973 4.48563 40.1934 4.5516 39.9895 4.68353C39.7976 4.81546 39.6237 5.00736 39.4678 5.25923C39.3238 5.51109 39.2039 5.82293 39.1079 6.19473C39.012 6.56654 38.964 6.98631 38.964 7.45407V11.8617C38.964 12.1136 38.988 12.3655 39.036 12.6173C39.084 12.8572 39.2159 13.0611 39.4318 13.229V13.319C39.2519 13.295 39.078 13.277 38.91 13.265C38.7421 13.241 38.5742 13.229 38.4063 13.229C38.2264 13.229 38.0465 13.241 37.8666 13.265C37.6987 13.277 37.5308 13.295 37.3629 13.319V13.229C37.5787 13.0611 37.7107 12.8572 37.7587 12.6173C37.8066 12.3775 37.8306 12.1256 37.8306 11.8617Z" fill="var(--fill-0, #FFF3DE)"/>
<path d="M44.4234 8.82135C44.4234 8.11372 44.4894 7.47805 44.6213 6.91435C44.7653 6.33866 44.9631 5.85291 45.215 5.45712C45.4669 5.06133 45.7667 4.75549 46.1145 4.5396C46.4624 4.32372 46.8462 4.21578 47.2659 4.21578C47.7457 4.21578 48.1834 4.34771 48.5792 4.61157C48.975 4.86343 49.2749 5.19926 49.4788 5.61904L48.6332 6.26669C48.6332 6.02682 48.5972 5.79294 48.5253 5.56506C48.4533 5.33718 48.3514 5.13929 48.2194 4.97138C48.0995 4.79147 47.9556 4.65354 47.7877 4.5576C47.6197 4.44965 47.4458 4.39568 47.2659 4.39568C47.0141 4.39568 46.7802 4.49763 46.5643 4.70152C46.3604 4.89342 46.1805 5.17527 46.0246 5.54707C45.8807 5.90688 45.7667 6.34465 45.6828 6.86038C45.5988 7.36411 45.5568 7.92182 45.5568 8.5335C45.5568 9.06122 45.5868 9.58894 45.6468 10.1167C45.7187 10.6444 45.8267 11.1181 45.9706 11.5379C46.1265 11.9577 46.3244 12.2995 46.5643 12.5634C46.8042 12.8272 47.092 12.9592 47.4278 12.9592C47.6797 12.9592 47.9016 12.8872 48.0935 12.7433C48.2854 12.5994 48.4533 12.4194 48.5972 12.2036C48.7412 11.9877 48.8611 11.7538 48.957 11.5019C49.065 11.2381 49.1429 10.9982 49.1909 10.7823C49.2509 10.5544 49.2869 10.3565 49.2989 10.1886C49.3228 10.0207 49.3288 9.92476 49.3168 9.90078H49.4968C49.5087 9.93676 49.5027 10.0507 49.4788 10.2426C49.4668 10.4345 49.4308 10.6624 49.3708 10.9262C49.3109 11.1901 49.2209 11.4719 49.101 11.7718C48.993 12.0716 48.8491 12.3535 48.6692 12.6173C48.4893 12.8692 48.2614 13.0791 47.9856 13.247C47.7217 13.4149 47.4039 13.4989 47.0321 13.4989C46.5523 13.4989 46.1445 13.361 45.8087 13.0851C45.4849 12.7972 45.221 12.4314 45.0171 11.9877C44.8132 11.5319 44.6633 11.0282 44.5674 10.4765C44.4714 9.92476 44.4234 9.37305 44.4234 8.82135Z" fill="var(--fill-0, #FFF3DE)"/>
<path d="M53.0277 4.19779C53.3995 4.19779 53.7353 4.27574 54.0351 4.43166C54.347 4.57559 54.6048 4.76149 54.8087 4.98937C55.0246 5.20525 55.1805 5.44513 55.2765 5.70899C55.3724 5.96086 55.3904 6.20073 55.3305 6.42861C55.2825 6.64449 55.1446 6.8304 54.9167 6.98631C54.7008 7.13024 54.383 7.2022 53.9632 7.2022H51.4265C51.4025 7.43008 51.3845 7.65796 51.3725 7.88584C51.3605 8.11372 51.3546 8.32961 51.3546 8.5335C51.3546 9.06122 51.3845 9.58894 51.4445 10.1167C51.5165 10.6444 51.6244 11.1181 51.7683 11.5379C51.9243 11.9577 52.1221 12.2995 52.362 12.5634C52.6019 12.8272 52.8897 12.9592 53.2256 12.9592C53.4774 12.9592 53.6993 12.8872 53.8912 12.7433C54.0831 12.5994 54.251 12.4194 54.3949 12.2036C54.5389 11.9877 54.6588 11.7538 54.7548 11.5019C54.8627 11.2381 54.9407 10.9982 54.9886 10.7823C55.0486 10.5544 55.0846 10.3565 55.0966 10.1886C55.1206 10.0207 55.1266 9.92476 55.1146 9.90078H55.2945C55.3065 9.93676 55.3005 10.0507 55.2765 10.2426C55.2645 10.4345 55.2285 10.6624 55.1685 10.9262C55.1086 11.1901 55.0186 11.4719 54.8987 11.7718C54.7907 12.0716 54.6468 12.3535 54.4669 12.6173C54.287 12.8692 54.0591 13.0791 53.7833 13.247C53.5194 13.4149 53.2016 13.4989 52.8298 13.4989C52.35 13.4989 51.9422 13.361 51.6064 13.0851C51.2826 12.7972 51.0187 12.4314 50.8148 11.9877C50.6109 11.5319 50.461 11.0282 50.3651 10.4765C50.2691 9.92476 50.2212 9.37305 50.2212 8.82135C50.2212 8.35359 50.2691 7.84986 50.3651 7.31014C50.461 6.75843 50.6169 6.2547 50.8328 5.79894C51.0607 5.34318 51.3546 4.96538 51.7144 4.66554C52.0742 4.3537 52.5119 4.19779 53.0277 4.19779ZM53.7473 7.02229C53.9032 7.02229 54.0172 6.95633 54.0891 6.8244C54.1731 6.69247 54.221 6.53055 54.233 6.33866C54.257 6.14676 54.245 5.93687 54.1971 5.70899C54.1611 5.48111 54.0891 5.27122 53.9812 5.07932C53.8852 4.88742 53.7533 4.72551 53.5854 4.59358C53.4295 4.46165 53.2496 4.39568 53.0457 4.39568C52.7818 4.39568 52.5599 4.49163 52.38 4.68353C52.2001 4.87543 52.0442 5.1093 51.9123 5.38516C51.7923 5.66101 51.6964 5.94886 51.6244 6.2487C51.5525 6.54854 51.4985 6.80641 51.4625 7.02229H53.7473Z" fill="var(--fill-0, #FFF3DE)"/>
<path d="M62.9077 4.21578C63.8192 4.21578 64.4189 4.70752 64.7067 5.691V1.85902C64.7067 1.47522 64.6588 1.21736 64.5628 1.08543C64.4789 0.941504 64.3889 0.857548 64.293 0.833561V0.743608C64.4969 0.743608 64.7547 0.70163 65.0666 0.617675C65.3784 0.533718 65.6003 0.407785 65.7322 0.239873H65.8222V12.2036C65.8222 12.5874 65.8641 12.8512 65.9481 12.9951C66.044 13.1271 66.14 13.205 66.2359 13.229V13.319H64.7067V11.7538C64.6348 11.9697 64.5328 12.1796 64.4009 12.3835C64.281 12.5754 64.137 12.7493 63.9691 12.9052C63.8012 13.0611 63.6033 13.187 63.3754 13.283C63.1476 13.3789 62.8957 13.4269 62.6198 13.4269C62.1521 13.4269 61.7383 13.295 61.3785 13.0311C61.0307 12.7673 60.7428 12.4254 60.515 12.0057C60.2871 11.5739 60.1132 11.1001 59.9932 10.5844C59.8853 10.0567 59.8313 9.54097 59.8313 9.03723C59.8313 8.50951 59.8913 7.9638 60.0112 7.40009C60.1432 6.8244 60.335 6.30267 60.5869 5.83492C60.8388 5.36717 61.1566 4.98337 61.5404 4.68353C61.9242 4.37169 62.38 4.21578 62.9077 4.21578ZM62.8537 13.0311C63.1176 13.0311 63.3575 12.9652 63.5733 12.8332C63.8012 12.7013 63.9991 12.5334 64.167 12.3295C64.3349 12.1136 64.4669 11.8737 64.5628 11.6099C64.6588 11.334 64.7067 11.0522 64.7067 10.7643V7.45407C64.7067 6.49457 64.5688 5.75696 64.293 5.24123C64.0171 4.71351 63.6213 4.44965 63.1056 4.44965C62.6858 4.44965 62.338 4.61157 62.0621 4.9354C61.7863 5.25923 61.5644 5.66101 61.3965 6.14076C61.2406 6.62051 61.1266 7.12424 61.0547 7.65196C60.9947 8.17968 60.9647 8.65343 60.9647 9.07321C60.9647 9.37305 60.9827 9.75085 61.0187 10.2066C61.0667 10.6624 61.1566 11.1001 61.2885 11.5199C61.4325 11.9277 61.6244 12.2815 61.8642 12.5814C62.1161 12.8812 62.4459 13.0311 62.8537 13.0311Z" fill="var(--fill-0, #FFF3DE)"/>
<path d="M69.8586 4.19779C70.2304 4.19779 70.5663 4.27574 70.8661 4.43166C71.1779 4.57559 71.4358 4.76149 71.6397 4.98937C71.8556 5.20525 72.0115 5.44513 72.1074 5.70899C72.2034 5.96086 72.2214 6.20073 72.1614 6.42861C72.1134 6.64449 71.9755 6.8304 71.7476 6.98631C71.5317 7.13024 71.2139 7.2022 70.7941 7.2022H68.2575C68.2335 7.43008 68.2155 7.65796 68.2035 7.88584C68.1915 8.11372 68.1855 8.32961 68.1855 8.5335C68.1855 9.06122 68.2155 9.58894 68.2755 10.1167C68.3474 10.6444 68.4554 11.1181 68.5993 11.5379C68.7552 11.9577 68.9531 12.2995 69.193 12.5634C69.4329 12.8272 69.7207 12.9592 70.0565 12.9592C70.3084 12.9592 70.5303 12.8872 70.7222 12.7433C70.9141 12.5994 71.082 12.4194 71.2259 12.2036C71.3698 11.9877 71.4898 11.7538 71.5857 11.5019C71.6937 11.2381 71.7716 10.9982 71.8196 10.7823C71.8796 10.5544 71.9155 10.3565 71.9275 10.1886C71.9515 10.0207 71.9575 9.92476 71.9455 9.90078H72.1254C72.1374 9.93676 72.1314 10.0507 72.1074 10.2426C72.0955 10.4345 72.0595 10.6624 71.9995 10.9262C71.9395 11.1901 71.8496 11.4719 71.7296 11.7718C71.6217 12.0716 71.4778 12.3535 71.2979 12.6173C71.118 12.8692 70.8901 13.0791 70.6142 13.247C70.3504 13.4149 70.0325 13.4989 69.6607 13.4989C69.181 13.4989 68.7732 13.361 68.4374 13.0851C68.1136 12.7972 67.8497 12.4314 67.6458 11.9877C67.4419 11.5319 67.292 11.0282 67.196 10.4765C67.1001 9.92476 67.0521 9.37305 67.0521 8.82135C67.0521 8.35359 67.1001 7.84986 67.196 7.31014C67.292 6.75843 67.4479 6.2547 67.6638 5.79894C67.8917 5.34318 68.1855 4.96538 68.5453 4.66554C68.9051 4.3537 69.3429 4.19779 69.8586 4.19779ZM70.5783 7.02229C70.7342 7.02229 70.8481 6.95633 70.9201 6.8244C71.004 6.69247 71.052 6.53055 71.064 6.33866C71.088 6.14676 71.076 5.93687 71.028 5.70899C70.992 5.48111 70.9201 5.27122 70.8121 5.07932C70.7162 4.88742 70.5842 4.72551 70.4163 4.59358C70.2604 4.46165 70.0805 4.39568 69.8766 4.39568C69.6128 4.39568 69.3909 4.49163 69.211 4.68353C69.0311 4.87543 68.8752 5.1093 68.7432 5.38516C68.6233 5.66101 68.5273 5.94886 68.4554 6.2487C68.3834 6.54854 68.3294 6.80641 68.2935 7.02229H70.5783Z" fill="var(--fill-0, #FFF3DE)"/>
<path d="M77.6518 0.779589C77.8197 0.779589 78.0056 0.779589 78.2095 0.779589C78.4254 0.767596 78.6232 0.755602 78.8032 0.743608V0.833561C78.6592 0.857548 78.5573 0.935507 78.4973 1.06744C78.4493 1.18737 78.4254 1.3313 78.4254 1.49921C78.4254 1.67911 78.4433 1.85302 78.4793 2.02093C78.5153 2.18885 78.5633 2.37475 78.6232 2.57864L81.034 11.6818L83.4987 2.45271C83.5946 2.10489 83.5886 1.77506 83.4807 1.46323C83.3847 1.15139 83.1928 0.941503 82.905 0.833561V0.743608C83.0249 0.755602 83.1389 0.767596 83.2468 0.779589C83.3547 0.779589 83.5227 0.779589 83.7505 0.779589C83.9784 0.779589 84.1643 0.779589 84.3082 0.779589C84.4522 0.767596 84.6021 0.755602 84.758 0.743608V0.833561C84.6141 0.881535 84.4822 0.971488 84.3622 1.10342C84.2543 1.22335 84.1523 1.36728 84.0564 1.53519C83.9724 1.69111 83.8945 1.85902 83.8225 2.03892C83.7625 2.20684 83.7146 2.36275 83.6786 2.50668L80.7821 13.319H80.2964L77.3459 2.21883C77.3099 2.09889 77.268 1.96696 77.22 1.82304C77.172 1.66712 77.112 1.5232 77.0401 1.39127C76.9681 1.24734 76.8842 1.12141 76.7882 1.01347C76.7043 0.905523 76.6023 0.845555 76.4824 0.833561V0.743608C76.6623 0.755602 76.8542 0.767596 77.0581 0.779589C77.274 0.779589 77.4719 0.779589 77.6518 0.779589Z" fill="var(--fill-0, #FFF3DE)"/>
<path d="M88.1127 4.19779C88.4845 4.19779 88.8203 4.27574 89.1201 4.43166C89.432 4.57559 89.6898 4.76149 89.8937 4.98937C90.1096 5.20525 90.2655 5.44513 90.3615 5.70899C90.4574 5.96086 90.4754 6.20073 90.4155 6.42861C90.3675 6.64449 90.2296 6.8304 90.0017 6.98631C89.7858 7.13024 89.468 7.2022 89.0482 7.2022H86.5115C86.4875 7.43008 86.4695 7.65796 86.4575 7.88584C86.4456 8.11372 86.4396 8.32961 86.4396 8.5335C86.4396 9.06122 86.4695 9.58894 86.5295 10.1167C86.6015 10.6444 86.7094 11.1181 86.8533 11.5379C87.0093 11.9577 87.2072 12.2995 87.447 12.5634C87.6869 12.8272 87.9747 12.9592 88.3106 12.9592C88.5624 12.9592 88.7843 12.8872 88.9762 12.7433C89.1681 12.5994 89.336 12.4194 89.48 12.2036C89.6239 11.9877 89.7438 11.7538 89.8398 11.5019C89.9477 11.2381 90.0257 10.9982 90.0736 10.7823C90.1336 10.5544 90.1696 10.3565 90.1816 10.1886C90.2056 10.0207 90.2116 9.92476 90.1996 9.90078H90.3795C90.3915 9.93676 90.3855 10.0507 90.3615 10.2426C90.3495 10.4345 90.3135 10.6624 90.2535 10.9262C90.1936 11.1901 90.1036 11.4719 89.9837 11.7718C89.8757 12.0716 89.7318 12.3535 89.5519 12.6173C89.372 12.8692 89.1441 13.0791 88.8683 13.247C88.6044 13.4149 88.2866 13.4989 87.9148 13.4989C87.435 13.4989 87.0272 13.361 86.6914 13.0851C86.3676 12.7972 86.1037 12.4314 85.8998 11.9877C85.696 11.5319 85.546 11.0282 85.4501 10.4765C85.3541 9.92476 85.3062 9.37305 85.3062 8.82135C85.3062 8.35359 85.3541 7.84986 85.4501 7.31014C85.546 6.75843 85.7019 6.2547 85.9178 5.79894C86.1457 5.34318 86.4396 4.96538 86.7994 4.66554C87.1592 4.3537 87.597 4.19779 88.1127 4.19779ZM88.8323 7.02229C88.9882 7.02229 89.1022 6.95633 89.1741 6.8244C89.2581 6.69247 89.306 6.53055 89.318 6.33866C89.342 6.14676 89.33 5.93687 89.2821 5.70899C89.2461 5.48111 89.1741 5.27122 89.0662 5.07932C88.9702 4.88742 88.8383 4.72551 88.6704 4.59358C88.5145 4.46165 88.3346 4.39568 88.1307 4.39568C87.8668 4.39568 87.6449 4.49163 87.465 4.68353C87.2851 4.87543 87.1292 5.1093 86.9973 5.38516C86.8773 5.66101 86.7814 5.94886 86.7094 6.2487C86.6375 6.54854 86.5835 6.80641 86.5475 7.02229H88.8323Z" fill="var(--fill-0, #FFF3DE)"/>
<path d="M91.7319 11.8617V6.01483C91.7319 5.63103 91.6839 5.37317 91.5879 5.24123C91.504 5.09731 91.414 5.01335 91.3181 4.98937V4.89941C91.414 4.89941 91.534 4.88742 91.6779 4.86343C91.8218 4.83945 91.9597 4.80946 92.0917 4.77348C92.2356 4.72551 92.3675 4.67154 92.4875 4.61157C92.6194 4.5516 92.7153 4.47964 92.7753 4.39568H92.8653V6.0688C93.0212 5.45712 93.273 4.99536 93.6209 4.68353C93.9687 4.37169 94.3705 4.21578 94.8262 4.21578C95.5099 4.21578 96.0496 4.5576 96.4454 5.24123C96.8412 5.91288 97.0391 6.8304 97.0391 7.99378V11.8977C97.0391 12.1496 97.0631 12.3955 97.111 12.6353C97.159 12.8632 97.2909 13.0611 97.5068 13.229V13.319C97.3269 13.295 97.153 13.277 96.9851 13.265C96.8172 13.241 96.6493 13.229 96.4814 13.229C96.3015 13.229 96.1215 13.241 95.9416 13.265C95.7737 13.277 95.6058 13.295 95.4379 13.319V13.229C95.6538 13.0611 95.7857 12.8572 95.8337 12.6173C95.8817 12.3775 95.9057 12.1256 95.9057 11.8617V8.04775C95.9057 6.92035 95.7857 6.04481 95.5459 5.42114C95.306 4.79747 94.9582 4.48563 94.5024 4.48563C94.2985 4.48563 94.0946 4.5516 93.8907 4.68353C93.6988 4.81546 93.5249 5.00736 93.369 5.25923C93.2251 5.51109 93.1051 5.82293 93.0092 6.19473C92.9132 6.56654 92.8653 6.98631 92.8653 7.45407V11.8617C92.8653 12.1136 92.8892 12.3655 92.9372 12.6173C92.9852 12.8572 93.1171 13.0611 93.333 13.229V13.319C93.1531 13.295 92.9792 13.277 92.8113 13.265C92.6434 13.241 92.4755 13.229 92.3076 13.229C92.1276 13.229 91.9477 13.241 91.7678 13.265C91.5999 13.277 91.432 13.295 91.2641 13.319V13.229C91.48 13.0611 91.6119 12.8572 91.6599 12.6173C91.7079 12.3775 91.7319 12.1256 91.7319 11.8617Z" fill="var(--fill-0, #FFF3DE)"/>
<path d="M99.2824 4.48563C99.4503 4.48563 99.6182 4.47964 99.7861 4.46764C99.966 4.44366 100.14 4.41967 100.308 4.39568V4.48563C100.092 4.65354 99.96 4.85744 99.9121 5.09731C99.8641 5.33718 99.8401 5.58905 99.8401 5.85291V9.6669C99.8401 10.7943 99.96 11.6698 100.2 12.2935C100.44 12.9172 100.788 13.229 101.243 13.229C101.447 13.229 101.645 13.1631 101.837 13.0311C102.041 12.8992 102.215 12.7073 102.359 12.4554C102.515 12.2036 102.641 11.8917 102.737 11.5199C102.833 11.1481 102.88 10.7283 102.88 10.2606V5.85291C102.88 5.60104 102.857 5.35517 102.809 5.1153C102.761 4.86343 102.629 4.65354 102.413 4.48563V4.39568C102.593 4.41967 102.767 4.44366 102.934 4.46764C103.102 4.47964 103.276 4.48563 103.456 4.48563C103.624 4.48563 103.792 4.47964 103.96 4.46764C104.14 4.44366 104.314 4.41967 104.482 4.39568V4.48563C104.266 4.65354 104.134 4.85744 104.086 5.09731C104.038 5.33718 104.014 5.58905 104.014 5.85291V11.6998C104.014 12.0836 104.056 12.3475 104.14 12.4914C104.236 12.6233 104.332 12.7013 104.428 12.7253V12.8152C104.332 12.8152 104.212 12.8272 104.068 12.8512C103.924 12.8752 103.78 12.9112 103.636 12.9592C103.504 12.9951 103.372 13.0431 103.24 13.1031C103.12 13.1631 103.03 13.235 102.97 13.319H102.88V11.6459C102.725 12.2575 102.473 12.7193 102.125 13.0311C101.777 13.343 101.375 13.4989 100.92 13.4989C100.236 13.4989 99.6962 13.1631 99.3004 12.4914C98.9046 11.8078 98.7067 10.8843 98.7067 9.72087V5.81693C98.7067 5.56506 98.6827 5.32519 98.6347 5.09731C98.5868 4.85744 98.4548 4.65354 98.2389 4.48563V4.39568C98.4188 4.41967 98.5928 4.44366 98.7607 4.46764C98.9286 4.47964 99.1025 4.48563 99.2824 4.48563Z" fill="var(--fill-0, #FFF3DE)"/>
<path d="M107.512 4.21578C107.992 4.21578 108.43 4.34771 108.826 4.61157C109.221 4.86343 109.521 5.19926 109.725 5.61904L108.88 6.26669C108.88 6.02682 108.844 5.79294 108.772 5.56506C108.7 5.33718 108.598 5.13929 108.466 4.97138C108.346 4.79147 108.196 4.65354 108.016 4.5576C107.848 4.44965 107.668 4.39568 107.476 4.39568C107.129 4.39568 106.841 4.5456 106.613 4.84544C106.397 5.14529 106.289 5.4871 106.289 5.8709C106.289 6.20672 106.373 6.50057 106.541 6.75244C106.709 7.0043 106.919 7.24418 107.171 7.47206C107.422 7.69994 107.698 7.92182 107.998 8.13771C108.298 8.35359 108.574 8.59946 108.826 8.87532C109.078 9.13918 109.287 9.43902 109.455 9.77484C109.623 10.0987 109.707 10.4885 109.707 10.9442C109.707 11.316 109.647 11.6578 109.527 11.9697C109.407 12.2695 109.239 12.5334 109.024 12.7613C108.808 12.9772 108.556 13.1451 108.268 13.265C107.992 13.3849 107.692 13.4449 107.368 13.4449C106.997 13.4449 106.655 13.3669 106.343 13.211C106.031 13.0551 105.725 12.8332 105.425 12.5454V10.0267H105.605C105.629 10.4945 105.701 10.9262 105.821 11.322C105.941 11.7178 106.085 12.0596 106.253 12.3475C106.433 12.6353 106.625 12.8632 106.829 13.0311C107.045 13.187 107.248 13.265 107.44 13.265C107.596 13.265 107.752 13.217 107.908 13.1211C108.064 13.0131 108.202 12.8752 108.322 12.7073C108.442 12.5394 108.538 12.3415 108.61 12.1136C108.682 11.8737 108.718 11.6279 108.718 11.376C108.718 10.9802 108.634 10.6384 108.466 10.3505C108.298 10.0507 108.088 9.78084 107.836 9.54097C107.584 9.2891 107.308 9.06122 107.009 8.85733C106.709 8.64144 106.433 8.41956 106.181 8.19168C105.929 7.9518 105.719 7.69394 105.551 7.41809C105.383 7.13024 105.3 6.80041 105.3 6.42861C105.3 6.15275 105.347 5.8829 105.443 5.61904C105.551 5.35517 105.701 5.1213 105.893 4.91741C106.085 4.70152 106.319 4.53361 106.595 4.41367C106.871 4.28174 107.177 4.21578 107.512 4.21578Z" fill="var(--fill-0, #FFF3DE)"/>
<path d="M1.28332 0.833561C1.45123 0.833561 1.61915 0.827564 1.78706 0.81557C1.95497 0.791583 2.12888 0.767595 2.30878 0.743608V0.833561C2.0929 1.00147 1.96097 1.20536 1.91299 1.44524C1.86502 1.67312 1.84103 1.91299 1.84103 2.16486V13.1391H3.24429C3.70005 13.1391 4.06585 13.0131 4.34171 12.7613C4.61756 12.4974 4.83345 12.1856 4.98937 11.8258C5.14528 11.4659 5.25922 11.0941 5.33119 10.7103C5.40315 10.3146 5.45712 9.98473 5.4931 9.72087H5.63703L5.40315 13.319H0.275854V13.247C0.383797 13.1631 0.479747 13.0431 0.563703 12.8872C0.659652 12.7193 0.707627 12.4794 0.707627 12.1676V2.20084C0.707627 1.93698 0.683639 1.68511 0.635665 1.44524C0.58769 1.20536 0.455759 1.00147 0.239873 0.833561V0.743608C0.407785 0.767595 0.575696 0.791583 0.743608 0.81557C0.923513 0.827564 1.10342 0.833561 1.28332 0.833561Z" stroke="var(--stroke-0, #FFF3DE)" stroke-width="0.479747" mask="url(#path-1-outside-1_9_137)"/>
<path d="M6.26599 2.72256L6.64379 0.887532C6.66778 0.731614 6.72175 0.623671 6.80571 0.563703C6.88966 0.491741 6.97961 0.45576 7.07556 0.45576C7.20749 0.45576 7.32143 0.509731 7.41738 0.617675C7.51333 0.725618 7.52533 0.857548 7.45336 1.01347L6.6258 2.72256H6.26599Z" stroke="var(--stroke-0, #FFF3DE)" stroke-width="0.479747" mask="url(#path-1-outside-1_9_137)"/>
<path d="M8.40939 0.743608C8.74521 0.803577 9.08703 0.833561 9.43485 0.833561C9.61475 0.833561 9.78866 0.827564 9.95657 0.81557C10.1245 0.791583 10.2984 0.767595 10.4783 0.743608V0.833561C10.2624 1.00147 10.1305 1.20536 10.0825 1.44524C10.0345 1.67312 10.0105 1.91299 10.0105 2.16486V11.8977C10.0105 12.1496 10.0345 12.3955 10.0825 12.6353C10.1305 12.8632 10.2624 13.0611 10.4783 13.229V13.319C10.2984 13.295 10.1245 13.277 9.95657 13.265C9.78866 13.241 9.62075 13.229 9.45284 13.229C9.27293 13.229 9.09303 13.241 8.91312 13.265C8.74521 13.277 8.5773 13.295 8.40939 13.319V13.229C8.62528 13.0611 8.75721 12.8572 8.80518 12.6173C8.85316 12.3775 8.87714 12.1256 8.87714 11.8617V2.20084C8.87714 1.93698 8.85316 1.68511 8.80518 1.44524C8.75721 1.20536 8.62528 1.00147 8.40939 0.833561V0.743608Z" stroke="var(--stroke-0, #FFF3DE)" stroke-width="0.479747" mask="url(#path-1-outside-1_9_137)"/>
<path d="M11.8463 11.8617V6.01483C11.8463 5.63103 11.7983 5.37317 11.7024 5.24123C11.6184 5.09731 11.5284 5.01335 11.4325 4.98937V4.89941C11.5284 4.89941 11.6484 4.88742 11.7923 4.86343C11.9362 4.83945 12.0742 4.80946 12.2061 4.77348C12.35 4.72551 12.4819 4.67154 12.6019 4.61157C12.7338 4.5516 12.8298 4.47964 12.8897 4.39568H12.9797V6.0688C13.1356 5.45712 13.3875 4.99536 13.7353 4.68353C14.0831 4.37169 14.4849 4.21578 14.9406 4.21578C15.6243 4.21578 16.164 4.5576 16.5598 5.24123C16.9556 5.91288 17.1535 6.8304 17.1535 7.99378V11.8977C17.1535 12.1496 17.1775 12.3955 17.2254 12.6353C17.2734 12.8632 17.4053 13.0611 17.6212 13.229V13.319C17.4413 13.295 17.2674 13.277 17.0995 13.265C16.9316 13.241 16.7637 13.229 16.5958 13.229C16.4159 13.229 16.236 13.241 16.0561 13.265C15.8881 13.277 15.7202 13.295 15.5523 13.319V13.229C15.7682 13.0611 15.9001 12.8572 15.9481 12.6173C15.9961 12.3775 16.0201 12.1256 16.0201 11.8617V8.04775C16.0201 6.92035 15.9001 6.04481 15.6603 5.42114C15.4204 4.79747 15.0726 4.48563 14.6168 4.48563C14.4129 4.48563 14.209 4.5516 14.0051 4.68353C13.8132 4.81546 13.6393 5.00736 13.4834 5.25923C13.3395 5.51109 13.2196 5.82293 13.1236 6.19473C13.0277 6.56654 12.9797 6.98631 12.9797 7.45407V11.8617C12.9797 12.1136 13.0037 12.3655 13.0516 12.6173C13.0996 12.8572 13.2315 13.0611 13.4474 13.229V13.319C13.2675 13.295 13.0936 13.277 12.9257 13.265C12.7578 13.241 12.5899 13.229 12.422 13.229C12.2421 13.229 12.0622 13.241 11.8823 13.265C11.7143 13.277 11.5464 13.295 11.3785 13.319V13.229C11.5944 13.0611 11.7263 12.8572 11.7743 12.6173C11.8223 12.3775 11.8463 12.1256 11.8463 11.8617Z" stroke="var(--stroke-0, #FFF3DE)" stroke-width="0.479747" mask="url(#path-1-outside-1_9_137)"/>
<path d="M18.7629 4.21578V4.14381C18.7629 3.89195 18.7749 3.56812 18.7989 3.17233C18.8349 2.77654 18.9188 2.38674 19.0508 2.00294C19.1827 1.61915 19.3926 1.28932 19.6804 1.01347C19.9683 0.737611 20.3641 0.599684 20.8678 0.599684C21.1437 0.599684 21.4075 0.641662 21.6594 0.725617C21.9113 0.809573 22.1331 0.923513 22.325 1.06744C22.5169 1.21136 22.6729 1.37927 22.7928 1.57117C22.9127 1.76307 22.9727 1.96097 22.9727 2.16486V12.0956C22.9727 12.3115 22.9967 12.5274 23.0447 12.7433C23.0926 12.9472 23.2246 13.1151 23.4405 13.247V13.319C23.2606 13.295 23.0866 13.277 22.9187 13.265C22.7508 13.241 22.5829 13.229 22.415 13.229C22.2351 13.229 22.0552 13.241 21.8753 13.265C21.7074 13.277 21.5395 13.295 21.3716 13.319V13.265C21.5874 13.1091 21.7194 12.9292 21.7673 12.7253C21.8153 12.5094 21.8393 12.2815 21.8393 12.0416V3.15434C21.8393 2.29079 21.7733 1.67911 21.6414 1.3193C21.5215 0.959494 21.3116 0.779589 21.0117 0.779589C20.7119 0.779589 20.484 0.923513 20.3281 1.21136C20.1722 1.48722 20.0642 1.81704 20.0043 2.20084C19.9443 2.57264 19.9083 2.95044 19.8963 3.33424C19.8963 3.71804 19.8963 4.00589 19.8963 4.19779V4.21578H20.7419V4.39568H19.8963V11.8977C19.8963 12.1496 19.9203 12.3955 19.9683 12.6353C20.0163 12.8632 20.1482 13.0611 20.3641 13.229V13.319C20.1842 13.295 20.0103 13.277 19.8424 13.265C19.6744 13.241 19.5065 13.229 19.3386 13.229C19.1587 13.229 18.9788 13.241 18.7989 13.265C18.631 13.277 18.4631 13.295 18.2952 13.319V13.229C18.5111 13.0611 18.643 12.8572 18.691 12.6173C18.7389 12.3775 18.7629 12.1256 18.7629 11.8617V4.39568H18.2592V4.21578H18.7629Z" stroke="var(--stroke-0, #FFF3DE)" stroke-width="0.479747" mask="url(#path-1-outside-1_9_137)"/>
<path d="M25.3878 4.48563C25.5557 4.48563 25.7236 4.47964 25.8915 4.46764C26.0714 4.44366 26.2453 4.41967 26.4132 4.39568V4.48563C26.1974 4.65354 26.0654 4.85744 26.0175 5.09731C25.9695 5.33718 25.9455 5.58905 25.9455 5.85291V9.6669C25.9455 10.7943 26.0654 11.6698 26.3053 12.2935C26.5452 12.9172 26.893 13.229 27.3488 13.229C27.5526 13.229 27.7505 13.1631 27.9424 13.0311C28.1463 12.8992 28.3202 12.7073 28.4642 12.4554C28.6201 12.2036 28.746 11.8917 28.842 11.5199C28.9379 11.1481 28.9859 10.7283 28.9859 10.2606V5.85291C28.9859 5.60104 28.9619 5.35517 28.9139 5.1153C28.866 4.86343 28.734 4.65354 28.5181 4.48563V4.39568C28.698 4.41967 28.872 4.44366 29.0399 4.46764C29.2078 4.47964 29.3817 4.48563 29.5616 4.48563C29.7295 4.48563 29.8974 4.47964 30.0653 4.46764C30.2452 4.44366 30.4191 4.41967 30.587 4.39568V4.48563C30.3712 4.65354 30.2392 4.85744 30.1913 5.09731C30.1433 5.33718 30.1193 5.58905 30.1193 5.85291V11.6998C30.1193 12.0836 30.1613 12.3475 30.2452 12.4914C30.3412 12.6233 30.4371 12.7013 30.5331 12.7253V12.8152C30.4371 12.8152 30.3172 12.8272 30.1733 12.8512C30.0293 12.8752 29.8854 12.9112 29.7415 12.9592C29.6096 12.9951 29.4776 13.0431 29.3457 13.1031C29.2258 13.1631 29.1358 13.235 29.0758 13.319H28.9859V11.6459C28.83 12.2575 28.5781 12.7193 28.2303 13.0311C27.8825 13.343 27.4807 13.4989 27.0249 13.4989C26.3413 13.4989 25.8016 13.1631 25.4058 12.4914C25.01 11.8078 24.8121 10.8843 24.8121 9.72087V5.81693C24.8121 5.56506 24.7881 5.32519 24.7401 5.09731C24.6922 4.85744 24.5602 4.65354 24.3443 4.48563V4.39568C24.5242 4.41967 24.6982 4.44366 24.8661 4.46764C25.034 4.47964 25.2079 4.48563 25.3878 4.48563Z" stroke="var(--stroke-0, #FFF3DE)" stroke-width="0.479747" mask="url(#path-1-outside-1_9_137)"/>
<path d="M34.2114 4.19779C34.5832 4.19779 34.9191 4.27574 35.2189 4.43166C35.5307 4.57559 35.7886 4.76149 35.9925 4.98937C36.2084 5.20525 36.3643 5.44513 36.4602 5.70899C36.5562 5.96086 36.5742 6.20073 36.5142 6.42861C36.4662 6.64449 36.3283 6.8304 36.1004 6.98631C35.8845 7.13024 35.5667 7.2022 35.1469 7.2022H32.6103C32.5863 7.43008 32.5683 7.65796 32.5563 7.88584C32.5443 8.11372 32.5383 8.32961 32.5383 8.5335C32.5383 9.06122 32.5683 9.58894 32.6283 10.1167C32.7002 10.6444 32.8082 11.1181 32.9521 11.5379C33.108 11.9577 33.3059 12.2995 33.5458 12.5634C33.7857 12.8272 34.0735 12.9592 34.4093 12.9592C34.6612 12.9592 34.8831 12.8872 35.075 12.7433C35.2669 12.5994 35.4348 12.4194 35.5787 12.2036C35.7226 11.9877 35.8426 11.7538 35.9385 11.5019C36.0465 11.2381 36.1244 10.9982 36.1724 10.7823C36.2324 10.5544 36.2683 10.3565 36.2803 10.1886C36.3043 10.0207 36.3103 9.92476 36.2983 9.90078H36.4782C36.4902 9.93676 36.4842 10.0507 36.4602 10.2426C36.4483 10.4345 36.4123 10.6624 36.3523 10.9262C36.2923 11.1901 36.2024 11.4719 36.0824 11.7718C35.9745 12.0716 35.8306 12.3535 35.6507 12.6173C35.4708 12.8692 35.2429 13.0791 34.967 13.247C34.7032 13.4149 34.3853 13.4989 34.0135 13.4989C33.5338 13.4989 33.126 13.361 32.7902 13.0851C32.4664 12.7972 32.2025 12.4314 31.9986 11.9877C31.7947 11.5319 31.6448 11.0282 31.5488 10.4765C31.4529 9.92476 31.4049 9.37305 31.4049 8.82135C31.4049 8.35359 31.4529 7.84986 31.5488 7.31014C31.6448 6.75843 31.8007 6.2547 32.0166 5.79894C32.2445 5.34318 32.5383 4.96538 32.8981 4.66554C33.2579 4.3537 33.6957 4.19779 34.2114 4.19779ZM34.931 7.02229C35.087 7.02229 35.2009 6.95633 35.2729 6.8244C35.3568 6.69247 35.4048 6.53055 35.4168 6.33866C35.4408 6.14676 35.4288 5.93687 35.3808 5.70899C35.3448 5.48111 35.2729 5.27122 35.1649 5.07932C35.069 4.88742 34.937 4.72551 34.7691 4.59358C34.6132 4.46165 34.4333 4.39568 34.2294 4.39568C33.9656 4.39568 33.7437 4.49163 33.5638 4.68353C33.3839 4.87543 33.2279 5.1093 33.096 5.38516C32.9761 5.66101 32.8801 5.94886 32.8082 6.2487C32.7362 6.54854 32.6822 6.80641 32.6463 7.02229H34.931Z" stroke="var(--stroke-0, #FFF3DE)" stroke-width="0.479747" mask="url(#path-1-outside-1_9_137)"/>
<path d="M37.8306 11.8617V6.01483C37.8306 5.63103 37.7826 5.37317 37.6867 5.24123C37.6027 5.09731 37.5128 5.01335 37.4168 4.98937V4.89941C37.5128 4.89941 37.6327 4.88742 37.7766 4.86343C37.9206 4.83945 38.0585 4.80946 38.1904 4.77348C38.3343 4.72551 38.4663 4.67154 38.5862 4.61157C38.7181 4.5516 38.8141 4.47964 38.8741 4.39568H38.964V6.0688C39.1199 5.45712 39.3718 4.99536 39.7196 4.68353C40.0674 4.37169 40.4692 4.21578 40.925 4.21578C41.6086 4.21578 42.1483 4.5576 42.5441 5.24123C42.9399 5.91288 43.1378 6.8304 43.1378 7.99378V11.8977C43.1378 12.1496 43.1618 12.3955 43.2098 12.6353C43.2577 12.8632 43.3897 13.0611 43.6056 13.229V13.319C43.4257 13.295 43.2518 13.277 43.0838 13.265C42.9159 13.241 42.748 13.229 42.5801 13.229C42.4002 13.229 42.2203 13.241 42.0404 13.265C41.8725 13.277 41.7046 13.295 41.5367 13.319V13.229C41.7525 13.0611 41.8845 12.8572 41.9325 12.6173C41.9804 12.3775 42.0044 12.1256 42.0044 11.8617V8.04775C42.0044 6.92035 41.8845 6.04481 41.6446 5.42114C41.4047 4.79747 41.0569 4.48563 40.6012 4.48563C40.3973 4.48563 40.1934 4.5516 39.9895 4.68353C39.7976 4.81546 39.6237 5.00736 39.4678 5.25923C39.3238 5.51109 39.2039 5.82293 39.1079 6.19473C39.012 6.56654 38.964 6.98631 38.964 7.45407V11.8617C38.964 12.1136 38.988 12.3655 39.036 12.6173C39.084 12.8572 39.2159 13.0611 39.4318 13.229V13.319C39.2519 13.295 39.078 13.277 38.91 13.265C38.7421 13.241 38.5742 13.229 38.4063 13.229C38.2264 13.229 38.0465 13.241 37.8666 13.265C37.6987 13.277 37.5308 13.295 37.3629 13.319V13.229C37.5787 13.0611 37.7107 12.8572 37.7587 12.6173C37.8066 12.3775 37.8306 12.1256 37.8306 11.8617Z" stroke="var(--stroke-0, #FFF3DE)" stroke-width="0.479747" mask="url(#path-1-outside-1_9_137)"/>
<path d="M44.4234 8.82135C44.4234 8.11372 44.4894 7.47805 44.6213 6.91435C44.7653 6.33866 44.9631 5.85291 45.215 5.45712C45.4669 5.06133 45.7667 4.75549 46.1145 4.5396C46.4624 4.32372 46.8462 4.21578 47.2659 4.21578C47.7457 4.21578 48.1834 4.34771 48.5792 4.61157C48.975 4.86343 49.2749 5.19926 49.4788 5.61904L48.6332 6.26669C48.6332 6.02682 48.5972 5.79294 48.5253 5.56506C48.4533 5.33718 48.3514 5.13929 48.2194 4.97138C48.0995 4.79147 47.9556 4.65354 47.7877 4.5576C47.6197 4.44965 47.4458 4.39568 47.2659 4.39568C47.0141 4.39568 46.7802 4.49763 46.5643 4.70152C46.3604 4.89342 46.1805 5.17527 46.0246 5.54707C45.8807 5.90688 45.7667 6.34465 45.6828 6.86038C45.5988 7.36411 45.5568 7.92182 45.5568 8.5335C45.5568 9.06122 45.5868 9.58894 45.6468 10.1167C45.7187 10.6444 45.8267 11.1181 45.9706 11.5379C46.1265 11.9577 46.3244 12.2995 46.5643 12.5634C46.8042 12.8272 47.092 12.9592 47.4278 12.9592C47.6797 12.9592 47.9016 12.8872 48.0935 12.7433C48.2854 12.5994 48.4533 12.4194 48.5972 12.2036C48.7412 11.9877 48.8611 11.7538 48.957 11.5019C49.065 11.2381 49.1429 10.9982 49.1909 10.7823C49.2509 10.5544 49.2869 10.3565 49.2989 10.1886C49.3228 10.0207 49.3288 9.92476 49.3168 9.90078H49.4968C49.5087 9.93676 49.5027 10.0507 49.4788 10.2426C49.4668 10.4345 49.4308 10.6624 49.3708 10.9262C49.3109 11.1901 49.2209 11.4719 49.101 11.7718C48.993 12.0716 48.8491 12.3535 48.6692 12.6173C48.4893 12.8692 48.2614 13.0791 47.9856 13.247C47.7217 13.4149 47.4039 13.4989 47.0321 13.4989C46.5523 13.4989 46.1445 13.361 45.8087 13.0851C45.4849 12.7972 45.221 12.4314 45.0171 11.9877C44.8132 11.5319 44.6633 11.0282 44.5674 10.4765C44.4714 9.92476 44.4234 9.37305 44.4234 8.82135Z" stroke="var(--stroke-0, #FFF3DE)" stroke-width="0.479747" mask="url(#path-1-outside-1_9_137)"/>
<path d="M53.0277 4.19779C53.3995 4.19779 53.7353 4.27574 54.0351 4.43166C54.347 4.57559 54.6048 4.76149 54.8087 4.98937C55.0246 5.20525 55.1805 5.44513 55.2765 5.70899C55.3724 5.96086 55.3904 6.20073 55.3305 6.42861C55.2825 6.64449 55.1446 6.8304 54.9167 6.98631C54.7008 7.13024 54.383 7.2022 53.9632 7.2022H51.4265C51.4025 7.43008 51.3845 7.65796 51.3725 7.88584C51.3605 8.11372 51.3546 8.32961 51.3546 8.5335C51.3546 9.06122 51.3845 9.58894 51.4445 10.1167C51.5165 10.6444 51.6244 11.1181 51.7683 11.5379C51.9243 11.9577 52.1221 12.2995 52.362 12.5634C52.6019 12.8272 52.8897 12.9592 53.2256 12.9592C53.4774 12.9592 53.6993 12.8872 53.8912 12.7433C54.0831 12.5994 54.251 12.4194 54.3949 12.2036C54.5389 11.9877 54.6588 11.7538 54.7548 11.5019C54.8627 11.2381 54.9407 10.9982 54.9886 10.7823C55.0486 10.5544 55.0846 10.3565 55.0966 10.1886C55.1206 10.0207 55.1266 9.92476 55.1146 9.90078H55.2945C55.3065 9.93676 55.3005 10.0507 55.2765 10.2426C55.2645 10.4345 55.2285 10.6624 55.1685 10.9262C55.1086 11.1901 55.0186 11.4719 54.8987 11.7718C54.7907 12.0716 54.6468 12.3535 54.4669 12.6173C54.287 12.8692 54.0591 13.0791 53.7833 13.247C53.5194 13.4149 53.2016 13.4989 52.8298 13.4989C52.35 13.4989 51.9422 13.361 51.6064 13.0851C51.2826 12.7972 51.0187 12.4314 50.8148 11.9877C50.6109 11.5319 50.461 11.0282 50.3651 10.4765C50.2691 9.92476 50.2212 9.37305 50.2212 8.82135C50.2212 8.35359 50.2691 7.84986 50.3651 7.31014C50.461 6.75843 50.6169 6.2547 50.8328 5.79894C51.0607 5.34318 51.3546 4.96538 51.7144 4.66554C52.0742 4.3537 52.5119 4.19779 53.0277 4.19779ZM53.7473 7.02229C53.9032 7.02229 54.0172 6.95633 54.0891 6.8244C54.1731 6.69247 54.221 6.53055 54.233 6.33866C54.257 6.14676 54.245 5.93687 54.1971 5.70899C54.1611 5.48111 54.0891 5.27122 53.9812 5.07932C53.8852 4.88742 53.7533 4.72551 53.5854 4.59358C53.4295 4.46165 53.2496 4.39568 53.0457 4.39568C52.7818 4.39568 52.5599 4.49163 52.38 4.68353C52.2001 4.87543 52.0442 5.1093 51.9123 5.38516C51.7923 5.66101 51.6964 5.94886 51.6244 6.2487C51.5525 6.54854 51.4985 6.80641 51.4625 7.02229H53.7473Z" stroke="var(--stroke-0, #FFF3DE)" stroke-width="0.479747" mask="url(#path-1-outside-1_9_137)"/>
<path d="M62.9077 4.21578C63.8192 4.21578 64.4189 4.70752 64.7067 5.691V1.85902C64.7067 1.47522 64.6588 1.21736 64.5628 1.08543C64.4789 0.941504 64.3889 0.857548 64.293 0.833561V0.743608C64.4969 0.743608 64.7547 0.70163 65.0666 0.617675C65.3784 0.533718 65.6003 0.407785 65.7322 0.239873H65.8222V12.2036C65.8222 12.5874 65.8641 12.8512 65.9481 12.9951C66.044 13.1271 66.14 13.205 66.2359 13.229V13.319H64.7067V11.7538C64.6348 11.9697 64.5328 12.1796 64.4009 12.3835C64.281 12.5754 64.137 12.7493 63.9691 12.9052C63.8012 13.0611 63.6033 13.187 63.3754 13.283C63.1476 13.3789 62.8957 13.4269 62.6198 13.4269C62.1521 13.4269 61.7383 13.295 61.3785 13.0311C61.0307 12.7673 60.7428 12.4254 60.515 12.0057C60.2871 11.5739 60.1132 11.1001 59.9932 10.5844C59.8853 10.0567 59.8313 9.54097 59.8313 9.03723C59.8313 8.50951 59.8913 7.9638 60.0112 7.40009C60.1432 6.8244 60.335 6.30267 60.5869 5.83492C60.8388 5.36717 61.1566 4.98337 61.5404 4.68353C61.9242 4.37169 62.38 4.21578 62.9077 4.21578ZM62.8537 13.0311C63.1176 13.0311 63.3575 12.9652 63.5733 12.8332C63.8012 12.7013 63.9991 12.5334 64.167 12.3295C64.3349 12.1136 64.4669 11.8737 64.5628 11.6099C64.6588 11.334 64.7067 11.0522 64.7067 10.7643V7.45407C64.7067 6.49457 64.5688 5.75696 64.293 5.24123C64.0171 4.71351 63.6213 4.44965 63.1056 4.44965C62.6858 4.44965 62.338 4.61157 62.0621 4.9354C61.7863 5.25923 61.5644 5.66101 61.3965 6.14076C61.2406 6.62051 61.1266 7.12424 61.0547 7.65196C60.9947 8.17968 60.9647 8.65343 60.9647 9.07321C60.9647 9.37305 60.9827 9.75085 61.0187 10.2066C61.0667 10.6624 61.1566 11.1001 61.2885 11.5199C61.4325 11.9277 61.6244 12.2815 61.8642 12.5814C62.1161 12.8812 62.4459 13.0311 62.8537 13.0311Z" stroke="var(--stroke-0, #FFF3DE)" stroke-width="0.479747" mask="url(#path-1-outside-1_9_137)"/>
<path d="M69.8586 4.19779C70.2304 4.19779 70.5663 4.27574 70.8661 4.43166C71.1779 4.57559 71.4358 4.76149 71.6397 4.98937C71.8556 5.20525 72.0115 5.44513 72.1074 5.70899C72.2034 5.96086 72.2214 6.20073 72.1614 6.42861C72.1134 6.64449 71.9755 6.8304 71.7476 6.98631C71.5317 7.13024 71.2139 7.2022 70.7941 7.2022H68.2575C68.2335 7.43008 68.2155 7.65796 68.2035 7.88584C68.1915 8.11372 68.1855 8.32961 68.1855 8.5335C68.1855 9.06122 68.2155 9.58894 68.2755 10.1167C68.3474 10.6444 68.4554 11.1181 68.5993 11.5379C68.7552 11.9577 68.9531 12.2995 69.193 12.5634C69.4329 12.8272 69.7207 12.9592 70.0565 12.9592C70.3084 12.9592 70.5303 12.8872 70.7222 12.7433C70.9141 12.5994 71.082 12.4194 71.2259 12.2036C71.3698 11.9877 71.4898 11.7538 71.5857 11.5019C71.6937 11.2381 71.7716 10.9982 71.8196 10.7823C71.8796 10.5544 71.9155 10.3565 71.9275 10.1886C71.9515 10.0207 71.9575 9.92476 71.9455 9.90078H72.1254C72.1374 9.93676 72.1314 10.0507 72.1074 10.2426C72.0955 10.4345 72.0595 10.6624 71.9995 10.9262C71.9395 11.1901 71.8496 11.4719 71.7296 11.7718C71.6217 12.0716 71.4778 12.3535 71.2979 12.6173C71.118 12.8692 70.8901 13.0791 70.6142 13.247C70.3504 13.4149 70.0325 13.4989 69.6607 13.4989C69.181 13.4989 68.7732 13.361 68.4374 13.0851C68.1136 12.7972 67.8497 12.4314 67.6458 11.9877C67.4419 11.5319 67.292 11.0282 67.196 10.4765C67.1001 9.92476 67.0521 9.37305 67.0521 8.82135C67.0521 8.35359 67.1001 7.84986 67.196 7.31014C67.292 6.75843 67.4479 6.2547 67.6638 5.79894C67.8917 5.34318 68.1855 4.96538 68.5453 4.66554C68.9051 4.3537 69.3429 4.19779 69.8586 4.19779ZM70.5783 7.02229C70.7342 7.02229 70.8481 6.95633 70.9201 6.8244C71.004 6.69247 71.052 6.53055 71.064 6.33866C71.088 6.14676 71.076 5.93687 71.028 5.70899C70.992 5.48111 70.9201 5.27122 70.8121 5.07932C70.7162 4.88742 70.5842 4.72551 70.4163 4.59358C70.2604 4.46165 70.0805 4.39568 69.8766 4.39568C69.6128 4.39568 69.3909 4.49163 69.211 4.68353C69.0311 4.87543 68.8752 5.1093 68.7432 5.38516C68.6233 5.66101 68.5273 5.94886 68.4554 6.2487C68.3834 6.54854 68.3294 6.80641 68.2935 7.02229H70.5783Z" stroke="var(--stroke-0, #FFF3DE)" stroke-width="0.479747" mask="url(#path-1-outside-1_9_137)"/>
<path d="M77.6518 0.779589C77.8197 0.779589 78.0056 0.779589 78.2095 0.779589C78.4254 0.767596 78.6232 0.755602 78.8032 0.743608V0.833561C78.6592 0.857548 78.5573 0.935507 78.4973 1.06744C78.4493 1.18737 78.4254 1.3313 78.4254 1.49921C78.4254 1.67911 78.4433 1.85302 78.4793 2.02093C78.5153 2.18885 78.5633 2.37475 78.6232 2.57864L81.034 11.6818L83.4987 2.45271C83.5946 2.10489 83.5886 1.77506 83.4807 1.46323C83.3847 1.15139 83.1928 0.941503 82.905 0.833561V0.743608C83.0249 0.755602 83.1389 0.767596 83.2468 0.779589C83.3547 0.779589 83.5227 0.779589 83.7505 0.779589C83.9784 0.779589 84.1643 0.779589 84.3082 0.779589C84.4522 0.767596 84.6021 0.755602 84.758 0.743608V0.833561C84.6141 0.881535 84.4822 0.971488 84.3622 1.10342C84.2543 1.22335 84.1523 1.36728 84.0564 1.53519C83.9724 1.69111 83.8945 1.85902 83.8225 2.03892C83.7625 2.20684 83.7146 2.36275 83.6786 2.50668L80.7821 13.319H80.2964L77.3459 2.21883C77.3099 2.09889 77.268 1.96696 77.22 1.82304C77.172 1.66712 77.112 1.5232 77.0401 1.39127C76.9681 1.24734 76.8842 1.12141 76.7882 1.01347C76.7043 0.905523 76.6023 0.845555 76.4824 0.833561V0.743608C76.6623 0.755602 76.8542 0.767596 77.0581 0.779589C77.274 0.779589 77.4719 0.779589 77.6518 0.779589Z" stroke="var(--stroke-0, #FFF3DE)" stroke-width="0.479747" mask="url(#path-1-outside-1_9_137)"/>
<path d="M88.1127 4.19779C88.4845 4.19779 88.8203 4.27574 89.1201 4.43166C89.432 4.57559 89.6898 4.76149 89.8937 4.98937C90.1096 5.20525 90.2655 5.44513 90.3615 5.70899C90.4574 5.96086 90.4754 6.20073 90.4155 6.42861C90.3675 6.64449 90.2296 6.8304 90.0017 6.98631C89.7858 7.13024 89.468 7.2022 89.0482 7.2022H86.5115C86.4875 7.43008 86.4695 7.65796 86.4575 7.88584C86.4456 8.11372 86.4396 8.32961 86.4396 8.5335C86.4396 9.06122 86.4695 9.58894 86.5295 10.1167C86.6015 10.6444 86.7094 11.1181 86.8533 11.5379C87.0093 11.9577 87.2072 12.2995 87.447 12.5634C87.6869 12.8272 87.9747 12.9592 88.3106 12.9592C88.5624 12.9592 88.7843 12.8872 88.9762 12.7433C89.1681 12.5994 89.336 12.4194 89.48 12.2036C89.6239 11.9877 89.7438 11.7538 89.8398 11.5019C89.9477 11.2381 90.0257 10.9982 90.0736 10.7823C90.1336 10.5544 90.1696 10.3565 90.1816 10.1886C90.2056 10.0207 90.2116 9.92476 90.1996 9.90078H90.3795C90.3915 9.93676 90.3855 10.0507 90.3615 10.2426C90.3495 10.4345 90.3135 10.6624 90.2535 10.9262C90.1936 11.1901 90.1036 11.4719 89.9837 11.7718C89.8757 12.0716 89.7318 12.3535 89.5519 12.6173C89.372 12.8692 89.1441 13.0791 88.8683 13.247C88.6044 13.4149 88.2866 13.4989 87.9148 13.4989C87.435 13.4989 87.0272 13.361 86.6914 13.0851C86.3676 12.7972 86.1037 12.4314 85.8998 11.9877C85.696 11.5319 85.546 11.0282 85.4501 10.4765C85.3541 9.92476 85.3062 9.37305 85.3062 8.82135C85.3062 8.35359 85.3541 7.84986 85.4501 7.31014C85.546 6.75843 85.7019 6.2547 85.9178 5.79894C86.1457 5.34318 86.4396 4.96538 86.7994 4.66554C87.1592 4.3537 87.597 4.19779 88.1127 4.19779ZM88.8323 7.02229C88.9882 7.02229 89.1022 6.95633 89.1741 6.8244C89.2581 6.69247 89.306 6.53055 89.318 6.33866C89.342 6.14676 89.33 5.93687 89.2821 5.70899C89.2461 5.48111 89.1741 5.27122 89.0662 5.07932C88.9702 4.88742 88.8383 4.72551 88.6704 4.59358C88.5145 4.46165 88.3346 4.39568 88.1307 4.39568C87.8668 4.39568 87.6449 4.49163 87.465 4.68353C87.2851 4.87543 87.1292 5.1093 86.9973 5.38516C86.8773 5.66101 86.7814 5.94886 86.7094 6.2487C86.6375 6.54854 86.5835 6.80641 86.5475 7.02229H88.8323Z" stroke="var(--stroke-0, #FFF3DE)" stroke-width="0.479747" mask="url(#path-1-outside-1_9_137)"/>
<path d="M91.7319 11.8617V6.01483C91.7319 5.63103 91.6839 5.37317 91.5879 5.24123C91.504 5.09731 91.414 5.01335 91.3181 4.98937V4.89941C91.414 4.89941 91.534 4.88742 91.6779 4.86343C91.8218 4.83945 91.9597 4.80946 92.0917 4.77348C92.2356 4.72551 92.3675 4.67154 92.4875 4.61157C92.6194 4.5516 92.7153 4.47964 92.7753 4.39568H92.8653V6.0688C93.0212 5.45712 93.273 4.99536 93.6209 4.68353C93.9687 4.37169 94.3705 4.21578 94.8262 4.21578C95.5099 4.21578 96.0496 4.5576 96.4454 5.24123C96.8412 5.91288 97.0391 6.8304 97.0391 7.99378V11.8977C97.0391 12.1496 97.0631 12.3955 97.111 12.6353C97.159 12.8632 97.2909 13.0611 97.5068 13.229V13.319C97.3269 13.295 97.153 13.277 96.9851 13.265C96.8172 13.241 96.6493 13.229 96.4814 13.229C96.3015 13.229 96.1215 13.241 95.9416 13.265C95.7737 13.277 95.6058 13.295 95.4379 13.319V13.229C95.6538 13.0611 95.7857 12.8572 95.8337 12.6173C95.8817 12.3775 95.9057 12.1256 95.9057 11.8617V8.04775C95.9057 6.92035 95.7857 6.04481 95.5459 5.42114C95.306 4.79747 94.9582 4.48563 94.5024 4.48563C94.2985 4.48563 94.0946 4.5516 93.8907 4.68353C93.6988 4.81546 93.5249 5.00736 93.369 5.25923C93.2251 5.51109 93.1051 5.82293 93.0092 6.19473C92.9132 6.56654 92.8653 6.98631 92.8653 7.45407V11.8617C92.8653 12.1136 92.8892 12.3655 92.9372 12.6173C92.9852 12.8572 93.1171 13.0611 93.333 13.229V13.319C93.1531 13.295 92.9792 13.277 92.8113 13.265C92.6434 13.241 92.4755 13.229 92.3076 13.229C92.1276 13.229 91.9477 13.241 91.7678 13.265C91.5999 13.277 91.432 13.295 91.2641 13.319V13.229C91.48 13.0611 91.6119 12.8572 91.6599 12.6173C91.7079 12.3775 91.7319 12.1256 91.7319 11.8617Z" stroke="var(--stroke-0, #FFF3DE)" stroke-width="0.479747" mask="url(#path-1-outside-1_9_137)"/>
<path d="M99.2824 4.48563C99.4503 4.48563 99.6182 4.47964 99.7861 4.46764C99.966 4.44366 100.14 4.41967 100.308 4.39568V4.48563C100.092 4.65354 99.96 4.85744 99.9121 5.09731C99.8641 5.33718 99.8401 5.58905 99.8401 5.85291V9.6669C99.8401 10.7943 99.96 11.6698 100.2 12.2935C100.44 12.9172 100.788 13.229 101.243 13.229C101.447 13.229 101.645 13.1631 101.837 13.0311C102.041 12.8992 102.215 12.7073 102.359 12.4554C102.515 12.2036 102.641 11.8917 102.737 11.5199C102.833 11.1481 102.88 10.7283 102.88 10.2606V5.85291C102.88 5.60104 102.857 5.35517 102.809 5.1153C102.761 4.86343 102.629 4.65354 102.413 4.48563V4.39568C102.593 4.41967 102.767 4.44366 102.934 4.46764C103.102 4.47964 103.276 4.48563 103.456 4.48563C103.624 4.48563 103.792 4.47964 103.96 4.46764C104.14 4.44366 104.314 4.41967 104.482 4.39568V4.48563C104.266 4.65354 104.134 4.85744 104.086 5.09731C104.038 5.33718 104.014 5.58905 104.014 5.85291V11.6998C104.014 12.0836 104.056 12.3475 104.14 12.4914C104.236 12.6233 104.332 12.7013 104.428 12.7253V12.8152C104.332 12.8152 104.212 12.8272 104.068 12.8512C103.924 12.8752 103.78 12.9112 103.636 12.9592C103.504 12.9951 103.372 13.0431 103.24 13.1031C103.12 13.1631 103.03 13.235 102.97 13.319H102.88V11.6459C102.725 12.2575 102.473 12.7193 102.125 13.0311C101.777 13.343 101.375 13.4989 100.92 13.4989C100.236 13.4989 99.6962 13.1631 99.3004 12.4914C98.9046 11.8078 98.7067 10.8843 98.7067 9.72087V5.81693C98.7067 5.56506 98.6827 5.32519 98.6347 5.09731C98.5868 4.85744 98.4548 4.65354 98.2389 4.48563V4.39568C98.4188 4.41967 98.5928 4.44366 98.7607 4.46764C98.9286 4.47964 99.1025 4.48563 99.2824 4.48563Z" stroke="var(--stroke-0, #FFF3DE)" stroke-width="0.479747" mask="url(#path-1-outside-1_9_137)"/>
<path d="M107.512 4.21578C107.992 4.21578 108.43 4.34771 108.826 4.61157C109.221 4.86343 109.521 5.19926 109.725 5.61904L108.88 6.26669C108.88 6.02682 108.844 5.79294 108.772 5.56506C108.7 5.33718 108.598 5.13929 108.466 4.97138C108.346 4.79147 108.196 4.65354 108.016 4.5576C107.848 4.44965 107.668 4.39568 107.476 4.39568C107.129 4.39568 106.841 4.5456 106.613 4.84544C106.397 5.14529 106.289 5.4871 106.289 5.8709C106.289 6.20672 106.373 6.50057 106.541 6.75244C106.709 7.0043 106.919 7.24418 107.171 7.47206C107.422 7.69994 107.698 7.92182 107.998 8.13771C108.298 8.35359 108.574 8.59946 108.826 8.87532C109.078 9.13918 109.287 9.43902 109.455 9.77484C109.623 10.0987 109.707 10.4885 109.707 10.9442C109.707 11.316 109.647 11.6578 109.527 11.9697C109.407 12.2695 109.239 12.5334 109.024 12.7613C108.808 12.9772 108.556 13.1451 108.268 13.265C107.992 13.3849 107.692 13.4449 107.368 13.4449C106.997 13.4449 106.655 13.3669 106.343 13.211C106.031 13.0551 105.725 12.8332 105.425 12.5454V10.0267H105.605C105.629 10.4945 105.701 10.9262 105.821 11.322C105.941 11.7178 106.085 12.0596 106.253 12.3475C106.433 12.6353 106.625 12.8632 106.829 13.0311C107.045 13.187 107.248 13.265 107.44 13.265C107.596 13.265 107.752 13.217 107.908 13.1211C108.064 13.0131 108.202 12.8752 108.322 12.7073C108.442 12.5394 108.538 12.3415 108.61 12.1136C108.682 11.8737 108.718 11.6279 108.718 11.376C108.718 10.9802 108.634 10.6384 108.466 10.3505C108.298 10.0507 108.088 9.78084 107.836 9.54097C107.584 9.2891 107.308 9.06122 107.009 8.85733C106.709 8.64144 106.433 8.41956 106.181 8.19168C105.929 7.9518 105.719 7.69394 105.551 7.41809C105.383 7.13024 105.3 6.80041 105.3 6.42861C105.3 6.15275 105.347 5.8829 105.443 5.61904C105.551 5.35517 105.701 5.1213 105.893 4.91741C106.085 4.70152 106.319 4.53361 106.595 4.41367C106.871 4.28174 107.177 4.21578 107.512 4.21578Z" stroke="var(--stroke-0, #FFF3DE)" stroke-width="0.479747" mask="url(#path-1-outside-1_9_137)"/>
</g>
</svg>
