<svg preserveAspectRatio="none" width="100%" height="100%" overflow="visible" style="display: block;" viewBox="0 0 75.6527 13.7567" fill="none" xmlns="http://www.w3.org/2000/svg">
<g id="Le R&#195;&#170;ve Astral">
<mask id="path-1-outside-1_9_145" maskUnits="userSpaceOnUse" x="-0.760127" y="-0.760127" width="77" height="15" fill="black">
<rect fill="white" x="-0.760127" y="-0.760127" width="77" height="15"/>
<path d="M1.28332 0.833561C1.45123 0.833561 1.61915 0.827564 1.78706 0.81557C1.95497 0.791583 2.12888 0.767595 2.30878 0.743608V0.833561C2.0929 1.00147 1.96097 1.20536 1.91299 1.44524C1.86502 1.67312 1.84103 1.91299 1.84103 2.16486V13.1391H3.24429C3.70005 13.1391 4.06585 13.0131 4.34171 12.7613C4.61756 12.4974 4.83345 12.1856 4.98937 11.8258C5.14528 11.4659 5.25922 11.0941 5.33119 10.7103C5.40315 10.3146 5.45712 9.98473 5.4931 9.72087H5.63703L5.40315 13.319H0.275854V13.247C0.383797 13.1631 0.479747 13.0431 0.563703 12.8872C0.659652 12.7193 0.707627 12.4794 0.707627 12.1676V2.20084C0.707627 1.93698 0.683639 1.68511 0.635665 1.44524C0.58769 1.20536 0.455759 1.00147 0.239873 0.833561V0.743608C0.407785 0.767595 0.575696 0.791583 0.743608 0.81557C0.923513 0.827564 1.10342 0.833561 1.28332 0.833561Z"/>
<path d="M8.98256 4.19779C9.35436 4.19779 9.69018 4.27574 9.99003 4.43166C10.3019 4.57559 10.5597 4.76149 10.7636 4.98937C10.9795 5.20525 11.1354 5.44513 11.2314 5.70899C11.3273 5.96086 11.3453 6.20073 11.2853 6.42861C11.2374 6.64449 11.0994 6.8304 10.8716 6.98631C10.6557 7.13024 10.3378 7.2022 9.91806 7.2022H7.3814C7.35741 7.43008 7.33942 7.65796 7.32743 7.88584C7.31544 8.11372 7.30944 8.32961 7.30944 8.5335C7.30944 9.06122 7.33942 9.58894 7.39939 10.1167C7.47135 10.6444 7.5793 11.1181 7.72322 11.5379C7.87914 11.9577 8.07703 12.2995 8.31691 12.5634C8.55678 12.8272 8.84463 12.9592 9.18045 12.9592C9.43232 12.9592 9.6542 12.8872 9.8461 12.7433C10.038 12.5994 10.2059 12.4194 10.3498 12.2036C10.4938 11.9877 10.6137 11.7538 10.7096 11.5019C10.8176 11.2381 10.8955 10.9982 10.9435 10.7823C11.0035 10.5544 11.0395 10.3565 11.0515 10.1886C11.0755 10.0207 11.0814 9.92476 11.0695 9.90078H11.2494C11.2614 9.93676 11.2554 10.0507 11.2314 10.2426C11.2194 10.4345 11.1834 10.6624 11.1234 10.9262C11.0635 11.1901 10.9735 11.4719 10.8536 11.7718C10.7456 12.0716 10.6017 12.3535 10.4218 12.6173C10.2419 12.8692 10.014 13.0791 9.73816 13.247C9.4743 13.4149 9.15646 13.4989 8.78466 13.4989C8.30491 13.4989 7.89713 13.361 7.56131 13.0851C7.23748 12.7972 6.97362 12.4314 6.76972 11.9877C6.56583 11.5319 6.41591 11.0282 6.31996 10.4765C6.22401 9.92476 6.17604 9.37305 6.17604 8.82135C6.17604 8.35359 6.22401 7.84986 6.31996 7.31014C6.41591 6.75843 6.57183 6.2547 6.78771 5.79894C7.01559 5.34318 7.30944 4.96538 7.66925 4.66554C8.02906 4.3537 8.46683 4.19779 8.98256 4.19779ZM9.70218 7.02229C9.85809 7.02229 9.97203 6.95633 10.044 6.8244C10.128 6.69247 10.1759 6.53055 10.1879 6.33866C10.2119 6.14676 10.1999 5.93687 10.1519 5.70899C10.116 5.48111 10.044 5.27122 9.93605 5.07932C9.8401 4.88742 9.70817 4.72551 9.54026 4.59358C9.38434 4.46165 9.20444 4.39568 9.00055 4.39568C8.73669 4.39568 8.5148 4.49163 8.3349 4.68353C8.15499 4.87543 7.99908 5.1093 7.86715 5.38516C7.74721 5.66101 7.65126 5.94886 7.5793 6.2487C7.50734 6.54854 7.45336 6.80641 7.41738 7.02229H9.70218Z"/>
<path d="M16.3439 11.8617V1.37328C16.3439 1.09742 16.194 0.917516 15.8941 0.833561V0.743608H18.7906C19.2104 0.743608 19.6002 0.821566 19.96 0.977484C20.3198 1.1334 20.6316 1.34929 20.8955 1.62514C21.1594 1.889 21.3633 2.20684 21.5072 2.57864C21.6631 2.93845 21.7411 3.33424 21.7411 3.76601C21.7411 4.19779 21.6571 4.59358 21.4892 4.95339C21.3333 5.3132 21.1054 5.62503 20.8056 5.88889C20.5177 6.14076 20.1699 6.33866 19.7621 6.48258C19.3543 6.6265 18.9046 6.69847 18.4128 6.69847H18.3409C18.6287 6.79441 18.8926 6.84839 19.1324 6.86038C19.3723 6.86038 19.5822 6.87237 19.7621 6.89636L21.4172 11.9697C21.5372 12.3175 21.6451 12.5994 21.7411 12.8152C21.837 13.0191 21.9749 13.1571 22.1548 13.229V13.319C21.9869 13.295 21.837 13.277 21.7051 13.265C21.5851 13.253 21.4652 13.247 21.3453 13.247C21.2253 13.247 21.0994 13.253 20.9675 13.265C20.8475 13.277 20.7036 13.295 20.5357 13.319L18.7726 7.38211C18.7486 7.28616 18.6947 7.1962 18.6107 7.11225C18.5268 7.02829 18.4308 6.95633 18.3229 6.89636C18.2269 6.83639 18.125 6.78842 18.017 6.75244C17.9211 6.71646 17.8431 6.69847 17.7831 6.69847H17.4773V11.8977C17.4773 12.1496 17.5013 12.3955 17.5493 12.6353C17.5972 12.8632 17.7292 13.0611 17.9451 13.229V13.319C17.7652 13.295 17.5853 13.277 17.4053 13.265C17.2374 13.241 17.0695 13.229 16.9016 13.229C16.7217 13.229 16.5478 13.241 16.3799 13.265C16.212 13.277 16.0441 13.295 15.8762 13.319V13.229C16.092 13.0611 16.224 12.8572 16.2719 12.6173C16.3199 12.3775 16.3439 12.1256 16.3439 11.8617ZM17.4773 6.51856H18.4128C19.0845 6.51856 19.6062 6.26669 19.978 5.76296C20.3498 5.24723 20.5357 4.53361 20.5357 3.62209C20.5357 2.77054 20.3798 2.11089 20.0679 1.64313C19.7561 1.16339 19.3303 0.923513 18.7906 0.923513H17.4773V6.51856Z"/>
<path d="M25.4973 4.19779C25.8691 4.19779 26.2049 4.27574 26.5047 4.43166C26.8166 4.57559 27.0744 4.76149 27.2783 4.98937C27.4942 5.20525 27.6501 5.44513 27.7461 5.70899C27.842 5.96086 27.86 6.20073 27.8001 6.42861C27.7521 6.64449 27.6142 6.8304 27.3863 6.98631C27.1704 7.13024 26.8526 7.2022 26.4328 7.2022H23.8961C23.8721 7.43008 23.8541 7.65796 23.8422 7.88584C23.8302 8.11372 23.8242 8.32961 23.8242 8.5335C23.8242 9.06122 23.8541 9.58894 23.9141 10.1167C23.9861 10.6444 24.094 11.1181 24.2379 11.5379C24.3939 11.9577 24.5918 12.2995 24.8316 12.5634C25.0715 12.8272 25.3594 12.9592 25.6952 12.9592C25.947 12.9592 26.1689 12.8872 26.3608 12.7433C26.5527 12.5994 26.7206 12.4194 26.8646 12.2036C27.0085 11.9877 27.1284 11.7538 27.2244 11.5019C27.3323 11.2381 27.4103 10.9982 27.4582 10.7823C27.5182 10.5544 27.5542 10.3565 27.5662 10.1886C27.5902 10.0207 27.5962 9.92476 27.5842 9.90078H27.7641C27.7761 9.93676 27.7701 10.0507 27.7461 10.2426C27.7341 10.4345 27.6981 10.6624 27.6381 10.9262C27.5782 11.1901 27.4882 11.4719 27.3683 11.7718C27.2603 12.0716 27.1164 12.3535 26.9365 12.6173C26.7566 12.8692 26.5287 13.0791 26.2529 13.247C25.989 13.4149 25.6712 13.4989 25.2994 13.4989C24.8196 13.4989 24.4119 13.361 24.076 13.0851C23.7522 12.7972 23.4883 12.4314 23.2844 11.9877C23.0806 11.5319 22.9306 11.0282 22.8347 10.4765C22.7387 9.92476 22.6908 9.37305 22.6908 8.82135C22.6908 8.35359 22.7387 7.84986 22.8347 7.31014C22.9306 6.75843 23.0866 6.2547 23.3024 5.79894C23.5303 5.34318 23.8242 4.96538 24.184 4.66554C24.5438 4.3537 24.9815 4.19779 25.4973 4.19779ZM23.9321 7.02229H26.2169C26.3728 7.02229 26.4868 6.95633 26.5587 6.8244C26.6427 6.69247 26.6906 6.53055 26.7026 6.33866C26.7266 6.14676 26.7146 5.93687 26.6667 5.70899C26.6307 5.48111 26.5587 5.27122 26.4508 5.07932C26.3548 4.88742 26.2229 4.72551 26.055 4.59358C25.8991 4.46165 25.7192 4.39568 25.5153 4.39568C25.2514 4.39568 25.0295 4.49163 24.8496 4.68353C24.6697 4.87543 24.5138 5.1093 24.3819 5.38516C24.2619 5.66101 24.166 5.94886 24.094 6.2487C24.0221 6.54854 23.9681 6.80641 23.9321 7.02229ZM25.1195 1.66112H26.1989L27.6921 3.56812H26.9725L25.6592 2.12888L24.3819 3.56812H23.6622L25.1195 1.66112Z"/>
<path d="M28.7302 4.48563V4.39568H30.997V4.48563C30.8651 4.56959 30.7811 4.68353 30.7452 4.82745C30.7212 4.97138 30.7092 5.1213 30.7092 5.27722C30.7092 5.64902 30.7632 6.05081 30.8711 6.48258L32.3103 12.4554L33.6057 6.50057C33.7376 5.92487 33.7676 5.46312 33.6956 5.1153C33.6356 4.75549 33.4737 4.5456 33.2099 4.48563V4.39568H35.0269V4.48563C34.859 4.5456 34.7091 4.64755 34.5771 4.79147C34.4572 4.9354 34.3433 5.10331 34.2353 5.29521C34.1394 5.47511 34.0554 5.67301 33.9835 5.88889C33.9235 6.09279 33.8695 6.29668 33.8215 6.50057L32.3283 13.319H31.3568L29.6118 6.08679C29.5158 5.72698 29.3959 5.39715 29.252 5.09731C29.108 4.78548 28.9341 4.58158 28.7302 4.48563Z"/>
<path d="M38.0239 4.19779C38.3957 4.19779 38.7315 4.27574 39.0313 4.43166C39.3432 4.57559 39.601 4.76149 39.8049 4.98937C40.0208 5.20525 40.1767 5.44513 40.2727 5.70899C40.3686 5.96086 40.3866 6.20073 40.3267 6.42861C40.2787 6.64449 40.1408 6.8304 39.9129 6.98631C39.697 7.13024 39.3792 7.2022 38.9594 7.2022H36.4227C36.3987 7.43008 36.3807 7.65796 36.3687 7.88584C36.3568 8.11372 36.3508 8.32961 36.3508 8.5335C36.3508 9.06122 36.3807 9.58894 36.4407 10.1167C36.5127 10.6444 36.6206 11.1181 36.7645 11.5379C36.9205 11.9577 37.1183 12.2995 37.3582 12.5634C37.5981 12.8272 37.8859 12.9592 38.2218 12.9592C38.4736 12.9592 38.6955 12.8872 38.8874 12.7433C39.0793 12.5994 39.2472 12.4194 39.3911 12.2036C39.5351 11.9877 39.655 11.7538 39.751 11.5019C39.8589 11.2381 39.9369 10.9982 39.9848 10.7823C40.0448 10.5544 40.0808 10.3565 40.0928 10.1886C40.1168 10.0207 40.1228 9.92476 40.1108 9.90078H40.2907C40.3027 9.93676 40.2967 10.0507 40.2727 10.2426C40.2607 10.4345 40.2247 10.6624 40.1647 10.9262C40.1048 11.1901 40.0148 11.4719 39.8949 11.7718C39.7869 12.0716 39.643 12.3535 39.4631 12.6173C39.2832 12.8692 39.0553 13.0791 38.7795 13.247C38.5156 13.4149 38.1978 13.4989 37.826 13.4989C37.3462 13.4989 36.9384 13.361 36.6026 13.0851C36.2788 12.7972 36.0149 12.4314 35.811 11.9877C35.6071 11.5319 35.4572 11.0282 35.3613 10.4765C35.2653 9.92476 35.2174 9.37305 35.2174 8.82135C35.2174 8.35359 35.2653 7.84986 35.3613 7.31014C35.4572 6.75843 35.6131 6.2547 35.829 5.79894C36.0569 5.34318 36.3508 4.96538 36.7106 4.66554C37.0704 4.3537 37.5081 4.19779 38.0239 4.19779ZM38.7435 7.02229C38.8994 7.02229 39.0134 6.95633 39.0853 6.8244C39.1693 6.69247 39.2172 6.53055 39.2292 6.33866C39.2532 6.14676 39.2412 5.93687 39.1933 5.70899C39.1573 5.48111 39.0853 5.27122 38.9774 5.07932C38.8814 4.88742 38.7495 4.72551 38.5816 4.59358C38.4257 4.46165 38.2458 4.39568 38.0419 4.39568C37.778 4.39568 37.5561 4.49163 37.3762 4.68353C37.1963 4.87543 37.0404 5.1093 36.9085 5.38516C36.7885 5.66101 36.6926 5.94886 36.6206 6.2487C36.5486 6.54854 36.4947 6.80641 36.4587 7.02229H38.7435Z"/>
<path d="M44.6476 13.319V13.229C44.7915 13.181 44.9175 13.0971 45.0254 12.9772C45.1453 12.8452 45.2473 12.7013 45.3313 12.5454C45.4272 12.3775 45.5052 12.2096 45.5651 12.0416C45.6371 11.8617 45.6911 11.6998 45.727 11.5559L48.6235 0.743608H49.1093L52.0597 11.8438C52.0957 11.9637 52.1377 12.1016 52.1856 12.2575C52.2336 12.4015 52.2936 12.5454 52.3655 12.6893C52.4375 12.8212 52.5155 12.9412 52.5994 13.0491C52.6954 13.1451 52.8033 13.205 52.9232 13.229V13.319C52.7433 13.307 52.5454 13.301 52.3296 13.301C52.1257 13.289 51.9338 13.283 51.7539 13.283C51.5859 13.283 51.3941 13.289 51.1782 13.301C50.9743 13.301 50.7824 13.307 50.6025 13.319V13.229C50.7464 13.205 50.8423 13.1331 50.8903 13.0131C50.9503 12.8812 50.9803 12.7253 50.9803 12.5454C50.9803 12.3775 50.9623 12.2096 50.9263 12.0416C50.8903 11.8737 50.8423 11.6878 50.7824 11.4839L50.1887 9.25312H46.5366L45.9789 11.322C45.835 11.8737 45.823 12.3055 45.9429 12.6173C46.0629 12.9292 46.2488 13.1331 46.5006 13.229V13.319C46.3807 13.307 46.2668 13.301 46.1588 13.301C46.0509 13.289 45.883 13.283 45.6551 13.283C45.4272 13.283 45.2413 13.289 45.0974 13.301C44.9535 13.301 44.8035 13.307 44.6476 13.319ZM50.1527 9.07321L48.3716 2.38074L46.5726 9.07321H50.1527Z"/>
<path d="M55.6842 4.21578C56.164 4.21578 56.6017 4.34771 56.9975 4.61157C57.3933 4.86343 57.6932 5.19926 57.8971 5.61904L57.0515 6.26669C57.0515 6.02682 57.0155 5.79294 56.9436 5.56506C56.8716 5.33718 56.7696 5.13929 56.6377 4.97138C56.5178 4.79147 56.3679 4.65354 56.188 4.5576C56.02 4.44965 55.8401 4.39568 55.6482 4.39568C55.3004 4.39568 55.0126 4.5456 54.7847 4.84544C54.5688 5.14529 54.4609 5.4871 54.4609 5.8709C54.4609 6.20672 54.5448 6.50057 54.7127 6.75244C54.8806 7.0043 55.0905 7.24418 55.3424 7.47206C55.5943 7.69994 55.8701 7.92182 56.17 8.13771C56.4698 8.35359 56.7457 8.59946 56.9975 8.87532C57.2494 9.13918 57.4593 9.43902 57.6272 9.77484C57.7951 10.0987 57.8791 10.4885 57.8791 10.9442C57.8791 11.316 57.8191 11.6578 57.6992 11.9697C57.5792 12.2695 57.4113 12.5334 57.1954 12.7613C56.9795 12.9772 56.7277 13.1451 56.4398 13.265C56.164 13.3849 55.8641 13.4449 55.5403 13.4449C55.1685 13.4449 54.8267 13.3669 54.5148 13.211C54.203 13.0551 53.8972 12.8332 53.5973 12.5454V10.0267H53.7772C53.8012 10.4945 53.8732 10.9262 53.9931 11.322C54.1131 11.7178 54.257 12.0596 54.4249 12.3475C54.6048 12.6353 54.7967 12.8632 55.0006 13.0311C55.2165 13.187 55.4204 13.265 55.6123 13.265C55.7682 13.265 55.9241 13.217 56.08 13.1211C56.2359 13.0131 56.3739 12.8752 56.4938 12.7073C56.6137 12.5394 56.7097 12.3415 56.7816 12.1136C56.8536 11.8737 56.8896 11.6279 56.8896 11.376C56.8896 10.9802 56.8056 10.6384 56.6377 10.3505C56.4698 10.0507 56.2599 9.78084 56.0081 9.54097C55.7562 9.2891 55.4803 9.06122 55.1805 8.85733C54.8806 8.64144 54.6048 8.41956 54.3529 8.19168C54.1011 7.9518 53.8912 7.69394 53.7233 7.41809C53.5553 7.13024 53.4714 6.80041 53.4714 6.42861C53.4714 6.15275 53.5194 5.8829 53.6153 5.61904C53.7233 5.35517 53.8732 5.1213 54.0651 4.91741C54.257 4.70152 54.4909 4.53361 54.7667 4.41367C55.0426 4.28174 55.3484 4.21578 55.6842 4.21578Z"/>
<path d="M58.709 4.39568V4.21578C58.9129 4.20378 59.0988 4.11383 59.2667 3.94592C59.4466 3.76601 59.6025 3.55612 59.7345 3.31625C59.8784 3.07638 59.9923 2.83051 60.0763 2.57864C60.1722 2.32677 60.2442 2.12288 60.2922 1.96696L60.4361 2.05691V4.21578H61.2097V4.39568H60.4361V11.6459C60.4361 12.1016 60.4721 12.4194 60.544 12.5994C60.628 12.7793 60.7359 12.8692 60.8679 12.8692C61.0238 12.8692 61.1557 12.7853 61.2637 12.6173C61.3716 12.4494 61.4316 12.2695 61.4436 12.0776L61.5335 12.0956C61.5335 12.4794 61.4256 12.8032 61.2097 13.0671C61.0058 13.331 60.7359 13.4629 60.4001 13.4629C60.0523 13.4629 59.7825 13.325 59.5906 13.0491C59.4106 12.7613 59.3207 12.3775 59.3207 11.8977V4.39568H58.709Z"/>
<path d="M62.1701 13.319V13.229C62.266 13.205 62.356 13.1271 62.4399 12.9951C62.5359 12.8512 62.5839 12.5874 62.5839 12.2036V6.01483C62.5839 5.63103 62.5359 5.37317 62.4399 5.24123C62.356 5.09731 62.266 5.01335 62.1701 4.98937V4.89941C62.374 4.89941 62.6318 4.85744 62.9437 4.77348C63.2555 4.68953 63.4774 4.56359 63.6093 4.39568H63.6993V6.08679C63.8072 5.64302 63.9871 5.25323 64.239 4.91741C64.5028 4.56959 64.8447 4.39568 65.2645 4.39568C65.6123 4.39568 65.9181 4.52761 66.182 4.79147C66.4578 5.04334 66.5957 5.36717 66.5957 5.76296L65.4444 5.83492C65.3964 5.55907 65.3064 5.36717 65.1745 5.25923C65.0426 5.13929 64.9046 5.07932 64.7607 5.07932C64.5688 5.07932 64.4009 5.17527 64.257 5.36717C64.1251 5.54707 64.0171 5.76296 63.9332 6.01483C63.8492 6.2547 63.7892 6.50057 63.7532 6.75244C63.7173 7.0043 63.6993 7.1962 63.6993 7.32813V12.2036C63.6993 12.5874 63.7413 12.8512 63.8252 12.9951C63.9212 13.1271 64.0171 13.205 64.1131 13.229V13.319H62.1701Z"/>
<path d="M70.8724 8.78536V6.91435C70.8724 5.23524 70.5126 4.39568 69.793 4.39568C69.6131 4.39568 69.4452 4.44965 69.2893 4.5576C69.1333 4.65354 68.9894 4.79147 68.8575 4.97138C68.7376 5.13929 68.6416 5.33718 68.5696 5.56506C68.4977 5.79294 68.4617 6.02682 68.4617 6.26669L67.6161 5.61904C67.82 5.19926 68.1199 4.86343 68.5157 4.61157C68.9115 4.34771 69.3612 4.21578 69.865 4.21578C70.5246 4.21578 71.0403 4.45565 71.4121 4.9354C71.7959 5.40315 71.9878 6.08679 71.9878 6.98631V10.6204C71.9878 10.8363 71.9878 11.0642 71.9878 11.304C71.9878 11.5319 71.9938 11.7478 72.0058 11.9517C72.0298 12.1436 72.0598 12.3055 72.0958 12.4374C72.1438 12.5694 72.2097 12.6353 72.2937 12.6353C72.3776 12.6353 72.4436 12.5754 72.4916 12.4554C72.5515 12.3355 72.5815 12.2515 72.5815 12.2036L72.7075 12.3295C72.6835 12.4374 72.6475 12.5574 72.5995 12.6893C72.5515 12.8092 72.4856 12.9232 72.4016 13.0311C72.3177 13.1391 72.2157 13.229 72.0958 13.301C71.9878 13.3729 71.8619 13.4089 71.718 13.4089C71.4421 13.4089 71.2322 13.277 71.0883 13.0131C70.9444 12.7493 70.8724 12.4075 70.8724 11.9877V11.7358C70.6805 12.2156 70.3807 12.6353 69.9729 12.9951C69.5651 13.343 69.1094 13.5169 68.6056 13.5169C68.3657 13.5169 68.1319 13.4689 67.904 13.3729C67.6881 13.277 67.4962 13.1451 67.3283 12.9772C67.1604 12.8092 67.0285 12.6113 66.9325 12.3835C66.8366 12.1556 66.7886 11.9037 66.7886 11.6279C66.7886 11.2081 66.9025 10.8243 67.1304 10.4765C67.3703 10.1287 67.6761 9.82881 68.0479 9.57695C68.4317 9.32508 68.8695 9.13318 69.3612 9.00125C69.853 8.85733 70.3567 8.78536 70.8724 8.78536ZM69.0914 13.0311C69.3192 13.0311 69.5351 12.9652 69.739 12.8332C69.9549 12.6893 70.1468 12.5154 70.3147 12.3115C70.4826 12.0956 70.6146 11.8677 70.7105 11.6279C70.8185 11.376 70.8724 11.1421 70.8724 10.9262V8.96527C70.4526 8.97726 70.0629 9.04323 69.703 9.16316C69.3432 9.2831 69.0314 9.44502 68.7675 9.64891C68.5037 9.8528 68.2938 10.1047 68.1379 10.4045C67.9939 10.6924 67.922 11.0222 67.922 11.394C67.922 11.8737 68.0299 12.2695 68.2458 12.5814C68.4737 12.8812 68.7555 13.0311 69.0914 13.0311Z"/>
<path d="M73.3439 13.229C73.5598 13.0611 73.6917 12.8572 73.7397 12.6173C73.7876 12.3775 73.8116 12.1256 73.8116 11.8617V1.85902C73.8116 1.47522 73.7637 1.21736 73.6677 1.08543C73.5837 0.941504 73.4938 0.857548 73.3978 0.833561V0.743608C73.4938 0.743608 73.6137 0.731614 73.7577 0.707627C73.9016 0.68364 74.0395 0.653656 74.1714 0.617675C74.3154 0.5697 74.4473 0.515728 74.5672 0.45576C74.6992 0.395792 74.7951 0.323829 74.8551 0.239873H74.945V11.8617C74.945 12.1136 74.969 12.3655 75.017 12.6173C75.065 12.8572 75.1969 13.0611 75.4128 13.229V13.319C75.2329 13.295 75.059 13.277 74.8911 13.265C74.7231 13.241 74.5552 13.229 74.3873 13.229C74.2074 13.229 74.0275 13.241 73.8476 13.265C73.6797 13.277 73.5118 13.295 73.3439 13.319V13.229Z"/>
</mask>
<path d="M1.28332 0.833561C1.45123 0.833561 1.61915 0.827564 1.78706 0.81557C1.95497 0.791583 2.12888 0.767595 2.30878 0.743608V0.833561C2.0929 1.00147 1.96097 1.20536 1.91299 1.44524C1.86502 1.67312 1.84103 1.91299 1.84103 2.16486V13.1391H3.24429C3.70005 13.1391 4.06585 13.0131 4.34171 12.7613C4.61756 12.4974 4.83345 12.1856 4.98937 11.8258C5.14528 11.4659 5.25922 11.0941 5.33119 10.7103C5.40315 10.3146 5.45712 9.98473 5.4931 9.72087H5.63703L5.40315 13.319H0.275854V13.247C0.383797 13.1631 0.479747 13.0431 0.563703 12.8872C0.659652 12.7193 0.707627 12.4794 0.707627 12.1676V2.20084C0.707627 1.93698 0.683639 1.68511 0.635665 1.44524C0.58769 1.20536 0.455759 1.00147 0.239873 0.833561V0.743608C0.407785 0.767595 0.575696 0.791583 0.743608 0.81557C0.923513 0.827564 1.10342 0.833561 1.28332 0.833561Z" fill="var(--fill-0, #FFF3DE)"/>
<path d="M8.98256 4.19779C9.35436 4.19779 9.69018 4.27574 9.99003 4.43166C10.3019 4.57559 10.5597 4.76149 10.7636 4.98937C10.9795 5.20525 11.1354 5.44513 11.2314 5.70899C11.3273 5.96086 11.3453 6.20073 11.2853 6.42861C11.2374 6.64449 11.0994 6.8304 10.8716 6.98631C10.6557 7.13024 10.3378 7.2022 9.91806 7.2022H7.3814C7.35741 7.43008 7.33942 7.65796 7.32743 7.88584C7.31544 8.11372 7.30944 8.32961 7.30944 8.5335C7.30944 9.06122 7.33942 9.58894 7.39939 10.1167C7.47135 10.6444 7.5793 11.1181 7.72322 11.5379C7.87914 11.9577 8.07703 12.2995 8.31691 12.5634C8.55678 12.8272 8.84463 12.9592 9.18045 12.9592C9.43232 12.9592 9.6542 12.8872 9.8461 12.7433C10.038 12.5994 10.2059 12.4194 10.3498 12.2036C10.4938 11.9877 10.6137 11.7538 10.7096 11.5019C10.8176 11.2381 10.8955 10.9982 10.9435 10.7823C11.0035 10.5544 11.0395 10.3565 11.0515 10.1886C11.0755 10.0207 11.0814 9.92476 11.0695 9.90078H11.2494C11.2614 9.93676 11.2554 10.0507 11.2314 10.2426C11.2194 10.4345 11.1834 10.6624 11.1234 10.9262C11.0635 11.1901 10.9735 11.4719 10.8536 11.7718C10.7456 12.0716 10.6017 12.3535 10.4218 12.6173C10.2419 12.8692 10.014 13.0791 9.73816 13.247C9.4743 13.4149 9.15646 13.4989 8.78466 13.4989C8.30491 13.4989 7.89713 13.361 7.56131 13.0851C7.23748 12.7972 6.97362 12.4314 6.76972 11.9877C6.56583 11.5319 6.41591 11.0282 6.31996 10.4765C6.22401 9.92476 6.17604 9.37305 6.17604 8.82135C6.17604 8.35359 6.22401 7.84986 6.31996 7.31014C6.41591 6.75843 6.57183 6.2547 6.78771 5.79894C7.01559 5.34318 7.30944 4.96538 7.66925 4.66554C8.02906 4.3537 8.46683 4.19779 8.98256 4.19779ZM9.70218 7.02229C9.85809 7.02229 9.97203 6.95633 10.044 6.8244C10.128 6.69247 10.1759 6.53055 10.1879 6.33866C10.2119 6.14676 10.1999 5.93687 10.1519 5.70899C10.116 5.48111 10.044 5.27122 9.93605 5.07932C9.8401 4.88742 9.70817 4.72551 9.54026 4.59358C9.38434 4.46165 9.20444 4.39568 9.00055 4.39568C8.73669 4.39568 8.5148 4.49163 8.3349 4.68353C8.15499 4.87543 7.99908 5.1093 7.86715 5.38516C7.74721 5.66101 7.65126 5.94886 7.5793 6.2487C7.50734 6.54854 7.45336 6.80641 7.41738 7.02229H9.70218Z" fill="var(--fill-0, #FFF3DE)"/>
<path d="M16.3439 11.8617V1.37328C16.3439 1.09742 16.194 0.917516 15.8941 0.833561V0.743608H18.7906C19.2104 0.743608 19.6002 0.821566 19.96 0.977484C20.3198 1.1334 20.6316 1.34929 20.8955 1.62514C21.1594 1.889 21.3633 2.20684 21.5072 2.57864C21.6631 2.93845 21.7411 3.33424 21.7411 3.76601C21.7411 4.19779 21.6571 4.59358 21.4892 4.95339C21.3333 5.3132 21.1054 5.62503 20.8056 5.88889C20.5177 6.14076 20.1699 6.33866 19.7621 6.48258C19.3543 6.6265 18.9046 6.69847 18.4128 6.69847H18.3409C18.6287 6.79441 18.8926 6.84839 19.1324 6.86038C19.3723 6.86038 19.5822 6.87237 19.7621 6.89636L21.4172 11.9697C21.5372 12.3175 21.6451 12.5994 21.7411 12.8152C21.837 13.0191 21.9749 13.1571 22.1548 13.229V13.319C21.9869 13.295 21.837 13.277 21.7051 13.265C21.5851 13.253 21.4652 13.247 21.3453 13.247C21.2253 13.247 21.0994 13.253 20.9675 13.265C20.8475 13.277 20.7036 13.295 20.5357 13.319L18.7726 7.38211C18.7486 7.28616 18.6947 7.1962 18.6107 7.11225C18.5268 7.02829 18.4308 6.95633 18.3229 6.89636C18.2269 6.83639 18.125 6.78842 18.017 6.75244C17.9211 6.71646 17.8431 6.69847 17.7831 6.69847H17.4773V11.8977C17.4773 12.1496 17.5013 12.3955 17.5493 12.6353C17.5972 12.8632 17.7292 13.0611 17.9451 13.229V13.319C17.7652 13.295 17.5853 13.277 17.4053 13.265C17.2374 13.241 17.0695 13.229 16.9016 13.229C16.7217 13.229 16.5478 13.241 16.3799 13.265C16.212 13.277 16.0441 13.295 15.8762 13.319V13.229C16.092 13.0611 16.224 12.8572 16.2719 12.6173C16.3199 12.3775 16.3439 12.1256 16.3439 11.8617ZM17.4773 6.51856H18.4128C19.0845 6.51856 19.6062 6.26669 19.978 5.76296C20.3498 5.24723 20.5357 4.53361 20.5357 3.62209C20.5357 2.77054 20.3798 2.11089 20.0679 1.64313C19.7561 1.16339 19.3303 0.923513 18.7906 0.923513H17.4773V6.51856Z" fill="var(--fill-0, #FFF3DE)"/>
<path d="M25.4973 4.19779C25.8691 4.19779 26.2049 4.27574 26.5047 4.43166C26.8166 4.57559 27.0744 4.76149 27.2783 4.98937C27.4942 5.20525 27.6501 5.44513 27.7461 5.70899C27.842 5.96086 27.86 6.20073 27.8001 6.42861C27.7521 6.64449 27.6142 6.8304 27.3863 6.98631C27.1704 7.13024 26.8526 7.2022 26.4328 7.2022H23.8961C23.8721 7.43008 23.8541 7.65796 23.8422 7.88584C23.8302 8.11372 23.8242 8.32961 23.8242 8.5335C23.8242 9.06122 23.8541 9.58894 23.9141 10.1167C23.9861 10.6444 24.094 11.1181 24.2379 11.5379C24.3939 11.9577 24.5918 12.2995 24.8316 12.5634C25.0715 12.8272 25.3594 12.9592 25.6952 12.9592C25.947 12.9592 26.1689 12.8872 26.3608 12.7433C26.5527 12.5994 26.7206 12.4194 26.8646 12.2036C27.0085 11.9877 27.1284 11.7538 27.2244 11.5019C27.3323 11.2381 27.4103 10.9982 27.4582 10.7823C27.5182 10.5544 27.5542 10.3565 27.5662 10.1886C27.5902 10.0207 27.5962 9.92476 27.5842 9.90078H27.7641C27.7761 9.93676 27.7701 10.0507 27.7461 10.2426C27.7341 10.4345 27.6981 10.6624 27.6381 10.9262C27.5782 11.1901 27.4882 11.4719 27.3683 11.7718C27.2603 12.0716 27.1164 12.3535 26.9365 12.6173C26.7566 12.8692 26.5287 13.0791 26.2529 13.247C25.989 13.4149 25.6712 13.4989 25.2994 13.4989C24.8196 13.4989 24.4119 13.361 24.076 13.0851C23.7522 12.7972 23.4883 12.4314 23.2844 11.9877C23.0806 11.5319 22.9306 11.0282 22.8347 10.4765C22.7387 9.92476 22.6908 9.37305 22.6908 8.82135C22.6908 8.35359 22.7387 7.84986 22.8347 7.31014C22.9306 6.75843 23.0866 6.2547 23.3024 5.79894C23.5303 5.34318 23.8242 4.96538 24.184 4.66554C24.5438 4.3537 24.9815 4.19779 25.4973 4.19779ZM23.9321 7.02229H26.2169C26.3728 7.02229 26.4868 6.95633 26.5587 6.8244C26.6427 6.69247 26.6906 6.53055 26.7026 6.33866C26.7266 6.14676 26.7146 5.93687 26.6667 5.70899C26.6307 5.48111 26.5587 5.27122 26.4508 5.07932C26.3548 4.88742 26.2229 4.72551 26.055 4.59358C25.8991 4.46165 25.7192 4.39568 25.5153 4.39568C25.2514 4.39568 25.0295 4.49163 24.8496 4.68353C24.6697 4.87543 24.5138 5.1093 24.3819 5.38516C24.2619 5.66101 24.166 5.94886 24.094 6.2487C24.0221 6.54854 23.9681 6.80641 23.9321 7.02229ZM25.1195 1.66112H26.1989L27.6921 3.56812H26.9725L25.6592 2.12888L24.3819 3.56812H23.6622L25.1195 1.66112Z" fill="var(--fill-0, #FFF3DE)"/>
<path d="M28.7302 4.48563V4.39568H30.997V4.48563C30.8651 4.56959 30.7811 4.68353 30.7452 4.82745C30.7212 4.97138 30.7092 5.1213 30.7092 5.27722C30.7092 5.64902 30.7632 6.05081 30.8711 6.48258L32.3103 12.4554L33.6057 6.50057C33.7376 5.92487 33.7676 5.46312 33.6956 5.1153C33.6356 4.75549 33.4737 4.5456 33.2099 4.48563V4.39568H35.0269V4.48563C34.859 4.5456 34.7091 4.64755 34.5771 4.79147C34.4572 4.9354 34.3433 5.10331 34.2353 5.29521C34.1394 5.47511 34.0554 5.67301 33.9835 5.88889C33.9235 6.09279 33.8695 6.29668 33.8215 6.50057L32.3283 13.319H31.3568L29.6118 6.08679C29.5158 5.72698 29.3959 5.39715 29.252 5.09731C29.108 4.78548 28.9341 4.58158 28.7302 4.48563Z" fill="var(--fill-0, #FFF3DE)"/>
<path d="M38.0239 4.19779C38.3957 4.19779 38.7315 4.27574 39.0313 4.43166C39.3432 4.57559 39.601 4.76149 39.8049 4.98937C40.0208 5.20525 40.1767 5.44513 40.2727 5.70899C40.3686 5.96086 40.3866 6.20073 40.3267 6.42861C40.2787 6.64449 40.1408 6.8304 39.9129 6.98631C39.697 7.13024 39.3792 7.2022 38.9594 7.2022H36.4227C36.3987 7.43008 36.3807 7.65796 36.3687 7.88584C36.3568 8.11372 36.3508 8.32961 36.3508 8.5335C36.3508 9.06122 36.3807 9.58894 36.4407 10.1167C36.5127 10.6444 36.6206 11.1181 36.7645 11.5379C36.9205 11.9577 37.1183 12.2995 37.3582 12.5634C37.5981 12.8272 37.8859 12.9592 38.2218 12.9592C38.4736 12.9592 38.6955 12.8872 38.8874 12.7433C39.0793 12.5994 39.2472 12.4194 39.3911 12.2036C39.5351 11.9877 39.655 11.7538 39.751 11.5019C39.8589 11.2381 39.9369 10.9982 39.9848 10.7823C40.0448 10.5544 40.0808 10.3565 40.0928 10.1886C40.1168 10.0207 40.1228 9.92476 40.1108 9.90078H40.2907C40.3027 9.93676 40.2967 10.0507 40.2727 10.2426C40.2607 10.4345 40.2247 10.6624 40.1647 10.9262C40.1048 11.1901 40.0148 11.4719 39.8949 11.7718C39.7869 12.0716 39.643 12.3535 39.4631 12.6173C39.2832 12.8692 39.0553 13.0791 38.7795 13.247C38.5156 13.4149 38.1978 13.4989 37.826 13.4989C37.3462 13.4989 36.9384 13.361 36.6026 13.0851C36.2788 12.7972 36.0149 12.4314 35.811 11.9877C35.6071 11.5319 35.4572 11.0282 35.3613 10.4765C35.2653 9.92476 35.2174 9.37305 35.2174 8.82135C35.2174 8.35359 35.2653 7.84986 35.3613 7.31014C35.4572 6.75843 35.6131 6.2547 35.829 5.79894C36.0569 5.34318 36.3508 4.96538 36.7106 4.66554C37.0704 4.3537 37.5081 4.19779 38.0239 4.19779ZM38.7435 7.02229C38.8994 7.02229 39.0134 6.95633 39.0853 6.8244C39.1693 6.69247 39.2172 6.53055 39.2292 6.33866C39.2532 6.14676 39.2412 5.93687 39.1933 5.70899C39.1573 5.48111 39.0853 5.27122 38.9774 5.07932C38.8814 4.88742 38.7495 4.72551 38.5816 4.59358C38.4257 4.46165 38.2458 4.39568 38.0419 4.39568C37.778 4.39568 37.5561 4.49163 37.3762 4.68353C37.1963 4.87543 37.0404 5.1093 36.9085 5.38516C36.7885 5.66101 36.6926 5.94886 36.6206 6.2487C36.5486 6.54854 36.4947 6.80641 36.4587 7.02229H38.7435Z" fill="var(--fill-0, #FFF3DE)"/>
<path d="M44.6476 13.319V13.229C44.7915 13.181 44.9175 13.0971 45.0254 12.9772C45.1453 12.8452 45.2473 12.7013 45.3313 12.5454C45.4272 12.3775 45.5052 12.2096 45.5651 12.0416C45.6371 11.8617 45.6911 11.6998 45.727 11.5559L48.6235 0.743608H49.1093L52.0597 11.8438C52.0957 11.9637 52.1377 12.1016 52.1856 12.2575C52.2336 12.4015 52.2936 12.5454 52.3655 12.6893C52.4375 12.8212 52.5155 12.9412 52.5994 13.0491C52.6954 13.1451 52.8033 13.205 52.9232 13.229V13.319C52.7433 13.307 52.5454 13.301 52.3296 13.301C52.1257 13.289 51.9338 13.283 51.7539 13.283C51.5859 13.283 51.3941 13.289 51.1782 13.301C50.9743 13.301 50.7824 13.307 50.6025 13.319V13.229C50.7464 13.205 50.8423 13.1331 50.8903 13.0131C50.9503 12.8812 50.9803 12.7253 50.9803 12.5454C50.9803 12.3775 50.9623 12.2096 50.9263 12.0416C50.8903 11.8737 50.8423 11.6878 50.7824 11.4839L50.1887 9.25312H46.5366L45.9789 11.322C45.835 11.8737 45.823 12.3055 45.9429 12.6173C46.0629 12.9292 46.2488 13.1331 46.5006 13.229V13.319C46.3807 13.307 46.2668 13.301 46.1588 13.301C46.0509 13.289 45.883 13.283 45.6551 13.283C45.4272 13.283 45.2413 13.289 45.0974 13.301C44.9535 13.301 44.8035 13.307 44.6476 13.319ZM50.1527 9.07321L48.3716 2.38074L46.5726 9.07321H50.1527Z" fill="var(--fill-0, #FFF3DE)"/>
<path d="M55.6842 4.21578C56.164 4.21578 56.6017 4.34771 56.9975 4.61157C57.3933 4.86343 57.6932 5.19926 57.8971 5.61904L57.0515 6.26669C57.0515 6.02682 57.0155 5.79294 56.9436 5.56506C56.8716 5.33718 56.7696 5.13929 56.6377 4.97138C56.5178 4.79147 56.3679 4.65354 56.188 4.5576C56.02 4.44965 55.8401 4.39568 55.6482 4.39568C55.3004 4.39568 55.0126 4.5456 54.7847 4.84544C54.5688 5.14529 54.4609 5.4871 54.4609 5.8709C54.4609 6.20672 54.5448 6.50057 54.7127 6.75244C54.8806 7.0043 55.0905 7.24418 55.3424 7.47206C55.5943 7.69994 55.8701 7.92182 56.17 8.13771C56.4698 8.35359 56.7457 8.59946 56.9975 8.87532C57.2494 9.13918 57.4593 9.43902 57.6272 9.77484C57.7951 10.0987 57.8791 10.4885 57.8791 10.9442C57.8791 11.316 57.8191 11.6578 57.6992 11.9697C57.5792 12.2695 57.4113 12.5334 57.1954 12.7613C56.9795 12.9772 56.7277 13.1451 56.4398 13.265C56.164 13.3849 55.8641 13.4449 55.5403 13.4449C55.1685 13.4449 54.8267 13.3669 54.5148 13.211C54.203 13.0551 53.8972 12.8332 53.5973 12.5454V10.0267H53.7772C53.8012 10.4945 53.8732 10.9262 53.9931 11.322C54.1131 11.7178 54.257 12.0596 54.4249 12.3475C54.6048 12.6353 54.7967 12.8632 55.0006 13.0311C55.2165 13.187 55.4204 13.265 55.6123 13.265C55.7682 13.265 55.9241 13.217 56.08 13.1211C56.2359 13.0131 56.3739 12.8752 56.4938 12.7073C56.6137 12.5394 56.7097 12.3415 56.7816 12.1136C56.8536 11.8737 56.8896 11.6279 56.8896 11.376C56.8896 10.9802 56.8056 10.6384 56.6377 10.3505C56.4698 10.0507 56.2599 9.78084 56.0081 9.54097C55.7562 9.2891 55.4803 9.06122 55.1805 8.85733C54.8806 8.64144 54.6048 8.41956 54.3529 8.19168C54.1011 7.9518 53.8912 7.69394 53.7233 7.41809C53.5553 7.13024 53.4714 6.80041 53.4714 6.42861C53.4714 6.15275 53.5194 5.8829 53.6153 5.61904C53.7233 5.35517 53.8732 5.1213 54.0651 4.91741C54.257 4.70152 54.4909 4.53361 54.7667 4.41367C55.0426 4.28174 55.3484 4.21578 55.6842 4.21578Z" fill="var(--fill-0, #FFF3DE)"/>
<path d="M58.709 4.39568V4.21578C58.9129 4.20378 59.0988 4.11383 59.2667 3.94592C59.4466 3.76601 59.6025 3.55612 59.7345 3.31625C59.8784 3.07638 59.9923 2.83051 60.0763 2.57864C60.1722 2.32677 60.2442 2.12288 60.2922 1.96696L60.4361 2.05691V4.21578H61.2097V4.39568H60.4361V11.6459C60.4361 12.1016 60.4721 12.4194 60.544 12.5994C60.628 12.7793 60.7359 12.8692 60.8679 12.8692C61.0238 12.8692 61.1557 12.7853 61.2637 12.6173C61.3716 12.4494 61.4316 12.2695 61.4436 12.0776L61.5335 12.0956C61.5335 12.4794 61.4256 12.8032 61.2097 13.0671C61.0058 13.331 60.7359 13.4629 60.4001 13.4629C60.0523 13.4629 59.7825 13.325 59.5906 13.0491C59.4106 12.7613 59.3207 12.3775 59.3207 11.8977V4.39568H58.709Z" fill="var(--fill-0, #FFF3DE)"/>
<path d="M62.1701 13.319V13.229C62.266 13.205 62.356 13.1271 62.4399 12.9951C62.5359 12.8512 62.5839 12.5874 62.5839 12.2036V6.01483C62.5839 5.63103 62.5359 5.37317 62.4399 5.24123C62.356 5.09731 62.266 5.01335 62.1701 4.98937V4.89941C62.374 4.89941 62.6318 4.85744 62.9437 4.77348C63.2555 4.68953 63.4774 4.56359 63.6093 4.39568H63.6993V6.08679C63.8072 5.64302 63.9871 5.25323 64.239 4.91741C64.5028 4.56959 64.8447 4.39568 65.2645 4.39568C65.6123 4.39568 65.9181 4.52761 66.182 4.79147C66.4578 5.04334 66.5957 5.36717 66.5957 5.76296L65.4444 5.83492C65.3964 5.55907 65.3064 5.36717 65.1745 5.25923C65.0426 5.13929 64.9046 5.07932 64.7607 5.07932C64.5688 5.07932 64.4009 5.17527 64.257 5.36717C64.1251 5.54707 64.0171 5.76296 63.9332 6.01483C63.8492 6.2547 63.7892 6.50057 63.7532 6.75244C63.7173 7.0043 63.6993 7.1962 63.6993 7.32813V12.2036C63.6993 12.5874 63.7413 12.8512 63.8252 12.9951C63.9212 13.1271 64.0171 13.205 64.1131 13.229V13.319H62.1701Z" fill="var(--fill-0, #FFF3DE)"/>
<path d="M70.8724 8.78536V6.91435C70.8724 5.23524 70.5126 4.39568 69.793 4.39568C69.6131 4.39568 69.4452 4.44965 69.2893 4.5576C69.1333 4.65354 68.9894 4.79147 68.8575 4.97138C68.7376 5.13929 68.6416 5.33718 68.5696 5.56506C68.4977 5.79294 68.4617 6.02682 68.4617 6.26669L67.6161 5.61904C67.82 5.19926 68.1199 4.86343 68.5157 4.61157C68.9115 4.34771 69.3612 4.21578 69.865 4.21578C70.5246 4.21578 71.0403 4.45565 71.4121 4.9354C71.7959 5.40315 71.9878 6.08679 71.9878 6.98631V10.6204C71.9878 10.8363 71.9878 11.0642 71.9878 11.304C71.9878 11.5319 71.9938 11.7478 72.0058 11.9517C72.0298 12.1436 72.0598 12.3055 72.0958 12.4374C72.1438 12.5694 72.2097 12.6353 72.2937 12.6353C72.3776 12.6353 72.4436 12.5754 72.4916 12.4554C72.5515 12.3355 72.5815 12.2515 72.5815 12.2036L72.7075 12.3295C72.6835 12.4374 72.6475 12.5574 72.5995 12.6893C72.5515 12.8092 72.4856 12.9232 72.4016 13.0311C72.3177 13.1391 72.2157 13.229 72.0958 13.301C71.9878 13.3729 71.8619 13.4089 71.718 13.4089C71.4421 13.4089 71.2322 13.277 71.0883 13.0131C70.9444 12.7493 70.8724 12.4075 70.8724 11.9877V11.7358C70.6805 12.2156 70.3807 12.6353 69.9729 12.9951C69.5651 13.343 69.1094 13.5169 68.6056 13.5169C68.3657 13.5169 68.1319 13.4689 67.904 13.3729C67.6881 13.277 67.4962 13.1451 67.3283 12.9772C67.1604 12.8092 67.0285 12.6113 66.9325 12.3835C66.8366 12.1556 66.7886 11.9037 66.7886 11.6279C66.7886 11.2081 66.9025 10.8243 67.1304 10.4765C67.3703 10.1287 67.6761 9.82881 68.0479 9.57695C68.4317 9.32508 68.8695 9.13318 69.3612 9.00125C69.853 8.85733 70.3567 8.78536 70.8724 8.78536ZM69.0914 13.0311C69.3192 13.0311 69.5351 12.9652 69.739 12.8332C69.9549 12.6893 70.1468 12.5154 70.3147 12.3115C70.4826 12.0956 70.6146 11.8677 70.7105 11.6279C70.8185 11.376 70.8724 11.1421 70.8724 10.9262V8.96527C70.4526 8.97726 70.0629 9.04323 69.703 9.16316C69.3432 9.2831 69.0314 9.44502 68.7675 9.64891C68.5037 9.8528 68.2938 10.1047 68.1379 10.4045C67.9939 10.6924 67.922 11.0222 67.922 11.394C67.922 11.8737 68.0299 12.2695 68.2458 12.5814C68.4737 12.8812 68.7555 13.0311 69.0914 13.0311Z" fill="var(--fill-0, #FFF3DE)"/>
<path d="M73.3439 13.229C73.5598 13.0611 73.6917 12.8572 73.7397 12.6173C73.7876 12.3775 73.8116 12.1256 73.8116 11.8617V1.85902C73.8116 1.47522 73.7637 1.21736 73.6677 1.08543C73.5837 0.941504 73.4938 0.857548 73.3978 0.833561V0.743608C73.4938 0.743608 73.6137 0.731614 73.7577 0.707627C73.9016 0.68364 74.0395 0.653656 74.1714 0.617675C74.3154 0.5697 74.4473 0.515728 74.5672 0.45576C74.6992 0.395792 74.7951 0.323829 74.8551 0.239873H74.945V11.8617C74.945 12.1136 74.969 12.3655 75.017 12.6173C75.065 12.8572 75.1969 13.0611 75.4128 13.229V13.319C75.2329 13.295 75.059 13.277 74.8911 13.265C74.7231 13.241 74.5552 13.229 74.3873 13.229C74.2074 13.229 74.0275 13.241 73.8476 13.265C73.6797 13.277 73.5118 13.295 73.3439 13.319V13.229Z" fill="var(--fill-0, #FFF3DE)"/>
<path d="M1.28332 0.833561C1.45123 0.833561 1.61915 0.827564 1.78706 0.81557C1.95497 0.791583 2.12888 0.767595 2.30878 0.743608V0.833561C2.0929 1.00147 1.96097 1.20536 1.91299 1.44524C1.86502 1.67312 1.84103 1.91299 1.84103 2.16486V13.1391H3.24429C3.70005 13.1391 4.06585 13.0131 4.34171 12.7613C4.61756 12.4974 4.83345 12.1856 4.98937 11.8258C5.14528 11.4659 5.25922 11.0941 5.33119 10.7103C5.40315 10.3146 5.45712 9.98473 5.4931 9.72087H5.63703L5.40315 13.319H0.275854V13.247C0.383797 13.1631 0.479747 13.0431 0.563703 12.8872C0.659652 12.7193 0.707627 12.4794 0.707627 12.1676V2.20084C0.707627 1.93698 0.683639 1.68511 0.635665 1.44524C0.58769 1.20536 0.455759 1.00147 0.239873 0.833561V0.743608C0.407785 0.767595 0.575696 0.791583 0.743608 0.81557C0.923513 0.827564 1.10342 0.833561 1.28332 0.833561Z" stroke="var(--stroke-0, #FFF3DE)" stroke-width="0.479747" mask="url(#path-1-outside-1_9_145)"/>
<path d="M8.98256 4.19779C9.35436 4.19779 9.69018 4.27574 9.99003 4.43166C10.3019 4.57559 10.5597 4.76149 10.7636 4.98937C10.9795 5.20525 11.1354 5.44513 11.2314 5.70899C11.3273 5.96086 11.3453 6.20073 11.2853 6.42861C11.2374 6.64449 11.0994 6.8304 10.8716 6.98631C10.6557 7.13024 10.3378 7.2022 9.91806 7.2022H7.3814C7.35741 7.43008 7.33942 7.65796 7.32743 7.88584C7.31544 8.11372 7.30944 8.32961 7.30944 8.5335C7.30944 9.06122 7.33942 9.58894 7.39939 10.1167C7.47135 10.6444 7.5793 11.1181 7.72322 11.5379C7.87914 11.9577 8.07703 12.2995 8.31691 12.5634C8.55678 12.8272 8.84463 12.9592 9.18045 12.9592C9.43232 12.9592 9.6542 12.8872 9.8461 12.7433C10.038 12.5994 10.2059 12.4194 10.3498 12.2036C10.4938 11.9877 10.6137 11.7538 10.7096 11.5019C10.8176 11.2381 10.8955 10.9982 10.9435 10.7823C11.0035 10.5544 11.0395 10.3565 11.0515 10.1886C11.0755 10.0207 11.0814 9.92476 11.0695 9.90078H11.2494C11.2614 9.93676 11.2554 10.0507 11.2314 10.2426C11.2194 10.4345 11.1834 10.6624 11.1234 10.9262C11.0635 11.1901 10.9735 11.4719 10.8536 11.7718C10.7456 12.0716 10.6017 12.3535 10.4218 12.6173C10.2419 12.8692 10.014 13.0791 9.73816 13.247C9.4743 13.4149 9.15646 13.4989 8.78466 13.4989C8.30491 13.4989 7.89713 13.361 7.56131 13.0851C7.23748 12.7972 6.97362 12.4314 6.76972 11.9877C6.56583 11.5319 6.41591 11.0282 6.31996 10.4765C6.22401 9.92476 6.17604 9.37305 6.17604 8.82135C6.17604 8.35359 6.22401 7.84986 6.31996 7.31014C6.41591 6.75843 6.57183 6.2547 6.78771 5.79894C7.01559 5.34318 7.30944 4.96538 7.66925 4.66554C8.02906 4.3537 8.46683 4.19779 8.98256 4.19779ZM9.70218 7.02229C9.85809 7.02229 9.97203 6.95633 10.044 6.8244C10.128 6.69247 10.1759 6.53055 10.1879 6.33866C10.2119 6.14676 10.1999 5.93687 10.1519 5.70899C10.116 5.48111 10.044 5.27122 9.93605 5.07932C9.8401 4.88742 9.70817 4.72551 9.54026 4.59358C9.38434 4.46165 9.20444 4.39568 9.00055 4.39568C8.73669 4.39568 8.5148 4.49163 8.3349 4.68353C8.15499 4.87543 7.99908 5.1093 7.86715 5.38516C7.74721 5.66101 7.65126 5.94886 7.5793 6.2487C7.50734 6.54854 7.45336 6.80641 7.41738 7.02229H9.70218Z" stroke="var(--stroke-0, #FFF3DE)" stroke-width="0.479747" mask="url(#path-1-outside-1_9_145)"/>
<path d="M16.3439 11.8617V1.37328C16.3439 1.09742 16.194 0.917516 15.8941 0.833561V0.743608H18.7906C19.2104 0.743608 19.6002 0.821566 19.96 0.977484C20.3198 1.1334 20.6316 1.34929 20.8955 1.62514C21.1594 1.889 21.3633 2.20684 21.5072 2.57864C21.6631 2.93845 21.7411 3.33424 21.7411 3.76601C21.7411 4.19779 21.6571 4.59358 21.4892 4.95339C21.3333 5.3132 21.1054 5.62503 20.8056 5.88889C20.5177 6.14076 20.1699 6.33866 19.7621 6.48258C19.3543 6.6265 18.9046 6.69847 18.4128 6.69847H18.3409C18.6287 6.79441 18.8926 6.84839 19.1324 6.86038C19.3723 6.86038 19.5822 6.87237 19.7621 6.89636L21.4172 11.9697C21.5372 12.3175 21.6451 12.5994 21.7411 12.8152C21.837 13.0191 21.9749 13.1571 22.1548 13.229V13.319C21.9869 13.295 21.837 13.277 21.7051 13.265C21.5851 13.253 21.4652 13.247 21.3453 13.247C21.2253 13.247 21.0994 13.253 20.9675 13.265C20.8475 13.277 20.7036 13.295 20.5357 13.319L18.7726 7.38211C18.7486 7.28616 18.6947 7.1962 18.6107 7.11225C18.5268 7.02829 18.4308 6.95633 18.3229 6.89636C18.2269 6.83639 18.125 6.78842 18.017 6.75244C17.9211 6.71646 17.8431 6.69847 17.7831 6.69847H17.4773V11.8977C17.4773 12.1496 17.5013 12.3955 17.5493 12.6353C17.5972 12.8632 17.7292 13.0611 17.9451 13.229V13.319C17.7652 13.295 17.5853 13.277 17.4053 13.265C17.2374 13.241 17.0695 13.229 16.9016 13.229C16.7217 13.229 16.5478 13.241 16.3799 13.265C16.212 13.277 16.0441 13.295 15.8762 13.319V13.229C16.092 13.0611 16.224 12.8572 16.2719 12.6173C16.3199 12.3775 16.3439 12.1256 16.3439 11.8617ZM17.4773 6.51856H18.4128C19.0845 6.51856 19.6062 6.26669 19.978 5.76296C20.3498 5.24723 20.5357 4.53361 20.5357 3.62209C20.5357 2.77054 20.3798 2.11089 20.0679 1.64313C19.7561 1.16339 19.3303 0.923513 18.7906 0.923513H17.4773V6.51856Z" stroke="var(--stroke-0, #FFF3DE)" stroke-width="0.479747" mask="url(#path-1-outside-1_9_145)"/>
<path d="M25.4973 4.19779C25.8691 4.19779 26.2049 4.27574 26.5047 4.43166C26.8166 4.57559 27.0744 4.76149 27.2783 4.98937C27.4942 5.20525 27.6501 5.44513 27.7461 5.70899C27.842 5.96086 27.86 6.20073 27.8001 6.42861C27.7521 6.64449 27.6142 6.8304 27.3863 6.98631C27.1704 7.13024 26.8526 7.2022 26.4328 7.2022H23.8961C23.8721 7.43008 23.8541 7.65796 23.8422 7.88584C23.8302 8.11372 23.8242 8.32961 23.8242 8.5335C23.8242 9.06122 23.8541 9.58894 23.9141 10.1167C23.9861 10.6444 24.094 11.1181 24.2379 11.5379C24.3939 11.9577 24.5918 12.2995 24.8316 12.5634C25.0715 12.8272 25.3594 12.9592 25.6952 12.9592C25.947 12.9592 26.1689 12.8872 26.3608 12.7433C26.5527 12.5994 26.7206 12.4194 26.8646 12.2036C27.0085 11.9877 27.1284 11.7538 27.2244 11.5019C27.3323 11.2381 27.4103 10.9982 27.4582 10.7823C27.5182 10.5544 27.5542 10.3565 27.5662 10.1886C27.5902 10.0207 27.5962 9.92476 27.5842 9.90078H27.7641C27.7761 9.93676 27.7701 10.0507 27.7461 10.2426C27.7341 10.4345 27.6981 10.6624 27.6381 10.9262C27.5782 11.1901 27.4882 11.4719 27.3683 11.7718C27.2603 12.0716 27.1164 12.3535 26.9365 12.6173C26.7566 12.8692 26.5287 13.0791 26.2529 13.247C25.989 13.4149 25.6712 13.4989 25.2994 13.4989C24.8196 13.4989 24.4119 13.361 24.076 13.0851C23.7522 12.7972 23.4883 12.4314 23.2844 11.9877C23.0806 11.5319 22.9306 11.0282 22.8347 10.4765C22.7387 9.92476 22.6908 9.37305 22.6908 8.82135C22.6908 8.35359 22.7387 7.84986 22.8347 7.31014C22.9306 6.75843 23.0866 6.2547 23.3024 5.79894C23.5303 5.34318 23.8242 4.96538 24.184 4.66554C24.5438 4.3537 24.9815 4.19779 25.4973 4.19779ZM23.9321 7.02229H26.2169C26.3728 7.02229 26.4868 6.95633 26.5587 6.8244C26.6427 6.69247 26.6906 6.53055 26.7026 6.33866C26.7266 6.14676 26.7146 5.93687 26.6667 5.70899C26.6307 5.48111 26.5587 5.27122 26.4508 5.07932C26.3548 4.88742 26.2229 4.72551 26.055 4.59358C25.8991 4.46165 25.7192 4.39568 25.5153 4.39568C25.2514 4.39568 25.0295 4.49163 24.8496 4.68353C24.6697 4.87543 24.5138 5.1093 24.3819 5.38516C24.2619 5.66101 24.166 5.94886 24.094 6.2487C24.0221 6.54854 23.9681 6.80641 23.9321 7.02229ZM25.1195 1.66112H26.1989L27.6921 3.56812H26.9725L25.6592 2.12888L24.3819 3.56812H23.6622L25.1195 1.66112Z" stroke="var(--stroke-0, #FFF3DE)" stroke-width="0.479747" mask="url(#path-1-outside-1_9_145)"/>
<path d="M28.7302 4.48563V4.39568H30.997V4.48563C30.8651 4.56959 30.7811 4.68353 30.7452 4.82745C30.7212 4.97138 30.7092 5.1213 30.7092 5.27722C30.7092 5.64902 30.7632 6.05081 30.8711 6.48258L32.3103 12.4554L33.6057 6.50057C33.7376 5.92487 33.7676 5.46312 33.6956 5.1153C33.6356 4.75549 33.4737 4.5456 33.2099 4.48563V4.39568H35.0269V4.48563C34.859 4.5456 34.7091 4.64755 34.5771 4.79147C34.4572 4.9354 34.3433 5.10331 34.2353 5.29521C34.1394 5.47511 34.0554 5.67301 33.9835 5.88889C33.9235 6.09279 33.8695 6.29668 33.8215 6.50057L32.3283 13.319H31.3568L29.6118 6.08679C29.5158 5.72698 29.3959 5.39715 29.252 5.09731C29.108 4.78548 28.9341 4.58158 28.7302 4.48563Z" stroke="var(--stroke-0, #FFF3DE)" stroke-width="0.479747" mask="url(#path-1-outside-1_9_145)"/>
<path d="M38.0239 4.19779C38.3957 4.19779 38.7315 4.27574 39.0313 4.43166C39.3432 4.57559 39.601 4.76149 39.8049 4.98937C40.0208 5.20525 40.1767 5.44513 40.2727 5.70899C40.3686 5.96086 40.3866 6.20073 40.3267 6.42861C40.2787 6.64449 40.1408 6.8304 39.9129 6.98631C39.697 7.13024 39.3792 7.2022 38.9594 7.2022H36.4227C36.3987 7.43008 36.3807 7.65796 36.3687 7.88584C36.3568 8.11372 36.3508 8.32961 36.3508 8.5335C36.3508 9.06122 36.3807 9.58894 36.4407 10.1167C36.5127 10.6444 36.6206 11.1181 36.7645 11.5379C36.9205 11.9577 37.1183 12.2995 37.3582 12.5634C37.5981 12.8272 37.8859 12.9592 38.2218 12.9592C38.4736 12.9592 38.6955 12.8872 38.8874 12.7433C39.0793 12.5994 39.2472 12.4194 39.3911 12.2036C39.5351 11.9877 39.655 11.7538 39.751 11.5019C39.8589 11.2381 39.9369 10.9982 39.9848 10.7823C40.0448 10.5544 40.0808 10.3565 40.0928 10.1886C40.1168 10.0207 40.1228 9.92476 40.1108 9.90078H40.2907C40.3027 9.93676 40.2967 10.0507 40.2727 10.2426C40.2607 10.4345 40.2247 10.6624 40.1647 10.9262C40.1048 11.1901 40.0148 11.4719 39.8949 11.7718C39.7869 12.0716 39.643 12.3535 39.4631 12.6173C39.2832 12.8692 39.0553 13.0791 38.7795 13.247C38.5156 13.4149 38.1978 13.4989 37.826 13.4989C37.3462 13.4989 36.9384 13.361 36.6026 13.0851C36.2788 12.7972 36.0149 12.4314 35.811 11.9877C35.6071 11.5319 35.4572 11.0282 35.3613 10.4765C35.2653 9.92476 35.2174 9.37305 35.2174 8.82135C35.2174 8.35359 35.2653 7.84986 35.3613 7.31014C35.4572 6.75843 35.6131 6.2547 35.829 5.79894C36.0569 5.34318 36.3508 4.96538 36.7106 4.66554C37.0704 4.3537 37.5081 4.19779 38.0239 4.19779ZM38.7435 7.02229C38.8994 7.02229 39.0134 6.95633 39.0853 6.8244C39.1693 6.69247 39.2172 6.53055 39.2292 6.33866C39.2532 6.14676 39.2412 5.93687 39.1933 5.70899C39.1573 5.48111 39.0853 5.27122 38.9774 5.07932C38.8814 4.88742 38.7495 4.72551 38.5816 4.59358C38.4257 4.46165 38.2458 4.39568 38.0419 4.39568C37.778 4.39568 37.5561 4.49163 37.3762 4.68353C37.1963 4.87543 37.0404 5.1093 36.9085 5.38516C36.7885 5.66101 36.6926 5.94886 36.6206 6.2487C36.5486 6.54854 36.4947 6.80641 36.4587 7.02229H38.7435Z" stroke="var(--stroke-0, #FFF3DE)" stroke-width="0.479747" mask="url(#path-1-outside-1_9_145)"/>
<path d="M44.6476 13.319V13.229C44.7915 13.181 44.9175 13.0971 45.0254 12.9772C45.1453 12.8452 45.2473 12.7013 45.3313 12.5454C45.4272 12.3775 45.5052 12.2096 45.5651 12.0416C45.6371 11.8617 45.6911 11.6998 45.727 11.5559L48.6235 0.743608H49.1093L52.0597 11.8438C52.0957 11.9637 52.1377 12.1016 52.1856 12.2575C52.2336 12.4015 52.2936 12.5454 52.3655 12.6893C52.4375 12.8212 52.5155 12.9412 52.5994 13.0491C52.6954 13.1451 52.8033 13.205 52.9232 13.229V13.319C52.7433 13.307 52.5454 13.301 52.3296 13.301C52.1257 13.289 51.9338 13.283 51.7539 13.283C51.5859 13.283 51.3941 13.289 51.1782 13.301C50.9743 13.301 50.7824 13.307 50.6025 13.319V13.229C50.7464 13.205 50.8423 13.1331 50.8903 13.0131C50.9503 12.8812 50.9803 12.7253 50.9803 12.5454C50.9803 12.3775 50.9623 12.2096 50.9263 12.0416C50.8903 11.8737 50.8423 11.6878 50.7824 11.4839L50.1887 9.25312H46.5366L45.9789 11.322C45.835 11.8737 45.823 12.3055 45.9429 12.6173C46.0629 12.9292 46.2488 13.1331 46.5006 13.229V13.319C46.3807 13.307 46.2668 13.301 46.1588 13.301C46.0509 13.289 45.883 13.283 45.6551 13.283C45.4272 13.283 45.2413 13.289 45.0974 13.301C44.9535 13.301 44.8035 13.307 44.6476 13.319ZM50.1527 9.07321L48.3716 2.38074L46.5726 9.07321H50.1527Z" stroke="var(--stroke-0, #FFF3DE)" stroke-width="0.479747" mask="url(#path-1-outside-1_9_145)"/>
<path d="M55.6842 4.21578C56.164 4.21578 56.6017 4.34771 56.9975 4.61157C57.3933 4.86343 57.6932 5.19926 57.8971 5.61904L57.0515 6.26669C57.0515 6.02682 57.0155 5.79294 56.9436 5.56506C56.8716 5.33718 56.7696 5.13929 56.6377 4.97138C56.5178 4.79147 56.3679 4.65354 56.188 4.5576C56.02 4.44965 55.8401 4.39568 55.6482 4.39568C55.3004 4.39568 55.0126 4.5456 54.7847 4.84544C54.5688 5.14529 54.4609 5.4871 54.4609 5.8709C54.4609 6.20672 54.5448 6.50057 54.7127 6.75244C54.8806 7.0043 55.0905 7.24418 55.3424 7.47206C55.5943 7.69994 55.8701 7.92182 56.17 8.13771C56.4698 8.35359 56.7457 8.59946 56.9975 8.87532C57.2494 9.13918 57.4593 9.43902 57.6272 9.77484C57.7951 10.0987 57.8791 10.4885 57.8791 10.9442C57.8791 11.316 57.8191 11.6578 57.6992 11.9697C57.5792 12.2695 57.4113 12.5334 57.1954 12.7613C56.9795 12.9772 56.7277 13.1451 56.4398 13.265C56.164 13.3849 55.8641 13.4449 55.5403 13.4449C55.1685 13.4449 54.8267 13.3669 54.5148 13.211C54.203 13.0551 53.8972 12.8332 53.5973 12.5454V10.0267H53.7772C53.8012 10.4945 53.8732 10.9262 53.9931 11.322C54.1131 11.7178 54.257 12.0596 54.4249 12.3475C54.6048 12.6353 54.7967 12.8632 55.0006 13.0311C55.2165 13.187 55.4204 13.265 55.6123 13.265C55.7682 13.265 55.9241 13.217 56.08 13.1211C56.2359 13.0131 56.3739 12.8752 56.4938 12.7073C56.6137 12.5394 56.7097 12.3415 56.7816 12.1136C56.8536 11.8737 56.8896 11.6279 56.8896 11.376C56.8896 10.9802 56.8056 10.6384 56.6377 10.3505C56.4698 10.0507 56.2599 9.78084 56.0081 9.54097C55.7562 9.2891 55.4803 9.06122 55.1805 8.85733C54.8806 8.64144 54.6048 8.41956 54.3529 8.19168C54.1011 7.9518 53.8912 7.69394 53.7233 7.41809C53.5553 7.13024 53.4714 6.80041 53.4714 6.42861C53.4714 6.15275 53.5194 5.8829 53.6153 5.61904C53.7233 5.35517 53.8732 5.1213 54.0651 4.91741C54.257 4.70152 54.4909 4.53361 54.7667 4.41367C55.0426 4.28174 55.3484 4.21578 55.6842 4.21578Z" stroke="var(--stroke-0, #FFF3DE)" stroke-width="0.479747" mask="url(#path-1-outside-1_9_145)"/>
<path d="M58.709 4.39568V4.21578C58.9129 4.20378 59.0988 4.11383 59.2667 3.94592C59.4466 3.76601 59.6025 3.55612 59.7345 3.31625C59.8784 3.07638 59.9923 2.83051 60.0763 2.57864C60.1722 2.32677 60.2442 2.12288 60.2922 1.96696L60.4361 2.05691V4.21578H61.2097V4.39568H60.4361V11.6459C60.4361 12.1016 60.4721 12.4194 60.544 12.5994C60.628 12.7793 60.7359 12.8692 60.8679 12.8692C61.0238 12.8692 61.1557 12.7853 61.2637 12.6173C61.3716 12.4494 61.4316 12.2695 61.4436 12.0776L61.5335 12.0956C61.5335 12.4794 61.4256 12.8032 61.2097 13.0671C61.0058 13.331 60.7359 13.4629 60.4001 13.4629C60.0523 13.4629 59.7825 13.325 59.5906 13.0491C59.4106 12.7613 59.3207 12.3775 59.3207 11.8977V4.39568H58.709Z" stroke="var(--stroke-0, #FFF3DE)" stroke-width="0.479747" mask="url(#path-1-outside-1_9_145)"/>
<path d="M62.1701 13.319V13.229C62.266 13.205 62.356 13.1271 62.4399 12.9951C62.5359 12.8512 62.5839 12.5874 62.5839 12.2036V6.01483C62.5839 5.63103 62.5359 5.37317 62.4399 5.24123C62.356 5.09731 62.266 5.01335 62.1701 4.98937V4.89941C62.374 4.89941 62.6318 4.85744 62.9437 4.77348C63.2555 4.68953 63.4774 4.56359 63.6093 4.39568H63.6993V6.08679C63.8072 5.64302 63.9871 5.25323 64.239 4.91741C64.5028 4.56959 64.8447 4.39568 65.2645 4.39568C65.6123 4.39568 65.9181 4.52761 66.182 4.79147C66.4578 5.04334 66.5957 5.36717 66.5957 5.76296L65.4444 5.83492C65.3964 5.55907 65.3064 5.36717 65.1745 5.25923C65.0426 5.13929 64.9046 5.07932 64.7607 5.07932C64.5688 5.07932 64.4009 5.17527 64.257 5.36717C64.1251 5.54707 64.0171 5.76296 63.9332 6.01483C63.8492 6.2547 63.7892 6.50057 63.7532 6.75244C63.7173 7.0043 63.6993 7.1962 63.6993 7.32813V12.2036C63.6993 12.5874 63.7413 12.8512 63.8252 12.9951C63.9212 13.1271 64.0171 13.205 64.1131 13.229V13.319H62.1701Z" stroke="var(--stroke-0, #FFF3DE)" stroke-width="0.479747" mask="url(#path-1-outside-1_9_145)"/>
<path d="M70.8724 8.78536V6.91435C70.8724 5.23524 70.5126 4.39568 69.793 4.39568C69.6131 4.39568 69.4452 4.44965 69.2893 4.5576C69.1333 4.65354 68.9894 4.79147 68.8575 4.97138C68.7376 5.13929 68.6416 5.33718 68.5696 5.56506C68.4977 5.79294 68.4617 6.02682 68.4617 6.26669L67.6161 5.61904C67.82 5.19926 68.1199 4.86343 68.5157 4.61157C68.9115 4.34771 69.3612 4.21578 69.865 4.21578C70.5246 4.21578 71.0403 4.45565 71.4121 4.9354C71.7959 5.40315 71.9878 6.08679 71.9878 6.98631V10.6204C71.9878 10.8363 71.9878 11.0642 71.9878 11.304C71.9878 11.5319 71.9938 11.7478 72.0058 11.9517C72.0298 12.1436 72.0598 12.3055 72.0958 12.4374C72.1438 12.5694 72.2097 12.6353 72.2937 12.6353C72.3776 12.6353 72.4436 12.5754 72.4916 12.4554C72.5515 12.3355 72.5815 12.2515 72.5815 12.2036L72.7075 12.3295C72.6835 12.4374 72.6475 12.5574 72.5995 12.6893C72.5515 12.8092 72.4856 12.9232 72.4016 13.0311C72.3177 13.1391 72.2157 13.229 72.0958 13.301C71.9878 13.3729 71.8619 13.4089 71.718 13.4089C71.4421 13.4089 71.2322 13.277 71.0883 13.0131C70.9444 12.7493 70.8724 12.4075 70.8724 11.9877V11.7358C70.6805 12.2156 70.3807 12.6353 69.9729 12.9951C69.5651 13.343 69.1094 13.5169 68.6056 13.5169C68.3657 13.5169 68.1319 13.4689 67.904 13.3729C67.6881 13.277 67.4962 13.1451 67.3283 12.9772C67.1604 12.8092 67.0285 12.6113 66.9325 12.3835C66.8366 12.1556 66.7886 11.9037 66.7886 11.6279C66.7886 11.2081 66.9025 10.8243 67.1304 10.4765C67.3703 10.1287 67.6761 9.82881 68.0479 9.57695C68.4317 9.32508 68.8695 9.13318 69.3612 9.00125C69.853 8.85733 70.3567 8.78536 70.8724 8.78536ZM69.0914 13.0311C69.3192 13.0311 69.5351 12.9652 69.739 12.8332C69.9549 12.6893 70.1468 12.5154 70.3147 12.3115C70.4826 12.0956 70.6146 11.8677 70.7105 11.6279C70.8185 11.376 70.8724 11.1421 70.8724 10.9262V8.96527C70.4526 8.97726 70.0629 9.04323 69.703 9.16316C69.3432 9.2831 69.0314 9.44502 68.7675 9.64891C68.5037 9.8528 68.2938 10.1047 68.1379 10.4045C67.9939 10.6924 67.922 11.0222 67.922 11.394C67.922 11.8737 68.0299 12.2695 68.2458 12.5814C68.4737 12.8812 68.7555 13.0311 69.0914 13.0311Z" stroke="var(--stroke-0, #FFF3DE)" stroke-width="0.479747" mask="url(#path-1-outside-1_9_145)"/>
<path d="M73.3439 13.229C73.5598 13.0611 73.6917 12.8572 73.7397 12.6173C73.7876 12.3775 73.8116 12.1256 73.8116 11.8617V1.85902C73.8116 1.47522 73.7637 1.21736 73.6677 1.08543C73.5837 0.941504 73.4938 0.857548 73.3978 0.833561V0.743608C73.4938 0.743608 73.6137 0.731614 73.7577 0.707627C73.9016 0.68364 74.0395 0.653656 74.1714 0.617675C74.3154 0.5697 74.4473 0.515728 74.5672 0.45576C74.6992 0.395792 74.7951 0.323829 74.8551 0.239873H74.945V11.8617C74.945 12.1136 74.969 12.3655 75.017 12.6173C75.065 12.8572 75.1969 13.0611 75.4128 13.229V13.319C75.2329 13.295 75.059 13.277 74.8911 13.265C74.7231 13.241 74.5552 13.229 74.3873 13.229C74.2074 13.229 74.0275 13.241 73.8476 13.265C73.6797 13.277 73.5118 13.295 73.3439 13.319V13.229Z" stroke="var(--stroke-0, #FFF3DE)" stroke-width="0.479747" mask="url(#path-1-outside-1_9_145)"/>
</g>
</svg>
